<?xml version="1.0" standalone="no"?>
<!DOCTYPE svg PUBLIC "-//W3C//DTD SVG 1.1//EN" "http://www.w3.org/Graphics/SVG/1.1/DTD/svg11.dtd" >
<svg xmlns="http://www.w3.org/2000/svg">
<metadata></metadata>
<defs>
<font id="solido_compactultralight" horiz-adv-x="516" >
<font-face units-per-em="2048" ascent="1536" descent="-512" />
<missing-glyph horiz-adv-x="245" />
<glyph unicode="&#xfb01;" horiz-adv-x="540" d="M16 969v55h78v287q0 53 12.5 88.5t35 50.5t43 20t48.5 5h230v-297h-62v237h-153q-49 0 -70.5 -26.5t-21.5 -85.5v-279h147v-55h-147v-969h-62v969h-78zM401 0v1024h62v-1024h-62z" />
<glyph unicode="&#xfb02;" horiz-adv-x="552" d="M16 969v55h78v287q0 53 12.5 88.5t35 50.5t43 20t48.5 5h230v-1475h-62v1415h-153q-49 0 -70.5 -26.5t-21.5 -85.5v-279h147v-55h-147v-969h-62v969h-78z" />
<glyph horiz-adv-x="2048" />
<glyph horiz-adv-x="2048" />
<glyph unicode="&#xd;" horiz-adv-x="2048" />
<glyph unicode=" "  horiz-adv-x="245" />
<glyph unicode="&#x09;" horiz-adv-x="245" />
<glyph unicode="&#xa0;" horiz-adv-x="245" />
<glyph unicode="!" horiz-adv-x="253" d="M96 0h62v160h-62v-160zM96 819v615h62v-615l-11 -495h-41z" />
<glyph unicode="&#x22;" horiz-adv-x="450" d="M72 1276v158h55v-158l-10 -266h-35zM322 1276v158h57v-158l-10 -266h-37z" />
<glyph unicode="#" horiz-adv-x="704" d="M55 537v36h142v308h-142v39h142v514h39v-514h235v514h37v-514h141v-39h-141v-308h141v-36h-141v-537h-37v537h-235v-537h-39v537h-142zM236 573h235v308h-235v-308z" />
<glyph unicode="$" horiz-adv-x="552" d="M74 186v326h61v-326q0 -58 37 -97.5t104 -39.5t104.5 40t37.5 97v211q0 66 -25.5 123t-63.5 95.5t-83 83.5t-83 86.5t-63.5 105.5t-25.5 139v217q0 88 51.5 139.5t132.5 57.5v194h37v-194q81 -6 132.5 -57.5t51.5 -139.5v-325h-61v325q0 57 -37.5 97t-104.5 40 t-104 -39.5t-37 -97.5v-217q0 -57 19 -106.5t49.5 -87t67 -73.5t73 -73t67 -77.5t49.5 -96t19 -119.5v-211q0 -88 -51.5 -139t-132.5 -57v-195h-37v195q-81 6 -132.5 57t-51.5 139z" />
<glyph unicode="%" horiz-adv-x="950" d="M74 702v633q0 56 35 87.5t90 31.5q54 0 89.5 -32t35.5 -87v-633q0 -57 -35 -88.5t-90 -31.5q-56 0 -90.5 31.5t-34.5 88.5zM117 702q0 -34 21.5 -56.5t60.5 -22.5q38 0 59 22.5t21 56.5v633q0 33 -21 55.5t-59 22.5q-39 0 -60.5 -22.5t-21.5 -55.5v-633zM168 0h39 l573 1434h-39zM627 115v633q0 56 34.5 87t90.5 31q54 0 89.5 -31.5t35.5 -86.5v-633q0 -57 -35.5 -89t-89.5 -32q-56 0 -90.5 32t-34.5 89zM670 115q0 -34 21.5 -57t60.5 -23q38 0 58.5 23t20.5 57v633q0 33 -20.5 55t-58.5 22q-39 0 -60.5 -22t-21.5 -55v-633z" />
<glyph unicode="&#x26;" horiz-adv-x="643" d="M78 186v312q0 87 27.5 139t97.5 98l-27 56q-51 109 -74.5 181t-23.5 150v125q0 92 57.5 144.5t145.5 52.5t144 -52t56 -145v-325h-61v325q0 58 -36 97.5t-103 39.5q-68 0 -105 -39.5t-37 -97.5v-125q0 -122 84 -291l197 -411v336h182v-58h-121v-407l121 -252v-39h-49 l-74 154q-10 -78 -64.5 -121t-133.5 -43q-88 0 -145.5 52t-57.5 144zM139 186q0 -58 37 -97.5t105 -39.5q67 0 103 39.5t36 97.5v93l-193 405q-55 -41 -71.5 -84t-16.5 -102v-312z" />
<glyph unicode="'" horiz-adv-x="198" d="M72 1276v158h55v-158l-10 -266h-35z" />
<glyph unicode="(" horiz-adv-x="438" d="M49 717q0 -262 87.5 -531.5t238.5 -492.5h49q-313 515 -313 1024q0 512 313 1024h-49q-151 -223 -238.5 -492.5t-87.5 -531.5z" />
<glyph unicode=")" horiz-adv-x="438" d="M12 -307q316 520 316 1024q0 507 -316 1024h49q151 -224 239.5 -493.5t88.5 -530.5t-88.5 -530.5t-239.5 -493.5h-49z" />
<glyph unicode="*" horiz-adv-x="464" d="M55 1184l142 78l-142 75l23 41l137 -84l-4 160h45l-4 -160l135 84l23 -41l-140 -75l140 -78l-23 -37l-135 84l4 -160h-45l4 160l-137 -84z" />
<glyph unicode="+" horiz-adv-x="456" d="M55 698v52h148v149h51v-149h149v-52h-149v-147h-51v147h-148z" />
<glyph unicode="," horiz-adv-x="196" d="M29 -266h47l51 266v160h-57v-160z" />
<glyph unicode="-" horiz-adv-x="436" d="M53 487v52h328v-52h-328z" />
<glyph unicode="." horiz-adv-x="196" d="M70 0h57v160h-57v-160z" />
<glyph unicode="/" horiz-adv-x="710" d="M49 0h39l574 1434h-39z" />
<glyph unicode="0" horiz-adv-x="581" d="M88 186v1061q0 92 57.5 144.5t145.5 52.5t145.5 -52.5t57.5 -144.5v-1061q0 -92 -57.5 -144t-145.5 -52t-145.5 52t-57.5 144zM150 186q0 -58 37 -97.5t104 -39.5t104 39.5t37 97.5v1061q0 58 -37 97.5t-104 39.5t-104 -39.5t-37 -97.5v-1061z" />
<glyph unicode="1" horiz-adv-x="366" d="M39 0v57h121v1321h-121v56h182v-1377h121v-57h-303z" />
<glyph unicode="2" horiz-adv-x="540" d="M76 0v266q0 64 19 126.5t49 115t66.5 103.5t73 100.5t66.5 99t49 106t19 113.5v217q0 58 -36 97.5t-103 39.5q-68 0 -105 -39.5t-37 -97.5v-325h-61v325q0 92 57.5 144.5t145.5 52.5t144 -52t56 -145v-217q0 -65 -19 -128t-49 -115t-66.5 -103t-73 -100.5t-66.5 -98 t-49 -105.5t-19 -114v-209h342v-57h-403z" />
<glyph unicode="3" horiz-adv-x="561" d="M76 186v326h61v-326q0 -57 37.5 -97t104.5 -40t104 39.5t37 97.5v404q0 58 -37 97.5t-104 39.5h-74v59h74q66 0 98.5 39.5t32.5 98.5v323q0 59 -32.5 98t-98.5 39q-67 0 -104.5 -40t-37.5 -97v-325h-61v325q0 92 57.5 144.5t145.5 52.5q87 0 139.5 -52t52.5 -145v-323 q0 -124 -100 -166q110 -47 110 -168v-404q0 -92 -57 -144t-145 -52t-145.5 52t-57.5 144z" />
<glyph unicode="4" horiz-adv-x="571" d="M23 422v57l342 955h61v-955h121v-57h-121v-422h-61v422h-342zM78 479h287v801z" />
<glyph unicode="5" horiz-adv-x="555" d="M84 186v326h61v-326q0 -58 37 -97.5t105 -39.5q67 0 103 39.5t36 97.5v455q0 58 -36 97.5t-103 39.5h-201v656h397v-56h-336v-540h140q88 0 144 -52t56 -145v-455q0 -92 -56 -144t-144 -52t-145.5 52t-57.5 144z" />
<glyph unicode="6" horiz-adv-x="573" d="M88 186v1061q0 92 57.5 144.5t145.5 52.5t145.5 -52.5t57.5 -144.5v-325h-62v325q0 58 -37 97.5t-104 39.5t-104 -39.5t-37 -97.5v-461h141q88 0 145.5 -52t57.5 -144v-404q0 -92 -57.5 -144t-145.5 -52t-145.5 52t-57.5 144zM150 186q0 -58 37 -97.5t104 -39.5t104 39.5 t37 97.5v404q0 58 -37 97.5t-104 39.5h-141v-541z" />
<glyph unicode="7" horiz-adv-x="456" d="M27 1378v56h405v-56q-119 -244 -190.5 -654t-71.5 -724h-61q0 301 73 715.5t189 662.5h-344z" />
<glyph unicode="8" horiz-adv-x="563" d="M80 186v363q0 123 113 168q-103 47 -103 168v362q0 93 53 145t140 52t138.5 -52t51.5 -145v-362q0 -122 -100 -168q110 -44 110 -168v-363q0 -92 -56 -144t-144 -52t-145.5 52t-57.5 144zM141 186q0 -58 37 -97.5t105 -39.5q67 0 103 39.5t36 97.5v363q0 58 -36 98.5 t-103 40.5q-68 0 -105 -40.5t-37 -98.5v-363zM152 885q0 -60 32 -98.5t99 -38.5q66 0 97.5 39t31.5 98v362q0 59 -31.5 98t-97.5 39q-67 0 -99 -38.5t-32 -98.5v-362z" />
<glyph unicode="9" horiz-adv-x="573" d="M82 186v326h61v-326q0 -58 36.5 -97.5t103.5 -39.5q68 0 104.5 39.5t36.5 97.5v461h-141q-88 0 -144.5 52.5t-56.5 146.5v401q0 92 56.5 144.5t144.5 52.5t145 -52.5t57 -144.5v-1061q0 -92 -57 -144t-145 -52t-144.5 52t-56.5 144zM143 846q0 -58 36.5 -98.5 t103.5 -40.5h141v540q0 58 -36.5 97.5t-104.5 39.5q-67 0 -103.5 -39.5t-36.5 -97.5v-401z" />
<glyph unicode=":" horiz-adv-x="231" d="M88 154h55v159h-55v-159zM88 651h55v158h-55v-158z" />
<glyph unicode=";" horiz-adv-x="258" d="M63 -266h48l51 266v160h-58v-160zM104 651h58v158h-58v-158z" />
<glyph unicode="&#x3c;" horiz-adv-x="485" d="M53 694v58l350 141v-57l-282 -111v-4l282 -107v-59z" />
<glyph unicode="=" horiz-adv-x="493" d="M84 575v52h328v-52h-328zM84 821v51h328v-51h-328z" />
<glyph unicode="&#x3e;" horiz-adv-x="485" d="M82 555l350 139v58l-350 141v-57l283 -111v-4l-283 -107v-59z" />
<glyph unicode="?" horiz-adv-x="540" d="M63 920v327q0 92 57.5 144.5t145.5 52.5t145.5 -52.5t57.5 -144.5v-469q0 -83 -47.5 -134t-124.5 -60l-8 -260h-51v317h28q67 0 104.5 40t37.5 97v469q0 57 -37.5 97t-104.5 40t-104 -39.5t-37 -97.5v-327h-62zM236 0v160h61v-160h-61z" />
<glyph unicode="@" horiz-adv-x="667" d="M92 8v1008q0 98 67 160.5t181 62.5t181 -62.5t67 -160.5v-840h-164l-10 43q-20 -51 -86 -51q-92 0 -92 125v387q0 123 92 123q66 0 92 -53l4 47h33v-578h90v797q0 76 -52.5 130t-154.5 54t-154.5 -54t-52.5 -130v-1008q0 -76 52.5 -130t154.5 -54v-39q-114 0 -181 62.5 t-67 160.5zM279 293q0 -82 63 -82q72 0 72 125v301q0 123 -72 123q-63 0 -63 -82v-385z" />
<glyph unicode="A" horiz-adv-x="538" d="M29 0l209 1444h61l211 -1444h-61l-60 430h-242l-59 -430h-59zM156 487h225l-113 807z" />
<glyph unicode="B" horiz-adv-x="573" d="M94 0v1434h195q88 0 143 -50.5t55 -144.5v-348q0 -124 -114 -166q58 -16 91.5 -58.5t33.5 -107.5v-364q0 -92 -55.5 -143.5t-143.5 -51.5h-205zM156 57h143q67 0 102 40t35 98v364q0 58 -35 97.5t-102 39.5h-143v-639zM156 754h133q67 0 102 39.5t35 97.5v348 q0 58 -35 98.5t-102 40.5h-133v-624z" />
<glyph unicode="C" horiz-adv-x="563" d="M86 186q0 -92 57.5 -144t145.5 -52t145.5 52t57.5 144v326h-62v-326q0 -58 -37 -97.5t-104 -39.5t-104.5 40t-37.5 97v1061q0 57 37.5 97t104.5 40t104 -39.5t37 -97.5v-325h62v325q0 92 -57.5 144.5t-145.5 52.5t-145.5 -52.5t-57.5 -144.5v-1061z" />
<glyph unicode="D" horiz-adv-x="585" d="M94 0v1434h205q88 0 143.5 -50.5t55.5 -144.5v-1044q0 -92 -55.5 -143.5t-143.5 -51.5h-205zM156 57h143q67 0 102 40t35 98v1044q0 58 -35 98.5t-102 40.5h-143v-1321z" />
<glyph unicode="E" horiz-adv-x="483" d="M94 0v1434h350v-56h-288v-624h250v-58h-250v-639h288v-57h-350z" />
<glyph unicode="F" horiz-adv-x="471" d="M94 0v1434h350v-56h-288v-665h250v-58h-250v-655h-62z" />
<glyph unicode="G" horiz-adv-x="569" d="M86 186v1061q0 92 57.5 144.5t145.5 52.5t145.5 -52.5t57.5 -144.5v-325h-62v325q0 58 -37 97.5t-104 39.5t-104.5 -40t-37.5 -97v-1061q0 -57 37.5 -97t104.5 -40t104 39.5t37 97.5v394h-135v55h197v-449q0 -92 -57.5 -144t-145.5 -52t-145.5 52t-57.5 144z" />
<glyph unicode="H" horiz-adv-x="591" d="M94 0v1434h62v-680h280v680h62v-1434h-62v696h-280v-696h-62z" />
<glyph unicode="I" horiz-adv-x="249" d="M94 0v1434h62v-1434h-62z" />
<glyph unicode="J" horiz-adv-x="327" d="M29 0q57 0 91.5 6t63 25t40.5 56.5t12 98.5v1248h-62v-1239q0 -48 -7 -75.5t-26.5 -41.5t-43 -17.5t-68.5 -3.5v-57z" />
<glyph unicode="K" horiz-adv-x="528" d="M94 0v1434h62v-689l309 689h63l-315 -705l324 -729h-64l-317 709v-709h-62z" />
<glyph unicode="L" horiz-adv-x="466" d="M94 0v1434h62v-1377h288v-57h-350z" />
<glyph unicode="M" horiz-adv-x="702" d="M94 0v1434h64l196 -748l195 748h55h4v-1434h-61v870q0 73 4 363l-170 -653h-62l-176 677q7 -301 7 -387v-870h-56z" />
<glyph unicode="N" horiz-adv-x="591" d="M94 0v1434h66l289 -1241q-7 266 -7 370v871h56v-1434h-66l-289 1243q7 -280 7 -373v-870h-56z" />
<glyph unicode="O" horiz-adv-x="577" d="M86 186q0 -92 57.5 -144t145.5 -52t145.5 52t57.5 144v1061q0 92 -57.5 144.5t-145.5 52.5t-145.5 -52.5t-57.5 -144.5v-1061zM147 186v1061q0 57 37.5 97t104.5 40t104 -39.5t37 -97.5v-1061q0 -58 -37 -97.5t-104 -39.5t-104.5 40t-37.5 97z" />
<glyph unicode="P" horiz-adv-x="550" d="M94 0v1434h205q88 0 143.5 -50.5t55.5 -144.5v-440q0 -92 -55.5 -143.5t-143.5 -51.5h-143v-604h-62zM156 662h143q67 0 102 39.5t35 97.5v440q0 58 -35 98.5t-102 40.5h-143v-716z" />
<glyph unicode="Q" horiz-adv-x="577" d="M86 186v1061q0 92 57.5 144.5t145.5 52.5t145.5 -52.5t57.5 -144.5v-1061q0 -83 -48 -134t-125 -60v-84q0 -48 7.5 -76t27.5 -42t43.5 -17.5t67.5 -3.5v-56q-56 0 -91 6.5t-63.5 25.5t-40.5 56.5t-12 98.5v92q-77 9 -124.5 60t-47.5 134zM147 186q0 -57 37.5 -97 t104.5 -40t104 39.5t37 97.5v1061q0 58 -37 97.5t-104 39.5t-104.5 -40t-37.5 -97v-1061z" />
<glyph unicode="R" horiz-adv-x="581" d="M94 0v1434h205q88 0 143.5 -50.5t55.5 -144.5v-332q0 -75 -35 -124t-94 -64q100 -42 108 -180l41 -539h-61l-37 539q-8 80 -45 118.5t-107 38.5h-112v-696h-62zM156 754h143q67 0 102 39.5t35 97.5v348q0 58 -35 98.5t-102 40.5h-143v-624z" />
<glyph unicode="S" horiz-adv-x="552" d="M74 186q0 -92 57 -144t145 -52t145.5 52t57.5 144v211q0 64 -19 119.5t-49.5 96t-67 77.5t-73 73t-67 73.5t-49.5 87t-19 106.5v217q0 58 37 97.5t104 39.5t104.5 -40t37.5 -97v-325h61v325q0 92 -57.5 144.5t-145.5 52.5t-145 -52.5t-57 -144.5v-217q0 -75 25.5 -139 t63.5 -105.5t83 -86.5t83 -83.5t63.5 -95.5t25.5 -123v-211q0 -57 -37.5 -97t-104.5 -40t-104 39.5t-37 97.5v326h-61v-326z" />
<glyph unicode="T" horiz-adv-x="473" d="M33 1378v56h409v-56h-174v-1378h-61v1378h-174z" />
<glyph unicode="U" horiz-adv-x="587" d="M92 186v1248h62v-1248q0 -58 36.5 -97.5t104.5 -39.5q67 0 103 39.5t36 97.5v1248h62v-1248q0 -92 -56.5 -144t-144.5 -52t-145.5 52t-57.5 144z" />
<glyph unicode="V" horiz-adv-x="538" d="M29 1434h61l180 -1282l181 1282h59l-211 -1444h-61z" />
<glyph unicode="W" horiz-adv-x="880" d="M31 1434h61l158 -1260l162 1260h61l160 -1260l158 1260h59l-188 -1444h-62l-160 1255l-159 -1255h-62z" />
<glyph unicode="X" horiz-adv-x="503" d="M10 0l211 727l-201 707h62l170 -623l168 623h61l-198 -707l209 -727h-62l-178 649l-180 -649h-62z" />
<glyph unicode="Y" d="M18 1434h62l180 -783l180 783h60l-211 -883v-551h-62v551z" />
<glyph unicode="Z" horiz-adv-x="436" d="M33 0v57l311 1321h-291v56h350v-56l-313 -1321h313v-57h-370z" />
<glyph unicode="[" horiz-adv-x="464" d="M100 -307v2048h338v-51h-280v-1946h280v-51h-338z" />
<glyph unicode="\" horiz-adv-x="710" d="M49 1434h39l574 -1434h-39z" />
<glyph unicode="]" horiz-adv-x="464" d="M27 -256h280v1946h-280v51h338v-2048h-338v51z" />
<glyph unicode="^" horiz-adv-x="503" d="M94 594l127 287h55l134 -287h-56l-106 231l-96 -231h-58z" />
<glyph unicode="_" horiz-adv-x="587" d="M129 -41h328v-51h-328v51z" />
<glyph unicode="`" horiz-adv-x="376" d="M94 1413h68l121 -287h-58z" />
<glyph unicode="a" horiz-adv-x="489" d="M51 178v187q0 61 10.5 99.5t41.5 71.5t92.5 49t158.5 19v227q0 142 -114 142q-67 0 -150 -58l-29 50q84 69 183 69q172 0 172 -198v-836h-51l-7 98q-18 -51 -56.5 -79.5t-92.5 -28.5q-158 0 -158 188zM113 180q0 -129 112 -129q69 0 99 57t30 171v270q-65 -2 -110 -11.5 t-70.5 -22.5t-39 -36.5t-17.5 -46t-4 -57.5v-195z" />
<glyph unicode="b" horiz-adv-x="509" d="M78 0h51l4 94q46 -104 152 -104q45 0 77.5 18.5t48.5 50t22.5 65t6.5 71.5v634q0 38 -6.5 71.5t-22.5 65t-48.5 50t-77.5 18.5q-53 0 -90.5 -27t-55.5 -71v539h-61v-1475zM139 264v496q0 43 5 77t17.5 67t39.5 51t67 18q58 0 84.5 -42t26.5 -104v-630q0 -62 -26.5 -104 t-84.5 -42q-40 0 -67 18t-39.5 51t-17.5 67t-5 77z" />
<glyph unicode="c" horiz-adv-x="440" d="M70 195q0 -205 200 -205q57 0 148 22l-8 60q-60 -21 -129 -21q-78 0 -114 35.5t-36 116.5v618q0 81 36 116.5t114 35.5q69 0 129 -21l8 60q-91 22 -148 22q-200 0 -200 -205v-634z" />
<glyph unicode="d" horiz-adv-x="509" d="M70 195v634q0 38 6.5 71.5t22.5 65t48.5 50t77.5 18.5q103 0 148 -98v539h61v-1475h-51l-6 94q-43 -104 -152 -104q-45 0 -77.5 18.5t-48.5 50t-22.5 65t-6.5 71.5zM131 197q0 -62 26.5 -104t84.5 -42q131 0 131 213v496q0 213 -131 213q-58 0 -84.5 -42t-26.5 -104v-630 z" />
<glyph unicode="e" horiz-adv-x="493" d="M70 193v645q0 94 48 145t134 51q85 0 132.5 -50.5t47.5 -145.5v-326h-301v-311q0 -80 39.5 -115t118.5 -35q85 0 145 21l8 -60q-85 -22 -163 -22q-209 0 -209 203zM131 569h240v269q0 58 -27.5 97.5t-91.5 39.5q-65 0 -93 -40t-28 -97v-269z" />
<glyph unicode="f" horiz-adv-x="319" d="M16 969h78v-969h62v969h147v55h-147v289q0 59 21.5 85.5t70.5 26.5q33 0 69 -8l7 58q-41 10 -91 10q-28 0 -48.5 -5t-43 -20t-35 -50.5t-12.5 -88.5v-297h-78v-55z" />
<glyph unicode="g" horiz-adv-x="509" d="M70 215q0 -38 6.5 -71.5t22.5 -65t48.5 -50t77.5 -18.5q103 0 148 99v-326q0 -80 -37 -116t-113 -36q-75 0 -135 21l-8 -60q91 -22 149 -22q205 0 205 209v1245h-51l-6 -94q-43 104 -152 104q-45 0 -77.5 -18.5t-48.5 -50t-22.5 -65t-6.5 -71.5v-614zM131 217v610 q0 62 26.5 104t84.5 42q131 0 131 -213v-475q0 -213 -131 -213q-58 0 -84.5 41.5t-26.5 103.5z" />
<glyph unicode="h" d="M78 0h61v760q0 213 131 213q58 0 84.5 -42t26.5 -104v-827h61v829q0 38 -6.5 71.5t-22.5 65t-48.5 50t-77.5 18.5q-103 0 -148 -98v539h-61v-1475z" />
<glyph unicode="i" horiz-adv-x="219" d="M78 0h61v1024h-61v-1024zM78 1178h61v245h-61v-245z" />
<glyph unicode="j" horiz-adv-x="219" d="M-90 -420q41 -10 88 -10q29 0 49.5 5t43.5 20t35.5 50.5t12.5 88.5v1290h-61v-1282q0 -59 -21.5 -86t-70.5 -27q-32 0 -72 9zM78 1178h61v245h-61v-245z" />
<glyph unicode="k" horiz-adv-x="512" d="M78 0v1475h61v-943l307 492h70l-317 -500l325 -524h-69l-316 512v-512h-61z" />
<glyph unicode="l" horiz-adv-x="243" d="M90 0h62v1475h-62v-1475z" />
<glyph unicode="m" horiz-adv-x="817" d="M78 0v1024h51l4 -94q46 104 152 104q115 0 145 -119q21 60 62 89.5t94 29.5q46 0 78.5 -18.5t48.5 -50t23 -65t7 -71.5v-829h-61v827q0 62 -27 104t-86 42q-129 0 -129 -213v-760h-61v827q0 62 -26.5 104t-84.5 42q-40 0 -67 -18t-39.5 -51t-17.5 -67t-5 -77v-760h-61z " />
<glyph unicode="n" d="M78 0h61v760q0 43 5 77t17.5 67t39.5 51t67 18q58 0 84.5 -42t26.5 -104v-827h61v829q0 38 -6.5 71.5t-22.5 65t-48.5 50t-77.5 18.5q-106 0 -152 -104l-4 94h-51v-1024z" />
<glyph unicode="o" horiz-adv-x="501" d="M70 186v652q0 94 48 145t134 51q85 0 132.5 -50.5t47.5 -145.5v-652q0 -95 -47.5 -145.5t-132.5 -50.5q-86 0 -134 51t-48 145zM131 186q0 -57 28 -97t93 -40q64 0 91.5 40t27.5 97v652q0 57 -27.5 97t-91.5 40q-65 0 -93 -40t-28 -97v-652z" />
<glyph unicode="p" horiz-adv-x="509" d="M78 -410v1434h51l4 -94q46 104 152 104q45 0 77.5 -18.5t48.5 -50t22.5 -65t6.5 -71.5v-634q0 -38 -6.5 -71.5t-22.5 -65t-48.5 -50t-77.5 -18.5q-53 0 -90.5 27t-55.5 71v-498h-61zM139 264q0 -43 5 -77t17.5 -67t39.5 -51t67 -18q58 0 84.5 42t26.5 104v630 q0 62 -26.5 104t-84.5 42q-40 0 -67 -18t-39.5 -51t-17.5 -67t-5 -77v-496z" />
<glyph unicode="q" horiz-adv-x="509" d="M70 195q0 -38 6.5 -71.5t22.5 -65t48.5 -50t77.5 -18.5q103 0 148 98v-498h61v1434h-51l-6 -94q-43 104 -152 104q-45 0 -77.5 -18.5t-48.5 -50t-22.5 -65t-6.5 -71.5v-634zM131 197v630q0 62 26.5 104t84.5 42q131 0 131 -213v-496q0 -213 -131 -213q-58 0 -84.5 42 t-26.5 104z" />
<glyph unicode="r" horiz-adv-x="319" d="M78 0h61v750q0 45 6 80t21.5 66.5t46.5 49t76 17.5v71q-56 0 -97.5 -30t-58.5 -84l-4 104h-51v-1024z" />
<glyph unicode="s" horiz-adv-x="456" d="M39 31q100 -41 174 -41q93 0 151 56.5t58 160.5v57q0 62 -17 110t-44 78.5t-59.5 56t-65.5 49t-60 50.5t-44 68t-17 94v57q0 72 36.5 110t96.5 38q59 0 125 -23l10 60q-73 22 -139 22q-85 0 -140 -54t-55 -153v-57q0 -61 17 -108.5t44 -78t59.5 -56t65.5 -49.5t60 -51 t44 -68.5t17 -94.5v-57q0 -77 -39 -117.5t-104 -40.5q-66 0 -158 41z" />
<glyph unicode="t" horiz-adv-x="331" d="M18 969v55h76v205h62v-205h159v-55h-159v-807q0 -58 22.5 -85.5t69.5 -27.5q35 0 71 8l7 -57q-44 -10 -90 -10q-28 0 -49 5t-44 20t-36 50.5t-13 88.5v815h-76z" />
<glyph unicode="u" d="M76 195q0 -38 7 -71.5t23 -65t48.5 -50t78.5 -18.5q107 0 150 104l6 -94h51v1024h-61v-760q0 -213 -129 -213q-59 0 -86 42t-27 104v827h-61v-829z" />
<glyph unicode="v" horiz-adv-x="483" d="M18 1024h64l162 -928l159 928h62l-193 -1034h-61z" />
<glyph unicode="w" horiz-adv-x="798" d="M20 1024h62l143 -913l144 913h61l143 -913l144 913h61l-174 -1034h-61l-144 903l-143 -903h-61z" />
<glyph unicode="x" horiz-adv-x="464" d="M10 0l191 512l-191 512h62l161 -438l162 438h60l-193 -512l193 -512h-60l-162 438l-161 -438h-62z" />
<glyph unicode="y" horiz-adv-x="481" d="M-14 -420l4 58q34 -11 65 -11q52 0 77 25.5t36 85.5l51 252h-10l-191 1034h62l162 -918l161 918h60l-238 -1280q-19 -100 -59 -137t-111 -37q-28 0 -69 10z" />
<glyph unicode="z" horiz-adv-x="385" d="M31 0v57l260 912h-250v55h311v-55l-260 -912h262v-57h-323z" />
<glyph unicode="{" horiz-adv-x="393" d="M16 684q30 -4 53 -14.5t38 -23t25.5 -35t16 -39.5t8 -48t3 -50.5t0.5 -55.5q0 -60 -10.5 -214t-10.5 -218q0 -89 15 -147.5t46 -90t69.5 -43.5t95.5 -12v51q-13 0 -22.5 0.5t-28.5 5t-32.5 13t-30.5 26.5t-28 42.5t-18.5 64t-7.5 88.5q0 63 10 244.5t10 244.5 q0 116 -33.5 170t-109.5 72v4q76 19 109.5 73.5t33.5 168.5q0 64 -10 245.5t-10 243.5q0 49 7.5 88.5t18.5 64t28 42.5t30.5 26.5t32.5 13t28.5 5t22.5 0.5v51q-57 0 -95.5 -12t-69.5 -43.5t-46 -90t-15 -147.5q0 -63 10.5 -217.5t10.5 -214.5q0 -36 -0.5 -55.5t-3 -50.5 t-8 -48t-16 -39.5t-25.5 -35t-38 -23t-53 -14.5v-66z" />
<glyph unicode="|" horiz-adv-x="239" d="M100 -307v2048h39v-2048h-39z" />
<glyph unicode="}" horiz-adv-x="393" d="M29 -256q13 0 22.5 0.5t28.5 5t32.5 13t30.5 26.5t28 42.5t18.5 64t7.5 88.5q0 63 -10.5 244.5t-10.5 244.5q0 116 33.5 170t109.5 72v4q-76 19 -109.5 73.5t-33.5 168.5q0 64 10.5 245.5t10.5 243.5q0 49 -7.5 88.5t-18.5 64t-28 42.5t-30.5 26.5t-32.5 13t-28.5 5 t-22.5 0.5v51q57 0 95.5 -12t69.5 -43.5t45.5 -90t14.5 -147.5q0 -63 -10.5 -217.5t-10.5 -214.5q0 -36 0.5 -55.5t3 -50.5t8 -48t16 -39.5t25.5 -35t38 -23t53 -14.5v-66q-30 -4 -53 -14.5t-38 -23t-25.5 -35t-16 -39.5t-8 -48t-3 -50.5t-0.5 -55.5q0 -60 10.5 -214 t10.5 -218q0 -89 -14.5 -147.5t-45.5 -90t-69.5 -43.5t-95.5 -12v51z" />
<glyph unicode="~" horiz-adv-x="522" d="M59 647q0 85 31 124.5t76 39.5q31 0 57 -17t41 -37.5t38 -37.5t48 -17q72 0 72 109h41q0 -85 -31 -124.5t-76 -39.5q-31 0 -57 17.5t-41 38t-38 38t-48 17.5q-72 0 -72 -111h-41z" />
<glyph unicode="&#xa1;" horiz-adv-x="243" d="M90 -154v-256h62v256l-11 856h-41zM92 866v158h62v-158h-62z" />
<glyph unicode="&#xa2;" horiz-adv-x="481" d="M80 195v634q0 194 180 205v195h39v-195q57 -2 129 -22l-8 -60q-60 21 -127 21q-78 0 -115 -36t-37 -116v-618q0 -80 37 -116t115 -36q67 0 127 21l8 -60q-72 -20 -129 -22v-195h-39v195q-180 14 -180 205z" />
<glyph unicode="&#xa3;" horiz-adv-x="616" d="M59 0v57h82v537h-82v57h82v596q0 92 57.5 144.5t145.5 52.5t144.5 -52.5t56.5 -144.5v-325h-62v325q0 58 -36 97.5t-103 39.5q-68 0 -104.5 -39.5t-36.5 -97.5v-596h137v-57h-137v-537h342v-57h-486z" />
<glyph unicode="&#xa4;" horiz-adv-x="491" d="M84 92l47 129q-47 50 -47 137v308q0 87 47 137l-47 129h20l43 -115q39 33 101 33q60 0 102 -33l41 115h21l-47 -127q47 -50 47 -139v-308q0 -87 -47 -137l47 -129h-21l-43 115q-39 -33 -100 -33q-62 0 -101 33l-43 -115h-20zM104 358q0 -29 7 -56t22.5 -52t45 -40 t69.5 -15t69.5 15t44.5 40t22 51.5t7 56.5v308q0 30 -7 56.5t-22 51.5t-44.5 40t-69.5 15t-69.5 -15t-45 -40t-22.5 -52t-7 -56v-308z" />
<glyph unicode="&#xa5;" horiz-adv-x="579" d="M49 1434h62l180 -783l180 783h59l-202 -861h139v-51h-145v-522h-62v522h-147v51h141z" />
<glyph unicode="&#xa6;" horiz-adv-x="239" d="M100 -307v921h39v-921h-39zM100 819v922h39v-922h-39z" />
<glyph unicode="&#xa7;" horiz-adv-x="585" d="M90 184v305h62v-305q0 -58 37 -97.5t104 -39.5t104 39.5t37 97.5v437h-344v55h406v-492q0 -92 -57.5 -144t-145.5 -52t-145.5 52t-57.5 144zM90 774v473q0 92 57.5 144.5t145.5 52.5t145.5 -52.5t57.5 -144.5v-305h-62v305q0 58 -37 97.5t-104 39.5t-104 -39.5t-37 -97.5 v-418h344v-55h-406z" />
<glyph unicode="&#xa8;" horiz-adv-x="497" d="M94 1178h62v245h-62v-245zM340 1178h61v245h-61v-245z" />
<glyph unicode="&#xa9;" horiz-adv-x="1548" d="M57 717q0 204 93 372.5t258 266.5t366 98t366 -98t258 -266.5t93 -372.5q0 -154 -55 -291t-149.5 -234.5t-228 -154.5t-284.5 -57t-284.5 57t-228 154.5t-149.5 234.5t-55 291zM90 717q0 -156 54.5 -289t147 -223.5t217.5 -141.5t265 -51q139 0 264 51t218 141 t147.5 223.5t54.5 289.5q0 206 -93.5 368.5t-248.5 249t-342 86.5q-188 0 -343 -86.5t-248 -248.5t-93 -369zM649 395q0 -57 34.5 -89t90.5 -32q54 0 89.5 32t35.5 89v193h-45v-193q0 -34 -21 -57t-59 -23q-39 0 -60.5 23t-21.5 57v633q0 33 21.5 55.5t60.5 22.5 q38 0 59 -22.5t21 -55.5v-194h45v194q0 55 -35.5 87t-89.5 32q-55 0 -90 -31.5t-35 -87.5v-633z" />
<glyph unicode="&#xaa;" horiz-adv-x="389" d="M78 682v41h223v-41h-223zM78 942v111q0 37 6 60t23.5 43.5t54 30.5t94.5 11v131q0 82 -66 82q-37 0 -88 -35l-18 35q46 43 111 43q106 0 106 -121v-499h-35l-4 57q-23 -64 -92 -64q-92 0 -92 115zM121 944q0 -74 63 -74q72 0 72 134v153q-85 -1 -110 -23.5t-25 -74.5 v-115z" />
<glyph unicode="&#xab;" horiz-adv-x="802" d="M49 481v58l342 393v-62l-285 -358v-4l285 -352v-64zM391 481v58l344 393v-62l-284 -358v-4l284 -352v-64z" />
<glyph unicode="&#xac;" horiz-adv-x="536" d="M72 698v52h383v-191h-62v139h-321z" />
<glyph unicode="&#xad;" horiz-adv-x="436" d="M53 487v52h328v-52h-328z" />
<glyph unicode="&#xae;" horiz-adv-x="1548" d="M57 717q0 204 93 372.5t258 266.5t366 98t366 -98t258 -266.5t93 -372.5q0 -154 -55 -291t-149.5 -234.5t-228 -154.5t-284.5 -57t-284.5 57t-228 154.5t-149.5 234.5t-55 291zM90 717q0 -156 54.5 -289t147 -223.5t217.5 -141.5t265 -51q139 0 264 51t218 141 t147.5 223.5t54.5 289.5q0 206 -93.5 368.5t-248.5 249t-342 86.5q-188 0 -343 -86.5t-248 -248.5t-93 -369zM657 285v860h127q54 0 87.5 -31t33.5 -88v-197q0 -91 -78 -114q59 -19 68 -107l25 -323h-43l-25 323q-6 92 -86 92h-66v-415h-43zM700 739h84q38 0 59 22.5 t21 55.5v209q0 34 -21 57t-59 23h-84v-367z" />
<glyph unicode="&#xaf;" horiz-adv-x="507" d="M94 1163v51h318v-51h-318z" />
<glyph unicode="&#xb0;" horiz-adv-x="444" d="M47 1278q0 73 51 124.5t123 51.5q73 0 124.5 -51t51.5 -125q0 -72 -52 -122t-124 -50t-123 50t-51 122zM92 1278q0 -56 37 -92.5t92 -36.5q57 0 94 36.5t37 92.5q0 57 -37 94t-94 37q-56 0 -92.5 -37t-36.5 -94z" />
<glyph unicode="&#xb1;" horiz-adv-x="491" d="M78 555v51h338v-51h-338zM78 821v51h143v144h51v-144h144v-51h-144v-143h-51v143h-143z" />
<glyph unicode="&#xb2;" horiz-adv-x="329" d="M45 834v163q0 52 21 103t51 92t60.5 81t51.5 86t21 91v131q0 33 -21 55.5t-59 22.5q-39 0 -60.5 -22.5t-21.5 -55.5v-195h-43v195q0 56 35 87.5t90 31.5q54 0 89.5 -32t35.5 -87v-131q0 -54 -21.5 -105t-51.5 -91.5t-60.5 -79.5t-52 -85t-21.5 -92v-123h207v-40h-250z " />
<glyph unicode="&#xb3;" horiz-adv-x="346" d="M47 948v193h43v-193q0 -35 20.5 -57.5t59.5 -22.5t59.5 22.5t20.5 57.5v240q0 33 -20.5 56.5t-59.5 23.5h-43v41h43q39 0 57.5 21.5t18.5 55.5v195q0 34 -18.5 56t-57.5 22t-59.5 -22.5t-20.5 -55.5v-195h-43v195q0 56 34.5 87.5t88.5 31.5q55 0 87 -31.5t32 -87.5v-195 q0 -71 -60 -98q66 -29 66 -100v-240q0 -57 -34.5 -89t-90.5 -32q-54 0 -88.5 32t-34.5 89z" />
<glyph unicode="&#xb4;" horiz-adv-x="376" d="M94 1126h58l131 287h-68z" />
<glyph unicode="&#xb6;" horiz-adv-x="679" d="M96 195v1044q0 94 55.5 144.5t143.5 50.5h102v-1434h-102q-88 0 -143.5 51.5t-55.5 143.5zM465 0v1434h158v-52h-103v-1331h103v-51h-158z" />
<glyph unicode="&#xb7;" horiz-adv-x="200" d="M72 461h57v160h-57v-160z" />
<glyph unicode="&#xb8;" horiz-adv-x="458" d="M90 -377l10 43q50 -20 113 -20q100 0 100 92v35q0 48 -19 70t-81 22h-37v137h47v-92h8q69 0 104.5 -30t35.5 -101v-41q0 -71 -41.5 -104t-108.5 -33q-32 0 -72.5 7t-58.5 15z" />
<glyph unicode="&#xb9;" horiz-adv-x="221" d="M25 834v40h71v781h-71v39h114v-820h72v-40h-186z" />
<glyph unicode="&#xba;" horiz-adv-x="397" d="M86 682v41h225v-41h-225zM86 948v387q0 57 30 88t83 31q54 0 83 -31t29 -88v-387q0 -58 -29 -89.5t-83 -31.5q-53 0 -83 31.5t-30 89.5zM129 948q0 -32 17 -56t53 -24t51.5 23.5t15.5 56.5v387q0 78 -67 78q-37 0 -53.5 -23t-16.5 -55v-387z" />
<glyph unicode="&#xbb;" horiz-adv-x="802" d="M70 92l342 389v58l-342 393v-62l284 -358v-4l-284 -352v-64zM412 92l344 389v58l-344 393v-62l284 -358v-4l-284 -352v-64z" />
<glyph unicode="&#xbc;" horiz-adv-x="727" d="M23 0l573 1434h39l-576 -1434h-36zM23 573v41h73v781h-73v39h116v-820h70v-41h-186zM395 250v41l205 569h43v-569h72v-41h-72v-250h-43v250h-205zM436 291h164v463z" />
<glyph unicode="&#xbd;" horiz-adv-x="759" d="M23 0l573 1434h39l-576 -1434h-36zM23 573v41h73v781h-73v39h116v-820h70v-41h-186zM475 0v164q0 52 21 103t51.5 92t60.5 81t51 85.5t21 90.5v132q0 33 -21 55t-59 22q-39 0 -60.5 -22t-21.5 -55v-195h-43v195q0 56 34.5 87t90.5 31q54 0 89.5 -31.5t35.5 -86.5v-132 q0 -54 -21.5 -105t-51.5 -91t-60.5 -79.5t-52 -85t-21.5 -91.5v-123h207v-41h-250z" />
<glyph unicode="&#xbe;" horiz-adv-x="847" d="M47 688v193h43v-193q0 -35 20.5 -57.5t59.5 -22.5t59.5 22.5t20.5 57.5v240q0 33 -20.5 56.5t-59.5 23.5h-43v41h43q39 0 57.5 21.5t18.5 55.5v195q0 34 -18.5 56t-57.5 22t-59.5 -22.5t-20.5 -55.5v-195h-43v195q0 56 34.5 87.5t88.5 31.5q55 0 87 -31.5t32 -87.5v-195 q0 -71 -60 -98q66 -29 66 -100v-240q0 -57 -34.5 -89t-90.5 -32q-54 0 -88.5 32t-34.5 89zM143 0l574 1434h39l-576 -1434h-37zM516 250v41l205 569h43v-569h72v-41h-72v-250h-43v250h-205zM557 291h164v463z" />
<glyph unicode="&#xbf;" horiz-adv-x="534" d="M72 -223v469q0 85 47.5 135.5t124.5 58.5l8 262h51v-317h-29q-67 0 -104 -40.5t-37 -98.5v-469q0 -58 37 -97.5t104 -39.5t104.5 40t37.5 97v327h61v-327q0 -92 -57.5 -144.5t-145.5 -52.5t-145 52.5t-57 144.5zM244 866v158h61v-158h-61z" />
<glyph unicode="&#xc0;" horiz-adv-x="538" d="M29 0l209 1444h61l211 -1444h-61l-60 430h-242l-59 -430h-59zM109 1823h67l121 -287h-57zM156 487h225l-113 807z" />
<glyph unicode="&#xc1;" horiz-adv-x="538" d="M29 0l209 1444h61l211 -1444h-61l-60 430h-242l-59 -430h-59zM156 487h225l-113 807zM240 1536h57l131 287h-68z" />
<glyph unicode="&#xc2;" horiz-adv-x="538" d="M29 0l209 1444h61l211 -1444h-61l-60 430h-242l-59 -430h-59zM111 1536l127 287h55l133 -287h-55l-107 231l-96 -231h-57zM156 487h225l-113 807z" />
<glyph unicode="&#xc3;" horiz-adv-x="538" d="M29 0l209 1444h61l211 -1444h-61l-60 430h-242l-59 -430h-59zM68 1552q0 85 30.5 124.5t75.5 39.5q25 0 46.5 -11.5t36.5 -27.5t29.5 -32t32.5 -27.5t39 -11.5q72 0 72 110h41q0 -85 -30.5 -124.5t-75.5 -39.5q-31 0 -57 17t-41.5 37.5t-38.5 37.5t-48 17q-71 0 -71 -109 h-41zM156 487h225l-113 807z" />
<glyph unicode="&#xc4;" horiz-adv-x="538" d="M29 0l209 1444h61l211 -1444h-61l-60 430h-242l-59 -430h-59zM115 1587h61v246h-61v-246zM156 487h225l-113 807zM360 1587h62v246h-62v-246z" />
<glyph unicode="&#xc5;" horiz-adv-x="538" d="M29 0l209 1444h61l211 -1444h-61l-60 430h-242l-59 -430h-59zM111 1690q0 80 41 121.5t116 41.5q74 0 115 -41.5t41 -121.5q0 -79 -41.5 -121.5t-114.5 -42.5q-74 0 -115.5 42.5t-41.5 121.5zM156 487h225l-113 807zM162 1690q0 -53 25 -88t81 -35q54 0 79.5 35t25.5 88 t-25.5 87.5t-79.5 34.5q-56 0 -81 -34.5t-25 -87.5z" />
<glyph unicode="&#xc6;" horiz-adv-x="794" d="M14 0l351 1434h391v-56h-289v-624h248v-58h-248v-639h289v-57h-350v430h-226l-108 -430h-58zM195 487h211v844z" />
<glyph unicode="&#xc7;" horiz-adv-x="563" d="M86 186v1061q0 92 57.5 144.5t145.5 52.5t145.5 -52.5t57.5 -144.5v-325h-62v325q0 58 -37 97.5t-104 39.5t-104.5 -40t-37.5 -97v-1061q0 -57 37.5 -97t104.5 -40t104 39.5t37 97.5v326h62v-326q0 -85 -50.5 -136.5t-128.5 -57.5v-84h9q69 0 104 -30t35 -101v-41 q0 -71 -41.5 -104t-108.5 -33q-32 0 -72.5 7t-58.5 15l10 43q50 -20 113 -20q100 0 100 92v35q0 48 -19 70t-81 22h-37v127q-80 8 -130 59t-50 137z" />
<glyph unicode="&#xc8;" horiz-adv-x="483" d="M94 0v1434h350v-56h-288v-624h250v-58h-250v-639h288v-57h-350zM104 1823h68l121 -287h-57z" />
<glyph unicode="&#xc9;" horiz-adv-x="483" d="M94 0v1434h350v-56h-288v-624h250v-58h-250v-639h288v-57h-350zM233 1536h58l131 287h-68z" />
<glyph unicode="&#xca;" horiz-adv-x="483" d="M94 0v1434h350v-56h-288v-624h250v-58h-250v-639h288v-57h-350zM104 1536l127 287h56l133 -287h-55l-107 231l-96 -231h-58z" />
<glyph unicode="&#xcb;" horiz-adv-x="483" d="M94 0v1434h350v-56h-288v-624h250v-58h-250v-639h288v-57h-350zM109 1587h61v246h-61v-246zM354 1587h62v246h-62v-246z" />
<glyph unicode="&#xcc;" horiz-adv-x="249" d="M-35 1823h68l121 -287h-58zM94 0v1434h62v-1434h-62z" />
<glyph unicode="&#xcd;" horiz-adv-x="249" d="M94 0v1434h62v-1434h-62zM96 1536h58l131 287h-68z" />
<glyph unicode="&#xce;" horiz-adv-x="249" d="M-33 1536l127 287h56l133 -287h-56l-106 231l-96 -231h-58zM94 0v1434h62v-1434h-62z" />
<glyph unicode="&#xcf;" horiz-adv-x="249" d="M-31 1587h64v246h-64v-246zM94 0v1434h62v-1434h-62zM217 1587h62v246h-62v-246z" />
<glyph unicode="&#xd0;" horiz-adv-x="587" d="M2 696v58h94v680h205q88 0 144.5 -51t56.5 -144v-1044q0 -92 -56.5 -143.5t-144.5 -51.5h-205v696h-94zM158 57h143q68 0 103.5 40t35.5 98v1044q0 59 -35.5 99t-103.5 40h-143v-624h127v-58h-127v-639z" />
<glyph unicode="&#xd1;" horiz-adv-x="591" d="M94 0v1434h66l289 -1241q-7 266 -7 370v871h56v-1434h-66l-289 1243q7 -280 7 -373v-870h-56zM94 1552q0 85 31 124.5t76 39.5q25 0 46.5 -11.5t36.5 -27.5t29.5 -32t32.5 -27.5t39 -11.5q72 0 72 110h41q0 -85 -31 -124.5t-76 -39.5q-31 0 -57 17t-41 37.5t-38 37.5 t-48 17q-72 0 -72 -109h-41z" />
<glyph unicode="&#xd2;" horiz-adv-x="577" d="M86 186q0 -92 57.5 -144t145.5 -52t145.5 52t57.5 144v1061q0 92 -57.5 144.5t-145.5 52.5t-145.5 -52.5t-57.5 -144.5v-1061zM129 1823h68l120 -287h-57zM147 186v1061q0 57 37.5 97t104.5 40t104 -39.5t37 -97.5v-1061q0 -58 -37 -97.5t-104 -39.5t-104.5 40t-37.5 97z " />
<glyph unicode="&#xd3;" horiz-adv-x="577" d="M86 186q0 -92 57.5 -144t145.5 -52t145.5 52t57.5 144v1061q0 92 -57.5 144.5t-145.5 52.5t-145.5 -52.5t-57.5 -144.5v-1061zM147 186v1061q0 57 37.5 97t104.5 40t104 -39.5t37 -97.5v-1061q0 -58 -37 -97.5t-104 -39.5t-104.5 40t-37.5 97zM260 1536h57l132 287h-68z " />
<glyph unicode="&#xd4;" horiz-adv-x="577" d="M86 186q0 -92 57.5 -144t145.5 -52t145.5 52t57.5 144v1061q0 92 -57.5 144.5t-145.5 52.5t-145.5 -52.5t-57.5 -144.5v-1061zM131 1536l127 287h55l133 -287h-55l-106 231l-97 -231h-57zM147 186v1061q0 57 37.5 97t104.5 40t104 -39.5t37 -97.5v-1061q0 -58 -37 -97.5 t-104 -39.5t-104.5 40t-37.5 97z" />
<glyph unicode="&#xd5;" horiz-adv-x="577" d="M86 186q0 -92 57.5 -144t145.5 -52t145.5 52t57.5 144v1061q0 92 -57.5 144.5t-145.5 52.5t-145.5 -52.5t-57.5 -144.5v-1061zM88 1552q0 85 31 124.5t76 39.5q25 0 46.5 -11.5t36.5 -27.5t29.5 -32t32.5 -27.5t39 -11.5q72 0 72 110h41q0 -85 -31 -124.5t-76 -39.5 q-31 0 -57 17t-41 37.5t-38 37.5t-48 17q-72 0 -72 -109h-41zM147 186v1061q0 57 37.5 97t104.5 40t104 -39.5t37 -97.5v-1061q0 -58 -37 -97.5t-104 -39.5t-104.5 40t-37.5 97z" />
<glyph unicode="&#xd6;" horiz-adv-x="577" d="M86 186q0 -92 57.5 -144t145.5 -52t145.5 52t57.5 144v1061q0 92 -57.5 144.5t-145.5 52.5t-145.5 -52.5t-57.5 -144.5v-1061zM135 1587h62v246h-62v-246zM147 186v1061q0 57 37.5 97t104.5 40t104 -39.5t37 -97.5v-1061q0 -58 -37 -97.5t-104 -39.5t-104.5 40t-37.5 97z M381 1587h61v246h-61v-246z" />
<glyph unicode="&#xd7;" horiz-adv-x="485" d="M66 584l317 317l37 -35l-318 -319z" />
<glyph unicode="&#xd8;" horiz-adv-x="577" d="M86 -41l29 117q-29 50 -29 110v1061q0 92 57.5 144.5t145.5 52.5q94 0 149 -55l21 86h33l-29 -119q29 -47 29 -109v-1061q0 -92 -57.5 -144t-145.5 -52q-92 0 -148 53l-20 -84h-35zM147 209l271 1100q-35 75 -129 75q-67 0 -104.5 -40t-37.5 -97v-1038zM162 123 q31 -74 127 -74q67 0 104 39.5t37 97.5v1037z" />
<glyph unicode="&#xd9;" horiz-adv-x="587" d="M92 186v1248h62v-1248q0 -58 36.5 -97.5t104.5 -39.5q67 0 103 39.5t36 97.5v1248h62v-1248q0 -92 -56.5 -144t-144.5 -52t-145.5 52t-57.5 144zM135 1823h68l121 -287h-58z" />
<glyph unicode="&#xda;" horiz-adv-x="587" d="M92 186v1248h62v-1248q0 -58 36.5 -97.5t104.5 -39.5q67 0 103 39.5t36 97.5v1248h62v-1248q0 -92 -56.5 -144t-144.5 -52t-145.5 52t-57.5 144zM266 1536h58l131 287h-68z" />
<glyph unicode="&#xdb;" horiz-adv-x="587" d="M92 186v1248h62v-1248q0 -58 36.5 -97.5t104.5 -39.5q67 0 103 39.5t36 97.5v1248h62v-1248q0 -92 -56.5 -144t-144.5 -52t-145.5 52t-57.5 144zM135 1536l127 287h55l134 -287h-56l-106 231l-96 -231h-58z" />
<glyph unicode="&#xdc;" horiz-adv-x="587" d="M92 186v1248h62v-1248q0 -58 36.5 -97.5t104.5 -39.5q67 0 103 39.5t36 97.5v1248h62v-1248q0 -92 -56.5 -144t-144.5 -52t-145.5 52t-57.5 144zM139 1587h62v246h-62v-246zM385 1587h61v246h-61v-246z" />
<glyph unicode="&#xdd;" d="M18 1434h62l180 -783l180 783h60l-211 -883v-551h-62v551zM229 1536h58l131 287h-68z" />
<glyph unicode="&#xde;" horiz-adv-x="552" d="M94 0v1434h62v-295h143q88 0 143.5 -50.5t55.5 -144.5v-440q0 -92 -55.5 -143.5t-143.5 -51.5h-143v-309h-62zM156 367h143q67 0 102 39.5t35 97.5v440q0 58 -35 98.5t-102 40.5h-143v-716z" />
<glyph unicode="&#xdf;" horiz-adv-x="532" d="M16 969v55h78v264q0 95 47.5 146t132.5 51q86 0 134.5 -51.5t48.5 -145.5v-350q0 -125 -115 -166q57 -15 91 -58.5t34 -109.5v-409q0 -92 -55.5 -143.5t-143.5 -51.5h-59v57h59q67 0 102.5 40t35.5 98v409q0 58 -35.5 98.5t-102.5 40.5h-59v56h49q67 0 102 40.5t35 98.5 v350q0 57 -28 97t-93 40q-64 0 -91 -40t-27 -97v-1288h-62v969h-78z" />
<glyph unicode="&#xe0;" horiz-adv-x="489" d="M51 178v187q0 61 10.5 99.5t41.5 71.5t92.5 49t158.5 19v227q0 142 -114 142q-67 0 -150 -58l-29 50q84 69 183 69q172 0 172 -198v-836h-51l-7 98q-18 -51 -56.5 -79.5t-92.5 -28.5q-158 0 -158 188zM84 1413h68l120 -287h-57zM113 180q0 -129 112 -129q69 0 99 57 t30 171v270q-65 -2 -110 -11.5t-70.5 -22.5t-39 -36.5t-17.5 -46t-4 -57.5v-195z" />
<glyph unicode="&#xe1;" horiz-adv-x="489" d="M51 178v187q0 61 10.5 99.5t41.5 71.5t92.5 49t158.5 19v227q0 142 -114 142q-67 0 -150 -58l-29 50q84 69 183 69q172 0 172 -198v-836h-51l-7 98q-18 -51 -56.5 -79.5t-92.5 -28.5q-158 0 -158 188zM113 180q0 -129 112 -129q69 0 99 57t30 171v270q-65 -2 -110 -11.5 t-70.5 -22.5t-39 -36.5t-17.5 -46t-4 -57.5v-195zM215 1126h57l131 287h-67z" />
<glyph unicode="&#xe2;" horiz-adv-x="489" d="M51 178v187q0 61 10.5 99.5t41.5 71.5t92.5 49t158.5 19v227q0 142 -114 142q-67 0 -150 -58l-29 50q84 69 183 69q172 0 172 -198v-836h-51l-7 98q-18 -51 -56.5 -79.5t-92.5 -28.5q-158 0 -158 188zM86 1126l127 287h55l133 -287h-55l-106 232l-97 -232h-57zM113 180 q0 -129 112 -129q69 0 99 57t30 171v270q-65 -2 -110 -11.5t-70.5 -22.5t-39 -36.5t-17.5 -46t-4 -57.5v-195z" />
<glyph unicode="&#xe3;" horiz-adv-x="489" d="M43 1143q0 85 31 124.5t76 39.5q31 0 57 -17.5t41 -38t38 -38t48 -17.5q72 0 72 111h40q0 -85 -30.5 -124.5t-75.5 -39.5q-31 0 -57 17t-41 37t-38 37t-48 17q-72 0 -72 -108h-41zM51 178v187q0 61 10.5 99.5t41.5 71.5t92.5 49t158.5 19v227q0 142 -114 142 q-67 0 -150 -58l-29 50q84 69 183 69q172 0 172 -198v-836h-51l-7 98q-18 -51 -56.5 -79.5t-92.5 -28.5q-158 0 -158 188zM113 180q0 -129 112 -129q69 0 99 57t30 171v270q-65 -2 -110 -11.5t-70.5 -22.5t-39 -36.5t-17.5 -46t-4 -57.5v-195z" />
<glyph unicode="&#xe4;" horiz-adv-x="489" d="M51 178v187q0 61 10.5 99.5t41.5 71.5t92.5 49t158.5 19v227q0 142 -114 142q-67 0 -150 -58l-29 50q84 69 183 69q172 0 172 -198v-836h-51l-7 98q-18 -51 -56.5 -79.5t-92.5 -28.5q-158 0 -158 188zM90 1178h62v245h-62v-245zM113 180q0 -129 112 -129q69 0 99 57 t30 171v270q-65 -2 -110 -11.5t-70.5 -22.5t-39 -36.5t-17.5 -46t-4 -57.5v-195zM336 1178h61v245h-61v-245z" />
<glyph unicode="&#xe5;" horiz-adv-x="489" d="M51 178v187q0 61 10.5 99.5t41.5 71.5t92.5 49t158.5 19v227q0 142 -114 142q-67 0 -150 -58l-29 50q84 69 183 69q172 0 172 -198v-836h-51l-7 98q-18 -51 -56.5 -79.5t-92.5 -28.5q-158 0 -158 188zM88 1280q0 80 41.5 122t116.5 42q73 0 114 -42t41 -122 q0 -79 -41 -121.5t-114 -42.5q-74 0 -116 42.5t-42 121.5zM113 180q0 -129 112 -129q69 0 99 57t30 171v270q-65 -2 -110 -11.5t-70.5 -22.5t-39 -36.5t-17.5 -46t-4 -57.5v-195zM139 1280q0 -53 25.5 -88t81.5 -35q54 0 79 35t25 88t-25 88t-79 35q-56 0 -81.5 -35 t-25.5 -88z" />
<glyph unicode="&#xe6;" horiz-adv-x="774" d="M51 178v168q0 48 6 81t24 64.5t51 50t87.5 30.5t132.5 14v245q0 142 -114 142q-67 0 -150 -58l-27 50q39 33 88 51t93 18q100 0 143 -69q48 69 150 69q86 0 134 -51t48 -145v-308h-303v-329q0 -79 40 -114.5t119 -35.5q86 0 146 21l8 -60q-91 -22 -164 -22 q-165 0 -201 123q-18 -60 -59.5 -91.5t-95.5 -31.5q-156 0 -156 188zM113 180q0 -129 110 -129q69 0 99 57t30 171v251q-65 -2 -109 -11.5t-69.5 -22.5t-39 -36.5t-17.5 -46t-4 -57.5v-176zM414 586h241v252q0 58 -27.5 97.5t-92.5 39.5q-64 0 -92.5 -40.5t-28.5 -96.5v-252 z" />
<glyph unicode="&#xe7;" horiz-adv-x="440" d="M70 195v634q0 205 200 205q57 0 148 -22l-8 -60q-60 21 -129 21q-78 0 -114 -35.5t-36 -116.5v-618q0 -81 36 -116.5t114 -35.5q69 0 129 21l8 -60q-95 -20 -123 -22v-82h8q69 0 104 -30t35 -101v-41q0 -71 -41 -104t-108 -33q-32 0 -72.5 7t-58.5 15l10 43 q50 -20 113 -20q100 0 100 92v35q0 48 -19 70t-81 22h-37v127q-178 14 -178 205z" />
<glyph unicode="&#xe8;" horiz-adv-x="493" d="M70 193v645q0 94 48 145t134 51q85 0 132.5 -50.5t47.5 -145.5v-326h-301v-311q0 -80 39.5 -115t118.5 -35q85 0 145 21l8 -60q-85 -22 -163 -22q-209 0 -209 203zM92 1413h68l121 -287h-58zM131 569h240v269q0 58 -27.5 97.5t-91.5 39.5q-65 0 -93 -40t-28 -97v-269z " />
<glyph unicode="&#xe9;" horiz-adv-x="493" d="M70 193v645q0 94 48 145t134 51q85 0 132.5 -50.5t47.5 -145.5v-326h-301v-311q0 -80 39.5 -115t118.5 -35q85 0 145 21l8 -60q-85 -22 -163 -22q-209 0 -209 203zM131 569h240v269q0 58 -27.5 97.5t-91.5 39.5q-65 0 -93 -40t-28 -97v-269zM223 1126h58l131 287h-68z " />
<glyph unicode="&#xea;" horiz-adv-x="493" d="M70 193v645q0 94 48 145t134 51q85 0 132.5 -50.5t47.5 -145.5v-326h-301v-311q0 -80 39.5 -115t118.5 -35q85 0 145 21l8 -60q-85 -22 -163 -22q-209 0 -209 203zM92 1126l127 287h55l134 -287h-56l-106 232l-96 -232h-58zM131 569h240v269q0 58 -27.5 97.5t-91.5 39.5 q-65 0 -93 -40t-28 -97v-269z" />
<glyph unicode="&#xeb;" horiz-adv-x="493" d="M70 193v645q0 94 48 145t134 51q85 0 132.5 -50.5t47.5 -145.5v-326h-301v-311q0 -80 39.5 -115t118.5 -35q85 0 145 21l8 -60q-85 -22 -163 -22q-209 0 -209 203zM96 1178h62v245h-62v-245zM131 569h240v269q0 58 -27.5 97.5t-91.5 39.5q-65 0 -93 -40t-28 -97v-269z M342 1178h61v245h-61v-245z" />
<glyph unicode="&#xec;" horiz-adv-x="219" d="M-51 1413h69l121 -287h-57zM78 0h61v1024h-61v-1024z" />
<glyph unicode="&#xed;" horiz-adv-x="219" d="M78 0h61v1024h-61v-1024zM80 1126h57l131 287h-67z" />
<glyph unicode="&#xee;" horiz-adv-x="219" d="M-49 1126l127 287h55l133 -287h-55l-107 232l-96 -232h-57zM78 0h61v1024h-61v-1024z" />
<glyph unicode="&#xef;" horiz-adv-x="219" d="M-45 1178h61v245h-61v-245zM78 0h61v1024h-61v-1024zM201 1178h61v245h-61v-245z" />
<glyph unicode="&#xf0;" horiz-adv-x="532" d="M53 186v404q0 92 57.5 144t145.5 52h141v461q0 56 -34 95t-97 42v-210h-39v210h-147v60h147v194h39v-194q85 -3 139 -55t54 -142v-1061q0 -92 -57.5 -144t-145.5 -52t-145.5 52t-57.5 144zM115 186q0 -58 37 -97.5t104 -39.5t104 39.5t37 97.5v541h-141q-67 0 -104 -39.5 t-37 -97.5v-404z" />
<glyph unicode="&#xf1;" d="M66 1143q0 85 30.5 124.5t75.5 39.5q31 0 57 -17.5t41 -38t38 -38t48 -17.5q72 0 72 111h41q0 -85 -31 -124.5t-76 -39.5q-31 0 -57 17t-41 37t-38 37t-48 17q-72 0 -72 -108h-40zM78 0h61v760q0 43 5 77t17.5 67t39.5 51t67 18q58 0 84.5 -42t26.5 -104v-827h61v829 q0 38 -6.5 71.5t-22.5 65t-48.5 50t-77.5 18.5q-106 0 -152 -104l-4 94h-51v-1024z" />
<glyph unicode="&#xf2;" horiz-adv-x="501" d="M70 186v652q0 94 48 145t134 51q85 0 132.5 -50.5t47.5 -145.5v-652q0 -95 -47.5 -145.5t-132.5 -50.5q-86 0 -134 51t-48 145zM92 1413h68l121 -287h-58zM131 186q0 -57 28 -97t93 -40q64 0 91.5 40t27.5 97v652q0 57 -27.5 97t-91.5 40q-65 0 -93 -40t-28 -97v-652z " />
<glyph unicode="&#xf3;" horiz-adv-x="501" d="M70 186v652q0 94 48 145t134 51q85 0 132.5 -50.5t47.5 -145.5v-652q0 -95 -47.5 -145.5t-132.5 -50.5q-86 0 -134 51t-48 145zM131 186q0 -57 28 -97t93 -40q64 0 91.5 40t27.5 97v652q0 57 -27.5 97t-91.5 40q-65 0 -93 -40t-28 -97v-652zM223 1126h58l131 287h-68z " />
<glyph unicode="&#xf4;" horiz-adv-x="501" d="M70 186v652q0 94 48 145t134 51q85 0 132.5 -50.5t47.5 -145.5v-652q0 -95 -47.5 -145.5t-132.5 -50.5q-86 0 -134 51t-48 145zM92 1126l127 287h55l134 -287h-56l-106 232l-96 -232h-58zM131 186q0 -57 28 -97t93 -40q64 0 91.5 40t27.5 97v652q0 57 -27.5 97t-91.5 40 q-65 0 -93 -40t-28 -97v-652z" />
<glyph unicode="&#xf5;" horiz-adv-x="501" d="M49 1143q0 85 31 124.5t76 39.5q31 0 57 -17.5t41 -38t38 -38t48 -17.5q72 0 72 111h41q0 -85 -31 -124.5t-76 -39.5q-31 0 -57 17t-41 37t-38 37t-48 17q-72 0 -72 -108h-41zM70 186v652q0 94 48 145t134 51q85 0 132.5 -50.5t47.5 -145.5v-652q0 -95 -47.5 -145.5 t-132.5 -50.5q-86 0 -134 51t-48 145zM131 186q0 -57 28 -97t93 -40q64 0 91.5 40t27.5 97v652q0 57 -27.5 97t-91.5 40q-65 0 -93 -40t-28 -97v-652z" />
<glyph unicode="&#xf6;" horiz-adv-x="501" d="M70 186v652q0 94 48 145t134 51q85 0 132.5 -50.5t47.5 -145.5v-652q0 -95 -47.5 -145.5t-132.5 -50.5q-86 0 -134 51t-48 145zM96 1178h62v245h-62v-245zM131 186q0 -57 28 -97t93 -40q64 0 91.5 40t27.5 97v652q0 57 -27.5 97t-91.5 40q-65 0 -93 -40t-28 -97v-652z M342 1178h61v245h-61v-245z" />
<glyph unicode="&#xf7;" horiz-adv-x="464" d="M59 698v52h349v-52h-349zM197 418h57v157h-57v-157zM197 872h57v160h-57v-160z" />
<glyph unicode="&#xf8;" horiz-adv-x="501" d="M70 -41l30 104q-30 46 -30 123v652q0 94 48 145t134 51q76 0 123 -41l20 72h37l-31 -104q31 -48 31 -123v-652q0 -95 -47.5 -145.5t-132.5 -50.5q-76 0 -123 41l-20 -72h-39zM131 170l221 750q-27 55 -100 55q-65 0 -93 -40t-28 -97v-652v-16zM150 102q31 -53 102 -53 q64 0 91.5 40t27.5 97v652v16z" />
<glyph unicode="&#xf9;" d="M76 195q0 -38 7 -71.5t23 -65t48.5 -50t78.5 -18.5q107 0 150 104l6 -94h51v1024h-61v-760q0 -213 -129 -213q-59 0 -86 42t-27 104v827h-61v-829zM100 1413h68l121 -287h-58z" />
<glyph unicode="&#xfa;" d="M76 195q0 -38 7 -71.5t23 -65t48.5 -50t78.5 -18.5q107 0 150 104l6 -94h51v1024h-61v-760q0 -213 -129 -213q-59 0 -86 42t-27 104v827h-61v-829zM229 1126h58l131 287h-68z" />
<glyph unicode="&#xfb;" d="M76 195q0 -38 7 -71.5t23 -65t48.5 -50t78.5 -18.5q107 0 150 104l6 -94h51v1024h-61v-760q0 -213 -129 -213q-59 0 -86 42t-27 104v827h-61v-829zM100 1126l127 287h56l133 -287h-56l-106 232l-96 -232h-58z" />
<glyph unicode="&#xfc;" d="M76 195q0 -38 7 -71.5t23 -65t48.5 -50t78.5 -18.5q107 0 150 104l6 -94h51v1024h-61v-760q0 -213 -129 -213q-59 0 -86 42t-27 104v827h-61v-829zM104 1178h62v245h-62v-245zM350 1178h62v245h-62v-245z" />
<glyph unicode="&#xfd;" horiz-adv-x="481" d="M-14 -420l4 58q34 -11 65 -11q52 0 77 25.5t36 85.5l51 252h-10l-191 1034h62l162 -918l161 918h60l-238 -1280q-19 -100 -59 -137t-111 -37q-28 0 -69 10zM209 1126h57l131 287h-67z" />
<glyph unicode="&#xfe;" horiz-adv-x="512" d="M78 -410v1885h61v-539q45 98 148 98q45 0 77.5 -18.5t48.5 -50t22.5 -65t6.5 -71.5v-634q0 -38 -6.5 -71.5t-22.5 -65t-48.5 -50t-77.5 -18.5q-103 0 -148 98v-498h-61zM139 264q0 -213 131 -213q58 0 84.5 42t26.5 104v630q0 62 -26.5 104t-84.5 42q-131 0 -131 -213 v-496z" />
<glyph unicode="&#xff;" horiz-adv-x="481" d="M-14 -420l4 58q34 -11 65 -11q52 0 77 25.5t36 85.5l51 252h-10l-191 1034h62l162 -918l161 918h60l-238 -1280q-19 -100 -59 -137t-111 -37q-28 0 -69 10zM84 1178h61v245h-61v-245zM330 1178h61v245h-61v-245z" />
<glyph unicode="&#x152;" horiz-adv-x="819" d="M86 186v1061q0 92 57 144.5t142 52.5q121 0 166 -103v93h329v-56h-288v-624h249v-58h-249v-639h288v-57h-329v92q-45 -102 -166 -102q-85 0 -142 52t-57 144zM147 186q0 -57 37.5 -97t104.5 -40t104 39.5t37 97.5v1061q0 58 -37 97.5t-104 39.5t-104.5 -40t-37.5 -97 v-1061z" />
<glyph unicode="&#x153;" horiz-adv-x="796" d="M70 186v652q0 94 48 145t134 51q103 0 149 -73q46 73 152 73q86 0 134 -51t48 -145v-326h-303v-311q0 -79 40.5 -114.5t119.5 -35.5q85 0 145 21l8 -60q-91 -22 -163 -22q-125 0 -179 76q-43 -76 -151 -76q-86 0 -134 51t-48 145zM131 186q0 -57 28 -97t93 -40 q64 0 91.5 40t27.5 97v652q0 57 -27.5 97t-91.5 40q-65 0 -93 -40t-28 -97v-652zM432 569h242v269q0 58 -28 97.5t-93 39.5q-64 0 -92.5 -40.5t-28.5 -96.5v-269z" />
<glyph unicode="&#x178;" d="M18 1434h62l180 -783l180 783h60l-211 -883v-551h-62v551zM104 1587h62v246h-62v-246zM350 1587h62v246h-62v-246z" />
<glyph unicode="&#x2c6;" horiz-adv-x="503" d="M94 1126l127 287h55l134 -287h-56l-106 232l-96 -232h-58z" />
<glyph unicode="&#x2dc;" horiz-adv-x="663" d="M139 1143q0 85 31 124.5t76 39.5q31 0 57 -17.5t41 -38t38 -38t48 -17.5q72 0 72 111h41q0 -85 -31 -124.5t-76 -39.5q-31 0 -57 17t-41 37t-38 37t-48 17q-72 0 -72 -108h-41z" />
<glyph unicode="&#x2000;" horiz-adv-x="926" />
<glyph unicode="&#x2001;" horiz-adv-x="1853" />
<glyph unicode="&#x2002;" horiz-adv-x="926" />
<glyph unicode="&#x2003;" horiz-adv-x="1853" />
<glyph unicode="&#x2004;" horiz-adv-x="617" />
<glyph unicode="&#x2005;" horiz-adv-x="463" />
<glyph unicode="&#x2006;" horiz-adv-x="308" />
<glyph unicode="&#x2007;" horiz-adv-x="308" />
<glyph unicode="&#x2008;" horiz-adv-x="231" />
<glyph unicode="&#x2009;" horiz-adv-x="370" />
<glyph unicode="&#x200a;" horiz-adv-x="102" />
<glyph unicode="&#x2010;" horiz-adv-x="436" d="M53 487v52h328v-52h-328z" />
<glyph unicode="&#x2011;" horiz-adv-x="436" d="M53 487v52h328v-52h-328z" />
<glyph unicode="&#x2012;" horiz-adv-x="436" d="M53 487v52h328v-52h-328z" />
<glyph unicode="&#x2013;" horiz-adv-x="583" d="M53 487v52h477v-52h-477z" />
<glyph unicode="&#x2014;" horiz-adv-x="788" d="M53 487v52h682v-52h-682z" />
<glyph unicode="&#x2018;" horiz-adv-x="200" d="M90 1010h25v157l-21 267h-4v-424z" />
<glyph unicode="&#x2019;" horiz-adv-x="200" d="M70 1276v158h57v-424h-37z" />
<glyph unicode="&#x201a;" horiz-adv-x="196" d="M70 0v160h57v-426h-37z" />
<glyph unicode="&#x201c;" horiz-adv-x="450" d="M74 1010v424h37l20 -267v-157h-57zM326 1010v424h34l21 -267v-157h-55z" />
<glyph unicode="&#x201d;" horiz-adv-x="450" d="M70 1276v158h57v-424h-37zM322 1276v158h55v-424h-35z" />
<glyph unicode="&#x201e;" horiz-adv-x="448" d="M70 0v160h57v-426h-37zM322 0v160h55v-426h-35z" />
<glyph unicode="&#x2022;" horiz-adv-x="253" d="M74 641h106v195h-106v-195z" />
<glyph unicode="&#x2026;" horiz-adv-x="698" d="M70 0h57v160h-57v-160zM322 0h55v160h-55v-160zM571 0h58v160h-58v-160z" />
<glyph unicode="&#x202f;" horiz-adv-x="370" />
<glyph unicode="&#x2039;" horiz-adv-x="460" d="M49 481v58l342 393v-62l-285 -358v-4l285 -352v-64z" />
<glyph unicode="&#x203a;" horiz-adv-x="460" d="M70 92l342 389v58l-342 393v-62l284 -358v-4l-284 -352v-64z" />
<glyph unicode="&#x205f;" horiz-adv-x="463" />
<glyph unicode="&#x20ac;" horiz-adv-x="657" d="M55 575v52h111v194h-111v51h111v375q0 92 56.5 144.5t144.5 52.5t145 -52.5t57 -144.5v-325h-61v325q0 58 -36.5 97.5t-104.5 39.5q-67 0 -103.5 -39.5t-36.5 -97.5v-375h129v-51h-129v-194h129v-52h-129v-389q0 -58 36.5 -97.5t103.5 -39.5q68 0 104.5 39.5t36.5 97.5 v326h61v-326q0 -92 -57 -144t-145 -52t-144.5 52t-56.5 144v389h-111z" />
<glyph unicode="&#x2122;" horiz-adv-x="833" d="M90 1395v39h250v-39h-104v-822h-43v822h-103zM416 573v861h45l114 -441l117 441h39h2v-861h-43v500q0 137 4 217l-98 -375h-43l-102 400q4 -204 4 -242v-500h-39z" />
<glyph unicode="&#xe000;" horiz-adv-x="1024" d="M0 0v1024h1024v-1024h-1024z" />
<glyph unicode="&#xfb03;" horiz-adv-x="847" d="M16 969v55h78v297q0 53 12.5 88.5t35 50.5t43 20t48.5 5q50 0 91 -10l-7 -58q-36 8 -69 8q-49 0 -70.5 -26.5t-21.5 -85.5v-289h245v287q0 53 12.5 88.5t35.5 50.5t43.5 20t48.5 5h229v-297h-61v237h-154q-49 0 -70.5 -26.5t-21.5 -85.5v-279h147v-55h-147v-969h-62v969 h-245v-969h-62v969h-78zM709 0v1024h61v-1024h-61z" />
<glyph unicode="&#xfb04;" horiz-adv-x="860" d="M16 969v55h78v297q0 53 12.5 88.5t35 50.5t43 20t48.5 5q50 0 91 -10l-7 -58q-36 8 -69 8q-49 0 -70.5 -26.5t-21.5 -85.5v-289h245v287q0 53 12.5 88.5t35.5 50.5t43.5 20t48.5 5h229v-1475h-61v1415h-154q-49 0 -70.5 -26.5t-21.5 -85.5v-279h147v-55h-147v-969h-62 v969h-245v-969h-62v969h-78z" />
</font>
</defs>
</svg>
