<?xml version="1.0" standalone="no"?>
<!DOCTYPE svg PUBLIC "-//W3C//DTD SVG 1.1//EN" "http://www.w3.org/Graphics/SVG/1.1/DTD/svg11.dtd" >
<svg xmlns="http://www.w3.org/2000/svg">
<metadata></metadata>
<defs>
<font id="solido_compactbook" horiz-adv-x="573" >
<font-face units-per-em="2048" ascent="1536" descent="-512" />
<missing-glyph horiz-adv-x="245" />
<glyph unicode="&#xfb01;" horiz-adv-x="641" d="M16 897v127h68v266q0 102 46 143.5t130 41.5h315v-318h-143v182h-133q-72 0 -72 -71v-244h117v-127h-117v-897h-143v897h-68zM432 0v1024h143v-1024h-143z" />
<glyph unicode="&#xfb02;" horiz-adv-x="653" d="M16 897v127h68v266q0 102 46 143.5t130 41.5h315v-1475h-143v1339h-133q-72 0 -72 -71v-244h117v-127h-117v-897h-143v897h-68z" />
<glyph horiz-adv-x="2048" />
<glyph horiz-adv-x="2048" />
<glyph unicode="&#xd;" horiz-adv-x="2048" />
<glyph unicode=" "  horiz-adv-x="245" />
<glyph unicode="&#x09;" horiz-adv-x="245" />
<glyph unicode="&#xa0;" horiz-adv-x="245" />
<glyph unicode="!" horiz-adv-x="309" d="M82 0h143v190h-143v-190zM82 819v615h143v-615l-30 -465h-82z" />
<glyph unicode="&#x22;" horiz-adv-x="546" d="M57 1245v189h129v-189l-30 -266h-68zM360 1245v189h127v-189l-30 -266h-66z" />
<glyph unicode="#" horiz-adv-x="737" d="M51 502v73h135v308h-135v73h135v478h76v-478h215v478h74v-478h135v-73h-135v-308h135v-73h-135v-502h-74v502h-215v-502h-76v502h-135zM262 575h215v308h-215v-308z" />
<glyph unicode="$" horiz-adv-x="608" d="M68 213v299h143v-299q0 -39 25.5 -63.5t68.5 -24.5t68.5 24.5t25.5 63.5v178q0 51 -18.5 96t-47.5 80t-64 69t-70.5 71.5t-64.5 80t-47.5 102.5t-18.5 130v201q0 96 51.5 154t148.5 67v196h74v-196q97 -9 149 -67t52 -154v-299h-144v299q0 39 -25.5 63.5t-68.5 24.5 t-68.5 -24.5t-25.5 -63.5v-201q0 -49 18.5 -93.5t47.5 -79.5t64.5 -70t71 -74t64.5 -82t47.5 -102t18.5 -128v-178q0 -96 -52 -154t-149 -67v-197h-74v197q-97 9 -148.5 67t-51.5 154z" />
<glyph unicode="%" horiz-adv-x="1013" d="M66 717v604q0 62 37.5 97.5t105.5 35.5q70 0 107.5 -35.5t37.5 -97.5v-604q0 -64 -37.5 -99.5t-107.5 -35.5q-68 0 -105.5 35.5t-37.5 99.5zM154 717q0 -24 14.5 -37.5t40.5 -13.5t40.5 13.5t14.5 37.5v604q0 22 -14.5 35.5t-40.5 13.5t-40.5 -13.5t-14.5 -35.5v-604z M186 0h74l574 1434h-74zM659 129v604q0 62 38 97.5t106 35.5q70 0 107.5 -35.5t37.5 -97.5v-604q0 -64 -37.5 -99.5t-107.5 -35.5q-69 0 -106.5 36t-37.5 99zM748 129q0 -24 14.5 -37.5t40.5 -13.5t40.5 13.5t14.5 37.5v604q0 22 -14.5 35.5t-40.5 13.5t-40.5 -13.5 t-14.5 -35.5v-604z" />
<glyph unicode="&#x26;" horiz-adv-x="739" d="M68 213v254q0 92 23.5 148.5t92.5 111.5l-2 2q-62 109 -88 188t-26 175v129q0 105 62 164t177 59q114 0 176 -59t62 -164v-299h-144v299q0 39 -26 63.5t-68 24.5q-44 0 -70 -24.5t-26 -63.5v-129q0 -136 80 -275l110 -194v147h299v-127h-155v-274l155 -275v-94h-112 l-62 111q-53 -121 -219 -121q-115 0 -177 59t-62 164zM211 213q0 -39 26 -63.5t70 -24.5q42 0 68 24.5t26 63.5v123l-147 264q-43 -53 -43 -133v-254z" />
<glyph unicode="'" horiz-adv-x="243" d="M57 1245v189h129v-189l-30 -266h-68z" />
<glyph unicode="(" horiz-adv-x="460" d="M43 717q0 -283 81 -532.5t232 -491.5h99q-269 504 -269 1024q0 525 269 1024h-99q-151 -242 -232 -491.5t-81 -532.5z" />
<glyph unicode=")" horiz-adv-x="460" d="M6 -307q268 502 268 1024q0 526 -268 1024h98q151 -242 232.5 -491.5t81.5 -532.5t-81.5 -532.5t-232.5 -491.5h-98z" />
<glyph unicode="*" horiz-adv-x="509" d="M49 1178l137 65l-137 64l47 82l125 -84l-12 147h94l-12 -147l123 84l47 -82l-135 -64l135 -65l-47 -80l-123 86l12 -152h-94l12 152l-125 -86z" />
<glyph unicode="+" horiz-adv-x="493" d="M53 664v112h137v137h113v-137h139v-112h-139v-140h-113v140h-137z" />
<glyph unicode="," horiz-adv-x="253" d="M23 -266h96l71 266v190h-127v-190z" />
<glyph unicode="-" horiz-adv-x="454" d="M63 457v112h328v-112h-328z" />
<glyph unicode="." horiz-adv-x="253" d="M63 0h127v190h-127v-190z" />
<glyph unicode="/" horiz-adv-x="745" d="M49 0h74l573 1434h-73z" />
<glyph unicode="0" horiz-adv-x="630" d="M78 213v1008q0 105 61.5 164t175.5 59t176 -59t62 -164v-1008q0 -105 -62 -164t-176 -59t-175.5 59t-61.5 164zM221 213q0 -39 25.5 -63.5t68.5 -24.5q44 0 69.5 24.5t25.5 63.5v1008q0 39 -25.5 63.5t-69.5 24.5q-43 0 -68.5 -24.5t-25.5 -63.5v-1008z" />
<glyph unicode="1" horiz-adv-x="438" d="M41 0v129h115v1178h-115v127h258v-1305h115v-129h-373z" />
<glyph unicode="2" horiz-adv-x="595" d="M66 0v307q0 93 34.5 178.5t83 149.5t97.5 124t83.5 127t34.5 134v201q0 39 -26 63.5t-68 24.5q-44 0 -70 -24.5t-26 -63.5v-299h-143v299q0 105 62 164t177 59q114 0 176 -59t62 -164v-201q0 -96 -34.5 -181t-83.5 -148t-98 -121.5t-83.5 -126t-34.5 -136.5v-178h334 v-129h-477z" />
<glyph unicode="3" horiz-adv-x="612" d="M66 213v299h143v-299q0 -39 25.5 -63.5t68.5 -24.5t68.5 24.5t25.5 63.5v387q0 39 -25 62.5t-69 23.5h-59v135h59q42 0 63 24t21 64v312q0 40 -21 64t-63 24q-43 0 -68.5 -24.5t-25.5 -63.5v-299h-143v299q0 105 61.5 164t175.5 59q113 0 170 -58t57 -165v-312 q0 -104 -75 -153q86 -52 86 -156v-387q0 -105 -62 -164t-176 -59t-175.5 59t-61.5 164z" />
<glyph unicode="4" horiz-adv-x="634" d="M20 387v127l332 920h144v-920h114v-127h-114v-387h-144v387h-332zM150 514h202v582z" />
<glyph unicode="5" horiz-adv-x="602" d="M70 213v299h143v-299q0 -39 26 -63.5t70 -24.5q42 0 68 24.5t26 63.5v459q0 38 -25.5 62t-68.5 24h-231v676h452v-127h-309v-414h88q114 0 176 -58.5t62 -162.5v-459q0 -105 -62 -164t-176 -59q-115 0 -177 59t-62 164z" />
<glyph unicode="6" horiz-adv-x="624" d="M78 213v1008q0 105 61.5 164t175.5 59t176 -59t62 -164v-299h-143v299q0 39 -25.5 63.5t-69.5 24.5q-43 0 -68.5 -24.5t-25.5 -63.5v-400h94q114 0 176 -58.5t62 -162.5v-387q0 -105 -62 -164t-176 -59t-175.5 59t-61.5 164zM221 213q0 -39 25.5 -63.5t68.5 -24.5 q44 0 69.5 24.5t25.5 63.5v387q0 39 -25.5 62.5t-69.5 23.5h-94v-473z" />
<glyph unicode="7" horiz-adv-x="524" d="M20 1307v127h476v-127q-102 -229 -155.5 -566t-53.5 -741h-144q0 361 58 723t151 584h-332z" />
<glyph unicode="8" horiz-adv-x="616" d="M70 213v346q0 107 90 156q-78 51 -78 153v353q0 107 57 165t170 58t170.5 -58.5t57.5 -164.5v-353q0 -102 -78 -153q88 -48 88 -156v-346q0 -105 -62 -164t-176 -59q-115 0 -177 59t-62 164zM213 213q0 -39 26 -63.5t70 -24.5q42 0 68 24.5t26 63.5v346q0 38 -25.5 62 t-68.5 24q-44 0 -70 -23.5t-26 -62.5v-346zM225 868q0 -86 84 -86q41 0 62.5 23t21.5 63v353q0 40 -21.5 64t-62.5 24q-42 0 -63 -24t-21 -64v-353z" />
<glyph unicode="9" horiz-adv-x="624" d="M72 213v299h143v-299q0 -39 25.5 -63.5t68.5 -24.5t68.5 24.5t25.5 63.5v399h-94q-114 0 -175.5 59.5t-61.5 164.5v385q0 105 61.5 164t175.5 59t176 -59t62 -164v-1008q0 -105 -62 -164t-176 -59t-175.5 59t-61.5 164zM215 836q0 -39 25.5 -63.5t68.5 -24.5h94v473 q0 39 -25.5 63.5t-68.5 24.5t-68.5 -24.5t-25.5 -63.5v-385z" />
<glyph unicode=":" horiz-adv-x="284" d="M78 154h129v190h-129v-190zM78 621h129v188h-129v-188z" />
<glyph unicode=";" horiz-adv-x="313" d="M55 -266h99l71 266v190h-129v-190zM96 621h129v188h-129v-188z" />
<glyph unicode="&#x3c;" horiz-adv-x="503" d="M51 653v129l377 138v-129l-229 -72v-4l229 -66v-129z" />
<glyph unicode="=" horiz-adv-x="481" d="M78 541v112h328v-112h-328zM78 786v113h328v-113h-328z" />
<glyph unicode="&#x3e;" horiz-adv-x="503" d="M76 520l377 133v129l-377 138v-129l229 -72v-4l-229 -66v-129z" />
<glyph unicode="?" horiz-adv-x="595" d="M55 922v299q0 105 62 164t176 59q115 0 177 -59t62 -164v-443q0 -87 -44.5 -143.5t-127.5 -73.5l-18 -207h-113v338h64q44 0 70 23.5t26 62.5v443q0 39 -26 63.5t-70 24.5q-42 0 -68 -24.5t-26 -63.5v-299h-144zM221 0v190h144v-190h-144z" />
<glyph unicode="@" horiz-adv-x="741" d="M82 43v938q0 109 77.5 183.5t217.5 74.5t217.5 -74.5t77.5 -183.5v-803h-213l-31 33q-26 -41 -78 -41q-57 0 -76.5 36.5t-19.5 100.5v359q0 62 19.5 98.5t76.5 36.5q54 0 88 -49l8 43h70v-533h74v719q0 85 -57.5 134.5t-155.5 49.5t-155.5 -49.5t-57.5 -134.5v-938 q0 -85 57.5 -134.5t155.5 -49.5v-74q-140 0 -217.5 74.5t-77.5 183.5zM342 311q0 -53 39 -53q47 0 47 100v256q0 49 -10.5 74t-36.5 25q-39 0 -39 -54v-348z" />
<glyph unicode="A" d="M14 0l201 1444h143l199 -1444h-143l-47 389h-168l-47 -389h-138zM213 518h139l-69 582z" />
<glyph unicode="B" horiz-adv-x="616" d="M80 0v1434h235q115 0 173.5 -55t58.5 -160v-349q0 -108 -105 -149q115 -38 115 -152v-354q0 -104 -58.5 -159.5t-172.5 -55.5h-246zM223 129h103q43 0 65.5 23t22.5 63v354q0 40 -22.5 63t-65.5 23h-103v-526zM223 784h92q43 0 65.5 23t22.5 63v349q0 40 -22.5 64 t-65.5 24h-92v-523z" />
<glyph unicode="C" horiz-adv-x="604" d="M72 213q0 -105 61.5 -164t175.5 -59t176 59t62 164v299h-144v-299q0 -39 -25.5 -63.5t-68.5 -24.5t-68.5 24.5t-25.5 63.5v1008q0 39 25.5 63.5t68.5 24.5t68.5 -24.5t25.5 -63.5v-299h144v299q0 105 -62 164t-176 59t-175.5 -59t-61.5 -164v-1008z" />
<glyph unicode="D" horiz-adv-x="628" d="M80 0v1434h246q115 0 173 -55t58 -160v-1004q0 -104 -58.5 -159.5t-172.5 -55.5h-246zM223 129h103q43 0 65.5 23t22.5 63v1004q0 40 -22.5 64t-65.5 24h-103v-1178z" />
<glyph unicode="E" horiz-adv-x="509" d="M80 0v1434h397v-127h-254v-523h217v-129h-217v-526h254v-129h-397z" />
<glyph unicode="F" horiz-adv-x="501" d="M80 0v1434h397v-127h-254v-564h217v-129h-217v-614h-143z" />
<glyph unicode="G" horiz-adv-x="612" d="M72 213v1008q0 105 61.5 164t175.5 59t176 -59t62 -164v-299h-144v299q0 39 -25.5 63.5t-68.5 24.5t-68.5 -24.5t-25.5 -63.5v-1008q0 -39 25.5 -63.5t68.5 -24.5t68.5 24.5t25.5 63.5v336h-94v127h238v-463q0 -105 -62 -164t-176 -59t-175.5 59t-61.5 164z" />
<glyph unicode="H" horiz-adv-x="636" d="M80 0v1434h143v-650h191v650h143v-1434h-143v655h-191v-655h-143z" />
<glyph unicode="I" horiz-adv-x="305" d="M80 0v1434h143v-1434h-143z" />
<glyph unicode="J" horiz-adv-x="352" d="M20 0q62 0 104 7.5t78.5 27.5t54 59t17.5 99v1241h-143v-1219q0 -54 -24.5 -70t-86.5 -16v-129z" />
<glyph unicode="K" horiz-adv-x="600" d="M80 0v1434h143v-646l234 646h151l-256 -699l258 -735h-151l-236 664v-664h-143z" />
<glyph unicode="L" horiz-adv-x="499" d="M80 0v1434h143v-1305h254v-129h-397z" />
<glyph unicode="M" horiz-adv-x="802" d="M80 0v1434h151l177 -670l180 670h121h14v-1434h-143v563q0 224 8 412l-119 -447h-143l-127 498q10 -203 10 -463v-563h-129z" />
<glyph unicode="N" horiz-adv-x="636" d="M80 0v1434h160l194 -953q-6 196 -6 389v564h129v-1434h-160l-194 952q6 -196 6 -389v-563h-129z" />
<glyph unicode="O" horiz-adv-x="618" d="M72 213q0 -105 61.5 -164t175.5 -59t176 59t62 164v1008q0 105 -62 164t-176 59t-175.5 -59t-61.5 -164v-1008zM215 213v1008q0 39 25.5 63.5t68.5 24.5t68.5 -24.5t25.5 -63.5v-1008q0 -39 -25.5 -63.5t-68.5 -24.5t-68.5 24.5t-25.5 63.5z" />
<glyph unicode="P" horiz-adv-x="595" d="M80 0v1434h246q115 0 173 -55t58 -160v-420q0 -104 -58.5 -159.5t-172.5 -55.5h-103v-584h-143zM223 713h103q43 0 65.5 23t22.5 63v420q0 40 -22.5 64t-65.5 24h-103v-594z" />
<glyph unicode="Q" horiz-adv-x="618" d="M72 213v1008q0 105 61.5 164t175.5 59t176 -59t62 -164v-1008q0 -179 -166 -217v-68q0 -55 24.5 -71.5t86.5 -16.5v-127q-62 0 -104 7.5t-78.5 27.5t-54 59t-17.5 99v90q-166 38 -166 217zM215 213q0 -39 25.5 -63.5t68.5 -24.5t68.5 24.5t25.5 63.5v1008 q0 39 -25.5 63.5t-68.5 24.5t-68.5 -24.5t-25.5 -63.5v-1008z" />
<glyph unicode="R" horiz-adv-x="626" d="M80 0v1434h246q115 0 173 -55t58 -160v-301q0 -164 -111 -209q83 -44 91 -160l41 -549h-144l-33 549q-8 106 -106 106h-72v-655h-143zM223 784h103q43 0 65.5 23t22.5 63v349q0 40 -22.5 64t-65.5 24h-103v-523z" />
<glyph unicode="S" horiz-adv-x="593" d="M59 213q0 -105 62 -164t176 -59t176 59t62 164v178q0 69 -18.5 128t-47.5 102t-64.5 82t-71 74t-64.5 70t-47.5 79.5t-18.5 93.5v201q0 39 25.5 63.5t68.5 24.5t68.5 -24.5t25.5 -63.5v-299h144v299q0 105 -62 164t-176 59t-176 -59t-62 -164v-201q0 -70 18.5 -130 t47.5 -102.5t64.5 -80t71 -71.5t64.5 -69t47.5 -80t18.5 -96v-178q0 -39 -25.5 -63.5t-68.5 -24.5t-68.5 24.5t-25.5 63.5v299h-144v-299z" />
<glyph unicode="T" horiz-adv-x="509" d="M31 1307v127h450v-127h-153v-1307h-144v1307h-153z" />
<glyph unicode="U" horiz-adv-x="632" d="M78 213v1221h143v-1221q0 -39 26 -63.5t70 -24.5q42 0 68.5 24.5t26.5 63.5v1221h143v-1221q0 -105 -62 -164t-176 -59q-115 0 -177 59t-62 164z" />
<glyph unicode="V" d="M14 1434h144l129 -1069l135 1069h135l-199 -1444h-143z" />
<glyph unicode="W" horiz-adv-x="905" d="M16 1434h144l110 -1012l115 1012h143l115 -1018l109 1018h135l-178 -1444h-144l-112 1014l-113 -1014h-143z" />
<glyph unicode="X" horiz-adv-x="542" d="M0 0l199 727l-189 707h144l118 -510l117 510h143l-190 -707l201 -727h-144l-127 547l-129 -547h-143z" />
<glyph unicode="Y" horiz-adv-x="565" d="M12 1434h144l131 -670l131 670h137l-201 -910v-524h-143v524z" />
<glyph unicode="Z" horiz-adv-x="495" d="M27 0v129l301 1178h-281v127h416v-127l-301 -1178h301v-129h-436z" />
<glyph unicode="[" horiz-adv-x="473" d="M90 -307v2048h359v-113h-232v-1823h232v-112h-359z" />
<glyph unicode="\" horiz-adv-x="745" d="M49 1434h74l573 -1434h-73z" />
<glyph unicode="]" horiz-adv-x="473" d="M25 -195h231v1823h-231v113h358v-2048h-358v112z" />
<glyph unicode="^" horiz-adv-x="550" d="M80 594l133 287h123l135 -287h-127l-70 160l-67 -160h-127z" />
<glyph unicode="_" horiz-adv-x="483" d="M78 -41h328v-113h-328v113z" />
<glyph unicode="`" horiz-adv-x="432" d="M80 1413h158l116 -287h-129z" />
<glyph unicode="a" horiz-adv-x="540" d="M41 209v145q0 40 1.5 65t7.5 57t17.5 51t33 39.5t52 32t75.5 19t104 7.5v172q0 94 -78 94q-56 0 -139 -60l-64 119q45 38 104 61t113 23q108 0 157.5 -56t49.5 -173v-805h-113l-14 88q-21 -50 -60 -74t-85 -24q-50 0 -83.5 18t-50 51t-22.5 68t-6 82zM184 217 q0 -84 68 -84q42 0 61 41t19 131v193q-91 -3 -119.5 -27.5t-28.5 -85.5v-168z" />
<glyph unicode="b" horiz-adv-x="559" d="M68 0h112l15 76q56 -86 145 -86q50 0 83.5 18.5t50 52.5t22.5 70t6 84v594q0 48 -6 84t-22.5 70t-50 52.5t-83.5 18.5q-84 0 -129 -71v512h-143v-1475zM211 299v426q0 82 17.5 124t62.5 42q67 0 67 -90v-578q0 -90 -67 -90q-45 0 -62.5 42t-17.5 124z" />
<glyph unicode="c" horiz-adv-x="481" d="M55 236q0 -120 61 -183t177 -63q81 0 172 28l-16 136q-73 -21 -125 -21q-72 0 -98.5 31.5t-26.5 93.5v508q0 62 26.5 93.5t98.5 31.5q52 0 125 -21l16 136q-91 28 -172 28q-116 0 -177 -62.5t-61 -183.5v-552z" />
<glyph unicode="d" horiz-adv-x="559" d="M57 215v594q0 48 6 84t22.5 70t50 52.5t83.5 18.5q83 0 131 -71v512h144v-1475h-113l-16 76q-53 -86 -146 -86q-50 0 -83.5 18.5t-50 52.5t-22.5 70t-6 84zM201 223q0 -90 67 -90q45 0 63.5 42t18.5 124v426q0 82 -18.5 124t-63.5 42q-67 0 -67 -90v-578z" />
<glyph unicode="e" horiz-adv-x="542" d="M55 227v584q0 223 219 223q218 0 218 -223v-340h-293v-219q0 -62 28 -90.5t101 -28.5q83 0 157 21l17 -136q-91 -28 -205 -28q-117 0 -179.5 59.5t-62.5 177.5zM199 600h149v211q0 88 -74 88q-75 0 -75 -88v-211z" />
<glyph unicode="f" horiz-adv-x="354" d="M16 897h68v-897h143v897h117v127h-117v254q0 72 72 72q30 0 57 -9l9 134q-49 10 -105 10q-84 0 -130 -41.5t-46 -143.5v-276h-68v-127z" />
<glyph unicode="g" horiz-adv-x="559" d="M57 236q0 -48 6 -84t22.5 -70.5t50 -53t83.5 -18.5q82 0 131 72v-244q0 -62 -26 -93.5t-93 -31.5q-73 0 -147 21l-16 -135q94 -29 180 -29q126 0 186 64t60 196v1194h-113l-16 -76q-53 86 -146 86q-50 0 -83.5 -18.5t-50 -52.5t-22.5 -70t-6 -84v-573zM201 244v557 q0 90 67 90q45 0 63.5 -42t18.5 -124v-406q0 -82 -18.5 -123.5t-63.5 -41.5q-67 0 -67 90z" />
<glyph unicode="h" horiz-adv-x="567" d="M68 0h143v725q0 83 17.5 124.5t64.5 41.5q65 0 65 -90v-801h144v809q0 48 -6 84t-22 70t-49.5 52.5t-82.5 18.5q-83 0 -131 -71v512h-143v-1475z" />
<glyph unicode="i" horiz-adv-x="278" d="M68 0h143v1024h-143v-1024zM68 1157h143v246h-143v-246z" />
<glyph unicode="j" horiz-adv-x="278" d="M-72 -420q51 -10 107 -10q84 0 130 41t46 143v1270h-143v-1247q0 -72 -72 -72q-35 0 -59 8zM68 1157h143v246h-143v-246z" />
<glyph unicode="k" horiz-adv-x="587" d="M68 0v1475h143v-908l231 457h160l-262 -494l264 -530h-160l-233 477v-477h-143z" />
<glyph unicode="l" horiz-adv-x="303" d="M80 0h143v1475h-143v-1475z" />
<glyph unicode="m" horiz-adv-x="858" d="M68 0v1024h112l15 -76q56 86 145 86q109 0 143 -94q52 94 150 94q49 0 82.5 -18.5t50 -52.5t23 -70.5t6.5 -83.5v-809h-144v801q0 90 -67 90q-45 0 -63.5 -42t-18.5 -124v-725h-144v801q0 90 -67 90q-45 0 -62.5 -42t-17.5 -124v-725h-143z" />
<glyph unicode="n" horiz-adv-x="567" d="M68 0h143v725q0 82 17.5 124t62.5 42q67 0 67 -90v-801h144v809q0 48 -6 84t-22.5 70t-50 52.5t-83.5 18.5q-89 0 -145 -86l-15 76h-112v-1024z" />
<glyph unicode="o" horiz-adv-x="546" d="M55 213v598q0 223 219 223q218 0 218 -223v-598q0 -223 -218 -223q-219 0 -219 223zM199 213q0 -88 75 -88q74 0 74 88v598q0 88 -74 88q-75 0 -75 -88v-598z" />
<glyph unicode="p" horiz-adv-x="559" d="M68 -410v1434h112l15 -76q56 86 145 86q50 0 83.5 -18.5t50 -52.5t22.5 -70t6 -84v-594q0 -48 -6 -84t-22.5 -70t-50 -52.5t-83.5 -18.5q-84 0 -129 71v-471h-143zM211 299q0 -82 17.5 -124t62.5 -42q67 0 67 90v578q0 90 -67 90q-45 0 -62.5 -42t-17.5 -124v-426z" />
<glyph unicode="q" horiz-adv-x="559" d="M57 215q0 -48 6 -84t22.5 -70t50 -52.5t83.5 -18.5q83 0 131 71v-471h144v1434h-113l-16 -76q-53 86 -146 86q-50 0 -83.5 -18.5t-50 -52.5t-22.5 -70t-6 -84v-594zM201 223v578q0 90 67 90q45 0 63.5 -42t18.5 -124v-426q0 -82 -18.5 -124t-63.5 -42q-67 0 -67 90z" />
<glyph unicode="r" horiz-adv-x="378" d="M68 0h143v694q0 90 31.5 128t113.5 38v174q-51 0 -96 -27.5t-65 -88.5l-15 106h-112v-1024z" />
<glyph unicode="s" horiz-adv-x="501" d="M29 31q40 -17 95.5 -29t98.5 -12q120 0 187 63t67 180v46q0 69 -21.5 123.5t-53 87t-69 64t-69 56.5t-53 62.5t-21.5 83.5v45q0 44 23 71t70 27q65 0 137 -29l22 136q-86 28 -168 28q-111 0 -173 -63t-62 -170v-45q0 -58 16 -105.5t41 -80t55.5 -60.5t61.5 -52.5t56 -49 t41 -57.5t16 -72v-46q0 -108 -103 -108q-66 0 -162 41z" />
<glyph unicode="t" horiz-adv-x="370" d="M16 897v127h68v205h143v-205h127v-127h-127v-700q0 -72 72 -72q33 0 57 8l9 -133q-49 -10 -105 -10q-84 0 -130 41t-46 143v723h-68z" />
<glyph unicode="u" horiz-adv-x="567" d="M66 215q0 -48 6 -84t22 -70t49.5 -52.5t83.5 -18.5q90 0 146 86l14 -76h113v1024h-144v-725q0 -82 -17.5 -124t-62.5 -42q-67 0 -67 90v801h-143v-809z" />
<glyph unicode="v" horiz-adv-x="532" d="M8 1024h144l116 -788l121 788h135l-186 -1034h-143z" />
<glyph unicode="w" horiz-adv-x="845" d="M10 1024h144l100 -776l100 776h138l102 -776l100 776h144l-170 -1034h-144l-100 743l-100 -743h-144z" />
<glyph unicode="x" horiz-adv-x="516" d="M-2 0l188 512l-188 512h145l115 -334l123 334h135l-186 -512l186 -512h-135l-123 334l-115 -334h-145z" />
<glyph unicode="y" horiz-adv-x="532" d="M-4 -420l10 129q40 -10 76 -10q41 0 63.5 22t32.5 80l39 189h-22l-187 1034h144l118 -795l119 795h135l-215 -1184q-21 -114 -51.5 -173t-69.5 -78t-106 -19q-35 0 -86 10z" />
<glyph unicode="z" horiz-adv-x="450" d="M29 0v129l250 768h-240v127h377v-127l-252 -768h258v-129h-393z" />
<glyph unicode="{" horiz-adv-x="434" d="M14 657q30 -4 53 -13.5t38 -20t25.5 -30.5t16 -35t8 -44t3 -47.5t0.5 -54.5q0 -60 -10.5 -216.5t-10.5 -220.5t5 -108.5t19 -76.5t32 -50.5t50.5 -29t68 -14t91.5 -3.5v112q-20 0 -32 1t-31 6t-30 17t-23 32t-17.5 54t-5.5 79q0 64 10.5 240t10.5 239q0 112 -28.5 165 t-106.5 77v4q78 26 106.5 78.5t28.5 163.5q0 64 -10.5 240.5t-10.5 238.5q0 45 5.5 79t17.5 53.5t23 31.5t30.5 17t30.5 6t32 1v113q-56 0 -91.5 -3.5t-68 -14t-50.5 -29.5t-32 -51t-19 -76.5t-5 -108.5q0 -63 10.5 -219.5t10.5 -216.5q0 -36 -0.5 -54.5t-3 -47.5t-8 -44.5 t-16 -35t-25.5 -30.5t-38 -20.5t-53 -13.5v-119z" />
<glyph unicode="|" horiz-adv-x="253" d="M90 -307v2048h74v-2048h-74z" />
<glyph unicode="}" horiz-adv-x="434" d="M31 -195q20 0 32 1t31 6t30 17t23 32t17.5 54t5.5 79q0 63 -10 239.5t-10 239.5q0 112 28.5 165t106.5 77v4q-78 26 -106.5 78.5t-28.5 163.5q0 64 10 240.5t10 238.5q0 45 -5.5 79t-17.5 53.5t-23 31.5t-30.5 17t-30.5 6t-32 1v113q56 0 91.5 -3.5t68 -14t50.5 -29.5 t32 -51t19 -76.5t5 -108.5q0 -63 -10.5 -219.5t-10.5 -216.5q0 -36 0.5 -54.5t3 -47.5t8 -44.5t16 -35t25.5 -30.5t38 -20.5t53 -13.5v-119q-30 -4 -53 -13.5t-38 -20t-25.5 -30.5t-16 -35t-8 -44t-3 -47.5t-0.5 -54.5q0 -60 10.5 -216.5t10.5 -220.5t-5 -108.5t-19 -76.5 t-32 -50.5t-50.5 -29t-68 -14t-91.5 -3.5v112z" />
<glyph unicode="~" horiz-adv-x="536" d="M49 633q0 91 31 137.5t88 46.5q38 0 98.5 -31.5t85.5 -31.5q29 0 40 15t11 48h82q0 -91 -31 -137.5t-87 -46.5q-38 0 -99 31.5t-86 31.5q-29 0 -40 -15t-11 -48h-82z" />
<glyph unicode="&#xa1;" horiz-adv-x="294" d="M76 -133v-277h143v277l-31 805h-82zM78 836v188h143v-188h-143z" />
<glyph unicode="&#xa2;" horiz-adv-x="530" d="M70 236v552q0 219 192 244v197h76v-195q62 -4 141 -28l-16 -136q-74 21 -123 21q-72 0 -99.5 -31.5t-27.5 -93.5v-508q0 -62 27.5 -93.5t99.5 -31.5q50 0 123 21l16 -136q-79 -24 -141 -28v-195h-76v197q-94 12 -143 74.5t-49 169.5z" />
<glyph unicode="&#xa3;" horiz-adv-x="679" d="M57 0v129h82v424h-82v129h82v539q0 105 62.5 164t177.5 59q114 0 175.5 -59t61.5 -164v-299h-143v299q0 39 -26 63.5t-68 24.5q-44 0 -70 -24.5t-26 -63.5v-539h129v-129h-129v-424h333v-129h-559z" />
<glyph unicode="&#xa4;" horiz-adv-x="473" d="M74 92l47 129q-47 50 -47 137v308q0 87 47 137l-47 129h20l43 -115q39 33 101 33q60 0 102 -33l41 115h20l-47 -127q47 -50 47 -139v-308q0 -87 -47 -137l47 -129h-20l-43 115q-39 -33 -100 -33q-62 0 -101 33l-43 -115h-20zM94 358q0 -29 7 -56t22.5 -52t45 -40 t69.5 -15t69.5 15t44.5 40t22 51.5t7 56.5v308q0 30 -7 56.5t-22 51.5t-44.5 40t-69.5 15t-69.5 -15t-45 -40t-22.5 -52t-7 -56v-308z" />
<glyph unicode="&#xa5;" horiz-adv-x="641" d="M49 1434h144l133 -676l131 676h135l-189 -867h119v-112h-129v-455h-143v455h-131v112h121z" />
<glyph unicode="&#xa6;" horiz-adv-x="253" d="M90 -307v921h74v-921h-74zM90 819v922h74v-922h-74z" />
<glyph unicode="&#xa7;" horiz-adv-x="641" d="M82 205v237h143v-237q0 -38 25.5 -62t68.5 -24q44 0 70.5 24t26.5 62v344h-334v127h477v-471q0 -104 -63 -163.5t-177 -59.5t-175.5 59.5t-61.5 163.5zM82 764v457q0 105 61.5 164t175.5 59q115 0 177.5 -59t62.5 -164v-238h-143v238q0 39 -26.5 63.5t-70.5 24.5 q-42 0 -68 -24.5t-26 -63.5v-330h334v-127h-477z" />
<glyph unicode="&#xa8;" horiz-adv-x="548" d="M80 1157h143v246h-143v-246zM326 1157h143v246h-143v-246z" />
<glyph unicode="&#xa9;" horiz-adv-x="1538" d="M51 717q0 204 93 372.5t258 266.5t366 98t366 -98t258 -266.5t93 -372.5q0 -154 -55 -291t-149.5 -234.5t-228 -154.5t-284.5 -57t-284.5 57t-228 154.5t-149.5 234.5t-55 291zM111 717q0 -152 52 -281t141 -215.5t209 -135t255 -48.5t255.5 48.5t210 135t141.5 215.5 t52 281q0 201 -89.5 357t-239 238.5t-330.5 82.5t-330 -82.5t-238 -238.5t-89 -357zM625 410q0 -64 37.5 -100t105.5 -36q70 0 107.5 36t37.5 100v178h-90v-178q0 -24 -14.5 -38t-40.5 -14t-40.5 14t-14.5 38v604q0 22 14.5 35.5t40.5 13.5t40.5 -13.5t14.5 -35.5v-180h90 v180q0 62 -37.5 97.5t-107.5 35.5q-68 0 -105.5 -35.5t-37.5 -97.5v-604z" />
<glyph unicode="&#xaa;" horiz-adv-x="405" d="M68 672v82h262v-82h-262zM68 961v86q0 34 2 53.5t11 43t27 35.5t51.5 20.5t82.5 8.5v103q0 55 -47 55q-36 0 -82 -37l-39 74q58 51 131 51q65 0 95 -34.5t30 -104.5v-481h-70l-8 51q-25 -58 -88 -58q-57 0 -76.5 36t-19.5 98zM156 965q0 -50 39 -50q47 0 47 103v112 q-53 -1 -69.5 -15t-16.5 -50v-100z" />
<glyph unicode="&#xab;" horiz-adv-x="862" d="M47 446v127l373 359v-129l-230 -291v-4l230 -285v-131zM420 446v127l375 359v-129l-232 -291v-4l232 -285v-131z" />
<glyph unicode="&#xac;" horiz-adv-x="550" d="M61 664v112h416v-248h-143v136h-273z" />
<glyph unicode="&#xad;" horiz-adv-x="454" d="M63 457v112h328v-112h-328z" />
<glyph unicode="&#xae;" horiz-adv-x="1538" d="M51 717q0 204 93 372.5t258 266.5t366 98t366 -98t258 -266.5t93 -372.5q0 -154 -55 -291t-149.5 -234.5t-228 -154.5t-284.5 -57t-284.5 57t-228 154.5t-149.5 234.5t-55 291zM111 717q0 -152 52 -281t141 -215.5t209 -135t255 -48.5t255.5 48.5t210 135t141.5 215.5 t52 281q0 201 -89.5 357t-239 238.5t-330.5 82.5t-330 -82.5t-238 -238.5t-89 -357zM633 285v860h149q68 0 103 -33.5t35 -95.5v-180q0 -101 -66 -127q49 -22 55 -95l25 -329h-88l-21 329q-6 64 -61 64h-43v-393h-88zM721 756h61q24 0 38 14t14 37v209q0 24 -14 37.5 t-38 13.5h-61v-311z" />
<glyph unicode="&#xaf;" horiz-adv-x="538" d="M80 1153v113h379v-113h-379z" />
<glyph unicode="&#xb0;" horiz-adv-x="462" d="M39 1260q0 82 55 138t137 56q80 0 136.5 -56.5t56.5 -137.5q0 -78 -57.5 -133.5t-135.5 -55.5q-81 0 -136.5 55t-55.5 134zM137 1260q0 -41 26 -68t68 -27q41 0 68 27.5t27 67.5q0 43 -27 70.5t-68 27.5q-42 0 -68 -27.5t-26 -70.5z" />
<glyph unicode="&#xb1;" horiz-adv-x="499" d="M72 479v113h358v-113h-358zM72 786v113h123v123h112v-123h123v-113h-123v-122h-112v122h-123z" />
<glyph unicode="&#xb2;" horiz-adv-x="360" d="M41 834v186q0 56 20.5 107.5t49.5 89.5t58.5 73.5t50 75t20.5 78.5v123q0 22 -15 35.5t-41 13.5t-40.5 -13.5t-14.5 -35.5v-181h-88v181q0 62 37.5 97.5t105.5 35.5q70 0 108 -35.5t38 -97.5v-123q0 -57 -20.5 -108t-50 -88t-59.5 -71.5t-50.5 -74.5t-20.5 -82v-107h201 v-79h-289z" />
<glyph unicode="&#xb3;" horiz-adv-x="372" d="M41 963v178h88v-178q0 -24 14.5 -38t40.5 -14t41 14t15 38v231q0 22 -15 36.5t-41 14.5h-34v82h34q49 0 49 51v189q0 49 -49 49q-26 0 -40.5 -13.5t-14.5 -35.5v-181h-88v181q0 63 37 98t106 35q68 0 103 -35t35 -98v-189q0 -61 -46 -92q52 -27 52 -92v-231 q0 -64 -38 -100t-106 -36q-69 0 -106 36t-37 100z" />
<glyph unicode="&#xb4;" horiz-adv-x="432" d="M80 1126h127l147 287h-159z" />
<glyph unicode="&#xb6;" horiz-adv-x="780" d="M86 215v1004q0 105 58 160t173 55h103v-1434h-103q-114 0 -172.5 55.5t-58.5 159.5zM496 0v1434h231v-113h-102v-1208h102v-113h-231z" />
<glyph unicode="&#xb7;" horiz-adv-x="256" d="M63 440h130v191h-130v-191z" />
<glyph unicode="&#xb8;" horiz-adv-x="452" d="M63 -391l19 88q61 -21 104 -21q76 0 76 72v19q0 38 -14.5 54.5t-61.5 16.5h-45v176h97v-77h8q151 0 151 -148v-41q0 -86 -51.5 -127t-134.5 -41q-36 0 -80.5 9t-67.5 20z" />
<glyph unicode="&#xb9;" horiz-adv-x="260" d="M23 834v79h69v703h-69v78h157v-781h70v-79h-227z" />
<glyph unicode="&#xba;" horiz-adv-x="413" d="M76 672v82h262v-82h-262zM76 963v358q0 133 131 133t131 -133v-358q0 -136 -131 -136t-131 136zM164 963q0 -52 43 -52t43 52v358q0 49 -43 49t-43 -49v-358z" />
<glyph unicode="&#xbb;" horiz-adv-x="862" d="M68 92l374 354v127l-374 359v-129l231 -291v-4l-231 -285v-131zM442 92l373 354v127l-373 359v-129l230 -291v-4l-230 -285v-131z" />
<glyph unicode="&#xbc;" horiz-adv-x="821" d="M25 573v80h69v703h-69v78h157v-781h68v-80h-225zM53 0l574 1434h75l-575 -1434h-74zM453 231v78l200 551h88v-551h68v-78h-68v-231h-88v231h-200zM535 309h118v344z" />
<glyph unicode="&#xbd;" horiz-adv-x="839" d="M25 573v80h69v703h-69v78h157v-781h68v-80h-225zM53 0l574 1434h75l-575 -1434h-74zM520 0v186q0 56 20.5 107.5t50 89.5t58.5 73.5t49.5 75t20.5 78.5v123q0 22 -14.5 35.5t-40.5 13.5t-41 -13.5t-15 -35.5v-180h-88v180q0 62 38 97.5t106 35.5q70 0 107.5 -35.5 t37.5 -97.5v-123q0 -57 -20.5 -108t-50.5 -88t-59.5 -71.5t-50 -74.5t-20.5 -82v-106h201v-80h-289z" />
<glyph unicode="&#xbe;" horiz-adv-x="919" d="M41 702v179h88v-179q0 -24 14.5 -37.5t40.5 -13.5t41 14t15 37v232q0 22 -15 36.5t-41 14.5h-34v82h34q49 0 49 51v189q0 49 -49 49q-26 0 -40.5 -13.5t-14.5 -35.5v-181h-88v181q0 63 37 98t106 35q68 0 103 -35t35 -98v-189q0 -61 -46 -92q52 -27 52 -92v-232 q0 -63 -37.5 -99t-106.5 -36q-70 0 -106.5 35.5t-36.5 99.5zM152 0l573 1434h76l-576 -1434h-73zM553 231v78l201 551h88v-551h67v-78h-67v-231h-88v231h-201zM635 309h119v344z" />
<glyph unicode="&#xbf;" horiz-adv-x="589" d="M66 -197v443q0 88 43.5 144t126.5 73l18 209h113v-338h-64q-43 0 -68.5 -24.5t-25.5 -63.5v-443q0 -39 25.5 -63.5t68.5 -24.5t68.5 24.5t25.5 63.5v299h144v-299q0 -105 -62 -164t-176 -59t-175.5 59t-61.5 164zM231 836v188h144v-188h-144z" />
<glyph unicode="&#xc0;" d="M14 0l201 1444h143l199 -1444h-143l-47 389h-168l-47 -389h-138zM74 1823h157l117 -287h-129zM213 518h139l-69 582z" />
<glyph unicode="&#xc1;" d="M14 0l201 1444h143l199 -1444h-143l-47 389h-168l-47 -389h-138zM213 518h139l-69 582zM219 1536h127l148 287h-160z" />
<glyph unicode="&#xc2;" d="M14 0l201 1444h143l199 -1444h-143l-47 389h-168l-47 -389h-138zM88 1536l133 287h123l135 -287h-127l-69 160l-68 -160h-127zM213 518h139l-69 582z" />
<glyph unicode="&#xc3;" d="M14 0l201 1444h143l199 -1444h-143l-47 389h-168l-47 -389h-138zM68 1542q0 184 116 184q38 0 99 -32.5t86 -32.5q29 0 40 16t11 49h82q0 -91 -30.5 -137.5t-86.5 -46.5q-38 0 -98.5 32t-85.5 32q-29 0 -40 -15.5t-11 -48.5h-82zM213 518h139l-69 582z" />
<glyph unicode="&#xc4;" d="M14 0l201 1444h143l199 -1444h-143l-47 389h-168l-47 -389h-138zM90 1567h143v245h-143v-245zM213 518h139l-69 582zM336 1567h143v245h-143v-245z" />
<glyph unicode="&#xc5;" d="M14 0l201 1444h143l199 -1444h-143l-47 389h-168l-47 -389h-138zM102 1690q0 163 183 163q180 0 180 -163q0 -84 -48 -124t-132 -40q-86 0 -134.5 40t-48.5 124zM213 518h139l-69 582zM215 1690q0 -40 15.5 -61t54.5 -21q37 0 52 21t15 61t-15 61t-52 21q-39 0 -54.5 -21 t-15.5 -61z" />
<glyph unicode="&#xc6;" horiz-adv-x="825" d="M4 0l295 1434h492v-127h-252v-523h215v-129h-215v-526h252v-129h-396v389h-174l-82 -389h-135zM250 518h145v684z" />
<glyph unicode="&#xc7;" horiz-adv-x="604" d="M72 213v1008q0 105 61.5 164t175.5 59t176 -59t62 -164v-299h-144v299q0 39 -25.5 63.5t-68.5 24.5t-68.5 -24.5t-25.5 -63.5v-1008q0 -39 25.5 -63.5t68.5 -24.5t68.5 24.5t25.5 63.5v299h144v-299q0 -93 -48.5 -150t-140.5 -69v-72h9q151 0 151 -147v-41 q0 -86 -51.5 -127t-134.5 -41q-36 0 -81 8.5t-67 19.5l19 89q61 -21 104 -21q76 0 76 72v18q0 39 -15 55.5t-61 16.5h-45v168q-92 12 -141 69.5t-49 151.5z" />
<glyph unicode="&#xc8;" horiz-adv-x="509" d="M68 1823h157l117 -287h-129zM80 0v1434h397v-127h-254v-523h217v-129h-217v-526h254v-129h-397z" />
<glyph unicode="&#xc9;" horiz-adv-x="509" d="M80 0v1434h397v-127h-254v-523h217v-129h-217v-526h254v-129h-397zM213 1536h127l147 287h-159z" />
<glyph unicode="&#xca;" horiz-adv-x="509" d="M80 0v1434h397v-127h-254v-523h217v-129h-217v-526h254v-129h-397zM80 1536l133 287h123l135 -287h-127l-70 160l-67 -160h-127z" />
<glyph unicode="&#xcb;" horiz-adv-x="509" d="M80 0v1434h397v-127h-254v-523h217v-129h-217v-526h254v-129h-397zM82 1567h143v245h-143v-245zM328 1567h143v245h-143v-245z" />
<glyph unicode="&#xcc;" horiz-adv-x="305" d="M-57 1823h157l117 -287h-129zM80 0v1434h143v-1434h-143z" />
<glyph unicode="&#xcd;" horiz-adv-x="305" d="M80 0v1434h143v-1434h-143zM88 1536h127l147 287h-159z" />
<glyph unicode="&#xce;" horiz-adv-x="305" d="M-43 1536l133 287h123l135 -287h-127l-69 160l-68 -160h-127zM80 0v1434h143v-1434h-143z" />
<glyph unicode="&#xcf;" horiz-adv-x="305" d="M-43 1567h145v245h-145v-245zM80 0v1434h143v-1434h-143zM205 1567h143v245h-143v-245z" />
<glyph unicode="&#xd0;" horiz-adv-x="628" d="M2 655v129h80v650h246q229 0 229 -215v-1004q0 -104 -57.5 -159.5t-171.5 -55.5h-246v655h-80zM225 129h103q43 0 64.5 23t21.5 63v1004q0 40 -21.5 64t-64.5 24h-103v-523h90v-129h-90v-526z" />
<glyph unicode="&#xd1;" horiz-adv-x="636" d="M80 0v1434h160l194 -953q-6 196 -6 389v564h129v-1434h-160l-194 952q6 -196 6 -389v-563h-129zM102 1542q0 91 30.5 137.5t86.5 46.5q38 0 98.5 -32.5t85.5 -32.5q29 0 40.5 16t11.5 49h82q0 -91 -30.5 -137.5t-86.5 -46.5q-38 0 -98.5 32t-85.5 32q-29 0 -40.5 -15.5 t-11.5 -48.5h-82z" />
<glyph unicode="&#xd2;" horiz-adv-x="618" d="M72 213q0 -105 61.5 -164t175.5 -59t176 59t62 164v1008q0 105 -62 164t-176 59t-175.5 -59t-61.5 -164v-1008zM100 1823h158l117 -287h-129zM215 213v1008q0 39 25.5 63.5t68.5 24.5t68.5 -24.5t25.5 -63.5v-1008q0 -39 -25.5 -63.5t-68.5 -24.5t-68.5 24.5t-25.5 63.5z " />
<glyph unicode="&#xd3;" horiz-adv-x="618" d="M72 213q0 -105 61.5 -164t175.5 -59t176 59t62 164v1008q0 105 -62 164t-176 59t-175.5 -59t-61.5 -164v-1008zM215 213v1008q0 39 25.5 63.5t68.5 24.5t68.5 -24.5t25.5 -63.5v-1008q0 -39 -25.5 -63.5t-68.5 -24.5t-68.5 24.5t-25.5 63.5zM246 1536h127l147 287h-160z " />
<glyph unicode="&#xd4;" horiz-adv-x="618" d="M72 213q0 -105 61.5 -164t175.5 -59t176 59t62 164v1008q0 105 -62 164t-176 59t-175.5 -59t-61.5 -164v-1008zM115 1536l133 287h123l135 -287h-127l-70 160l-67 -160h-127zM215 213v1008q0 39 25.5 63.5t68.5 24.5t68.5 -24.5t25.5 -63.5v-1008q0 -39 -25.5 -63.5 t-68.5 -24.5t-68.5 24.5t-25.5 63.5z" />
<glyph unicode="&#xd5;" horiz-adv-x="618" d="M72 213q0 -105 61.5 -164t175.5 -59t176 59t62 164v1008q0 105 -62 164t-176 59t-175.5 -59t-61.5 -164v-1008zM92 1542q0 91 30.5 137.5t86.5 46.5q38 0 98.5 -32.5t85.5 -32.5q29 0 40 16t11 49h82q0 -184 -116 -184q-38 0 -99 32t-86 32q-29 0 -40 -15.5t-11 -48.5 h-82zM215 213v1008q0 39 25.5 63.5t68.5 24.5t68.5 -24.5t25.5 -63.5v-1008q0 -39 -25.5 -63.5t-68.5 -24.5t-68.5 24.5t-25.5 63.5z" />
<glyph unicode="&#xd6;" horiz-adv-x="618" d="M72 213q0 -105 61.5 -164t175.5 -59t176 59t62 164v1008q0 105 -62 164t-176 59t-175.5 -59t-61.5 -164v-1008zM115 1567h143v245h-143v-245zM215 213v1008q0 39 25.5 63.5t68.5 24.5t68.5 -24.5t25.5 -63.5v-1008q0 -39 -25.5 -63.5t-68.5 -24.5t-68.5 24.5t-25.5 63.5z M360 1567h144v245h-144v-245z" />
<glyph unicode="&#xd7;" horiz-adv-x="505" d="M53 600l320 320l80 -80l-320 -320z" />
<glyph unicode="&#xd8;" horiz-adv-x="618" d="M72 -41l34 123q-34 52 -34 131v1008q0 105 61.5 164t175.5 59q99 0 160 -45l20 76h58l-35 -123q35 -53 35 -131v-1008q0 -105 -62 -164t-176 -59q-99 0 -157 43l-21 -74h-59zM215 213q0 -39 25.5 -63.5t68.5 -24.5t68.5 24.5t25.5 63.5v739l-188 -688v-51zM215 479 l188 684v58q0 39 -25.5 63.5t-68.5 24.5t-68.5 -24.5t-25.5 -63.5v-742z" />
<glyph unicode="&#xd9;" horiz-adv-x="632" d="M78 213v1221h143v-1221q0 -39 26 -63.5t70 -24.5q42 0 68.5 24.5t26.5 63.5v1221h143v-1221q0 -105 -62 -164t-176 -59q-115 0 -177 59t-62 164zM106 1823h158l117 -287h-129z" />
<glyph unicode="&#xda;" horiz-adv-x="632" d="M78 213v1221h143v-1221q0 -39 26 -63.5t70 -24.5q42 0 68.5 24.5t26.5 63.5v1221h143v-1221q0 -105 -62 -164t-176 -59q-115 0 -177 59t-62 164zM254 1536h127l147 287h-159z" />
<glyph unicode="&#xdb;" horiz-adv-x="632" d="M78 213v1221h143v-1221q0 -39 26 -63.5t70 -24.5q42 0 68.5 24.5t26.5 63.5v1221h143v-1221q0 -105 -62 -164t-176 -59q-115 0 -177 59t-62 164zM121 1536l133 287h123l135 -287h-127l-70 160l-67 -160h-127z" />
<glyph unicode="&#xdc;" horiz-adv-x="632" d="M78 213v1221h143v-1221q0 -39 26 -63.5t70 -24.5q42 0 68.5 24.5t26.5 63.5v1221h143v-1221q0 -105 -62 -164t-176 -59q-115 0 -177 59t-62 164zM123 1567h143v245h-143v-245zM369 1567h143v245h-143v-245z" />
<glyph unicode="&#xdd;" horiz-adv-x="565" d="M12 1434h144l131 -670l131 670h137l-201 -910v-524h-143v524zM219 1536h127l148 287h-160z" />
<glyph unicode="&#xde;" horiz-adv-x="595" d="M80 0v1434h143v-289h103q114 0 172.5 -55.5t58.5 -159.5v-420q0 -105 -58 -160t-173 -55h-103v-295h-143zM223 422h103q43 0 65.5 24t22.5 64v420q0 40 -22.5 63t-65.5 23h-103v-594z" />
<glyph unicode="&#xdf;" horiz-adv-x="581" d="M16 897v127h68v238q0 223 217 223t217 -223v-334q0 -112 -102 -152q112 -34 112 -151v-410q0 -104 -57.5 -159.5t-171.5 -55.5h-35v129h35q42 0 64 23.5t22 62.5v410q0 40 -22.5 64t-63.5 24h-35v127h25q41 0 63.5 24t22.5 64v334q0 88 -74 88t-74 -88v-1262h-143v897 h-68z" />
<glyph unicode="&#xe0;" horiz-adv-x="540" d="M41 209v145q0 40 1.5 65t7.5 57t17.5 51t33 39.5t52 32t75.5 19t104 7.5v172q0 94 -78 94q-56 0 -139 -60l-64 119q45 38 104 61t113 23q108 0 157.5 -56t49.5 -173v-805h-113l-14 88q-21 -50 -60 -74t-85 -24q-50 0 -83.5 18t-50 51t-22.5 68t-6 82zM59 1413h158 l117 -287h-129zM184 217q0 -84 68 -84q42 0 61 41t19 131v193q-91 -3 -119.5 -27.5t-28.5 -85.5v-168z" />
<glyph unicode="&#xe1;" horiz-adv-x="540" d="M41 209v145q0 40 1.5 65t7.5 57t17.5 51t33 39.5t52 32t75.5 19t104 7.5v172q0 94 -78 94q-56 0 -139 -60l-64 119q45 38 104 61t113 23q108 0 157.5 -56t49.5 -173v-805h-113l-14 88q-21 -50 -60 -74t-85 -24q-50 0 -83.5 18t-50 51t-22.5 68t-6 82zM184 217 q0 -84 68 -84q42 0 61 41t19 131v193q-91 -3 -119.5 -27.5t-28.5 -85.5v-168zM205 1126h127l147 287h-160z" />
<glyph unicode="&#xe2;" horiz-adv-x="540" d="M41 209v145q0 40 1.5 65t7.5 57t17.5 51t33 39.5t52 32t75.5 19t104 7.5v172q0 94 -78 94q-56 0 -139 -60l-64 119q45 38 104 61t113 23q108 0 157.5 -56t49.5 -173v-805h-113l-14 88q-21 -50 -60 -74t-85 -24q-50 0 -83.5 18t-50 51t-22.5 68t-6 82zM74 1126l133 287 h123l135 -287h-127l-70 160l-67 -160h-127zM184 217q0 -84 68 -84q42 0 61 41t19 131v193q-91 -3 -119.5 -27.5t-28.5 -85.5v-168z" />
<glyph unicode="&#xe3;" horiz-adv-x="540" d="M41 209v145q0 40 1.5 65t7.5 57t17.5 51t33 39.5t52 32t75.5 19t104 7.5v172q0 94 -78 94q-56 0 -139 -60l-64 119q45 38 104 61t113 23q108 0 157.5 -56t49.5 -173v-805h-113l-14 88q-21 -50 -60 -74t-85 -24q-50 0 -83.5 18t-50 51t-22.5 68t-6 82zM51 1133 q0 91 30.5 137.5t86.5 46.5q38 0 98.5 -33t85.5 -33q29 0 40 16.5t11 49.5h82q0 -184 -116 -184q-38 0 -99 31.5t-86 31.5q-29 0 -40 -15t-11 -48h-82zM184 217q0 -84 68 -84q42 0 61 41t19 131v193q-91 -3 -119.5 -27.5t-28.5 -85.5v-168z" />
<glyph unicode="&#xe4;" horiz-adv-x="540" d="M41 209v145q0 40 1.5 65t7.5 57t17.5 51t33 39.5t52 32t75.5 19t104 7.5v172q0 94 -78 94q-56 0 -139 -60l-64 119q45 38 104 61t113 23q108 0 157.5 -56t49.5 -173v-805h-113l-14 88q-21 -50 -60 -74t-85 -24q-50 0 -83.5 18t-50 51t-22.5 68t-6 82zM74 1157h143v246 h-143v-246zM184 217q0 -84 68 -84q42 0 61 41t19 131v193q-91 -3 -119.5 -27.5t-28.5 -85.5v-168zM319 1157h144v246h-144v-246z" />
<glyph unicode="&#xe5;" horiz-adv-x="540" d="M41 209v145q0 40 1.5 65t7.5 57t17.5 51t33 39.5t52 32t75.5 19t104 7.5v172q0 94 -78 94q-56 0 -139 -60l-64 119q45 38 104 61t113 23q108 0 157.5 -56t49.5 -173v-805h-113l-14 88q-21 -50 -60 -74t-85 -24q-50 0 -83.5 18t-50 51t-22.5 68t-6 82zM88 1280 q0 164 182 164q181 0 181 -164q0 -84 -48.5 -124t-132.5 -40q-182 0 -182 164zM184 217q0 -84 68 -84q42 0 61 41t19 131v193q-91 -3 -119.5 -27.5t-28.5 -85.5v-168zM201 1280q0 -40 15 -61t54 -21q68 0 68 82t-68 82q-39 0 -54 -21t-15 -61z" />
<glyph unicode="&#xe6;" horiz-adv-x="817" d="M41 209v131q0 41 1.5 66t7.5 57t17.5 51t33 40t52 32t75.5 18.5t104 7.5v185q0 94 -80 94q-54 0 -137 -60l-64 119q43 37 102.5 60.5t114.5 23.5q92 0 140 -39q48 39 141 39q219 0 219 -223v-328h-293v-231q0 -62 28 -90.5t101 -28.5q84 0 158 21l16 -136 q-91 -28 -205 -28q-165 0 -217 110q-23 -57 -65 -83.5t-90 -26.5q-49 0 -82.5 18t-49.5 51t-22 68t-6 82zM184 217q0 -84 66 -84q44 0 63 41t19 131v178q-91 -1 -119.5 -26t-28.5 -86v-154zM475 612h150v199q0 88 -76 88q-74 0 -74 -88v-199z" />
<glyph unicode="&#xe7;" horiz-adv-x="481" d="M55 236v552q0 121 61 183.5t177 62.5q81 0 172 -28l-16 -136q-74 21 -125 21q-72 0 -98.5 -31.5t-26.5 -93.5v-508q0 -62 26.5 -93.5t98.5 -31.5q52 0 125 21l16 -136q-56 -18 -123 -26v-70h8q152 0 152 -147v-41q0 -86 -52 -127t-135 -41q-36 0 -80.5 8.5t-66.5 19.5 l18 89q61 -21 105 -21q76 0 76 72v18q0 39 -15 55.5t-61 16.5h-45v168q-93 12 -142 74.5t-49 169.5z" />
<glyph unicode="&#xe8;" horiz-adv-x="542" d="M55 227v584q0 223 219 223q218 0 218 -223v-340h-293v-219q0 -62 28 -90.5t101 -28.5q83 0 157 21l17 -136q-91 -28 -205 -28q-117 0 -179.5 59.5t-62.5 177.5zM63 1413h158l117 -287h-129zM199 600h149v211q0 88 -74 88q-75 0 -75 -88v-211z" />
<glyph unicode="&#xe9;" horiz-adv-x="542" d="M55 227v584q0 223 219 223q218 0 218 -223v-340h-293v-219q0 -62 28 -90.5t101 -28.5q83 0 157 21l17 -136q-91 -28 -205 -28q-117 0 -179.5 59.5t-62.5 177.5zM199 600h149v211q0 88 -74 88q-75 0 -75 -88v-211zM211 1126h127l147 287h-159z" />
<glyph unicode="&#xea;" horiz-adv-x="542" d="M55 227v584q0 223 219 223q218 0 218 -223v-340h-293v-219q0 -62 28 -90.5t101 -28.5q83 0 157 21l17 -136q-91 -28 -205 -28q-117 0 -179.5 59.5t-62.5 177.5zM78 1126l133 287h123l135 -287h-127l-70 160l-67 -160h-127zM199 600h149v211q0 88 -74 88q-75 0 -75 -88 v-211z" />
<glyph unicode="&#xeb;" horiz-adv-x="542" d="M55 227v584q0 223 219 223q218 0 218 -223v-340h-293v-219q0 -62 28 -90.5t101 -28.5q83 0 157 21l17 -136q-91 -28 -205 -28q-117 0 -179.5 59.5t-62.5 177.5zM80 1157h143v246h-143v-246zM199 600h149v211q0 88 -74 88q-75 0 -75 -88v-211zM326 1157h143v246h-143v-246 z" />
<glyph unicode="&#xec;" horiz-adv-x="278" d="M-72 1413h160l117 -287h-129zM68 0h143v1024h-143v-1024z" />
<glyph unicode="&#xed;" horiz-adv-x="278" d="M68 0h143v1024h-143v-1024zM76 1126h127l147 287h-160z" />
<glyph unicode="&#xee;" horiz-adv-x="278" d="M-57 1126l133 287h123l135 -287h-127l-70 160l-67 -160h-127zM68 0h143v1024h-143v-1024z" />
<glyph unicode="&#xef;" horiz-adv-x="278" d="M-55 1157h143v246h-143v-246zM68 0h143v1024h-143v-1024zM190 1157h144v246h-144v-246z" />
<glyph unicode="&#xf0;" horiz-adv-x="579" d="M41 213v387q0 104 62 162.5t176 58.5h96v400q0 37 -23 61t-63 27v-248h-74v248h-137v135h137v194h74v-194q109 -3 169 -62t60 -161v-1008q0 -105 -62 -164t-177 -59q-114 0 -176 59t-62 164zM184 213q0 -39 26.5 -63.5t68.5 -24.5q44 0 70 24.5t26 63.5v473h-96 q-43 0 -69 -24t-26 -62v-387z" />
<glyph unicode="&#xf1;" horiz-adv-x="567" d="M68 0h143v725q0 82 17.5 124t62.5 42q67 0 67 -90v-801h144v809q0 48 -6 84t-22.5 70t-50 52.5t-83.5 18.5q-89 0 -145 -86l-15 76h-112v-1024zM70 1133q0 184 116 184q38 0 99 -33t86 -33q29 0 40 16.5t11 49.5h82q0 -91 -30.5 -137.5t-86.5 -46.5q-38 0 -98.5 31.5 t-85.5 31.5q-29 0 -40 -15t-11 -48h-82z" />
<glyph unicode="&#xf2;" horiz-adv-x="546" d="M55 213v598q0 223 219 223q218 0 218 -223v-598q0 -223 -218 -223q-219 0 -219 223zM63 1413h158l117 -287h-129zM199 213q0 -88 75 -88q74 0 74 88v598q0 88 -74 88q-75 0 -75 -88v-598z" />
<glyph unicode="&#xf3;" horiz-adv-x="546" d="M55 213v598q0 223 219 223q218 0 218 -223v-598q0 -223 -218 -223q-219 0 -219 223zM199 213q0 -88 75 -88q74 0 74 88v598q0 88 -74 88q-75 0 -75 -88v-598zM211 1126h127l147 287h-159z" />
<glyph unicode="&#xf4;" horiz-adv-x="546" d="M55 213v598q0 223 219 223q218 0 218 -223v-598q0 -223 -218 -223q-219 0 -219 223zM78 1126l133 287h123l135 -287h-127l-70 160l-67 -160h-127zM199 213q0 -88 75 -88q74 0 74 88v598q0 88 -74 88q-75 0 -75 -88v-598z" />
<glyph unicode="&#xf5;" horiz-adv-x="546" d="M55 213v598q0 223 219 223q218 0 218 -223v-598q0 -223 -218 -223q-219 0 -219 223zM57 1133q0 91 30.5 137.5t86.5 46.5q38 0 98.5 -33t85.5 -33q29 0 40.5 16.5t11.5 49.5h82q0 -91 -30.5 -137.5t-86.5 -46.5q-38 0 -99 31.5t-86 31.5q-29 0 -40 -15t-11 -48h-82z M199 213q0 -88 75 -88q74 0 74 88v598q0 88 -74 88q-75 0 -75 -88v-598z" />
<glyph unicode="&#xf6;" horiz-adv-x="546" d="M55 213v598q0 223 219 223q218 0 218 -223v-598q0 -223 -218 -223q-219 0 -219 223zM80 1157h143v246h-143v-246zM199 213q0 -88 75 -88q74 0 74 88v598q0 88 -74 88q-75 0 -75 -88v-598zM326 1157h143v246h-143v-246z" />
<glyph unicode="&#xf7;" horiz-adv-x="493" d="M53 664v112h389v-112h-389zM180 391h129v191h-129v-191zM180 858h129v189h-129v-189z" />
<glyph unicode="&#xf8;" horiz-adv-x="546" d="M55 -41l37 111q-37 55 -37 143v598q0 223 219 223q71 0 125 -26l19 57h74l-35 -111q35 -52 35 -143v-598q0 -223 -218 -223q-70 0 -124 26l-19 -57h-76zM199 397l147 447q-13 55 -72 55q-75 0 -75 -88v-414zM203 178q10 -53 71 -53q74 0 74 88v412z" />
<glyph unicode="&#xf9;" horiz-adv-x="567" d="M66 215q0 -48 6 -84t22 -70t49.5 -52.5t83.5 -18.5q90 0 146 86l14 -76h113v1024h-144v-725q0 -82 -17.5 -124t-62.5 -42q-67 0 -67 90v801h-143v-809zM76 1413h157l117 -287h-129z" />
<glyph unicode="&#xfa;" horiz-adv-x="567" d="M66 215q0 -48 6 -84t22 -70t49.5 -52.5t83.5 -18.5q90 0 146 86l14 -76h113v1024h-144v-725q0 -82 -17.5 -124t-62.5 -42q-67 0 -67 90v801h-143v-809zM221 1126h127l148 287h-160z" />
<glyph unicode="&#xfb;" horiz-adv-x="567" d="M66 215q0 -48 6 -84t22 -70t49.5 -52.5t83.5 -18.5q90 0 146 86l14 -76h113v1024h-144v-725q0 -82 -17.5 -124t-62.5 -42q-67 0 -67 90v801h-143v-809zM88 1126l133 287h123l135 -287h-127l-69 160l-68 -160h-127z" />
<glyph unicode="&#xfc;" horiz-adv-x="567" d="M66 215q0 -48 6 -84t22 -70t49.5 -52.5t83.5 -18.5q90 0 146 86l14 -76h113v1024h-144v-725q0 -82 -17.5 -124t-62.5 -42q-67 0 -67 90v801h-143v-809zM90 1157h143v246h-143v-246zM336 1157h143v246h-143v-246z" />
<glyph unicode="&#xfd;" horiz-adv-x="532" d="M-4 -420l10 129q40 -10 76 -10q41 0 63.5 22t32.5 80l39 189h-22l-187 1034h144l118 -795l119 795h135l-215 -1184q-21 -114 -51.5 -173t-69.5 -78t-106 -19q-35 0 -86 10zM201 1126h127l147 287h-160z" />
<glyph unicode="&#xfe;" horiz-adv-x="559" d="M68 -410v1885h143v-512q48 71 131 71q49 0 82.5 -18.5t49.5 -52.5t22 -70t6 -84v-594q0 -48 -6 -84t-22 -70t-49.5 -52.5t-82.5 -18.5q-83 0 -131 71v-471h-143zM211 299q0 -83 17.5 -124.5t64.5 -41.5q65 0 65 90v578q0 90 -65 90q-47 0 -64.5 -41.5t-17.5 -124.5v-426z " />
<glyph unicode="&#xff;" horiz-adv-x="532" d="M-4 -420l10 129q40 -10 76 -10q41 0 63.5 22t32.5 80l39 189h-22l-187 1034h144l118 -795l119 795h135l-215 -1184q-21 -114 -51.5 -173t-69.5 -78t-106 -19q-35 0 -86 10zM70 1157h143v246h-143v-246zM315 1157h144v246h-144v-246z" />
<glyph unicode="&#x152;" horiz-adv-x="835" d="M72 213v1008q0 104 59.5 163.5t163.5 59.5q129 0 172 -101v91h336v-127h-254v-523h215v-129h-215v-526h254v-129h-336v90q-43 -100 -172 -100q-104 0 -163.5 59.5t-59.5 163.5zM215 213q0 -39 25.5 -63.5t68.5 -24.5t68.5 24.5t25.5 63.5v1008q0 39 -25.5 63.5 t-68.5 24.5t-68.5 -24.5t-25.5 -63.5v-1008z" />
<glyph unicode="&#x153;" horiz-adv-x="835" d="M55 213v598q0 223 219 223q93 0 146 -41q53 41 145 41q217 0 217 -223v-340h-290v-219q0 -62 26.5 -90.5t99.5 -28.5q84 0 158 21l17 -136q-31 -10 -91.5 -19t-113.5 -9q-105 0 -162 45q-54 -45 -152 -45q-219 0 -219 223zM199 213q0 -88 75 -88q74 0 74 88v598 q0 88 -74 88q-75 0 -75 -88v-598zM492 600h147v211q0 88 -74 88q-73 0 -73 -88v-211z" />
<glyph unicode="&#x178;" horiz-adv-x="565" d="M12 1434h144l131 -670l131 670h137l-201 -910v-524h-143v524zM88 1567h143v245h-143v-245zM334 1567h143v245h-143v-245z" />
<glyph unicode="&#x2c6;" horiz-adv-x="550" d="M80 1126l133 287h123l135 -287h-127l-70 160l-67 -160h-127z" />
<glyph unicode="&#x2dc;" horiz-adv-x="663" d="M129 1133q0 91 30.5 137.5t86.5 46.5q38 0 98.5 -33t85.5 -33q29 0 40 16.5t11 49.5h82q0 -91 -30.5 -137.5t-86.5 -46.5q-38 0 -98.5 31.5t-85.5 31.5q-29 0 -40 -15t-11 -48h-82z" />
<glyph unicode="&#x2000;" horiz-adv-x="926" />
<glyph unicode="&#x2001;" horiz-adv-x="1853" />
<glyph unicode="&#x2002;" horiz-adv-x="926" />
<glyph unicode="&#x2003;" horiz-adv-x="1853" />
<glyph unicode="&#x2004;" horiz-adv-x="617" />
<glyph unicode="&#x2005;" horiz-adv-x="463" />
<glyph unicode="&#x2006;" horiz-adv-x="308" />
<glyph unicode="&#x2007;" horiz-adv-x="308" />
<glyph unicode="&#x2008;" horiz-adv-x="231" />
<glyph unicode="&#x2009;" horiz-adv-x="370" />
<glyph unicode="&#x200a;" horiz-adv-x="102" />
<glyph unicode="&#x2010;" horiz-adv-x="454" d="M63 457v112h328v-112h-328z" />
<glyph unicode="&#x2011;" horiz-adv-x="454" d="M63 457v112h328v-112h-328z" />
<glyph unicode="&#x2012;" horiz-adv-x="454" d="M63 457v112h328v-112h-328z" />
<glyph unicode="&#x2013;" horiz-adv-x="612" d="M63 457v112h486v-112h-486z" />
<glyph unicode="&#x2014;" horiz-adv-x="817" d="M63 457v112h691v-112h-691z" />
<glyph unicode="&#x2018;" horiz-adv-x="247" d="M72 979h116v188l-61 267h-55v-455z" />
<glyph unicode="&#x2019;" horiz-adv-x="247" d="M53 1245v189h129v-455h-67z" />
<glyph unicode="&#x201a;" horiz-adv-x="253" d="M63 0v190h127v-456h-65z" />
<glyph unicode="&#x201c;" horiz-adv-x="550" d="M66 979v455h67l62 -267v-188h-129zM369 979v455h65l62 -267v-188h-127z" />
<glyph unicode="&#x201d;" horiz-adv-x="548" d="M53 1245v189h129v-455h-67zM356 1245v189h127v-455h-65z" />
<glyph unicode="&#x201e;" horiz-adv-x="557" d="M63 0v190h127v-456h-65zM365 0v190h129v-456h-68z" />
<glyph unicode="&#x2022;" horiz-adv-x="415" d="M68 590h280v297h-280v-297z" />
<glyph unicode="&#x2026;" horiz-adv-x="858" d="M63 0h127v190h-127v-190zM365 0h129v190h-129v-190zM668 0h127v190h-127v-190z" />
<glyph unicode="&#x202f;" horiz-adv-x="370" />
<glyph unicode="&#x2039;" horiz-adv-x="487" d="M47 446v127l373 359v-129l-230 -291v-4l230 -285v-131z" />
<glyph unicode="&#x203a;" horiz-adv-x="487" d="M68 92l374 354v127l-374 359v-129l231 -291v-4l-231 -285v-131z" />
<glyph unicode="&#x205f;" horiz-adv-x="463" />
<glyph unicode="&#x20ac;" horiz-adv-x="692" d="M53 541v112h86v133h-86v113h86v322q0 105 62 164t176 59t175.5 -59t61.5 -164v-299h-143v299q0 39 -25.5 63.5t-68.5 24.5t-68.5 -24.5t-25.5 -63.5v-322h104v-113h-104v-133h104v-112h-104v-328q0 -39 25.5 -63.5t68.5 -24.5t68.5 24.5t25.5 63.5v299h143v-299 q0 -105 -61.5 -164t-175.5 -59t-176 59t-62 164v328h-86z" />
<glyph unicode="&#x2122;" horiz-adv-x="903" d="M90 1356v78h272v-78h-92v-783h-88v783h-92zM424 573v861h92l107 -400l106 400h74h10v-861h-88v330q0 78 4 250l-70 -264h-88l-75 297q6 -147 6 -283v-330h-78z" />
<glyph unicode="&#xe000;" horiz-adv-x="1024" d="M0 0v1024h1024v-1024h-1024z" />
<glyph unicode="&#xfb03;" horiz-adv-x="989" d="M16 897v127h68v276q0 102 46 143.5t130 41.5q56 0 105 -10l-9 -134q-27 9 -57 9q-72 0 -72 -72v-254h205v266q0 102 46 143.5t130 41.5h316v-318h-144v182h-133q-72 0 -72 -71v-244h117v-127h-117v-897h-143v897h-205v-897h-143v897h-68zM780 0v1024h144v-1024h-144z" />
<glyph unicode="&#xfb04;" horiz-adv-x="1001" d="M16 897v127h68v276q0 102 46 143.5t130 41.5q56 0 105 -10l-9 -134q-27 9 -57 9q-72 0 -72 -72v-254h205v266q0 102 46 143.5t130 41.5h316v-1475h-144v1339h-133q-72 0 -72 -71v-244h117v-127h-117v-897h-143v897h-205v-897h-143v897h-68z" />
</font>
</defs>
</svg>
