<?xml version="1.0" standalone="no"?>
<!DOCTYPE svg PUBLIC "-//W3C//DTD SVG 1.1//EN" "http://www.w3.org/Graphics/SVG/1.1/DTD/svg11.dtd" >
<svg xmlns="http://www.w3.org/2000/svg">
<metadata></metadata>
<defs>
<font id="typewriter_urwmedium" horiz-adv-x="1132" >
<font-face units-per-em="2048" ascent="1395" descent="-653" />
<missing-glyph horiz-adv-x="548" />
<glyph unicode="&#xfb01;" horiz-adv-x="1298" d="M29 885q0 38 27.5 63t70.5 25h20q22 0 31.5 9.5t9.5 31.5v26q0 180 129 278.5t367 98.5q180 0 294 -61t114 -156q0 -51 -38.5 -79.5t-107.5 -28.5q-65 0 -99 15.5t-54 53.5q-20 39 -50 53.5t-90 14.5q-91 0 -137.5 -50t-46.5 -147v-18q0 -22 9.5 -31.5t31.5 -9.5h512 q62 0 88.5 -26.5t26.5 -88.5v-637q0 -23 9.5 -33t31.5 -10h6q38 0 65 -25.5t27 -62.5q0 -43 -29 -66.5t-82 -23.5h-331q-51 0 -80 23.5t-29 66.5q0 37 25 62t65 26q23 2 32 11t9 32v533q0 22 -9.5 31.5t-31.5 9.5h-305q-22 0 -31.5 -9.5t-9.5 -31.5v-533q0 -23 9.5 -33 t31.5 -10h6q38 0 64 -25.5t26 -62.5q0 -43 -28 -66.5t-80 -23.5h-346q-53 0 -82 23.5t-29 66.5q0 38 27.5 63t68.5 25h10q22 0 31.5 10t9.5 33v533q0 22 -9.5 31.5t-31.5 9.5h-20q-43 0 -70.5 25t-27.5 65z" />
<glyph unicode="&#xfb02;" horiz-adv-x="1296" d="M27 883q0 40 28 65t72 25h20q22 0 31.5 9.5t9.5 31.5v41q0 185 121 273.5t373 88.5q210 0 373 -26q80 -12 80 -115v-1057q0 -22 9.5 -31.5t31.5 -9.5h6q38 0 64 -25.5t26 -62.5q0 -43 -29 -66.5t-80 -23.5h-334q-51 0 -79.5 23.5t-28.5 66.5q0 37 25.5 62t66.5 26 q23 2 32 10.5t9 30.5v977q0 25 -20.5 29t-143.5 4q-107 0 -164 -51.5t-57 -149.5v-14v-2q-3 -39 41 -39h35q50 0 78 -24t28 -66t-28 -66t-78 -24h-35q-22 0 -31.5 -9.5t-9.5 -31.5v-533q0 -22 9 -30.5t32 -10.5q40 -1 65 -26t25 -62q0 -43 -28.5 -66.5t-79.5 -23.5h-342 q-51 0 -80 23.5t-29 66.5q0 38 26.5 63t67.5 25h12q22 0 31.5 9.5t9.5 31.5v533q0 22 -9.5 31.5t-31.5 9.5h-20q-44 0 -72 25t-28 65z" />
<glyph unicode="&#xfb03;" horiz-adv-x="1964" d="M29 885q0 38 27.5 63t70.5 25h20q22 0 31.5 9.5t9.5 31.5v26q0 182 129 277q136 100 334 100q146 0 385 -67q65 36 138.5 51.5t177.5 15.5q178 0 291.5 -61t113.5 -156q0 -51 -38 -79.5t-107 -28.5q-65 0 -99.5 15.5t-54.5 53.5q-20 39 -50 53.5t-89 14.5q-83 0 -133 -47 q-28 -25 -38.5 -57.5t-10.5 -92.5v-18q0 -25 8 -33t31 -8h512q61 0 87.5 -26.5t26.5 -88.5v-637q0 -23 9.5 -33t31.5 -10h6q38 0 65.5 -25.5t27.5 -62.5q0 -43 -29 -66.5t-82 -23.5h-332q-51 0 -79.5 23.5t-28.5 66.5q0 37 25 62t65 26q23 2 32 11t9 32v533q0 22 -9.5 31.5 t-31.5 9.5h-305q-22 0 -31.5 -9.5t-9.5 -31.5v-533q0 -23 9.5 -33t31.5 -10h6q38 0 64 -25.5t26 -62.5q0 -43 -28.5 -66.5t-80.5 -23.5h-346q-52 0 -81 23.5t-29 66.5q0 38 27.5 63t68.5 25h10q22 0 31.5 10t9.5 33v533q0 22 -9 31.5t-32 9.5h-303q-22 0 -31.5 -9.5 t-9.5 -31.5v-533q0 -23 9.5 -33t31.5 -10h4q38 0 65 -25.5t27 -62.5q0 -43 -28.5 -66.5t-79.5 -23.5h-346q-53 0 -82 23.5t-29 66.5q0 38 27.5 63t68.5 25h10q22 0 31.5 10t9.5 33v533q0 22 -9.5 31.5t-31.5 9.5h-20q-43 0 -70.5 25t-27.5 65zM469 1014q0 -22 9.5 -31.5 t31.5 -9.5h303q23 0 32 9.5t9 31.5v26q0 59 16 119q-89 44 -130.5 57t-94.5 13q-78 0 -125 -47q-51 -45 -51 -150v-18z" />
<glyph unicode="&#xfb04;" horiz-adv-x="1964" d="M29 885q0 38 27.5 63t70.5 25h20q22 0 31.5 9.5t9.5 31.5v26q0 182 129 277q136 100 336 100q77 0 155.5 -13.5t213.5 -49.5q64 35 137 49t189 14q207 0 374 -26q80 -12 80 -115v-1055q0 -23 9.5 -33t31.5 -10h6q38 0 64 -25.5t26 -62.5q0 -43 -28 -66.5t-80 -23.5h-334 q-51 0 -79.5 23.5t-28.5 66.5q0 37 25.5 62t66.5 26q23 2 32 11t9 32v975q0 25 -20.5 29t-145.5 4q-219 0 -219 -201v-14v-2q-6 -39 39 -39h34q51 0 80 -23.5t29 -64.5q0 -42 -28.5 -66t-78.5 -24h-34q-23 0 -33 -9.5t-10 -31.5v-533q0 -23 9 -32t32 -11q40 -1 65 -26 t25 -62q0 -43 -29 -66.5t-80 -23.5h-342q-51 0 -79.5 23.5t-28.5 66.5q0 38 27 63t67 25h12q22 0 31.5 10t9.5 33v533q0 22 -9 31.5t-32 9.5h-303q-22 0 -31.5 -9.5t-9.5 -31.5v-533q0 -23 9.5 -33t31.5 -10h4q38 0 65 -25.5t27 -62.5q0 -43 -28.5 -66.5t-79.5 -23.5h-346 q-53 0 -82 23.5t-29 66.5q0 38 27.5 63t68.5 25h10q22 0 31.5 10t9.5 33v533q0 22 -9.5 31.5t-31.5 9.5h-20q-43 0 -70.5 25t-27.5 65zM469 1014q0 -22 9.5 -31.5t31.5 -9.5h303q22 0 31.5 9.5t9.5 31.5v41q0 52 12 106q-84 42 -126.5 55t-94.5 13q-75 0 -125 -47 q-51 -45 -51 -150v-18z" />
<glyph horiz-adv-x="2048" />
<glyph horiz-adv-x="2048" />
<glyph unicode="&#xd;" horiz-adv-x="2048" />
<glyph unicode=" "  horiz-adv-x="548" />
<glyph unicode="&#x09;" horiz-adv-x="548" />
<glyph unicode="&#xa0;" horiz-adv-x="548" />
<glyph unicode="!" horiz-adv-x="567" d="M121 137q0 66 47 113t113 47q69 0 116 -46.5t47 -115.5q0 -67 -46.5 -114.5t-112.5 -47.5q-67 0 -115.5 48.5t-48.5 115.5zM131 1247q-9 119 113 119h82q61 0 88 -28.5t24 -90.5l-41 -723q-3 -63 -32 -97t-80 -34q-104 0 -113 131z" />
<glyph unicode="&#x22;" horiz-adv-x="831" d="M102 1268q-3 44 26.5 71t80.5 27h49q52 0 76.5 -23.5t27.5 -74.5v-25l-26 -293q-9 -116 -103 -116q-93 0 -102 116l-27 293q-2 12 -2 25zM469 1243v25q0 47 26.5 72.5t77.5 25.5h50q51 0 80 -27t26 -71q0 -13 -2 -25l-27 -293q-9 -116 -102 -116q-45 0 -71.5 29.5 t-30.5 86.5z" />
<glyph unicode="#" d="M55 532q0 38 26 59t73 21h135l33 183h-109q-46 0 -72 20.5t-26 58.5t26 59t72 21h137l58 324q15 88 86 88q35 0 58 -23.5t23 -60.5q0 -23 -2 -33l-53 -295h182l58 324q15 88 86 88q35 0 58.5 -23.5t23.5 -58.5q0 -15 -4 -35l-52 -295h109q47 0 72.5 -21t25.5 -59 t-25.5 -58.5t-72.5 -20.5h-137l-31 -183h109q46 0 71 -21t25 -59t-25 -58.5t-71 -20.5h-138l-63 -365q-15 -88 -88 -88q-35 0 -58.5 23.5t-23.5 58.5q0 15 4 35l59 336h-182l-63 -365q-15 -88 -88 -88q-35 0 -58.5 23.5t-23.5 60.5q0 13 4 33l59 336h-108q-47 0 -73 20.5 t-26 58.5zM461 612h180l33 183h-180z" />
<glyph unicode="$" d="M78 991q0 160 103 260t284 115v82q0 56 25 86.5t71 30.5t71 -30.5t25 -86.5v-82q79 -33 127 -92q6 -6 9 -6q12 0 12 12q6 49 36.5 76.5t80.5 27.5q55 0 85.5 -33.5t30.5 -95.5v-170q0 -62 -32.5 -95.5t-92.5 -33.5q-40 0 -60 19t-52 86q-29 60 -97.5 99.5t-140.5 39.5 q-89 0 -146 -47.5t-57 -122.5q0 -64 48 -110t161 -89l199 -75q161 -61 231 -147t70 -220q0 -163 -100.5 -263t-290.5 -126v-88q0 -56 -25 -86.5t-71 -30.5t-71.5 31t-25.5 86v88q-40 9 -84.5 39.5t-66.5 62.5q-4 7 -6 7q-13 0 -13 -11q-4 -49 -35 -77.5t-81 -28.5 q-56 0 -86.5 34t-30.5 97v168q0 68 34 105.5t97 37.5q51 0 76 -28q12 -12 39 -84q29 -68 99 -112t148 -44q89 0 148 50.5t59 125.5q0 131 -188 205l-225 92q-156 63 -223.5 144.5t-67.5 207.5z" />
<glyph unicode="%" horiz-adv-x="1488" d="M55 1032q0 167 65.5 257.5t186.5 90.5q126 0 192 -88.5t66 -257.5q0 -177 -66 -270.5t-190 -93.5q-126 0 -190 91.5t-64 270.5zM203 1018q0 -131 25.5 -189.5t82.5 -58.5q107 0 107 256q0 254 -105 254q-57 0 -83.5 -63.5t-26.5 -198.5zM313 59q0 20 15 50l702 1214 q25 43 64 43q25 0 44 -18t19 -43q0 -19 -16 -48l-703 -1212q-14 -25 -27.5 -35t-33.5 -10q-25 0 -44.5 18t-19.5 41zM924 348q0 167 65 257.5t185 90.5q126 0 192 -88.5t66 -257.5q0 -177 -66 -270.5t-190 -93.5t-188 91.5t-64 270.5zM1071 334q0 -129 25.5 -188.5 t79.5 -59.5q57 0 82.5 61.5t25.5 194.5q0 130 -25 192t-79 62q-56 0 -82.5 -63.5t-26.5 -198.5z" />
<glyph unicode="&#x26;" horiz-adv-x="1531" d="M61 383q0 130 63 215t230 180q-174 140 -174 301q0 160 131 250q103 70 277 70q192 0 292.5 -80.5t100.5 -233.5q0 -223 -262 -352l299 -303q28 43 50.5 102.5t23.5 96.5q0 18 -23 18h-10q-40 0 -66 25t-26 63q0 40 27.5 63t78.5 23h291q52 0 80.5 -23t28.5 -63 q0 -41 -28 -64.5t-77 -23.5h-31q-19 0 -24 -10q-4 -2 -43 -166q-51 -122 -96 -180l90 -94q15 -17 36 -17h80q52 0 81.5 -24t29.5 -66q0 -43 -29 -66.5t-82 -23.5h-215q-40 0 -57 6.5t-41 32.5l-72 76q-106 -83 -201 -114.5t-243 -31.5q-211 0 -332 88q-75 56 -116.5 140.5 t-41.5 185.5zM344 373q0 -98 67 -162t169 -64q81 0 143.5 25.5t130.5 85.5l-336 344q-174 -82 -174 -229zM428 1104q0 -51 23 -86.5t118 -128.5q107 68 139.5 107t32.5 102t-41.5 101t-111.5 38q-71 0 -115.5 -36.5t-44.5 -96.5z" />
<glyph unicode="'" horiz-adv-x="466" d="M102 1268q-3 44 26.5 71t80.5 27h49q52 0 76.5 -23.5t27.5 -74.5v-25l-26 -293q-9 -116 -103 -116q-93 0 -102 116l-27 293q-2 12 -2 25z" />
<glyph unicode="(" horiz-adv-x="653" d="M59 524q0 191 58.5 377.5t193.5 425.5q63 110 89.5 139t64.5 29q35 0 62 -27t26 -61q-2 -21 -10 -39.5t-47 -87.5q-84 -144 -137.5 -356t-53.5 -402q0 -264 82 -512q28 -82 52 -133.5t108 -210.5q16 -29 16 -53q0 -34 -26.5 -59t-61.5 -25q-29 0 -48.5 16.5t-57.5 73.5 q-60 83 -176 326q-134 287 -134 579z" />
<glyph unicode=")" horiz-adv-x="653" d="M92 -387q0 17 9.5 38t66.5 128q180 340 180 743q0 189 -52.5 401.5t-135.5 356.5q-42 72 -51 91.5t-9 37.5q0 35 26.5 60.5t61.5 25.5q37 0 70 -37.5t96 -150.5q126 -228 183 -415t57 -376t-53.5 -362.5t-190.5 -427.5q-62 -116 -97 -156.5t-73 -40.5q-35 0 -61.5 25 t-26.5 59z" />
<glyph unicode="*" d="M240 1102q0 36 25.5 64t58.5 28q30 0 65 -18l78 -37l18 -13l9 -2q1 0 3.5 3.5t2.5 5.5l-4 28l-15 80l-2 31q0 42 25 68t65 26t66.5 -28t23.5 -68l-2 -27l-12 -82q-8 -33 -8 -35q0 -6 8 -6l33 19l72 35q37 16 63 16q34 0 60 -27.5t26 -62.5q0 -76 -96 -94l-80 -15 q-10 -2 -23 -2q-16 0 -16 -4q0 -5 8 -10l21 -19l53 -57q41 -44 41 -78q0 -38 -27.5 -65t-64.5 -27q-56 0 -92 70l-39 75q-6 19 -8 23t-7 4q-4 0 -16 -27l-43 -77q-37 -66 -88 -66q-38 0 -65 27t-27 65t41 76l61 64q23 20 23 22q0 4 -35 8l-86 15q-94 18 -94 94z" />
<glyph unicode="+" d="M84 702q0 38 26.5 60t73.5 22h297v283q0 50 22.5 77t63.5 27q40 0 62 -27.5t22 -76.5v-283h297q47 0 74 -22t27 -60t-27 -59.5t-74 -21.5h-297v-283q0 -50 -22 -77.5t-62 -27.5q-41 0 -63.5 27.5t-22.5 77.5v283h-297q-47 0 -73.5 21.5t-26.5 59.5z" />
<glyph unicode="," horiz-adv-x="501" d="M88 141q0 62 44 104t110 42q77 0 125.5 -61.5t48.5 -159.5q0 -155 -107 -310q-74 -112 -119 -112q-19 0 -32 13t-13 32q0 10 6 20t48 68q35 47 60.5 106t25.5 90q0 25 -12 30t-68 5q-51 0 -84 37.5t-33 95.5z" />
<glyph unicode="-" horiz-adv-x="524" d="M0 508q0 51 33.5 78.5t95.5 27.5h268q60 0 93.5 -27.5t33.5 -76.5q0 -51 -33.5 -79t-93.5 -28h-268q-61 0 -95 27.5t-34 77.5z" />
<glyph unicode="." horiz-adv-x="501" d="M88 137q0 66 47 113t113 47q69 0 116.5 -46.5t47.5 -115.5q0 -67 -47 -114.5t-113 -47.5q-68 0 -116 48.5t-48 115.5z" />
<glyph unicode="/" horiz-adv-x="1161" d="M-68 -262q0 34 25 76l883 1511q41 70 98 70q40 0 70 -29t30 -66q0 -31 -26 -75l-881 -1512q-41 -69 -98 -69q-40 0 -70.5 28.5t-30.5 65.5z" />
<glyph unicode="0" d="M63 698q0 329 121 506q134 191 377 191q146 0 247.5 -58.5t170.5 -183.5q49 -91 70.5 -194.5t21.5 -253.5q0 -189 -32.5 -320t-104.5 -231q-63 -88 -157.5 -134.5t-211.5 -46.5q-248 0 -375 183.5t-127 541.5zM348 668q0 -265 52.5 -383.5t170.5 -118.5q110 0 163.5 127 t53.5 391q0 262 -53 390t-162 128q-116 0 -170.5 -129.5t-54.5 -404.5z" />
<glyph unicode="1" d="M158 1022q0 49 17.5 72.5t94.5 76.5q83 56 140 111q66 63 93 73.5t122 10.5q70 0 94.5 -5t44.5 -22q27 -27 27 -88v-1024q0 -22 9 -31.5t31 -9.5h35q51 0 81 -24.5t30 -67.5q0 -44 -30.5 -69t-84.5 -25h-452q-54 0 -84.5 25t-30.5 69q0 43 30.5 67.5t84.5 24.5h57 q22 0 31.5 9.5t9.5 31.5v793q0 30 -4 41.5t-15 11.5q-12 0 -32 -20q-155 -146 -217 -146q-82 0 -82 115z" />
<glyph unicode="2" d="M63 106v93q0 47 15 69q3 5 7 10t31.5 30t76.5 68.5t151 133.5q100 88 186.5 176.5t133.5 151.5q69 92 69 178q0 85 -49.5 134.5t-132.5 49.5q-71 0 -124.5 -38t-66.5 -99q-11 -44 -16.5 -58.5t-15.5 -23.5q-31 -31 -109 -31q-61 0 -97 27.5t-36 73.5q0 51 31.5 114 t79.5 109q125 119 360 119q220 0 343.5 -100.5t123.5 -280.5q0 -74 -21 -134t-69 -124q-68 -91 -367 -373q-68 -65 -106.5 -97t-126.5 -98h434q22 0 31.5 9.5t9.5 31.5v25q0 58 33 94.5t86 36.5q57 0 88 -38t31 -107v-123q0 -61 -26.5 -88t-88.5 -27h-754q-59 0 -87 25.5 t-28 80.5z" />
<glyph unicode="3" d="M88 1092q0 63 44 125.5t118 105.5q119 70 305 70q224 0 349.5 -99t125.5 -276q0 -130 -69 -211q-33 -37 -71.5 -57t-113.5 -37q-14 -5 -57 -15q100 -17 147.5 -34.5t85.5 -51.5q99 -88 99 -247q0 -198 -148 -304q-124 -88 -344 -88q-135 0 -224.5 29.5t-152.5 95.5 q-40 41 -66 92t-26 86q0 46 37.5 76.5t95.5 30.5q66 0 111 -33q13 -11 33 -57q50 -127 192 -127q91 0 148 58.5t57 152.5q0 57 -22 104.5t-60 73.5q-39 27 -69 34.5t-132 14.5q-43 3 -68.5 28.5t-25.5 65.5q0 25 12.5 47.5t32.5 32.5q18 9 34 11.5t89 5.5q86 4 139.5 63.5 t53.5 149.5q0 88 -53 140t-142 52q-146 0 -186 -115q-14 -42 -33 -59t-51 -29t-60 -12q-56 0 -95.5 31.5t-39.5 75.5z" />
<glyph unicode="4" d="M37 449v96q0 35 4 48t25 44l479 674q26 35 46 45t64 10h158q61 0 88 -27t27 -88v-721h45q54 0 83 -24.5t29 -67.5q0 -45 -29 -69.5t-83 -24.5h-45v-117q0 -26 7.5 -33.5t35.5 -7.5q55 0 84.5 -24t29.5 -68q0 -45 -29 -69.5t-83 -24.5h-404q-54 0 -84 25t-30 69 q0 43 30 67.5t84 24.5h47q26 0 33.5 7.5t7.5 33.5v117h-505q-115 0 -115 105zM240 530h417v605z" />
<glyph unicode="5" horiz-adv-x="964" d="M2 674v43l18 538q3 60 29 85.5t86 25.5h653q54 0 83.5 -24.5t29.5 -67.5q0 -44 -29.5 -69t-83.5 -25h-466q-22 0 -32 -9t-11 -32l-11 -355q0 -8 8 -8q3 0 7 4q85 113 270 113q192 0 303 -118t111 -322q0 -209 -107 -334q-125 -146 -393 -146q-189 0 -311.5 80t-122.5 203 q0 54 33.5 82.5t95.5 28.5q56 0 84 -18t47 -64q23 -56 70 -87.5t108 -31.5q100 0 155.5 73.5t55.5 206.5q0 120 -54 187t-149 67q-51 0 -88 -16.5t-74 -54.5q-47 -51 -84 -67.5t-104 -16.5q-66 0 -96.5 31t-30.5 98z" />
<glyph unicode="6" d="M82 635q0 372 140 565t409 193q159 0 270 -72.5t111 -175.5q0 -105 -123 -105q-52 0 -79.5 16.5t-49.5 59.5q-22 45 -55.5 64.5t-88.5 19.5q-60 0 -111 -32.5t-83 -92.5q-28 -51 -51 -154t-23 -178q0 -7 4 -61q12 47 28 73.5t50 57.5q99 86 229 86q181 0 294.5 -127 t113.5 -330q0 -112 -37.5 -209t-105.5 -159q-120 -107 -326 -107q-114 0 -214 43t-171 123q-131 149 -131 502zM371 442q0 -126 57.5 -201t153.5 -75q98 0 155.5 74.5t57.5 201.5q0 124 -54.5 196.5t-148.5 72.5q-97 0 -159 -76t-62 -193z" />
<glyph unicode="7" d="M68 1096v155q0 62 26.5 88.5t87.5 26.5h686q78 0 119 -14t64 -49q30 -48 30 -105q0 -39 -23 -95.5t-95 -195.5q-128 -247 -246 -559q-97 -259 -126 -303.5t-99 -44.5h-78q-40 0 -68.5 25.5t-28.5 62.5q0 48 57 190t158 345l273 557h-453q-22 0 -31.5 -9.5t-9.5 -31.5v-47 q0 -68 -32 -107t-89 -39q-58 0 -90 39.5t-32 110.5z" />
<glyph unicode="8" d="M72 367q0 146 81.5 235t233.5 111q-152 28 -223.5 103.5t-71.5 207.5q0 173 125 271t346 98q225 0 351 -98t126 -273q0 -132 -75.5 -212t-216.5 -97q151 -20 232 -109.5t81 -236.5q0 -190 -128.5 -292t-367.5 -102q-237 0 -365 102.5t-128 291.5zM346 397 q0 -109 58.5 -170t162.5 -61t162.5 61t58.5 170t-59.5 170.5t-163.5 61.5q-101 0 -160 -62.5t-59 -169.5zM360 1008q0 -97 55 -152t150 -55t151 54.5t56 148.5q0 92 -56 144t-155 52q-91 0 -146 -53t-55 -139z" />
<glyph unicode="9" d="M66 934q0 109 38 204.5t105 155.5q117 105 328 105q114 0 214 -43t171 -123q131 -149 131 -502q0 -372 -140 -565t-409 -193q-161 0 -272 74.5t-111 181.5q0 53 35 85t92 32q50 0 90 -29q12 -8 18 -17.5t15 -35.5q15 -46 53 -72t90 -26q68 0 125 43.5t86 116.5 q57 140 57 376q-13 -46 -29.5 -72t-50.5 -57q-95 -86 -227 -86q-181 0 -295 124.5t-114 322.5zM336 936q0 -120 55 -190t150 -70q98 0 160.5 73t62.5 187q0 121 -58 193.5t-155 72.5q-100 0 -157.5 -71.5t-57.5 -194.5z" />
<glyph unicode=":" horiz-adv-x="501" d="M88 137q0 66 47 113t113 47q69 0 116.5 -46.5t47.5 -115.5q0 -67 -47 -114.5t-113 -47.5q-68 0 -116 48.5t-48 115.5zM88 834q0 66 47 112.5t113 46.5q69 0 116.5 -46.5t47.5 -115.5q0 -67 -47 -114t-113 -47q-68 0 -116 48t-48 116z" />
<glyph unicode=";" horiz-adv-x="501" d="M88 141q0 62 44 104t110 42q77 0 125.5 -61.5t48.5 -159.5q0 -155 -107 -310q-74 -112 -119 -112q-19 0 -32 13t-13 32q0 10 6 20t48 68q35 47 60.5 106t25.5 90q0 25 -12 30t-68 5q-51 0 -84 37.5t-33 95.5zM88 834q0 66 47 112.5t113 46.5q69 0 116.5 -46.5 t47.5 -115.5q0 -67 -47 -114t-113 -47q-68 0 -116 48t-48 116z" />
<glyph unicode="&#x3c;" horiz-adv-x="1024" d="M68 555v256l886 465v-303l-563 -291l563 -289v-305z" />
<glyph unicode="=" d="M84 532q0 38 25.5 59t72.5 21h770q46 0 72.5 -21t26.5 -59t-26.5 -58.5t-72.5 -20.5h-770q-47 0 -72.5 20.5t-25.5 58.5zM84 874q0 38 25.5 59t72.5 21h770q46 0 72.5 -21t26.5 -59t-26.5 -58.5t-72.5 -20.5h-770q-47 0 -72.5 20.5t-25.5 58.5z" />
<glyph unicode="&#x3e;" horiz-adv-x="1024" d="M70 88v305l563 289l-563 291v303l886 -465v-256z" />
<glyph unicode="?" horiz-adv-x="1046" d="M104 1106q0 74 64 147q63 73 148.5 106.5t209.5 33.5q211 0 332 -100t121 -275q0 -190 -178 -340l-76 -64q-96 -81 -102 -159q-13 -80 -109 -80h-53q-107 0 -107 106q0 76 29 129t109 127l79 72q67 62 92 109t25 112q0 85 -43 130.5t-123 45.5q-129 0 -164 -119 q-26 -92 -129 -92q-57 0 -91 30t-34 81zM315 137q0 66 47 113t113 47q69 0 116.5 -46.5t47.5 -115.5q0 -67 -47 -114.5t-113 -47.5q-67 0 -115.5 48.5t-48.5 115.5z" />
<glyph unicode="@" horiz-adv-x="1585" d="M78 606q0 212 111.5 394t302 288.5t413.5 106.5q176 0 316.5 -66t219.5 -183.5t79 -264.5q0 -140 -64 -259t-173.5 -188t-238.5 -69h-124q-56 0 -56 45v8l4 18v4q0 6 -6 6q-4 0 -6 -2q-44 -52 -96.5 -75t-126.5 -23q-115 0 -175.5 61.5t-60.5 178.5q0 192 100 313 t257 121q93 0 149 -43q13 -8 20.5 -18.5t26.5 -43.5q3 -6 6 -6q9 0 9 9l4 24q12 59 86 59h104q32 0 50 -14.5t18 -40.5q0 -23 -16.5 -39t-41.5 -16h-6q-19 0 -28 -7.5t-13 -27.5l-59 -348q-2 -4 -2 -10q0 -23 29 -23q74 0 141.5 55.5t109 147t41.5 190.5q0 175 -133.5 286.5 t-343.5 111.5q-139 0 -266 -53t-219.5 -142.5t-147.5 -212.5t-55 -256q0 -230 147.5 -369t391.5 -139q114 0 233.5 24t204.5 64q23 13 39 13q28 0 46.5 -19t18.5 -47q0 -41 -38 -59q-91 -46 -236.5 -75.5t-284.5 -29.5q-290 0 -475.5 180t-185.5 461zM584 602 q0 -66 33 -102.5t94 -36.5q115 0 168 100q20 36 32.5 92.5t12.5 106.5q0 68 -34 104.5t-97 36.5q-111 0 -166 -110q-43 -84 -43 -191z" />
<glyph unicode="A" horiz-adv-x="1583" d="M12 94q0 38 27 64t67 28q19 0 27 6t14 23l445 1073q20 47 43 62.5t74 15.5h174q51 0 73 -15.5t41 -62.5l441 -1073q8 -17 16 -23t27 -6q40 -2 67 -28t27 -64q0 -44 -30.5 -69t-84.5 -25h-381q-54 0 -83 24.5t-29 69.5q0 40 28.5 66t73.5 26h18q19 0 30 9t11 24q0 5 -4 21 l-57 149q-8 17 -16 23t-27 6h-500q-19 0 -27 -6t-14 -23l-59 -149q-4 -16 -4 -23q0 -14 11 -22.5t30 -8.5h20q44 0 73.5 -26t29.5 -66q0 -44 -30.5 -69t-84.5 -25h-342q-54 0 -84.5 25t-30.5 69zM582 631q0 -14 11 -22.5t30 -8.5h303q19 0 30 9t11 24q0 4 -4 20l-187 484 l-190 -484q-4 -16 -4 -22z" />
<glyph unicode="B" horiz-adv-x="1384" d="M63 94q0 41 29 66.5t76 25.5h27q22 0 31.5 9.5t9.5 31.5v912q0 22 -9.5 31.5t-31.5 9.5h-27q-47 0 -76 25.5t-29 68.5t29.5 67.5t83.5 24.5h664q116 0 192 -21.5t133 -70.5q105 -91 105 -250q0 -177 -131 -264q-37 -24 -72 -34.5t-94 -16.5q163 -13 246.5 -98t83.5 -236 q0 -168 -113 -269q-63 -57 -148.5 -81.5t-216.5 -24.5h-649q-54 0 -83.5 25t-29.5 69zM524 227q0 -22 9.5 -31.5t31.5 -9.5h168q71 0 113.5 9t75.5 32q88 57 88 172q0 207 -267 207h-178q-22 0 -31.5 -9.5t-9.5 -31.5v-338zM524 834q0 -22 9.5 -31.5t31.5 -9.5h146 q270 0 270 200q0 91 -59 140q-34 28 -75.5 37.5t-133.5 9.5h-148q-22 0 -31.5 -9.5t-9.5 -31.5v-305z" />
<glyph unicode="C" horiz-adv-x="1447" d="M68 694q0 328 171 514.5t472 186.5q132 0 220.5 -35.5t170.5 -120.5q6 -6 12 -6q11 0 14 18q5 53 36.5 84t80.5 31q56 0 86.5 -37t30.5 -104v-240q0 -61 -35 -96t-96 -35q-60 0 -93.5 30.5t-56.5 108.5q-17 57 -37 87.5t-57 58.5q-88 63 -219 63q-193 0 -296 -135.5 t-103 -390.5q0 -245 102.5 -377.5t292.5 -132.5q125 0 201 59q31 25 44 43.5t44 79.5q36 70 70.5 96.5t90.5 26.5q60 0 98 -35t38 -92q0 -82 -86 -174q-95 -102 -215 -149.5t-281 -47.5q-333 0 -516.5 189t-183.5 532z" />
<glyph unicode="D" horiz-adv-x="1544" d="M63 94q0 41 30 66.5t77 25.5h27q22 0 31.5 9.5t9.5 31.5v912q0 22 -9.5 31.5t-31.5 9.5h-27q-48 0 -77.5 26t-29.5 68q0 43 30.5 67.5t84.5 24.5h582q346 0 531.5 -178t185.5 -508q0 -170 -55.5 -305t-159.5 -221q-100 -82 -228 -118t-321 -36h-535q-54 0 -84.5 25 t-30.5 69zM526 227q0 -22 9.5 -31.5t31.5 -9.5h95q145 0 232 27.5t150 93.5q130 133 130 381t-136 381q-60 59 -140 85t-198 26h-133q-22 0 -31.5 -9.5t-9.5 -31.5v-912z" />
<glyph unicode="E" horiz-adv-x="1409" d="M61 94q0 41 30 66.5t77 25.5h27q22 0 31.5 9.5t9.5 31.5v912q0 22 -9.5 31.5t-31.5 9.5h-27q-48 0 -77.5 26t-29.5 68q0 43 30.5 67.5t84.5 24.5h1014q62 0 88.5 -27t26.5 -88v-159q0 -68 -31 -106t-86 -38t-86 38t-31 104v49q0 22 -9.5 31.5t-31.5 9.5h-465 q-22 0 -31.5 -9.5t-9.5 -31.5v-310q0 -23 9.5 -33t31.5 -10h142q22 0 31.5 10t9.5 33v15q0 46 27.5 75t70.5 29q46 0 72 -31.5t26 -89.5v-272q0 -57 -26 -88t-72 -31q-43 0 -70.5 29.5t-27.5 75.5v16q0 22 -9.5 31.5t-31.5 9.5h-142q-22 0 -31.5 -9.5t-9.5 -31.5v-330 q0 -22 9.5 -31.5t31.5 -9.5h465q22 0 31.5 9.5t9.5 31.5v66q0 68 31 105.5t86 37.5t86 -37.5t31 -105.5v-178q0 -61 -26.5 -88t-88.5 -27h-1014q-54 0 -84.5 25t-30.5 69z" />
<glyph unicode="F" horiz-adv-x="1337" d="M61 94q0 41 30 66.5t77 25.5h27q22 0 31.5 9.5t9.5 31.5v912q0 22 -9.5 31.5t-31.5 9.5h-27q-49 0 -78 25.5t-29 68.5t30.5 67.5t84.5 24.5h989q61 0 88 -27t27 -88v-182q0 -67 -30.5 -104t-86.5 -37q-55 0 -85.5 37.5t-30.5 103.5v70q0 22 -9.5 31.5t-31.5 9.5h-441 q-22 0 -31.5 -9.5t-9.5 -31.5v-338q0 -22 9.5 -31.5t31.5 -9.5h133q22 0 31.5 9.5t9.5 31.5v18q0 47 28 78t71 31q46 0 72 -32t26 -89v-289q0 -57 -26 -88t-72 -31q-44 0 -71.5 30t-27.5 79v22q0 22 -9.5 31.5t-31.5 9.5h-133q-22 0 -31.5 -9.5t-9.5 -31.5v-303 q0 -22 9.5 -31.5t31.5 -9.5h60q55 0 84.5 -24.5t29.5 -67.5q0 -45 -29.5 -69.5t-84.5 -24.5h-449q-55 0 -85 24.5t-30 69.5z" />
<glyph unicode="G" horiz-adv-x="1576" d="M68 690q0 332 171 517.5t480 185.5q135 0 228.5 -38.5t160.5 -123.5q6 -6 8 -6q10 0 10 12v8q0 52 33.5 86.5t83.5 34.5q55 0 86 -37.5t31 -105.5v-199q0 -68 -31 -105.5t-86 -37.5q-52 0 -86 34q-18 20 -31 74q-17 58 -52 95.5t-103 70.5q-94 49 -199 49 q-96 0 -180.5 -46t-140.5 -128q-84 -122 -84 -340q0 -250 106 -383q112 -145 279 -145q81 0 155 24t117 64q41 40 71.5 107.5t30.5 121.5q0 31 -39 31h-34q-53 0 -83 25t-30 69t30.5 69t84.5 25h370q54 0 83.5 -25t29.5 -69q0 -40 -27.5 -67t-68.5 -27h-10q-22 0 -31.5 -9.5 t-9.5 -31.5v-319q0 -71 -32.5 -110.5t-90.5 -39.5q-52 0 -87.5 36.5t-35.5 90.5v10q0 13 -12 13q-3 0 -7 -7q-70 -88 -168 -129t-233 -41q-304 0 -480.5 192.5t-176.5 524.5z" />
<glyph unicode="H" horiz-adv-x="1646" d="M66 94q0 41 29.5 66.5t76.5 25.5h25q22 0 31.5 9.5t9.5 31.5v912q0 22 -9.5 31.5t-31.5 9.5h-25q-47 0 -76.5 25.5t-29.5 68.5t30 67.5t84 24.5h414q54 0 84.5 -24.5t30.5 -67.5t-29.5 -68.5t-79.5 -25.5h-33q-22 0 -31.5 -9.5t-9.5 -31.5v-314q0 -22 9.5 -31.5 t31.5 -9.5h514q22 0 31.5 9.5t9.5 31.5v314q0 22 -9.5 31.5t-31.5 9.5h-30q-51 0 -81 25.5t-30 68.5t30.5 67.5t84.5 24.5h413q55 0 85 -24.5t30 -67.5t-28.5 -68.5t-77.5 -25.5h-25q-22 0 -31.5 -9.5t-9.5 -31.5v-912q0 -22 9.5 -31.5t31.5 -9.5h25q49 0 77.5 -25t28.5 -67 q0 -45 -30 -69.5t-85 -24.5h-413q-54 0 -84.5 25t-30.5 69q0 41 30 66.5t81 25.5h30q22 0 31.5 9.5t9.5 31.5v330q0 22 -9.5 31.5t-31.5 9.5h-514q-22 0 -31.5 -9.5t-9.5 -31.5v-330q0 -22 9.5 -31.5t31.5 -9.5h31q51 0 81 -25.5t30 -66.5q0 -44 -30.5 -69t-84.5 -25h-414 q-54 0 -84 25t-30 69z" />
<glyph unicode="I" horiz-adv-x="788" d="M70 94q0 42 29 67t79 25h31q22 0 31.5 9.5t9.5 31.5v912q0 22 -9.5 31.5t-31.5 9.5h-31q-51 0 -79.5 25.5t-28.5 68.5t29 67.5t83 24.5h424q55 0 85 -24.5t30 -67.5q0 -44 -29 -69t-80 -25h-32q-22 0 -31.5 -9.5t-9.5 -31.5v-912q0 -22 9.5 -31.5t31.5 -9.5h32 q51 0 80 -24.5t29 -67.5q0 -45 -30 -69.5t-85 -24.5h-424q-54 0 -83 24.5t-29 69.5z" />
<glyph unicode="J" horiz-adv-x="1126" d="M47 330q0 66 34 92.5t116 26.5q81 0 107.5 -25t31.5 -105q3 -72 44 -112.5t109 -40.5q83 0 115.5 55t32.5 197v721q0 22 -9.5 31.5t-31.5 9.5h-47q-54 0 -84.5 24.5t-30.5 67.5q0 44 30.5 69t84.5 25h399q55 0 85 -24.5t30 -69.5q0 -39 -27 -65t-69 -27q-23 -2 -32 -10.5 t-9 -30.5v-690q0 -141 -22 -219t-79 -136q-118 -121 -348 -121q-267 0 -368 158q-62 100 -62 199z" />
<glyph unicode="K" horiz-adv-x="1484" d="M63 94q0 41 30 66.5t77 25.5h25q22 0 31.5 9.5t9.5 31.5v912q0 22 -9.5 31.5t-31.5 9.5h-25q-48 0 -77.5 26t-29.5 68q0 43 30.5 67.5t84.5 24.5h400q54 0 84 -24.5t30 -67.5t-28.5 -68.5t-75.5 -25.5h-23q-22 0 -31.5 -9.5t-9.5 -31.5v-404l389 391q13 13 13 25 q0 23 -29 29q-92 15 -92 92q0 44 29.5 69t83.5 25h380q54 0 83.5 -25t29.5 -69q0 -38 -27 -65t-65 -27q-14 0 -19.5 -2.5t-17.5 -12.5l-424 -401q-16 -16 -16 -31q0 -11 14 -28l457 -502q17 -17 39 -17q38 0 65 -27t27 -65q0 -44 -29.5 -69t-83.5 -25h-401q-54 0 -84.5 25 t-30.5 69q0 77 94 92q35 6 35 35q0 11 -14 29l-406 459v-482q0 -22 9.5 -31.5t31.5 -9.5h23q46 0 75 -25.5t29 -66.5q0 -45 -29.5 -69.5t-84.5 -24.5h-400q-54 0 -84.5 25t-30.5 69z" />
<glyph unicode="L" horiz-adv-x="1271" d="M63 94q0 41 30 66.5t77 25.5h27q22 0 31.5 9.5t9.5 31.5v912q0 22 -9.5 31.5t-31.5 9.5h-27q-48 0 -77.5 26t-29.5 68q0 43 30.5 67.5t84.5 24.5h457q54 0 83.5 -24.5t29.5 -67.5q0 -44 -29.5 -69t-83.5 -25h-68q-22 0 -31.5 -9.5t-9.5 -31.5v-912q0 -22 9.5 -31.5 t31.5 -9.5h375q22 0 31.5 9.5t9.5 31.5v121q0 68 31 106t86 38q56 0 86.5 -37.5t30.5 -106.5v-233q0 -61 -26.5 -88t-88.5 -27h-924q-54 0 -84.5 25t-30.5 69z" />
<glyph unicode="M" horiz-adv-x="2009" d="M68 94q0 41 28.5 66.5t75.5 25.5h23q22 0 31.5 9.5t9.5 31.5v912q0 22 -9.5 31.5t-31.5 9.5h-23q-47 0 -75.5 25.5t-28.5 68.5t29 67.5t83 24.5h418q54 0 78 -17t39 -67l194 -616q44 -135 97 -387q24 121 47 198q11 50 59 201l186 602q15 51 39.5 68.5t77.5 17.5h416 q54 0 84.5 -24.5t30.5 -67.5q0 -42 -29.5 -68t-77.5 -26h-24q-22 0 -31.5 -9.5t-9.5 -31.5v-912q0 -22 9.5 -31.5t31.5 -9.5h24q47 0 77 -25.5t30 -66.5q0 -44 -30.5 -69t-84.5 -25h-373q-54 0 -84.5 25t-30.5 69q0 40 29.5 66t73.5 26h18q28 0 34.5 12t6.5 64v918 l-364 -1096q-17 -50 -41 -67t-76 -17h-80q-52 0 -76 17t-41 67l-358 1096v-889q0 -70 6.5 -87.5t34.5 -17.5h18q46 0 75.5 -26t29.5 -66q0 -44 -30.5 -69t-84.5 -25h-338q-54 0 -83 24.5t-29 69.5z" />
<glyph unicode="N" horiz-adv-x="1634" d="M63 94q0 41 29.5 66.5t75.5 25.5h27q22 0 31.5 9.5t9.5 31.5v912q0 22 -9.5 31.5t-31.5 9.5h-27q-47 0 -76 25.5t-29 68.5t30 67.5t83 24.5h379q47 0 68.5 -12.5t44.5 -53.5l407 -737q42 -77 68 -142t59 -175q-20 195 -20 311v547q0 52 -6.5 64t-34.5 12h-29 q-49 0 -78.5 25.5t-29.5 68.5t30 67.5t84 24.5h355q55 0 84.5 -24.5t29.5 -67.5q0 -41 -28 -67.5t-74 -26.5h-19q-22 0 -31.5 -9.5t-9.5 -31.5v-1024q0 -62 -26.5 -88.5t-87.5 -26.5h-174q-47 0 -68.5 12.5t-44.5 53.5l-436 790q-49 89 -74 145.5t-59 157.5q24 -229 24 -323 v-576q0 -51 6.5 -62.5t34.5 -11.5h29q49 0 77.5 -25t28.5 -67q0 -45 -29.5 -69.5t-84.5 -24.5h-363q-55 0 -85 24.5t-30 69.5z" />
<glyph unicode="O" horiz-adv-x="1568" d="M68 694q0 324 191 512.5t519 188.5q362 0 559 -221q162 -180 162 -480q0 -337 -190 -529t-523 -192q-350 0 -548 213q-88 95 -129 218t-41 290zM369 680q0 -248 107 -381t306 -133q92 0 171.5 34t131.5 97q111 131 111 385q0 217 -74 344q-49 82 -140.5 129t-199.5 47 q-109 0 -200 -47.5t-140 -130.5q-73 -127 -73 -344z" />
<glyph unicode="P" horiz-adv-x="1329" d="M59 94q0 41 30 66.5t77 25.5h29q22 0 31.5 9.5t9.5 31.5v912q0 22 -9.5 31.5t-31.5 9.5h-29q-48 0 -77.5 26t-29.5 68q0 43 30.5 67.5t84.5 24.5h639q216 0 339.5 -112.5t123.5 -309.5q0 -110 -42.5 -200.5t-117.5 -143.5q-61 -43 -138 -60.5t-200 -17.5h-213 q-22 0 -31.5 -9.5t-9.5 -31.5v-254q0 -22 9.5 -31.5t31.5 -9.5h64q54 0 83 -24.5t29 -67.5q0 -45 -29 -69.5t-83 -24.5h-455q-54 0 -84.5 25t-30.5 69zM524 750q0 -22 9.5 -31.5t31.5 -9.5h133q78 0 122.5 11t76.5 38q78 65 78 186q0 236 -277 236h-133q-22 0 -31.5 -9.5 t-9.5 -31.5v-389z" />
<glyph unicode="Q" horiz-adv-x="1558" d="M68 684q0 326 191.5 517.5t516.5 191.5q331 0 516 -185q88 -88 137.5 -218.5t49.5 -274.5q0 -194 -95 -367q-22 -41 -49.5 -71.5t-85.5 -75.5q-14 -10 -14 -17q0 -8 8 -8h6q36 10 207 10h10q43 0 71 -26t28 -66q0 -44 -30.5 -69t-84.5 -25h-86q-238 0 -379 -12 q-163 -15 -246 -15q-302 0 -486.5 195.5t-184.5 515.5zM371 682q0 -246 104.5 -381t296.5 -135q187 0 281 129q59 82 91 184.5t32 208.5q0 186 -70 320q-101 192 -330 192q-190 0 -297.5 -137.5t-107.5 -380.5z" />
<glyph unicode="R" horiz-adv-x="1441" d="M57 94q0 41 30 66.5t79 25.5h29q22 0 31.5 9.5t9.5 31.5v912q0 22 -9.5 31.5t-31.5 9.5h-29q-50 0 -79.5 25.5t-29.5 68.5t30.5 67.5t84.5 24.5h633q145 0 237.5 -30.5t149.5 -96.5q80 -96 80 -231q0 -82 -30.5 -155.5t-82.5 -117.5q-37 -31 -85.5 -48t-141.5 -32 q119 -12 169.5 -51t84.5 -145l80 -242q6 -19 14.5 -25t28.5 -6h8q43 0 70.5 -26t27.5 -66q0 -45 -30 -69.5t-85 -24.5h-176q-52 0 -75.5 17t-40.5 67l-111 338q-26 82 -71.5 114.5t-131.5 32.5h-129q-22 0 -31.5 -9.5t-9.5 -31.5v-301q0 -22 9.5 -31.5t31.5 -9.5h25 q47 0 75.5 -25.5t28.5 -66.5q0 -45 -29 -69.5t-83 -24.5h-410q-54 0 -84.5 25t-30.5 69zM524 797q0 -22 9.5 -31.5t31.5 -9.5h129q137 0 214 58t77 161q0 205 -246 205h-174q-22 0 -31.5 -9.5t-9.5 -31.5v-342z" />
<glyph unicode="S" horiz-adv-x="1239" d="M80 997q0 186 124 292t343 106q118 0 190 -28.5t135 -100.5q4 -4 7 -4q7 0 10 10q6 44 37 69t80 25q56 0 86 -31.5t30 -89.5v-178q0 -68 -30.5 -105.5t-85.5 -37.5q-31 0 -59.5 15.5t-41.5 41.5q-2 4 -45 92q-63 129 -246 129q-109 0 -170 -45t-61 -127q0 -63 42 -100.5 t157 -77.5l241 -82q115 -40 180.5 -80t100.5 -92q61 -85 61 -219q0 -192 -126.5 -299t-352.5 -107q-128 0 -206.5 32t-137.5 108q-4 4 -8 4q-8 0 -8 -11q-4 -49 -35.5 -77.5t-81.5 -28.5q-55 0 -86 35t-31 98v191q0 69 33.5 107t93.5 38q44 0 69.5 -21t45.5 -75 q28 -72 76 -129q63 -78 202 -78q119 0 184.5 48t65.5 136q0 71 -40.5 110.5t-157.5 80.5l-248 88q-189 68 -262.5 148.5t-73.5 219.5z" />
<glyph unicode="T" horiz-adv-x="1406" d="M55 1038v213q0 61 26.5 88t88.5 27h1069q61 0 88 -27t27 -88v-213q0 -68 -31 -105.5t-86 -37.5t-86 37.5t-31 105.5v101q0 22 -9.5 31.5t-31.5 9.5h-190q-22 0 -31.5 -9.5t-9.5 -31.5v-912q0 -22 9.5 -31.5t31.5 -9.5h45q54 0 84.5 -24.5t30.5 -67.5q0 -44 -30.5 -69 t-84.5 -25h-461q-54 0 -83.5 25t-29.5 69q0 43 29.5 67.5t83.5 24.5h45q22 0 31.5 9.5t9.5 31.5v912q0 22 -9.5 31.5t-31.5 9.5h-188q-22 0 -31.5 -9.5t-9.5 -31.5v-101q0 -68 -31 -105.5t-86 -37.5t-86 37.5t-31 105.5z" />
<glyph unicode="U" horiz-adv-x="1552" d="M53 1274q0 43 29.5 67.5t83.5 24.5h395q54 0 84.5 -24.5t30.5 -67.5q0 -44 -30 -69t-81 -25h-35q-22 0 -31.5 -9.5t-9.5 -31.5v-662q0 -77 14 -124t48 -87q83 -100 240 -100q154 0 231 102q40 47 57 107.5t17 150.5v613q0 22 -9.5 31.5t-31.5 9.5h-33q-50 0 -79.5 25.5 t-29.5 68.5t30.5 67.5t84.5 24.5h358q54 0 84.5 -24.5t30.5 -67.5q0 -41 -28 -67.5t-70 -26.5h-12q-22 0 -31.5 -9.5t-9.5 -31.5v-629q0 -255 -152.5 -396t-429.5 -141q-274 0 -424 144q-67 64 -105 158t-38 196v668q0 22 -9.5 31.5t-31.5 9.5h-10q-41 0 -69 27t-28 67z" />
<glyph unicode="V" horiz-adv-x="1531" d="M4 1272q0 44 30.5 69t84.5 25h393q54 0 83.5 -24.5t29.5 -67.5t-29 -68.5t-78 -25.5h-26q-19 0 -30 -8.5t-11 -22.5q0 -7 4 -23l256 -667q32 -88 69 -219q42 136 74 219l256 667q4 16 4 23q0 14 -11 22.5t-30 8.5h-26q-48 0 -77.5 26t-29.5 68q0 43 30.5 67.5t84.5 24.5 h358q54 0 84.5 -25t30.5 -69q0 -38 -27 -64t-67 -28q-19 0 -27 -6t-16 -23l-435 -1073q-19 -47 -41 -62.5t-73 -15.5h-156q-51 0 -73.5 15.5t-41.5 62.5l-432 1073q-6 17 -14 23t-27 6q-40 2 -67 28t-27 64z" />
<glyph unicode="W" horiz-adv-x="2054" d="M16 1274q0 43 23 67.5t63 24.5h367q54 0 84.5 -24.5t30.5 -67.5q0 -42 -29.5 -68t-77.5 -26h-22q-41 0 -41 -33q0 -13 2 -17l135 -604q8 -36 17.5 -78.5t14.5 -65.5t7 -34q4 -31 14 -106q9 86 17 126t45 185l188 723q14 53 38 71.5t79 18.5h155q54 0 78.5 -19t36.5 -71 l180 -692q49 -199 66 -342q11 88 20 137.5t35 157.5l139 593q1 3 2 7t2 6.5t1 3.5q1 15 -11 24t-33 9h-26q-48 0 -77.5 26t-29.5 68q0 43 30.5 67.5t84.5 24.5h328q40 0 63 -24.5t23 -67.5q0 -40 -21 -66t-53 -28q-17 0 -23.5 -6.5t-11.5 -26.5l-264 -1057q-13 -52 -38 -71 t-79 -19h-164q-54 0 -78.5 19t-37.5 71l-168 643q-49 187 -74 424q-24 -254 -80 -467l-162 -600q-14 -53 -37 -71.5t-77 -18.5h-172q-54 0 -79 19t-38 73l-256 1055q-5 20 -11.5 26.5t-23.5 6.5q-32 2 -53 28t-21 66z" />
<glyph unicode="X" horiz-adv-x="1542" d="M27 94q0 38 27 65t67 27q17 0 23.5 3.5t17.5 15.5l424 502l-381 454q-11 12 -18 15.5t-25 3.5q-42 0 -70.5 26.5t-28.5 65.5q0 44 30.5 69t84.5 25h408q55 0 84.5 -24.5t29.5 -69.5q0 -38 -27 -65t-67 -27h-4q-17 0 -28 -9.5t-11 -23.5q0 -17 12 -29l218 -270l215 270 q14 18 14 29q0 30 -39 33q-46 5 -71 28.5t-25 63.5q0 45 29 69.5t83 24.5h369q54 0 83.5 -25t29.5 -69q0 -40 -28.5 -66t-72.5 -26q-17 0 -23.5 -3.5t-17.5 -15.5l-385 -454l428 -502q14 -19 39 -19q40 0 67.5 -27t27.5 -65q0 -44 -30.5 -69t-84.5 -25h-424q-54 0 -84.5 25 t-30.5 69q0 40 29 66t72 26h14q43 0 43 33q0 15 -14 29l-261 313l-251 -313q-13 -16 -13 -29q0 -15 11 -24t30 -9h15q44 0 72 -26t28 -66q0 -44 -29.5 -69t-83.5 -25h-383q-54 0 -84 25t-30 69z" />
<glyph unicode="Y" horiz-adv-x="1423" d="M16 1274q0 43 25.5 67.5t69.5 24.5h399q54 0 84.5 -25t30.5 -69q0 -39 -28.5 -65.5t-70.5 -26.5h-10q-19 0 -30 -9t-11 -24q0 -14 10 -27l246 -375l248 375q10 17 10 27q0 30 -43 33t-68.5 28.5t-25.5 63.5q0 44 29.5 69t83.5 25h346q44 0 69 -25t25 -69q0 -38 -23 -65 t-57 -27q-13 0 -18.5 -3.5t-14.5 -17.5l-430 -622q-10 -14 -10 -33v-277q0 -22 9.5 -31.5t31.5 -9.5h55q55 0 85 -24.5t30 -67.5q0 -45 -30 -69.5t-85 -24.5h-477q-54 0 -84.5 25t-30.5 69q0 43 30.5 67.5t84.5 24.5h51q22 0 31.5 9.5t9.5 31.5v277q0 19 -10 33l-424 620 q-9 15 -14.5 19t-18.5 4q-34 0 -57 27t-23 67z" />
<glyph unicode="Z" horiz-adv-x="1345" d="M80 172q0 34 14.5 63.5t52.5 75.5l766 869h-540q-22 0 -31.5 -9.5t-9.5 -31.5v-72q0 -66 -31 -103.5t-86 -37.5q-56 0 -86.5 37t-30.5 104v184q0 61 27 88t88 27h840q58 0 89.5 -9.5t57.5 -35.5q49 -46 49 -117q0 -34 -14 -62.5t-49 -68.5l-778 -887h587q22 0 31.5 9.5 t9.5 31.5v82q0 68 31 106t86 38t86 -38t31 -106v-194q0 -61 -27 -88t-88 -27h-866q-61 0 -94.5 10t-61.5 37q-53 50 -53 125z" />
<glyph unicode="[" horiz-adv-x="653" d="M137 -242v1522q0 62 26.5 88.5t88.5 26.5h184q49 0 76 -22t27 -62q0 -38 -26.5 -61t-70.5 -23h-24q-22 0 -31.5 -9.5t-9.5 -31.5v-1336q0 -22 9.5 -31t31.5 -9h26q43 0 69 -22.5t26 -59.5q0 -40 -27 -62t-74 -22h-186q-62 0 -88.5 26.5t-26.5 87.5z" />
<glyph unicode="\" horiz-adv-x="1161" d="M123 1300q0 37 30 66t70 29q58 0 99 -70l880 -1511q27 -46 27 -76q0 -37 -30.5 -65.5t-70.5 -28.5q-57 0 -98 69l-883 1512q-24 41 -24 75z" />
<glyph unicode="]" horiz-adv-x="653" d="M115 -274q0 38 25.5 61t68.5 23h27q22 0 31 9t9 31v1336q0 22 -9 31.5t-31 9.5h-25q-44 0 -70 23t-26 61q0 40 26.5 62t75.5 22h184q61 0 88 -26.5t27 -88.5v-1522q0 -61 -26.5 -87.5t-88.5 -26.5h-186q-47 0 -73.5 22t-26.5 60z" />
<glyph unicode="^" horiz-adv-x="1024" d="M31 719l311 653h340l309 -653h-270l-209 448l-211 -448h-270z" />
<glyph unicode="_" horiz-adv-x="1024" d="M0 -385h1024v-127h-1024v127z" />
<glyph unicode="`" horiz-adv-x="1024" d="M266 1348q0 47 41 75l25 21q33 26 63 26q29 0 48.5 -13t41.5 -46l117 -176q25 -36 25 -68q0 -31 -26 -55.5t-60 -24.5q-33 0 -68 35l-160 142q-27 24 -37 42t-10 42z" />
<glyph unicode="a" horiz-adv-x="1189" d="M72 281q0 91 46.5 161.5t133.5 110.5q49 23 138.5 37t187.5 14l161 -4q12 0 21.5 9.5t9.5 21.5v6q0 99 -45.5 141.5t-151.5 42.5q-72 0 -111.5 -18.5t-64.5 -63.5q-20 -39 -46.5 -53t-80.5 -14q-61 0 -98 27t-37 71q0 38 32 81.5t87 80.5q112 76 313 76q239 0 350 -92.5 t111 -290.5v-404q0 -23 9.5 -33t31.5 -10h8q40 0 67 -25t27 -63q0 -43 -28.5 -66.5t-79.5 -23.5h-166q-52 0 -80.5 23.5t-28.5 66.5v27q0 18 -14 18q-6 0 -14 -8q-78 -93 -143 -123.5t-183 -30.5q-170 0 -266 81.5t-96 226.5zM340 293q0 -61 44.5 -97t121.5 -36 q126 0 196 76q28 31 49 87t21 97q0 19 -15 26t-55 7q-158 0 -245 -23q-56 -17 -86.5 -52.5t-30.5 -84.5z" />
<glyph unicode="b" horiz-adv-x="1306" d="M31 90q0 38 27 63t67 25h8q22 0 31.5 10t9.5 33v953q0 23 -9.5 33t-31.5 10h-8q-40 0 -67 25.5t-27 62.5q0 43 28.5 66.5t79.5 23.5h203q62 0 87.5 -26t25.5 -89v-414q0 -18 14 -18q7 0 12 8q65 82 137.5 117t178.5 35q217 0 333.5 -131t116.5 -375q0 -239 -102 -369 q-124 -160 -346 -160q-121 0 -203 43t-141 136q-6 6 -9 6q-8 0 -8 -11v-53q0 -45 -29.5 -69.5t-84.5 -24.5h-185q-51 0 -79.5 23.5t-28.5 66.5zM446 498q0 -160 69.5 -249t193.5 -89q120 0 184.5 86.5t64.5 245.5q0 158 -64.5 243.5t-184.5 85.5q-122 0 -192.5 -87 t-70.5 -236z" />
<glyph unicode="c" horiz-adv-x="1093" d="M59 498q0 232 127.5 371t341.5 139q186 0 279 -136q4 -4 6 -4q8 0 8 11q4 49 33 77.5t74 28.5q51 0 78.5 -33.5t27.5 -95.5v-117q0 -68 -30.5 -105.5t-85.5 -37.5q-80 0 -117 90q-23 63 -80 99t-131 36q-114 0 -178 -84t-64 -233q0 -160 66.5 -252t183.5 -92 q54 0 93 22.5t91 85.5q34 40 60 55t61 15q48 0 79.5 -32t31.5 -81q0 -75 -96 -147q-75 -57 -152 -82t-178 -25q-246 0 -387.5 141t-141.5 386z" />
<glyph unicode="d" horiz-adv-x="1294" d="M61 494q0 246 117 380t332 134q114 0 185.5 -35.5t133.5 -122.5q6 -6 9 -6q10 0 10 12v318q0 23 -9.5 33t-31.5 10h-12q-41 0 -69 25t-28 63q0 43 29 66.5t80 23.5h207q61 0 87.5 -26.5t26.5 -88.5v-1059q0 -23 9.5 -33t31.5 -10h9q40 0 67 -25t27 -63q0 -43 -29 -66.5 t-80 -23.5h-184q-55 0 -85 24.5t-30 69.5v51q0 11 -8 11q-3 0 -6 -6q-107 -177 -338 -177q-206 0 -326 123q-125 131 -125 398zM350 489q0 -160 63 -244.5t183 -84.5q121 0 190.5 87.5t69.5 239.5q0 159 -67 246.5t-189 87.5q-121 0 -185.5 -86t-64.5 -246z" />
<glyph unicode="e" horiz-adv-x="1126" d="M59 489q0 241 136 380t372 139q250 0 379 -138q56 -62 88.5 -157.5t32.5 -196.5v-4q0 -45 -30.5 -69.5t-84.5 -24.5h-596q-20 0 -20 -19q0 -87 63 -163q64 -76 195 -76q63 0 104 19t76 65q22 29 44 39t63 10q57 0 87.5 -22t30.5 -62q0 -71 -84 -139q-129 -97 -337 -97 q-241 0 -380 138.5t-139 377.5zM342 602q0 -20 25 -20h397q29 0 29 24q0 92 -63.5 153.5t-158.5 61.5q-108 0 -168 -69q-27 -33 -44 -75t-17 -75z" />
<glyph unicode="f" horiz-adv-x="745" d="M27 885q0 38 28 63t72 25h20q22 0 31.5 9.5t9.5 31.5v53q0 350 406 350q168 0 168 -106q0 -31 -18 -54t-44 -28h-57q-91 -2 -132.5 -42t-41.5 -126v-47q0 -22 9.5 -31.5t31.5 -9.5h55q51 0 80 -23.5t29 -64.5q0 -43 -29 -66.5t-80 -23.5h-55q-22 0 -31.5 -9.5t-9.5 -31.5 v-535q0 -22 9.5 -31.5t31.5 -9.5h37q50 0 78 -23.5t28 -64.5q0 -43 -28.5 -66.5t-79.5 -23.5h-398q-51 0 -79.5 23.5t-28.5 66.5q0 38 27.5 63t68.5 25h12q22 0 31.5 9.5t9.5 31.5v535q0 22 -9.5 31.5t-31.5 9.5h-20q-44 0 -72 25t-28 65z" />
<glyph unicode="g" horiz-adv-x="1298" d="M57 510q0 232 118 365t325 133q212 0 329 -162q7 -10 15 -10q20 0 20 22v19q0 46 29.5 71t83.5 25h190q51 0 80 -23.5t29 -66.5q0 -38 -27 -63t-67 -25h-11q-22 0 -31.5 -10t-9.5 -33v-697q0 -112 -29 -187t-95 -134q-136 -119 -404 -119q-259 0 -366 82q-80 64 -80 135 q0 46 34.5 73t94.5 27q43 0 69 -12t76 -53q79 -68 172 -68q117 0 189 72q37 37 48 73.5t11 118.5v125q-49 -71 -78 -96q-94 -84 -264 -84q-211 0 -331 133.5t-120 368.5zM346 512q0 -151 65.5 -234t184.5 -83q117 0 189.5 84.5t72.5 220.5q0 143 -72.5 232t-189.5 89 q-115 0 -182.5 -83t-67.5 -226z" />
<glyph unicode="h" horiz-adv-x="1292" d="M31 90q0 38 27 63t67 25h8q22 0 31.5 10t9.5 33v953q0 23 -9.5 33t-31.5 10h-8q-40 0 -67 25.5t-27 62.5q0 43 28.5 66.5t79.5 23.5h203q60 0 87.5 -27t27.5 -88v-426q0 -10 8 -10q5 0 8 6q53 82 128 120t185 38q160 0 252 -80.5t92 -218.5v-488q0 -23 9.5 -33t31.5 -10 h9q38 0 65 -25.5t27 -62.5q0 -43 -29 -66.5t-80 -23.5h-340q-51 0 -79.5 23.5t-28.5 66.5q0 37 26.5 62.5t63.5 25.5h4q22 0 31.5 10t9.5 33v383q0 113 -41.5 165t-130.5 52q-109 0 -166 -73t-57 -211v-316q0 -43 43 -43h2q39 0 65.5 -25.5t26.5 -62.5q0 -43 -29 -66.5 t-80 -23.5h-344q-51 0 -79.5 23.5t-28.5 66.5z" />
<glyph unicode="i" horiz-adv-x="632" d="M45 90q0 37 27 62.5t65 25.5h6q22 0 31.5 10t9.5 33v531q0 23 -9.5 33t-31.5 10h-6q-38 0 -65 25.5t-27 62.5q0 43 29 66.5t80 23.5h196q62 0 88.5 -26.5t26.5 -88.5v-637q0 -23 9 -32t32 -11q40 -1 65 -26t25 -62q0 -43 -29 -66.5t-80 -23.5h-333q-51 0 -80 23.5 t-29 66.5zM182 1262q0 63 40 104t102 41q60 0 98.5 -42t38.5 -108q0 -62 -39.5 -102.5t-99.5 -40.5t-100 42t-40 106z" />
<glyph unicode="j" horiz-adv-x="606" d="M-80 -279q0 43 27 67t76 24l53 -2q61 0 84.5 32t23.5 117v793q0 23 -9.5 33t-31.5 10h-8q-39 0 -65.5 25.5t-26.5 62.5q0 43 29 66.5t80 23.5h198q62 0 88.5 -26.5t26.5 -88.5v-930q0 -103 -16.5 -157.5t-57.5 -89.5q-74 -60 -227 -60q-141 0 -192.5 21t-51.5 79z M178 1262q0 63 40 104t101 41q60 0 99 -42t39 -108q0 -61 -40 -102t-100 -41t-99.5 42t-39.5 106z" />
<glyph unicode="k" horiz-adv-x="1263" d="M31 90q0 38 27 63t67 25h10q22 0 31.5 9.5t9.5 31.5v955q0 23 -9.5 33t-31.5 10h-10q-40 0 -67 25t-27 63q0 43 29 66.5t81 23.5h201q62 0 88.5 -26.5t26.5 -88.5v-743l262 204q14 14 14 25q0 24 -26 27q-89 15 -89 90q0 43 29 66.5t80 23.5h358q52 0 80.5 -23.5 t28.5 -66.5q0 -40 -27 -65t-71 -25h-21q-20 0 -35 -13l-180 -143q-18 -15 -18 -33q0 -11 8 -22l242 -381q9 -14 16.5 -18.5t24.5 -4.5q38 -2 64 -26.5t26 -61.5q0 -43 -29 -66.5t-80 -23.5h-336q-38 0 -59 23.5t-21 64.5q0 40 17.5 60.5t60.5 29.5q25 6 25 17q0 3 -21 36 l-123 193q-14 22 -34 22q-9 0 -27 -12l-139 -112v-103q0 -22 8.5 -30.5t30.5 -10.5q35 -2 58.5 -27t23.5 -63q0 -41 -26.5 -64.5t-72.5 -23.5h-338q-52 0 -81 23.5t-29 66.5z" />
<glyph unicode="l" horiz-adv-x="624" d="M33 90q0 37 27 62.5t67 25.5h8q22 0 31.5 10t9.5 33v953q0 23 -9.5 33t-31.5 10h-8q-40 0 -67 25.5t-27 62.5q0 43 29 66.5t81 23.5h199q62 0 88.5 -26.5t26.5 -88.5v-1059q0 -23 9.5 -32.5t35.5 -10.5q40 -1 65 -26t25 -62q0 -43 -29 -66.5t-82 -23.5h-338 q-52 0 -81 23.5t-29 66.5z" />
<glyph unicode="m" horiz-adv-x="1925" d="M39 90q0 38 27 63t67 25h10q22 0 31.5 10t9.5 33v531q0 23 -9.5 33t-31.5 10h-10q-40 0 -67 25t-27 63q0 43 28.5 66.5t79.5 23.5h183q55 0 84.5 -25t29.5 -71v-41q0 -15 13 -15q5 0 10 8q60 94 136 136.5t185 42.5q104 0 186.5 -47t104.5 -119q8 -21 17 -21q7 0 12 8 q54 92 130.5 135.5t184.5 43.5q161 0 251.5 -89t90.5 -249v-449q0 -23 9.5 -33t31.5 -10h4q40 0 66.5 -25.5t26.5 -62.5q0 -43 -29 -66.5t-80 -23.5h-332q-51 0 -79.5 23.5t-28.5 66.5q0 37 25 62t65 26q23 2 32 11t9 32v381q0 106 -44 162.5t-126 56.5q-95 0 -148 -72 t-53 -202v-326q0 -23 9 -32t34 -11q40 -1 65 -26t25 -62q0 -43 -29 -66.5t-81 -23.5h-326q-51 0 -80 23.5t-29 66.5q0 37 25.5 62t65.5 26q23 2 32 11t9 32v395q0 96 -43.5 150.5t-120.5 54.5q-93 0 -149 -77t-56 -205v-318q0 -23 9 -32t32 -11q40 -1 65 -26t25 -62 q0 -43 -29 -66.5t-80 -23.5h-340q-51 0 -79.5 23.5t-28.5 66.5z" />
<glyph unicode="n" horiz-adv-x="1298" d="M39 90q0 38 27 63t67 25h10q22 0 31.5 10t9.5 33v531q0 23 -9.5 33t-31.5 10h-10q-40 0 -67 25t-27 63q0 43 29 66.5t82 23.5h180q55 0 84.5 -25t29.5 -71v-52q0 -10 9 -10q3 0 6 6q55 98 134 142.5t198 44.5q166 0 256 -83t90 -237v-467q0 -23 9.5 -33t31.5 -10h4 q38 0 65 -25.5t27 -62.5q0 -43 -29 -66.5t-82 -23.5h-329q-51 0 -80 23.5t-29 66.5q0 37 25 62t65 26q23 2 32 11t9 32v391q0 106 -44 157.5t-136 51.5q-97 0 -154 -69t-57 -187v-344q0 -23 9 -32t32 -11q40 -1 65 -26t25 -62q0 -43 -29 -66.5t-80 -23.5h-340 q-51 0 -79.5 23.5t-28.5 66.5z" />
<glyph unicode="o" horiz-adv-x="1200" d="M59 500q0 229 148.5 368.5t392.5 139.5q249 0 396 -140.5t147 -378.5q0 -233 -147.5 -374.5t-391.5 -141.5q-251 0 -398 142t-147 385zM348 496q0 -157 67.5 -246.5t184.5 -89.5q122 0 188 88t66 250q0 152 -66.5 237.5t-185.5 85.5q-117 0 -185.5 -87.5t-68.5 -237.5z " />
<glyph unicode="p" horiz-adv-x="1292" d="M16 -268q0 38 27 64t66 26h10q22 0 31.5 9.5t9.5 31.5v889q0 23 -9.5 33t-31.5 10h-10q-39 0 -66 25t-27 63q0 43 29 66.5t80 23.5h184q115 0 115 -99v-49q0 -12 8 -12q5 0 8 6q98 189 344 189q214 0 330.5 -134t116.5 -382t-118.5 -383.5t-336.5 -135.5 q-112 0 -184.5 36.5t-132.5 123.5q-3 6 -8 6q-11 0 -11 -12v-264q0 -22 9.5 -31.5t31.5 -9.5h19q43 0 70.5 -25t27.5 -65q0 -41 -29 -64.5t-80 -23.5h-364q-51 0 -80 23.5t-29 64.5zM434 494q0 -160 67.5 -247t190.5 -87q121 0 185.5 84.5t64.5 244.5t-63.5 246t-180.5 86 q-123 0 -193.5 -87t-70.5 -240z" />
<glyph unicode="q" horiz-adv-x="1294" d="M61 487q0 248 117.5 384.5t331.5 136.5q123 0 206 -45.5t136 -141.5q4 -4 6 -4q6 0 6 10v52q0 45 30 69.5t85 24.5h186q51 0 80 -23.5t29 -66.5q0 -38 -27 -63t-67 -25h-11q-22 0 -31.5 -10t-9.5 -33v-889q0 -22 9.5 -31.5t31.5 -9.5h11q40 0 67 -25.5t27 -64.5 q0 -41 -29 -64.5t-80 -23.5h-366q-52 0 -80.5 23t-28.5 65q0 40 27 65t71 25h19q22 0 31.5 9.5t9.5 31.5v260q0 12 -10 12q-3 0 -9 -6q-99 -156 -315 -156q-217 0 -335 134t-118 380zM348 479q0 -152 65 -235.5t183 -83.5q124 0 193 86t69 241q0 160 -68 247t-194 87 q-118 0 -183 -89.5t-65 -252.5z" />
<glyph unicode="r" horiz-adv-x="874" d="M37 90q0 38 27 63t67 25h12q22 0 31.5 9.5t9.5 31.5v533q0 23 -9.5 33t-31.5 10h-12q-40 0 -67 25t-27 63q0 43 28.5 66.5t79.5 23.5h189q115 0 115 -101v-112q25 72 48 109t64 71q84 68 184 68q115 0 115 -131q0 -63 -26 -99.5t-72 -36.5q-3 0 -31 4q-18 3 -22 3 q-50 0 -121 -43q-64 -38 -93.5 -100t-29.5 -159v-227q0 -22 9.5 -31.5t31.5 -9.5h31q47 0 75.5 -24t28.5 -64q0 -43 -29 -66.5t-82 -23.5h-385q-51 0 -79.5 23.5t-28.5 66.5z" />
<glyph unicode="s" horiz-adv-x="1011" d="M70 115v94q0 66 31.5 101.5t91.5 35.5q47 0 83 -31q12 -12 48 -73q20 -36 70 -59t108 -23q80 0 130 30.5t50 79.5q0 25 -12.5 47.5t-34.5 34.5q-36 20 -141 39l-123 21q-154 28 -224.5 96.5t-70.5 189.5q0 138 102 224t266 86q87 0 138.5 -24.5t119.5 -98.5q4 -4 9 -4 q8 0 8 8q5 38 32 61t68 23q51 0 78 -31t27 -88v-76q0 -63 -31 -98t-86 -35q-37 0 -60 16t-49 60q-34 55 -77 77.5t-115 22.5q-80 0 -125 -28.5t-45 -79.5q0 -45 34.5 -68.5t127.5 -40.5l116 -22q328 -61 328 -295q0 -143 -101.5 -228.5t-271.5 -85.5q-102 0 -159 25.5 t-119 97.5q-4 4 -6 4q-6 0 -9 -8q-4 -43 -31.5 -67.5t-70.5 -24.5q-49 0 -76.5 30.5t-27.5 84.5z" />
<glyph unicode="t" horiz-adv-x="804" d="M-2 885q0 38 27.5 63t70.5 25h23q22 0 31.5 9.5t9.5 31.5v80q0 43 18 66t64 40l69 23q67 24 95 24q21 0 27.5 -22.5t6.5 -94.5v-116q0 -22 9.5 -31.5t31.5 -9.5h129q51 0 80 -23.5t29 -64.5q0 -43 -29 -66.5t-80 -23.5h-129q-22 0 -31.5 -9.5t-9.5 -31.5v-471 q0 -47 3.5 -65t15.5 -30q19 -28 61 -28q46 0 66 33q9 12 11.5 22t8.5 59q6 40 28 62t56 22q38 0 62 -25.5t24 -68.5q0 -143 -78 -217t-229 -74q-157 0 -233 80t-76 246v455q0 22 -9.5 31.5t-31.5 9.5h-23q-43 0 -70.5 25t-27.5 65z" />
<glyph unicode="u" horiz-adv-x="1275" d="M18 883q0 43 29 66.5t80 23.5h201q61 0 87.5 -26.5t26.5 -88.5v-491q0 -207 172 -207q100 0 156.5 75t56.5 207v310q0 23 -9.5 33t-31.5 10h-12q-41 0 -68.5 25t-27.5 63q0 43 29 66.5t81 23.5h205q61 0 88 -26.5t27 -88.5v-637q0 -23 9.5 -33t31.5 -10h8q40 0 67 -25 t27 -63q0 -43 -28.5 -66.5t-79.5 -23.5h-182q-55 0 -85 24.5t-30 69.5v60q0 8 -6 8q-2 0 -6 -4q-36 -59 -61 -86.5t-60 -48.5q-85 -50 -213 -50q-176 0 -267 105q-41 45 -56 98t-15 148v428q0 23 -9.5 33t-31.5 10h-8q-40 0 -67.5 25t-27.5 63z" />
<glyph unicode="v" horiz-adv-x="1179" d="M12 885q0 41 22 64.5t60 23.5h338q51 0 80 -23.5t29 -66.5q0 -37 -24 -61t-64 -27q-41 -3 -41 -33q0 -5 4 -21l92 -241q43 -114 57.5 -163t42.5 -169q27 109 41 154.5t56 158.5l98 260q4 16 4 21q0 30 -41 33t-65.5 27t-24.5 61q0 43 29 66.5t81 23.5h308q38 0 60 -23.5 t22 -64.5q0 -38 -20 -63.5t-52 -26.5q-14 -2 -19.5 -6.5t-11.5 -22.5l-278 -688q-20 -47 -43 -62.5t-74 -15.5h-168q-51 0 -73.5 15.5t-41.5 62.5l-278 688q-6 18 -11.5 22.5t-21.5 6.5q-31 2 -51.5 27t-20.5 63z" />
<glyph unicode="w" horiz-adv-x="1867" d="M12 883q0 43 24.5 66.5t67.5 23.5h326q53 0 82 -23.5t29 -66.5q0 -37 -26.5 -62t-68.5 -26q-40 -3 -40 -33q0 -7 4 -19l88 -290q20 -68 65 -289q22 95 27 117q30 150 43 194l123 412q15 51 39 68.5t77 17.5h156q54 0 78 -17.5t39 -68.5l129 -434q17 -57 28 -101.5 t17 -73.5t22 -110q12 101 23 152t47 172l80 251q4 16 4 19q0 30 -43 33q-40 1 -65 26t-25 62q0 43 29 66.5t82 23.5h292q44 0 69.5 -23.5t25.5 -66.5q0 -37 -22 -61.5t-56 -26.5q-17 0 -25 -6t-14 -25l-221 -680q-17 -50 -41 -67t-76 -17h-170q-53 0 -76.5 17.5t-38.5 68.5 l-131 436q-23 75 -53 252q-33 -176 -53 -246l-138 -442q-15 -51 -38.5 -68.5t-77.5 -17.5h-162q-53 0 -76.5 17t-40.5 67l-223 680q-4 19 -12 25t-25 6q-34 2 -56 26.5t-22 61.5z" />
<glyph unicode="x" horiz-adv-x="1202" d="M37 88q0 38 21.5 64t52.5 26q4 0 7 0.5t4.5 0.5t4 2t3.5 3l5 5l6 6l291 305l-270 278q-7 8 -10 11t-8 4.5t-13 1.5q-31 0 -52.5 25.5t-21.5 62.5q0 43 27 66.5t74 23.5h321q40 0 63 -22t23 -60q0 -70 -73 -84q-25 -3 -25 -27q0 -9 12 -24l146 -158l143 162q10 13 10 22 q0 22 -20 25q-68 14 -68 84q0 38 21.5 60t58.5 22h313q43 0 68 -24t25 -66q0 -37 -23 -62.5t-55 -25.5q-13 0 -18 -3t-15 -14l-256 -278l281 -305q7 -8 10 -11t7.5 -4.5t12.5 -1.5q29 0 49.5 -25.5t20.5 -62.5q0 -43 -25 -66.5t-71 -23.5h-334q-41 0 -64.5 22t-23.5 60 q0 35 18.5 55t59.5 29q26 3 26 22q0 14 -16 33l-158 174l-158 -174q-16 -19 -16 -31q0 -21 27 -24q41 -9 59 -29t18 -55q0 -38 -23.5 -60t-64.5 -22h-321q-41 0 -63.5 23.5t-22.5 64.5z" />
<glyph unicode="y" horiz-adv-x="1181" d="M10 885q0 41 22 64.5t60 23.5h340q53 0 82 -23.5t29 -66.5q0 -37 -24.5 -61t-65.5 -27t-41 -33q0 -11 6 -23l145 -340q30 -70 55 -170l29 99l39 96l123 317q4 12 4 21q0 30 -41 33t-65.5 27t-24.5 61q0 43 29 66.5t82 23.5h303q38 0 59 -23.5t21 -64.5q0 -38 -19.5 -63 t-50.5 -27q-14 -2 -19.5 -6.5t-11.5 -22.5l-389 -877q-54 -121 -92 -171t-90 -70q-67 -27 -172 -27q-75 0 -108.5 22t-33.5 72q0 41 23 69t57 28q9 0 17 -2h20q52 0 78 20.5t55 85.5l23 49q8 16 8 21q0 6 -8 22l-348 760q-7 17 -13 21t-20 6q-31 2 -51.5 27t-20.5 63z" />
<glyph unicode="z" horiz-adv-x="1048" d="M61 147q0 32 14.5 59t51.5 66l520 537h-315q-23 0 -32 -9t-9 -34q-1 -47 -32 -78t-75 -31q-51 0 -78.5 34t-27.5 97v72q0 60 27 86.5t88 26.5h591q52 0 81.5 -9t54.5 -32q43 -43 43 -105q0 -33 -14 -60.5t-50 -64.5l-522 -538h344q22 0 31.5 9.5t9.5 31.5v16q0 51 30 83 t76 32q51 0 79 -34t28 -97v-92q0 -60 -27 -86.5t-88 -26.5h-618q-53 0 -83.5 9.5t-54.5 33.5q-43 43 -43 104z" />
<glyph unicode="{" horiz-adv-x="774" d="M41 518q0 64 78 88q22 6 44.5 26t31.5 42q16 43 16 112v310q0 168 80 239q41 35 103 47.5t200 12.5h18q38 0 63 -22.5t25 -57.5q0 -22 -11 -41.5t-30 -28.5q-13 -7 -22.5 -9t-52.5 -3q-32 0 -63 -12t-46 -29q-17 -22 -24 -51t-7 -84v-291q0 -83 -17 -132t-58 -89 q-15 -13 -15 -27q0 -12 15 -24q41 -40 58 -90t17 -132v-290q0 -106 35 -141t142 -36q34 -2 56.5 -24.5t22.5 -56.5q0 -35 -25 -57.5t-63 -22.5h-18q-138 0 -200 12t-103 47q-80 71 -80 240v307q0 79 -20.5 119.5t-71.5 62.5q-47 20 -62.5 37t-15.5 49z" />
<glyph unicode="|" horiz-adv-x="1024" d="M426 -342v1708h170v-1708h-170z" />
<glyph unicode="}" horiz-adv-x="774" d="M72 -276q0 49 41 69q13 7 22.5 9t52.5 3q32 0 63 12t46 29q31 39 31 136v290q0 82 17 132t58 90q15 12 15 24q0 14 -15 27q-41 40 -58 89t-17 132v291q0 106 -34.5 140.5t-141.5 35.5q-34 2 -57 25t-23 57q0 35 25 57.5t63 22.5h18q138 0 200 -12.5t103 -47.5 q80 -71 80 -239v-310q0 -78 20.5 -118t71.5 -62q48 -20 63 -37t15 -51q0 -65 -78 -86q-22 -8 -44 -28t-31 -42q-17 -42 -17 -112v-307q0 -169 -80 -240q-41 -35 -103 -47t-200 -12h-18q-38 0 -63 22.5t-25 57.5z" />
<glyph unicode="~" horiz-adv-x="1024" d="M205 608q0 56 39 117q56 80 133 80q57 0 143 -35q83 -33 111 -33q22 0 39.5 11t25.5 28q13 27 26.5 37t35.5 10q30 0 46.5 -18t16.5 -51q0 -73 -54 -132t-122 -59q-40 0 -139 35q-88 33 -115 33q-23 0 -37.5 -10t-29.5 -37q-15 -24 -28 -33.5t-32 -9.5q-28 0 -43.5 18 t-15.5 49z" />
<glyph unicode="&#xa1;" horiz-adv-x="567" d="M121 834q0 66 47 112.5t113 46.5q69 0 116 -46.5t47 -115.5q0 -67 -46.5 -114t-112.5 -47q-67 0 -115.5 48t-48.5 116zM131 -274l39 723q5 63 33.5 97t79.5 34q105 0 114 -131l41 -723q3 -62 -24 -90.5t-88 -28.5h-82q-119 0 -113 119z" />
<glyph unicode="&#xa2;" d="M100 711q0 207 111.5 345.5t284.5 147.5v56q0 54 25 84t69 30q46 0 71 -30.5t25 -86.5v-67q54 -35 77 -62t54 -90v29q0 51 31 84t78 33q51 0 78.5 -35t27.5 -98v-117q0 -69 -32.5 -107.5t-92.5 -38.5q-91 0 -116 89q-41 145 -187 145q-106 0 -166.5 -88t-60.5 -240 q0 -150 61.5 -231.5t175.5 -81.5q61 0 99.5 22.5t66.5 75.5q23 46 49 65t66 19q48 0 82.5 -34t34.5 -83q0 -40 -33 -87.5t-90 -88.5q-74 -59 -203 -73v-56q0 -54 -25 -84t-69 -30q-46 0 -71 30t-25 84v56q-111 9 -217 88q-83 61 -131 176t-48 250z" />
<glyph unicode="&#xa3;" d="M35 94q0 40 29 66t73 26h17q22 0 31.5 9.5t9.5 31.5v414h-58q-44 0 -73 26.5t-29 67.5q0 40 29 66t73 26h58v138q0 114 27 188.5t89 130.5q124 109 346 109q187 0 295 -80q50 -36 79.5 -86t29.5 -97q0 -49 -36 -79.5t-95 -30.5q-58 0 -99 33q-12 9 -16.5 17.5t-13.5 37.5 q-27 92 -139 92q-181 0 -181 -207v-166h115q54 0 84.5 -24.5t30.5 -67.5q0 -45 -30 -69.5t-85 -24.5h-115v-414q0 -22 9.5 -31.5t31.5 -9.5h256q22 0 31.5 9.5t9.5 31.5v72q0 44 29 70t78 26h49q56 0 81 -27t25 -87v-166q0 -62 -26.5 -88.5t-87.5 -26.5h-817q-54 0 -84.5 25 t-30.5 69z" />
<glyph unicode="&#xa4;" d="M125 1057q0 35 25.5 60.5t62.5 25.5q33 0 72 -39l53 -53q63 40 112 54.5t117 14.5q66 0 116.5 -15.5t113.5 -53.5l55 55q40 37 70 37q35 0 59.5 -24.5t24.5 -61.5q0 -31 -37 -68l-58 -55q39 -60 55.5 -112.5t16.5 -119.5q0 -65 -15.5 -115t-54.5 -112l54 -53 q39 -39 39 -72q0 -37 -25.5 -61.5t-62.5 -24.5q-30 0 -70 37l-53 53q-61 -39 -110.5 -54t-117.5 -15q-66 0 -118.5 16.5t-112.5 54.5l-55 -55q-37 -37 -70 -37q-35 0 -59.5 24.5t-24.5 61.5q0 31 37 68l55 55q-39 60 -55.5 111.5t-16.5 117.5q0 64 16.5 116.5t55.5 113.5 l-55 53q-39 39 -39 72zM340 707q0 -97 65.5 -163.5t159.5 -66.5t160 67t66 161t-66 159.5t-160 65.5q-92 0 -158.5 -65.5t-66.5 -157.5z" />
<glyph unicode="&#xa5;" d="M-16 1272q0 44 22 69t62 25h352q47 0 73.5 -25t26.5 -69q0 -38 -22 -63t-62 -29q-35 -6 -35 -33q0 -7 7 -25l184 -374l182 374q8 13 8 25q0 27 -32 33q-40 4 -62 29t-22 63q0 44 26.5 69t73.5 25h311q40 0 63 -25t23 -69q0 -39 -20.5 -65.5t-52.5 -26.5q-15 -1 -20 -5.5 t-13 -19.5l-180 -328h77q38 0 63 -22t25 -57q0 -38 -26 -59t-72 -21h-156l-79 -146h168q46 0 71 -21t25 -59t-25 -59t-71 -21h-168v-135q0 -22 9.5 -31.5t31.5 -9.5h51q54 0 83 -24.5t29 -67.5q0 -45 -29 -69.5t-83 -24.5h-459q-55 0 -85 24.5t-30 69.5q0 43 30.5 67.5 t84.5 24.5h45q22 0 31.5 9.5t9.5 31.5v135h-168q-46 0 -72 21t-26 59t25.5 59t72.5 21h168l-78 146h-160q-46 0 -71 21t-25 59q0 35 24 57t64 22h80l-176 328q-8 15 -13 19.5t-18 5.5q-31 1 -51 27.5t-20 64.5z" />
<glyph unicode="&#xa6;" horiz-adv-x="1024" d="M426 461h170v-922h-170v922zM426 565v918h170v-918h-170z" />
<glyph unicode="&#xa7;" d="M113 586q0 185 188 245q-80 25 -125 89.5t-45 154.5q0 69 33.5 133t91.5 105q116 80 309 80q285 0 385 -160q29 -53 29 -90q0 -46 -35.5 -73.5t-95.5 -27.5q-59 0 -96 29q-12 9 -16 16t-13 37q-12 43 -55.5 69t-104.5 26q-74 0 -117 -30.5t-43 -84.5q0 -47 34 -77.5 t130 -68.5l213 -84q87 -35 133.5 -65.5t71.5 -69.5q37 -60 37 -139q0 -91 -46.5 -152t-131.5 -83q80 -25 125 -92t45 -162q0 -164 -129 -252q-112 -80 -322 -80q-242 0 -358 131q-53 59 -53 119q0 54 33.5 83t95.5 29q54 0 81 -17t44 -63q22 -55 60.5 -79.5t104.5 -24.5 q80 0 126 33.5t46 93.5q0 82 -116 127l-267 100q-133 49 -190 113t-57 162zM352 633q0 -51 36.5 -86t121.5 -66l174 -61q50 33 71 65t21 74q0 49 -31.5 80.5t-111.5 62.5l-191 72q-51 -29 -70.5 -60t-19.5 -81z" />
<glyph unicode="&#xa8;" horiz-adv-x="1024" d="M203 1260q0 51 33.5 83.5t85.5 32.5q51 0 83.5 -34t32.5 -87q0 -48 -33.5 -81t-82.5 -33q-52 0 -85.5 33.5t-33.5 85.5zM592 1260q0 51 33.5 83.5t85.5 32.5q51 0 83.5 -34t32.5 -87q0 -48 -33.5 -81t-82.5 -33q-53 0 -86 33.5t-33 85.5z" />
<glyph unicode="&#xa9;" horiz-adv-x="1556" d="M68 684q0 192 95 355.5t258.5 258.5t356.5 95q192 0 355.5 -95t258.5 -258t95 -354q0 -196 -95 -360t-260 -258.5t-362 -94.5q-189 0 -351 96t-256.5 260t-94.5 355zM184 684q0 -160 79.5 -297t214.5 -217t292 -80q165 0 303 78.5t217.5 215.5t79.5 300 q0 160 -79.5 296.5t-216 216t-296.5 79.5q-161 0 -298 -79t-216.5 -215.5t-79.5 -297.5zM352 682q0 186 100.5 292.5t274.5 106.5q85 0 142 -22.5t98 -73.5v27q0 29 18.5 45t52.5 16q38 0 58 -23.5t20 -66.5v-172q0 -32 -20.5 -51t-57.5 -19q-41 0 -60.5 20t-25.5 68 q-6 58 -57.5 95t-126.5 37q-110 0 -168.5 -74t-58.5 -215q0 -135 58 -207t167 -72q81 0 123.5 34t54.5 108q4 28 30 46.5t58 18.5q37 0 61.5 -26t24.5 -66q0 -33 -17 -72.5t-42 -66.5q-97 -97 -291 -97q-198 0 -307 107.5t-109 302.5z" />
<glyph unicode="&#xaa;" horiz-adv-x="751" d="M76 979q0 184 289 184l90 -2q10 0 10 10v5q0 51 -23 71.5t-80 20.5q-47 0 -69.5 -12.5t-30.5 -41.5q-6 -28 -59 -28q-37 0 -60.5 19t-23.5 48q0 60 64.5 95.5t172.5 35.5q140 0 204.5 -51.5t64.5 -165.5v-194q0 -21 8 -30.5t29 -12.5q26 -1 40.5 -16.5t14.5 -39.5 q0 -26 -18 -40.5t-50 -14.5h-125q-47 0 -47 39v39q-38 -53 -79 -72.5t-113 -19.5q-97 0 -153 46.5t-56 127.5zM240 987q0 -31 23 -48t63 -17q62 0 98.5 34.5t42.5 98.5q0 7 -6 9.5t-25 2.5q-105 0 -150.5 -18.5t-45.5 -61.5z" />
<glyph unicode="&#xab;" horiz-adv-x="907" d="M88 500q0 21 14 55l119 285q17 40 39.5 57.5t54.5 17.5q37 0 65 -26t28 -60q0 -24 -13 -61l-110 -270l108 -258q17 -42 17 -64q0 -34 -29 -60t-66 -26q-61 0 -94 76l-117 278q-16 35 -16 56zM416 500q0 20 14 55l119 285q28 75 94 75q37 0 64.5 -26t27.5 -60 q0 -29 -14 -61l-111 -270l111 -258q14 -32 14 -64q0 -34 -27.5 -60t-64.5 -26q-33 0 -54.5 18t-39.5 58l-119 278q-14 38 -14 56z" />
<glyph unicode="&#xac;" horiz-adv-x="1024" d="M68 328v268h886v-596h-297v328h-589z" />
<glyph unicode="&#xad;" horiz-adv-x="524" d="M0 508q0 51 33.5 78.5t95.5 27.5h268q60 0 93.5 -27.5t33.5 -76.5q0 -51 -33.5 -79t-93.5 -28h-268q-61 0 -95 27.5t-34 77.5z" />
<glyph unicode="&#xae;" horiz-adv-x="1556" d="M68 684q0 192 95 355.5t258.5 258.5t356.5 95q192 0 355.5 -95t258.5 -258t95 -354q0 -196 -95 -360t-260 -258.5t-362 -94.5q-189 0 -351 96t-256.5 260t-94.5 355zM184 684q0 -160 79.5 -297t214.5 -217t292 -80q165 0 303 78.5t217.5 215.5t79.5 300 q0 160 -79.5 296.5t-216 216t-296.5 79.5q-161 0 -298 -79t-216.5 -215.5t-79.5 -297.5zM387 346q0 25 17.5 41t46.5 16q22 2 30 11t8 32v459q0 23 -9 31t-34 10q-26 1 -42.5 18t-16.5 42q0 28 19 43.5t53 15.5h366q136 0 206.5 -53t70.5 -154q0 -159 -158 -199 q46 -11 69 -33.5t40 -74.5l41 -117q6 -17 14 -23t25 -8q26 0 42.5 -16t16.5 -41q0 -28 -19 -43.5t-53 -15.5h-82q-49 0 -72 17t-40 65l-54 157q-15 49 -31 63.5t-53 14.5h-53q-49 0 -61 -13t-12 -67v-55q0 -38 8.5 -50t40.5 -16q26 -1 41.5 -17t15.5 -40q0 -28 -19 -43.5 t-53 -15.5h-237q-34 0 -53 15.5t-19 43.5zM670 764q0 -22 9.5 -31.5t31.5 -9.5h51q75 0 117.5 30.5t42.5 84.5q0 108 -134 108h-77q-22 0 -31.5 -9.5t-9.5 -31.5v-141z" />
<glyph unicode="&#xaf;" horiz-adv-x="1024" d="M207 1245q0 37 25 57.5t69 20.5h424q44 0 69 -20.5t25 -55.5q0 -37 -25 -57.5t-69 -20.5h-424q-44 0 -69 20.5t-25 55.5z" />
<glyph unicode="&#xb0;" d="M326 1151q0 101 71 171.5t172 70.5q98 0 169 -71t71 -171t-71 -171t-171 -71t-170.5 71t-70.5 171zM453 1151q0 -47 33.5 -81t80.5 -34t81 34t34 81q0 46 -33.5 80.5t-79.5 34.5q-49 0 -82.5 -33.5t-33.5 -81.5z" />
<glyph unicode="&#xb1;" d="M84 82q0 38 26.5 60t73.5 22h766q47 0 74 -22t27 -60t-27 -60t-74 -22h-766q-47 0 -73.5 22t-26.5 60zM84 702q0 38 26.5 60t73.5 22h297v283q0 50 22.5 77t63.5 27q40 0 62 -27.5t22 -76.5v-283h297q47 0 74 -22t27 -60t-27 -59.5t-74 -21.5h-297v-283q0 -50 -22 -77.5 t-62 -27.5q-41 0 -63.5 27.5t-22.5 77.5v283h-297q-47 0 -73.5 21.5t-26.5 59.5z" />
<glyph unicode="&#xb2;" horiz-adv-x="755" d="M27 647q0 45 36 78q4 2 168 135q141 116 203 191q43 57 43 104q0 45 -29.5 72.5t-78.5 27.5q-57 0 -86.5 -30t-36.5 -97q-6 -46 -32 -71t-67 -25q-40 0 -69 28t-29 68q0 46 25 99.5t61 83.5q80 71 238 71q143 0 224 -61t81 -170q0 -54 -20.5 -97.5t-71.5 -95.5 q-67 -68 -136.5 -126.5t-205.5 -159.5h241q22 0 30.5 9t10.5 32q1 37 24.5 60.5t57.5 23.5q40 0 62 -27t22 -76v-45q0 -52 -27.5 -77t-86.5 -25h-431q-57 0 -88.5 26.5t-31.5 73.5z" />
<glyph unicode="&#xb3;" horiz-adv-x="755" d="M51 764q0 43 29 72.5t70 29.5q85 0 100 -100q15 -109 123 -109q55 0 90 33t35 86q0 69 -52 101q-24 14 -42 18t-82 8q-28 1 -45 18.5t-17 43.5q0 35 29 53q16 8 80 12q52 1 84 34.5t32 84.5q0 49 -31 77.5t-85 28.5q-110 0 -121 -112q-6 -45 -32 -70.5t-66 -25.5 q-42 0 -70.5 28.5t-28.5 71.5q0 44 22.5 90.5t59.5 77.5q88 67 238 67q146 0 227.5 -60.5t81.5 -168.5q0 -77 -38.5 -121.5t-121.5 -64.5q93 -25 133.5 -70.5t40.5 -126.5q0 -116 -83 -178t-238 -62q-171 0 -254 80q-31 31 -49.5 72.5t-18.5 81.5z" />
<glyph unicode="&#xb4;" horiz-adv-x="1024" d="M393 1155q0 30 25 66l123 186q37 59 90 59q26 0 59 -20l25 -14q45 -28 45 -82q0 -40 -45 -82l-166 -158q-37 -37 -70 -37q-34 0 -60 25t-26 57z" />
<glyph unicode="&#xb5;" horiz-adv-x="1275" d="M125 -258q0 15 2 25l35 421v695q0 43 28 66.5t80 23.5h58q61 0 87.5 -26.5t26.5 -88.5v-491q0 -207 172 -207q100 0 156.5 75t56.5 207v441q0 43 28.5 66.5t80.5 23.5h57q61 0 88 -26.5t27 -88.5v-637q0 -23 9.5 -33t31.5 -10h8q40 0 67 -25t27 -63q0 -43 -28.5 -66.5 t-79.5 -23.5h-182q-56 0 -85.5 24t-29.5 70v60q0 8 -6 8q-2 0 -6 -4q-57 -100 -133 -142.5t-199 -42.5q-70 0 -137 19l18 -225q2 -8 2 -25q0 -47 -26.5 -72.5t-77.5 -25.5h-50q-52 0 -80.5 26.5t-25.5 71.5z" />
<glyph unicode="&#xb6;" horiz-adv-x="1226" d="M53 942q0 190 103 309q53 60 125.5 87.5t179.5 27.5h590q49 0 76.5 -23t27.5 -63q0 -37 -26 -61.5t-64 -24.5h-10q-22 0 -31.5 -9.5t-9.5 -31.5v-1135q0 -22 9.5 -31.5t31.5 -9.5h10q38 0 64 -24.5t26 -61.5q0 -40 -27.5 -63t-76.5 -23h-602q-50 0 -77.5 22.5t-27.5 63.5 q0 40 27.5 63t74.5 23h35q22 0 31.5 9.5t9.5 31.5v492q0 10 -6 16q-1 0 -7 1q-50 5 -183 16q-60 5 -121.5 51.5t-98.5 116.5q-53 95 -53 231zM717 -23h102v1217h-102v-1217z" />
<glyph unicode="&#xb7;" horiz-adv-x="501" d="M88 702q0 66 47 113t113 47q69 0 116.5 -46.5t47.5 -115.5q0 -67 -47 -114t-113 -47q-68 0 -116 48t-48 115z" />
<glyph unicode="&#xb8;" horiz-adv-x="1024" d="M270 -387q0 18 13 31.5t28 13.5q8 0 92 -25q18 -6 52 -6q59 0 91 21t32 59q0 32 -25.5 53t-65.5 21q-24 0 -59 -8q-4 -2 -12 -2q-17 0 -32 13t-15 28q0 7 6 16l106 172h97l-78 -127q-2 -2 -2 -6q0 -1 2 -3.5t4 -2.5l106 4q13 0 45 -17t50 -32q40 -40 40 -99 q0 -75 -66.5 -125.5t-166.5 -50.5q-68 0 -134.5 10.5t-88.5 24.5q-19 16 -19 37z" />
<glyph unicode="&#xb9;" horiz-adv-x="755" d="M115 1169q0 37 45 68q68 43 98 68q53 41 74.5 51t52.5 10q62 0 107 -45q21 -23 28.5 -49.5t7.5 -77.5v-483q0 -22 9.5 -31.5t31.5 -9.5h11q29 0 48 -17t19 -45q0 -29 -20 -45t-56 -16h-299q-35 0 -55 16t-20 45t19.5 45.5t53.5 16.5h23q22 0 31.5 9.5t9.5 31.5v401 q0 41 -35 41q-10 0 -39 -23q-44 -32 -78 -32q-27 0 -47 21t-20 50z" />
<glyph unicode="&#xba;" horiz-adv-x="751" d="M66 1100q0 129 84.5 206.5t224.5 77.5q143 0 227 -78.5t84 -211.5q0 -130 -84.5 -209.5t-222.5 -79.5q-144 0 -228.5 80t-84.5 215zM242 1098q0 -83 36 -129.5t99 -46.5q65 0 100 45.5t35 130.5q0 80 -35.5 125t-99.5 45q-63 0 -99 -46t-36 -124z" />
<glyph unicode="&#xbb;" horiz-adv-x="907" d="M172 176q0 30 14 62l111 270l-111 258q-14 35 -14 63q0 34 27.5 60t64.5 26q34 0 56.5 -17.5t39.5 -57.5l117 -279q17 -43 17 -55t-17 -55l-119 -285q-18 -40 -39.5 -58t-54.5 -18q-37 0 -64.5 26t-27.5 60zM500 176q0 30 14 62l109 270l-109 258q-14 32 -14 63 q0 34 27.5 60t64.5 26q32 0 54.5 -17.5t39.5 -57.5l119 -279q14 -41 14 -55q0 -21 -14 -55l-119 -285q-33 -76 -94 -76q-37 0 -64.5 26t-27.5 60z" />
<glyph unicode="&#xbc;" horiz-adv-x="1781" d="M115 1169q0 37 45 68q68 43 98 68q53 41 74.5 51t52.5 10q62 0 107 -45q21 -23 28.5 -49.5t7.5 -77.5v-483q0 -22 9.5 -31.5t31.5 -9.5h11q29 0 48 -17t19 -45q0 -29 -20 -45t-56 -16h-299q-35 0 -55 16t-20 45t19.5 45.5t53.5 16.5h23q22 0 31.5 9.5t9.5 31.5v401 q0 41 -35 41q-10 0 -39 -23q-44 -32 -78 -32q-27 0 -47 21t-20 50zM463 72q0 21 18 57l686 1184q31 53 74 53q30 0 53 -22t23 -50q0 -25 -19 -57l-684 -1184q-17 -29 -33.5 -41t-41.5 -12q-29 0 -52.5 22t-23.5 50zM1059 324q0 38 39 90l250 319q37 47 68.5 66.5t72.5 19.5 q60 0 104 -41q28 -25 38.5 -57.5t10.5 -89.5v-262q0 -22 8.5 -30.5t30.5 -10.5q28 -1 45 -18t17 -42q0 -23 -16 -42t-35 -19h-23h-6q-7 0 -14 -12.5t-7 -26.5q0 -20 10.5 -30t35.5 -15q55 -9 55 -60q0 -63 -76 -63h-264q-76 0 -76 61q0 29 19 46.5t51 17.5h18q41 0 41 37v8 q0 37 -41 37h-215q-68 0 -104.5 30t-36.5 87zM1210 328h246v327z" />
<glyph unicode="&#xbd;" horiz-adv-x="1781" d="M115 1169q0 37 45 68q68 43 98 68q53 41 74.5 51t52.5 10q62 0 107 -45q21 -23 28.5 -49.5t7.5 -77.5v-483q0 -22 9.5 -31.5t31.5 -9.5h11q29 0 48 -17t19 -45q0 -29 -20 -45t-56 -16h-299q-35 0 -55 16t-20 45t19.5 45.5t53.5 16.5h23q22 0 31.5 9.5t9.5 31.5v401 q0 41 -35 41q-10 0 -39 -23q-44 -32 -78 -32q-27 0 -47 21t-20 50zM463 72q0 21 18 57l686 1184q31 53 74 53q30 0 53 -22t23 -50q0 -25 -19 -57l-684 -1184q-17 -29 -33.5 -41t-41.5 -12q-29 0 -52.5 22t-23.5 50zM1057 100q0 44 37 78q4 2 168 135q138 114 202 191 q43 57 43 104q0 45 -29.5 73t-78.5 28q-57 0 -86.5 -30t-36.5 -97q-6 -46 -31.5 -71.5t-66.5 -25.5q-40 0 -69.5 28.5t-29.5 68.5q0 46 24.5 98.5t61.5 83.5q81 72 238 72q143 0 224 -61.5t81 -170.5q0 -54 -20.5 -96.5t-71.5 -95.5q-67 -69 -137.5 -128t-204.5 -159h242 q22 0 30 9t10 32q1 37 24.5 60.5t57.5 23.5q40 0 62 -27t22 -76v-45q0 -52 -27.5 -77t-86.5 -25h-430q-57 0 -89 26.5t-32 73.5z" />
<glyph unicode="&#xbe;" horiz-adv-x="1781" d="M51 764q0 43 29 72.5t70 29.5q85 0 100 -100q15 -109 123 -109q55 0 90 33t35 86q0 69 -52 101q-24 14 -42 18t-82 8q-28 1 -45 18.5t-17 43.5q0 35 29 53q16 8 80 12q52 1 84 34.5t32 84.5q0 49 -31 77.5t-85 28.5q-110 0 -121 -112q-6 -45 -32 -70.5t-66 -25.5 q-42 0 -70.5 28.5t-28.5 71.5q0 44 22.5 90.5t59.5 77.5q88 67 238 67q146 0 227.5 -60.5t81.5 -168.5q0 -77 -38.5 -121.5t-121.5 -64.5q93 -25 133.5 -70.5t40.5 -126.5q0 -116 -83 -178t-238 -62q-171 0 -254 80q-31 31 -49.5 72.5t-18.5 81.5zM463 72q0 21 18 57 l686 1184q31 53 74 53q29 0 52.5 -22t23.5 -50q0 -25 -19 -57l-684 -1184q-17 -29 -33.5 -41t-41.5 -12q-29 0 -52.5 22t-23.5 50zM1059 324q0 38 39 90l250 319q37 47 68.5 66.5t72.5 19.5q60 0 104 -41q28 -25 38.5 -57.5t10.5 -89.5v-262q0 -22 8.5 -30.5t30.5 -10.5 q28 -1 45 -18t17 -42q0 -23 -16 -42t-35 -19h-23h-6q-7 0 -14 -12.5t-7 -26.5q0 -20 10.5 -30t35.5 -15q55 -9 55 -60q0 -63 -76 -63h-264q-76 0 -76 61q0 29 19 46.5t51 17.5h18q41 0 41 37v8q0 37 -41 37h-215q-68 0 -104.5 30t-36.5 87zM1210 328h246v327z" />
<glyph unicode="&#xbf;" horiz-adv-x="1046" d="M68 -55q0 190 178 340l73 63q97 78 103 160q13 80 108 80h56q104 0 104 -107q0 -77 -29 -130.5t-108 -125.5l-78 -71q-66 -60 -91.5 -108t-25.5 -114q0 -85 43 -130.5t123 -45.5q129 0 164 119q26 92 129 92q57 0 91 -29.5t34 -80.5q0 -76 -63 -148t-149 -105.5 t-210 -33.5q-210 0 -331 100.5t-121 274.5zM401 831q0 67 47 114.5t113 47.5q67 0 115.5 -48.5t48.5 -115.5q0 -66 -46.5 -112.5t-113.5 -46.5q-69 0 -116.5 46t-47.5 115z" />
<glyph unicode="&#xc0;" horiz-adv-x="1583" d="M12 94q0 38 27 64t67 28q19 0 27 6t14 23l445 1073q20 47 43 62.5t74 15.5h174q51 0 73 -15.5t41 -62.5l441 -1073q8 -17 16 -23t27 -6q40 -2 67 -28t27 -64q0 -44 -30.5 -69t-84.5 -25h-381q-54 0 -83 24.5t-29 69.5q0 40 28.5 66t73.5 26h18q19 0 30 9t11 24q0 5 -4 21 l-57 149q-8 17 -16 23t-27 6h-500q-19 0 -27 -6t-14 -23l-59 -149q-4 -16 -4 -23q0 -14 11 -22.5t30 -8.5h20q44 0 73.5 -26t29.5 -66q0 -44 -30.5 -69t-84.5 -25h-342q-54 0 -84.5 25t-30.5 69zM567 1716q0 48 41 76l25 20q34 27 63 27t48.5 -13t43.5 -46l115 -176 q27 -42 27 -68q0 -31 -26 -55.5t-60 -24.5q-35 0 -70 35l-160 141q-27 24 -37 42t-10 42zM582 631q0 -14 11 -22.5t30 -8.5h303q19 0 30 9t11 24q0 4 -4 20l-187 484l-190 -484q-4 -16 -4 -22z" />
<glyph unicode="&#xc1;" horiz-adv-x="1583" d="M12 94q0 38 27 64t67 28q19 0 27 6t14 23l445 1073q20 47 43 62.5t74 15.5h174q51 0 73 -15.5t41 -62.5l441 -1073q8 -17 16 -23t27 -6q40 -2 67 -28t27 -64q0 -44 -30.5 -69t-84.5 -25h-381q-54 0 -83 24.5t-29 69.5q0 40 28.5 66t73.5 26h18q19 0 30 9t11 24q0 5 -4 21 l-57 149q-8 17 -16 23t-27 6h-500q-19 0 -27 -6t-14 -23l-59 -149q-4 -16 -4 -23q0 -14 11 -22.5t30 -8.5h20q44 0 73.5 -26t29.5 -66q0 -44 -30.5 -69t-84.5 -25h-342q-54 0 -84.5 25t-30.5 69zM582 631q0 -14 11 -22.5t30 -8.5h303q19 0 30 9t11 24q0 4 -4 20l-187 484 l-190 -484q-4 -16 -4 -22zM721 1536q0 25 24 68l123 186q22 32 43 45.5t50 13.5q24 0 57 -20l24 -17q48 -28 48 -81q0 -37 -46 -80l-165 -158q-37 -37 -72 -37q-34 0 -60 24.5t-26 55.5z" />
<glyph unicode="&#xc2;" horiz-adv-x="1583" d="M12 94q0 38 27 64t67 28q19 0 27 6t14 23l445 1073q20 47 43 62.5t74 15.5h174q51 0 73 -15.5t41 -62.5l441 -1073q8 -17 16 -23t27 -6q40 -2 67 -28t27 -64q0 -44 -30.5 -69t-84.5 -25h-381q-54 0 -83 24.5t-29 69.5q0 40 28.5 66t73.5 26h18q19 0 30 9t11 24q0 5 -4 21 l-57 149q-8 17 -16 23t-27 6h-500q-19 0 -27 -6t-14 -23l-59 -149q-4 -16 -4 -23q0 -14 11 -22.5t30 -8.5h20q44 0 73.5 -26t29.5 -66q0 -44 -30.5 -69t-84.5 -25h-342q-54 0 -84.5 25t-30.5 69zM555 1561q0 22 27 61l110 141q29 37 51.5 50.5t53.5 13.5q32 0 55 -14.5 t51 -51.5l98 -133q29 -37 29 -65q0 -29 -25 -52.5t-57 -23.5q-42 0 -74 49l-83 123l-89 -127q-31 -45 -69 -45q-32 0 -55 22t-23 52zM582 631q0 -14 11 -22.5t30 -8.5h303q19 0 30 9t11 24q0 4 -4 20l-187 484l-190 -484q-4 -16 -4 -22z" />
<glyph unicode="&#xc3;" horiz-adv-x="1583" d="M12 94q0 38 27 64t67 28q19 0 27 6t14 23l445 1073q20 47 43 62.5t74 15.5h174q51 0 73 -15.5t41 -62.5l441 -1073q8 -17 16 -23t27 -6q40 -2 67 -28t27 -64q0 -44 -30.5 -69t-84.5 -25h-381q-54 0 -83 24.5t-29 69.5q0 40 28.5 66t73.5 26h18q19 0 30 9t11 24q0 5 -4 21 l-57 149q-8 17 -16 23t-27 6h-500q-19 0 -27 -6t-14 -23l-59 -149q-4 -16 -4 -23q0 -14 11 -22.5t30 -8.5h20q44 0 73.5 -26t29.5 -66q0 -44 -30.5 -69t-84.5 -25h-342q-54 0 -84.5 25t-30.5 69zM485 1546q0 54 39 115q56 80 133 80q58 0 144 -35q82 -31 110 -31q22 0 40 11 t26 28q13 27 26 37t35 10q31 0 47.5 -18.5t16.5 -50.5q0 -73 -54 -132t-122 -59q-44 0 -140 35q-89 31 -114 31q-24 0 -38.5 -9.5t-29.5 -35.5q-15 -25 -27.5 -34t-31.5 -9q-28 0 -44 18t-16 49zM582 631q0 -14 11 -22.5t30 -8.5h303q19 0 30 9t11 24q0 4 -4 20l-187 484 l-190 -484q-4 -16 -4 -22z" />
<glyph unicode="&#xc4;" horiz-adv-x="1583" d="M12 94q0 38 27 64t67 28q19 0 27 6t14 23l445 1073q20 47 43 62.5t74 15.5h174q51 0 73 -15.5t41 -62.5l441 -1073q8 -17 16 -23t27 -6q40 -2 67 -28t27 -64q0 -44 -30.5 -69t-84.5 -25h-381q-54 0 -83 24.5t-29 69.5q0 40 28.5 66t73.5 26h18q19 0 30 9t11 24q0 5 -4 21 l-57 149q-8 17 -16 23t-27 6h-500q-19 0 -27 -6t-14 -23l-59 -149q-4 -16 -4 -23q0 -14 11 -22.5t30 -8.5h20q44 0 73.5 -26t29.5 -66q0 -44 -30.5 -69t-84.5 -25h-342q-54 0 -84.5 25t-30.5 69zM483 1599q0 51 33.5 84t85.5 33q51 0 84 -34t33 -87q0 -47 -34 -80.5 t-83 -33.5q-53 0 -86 33t-33 85zM582 631q0 -14 11 -22.5t30 -8.5h303q19 0 30 9t11 24q0 4 -4 20l-187 484l-190 -484q-4 -16 -4 -22zM872 1599q0 51 33.5 84t85.5 33q51 0 84 -34t33 -87q0 -47 -34 -80.5t-83 -33.5q-53 0 -86 33t-33 85z" />
<glyph unicode="&#xc5;" horiz-adv-x="1583" d="M12 94q0 38 27 64t67 28q19 0 27 6t14 23l445 1073q20 47 43 62.5t74 15.5h174q51 0 73 -15.5t41 -62.5l441 -1073q8 -17 16 -23t27 -6q40 -2 67 -28t27 -64q0 -44 -30.5 -69t-84.5 -25h-381q-54 0 -83 24.5t-29 69.5q0 40 28.5 66t73.5 26h18q19 0 30 9t11 24q0 5 -4 21 l-57 149q-8 17 -16 23t-27 6h-500q-19 0 -27 -6t-14 -23l-59 -149q-4 -16 -4 -23q0 -14 11 -22.5t30 -8.5h20q44 0 73.5 -26t29.5 -66q0 -44 -30.5 -69t-84.5 -25h-342q-54 0 -84.5 25t-30.5 69zM573 1667q0 92 64.5 155.5t157.5 63.5q89 0 153 -65t64 -154q0 -91 -64 -155 t-155 -64t-155.5 64t-64.5 155zM582 631q0 -14 11 -22.5t30 -8.5h303q19 0 30 9t11 24q0 4 -4 20l-187 484l-190 -484q-4 -16 -4 -22zM678 1667q0 -47 34 -81t81 -34t80.5 34t33.5 81q0 46 -33.5 80.5t-78.5 34.5q-49 0 -83 -33.5t-34 -81.5z" />
<glyph unicode="&#xc6;" horiz-adv-x="2078" d="M10 92q0 40 19.5 66.5t50.5 27.5q12 0 17.5 5t11.5 20l575 1087q22 41 44 54.5t69 13.5h1054q61 0 88 -27t27 -88v-161q0 -68 -31 -106t-86 -38t-85.5 37.5t-30.5 103.5v52q0 22 -9.5 31.5t-31.5 9.5h-498q-41 0 -41 -33q0 -10 2 -14l53 -306q3 -20 12 -27t31 -7h135 q22 0 31.5 9.5t9.5 31.5v20q0 47 28 77t71 30q46 0 72 -31t26 -88v-283q0 -57 -26 -89t-72 -32q-43 0 -71 31t-28 78v18q0 23 -9.5 32t-31.5 9h-92q-46 0 -43 -33q0 -8 2 -14l58 -338q4 -20 13.5 -27.5t29.5 -7.5h348q22 0 31.5 9.5t9.5 31.5v68q0 69 30.5 106t86.5 37 q55 0 85.5 -37.5t30.5 -105.5v-180q0 -62 -26.5 -88.5t-87.5 -26.5h-881q-55 0 -85 24.5t-30 69.5q0 41 30 66.5t79 25.5h29q20 0 31 9t9 24q0 8 -2 14l-24 146q-3 22 -12 29.5t-29 7.5h-471q-18 0 -25.5 -5t-15.5 -20l-82 -147q-8 -11 -8 -25q0 -15 11 -24t30 -9h14 q43 0 70.5 -26t27.5 -66q0 -45 -29.5 -69.5t-84.5 -24.5h-326q-37 0 -57.5 24.5t-20.5 67.5zM588 629q0 -14 11 -22.5t30 -8.5h303q41 0 41 33v14l-78 438q-6 37 -35 37q-21 0 -33 -24l-233 -443q-6 -12 -6 -24z" />
<glyph unicode="&#xc7;" horiz-adv-x="1447" d="M70 694q0 328 171 514.5t472 186.5q132 0 220.5 -35.5t170.5 -120.5q6 -6 12 -6q11 0 14 18q5 53 36.5 84t80.5 31q56 0 86.5 -37t30.5 -104v-240q0 -61 -35 -96t-96 -35q-60 0 -93.5 30.5t-56.5 108.5q-17 57 -37 87.5t-57 58.5q-88 63 -219 63q-194 0 -296.5 -136 t-102.5 -392q0 -245 102.5 -377.5t292.5 -132.5q126 0 201 61q31 23 44 41.5t44 79.5q34 71 69 98t93 27q60 0 97.5 -35t37.5 -92q0 -66 -58.5 -142.5t-152.5 -135.5q-77 -48 -162.5 -70t-204.5 -23l-61 -100q-2 -2 -2 -6q0 -1 2.5 -3.5t3.5 -2.5l106 4q13 0 45 -17t50 -32 q40 -40 40 -99q0 -75 -67 -125.5t-168 -50.5q-67 0 -134 10.5t-89 24.5q-19 13 -19 37q0 19 13 32t30 13q8 0 92 -25q18 -6 50 -6q59 0 92 21t33 59q0 32 -25.5 53t-65.5 21q-24 0 -59 -8q-4 -2 -12 -2q-17 0 -32 13t-15 28q0 10 6 16l92 149q-296 28 -453 212.5t-157 504.5 z" />
<glyph unicode="&#xc8;" horiz-adv-x="1409" d="M61 94q0 41 30 66.5t77 25.5h27q22 0 31.5 9.5t9.5 31.5v912q0 22 -9.5 31.5t-31.5 9.5h-27q-48 0 -77.5 26t-29.5 68q0 43 30.5 67.5t84.5 24.5h1014q62 0 88.5 -27t26.5 -88v-159q0 -68 -31 -106t-86 -38t-86 38t-31 104v49q0 22 -9.5 31.5t-31.5 9.5h-465 q-22 0 -31.5 -9.5t-9.5 -31.5v-310q0 -23 9.5 -33t31.5 -10h142q22 0 31.5 10t9.5 33v15q0 46 27.5 75t70.5 29q46 0 72 -31.5t26 -89.5v-272q0 -57 -26 -88t-72 -31q-43 0 -70.5 29.5t-27.5 75.5v16q0 22 -9.5 31.5t-31.5 9.5h-142q-22 0 -31.5 -9.5t-9.5 -31.5v-330 q0 -22 9.5 -31.5t31.5 -9.5h465q22 0 31.5 9.5t9.5 31.5v66q0 68 31 105.5t86 37.5t86 -37.5t31 -105.5v-178q0 -61 -26.5 -88t-88.5 -27h-1014q-54 0 -84.5 25t-30.5 69zM512 1716q0 43 41 76l25 20q34 27 65 27q28 0 48 -13.5t42 -45.5l117 -176q24 -43 24 -68 q0 -31 -26 -55.5t-60 -24.5q-31 0 -69 35l-160 141q-47 42 -47 84z" />
<glyph unicode="&#xc9;" horiz-adv-x="1409" d="M61 94q0 41 30 66.5t77 25.5h27q22 0 31.5 9.5t9.5 31.5v912q0 22 -9.5 31.5t-31.5 9.5h-27q-48 0 -77.5 26t-29.5 68q0 43 30.5 67.5t84.5 24.5h1014q62 0 88.5 -27t26.5 -88v-159q0 -68 -31 -106t-86 -38t-86 38t-31 104v49q0 22 -9.5 31.5t-31.5 9.5h-465 q-22 0 -31.5 -9.5t-9.5 -31.5v-310q0 -23 9.5 -33t31.5 -10h142q22 0 31.5 10t9.5 33v15q0 46 27.5 75t70.5 29q46 0 72 -31.5t26 -89.5v-272q0 -57 -26 -88t-72 -31q-43 0 -70.5 29.5t-27.5 75.5v16q0 22 -9.5 31.5t-31.5 9.5h-142q-22 0 -31.5 -9.5t-9.5 -31.5v-330 q0 -22 9.5 -31.5t31.5 -9.5h465q22 0 31.5 9.5t9.5 31.5v66q0 68 31 105.5t86 37.5t86 -37.5t31 -105.5v-178q0 -61 -26.5 -88t-88.5 -27h-1014q-54 0 -84.5 25t-30.5 69zM602 1536q0 29 25 68l123 186q22 32 42.5 45.5t49.5 13.5q24 0 57 -20l25 -17q45 -28 45 -81 q0 -40 -43 -80l-166 -158q-40 -37 -72 -37q-34 0 -60 24.5t-26 55.5z" />
<glyph unicode="&#xca;" horiz-adv-x="1409" d="M61 94q0 41 30 66.5t77 25.5h27q22 0 31.5 9.5t9.5 31.5v912q0 22 -9.5 31.5t-31.5 9.5h-27q-48 0 -77.5 26t-29.5 68q0 43 30.5 67.5t84.5 24.5h1014q62 0 88.5 -27t26.5 -88v-159q0 -68 -31 -106t-86 -38t-86 38t-31 104v49q0 22 -9.5 31.5t-31.5 9.5h-465 q-22 0 -31.5 -9.5t-9.5 -31.5v-310q0 -23 9.5 -33t31.5 -10h142q22 0 31.5 10t9.5 33v15q0 46 27.5 75t70.5 29q46 0 72 -31.5t26 -89.5v-272q0 -57 -26 -88t-72 -31q-43 0 -70.5 29.5t-27.5 75.5v16q0 22 -9.5 31.5t-31.5 9.5h-142q-22 0 -31.5 -9.5t-9.5 -31.5v-330 q0 -22 9.5 -31.5t31.5 -9.5h465q22 0 31.5 9.5t9.5 31.5v66q0 68 31 105.5t86 37.5t86 -37.5t31 -105.5v-178q0 -61 -26.5 -88t-88.5 -27h-1014q-54 0 -84.5 25t-30.5 69zM487 1561q0 22 27 61l111 141q29 37 51 50.5t53 13.5q32 0 55.5 -14.5t51.5 -51.5l98 -133 q29 -37 29 -65q0 -29 -25 -52.5t-57 -23.5q-42 0 -74 49l-84 123l-88 -127q-31 -45 -70 -45q-32 0 -55 22t-23 52z" />
<glyph unicode="&#xcb;" horiz-adv-x="1409" d="M61 94q0 41 30 66.5t77 25.5h27q22 0 31.5 9.5t9.5 31.5v912q0 22 -9.5 31.5t-31.5 9.5h-27q-48 0 -77.5 26t-29.5 68q0 43 30.5 67.5t84.5 24.5h1014q62 0 88.5 -27t26.5 -88v-159q0 -68 -31 -106t-86 -38t-86 38t-31 104v49q0 22 -9.5 31.5t-31.5 9.5h-465 q-22 0 -31.5 -9.5t-9.5 -31.5v-310q0 -23 9.5 -33t31.5 -10h142q22 0 31.5 10t9.5 33v15q0 46 27.5 75t70.5 29q46 0 72 -31.5t26 -89.5v-272q0 -57 -26 -88t-72 -31q-43 0 -70.5 29.5t-27.5 75.5v16q0 22 -9.5 31.5t-31.5 9.5h-142q-22 0 -31.5 -9.5t-9.5 -31.5v-330 q0 -22 9.5 -31.5t31.5 -9.5h465q22 0 31.5 9.5t9.5 31.5v66q0 68 31 105.5t86 37.5t86 -37.5t31 -105.5v-178q0 -61 -26.5 -88t-88.5 -27h-1014q-54 0 -84.5 25t-30.5 69zM459 1599q0 51 33.5 84t85.5 33q51 0 83.5 -34t32.5 -87q0 -48 -33.5 -81t-82.5 -33q-53 0 -86 33 t-33 85zM848 1599q0 51 33.5 84t85.5 33q51 0 83.5 -34t32.5 -87q0 -48 -33.5 -81t-82.5 -33q-53 0 -86 33t-33 85z" />
<glyph unicode="&#xcc;" horiz-adv-x="788" d="M70 94q0 42 29 67t79 25h31q22 0 31.5 9.5t9.5 31.5v912q0 22 -9.5 31.5t-31.5 9.5h-31q-51 0 -79.5 25.5t-28.5 68.5t29 67.5t83 24.5h424q55 0 85 -24.5t30 -67.5q0 -44 -29 -69t-80 -25h-32q-22 0 -31.5 -9.5t-9.5 -31.5v-912q0 -22 9.5 -31.5t31.5 -9.5h32 q51 0 80 -24.5t29 -67.5q0 -45 -30 -69.5t-85 -24.5h-424q-54 0 -83 24.5t-29 69.5zM170 1716q0 47 39 76l27 20q34 27 63 27t48.5 -13t41.5 -46l117 -176q24 -38 24 -68q0 -31 -26 -55.5t-60 -24.5q-31 0 -69 35l-158 141q-47 42 -47 84z" />
<glyph unicode="&#xcd;" horiz-adv-x="788" d="M70 94q0 42 29 67t79 25h31q22 0 31.5 9.5t9.5 31.5v912q0 22 -9.5 31.5t-31.5 9.5h-31q-51 0 -79.5 25.5t-28.5 68.5t29 67.5t83 24.5h424q55 0 85 -24.5t30 -67.5q0 -44 -29 -69t-80 -25h-32q-22 0 -31.5 -9.5t-9.5 -31.5v-912q0 -22 9.5 -31.5t31.5 -9.5h32 q51 0 80 -24.5t29 -67.5q0 -45 -30 -69.5t-85 -24.5h-424q-54 0 -83 24.5t-29 69.5zM268 1536q0 29 25 68l123 186q22 32 42 45.5t48 13.5q21 0 59 -20l25 -17q45 -28 45 -81q0 -40 -45 -80l-166 -158q-37 -37 -70 -37q-34 0 -60 24.5t-26 55.5z" />
<glyph unicode="&#xce;" horiz-adv-x="788" d="M70 94q0 42 29 67t79 25h31q22 0 31.5 9.5t9.5 31.5v912q0 22 -9.5 31.5t-31.5 9.5h-31q-51 0 -79.5 25.5t-28.5 68.5t29 67.5t83 24.5h424q55 0 85 -24.5t30 -67.5q0 -44 -29 -69t-80 -25h-32q-22 0 -31.5 -9.5t-9.5 -31.5v-912q0 -22 9.5 -31.5t31.5 -9.5h32 q51 0 80 -24.5t29 -67.5q0 -45 -30 -69.5t-85 -24.5h-424q-54 0 -83 24.5t-29 69.5zM158 1561q0 24 26 61l111 141q27 36 50 50t54 14q32 0 54.5 -14.5t50.5 -51.5l100 -133q27 -39 27 -65q0 -29 -24.5 -52.5t-55.5 -23.5q-41 0 -76 49l-82 123l-88 -127q-31 -45 -72 -45 q-31 0 -53 22.5t-22 51.5z" />
<glyph unicode="&#xcf;" horiz-adv-x="788" d="M70 94q0 42 29 67t79 25h31q22 0 31.5 9.5t9.5 31.5v912q0 22 -9.5 31.5t-31.5 9.5h-31q-51 0 -79.5 25.5t-28.5 68.5t29 67.5t83 24.5h424q55 0 85 -24.5t30 -67.5q0 -44 -29 -69t-80 -25h-32q-22 0 -31.5 -9.5t-9.5 -31.5v-912q0 -22 9.5 -31.5t31.5 -9.5h32 q51 0 80 -24.5t29 -67.5q0 -45 -30 -69.5t-85 -24.5h-424q-54 0 -83 24.5t-29 69.5zM86 1599q0 51 33.5 84t85.5 33q51 0 84 -34t33 -87q0 -47 -34 -80.5t-83 -33.5q-53 0 -86 33t-33 85zM475 1599q0 51 33.5 84t85.5 33q51 0 84 -34t33 -87q0 -47 -34 -80.5t-83 -33.5 q-53 0 -86 33t-33 85z" />
<glyph unicode="&#xd0;" horiz-adv-x="1544" d="M63 94q0 41 30 66.5t77 25.5h27q22 0 31.5 9.5t9.5 31.5v400h-82q-43 0 -68 20t-25 55t24.5 55.5t68.5 20.5h82v361q0 22 -9.5 31.5t-31.5 9.5h-27q-48 0 -77.5 26t-29.5 68q0 43 30.5 67.5t84.5 24.5h582q346 0 531.5 -178t185.5 -510q0 -169 -55.5 -303.5 t-159.5 -220.5q-100 -82 -228 -118t-321 -36h-535q-54 0 -84.5 25t-30.5 69zM526 227q0 -22 9.5 -31.5t31.5 -9.5h95q145 0 232 27.5t150 93.5q130 133 130 379q0 248 -136 381q-60 60 -139.5 86.5t-198.5 26.5h-133q-22 0 -31.5 -9.5t-9.5 -31.5v-361h265q44 0 68 -20 t24 -56q0 -35 -24 -55t-68 -20h-265v-400z" />
<glyph unicode="&#xd1;" horiz-adv-x="1634" d="M63 94q0 41 29.5 66.5t75.5 25.5h27q22 0 31.5 9.5t9.5 31.5v912q0 22 -9.5 31.5t-31.5 9.5h-27q-47 0 -76 25.5t-29 68.5t30 67.5t83 24.5h379q47 0 68.5 -12.5t44.5 -53.5l407 -737q42 -77 68 -142t59 -175q-20 195 -20 311v547q0 52 -6.5 64t-34.5 12h-29 q-49 0 -78.5 25.5t-29.5 68.5t30 67.5t84 24.5h355q55 0 84.5 -24.5t29.5 -67.5q0 -41 -28 -67.5t-74 -26.5h-19q-22 0 -31.5 -9.5t-9.5 -31.5v-1024q0 -62 -26.5 -88.5t-87.5 -26.5h-174q-47 0 -68.5 12.5t-44.5 53.5l-436 790q-49 89 -74 145.5t-59 157.5q24 -229 24 -323 v-576q0 -51 6.5 -62.5t34.5 -11.5h29q49 0 77.5 -25t28.5 -67q0 -45 -29.5 -69.5t-84.5 -24.5h-363q-55 0 -85 24.5t-30 69.5zM510 1546q0 54 39 115q56 80 133 80q57 0 143 -35q82 -31 111 -31q22 0 39.5 11t25.5 28q13 27 26.5 37t35.5 10q30 0 46.5 -18t16.5 -51 q0 -73 -54 -132t-122 -59q-43 0 -139 35q-89 31 -115 31q-23 0 -37.5 -9.5t-29.5 -35.5q-15 -24 -28 -33.5t-32 -9.5q-28 0 -43.5 18t-15.5 49z" />
<glyph unicode="&#xd2;" horiz-adv-x="1568" d="M68 694q0 324 191 512.5t519 188.5q362 0 559 -221q162 -180 162 -480q0 -337 -190 -529t-523 -192q-350 0 -548 213q-88 95 -129 218t-41 290zM369 680q0 -248 107 -381t306 -133q92 0 171.5 34t131.5 97q111 131 111 385q0 217 -74 344q-49 82 -140.5 129t-199.5 47 q-109 0 -200 -47.5t-140 -130.5q-73 -127 -73 -344zM559 1716q0 47 39 76l25 20q37 27 65 27t48 -13.5t42 -45.5l117 -176q25 -39 25 -68q0 -31 -26 -55.5t-60 -24.5q-32 0 -70 35l-158 141q-27 24 -37 42t-10 42z" />
<glyph unicode="&#xd3;" horiz-adv-x="1568" d="M68 694q0 324 191 512.5t519 188.5q362 0 559 -221q162 -180 162 -480q0 -337 -190 -529t-523 -192q-350 0 -548 213q-88 95 -129 218t-41 290zM369 680q0 -248 107 -381t306 -133q92 0 171.5 34t131.5 97q111 131 111 385q0 217 -74 344q-49 82 -140.5 129t-199.5 47 q-109 0 -200 -47.5t-140 -130.5q-73 -127 -73 -344zM657 1536q0 32 25 68l123 186q22 32 42 45.5t48 13.5q21 0 59 -20l25 -17q45 -28 45 -81q0 -40 -45 -80l-166 -158q-37 -37 -70 -37q-34 0 -60 24.5t-26 55.5z" />
<glyph unicode="&#xd4;" horiz-adv-x="1568" d="M68 694q0 324 191 512.5t519 188.5q362 0 559 -221q162 -180 162 -480q0 -337 -190 -529t-523 -192q-350 0 -548 213q-88 95 -129 218t-41 290zM369 680q0 -248 107 -381t306 -133q92 0 171.5 34t131.5 97q111 131 111 385q0 217 -74 344q-49 82 -140.5 129t-199.5 47 q-109 0 -200 -47.5t-140 -130.5q-73 -127 -73 -344zM547 1561q0 24 26 61l111 141q27 36 50 50t54 14q32 0 54.5 -14.5t50.5 -51.5l100 -133q27 -39 27 -65q0 -29 -24.5 -52.5t-55.5 -23.5q-41 0 -76 49l-82 123l-88 -127q-31 -45 -71 -45q-31 0 -53.5 22.5t-22.5 51.5z" />
<glyph unicode="&#xd5;" horiz-adv-x="1568" d="M68 694q0 324 191 512.5t519 188.5q362 0 559 -221q162 -180 162 -480q0 -337 -190 -529t-523 -192q-350 0 -548 213q-88 95 -129 218t-41 290zM369 680q0 -248 107 -381t306 -133q92 0 171.5 34t131.5 97q111 131 111 385q0 217 -74 344q-49 82 -140.5 129t-199.5 47 q-109 0 -200 -47.5t-140 -130.5q-73 -127 -73 -344zM475 1546q0 54 39 115q56 80 133 80q58 0 144 -35q82 -31 110 -31q22 0 40 11t26 28q13 27 26 37t35 10q31 0 47.5 -18.5t16.5 -50.5q0 -73 -54.5 -132t-122.5 -59q-43 0 -139 35q-89 31 -114 31q-24 0 -38.5 -9.5 t-29.5 -35.5q-15 -25 -27.5 -34t-31.5 -9q-28 0 -44 18t-16 49z" />
<glyph unicode="&#xd6;" horiz-adv-x="1568" d="M68 694q0 324 191 512.5t519 188.5q362 0 559 -221q162 -180 162 -480q0 -337 -190 -529t-523 -192q-350 0 -548 213q-88 95 -129 218t-41 290zM369 680q0 -248 107 -381t306 -133q92 0 171.5 34t131.5 97q111 131 111 385q0 217 -74 344q-49 82 -140.5 129t-199.5 47 q-109 0 -200 -47.5t-140 -130.5q-73 -127 -73 -344zM473 1599q0 51 33.5 84t85.5 33q51 0 84 -34t33 -87q0 -47 -34 -80.5t-83 -33.5q-53 0 -86 33t-33 85zM862 1599q0 51 33.5 84t85.5 33q51 0 84 -34t33 -87q0 -47 -34 -80.5t-83 -33.5q-53 0 -86 33t-33 85z" />
<glyph unicode="&#xd7;" d="M166 1016q0 35 25.5 60.5t62.5 25.5q33 0 72 -39l241 -242l244 242q39 39 70 39q34 0 58 -25t24 -61q0 -34 -37 -68l-242 -243l242 -242q39 -39 39 -72q0 -35 -25.5 -60.5t-62.5 -25.5q-33 0 -72 39l-242 242l-241 -244q-40 -37 -70 -37q-35 0 -59.5 25.5t-24.5 60.5 q0 31 37 68l244 241l-244 244q-39 39 -39 72z" />
<glyph unicode="&#xd8;" horiz-adv-x="1568" d="M68 684q0 332 189.5 521.5t520.5 189.5q264 0 453 -125l90 96q28 35 59 35q29 0 49.5 -21.5t20.5 -50.5q0 -26 -29 -55l-86 -96q86 -97 125 -212.5t39 -273.5q0 -337 -190 -528t-523 -191q-257 0 -444 121l-98 -106q-29 -33 -58 -33t-49 20.5t-20 49.5q0 26 26 55l95 104 q-88 98 -129 219t-41 281zM369 678q0 -178 57 -301l637 723q-117 102 -281 102q-109 0 -201 -48t-139 -130q-73 -130 -73 -346zM512 262q111 -96 270 -96q94 0 173.5 34t131.5 97q111 129 111 381q0 182 -53 305z" />
<glyph unicode="&#xd9;" horiz-adv-x="1552" d="M53 1274q0 43 29.5 67.5t83.5 24.5h395q54 0 84.5 -24.5t30.5 -67.5q0 -44 -30 -69t-81 -25h-35q-22 0 -31.5 -9.5t-9.5 -31.5v-662q0 -77 14 -124t48 -87q83 -100 240 -100q154 0 231 102q40 47 57 107.5t17 150.5v613q0 22 -9.5 31.5t-31.5 9.5h-33q-50 0 -79.5 25.5 t-29.5 68.5t30.5 67.5t84.5 24.5h358q54 0 84.5 -24.5t30.5 -67.5q0 -41 -28 -67.5t-70 -26.5h-12q-22 0 -31.5 -9.5t-9.5 -31.5v-629q0 -255 -152.5 -396t-429.5 -141q-274 0 -424 144q-67 64 -105 158t-38 196v668q0 22 -9.5 31.5t-31.5 9.5h-10q-41 0 -69 27t-28 67z M551 1716q0 43 41 76l24 20q34 27 66 27q28 0 48 -13.5t42 -45.5l117 -176q24 -43 24 -68q0 -31 -26 -55.5t-60 -24.5q-31 0 -69 35l-160 141q-27 25 -37 43t-10 41z" />
<glyph unicode="&#xda;" horiz-adv-x="1552" d="M53 1274q0 43 29.5 67.5t83.5 24.5h395q54 0 84.5 -24.5t30.5 -67.5q0 -44 -30 -69t-81 -25h-35q-22 0 -31.5 -9.5t-9.5 -31.5v-662q0 -77 14 -124t48 -87q83 -100 240 -100q154 0 231 102q40 47 57 107.5t17 150.5v613q0 22 -9.5 31.5t-31.5 9.5h-33q-50 0 -79.5 25.5 t-29.5 68.5t30.5 67.5t84.5 24.5h358q54 0 84.5 -24.5t30.5 -67.5q0 -41 -28 -67.5t-70 -26.5h-12q-22 0 -31.5 -9.5t-9.5 -31.5v-629q0 -255 -152.5 -396t-429.5 -141q-274 0 -424 144q-67 64 -105 158t-38 196v668q0 22 -9.5 31.5t-31.5 9.5h-10q-41 0 -69 27t-28 67z M696 1536q0 26 27 68l123 186q22 33 41.5 46t48.5 13q21 0 59 -20l25 -17q45 -28 45 -81q0 -38 -45 -80l-166 -158q-37 -37 -72 -37q-34 0 -60 24.5t-26 55.5z" />
<glyph unicode="&#xdb;" horiz-adv-x="1552" d="M53 1274q0 43 29.5 67.5t83.5 24.5h395q54 0 84.5 -24.5t30.5 -67.5q0 -44 -30 -69t-81 -25h-35q-22 0 -31.5 -9.5t-9.5 -31.5v-662q0 -77 14 -124t48 -87q83 -100 240 -100q154 0 231 102q40 47 57 107.5t17 150.5v613q0 22 -9.5 31.5t-31.5 9.5h-33q-50 0 -79.5 25.5 t-29.5 68.5t30.5 67.5t84.5 24.5h358q54 0 84.5 -24.5t30.5 -67.5q0 -41 -28 -67.5t-70 -26.5h-12q-22 0 -31.5 -9.5t-9.5 -31.5v-629q0 -255 -152.5 -396t-429.5 -141q-274 0 -424 144q-67 64 -105 158t-38 196v668q0 22 -9.5 31.5t-31.5 9.5h-10q-41 0 -69 27t-28 67z M541 1561q0 24 26 61l111 141q28 37 50 50.5t54 13.5q31 0 54 -14.5t51 -51.5l100 -133q27 -39 27 -65q0 -29 -24.5 -52.5t-55.5 -23.5q-41 0 -76 49l-84 123l-86 -127q-31 -45 -72 -45q-30 0 -52.5 22.5t-22.5 51.5z" />
<glyph unicode="&#xdc;" horiz-adv-x="1552" d="M53 1274q0 43 29.5 67.5t83.5 24.5h395q54 0 84.5 -24.5t30.5 -67.5q0 -44 -30 -69t-81 -25h-35q-22 0 -31.5 -9.5t-9.5 -31.5v-662q0 -77 14 -124t48 -87q83 -100 240 -100q154 0 231 102q40 47 57 107.5t17 150.5v613q0 22 -9.5 31.5t-31.5 9.5h-33q-50 0 -79.5 25.5 t-29.5 68.5t30.5 67.5t84.5 24.5h358q54 0 84.5 -24.5t30.5 -67.5q0 -41 -28 -67.5t-70 -26.5h-12q-22 0 -31.5 -9.5t-9.5 -31.5v-629q0 -255 -152.5 -396t-429.5 -141q-274 0 -424 144q-67 64 -105 158t-38 196v668q0 22 -9.5 31.5t-31.5 9.5h-10q-41 0 -69 27t-28 67z M467 1599q0 51 33.5 84t85.5 33q51 0 83.5 -34t32.5 -87q0 -48 -33.5 -81t-82.5 -33q-53 0 -86 33t-33 85zM856 1599q0 51 33.5 84t85.5 33q51 0 84 -34t33 -87q0 -47 -34 -80.5t-83 -33.5q-53 0 -86 33t-33 85z" />
<glyph unicode="&#xdd;" horiz-adv-x="1423" d="M16 1274q0 43 25.5 67.5t69.5 24.5h399q54 0 84.5 -25t30.5 -69q0 -39 -28.5 -65.5t-70.5 -26.5h-10q-19 0 -30 -9t-11 -24q0 -14 10 -27l246 -375l248 375q10 17 10 27q0 30 -43 33t-68.5 28.5t-25.5 63.5q0 44 29.5 69t83.5 25h346q44 0 69 -25t25 -69q0 -38 -23 -65 t-57 -27q-13 0 -18.5 -3.5t-14.5 -17.5l-430 -622q-10 -14 -10 -33v-277q0 -22 9.5 -31.5t31.5 -9.5h55q55 0 85 -24.5t30 -67.5q0 -45 -30 -69.5t-85 -24.5h-477q-54 0 -84.5 25t-30.5 69q0 43 30.5 67.5t84.5 24.5h51q22 0 31.5 9.5t9.5 31.5v277q0 19 -10 33l-424 620 q-9 15 -14.5 19t-18.5 4q-34 0 -57 27t-23 67zM637 1536q0 32 25 68l122 186q22 32 42 45.5t48 13.5q22 0 60 -20l24 -17q46 -29 46 -81q0 -37 -46 -80l-165 -158q-37 -37 -70 -37q-34 0 -60 24.5t-26 55.5z" />
<glyph unicode="&#xde;" horiz-adv-x="1329" d="M59 94q0 41 30 66.5t77 25.5h29q22 0 31.5 10t9.5 33v910q0 22 -9.5 31.5t-31.5 9.5h-29q-48 0 -77.5 26t-29.5 68q0 43 30.5 67.5t84.5 24.5h242q52 0 80 -23t28 -65v-49q0 -22 9.5 -31.5t31.5 -9.5h248q216 0 339.5 -112.5t123.5 -309.5q0 -110 -42.5 -200.5 t-117.5 -143.5q-62 -42 -140 -60t-198 -18h-151q-103 0 -103 -80q0 -21 11 -40.5t28 -26.5q25 -11 80 -11q43 0 70.5 -26t27.5 -66q0 -45 -29 -69.5t-83 -24.5h-455q-54 0 -84.5 25t-30.5 69zM524 571q0 -22 9.5 -31.5t31.5 -9.5h133q76 0 120.5 11t76.5 39q78 63 78 186 q0 235 -275 235h-133q-22 0 -31.5 -9t-9.5 -31v-390z" />
<glyph unicode="&#xdf;" horiz-adv-x="1253" d="M31 90q0 38 26 63t66 25h10q22 0 31.5 10t9.5 33v733q0 124 27 202t90 138q69 63 161 92t222 29q224 0 343.5 -93t119.5 -267q0 -149 -107 -230q-36 -27 -81 -42t-126 -27q96 -9 152 -28t102 -58q115 -93 115 -271q0 -127 -54.5 -221.5t-154.5 -140.5q-84 -37 -223 -37 q-46 0 -71 25t-25 71q0 53 36 76q12 8 62 14q23 3 53 26.5t49 51.5q39 59 39 148q0 109 -45 165.5t-145 71.5q-115 15 -115 105q0 43 25 66.5t84 37.5q141 29 141 193q0 94 -47.5 143t-136.5 49q-105 0 -160 -61q-49 -57 -49 -203v-758q0 -23 6.5 -32t23.5 -11 q32 -3 51 -27.5t19 -62.5q0 -41 -22 -64.5t-60 -23.5h-334q-51 0 -79.5 23.5t-28.5 66.5z" />
<glyph unicode="&#xe0;" horiz-adv-x="1189" d="M72 281q0 91 46.5 161.5t133.5 110.5q49 23 138.5 37t187.5 14l161 -4q12 0 21.5 9.5t9.5 21.5v6q0 99 -45.5 141.5t-151.5 42.5q-72 0 -111.5 -18.5t-64.5 -63.5q-20 -39 -46.5 -53t-80.5 -14q-61 0 -98 27t-37 71q0 38 32 81.5t87 80.5q112 76 313 76q239 0 350 -92.5 t111 -290.5v-404q0 -23 9.5 -33t31.5 -10h8q40 0 67 -25t27 -63q0 -43 -28.5 -66.5t-79.5 -23.5h-166q-52 0 -80.5 23.5t-28.5 66.5v27q0 18 -14 18q-6 0 -14 -8q-78 -93 -143 -123.5t-183 -30.5q-170 0 -266 81.5t-96 226.5zM340 293q0 -61 44.5 -97t121.5 -36 q126 0 196 76q28 31 49 87t21 97q0 19 -15 26t-55 7q-158 0 -245 -23q-56 -17 -86.5 -52.5t-30.5 -84.5zM373 1348q0 47 41 75l24 21q33 26 66 26q27 0 46.5 -13t43.5 -46l117 -176q24 -43 24 -68q0 -31 -26 -55.5t-60 -24.5t-69 35l-160 142q-27 24 -37 42t-10 42z" />
<glyph unicode="&#xe1;" horiz-adv-x="1189" d="M72 281q0 91 46.5 161.5t133.5 110.5q49 23 138.5 37t187.5 14l161 -4q12 0 21.5 9.5t9.5 21.5v6q0 99 -45.5 141.5t-151.5 42.5q-72 0 -111.5 -18.5t-64.5 -63.5q-20 -39 -46.5 -53t-80.5 -14q-61 0 -98 27t-37 71q0 38 32 81.5t87 80.5q112 76 313 76q239 0 350 -92.5 t111 -290.5v-404q0 -23 9.5 -33t31.5 -10h8q40 0 67 -25t27 -63q0 -43 -28.5 -66.5t-79.5 -23.5h-166q-52 0 -80.5 23.5t-28.5 66.5v27q0 18 -14 18q-6 0 -14 -8q-78 -93 -143 -123.5t-183 -30.5q-170 0 -266 81.5t-96 226.5zM340 293q0 -61 44.5 -97t121.5 -36 q126 0 196 76q28 31 49 87t21 97q0 19 -15 26t-55 7q-158 0 -245 -23q-56 -17 -86.5 -52.5t-30.5 -84.5zM481 1155q0 24 27 66l121 186q22 32 42.5 45.5t49.5 13.5q27 0 57 -20l25 -14q47 -30 47 -82q0 -40 -45 -82l-166 -158q-40 -37 -72 -37q-34 0 -60 25t-26 57z" />
<glyph unicode="&#xe2;" horiz-adv-x="1189" d="M72 281q0 91 46.5 161.5t133.5 110.5q49 23 138.5 37t187.5 14l161 -4q12 0 21.5 9.5t9.5 21.5v6q0 99 -45.5 141.5t-151.5 42.5q-72 0 -111.5 -18.5t-64.5 -63.5q-20 -39 -46.5 -53t-80.5 -14q-61 0 -98 27t-37 71q0 38 32 81.5t87 80.5q112 76 313 76q239 0 350 -92.5 t111 -290.5v-404q0 -23 9.5 -33t31.5 -10h8q40 0 67 -25t27 -63q0 -43 -28.5 -66.5t-79.5 -23.5h-166q-52 0 -80.5 23.5t-28.5 66.5v27q0 18 -14 18q-6 0 -14 -8q-78 -93 -143 -123.5t-183 -30.5q-170 0 -266 81.5t-96 226.5zM340 293q0 -61 44.5 -97t121.5 -36 q126 0 196 76q28 31 49 87t21 97q0 19 -15 26t-55 7q-158 0 -245 -23q-56 -17 -86.5 -52.5t-30.5 -84.5zM365 1165q0 27 26 60l111 143q26 34 49.5 48t54.5 14t55 -14.5t50 -49.5l100 -133q27 -39 27 -66q0 -29 -24.5 -52t-55.5 -23q-41 0 -76 49l-84 121l-86 -125 q-19 -26 -34.5 -36.5t-37.5 -10.5q-31 0 -53 22t-22 53z" />
<glyph unicode="&#xe3;" horiz-adv-x="1189" d="M72 281q0 91 46.5 161.5t133.5 110.5q49 23 138.5 37t187.5 14l161 -4q12 0 21.5 9.5t9.5 21.5v6q0 99 -45.5 141.5t-151.5 42.5q-72 0 -111.5 -18.5t-64.5 -63.5q-20 -39 -46.5 -53t-80.5 -14q-61 0 -98 27t-37 71q0 38 32 81.5t87 80.5q112 76 313 76q239 0 350 -92.5 t111 -290.5v-404q0 -23 9.5 -33t31.5 -10h8q40 0 67 -25t27 -63q0 -43 -28.5 -66.5t-79.5 -23.5h-166q-52 0 -80.5 23.5t-28.5 66.5v27q0 18 -14 18q-6 0 -14 -8q-78 -93 -143 -123.5t-183 -30.5q-170 0 -266 81.5t-96 226.5zM276 1163q0 56 39 117q56 80 134 80 q57 0 143 -35q83 -33 110 -33q22 0 40 11t26 28q13 27 26 37t35 10q31 0 47.5 -18.5t16.5 -50.5q0 -73 -54 -132t-122 -59q-40 0 -139 35q-88 33 -115 33q-23 0 -38 -10.5t-30 -36.5q-15 -25 -27.5 -34t-31.5 -9q-28 0 -44 18t-16 49zM340 293q0 -61 44.5 -97t121.5 -36 q126 0 196 76q28 31 49 87t21 97q0 19 -15 26t-55 7q-158 0 -245 -23q-56 -17 -86.5 -52.5t-30.5 -84.5z" />
<glyph unicode="&#xe4;" horiz-adv-x="1189" d="M72 281q0 91 46.5 161.5t133.5 110.5q49 23 138.5 37t187.5 14l161 -4q12 0 21.5 9.5t9.5 21.5v6q0 99 -45.5 141.5t-151.5 42.5q-72 0 -111.5 -18.5t-64.5 -63.5q-20 -39 -46.5 -53t-80.5 -14q-61 0 -98 27t-37 71q0 38 32 81.5t87 80.5q112 76 313 76q239 0 350 -92.5 t111 -290.5v-404q0 -23 9.5 -33t31.5 -10h8q40 0 67 -25t27 -63q0 -43 -28.5 -66.5t-79.5 -23.5h-166q-52 0 -80.5 23.5t-28.5 66.5v27q0 18 -14 18q-6 0 -14 -8q-78 -93 -143 -123.5t-183 -30.5q-170 0 -266 81.5t-96 226.5zM258 1260q0 51 33.5 83.5t85.5 32.5 q51 0 84 -34t33 -87q0 -47 -34 -80.5t-83 -33.5q-53 0 -86 33.5t-33 85.5zM340 293q0 -61 44.5 -97t121.5 -36q126 0 196 76q28 31 49 87t21 97q0 19 -15 26t-55 7q-158 0 -245 -23q-56 -17 -86.5 -52.5t-30.5 -84.5zM647 1260q0 51 33.5 83.5t85.5 32.5q51 0 84 -34t33 -87 q0 -47 -34 -80.5t-83 -33.5q-52 0 -85.5 33.5t-33.5 85.5z" />
<glyph unicode="&#xe5;" horiz-adv-x="1189" d="M72 281q0 91 46.5 161.5t133.5 110.5q49 23 138.5 37t187.5 14l161 -4q12 0 21.5 9.5t9.5 21.5v6q0 99 -45.5 141.5t-151.5 42.5q-72 0 -111.5 -18.5t-64.5 -63.5q-20 -39 -46.5 -53t-80.5 -14q-61 0 -98 27t-37 71q0 38 32 81.5t87 80.5q112 76 313 76q239 0 350 -92.5 t111 -290.5v-404q0 -23 9.5 -33t31.5 -10h8q40 0 67 -25t27 -63q0 -43 -28.5 -66.5t-79.5 -23.5h-166q-52 0 -80.5 23.5t-28.5 66.5v27q0 18 -14 18q-6 0 -14 -8q-78 -93 -143 -123.5t-183 -30.5q-170 0 -266 81.5t-96 226.5zM340 293q0 -61 44.5 -97t121.5 -36 q126 0 196 76q28 31 49 87t21 97q0 19 -15 26t-55 7q-158 0 -245 -23q-56 -17 -86.5 -52.5t-30.5 -84.5zM377 1307q0 94 64.5 157.5t158.5 63.5q89 0 153 -65t64 -154q0 -92 -64 -157t-155 -65q-92 0 -156.5 64.5t-64.5 155.5zM481 1307q0 -48 34 -81.5t83 -33.5 q48 0 81.5 34t33.5 83q0 46 -34 80t-81 34q-50 0 -83.5 -33.5t-33.5 -82.5z" />
<glyph unicode="&#xe6;" horiz-adv-x="1736" d="M72 274q0 71 30 133t82 97q60 41 155.5 58.5t260.5 17.5h109q20 0 27 8t7 30q0 104 -43 153.5t-135 49.5q-82 0 -129 -26q-12 -7 -15.5 -13.5t-14.5 -36.5q-9 -27 -42.5 -44t-78.5 -17q-61 0 -96 26t-35 70q0 46 35 94.5t90 79.5q97 54 266 54q252 0 329 -146 q9 -16 19 -16t20 20q35 63 126 102.5t200 39.5q207 0 319.5 -125.5t112.5 -354.5q0 -62 -27 -89t-88 -27h-516q-41 0 -41 -39q0 -94 60.5 -153.5t157.5 -59.5q122 0 161 82q24 59 117 59q54 0 85.5 -24.5t31.5 -65.5q0 -32 -20.5 -71.5t-51.5 -67.5q-114 -99 -319 -99 q-139 0 -227 46t-150 151q-5 10 -13 10q-11 0 -14 -12q-12 -39 -52 -80t-93 -68q-92 -47 -230 -47q-172 0 -271 80.5t-99 220.5zM338 281q0 -56 43.5 -88.5t116.5 -32.5q55 0 104.5 21t75.5 55q24 30 41.5 76t17.5 77q0 22 -18 29q-6 4 -141 4h-35q-89 0 -147 -40t-58 -101z M1001 606q0 -26 29 -26h338q20 0 28.5 9t8.5 32q0 89 -51.5 144.5t-134.5 55.5q-91 0 -154.5 -62.5t-63.5 -152.5z" />
<glyph unicode="&#xe7;" horiz-adv-x="1093" d="M59 498q0 232 127.5 371t341.5 139q186 0 279 -136q4 -4 6 -4q8 0 8 11q4 49 33 77.5t74 28.5q51 0 78.5 -33.5t27.5 -95.5v-117q0 -68 -30.5 -105.5t-85.5 -37.5q-80 0 -117 90q-23 63 -80 99t-131 36q-114 0 -178 -84t-64 -233q0 -160 66.5 -252t183.5 -92 q54 0 93 22.5t91 85.5q34 40 60 55t61 15q48 0 79.5 -32t31.5 -81q0 -51 -48.5 -104.5t-136.5 -97.5q-79 -42 -192 -50l-62 -100q-2 -2 -2 -6q0 -1 2.5 -3.5t4.5 -2.5l106 4q13 0 44.5 -16.5t49.5 -32.5q41 -41 41 -99q0 -75 -66.5 -125.5t-166.5 -50.5q-68 0 -134.5 10.5 t-88.5 24.5q-19 16 -19 37q0 18 13 31.5t28 13.5q8 0 92 -25q18 -6 51 -6q58 0 90.5 21.5t32.5 58.5q0 34 -25 55t-65 21q-24 0 -59 -10q-4 -2 -12 -2q-17 0 -32.5 13t-15.5 28q0 6 7 16l90 145q-227 13 -354.5 152.5t-127.5 372.5z" />
<glyph unicode="&#xe8;" horiz-adv-x="1126" d="M59 489q0 241 136 380t372 139q250 0 379 -138q56 -62 88.5 -157.5t32.5 -196.5v-4q0 -45 -30.5 -69.5t-84.5 -24.5h-596q-20 0 -20 -19q0 -87 63 -163q64 -76 195 -76q63 0 104 19t76 65q22 29 44 39t63 10q57 0 87.5 -22t30.5 -62q0 -71 -84 -139q-129 -97 -337 -97 q-241 0 -380 138.5t-139 377.5zM342 602q0 -20 25 -20h397q29 0 29 24q0 92 -63.5 153.5t-158.5 61.5q-108 0 -168 -69q-27 -33 -44 -75t-17 -75zM352 1348q0 47 41 75l25 21q33 26 65 26q27 0 46.5 -13t43.5 -46l117 -176q25 -45 25 -68q0 -31 -26 -55.5t-60 -24.5 q-35 0 -70 35l-160 142q-27 24 -37 42t-10 42z" />
<glyph unicode="&#xe9;" horiz-adv-x="1126" d="M59 489q0 241 136 380t372 139q250 0 379 -138q56 -62 88.5 -157.5t32.5 -196.5v-4q0 -45 -30.5 -69.5t-84.5 -24.5h-596q-20 0 -20 -19q0 -87 63 -163q64 -76 195 -76q63 0 104 19t76 65q22 29 44 39t63 10q57 0 87.5 -22t30.5 -62q0 -71 -84 -139q-129 -97 -337 -97 q-241 0 -380 138.5t-139 377.5zM342 602q0 -20 25 -20h397q29 0 29 24q0 92 -63.5 153.5t-158.5 61.5q-108 0 -168 -69q-27 -33 -44 -75t-17 -75zM479 1155q0 30 25 66l123 186q22 32 42 45.5t48 13.5q26 0 59 -20l25 -14q45 -28 45 -82q0 -39 -43 -82l-168 -158 q-37 -37 -70 -37q-34 0 -60 25t-26 57z" />
<glyph unicode="&#xea;" horiz-adv-x="1126" d="M59 489q0 241 136 380t372 139q250 0 379 -138q56 -62 88.5 -157.5t32.5 -196.5v-4q0 -45 -30.5 -69.5t-84.5 -24.5h-596q-20 0 -20 -19q0 -87 63 -163q64 -76 195 -76q63 0 104 19t76 65q22 29 44 39t63 10q57 0 87.5 -22t30.5 -62q0 -71 -84 -139q-129 -97 -337 -97 q-241 0 -380 138.5t-139 377.5zM326 1165q0 24 28 60l109 143q28 34 51 48t53 14q32 0 55.5 -14t51.5 -50l100 -133q27 -42 27 -66q0 -29 -24.5 -52t-55.5 -23q-44 0 -76 49l-84 121l-86 -125q-34 -47 -72 -47q-32 0 -54.5 22t-22.5 53zM342 602q0 -20 25 -20h397 q29 0 29 24q0 92 -63.5 153.5t-158.5 61.5q-108 0 -168 -69q-27 -33 -44 -75t-17 -75z" />
<glyph unicode="&#xeb;" horiz-adv-x="1126" d="M59 489q0 241 136 380t372 139q250 0 379 -138q56 -62 88.5 -157.5t32.5 -196.5v-4q0 -45 -30.5 -69.5t-84.5 -24.5h-596q-20 0 -20 -19q0 -87 63 -163q64 -76 195 -76q63 0 104 19t76 65q22 29 44 39t63 10q57 0 87.5 -22t30.5 -62q0 -71 -84 -139q-129 -97 -337 -97 q-241 0 -380 138.5t-139 377.5zM254 1260q0 51 33.5 83.5t85.5 32.5q51 0 83.5 -34t32.5 -87q0 -48 -33.5 -81t-82.5 -33q-53 0 -86 33.5t-33 85.5zM342 602q0 -20 25 -20h397q29 0 29 24q0 92 -63.5 153.5t-158.5 61.5q-108 0 -168 -69q-27 -33 -44 -75t-17 -75zM643 1260 q0 51 33.5 83.5t85.5 32.5q51 0 84 -34t33 -87q0 -47 -34 -80.5t-83 -33.5q-52 0 -85.5 33.5t-33.5 85.5z" />
<glyph unicode="&#xec;" horiz-adv-x="614" d="M39 90q0 38 27 63t67 25h10q22 0 31.5 10t9.5 33v531q0 23 -9.5 33t-31.5 10h-10q-40 0 -67 25t-27 63q0 43 29 66.5t82 23.5h200q62 0 88.5 -26.5t26.5 -88.5v-637q0 -23 9 -32t32 -11q40 -1 65 -26t25 -62q0 -43 -29 -66.5t-80 -23.5h-337q-53 0 -82 23.5t-29 66.5z M61 1348q0 47 41 75l25 21q33 26 63 26q29 0 49 -13t42 -46l116 -176q25 -36 25 -68q0 -31 -26 -55.5t-60 -24.5q-33 0 -68 35l-159 142q-27 24 -37.5 42t-10.5 42z" />
<glyph unicode="&#xed;" horiz-adv-x="614" d="M39 90q0 38 27 63t67 25h10q22 0 31.5 10t9.5 33v531q0 23 -9.5 33t-31.5 10h-10q-40 0 -67 25t-27 63q0 43 29 66.5t82 23.5h200q62 0 88.5 -26.5t26.5 -88.5v-637q0 -23 9 -32t32 -11q40 -1 65 -26t25 -62q0 -43 -29 -66.5t-80 -23.5h-337q-53 0 -82 23.5t-29 66.5z M188 1155q0 30 25 66l123 186q37 59 90 59q26 0 59 -20l25 -14q45 -28 45 -82q0 -40 -45 -82l-166 -158q-37 -37 -70 -37q-34 0 -60 25t-26 57z" />
<glyph unicode="&#xee;" horiz-adv-x="614" d="M39 90q0 38 27 63t67 25h10q22 0 31.5 10t9.5 33v531q0 23 -9.5 33t-31.5 10h-10q-40 0 -67 25t-27 63q0 43 29 66.5t82 23.5h200q62 0 88.5 -26.5t26.5 -88.5v-637q0 -23 9 -32t32 -11q40 -1 65 -26t25 -62q0 -43 -29 -66.5t-80 -23.5h-337q-53 0 -82 23.5t-29 66.5z M70 1165q0 27 26 60l111 143q28 34 51 48t53 14q32 0 55.5 -14.5t49.5 -49.5l100 -133q27 -39 27 -66q0 -29 -24.5 -52t-55.5 -23q-41 0 -76 49l-82 121l-88 -125q-31 -47 -72 -47q-31 0 -53 22t-22 53z" />
<glyph unicode="&#xef;" horiz-adv-x="614" d="M25 1260q0 51 33 83.5t85 32.5q51 0 84 -34t33 -87q0 -47 -34 -80.5t-83 -33.5q-52 0 -85 33t-33 86zM39 90q0 38 27 63t67 25h10q22 0 31.5 10t9.5 33v531q0 23 -9.5 33t-31.5 10h-10q-40 0 -67 25t-27 63q0 43 29 66.5t82 23.5h200q62 0 88.5 -26.5t26.5 -88.5v-637 q0 -23 9 -32t32 -11q40 -1 65 -26t25 -62q0 -43 -29 -66.5t-80 -23.5h-337q-53 0 -82 23.5t-29 66.5zM352 1260q0 51 33.5 83.5t85.5 32.5q51 0 84 -34t33 -87q0 -47 -34 -80.5t-83 -33.5q-53 0 -86 33.5t-33 85.5z" />
<glyph unicode="&#xf0;" horiz-adv-x="1200" d="M59 494q0 244 154 383q147 131 365 131q106 0 200 -52q-28 86 -99.5 157t-166.5 106l-176 -113q-32 -21 -53 -21q-25 -1 -45.5 20.5t-20.5 49.5q0 39 45 66l80 51q-54 14 -84 18q-23 3 -68 6l-47 2q-29 2 -48 21.5t-19 48.5q0 68 88 68q163 0 321 -35l207 133 q30 20 53 20q28 0 48 -21t20 -50q0 -39 -45 -66l-104 -67q107 -47 171.5 -90t120.5 -103q187 -202 187 -616q0 -146 -31 -242t-102 -168q-73 -76 -177.5 -117t-226.5 -41q-120 0 -225 39t-180 111q-142 133 -142 371zM348 496q0 -157 67.5 -246.5t184.5 -89.5 q121 0 186.5 87.5t65.5 250.5q0 152 -66.5 237.5t-183.5 85.5q-118 0 -186 -87t-68 -238z" />
<glyph unicode="&#xf1;" horiz-adv-x="1298" d="M39 90q0 38 27 63t67 25h10q22 0 31.5 10t9.5 33v531q0 23 -9.5 33t-31.5 10h-10q-40 0 -67 25t-27 63q0 43 29 66.5t82 23.5h180q55 0 84.5 -25t29.5 -71v-52q0 -10 9 -10q3 0 6 6q55 98 134 142.5t198 44.5q166 0 256 -83t90 -237v-467q0 -23 9.5 -33t31.5 -10h4 q38 0 65 -25.5t27 -62.5q0 -43 -29 -66.5t-82 -23.5h-329q-51 0 -80 23.5t-29 66.5q0 37 25 62t65 26q23 2 32 11t9 32v391q0 106 -44 157.5t-136 51.5q-97 0 -154 -69t-57 -187v-344q0 -23 9 -32t32 -11q40 -1 65 -26t25 -62q0 -43 -29 -66.5t-80 -23.5h-340 q-51 0 -79.5 23.5t-28.5 66.5zM342 1163q0 56 39 117q56 80 133 80q57 0 143 -35q83 -33 111 -33q22 0 40 11t26 28q13 27 26 37t35 10q30 0 46.5 -18t16.5 -51q0 -73 -54 -132t-122 -59q-40 0 -139 35q-88 33 -115 33q-23 0 -37.5 -10t-29.5 -37q-15 -24 -28 -33.5 t-32 -9.5q-28 0 -43.5 18t-15.5 49z" />
<glyph unicode="&#xf2;" horiz-adv-x="1200" d="M59 500q0 229 148.5 368.5t392.5 139.5q249 0 396 -140.5t147 -378.5q0 -233 -147.5 -374.5t-391.5 -141.5q-251 0 -398 142t-147 385zM348 496q0 -157 67.5 -246.5t184.5 -89.5q122 0 188 88t66 250q0 152 -66.5 237.5t-185.5 85.5q-117 0 -185.5 -87.5t-68.5 -237.5z M356 1348q0 46 39 75l25 21q36 26 65 26q28 0 48 -13.5t42 -45.5l117 -176q25 -39 25 -68q0 -31 -26 -55.5t-60 -24.5q-32 0 -70 35l-160 142q-25 24 -35 42t-10 42z" />
<glyph unicode="&#xf3;" horiz-adv-x="1200" d="M59 500q0 229 148.5 368.5t392.5 139.5q249 0 396 -140.5t147 -378.5q0 -233 -147.5 -374.5t-391.5 -141.5q-251 0 -398 142t-147 385zM348 496q0 -157 67.5 -246.5t184.5 -89.5q122 0 188 88t66 250q0 152 -66.5 237.5t-185.5 85.5q-117 0 -185.5 -87.5t-68.5 -237.5z M481 1155q0 25 25 66l123 186q22 32 42.5 45.5t49.5 13.5q24 0 57 -20l25 -14q47 -30 47 -82q0 -40 -45 -82l-166 -158q-40 -37 -72 -37q-34 0 -60 25t-26 57z" />
<glyph unicode="&#xf4;" horiz-adv-x="1200" d="M59 500q0 229 148.5 368.5t392.5 139.5q249 0 396 -140.5t147 -378.5q0 -233 -147.5 -374.5t-391.5 -141.5q-251 0 -398 142t-147 385zM348 496q0 -157 67.5 -246.5t184.5 -89.5q122 0 188 88t66 250q0 152 -66.5 237.5t-185.5 85.5q-117 0 -185.5 -87.5t-68.5 -237.5z M365 1165q0 27 26 60l111 143q27 34 49.5 48t54.5 14q31 0 55 -14.5t50 -49.5l100 -133q27 -39 27 -66q0 -29 -24.5 -52t-55.5 -23q-44 0 -76 49l-84 121l-86 -125q-19 -26 -34.5 -36.5t-37.5 -10.5q-31 0 -53 22t-22 53z" />
<glyph unicode="&#xf5;" horiz-adv-x="1200" d="M59 500q0 229 148.5 368.5t392.5 139.5q249 0 396 -140.5t147 -378.5q0 -233 -147.5 -374.5t-391.5 -141.5q-251 0 -398 142t-147 385zM293 1163q0 56 39 117q56 80 133 80q57 0 143 -35q83 -33 111 -33q22 0 39.5 11t25.5 28q13 27 26.5 37t35.5 10q30 0 46.5 -18 t16.5 -51q0 -73 -54 -132t-122 -59q-40 0 -139 35q-88 33 -115 33q-23 0 -37.5 -10t-29.5 -37q-15 -24 -28 -33.5t-32 -9.5q-28 0 -43.5 18t-15.5 49zM348 496q0 -157 67.5 -246.5t184.5 -89.5q122 0 188 88t66 250q0 152 -66.5 237.5t-185.5 85.5q-117 0 -185.5 -87.5 t-68.5 -237.5z" />
<glyph unicode="&#xf6;" horiz-adv-x="1200" d="M59 500q0 229 148.5 368.5t392.5 139.5q249 0 396 -140.5t147 -378.5q0 -233 -147.5 -374.5t-391.5 -141.5q-251 0 -398 142t-147 385zM291 1260q0 51 33.5 83.5t85.5 32.5q51 0 83.5 -34t32.5 -87q0 -48 -33.5 -81t-82.5 -33q-52 0 -85.5 33.5t-33.5 85.5zM348 496 q0 -157 67.5 -246.5t184.5 -89.5q122 0 188 88t66 250q0 152 -66.5 237.5t-185.5 85.5q-117 0 -185.5 -87.5t-68.5 -237.5zM680 1260q0 51 33.5 83.5t85.5 32.5q51 0 83.5 -34t32.5 -87q0 -48 -33.5 -81t-82.5 -33q-53 0 -86 33.5t-33 85.5z" />
<glyph unicode="&#xf7;" d="M84 702q0 38 26.5 60t73.5 22h766q47 0 74 -22t27 -60t-27 -59.5t-74 -21.5h-766q-47 0 -73.5 21.5t-26.5 59.5zM420 358q0 60 41.5 102t101.5 42q63 0 105.5 -42t42.5 -104q0 -60 -42.5 -102.5t-101.5 -42.5q-61 0 -104 42.5t-43 104.5zM420 1055q0 60 41.5 101.5 t101.5 41.5q63 0 105.5 -41.5t42.5 -103.5q0 -60 -42.5 -103t-101.5 -43q-61 0 -104 43t-43 105z" />
<glyph unicode="&#xf8;" horiz-adv-x="1200" d="M59 492q0 235 147 375.5t396 140.5q209 0 336 -95l78 80q25 25 43 25q23 0 38 -15t15 -38q0 -18 -22 -43l-72 -74q125 -140 125 -359q0 -235 -147 -375.5t-392 -140.5q-196 0 -338 93l-78 -80q-25 -25 -45 -25q-22 0 -37.5 15.5t-15.5 37.5q0 21 25 43l71 76 q-127 145 -127 359zM348 518q0 -84 35 -188l389 415q-67 76 -172 76q-114 0 -183 -82.5t-69 -220.5zM430 231q71 -71 170 -71q117 0 185.5 84.5t68.5 230.5q0 102 -37 172z" />
<glyph unicode="&#xf9;" horiz-adv-x="1275" d="M18 883q0 43 29 66.5t80 23.5h201q61 0 87.5 -26.5t26.5 -88.5v-491q0 -207 172 -207q100 0 156.5 75t56.5 207v310q0 23 -9.5 33t-31.5 10h-12q-41 0 -68.5 25t-27.5 63q0 43 29 66.5t81 23.5h205q61 0 88 -26.5t27 -88.5v-637q0 -23 9.5 -33t31.5 -10h8q40 0 67 -25 t27 -63q0 -43 -28.5 -66.5t-79.5 -23.5h-182q-55 0 -85 24.5t-30 69.5v60q0 8 -6 8q-2 0 -6 -4q-36 -59 -61 -86.5t-60 -48.5q-85 -50 -213 -50q-176 0 -267 105q-41 45 -56 98t-15 148v428q0 23 -9.5 33t-31.5 10h-8q-40 0 -67.5 25t-27.5 63zM393 1348q0 46 39 75l25 21 q36 26 65 26q28 0 48 -13.5t42 -45.5l117 -176q25 -39 25 -68q0 -31 -26 -55.5t-60 -24.5q-32 0 -70 35l-158 142q-27 24 -37 42t-10 42z" />
<glyph unicode="&#xfa;" horiz-adv-x="1275" d="M18 883q0 43 29 66.5t80 23.5h201q61 0 87.5 -26.5t26.5 -88.5v-491q0 -207 172 -207q100 0 156.5 75t56.5 207v310q0 23 -9.5 33t-31.5 10h-12q-41 0 -68.5 25t-27.5 63q0 43 29 66.5t81 23.5h205q61 0 88 -26.5t27 -88.5v-637q0 -23 9.5 -33t31.5 -10h8q40 0 67 -25 t27 -63q0 -43 -28.5 -66.5t-79.5 -23.5h-182q-55 0 -85 24.5t-30 69.5v60q0 8 -6 8q-2 0 -6 -4q-36 -59 -61 -86.5t-60 -48.5q-85 -50 -213 -50q-176 0 -267 105q-41 45 -56 98t-15 148v428q0 23 -9.5 33t-31.5 10h-8q-40 0 -67.5 25t-27.5 63zM518 1155q0 21 25 66l123 186 q22 32 42.5 45.5t49.5 13.5q27 0 57 -20l25 -14q47 -30 47 -82q0 -40 -45 -82l-166 -158q-40 -37 -72 -37q-34 0 -60 25t-26 57z" />
<glyph unicode="&#xfb;" horiz-adv-x="1275" d="M18 883q0 43 29 66.5t80 23.5h201q61 0 87.5 -26.5t26.5 -88.5v-491q0 -207 172 -207q100 0 156.5 75t56.5 207v310q0 23 -9.5 33t-31.5 10h-12q-41 0 -68.5 25t-27.5 63q0 43 29 66.5t81 23.5h205q61 0 88 -26.5t27 -88.5v-637q0 -23 9.5 -33t31.5 -10h8q40 0 67 -25 t27 -63q0 -43 -28.5 -66.5t-79.5 -23.5h-182q-55 0 -85 24.5t-30 69.5v60q0 8 -6 8q-2 0 -6 -4q-36 -59 -61 -86.5t-60 -48.5q-85 -50 -213 -50q-176 0 -267 105q-41 45 -56 98t-15 148v428q0 23 -9.5 33t-31.5 10h-8q-40 0 -67.5 25t-27.5 63zM401 1165q0 26 27 60l111 143 q27 34 49.5 48t54.5 14q31 0 55 -14.5t50 -49.5l100 -133q26 -37 26 -66t-24 -52t-55 -23q-44 0 -76 49l-84 121l-86 -125q-19 -26 -34.5 -36.5t-37.5 -10.5q-31 0 -53.5 22t-22.5 53z" />
<glyph unicode="&#xfc;" horiz-adv-x="1275" d="M18 883q0 43 29 66.5t80 23.5h201q61 0 87.5 -26.5t26.5 -88.5v-491q0 -207 172 -207q100 0 156.5 75t56.5 207v310q0 23 -9.5 33t-31.5 10h-12q-41 0 -68.5 25t-27.5 63q0 43 29 66.5t81 23.5h205q61 0 88 -26.5t27 -88.5v-637q0 -23 9.5 -33t31.5 -10h8q40 0 67 -25 t27 -63q0 -43 -28.5 -66.5t-79.5 -23.5h-182q-55 0 -85 24.5t-30 69.5v60q0 8 -6 8q-2 0 -6 -4q-36 -59 -61 -86.5t-60 -48.5q-85 -50 -213 -50q-176 0 -267 105q-41 45 -56 98t-15 148v428q0 23 -9.5 33t-31.5 10h-8q-40 0 -67.5 25t-27.5 63zM328 1260q0 51 33 83.5 t85 32.5q51 0 84 -34t33 -87q0 -47 -34 -80.5t-83 -33.5q-52 0 -85 33t-33 86zM717 1260q0 51 33.5 83.5t85.5 32.5q51 0 83.5 -34t32.5 -87q0 -48 -33.5 -81t-82.5 -33q-52 0 -85.5 33.5t-33.5 85.5z" />
<glyph unicode="&#xfd;" horiz-adv-x="1181" d="M10 885q0 41 22 64.5t60 23.5h340q53 0 82 -23.5t29 -66.5q0 -37 -24.5 -61t-65.5 -27t-41 -33q0 -11 6 -23l145 -340q30 -70 55 -170l29 99l39 96l123 317q4 12 4 21q0 30 -41 33t-65.5 27t-24.5 61q0 43 29 66.5t82 23.5h303q38 0 59 -23.5t21 -64.5q0 -38 -19.5 -63 t-50.5 -27q-14 -2 -19.5 -6.5t-11.5 -22.5l-389 -877q-54 -121 -92 -171t-90 -70q-67 -27 -172 -27q-75 0 -108.5 22t-33.5 72q0 41 23 69t57 28q9 0 17 -2h20q52 0 78 20.5t55 85.5l23 49q8 16 8 21q0 6 -8 22l-348 760q-7 17 -13 21t-20 6q-31 2 -51.5 27t-20.5 63z M512 1155q0 30 25 66l122 186q22 32 42.5 45.5t48.5 13.5q26 0 59 -20l25 -14q45 -28 45 -82q0 -39 -43 -82l-168 -158q-37 -37 -70 -37q-34 0 -60 25t-26 57z" />
<glyph unicode="&#xfe;" horiz-adv-x="1292" d="M16 -268q0 38 27 64t66 26h10q22 0 31.5 9.5t9.5 31.5v1311q0 23 -9.5 33t-31.5 10h-10q-38 0 -65.5 25.5t-27.5 62.5q0 43 29 66.5t80 23.5h184q61 0 88 -26.5t27 -88.5v-455q0 -12 8 -12q5 0 8 6q98 189 344 189q214 0 330.5 -134.5t116.5 -381.5q0 -249 -118.5 -385 t-336.5 -136q-112 0 -186 38t-131 124q-3 6 -8 6q-11 0 -11 -12v-264q0 -22 9.5 -31.5t31.5 -9.5h19q43 0 70.5 -25t27.5 -65q0 -41 -29 -64.5t-80 -23.5h-364q-51 0 -80 23.5t-29 64.5zM434 494q0 -161 67.5 -248.5t190.5 -87.5q122 0 186 85t64 246q0 160 -63.5 246 t-180.5 86q-123 0 -193.5 -87t-70.5 -240z" />
<glyph unicode="&#xff;" horiz-adv-x="1181" d="M10 885q0 41 22 64.5t60 23.5h340q53 0 82 -23.5t29 -66.5q0 -37 -24.5 -61t-65.5 -27t-41 -33q0 -11 6 -23l145 -340q30 -70 55 -170l29 99l39 96l123 317q4 12 4 21q0 30 -41 33t-65.5 27t-24.5 61q0 43 29 66.5t82 23.5h303q38 0 59 -23.5t21 -64.5q0 -38 -19.5 -63 t-50.5 -27q-14 -2 -19.5 -6.5t-11.5 -22.5l-389 -877q-54 -121 -92 -171t-90 -70q-67 -27 -172 -27q-75 0 -108.5 22t-33.5 72q0 41 23 69t57 28q9 0 17 -2h20q52 0 78 20.5t55 85.5l23 49q8 16 8 21q0 6 -8 22l-348 760q-7 17 -13 21t-20 6q-31 2 -51.5 27t-20.5 63z M283 1260q0 51 33 83.5t85 32.5q51 0 84 -34t33 -87q0 -47 -34 -80.5t-83 -33.5q-52 0 -85 33t-33 86zM672 1260q0 51 33.5 83.5t85.5 32.5q51 0 83.5 -34t32.5 -87q0 -48 -33.5 -81t-82.5 -33q-53 0 -86 33.5t-33 85.5z" />
<glyph unicode="&#x152;" horiz-adv-x="2086" d="M68 686q0 321 180 510q188 197 495 197q82 0 299 -19q94 -8 148 -8h680q62 0 88.5 -27t26.5 -88v-157q0 -68 -31 -106t-86 -38t-86 38t-31 104v47q0 22 -9.5 31.5t-31.5 9.5h-405q-22 0 -31.5 -9.5t-9.5 -31.5v-312q0 -22 9.5 -31.5t31.5 -9.5h98q22 0 31.5 9.5t9.5 31.5 v17q0 47 27.5 76.5t70.5 29.5q46 0 72 -31t26 -88v-276q0 -57 -26 -88t-72 -31q-43 0 -70.5 30t-27.5 77v16q0 22 -9.5 31.5t-31.5 9.5h-98q-22 0 -31.5 -9.5t-9.5 -31.5v-330q0 -22 9.5 -31.5t31.5 -9.5h405q22 0 31.5 9.5t9.5 31.5v64q0 68 31 105.5t86 37.5t86 -37.5 t31 -105.5v-178q0 -61 -26.5 -88t-88.5 -27h-764q-57 0 -205 -14q-70 -6 -139 -6q-324 0 -509 188.5t-185 517.5zM369 678q0 -245 114 -371q54 -63 137.5 -98t174.5 -35q113 0 146.5 9.5t33.5 41.5v930q0 16 -5.5 24t-26.5 13t-54 6.5t-96 1.5q-97 0 -183.5 -40t-140.5 -109 q-47 -63 -73.5 -160.5t-26.5 -212.5z" />
<glyph unicode="&#x153;" horiz-adv-x="1787" d="M59 485q0 238 135 380.5t361 142.5q258 0 360 -181q5 -10 15 -10q8 0 14 12q32 76 132 127.5t216 51.5q231 0 340 -144q99 -132 99 -336q0 -67 -26 -94.5t-89 -27.5h-533q-26 0 -26 -27q0 -38 17 -80t46 -74q62 -65 160 -65q73 0 121 39q18 15 31 45q28 61 122 61 q55 0 86 -25t31 -69q0 -97 -112 -167.5t-267 -70.5q-113 0 -206 45t-144 123q-6 11 -14 11q-9 0 -15 -9q-125 -170 -364 -170q-223 0 -356.5 139.5t-133.5 372.5zM348 481q0 -157 57 -239t164 -82q109 0 168.5 85t59.5 242q0 164 -58 249t-168 85q-109 0 -166 -87t-57 -253z M1061 600q0 -27 31 -27h338q15 0 20.5 7t5.5 26q0 101 -49 157t-137 56q-95 0 -154 -74q-55 -71 -55 -145z" />
<glyph unicode="&#x178;" horiz-adv-x="1423" d="M16 1274q0 43 25.5 67.5t69.5 24.5h399q54 0 84.5 -25t30.5 -69q0 -39 -28.5 -65.5t-70.5 -26.5h-10q-19 0 -30 -9t-11 -24q0 -14 10 -27l246 -375l248 375q10 17 10 27q0 30 -43 33t-68.5 28.5t-25.5 63.5q0 44 29.5 69t83.5 25h346q44 0 69 -25t25 -69q0 -38 -23 -65 t-57 -27q-13 0 -18.5 -3.5t-14.5 -17.5l-430 -622q-10 -14 -10 -33v-277q0 -22 9.5 -31.5t31.5 -9.5h55q55 0 85 -24.5t30 -67.5q0 -45 -30 -69.5t-85 -24.5h-477q-54 0 -84.5 25t-30.5 69q0 43 30.5 67.5t84.5 24.5h51q22 0 31.5 9.5t9.5 31.5v277q0 19 -10 33l-424 620 q-9 15 -14.5 19t-18.5 4q-34 0 -57 27t-23 67zM401 1599q0 51 33.5 84t85.5 33q51 0 84 -34t33 -87q0 -47 -34 -80.5t-83 -33.5q-53 0 -86 33t-33 85zM791 1599q0 51 33 84t85 33q51 0 84 -34t33 -87q0 -47 -34 -80.5t-83 -33.5q-53 0 -85.5 32.5t-32.5 85.5z" />
<glyph unicode="&#x2c6;" horiz-adv-x="1024" d="M274 1165q0 23 29 60l109 143q28 34 51 48t53 14q32 0 55.5 -14t51.5 -50l100 -133q27 -42 27 -66q0 -29 -24.5 -52t-55.5 -23q-44 0 -76 49l-84 121l-86 -125q-34 -47 -72 -47q-32 0 -55 22t-23 53z" />
<glyph unicode="&#x2dc;" horiz-adv-x="1024" d="M205 1163q0 56 39 117q56 80 133 80q57 0 143 -35q83 -33 111 -33q22 0 39.5 11t25.5 28q13 27 26.5 37t35.5 10q30 0 46.5 -18t16.5 -51q0 -73 -54 -132t-122 -59q-40 0 -139 35q-88 33 -115 33q-23 0 -37.5 -10t-29.5 -37q-15 -24 -28 -33.5t-32 -9.5q-28 0 -43.5 18 t-15.5 49z" />
<glyph unicode="&#x2000;" horiz-adv-x="943" />
<glyph unicode="&#x2001;" horiz-adv-x="1886" />
<glyph unicode="&#x2002;" horiz-adv-x="943" />
<glyph unicode="&#x2003;" horiz-adv-x="1886" />
<glyph unicode="&#x2004;" horiz-adv-x="628" />
<glyph unicode="&#x2005;" horiz-adv-x="471" />
<glyph unicode="&#x2006;" horiz-adv-x="314" />
<glyph unicode="&#x2007;" horiz-adv-x="314" />
<glyph unicode="&#x2008;" horiz-adv-x="235" />
<glyph unicode="&#x2009;" horiz-adv-x="377" />
<glyph unicode="&#x200a;" horiz-adv-x="104" />
<glyph unicode="&#x2010;" horiz-adv-x="524" d="M0 508q0 51 33.5 78.5t95.5 27.5h268q60 0 93.5 -27.5t33.5 -76.5q0 -51 -33.5 -79t-93.5 -28h-268q-61 0 -95 27.5t-34 77.5z" />
<glyph unicode="&#x2011;" horiz-adv-x="524" d="M0 508q0 51 33.5 78.5t95.5 27.5h268q60 0 93.5 -27.5t33.5 -76.5q0 -51 -33.5 -79t-93.5 -28h-268q-61 0 -95 27.5t-34 77.5z" />
<glyph unicode="&#x2012;" horiz-adv-x="524" d="M0 508q0 51 33.5 78.5t95.5 27.5h268q60 0 93.5 -27.5t33.5 -76.5q0 -51 -33.5 -79t-93.5 -28h-268q-61 0 -95 27.5t-34 77.5z" />
<glyph unicode="&#x2013;" d="M82 508q0 51 33.5 78.5t95.5 27.5h713q61 0 95 -27t34 -77q0 -51 -34 -79t-95 -28h-713q-61 0 -95 27.5t-34 77.5z" />
<glyph unicode="&#x2014;" horiz-adv-x="1579" d="M0 508q0 51 33.5 78.5t95.5 27.5h1323q60 0 93.5 -27.5t33.5 -76.5q0 -51 -33.5 -79t-93.5 -28h-1323q-61 0 -95 27.5t-34 77.5z" />
<glyph unicode="&#x2018;" horiz-adv-x="503" d="M88 985q0 149 107 311q75 111 118 111q19 0 32 -13t13 -32q0 -10 -6.5 -21.5t-46.5 -66.5q-35 -46 -60.5 -106t-25.5 -91q0 -25 12 -30t68 -5q51 0 84 -37.5t33 -95.5q0 -62 -44 -103.5t-110 -41.5q-77 0 -125.5 61.5t-48.5 159.5z" />
<glyph unicode="&#x2019;" horiz-adv-x="579" d="M125 1247q0 62 44 104t110 42q77 0 125.5 -60.5t48.5 -158.5q0 -154 -107 -312q-75 -110 -119 -110q-19 0 -32 13t-13 32q0 9 7.5 21t46.5 67q35 47 60.5 105t25.5 89q0 25 -12 30t-68 5q-51 0 -84 37.5t-33 95.5z" />
<glyph unicode="&#x201a;" horiz-adv-x="579" d="M94 141q0 62 44 104t110 42q77 0 125.5 -61.5t48.5 -159.5q0 -155 -107 -310q-74 -112 -118 -112q-19 0 -32 13t-13 32q0 11 6.5 21.5t46.5 66.5q35 47 60.5 106t25.5 90q0 25 -12 30t-68 5q-51 0 -84 37.5t-33 95.5z" />
<glyph unicode="&#x201c;" horiz-adv-x="880" d="M84 985q0 150 106 311q75 111 119 111q19 0 32 -13t13 -32q0 -10 -6.5 -21.5t-46.5 -66.5q-35 -46 -60.5 -106t-25.5 -91q0 -25 12 -30t68 -5q51 0 84 -37.5t33 -95.5q0 -62 -44 -103.5t-110 -41.5q-77 0 -125.5 61.5t-48.5 159.5zM479 985q0 149 107 311q75 111 121 111 q17 0 31 -14t14 -31q0 -10 -6.5 -20t-49.5 -68q-34 -48 -60 -106.5t-26 -90.5q0 -25 12.5 -30t69.5 -5q51 0 84 -37.5t33 -95.5q0 -62 -44 -103.5t-110 -41.5q-78 0 -127 61.5t-49 159.5z" />
<glyph unicode="&#x201d;" horiz-adv-x="880" d="M72 1247q0 62 43.5 104t109.5 42q77 0 125.5 -60.5t48.5 -158.5q0 -156 -106 -312q-75 -110 -119 -110q-19 0 -32 13t-13 32q0 9 7.5 22t45.5 66q35 47 60.5 105t25.5 89q0 25 -12 30t-68 5q-51 0 -83.5 37.5t-32.5 95.5zM467 1247q0 62 44 104t110 42q78 0 127 -60.5 t49 -158.5q0 -154 -107 -312q-75 -110 -119 -110q-19 0 -32 13t-13 32q0 9 7.5 21t46.5 67q35 47 60.5 105t25.5 89q0 25 -12.5 30t-69.5 5q-51 0 -84 37.5t-33 95.5z" />
<glyph unicode="&#x201e;" horiz-adv-x="880" d="M72 133q0 63 43.5 105.5t109.5 42.5q77 0 125.5 -62t48.5 -160q0 -156 -106 -309q-74 -112 -119 -112q-19 0 -32 13t-13 32q0 11 6.5 21.5t46.5 66.5q35 47 60.5 106t25.5 90q0 17 -9.5 26t-25.5 9l-45 -2q-50 -2 -83 36.5t-33 96.5zM467 133q0 63 44 105.5t110 42.5 q78 0 127 -61.5t49 -160.5q0 -154 -107 -309q-74 -112 -119 -112q-19 0 -32 13t-13 32q0 10 6 20t48 68q35 47 60.5 106t25.5 90q0 35 -35 35l-47 -2q-51 0 -84 37.5t-33 95.5z" />
<glyph unicode="&#x2022;" horiz-adv-x="1366" d="M401 694q0 120 83.5 202.5t203.5 82.5q115 0 198 -83.5t83 -199.5q0 -118 -83 -201t-200 -83q-118 0 -201.5 82.5t-83.5 199.5z" />
<glyph unicode="&#x2026;" horiz-adv-x="1507" d="M88 137q0 66 47 113t113 47q69 0 116.5 -46.5t47.5 -115.5q0 -67 -47 -114.5t-113 -47.5q-68 0 -116 48.5t-48 115.5zM590 137q0 66 47 113t113 47q69 0 116 -46.5t47 -115.5q0 -67 -46.5 -114.5t-112.5 -47.5q-68 0 -116 48.5t-48 115.5zM1092 137q0 66 46.5 113 t112.5 47q69 0 116.5 -46.5t47.5 -115.5q0 -67 -47 -114.5t-113 -47.5q-67 0 -115 48t-48 116z" />
<glyph unicode="&#x202f;" horiz-adv-x="377" />
<glyph unicode="&#x2039;" horiz-adv-x="579" d="M88 500q0 21 14 55l119 285q17 40 39.5 57.5t54.5 17.5q37 0 65 -26t28 -60q0 -24 -13 -61l-110 -270l108 -258q17 -42 17 -64q0 -34 -29 -60t-66 -26q-61 0 -94 76l-117 278q-16 35 -16 56z" />
<glyph unicode="&#x203a;" horiz-adv-x="579" d="M172 176q0 30 14 62l111 270l-111 258q-14 35 -14 63q0 34 27.5 60t64.5 26q34 0 56.5 -17.5t39.5 -57.5l117 -279q17 -43 17 -55t-17 -55l-119 -285q-18 -40 -39.5 -58t-54.5 -18q-37 0 -64.5 26t-27.5 60z" />
<glyph unicode="&#x205f;" horiz-adv-x="471" />
<glyph unicode="&#x20ac;" horiz-adv-x="1572" d="M63 561q0 38 26 59t73 21h57q-2 20 -2 49v39h-55q-47 0 -73 21t-26 59t26 59t73 21h74q51 243 211.5 373.5t410.5 130.5q135 0 225 -35.5t168 -118.5q6 -6 13 -6q11 0 14 18q5 53 36.5 84t80.5 31q56 0 86 -37t30 -104v-240q0 -61 -34.5 -96t-96.5 -35q-60 0 -93 30 t-56 107q-17 57 -37 87.5t-57 58.5q-88 63 -219 63q-146 0 -243 -80t-132 -231h448q46 0 72.5 -21.5t26.5 -58.5q0 -38 -26.5 -59t-72.5 -21h-471q-2 -16 -2 -55q0 -17 2 -33h361q46 0 72 -21.5t26 -58.5q0 -38 -26 -59t-72 -21h-342q37 -155 131.5 -235t242.5 -80 q125 0 201 59q30 23 43.5 41.5t44.5 81.5q35 69 70 96t90 27q61 0 99 -35t38 -92q0 -82 -86 -174q-96 -102 -215 -149.5t-280 -47.5q-275 0 -451.5 132.5t-226.5 375.5h-78q-47 0 -73 21t-26 59z" />
<glyph unicode="&#x2122;" horiz-adv-x="2043" d="M55 1180v77q0 57 27.5 83t87.5 26h539q59 0 85.5 -26t26.5 -83v-77q0 -43 -19 -68t-54 -25q-34 0 -54 25t-20 66v28q0 22 -10 31.5t-33 9.5h-60q-23 0 -33 -9.5t-10 -31.5v-458q0 -23 9.5 -32t33.5 -9h11q28 0 45.5 -17t17.5 -43q0 -28 -19 -43.5t-53 -15.5h-268 q-35 0 -54.5 15.5t-19.5 43.5q0 26 18.5 43t47.5 17h10q22 0 31.5 9t9.5 32v458q0 22 -9.5 31.5t-31.5 9.5h-61q-22 0 -31.5 -9.5t-9.5 -31.5v-28q0 -43 -20.5 -67t-55.5 -24t-54.5 25t-19.5 68zM879 647q0 25 15.5 41t43.5 19q22 2 30.5 10.5t8.5 30.5v458q0 22 -8.5 30.5 t-30.5 10.5q-28 3 -43.5 19t-15.5 41q0 28 18.5 43.5t52.5 15.5h211q54 0 78 -17.5t39 -68.5l154 -475l153 477q15 50 39 67t78 17h207q34 0 52.5 -15.5t18.5 -43.5q0 -25 -15.5 -41t-43.5 -19q-22 -2 -30.5 -10.5t-8.5 -30.5v-458q0 -22 8.5 -30.5t30.5 -10.5 q28 -3 43.5 -19t15.5 -41q0 -28 -18.5 -43.5t-52.5 -15.5h-219q-35 0 -54.5 15.5t-19.5 43.5q0 25 15.5 41t43.5 19q22 2 30.5 10.5t8.5 30.5v466l-182 -528q-19 -52 -45.5 -75t-67.5 -23t-68 23.5t-46 74.5l-179 526v-464q0 -22 8.5 -30.5t30.5 -10.5q28 -3 44 -19t16 -41 q0 -28 -19.5 -43.5t-54.5 -15.5h-201q-34 0 -52.5 15.5t-18.5 43.5z" />
<glyph unicode="&#xe000;" horiz-adv-x="972" d="M0 0v973h973v-973h-973z" />
</font>
</defs>
</svg>
