<?xml version="1.0" standalone="no"?>
<!DOCTYPE svg PUBLIC "-//W3C//DTD SVG 1.1//EN" "http://www.w3.org/Graphics/SVG/1.1/DTD/svg11.dtd" >
<svg xmlns="http://www.w3.org/2000/svg">
<metadata></metadata>
<defs>
<font id="typewriter_urwextra_light" horiz-adv-x="1024" >
<font-face units-per-em="2048" ascent="1366" descent="-682" />
<missing-glyph horiz-adv-x="512" />
<glyph unicode="&#xfb01;" horiz-adv-x="1026" d="M23 930q0 18 22 18h143q29 0 29 29v16q0 113 12.5 174.5t44.5 112.5q35 54 101 83.5t149 29.5q176 0 252 -123q41 -61 41 -131q0 -12 -6.5 -19.5t-17.5 -7.5q-14 0 -18.5 8t-10.5 43q-14 86 -78.5 137.5t-161.5 51.5q-71 0 -128.5 -28t-86.5 -77q-43 -74 -43 -231v-39 q0 -29 29 -29h498q28 0 28 -28v-854q0 -29 29 -29h119q24 0 24 -19q0 -18 -24 -18h-328q-23 0 -23 18q0 19 23 19h102q29 0 29 29v817q0 28 -29 28h-448q-29 0 -29 -28v-817q0 -29 29 -29h121q22 0 22 -19q0 -18 -22 -18h-350q-23 0 -23 18q0 19 23 19h122q29 0 29 29v817 q0 28 -29 28h-143q-22 0 -22 19z" />
<glyph unicode="&#xfb02;" horiz-adv-x="1032" d="M25 930q0 18 22 18h141q29 0 29 29v8q0 125 12 191.5t43 109.5q74 105 287 105q64 0 147.5 -10t106.5 -21q14 -6 14 -27v-1267q0 -29 29 -29h121q22 0 22 -19q0 -18 -22 -18h-344q-23 0 -23 18q0 19 23 19h117q28 0 28 29v1234q0 21 -14 27q-23 10 -82 17.5t-115 7.5 q-177 0 -239 -68t-62 -260v-47q0 -29 29 -29h184q25 0 25 -18q0 -19 -25 -19h-184q-29 0 -29 -28v-817q0 -29 29 -29h121q22 0 22 -19q0 -18 -22 -18h-353q-22 0 -22 18q0 19 22 19h125q29 0 29 29v817q0 28 -29 28h-141q-22 0 -22 19z" />
<glyph horiz-adv-x="2048" />
<glyph horiz-adv-x="2048" />
<glyph unicode="&#xd;" horiz-adv-x="2048" />
<glyph unicode=" "  horiz-adv-x="512" />
<glyph unicode="&#x09;" horiz-adv-x="512" />
<glyph unicode="&#xa0;" horiz-adv-x="512" />
<glyph unicode="!" horiz-adv-x="421" d="M143 61q0 28 19 47t47 19q29 0 48 -19.5t19 -48.5q0 -26 -19.5 -45.5t-45.5 -19.5q-28 0 -48 19.5t-20 47.5zM166 1337q0 29 31 29h24q32 0 29 -29l-19 -1036q0 -25 -20 -25q-18 0 -18 25z" />
<glyph unicode="&#x22;" horiz-adv-x="581" d="M152 1335q-3 31 28 31h19q31 0 28 -31l-18 -309q0 -25 -19 -25q-20 0 -20 25zM354 1335q3 21 7.5 26t19.5 5h20q14 0 22 -7.5t7 -19.5v-4l-18 -309q0 -25 -21 -25q-17 0 -20 25z" />
<glyph unicode="#" d="M63 553q0 22 27 22h223l45 256h-215q-26 0 -26 23t26 23h224l82 464q3 25 24 25q9 0 16 -7t7 -16v-10l-82 -456h256l82 464q3 25 24 25q9 0 16 -7t7 -16v-10l-82 -456h215q29 0 29 -23t-29 -23h-223l-45 -256h215q28 0 28 -22q0 -23 -28 -23h-222l-90 -505 q-3 -25 -24 -25q-9 0 -16 7t-7 16v10l88 497h-254l-90 -505q-3 -25 -24 -25q-9 0 -16 7t-7 16v10l88 497h-215q-27 0 -27 23zM360 575h256l46 256h-256z" />
<glyph unicode="$" d="M88 31v403q0 15 7 24t18 9q19 0 22.5 -10.5t9.5 -77.5q20 -155 117 -254t240 -111v666q-5 2 -64 22q-110 41 -157.5 65t-87.5 58q-95 85 -95 217q0 115 71 206.5t187 125.5q61 15 146 19v178q0 26 22 26q25 0 25 -26v-178q253 -27 344 -256v198q0 31 25 31q24 0 24 -31 v-393q0 -31 -24 -31q-15 0 -20.5 11.5t-6.5 48.5q-3 152 -96.5 254t-245.5 121v-621q69 -21 201 -74q109 -46 160 -119t51 -182q0 -131 -69 -225t-190 -129q-59 -20 -153 -23v-163q0 -29 -23 -29q-24 0 -24 29v163q-122 2 -225.5 81.5t-137.5 197.5v-221q0 -14 -7 -22.5 t-17 -8.5q-12 0 -19.5 8.5t-7.5 22.5zM154 1044q0 -140 137 -219q54 -34 211 -88v611q-122 0 -199 -48q-67 -38 -108 -108.5t-41 -147.5zM549 14q166 8 262 97t96 237q0 119 -73 184.5t-285 135.5v-654z" />
<glyph unicode="%" horiz-adv-x="1376" d="M82 1030q0 177 60 268t177 91q120 0 178 -90t58 -275q0 -362 -236 -362q-237 0 -237 368zM125 1028q0 -332 194 -332q193 0 193 326q0 170 -47.5 251t-147.5 81q-192 0 -192 -326zM326 18q0 3 4 15l682 1319q8 14 20 14q8 0 13.5 -5.5t5.5 -12.5q0 -3 -4 -15l-682 -1319 q-8 -14 -21 -14q-8 0 -13 5t-5 13zM821 346q0 175 60.5 267t177.5 92q235 0 235 -363q0 -365 -235 -365q-238 0 -238 369zM864 346q0 -334 195 -334q98 0 145 80.5t47 249.5q0 328 -192 328q-195 0 -195 -324z" />
<glyph unicode="&#x26;" horiz-adv-x="1505" d="M88 358q0 204 201 334q57 37 149 76q-134 138 -178.5 210t-44.5 150q0 114 92.5 190.5t229.5 76.5q138 0 227.5 -77t89.5 -196q0 -113 -86.5 -209t-239.5 -155l457 -473q145 231 145 452q0 21 -18 21h-123q-26 0 -26 20q0 21 26 21h359q26 0 26 -21q0 -20 -26 -20h-144 q-14 0 -17 -10.5t-9 -73.5q-27 -242 -160 -424l190 -197q10 -10 25 -10h184q27 0 27 -20q0 -23 -27 -23h-217q-16 0 -26 10l-189 199q-200 -240 -473 -240q-183 0 -303.5 111t-120.5 278zM147 352q0 -146 104.5 -243t262.5 -97q120 0 232.5 59.5t201.5 170.5l-475 491 q-170 -70 -248 -161.5t-78 -219.5zM258 1135q0 -57 27 -109t92 -121q11 -12 22.5 -23.5t38.5 -38t56 -55.5q315 131 315 328q0 103 -77 170.5t-195 67.5t-198.5 -63.5t-80.5 -155.5z" />
<glyph unicode="'" horiz-adv-x="378" d="M152 1335q-3 31 28 31h19q31 0 28 -31l-18 -309q0 -25 -19 -25q-20 0 -20 25z" />
<glyph unicode="(" horiz-adv-x="526" d="M98 508q0 202 49.5 371.5t165.5 363.5q42 72 62 97.5t31 25.5q8 0 13 -5t5 -13q0 -5 -23 -37q-39 -53 -90 -152t-80 -178q-84 -225 -84 -479q0 -211 68.5 -420.5t194.5 -382.5q14 -20 14 -27q0 -8 -5 -13t-13 -5q-19 0 -91 119q-217 348 -217 735z" />
<glyph unicode=")" horiz-adv-x="526" d="M104 -328q0 5 23 37q39 53 90 152t80 178q84 225 84 479q0 210 -68.5 419.5t-193.5 383.5q-15 21 -15 27q0 7 5.5 12.5t13.5 5.5q9 0 27.5 -24.5t62.5 -94.5q217 -344 217 -735q0 -200 -50 -371t-165 -364q-72 -123 -92 -123q-8 0 -13.5 5.5t-5.5 12.5z" />
<glyph unicode="*" d="M166 1106q0 10 7.5 18.5t16.5 8.5q10 0 17 -5l219 -79q44 -15 47 -15q7 0 14 7.5t7 15.5l-2 24l-7 252q0 15 7.5 24t19.5 9q14 0 21 -9t6 -24l-9 -252v-22q0 -11 6 -18t15 -7t39 10l229 80q4 2 15 2q10 0 17 -7.5t7 -16.5q0 -21 -24 -27l-238 -65q-31 -9 -37 -13t-6 -16 q0 -6 4.5 -13t32.5 -42l133 -174q8 -16 8 -23q0 -9 -8 -16.5t-18 -7.5q-17 0 -25 16l-123 186q-26 38 -32 44.5t-15 6.5t-14 -5.5t-25 -37.5l-133 -190q-11 -16 -27 -16q-11 0 -18.5 7.5t-7.5 18.5q0 10 10 23l143 178q23 28 27 33.5t4 11.5q0 14 -7 18.5t-48 16.5l-224 63 q-24 6 -24 27z" />
<glyph unicode="+" d="M90 702q0 23 27 23h370v371q0 28 25 28q23 0 23 -28v-371h370q27 0 27 -23q0 -22 -27 -22h-370v-371q0 -28 -23 -28q-25 0 -25 28v371h-370q-27 0 -27 22z" />
<glyph unicode="," horiz-adv-x="393" d="M164 -256q0 6 8 14q96 116 96 209q0 35 -20 35q-9 0 -15 -2t-14 -2q-20 0 -34.5 17t-14.5 42q0 29 19 49.5t47 20.5q34 0 53.5 -29t19.5 -80q0 -118 -80 -237q-39 -53 -49 -53q-6 0 -11 5t-5 11z" />
<glyph unicode="-" horiz-adv-x="442" d="M0 496q0 22 27 22h389q26 0 26 -20q0 -23 -26 -23h-389q-12 0 -19.5 6t-7.5 15z" />
<glyph unicode="." horiz-adv-x="393" d="M129 61q0 28 19 47t47 19q29 0 48 -19.5t19 -48.5q0 -26 -19.5 -45.5t-45.5 -19.5q-28 0 -48 19.5t-20 47.5z" />
<glyph unicode="/" horiz-adv-x="1083" d="M-80 -326q0 10 6 19l985 1659q11 14 23 14q9 0 15.5 -6t6.5 -14q0 -10 -6 -19l-985 -1659q-11 -14 -22 -14q-9 0 -16 6t-7 14z" />
<glyph unicode="0" d="M92 674q0 354 107.5 535.5t318.5 181.5t312.5 -170.5t101.5 -522.5q0 -350 -108.5 -536.5t-311.5 -186.5q-107 0 -194 53t-136 150q-49 93 -69.5 206.5t-20.5 289.5zM147 672q0 -167 17.5 -272.5t60.5 -194.5q43 -86 118 -134t167 -48q180 0 273.5 169t93.5 494 q0 322 -78 481q-40 83 -114.5 129.5t-168.5 46.5q-369 0 -369 -671z" />
<glyph unicode="1" d="M209 1079q0 9 7 16.5t38 28.5q150 105 215 164q53 48 74.5 63t36.5 15q26 0 26 -47v-1247q0 -29 29 -29h160q26 0 26 -20q0 -23 -26 -23h-441q-24 0 -24 23q0 20 24 20h172q29 0 29 29v1169q0 55 -10 55q-9 0 -23 -14q-104 -95 -188 -161t-101 -66q-11 0 -17.5 6.5 t-6.5 17.5z" />
<glyph unicode="2" d="M88 27v26q0 16 33 51q93 97 248 271q191 211 231 254q146 155 195 240.5t49 183.5q0 136 -84.5 213t-233.5 77q-145 0 -236.5 -91.5t-96.5 -239.5q-3 -37 -29 -37q-12 0 -20.5 9t-8.5 22q0 56 23 124.5t57 116.5q107 144 315 144q172 0 271.5 -90.5t99.5 -245.5 q0 -97 -37 -170.5t-153 -206.5q-160 -179 -451 -496q-40 -44 -125 -141h727q29 0 29 29v161q0 29 24 29q23 0 23 -29v-202q0 -29 -29 -29h-792q-29 0 -29 27z" />
<glyph unicode="3" d="M109 360v5q0 12 7.5 20t18.5 8q19 0 23 -11t12 -79q4 -47 36.5 -105.5t72.5 -95.5q91 -79 227 -79q149 0 242.5 94t93.5 243q0 129 -72 207q-42 45 -110 73t-136 28q-56 2 -69 6t-13 22q0 19 12.5 23.5t75.5 5.5q137 6 218 86t81 209q0 145 -90 234t-235 89 q-75 0 -142 -26t-110 -72q-34 -38 -58.5 -97t-27.5 -108q0 -32 -29 -32q-26 0 -26 30q0 44 19 102.5t48 98.5q109 152 324 152q172 0 276.5 -99t104.5 -262q0 -126 -67 -214.5t-177 -110.5q-21 -3 -21 -7t21 -8q125 -32 193.5 -120.5t68.5 -215.5q0 -166 -112 -272.5 t-287 -106.5q-169 0 -281 109.5t-112 275.5z" />
<glyph unicode="4" d="M25 485q0 20 16 39l653 830q10 12 27 12h29q28 0 28 -29v-831q0 -29 29 -29h164q26 0 26 -20q0 -23 -26 -23h-164q-29 0 -29 -28v-334q0 -29 29 -29h143q25 0 25 -20q0 -10 -7 -16.5t-18 -6.5h-422q-24 0 -24 23q0 20 24 20h172q29 0 29 29v334q0 28 -29 28h-614 q-61 0 -61 51zM68 477h661v842z" />
<glyph unicode="5" d="M133 332q0 13 7.5 21.5t19.5 8.5q17 0 21 -10t7 -61q3 -40 30.5 -92t62.5 -86q93 -90 237 -90q170 0 271.5 113.5t101.5 305.5q0 182 -94 285.5t-260 103.5q-117 0 -202.5 -59.5t-117.5 -163.5q-8 -28 -31 -28q-30 0 -30 38l28 721q0 27 29 27h653q25 0 25 -20 q0 -9 -7 -15t-18 -6h-606q-29 0 -29 -29l-22 -624q34 94 123.5 148t210.5 54q187 0 294 -115.5t107 -316.5q0 -214 -116.5 -340.5t-311.5 -126.5q-107 0 -191 43t-135 125q-25 40 -41 93t-16 96z" />
<glyph unicode="6" d="M98 537q0 395 101 614q51 114 147 177t219 63q200 0 289 -146q21 -33 36 -81.5t15 -82.5q0 -28 -26 -28q-21 0 -27 24q-9 61 -20 92t-35 68q-74 106 -236 106q-129 0 -224 -87.5t-136 -245.5q-19 -75 -34 -192t-15 -189q59 126 147 184.5t221 58.5q187 0 297.5 -120 t110.5 -324q0 -206 -114 -329.5t-304 -123.5q-121 0 -211 56t-141 162q-60 123 -60 344zM158 446q0 -196 94.5 -309.5t257.5 -113.5q167 0 265.5 109t98.5 294q0 184 -96.5 293.5t-259.5 109.5q-162 0 -261 -105.5t-99 -277.5z" />
<glyph unicode="7" d="M86 1112v225q0 29 29 29h809q28 0 28 -27v-24q0 -15 -5.5 -28.5t-35.5 -74.5q-5 -9 -13 -24.5t-15 -28.5t-13 -26q-59 -123 -79 -160q-145 -285 -299 -635q-54 -132 -107 -246q-13 -36 -23 -51q-9 -24 -16.5 -32.5t-19.5 -8.5t-21.5 8.5t-9.5 20.5q0 26 162 372 q41 82 129 277q260 533 288 584q17 35 17 41q0 22 -29 22h-702q-29 0 -29 -29v-184q0 -27 -22 -27q-23 0 -23 27z" />
<glyph unicode="8" d="M109 365q0 135 73 226t209 126q-128 31 -197 117t-69 215q0 154 107.5 248t285.5 94q177 0 281 -90t104 -242q0 -135 -67 -222.5t-195 -119.5q130 -31 202 -124t72 -231q0 -171 -112.5 -279t-292.5 -108q-178 0 -289.5 108.5t-111.5 281.5zM162 375q0 -157 97.5 -254.5 t254.5 -97.5t252.5 94.5t95.5 251.5q0 153 -93 241t-255 88q-157 0 -254.5 -89t-97.5 -234zM178 1051q0 -149 89.5 -232.5t250.5 -83.5q152 0 242 84t90 225q0 140 -88.5 219.5t-245.5 79.5q-151 0 -244.5 -81t-93.5 -211z" />
<glyph unicode="9" d="M96 938q0 206 114 329.5t304 123.5q247 0 352 -217q60 -120 60 -345q0 -392 -101 -614q-51 -114 -147 -177t-219 -63q-196 0 -285 148q-53 83 -53 162q0 32 26 32q24 0 27 -30q38 -264 291 -264q129 0 224.5 89t133.5 244q49 198 49 383q-36 -76 -66 -115t-79 -71 q-92 -59 -221 -59q-189 0 -299.5 120t-110.5 324zM150 940q0 -184 96.5 -293.5t259.5 -109.5q161 0 260.5 105.5t99.5 277.5q0 196 -94.5 309.5t-257.5 113.5q-167 0 -265.5 -109t-98.5 -294z" />
<glyph unicode=":" horiz-adv-x="393" d="M129 61q0 28 19 47t47 19q29 0 48 -19.5t19 -48.5q0 -26 -19.5 -45.5t-45.5 -19.5q-28 0 -48 19.5t-20 47.5zM129 891q0 28 19 46.5t47 18.5q29 0 48 -19t19 -48q0 -26 -19.5 -46t-45.5 -20q-28 0 -48 20t-20 48z" />
<glyph unicode=";" horiz-adv-x="393" d="M129 -256q0 6 8 14q96 116 96 209q0 35 -20 35q-8 0 -14 -2t-15 -2q-20 0 -34.5 17t-14.5 42q0 29 19 49.5t47 20.5q34 0 53.5 -29t19.5 -80q0 -119 -79 -237q-39 -53 -50 -53q-6 0 -11 5t-5 11zM133 891q0 28 19 46.5t47 18.5q29 0 48 -19t19 -48q0 -26 -19.5 -46 t-45.5 -20q-28 0 -48 20t-20 48z" />
<glyph unicode="&#x3c;" d="M68 657v50l886 385v-52l-831 -358l831 -356v-52z" />
<glyph unicode="=" d="M90 553q0 22 27 22h790q27 0 27 -22q0 -23 -27 -23h-790q-27 0 -27 23zM90 854q0 23 27 23h790q27 0 27 -23t-27 -23h-790q-27 0 -27 23z" />
<glyph unicode="&#x3e;" d="M70 274v52l831 356l-831 358v52l886 -385v-50z" />
<glyph unicode="?" horiz-adv-x="903" d="M96 1053q0 84 54 180q44 75 126 116.5t187 41.5q169 0 271 -96.5t102 -254.5q0 -92 -39.5 -165t-134.5 -156l-54 -47q-101 -84 -132.5 -157t-31.5 -220q0 -12 -7 -20.5t-19 -8.5q-27 0 -27 35v6v37q3 135 39 204t156 169l47 43q77 69 110 133.5t33 146.5q0 114 -61 197 q-79 111 -252 111q-141 0 -217.5 -75t-91.5 -229q-3 -30 -29 -30q-29 0 -29 39zM350 61q0 28 19 47t47 19q29 0 48 -19.5t19 -48.5q0 -26 -19.5 -45.5t-45.5 -19.5q-28 0 -48 19.5t-20 47.5z" />
<glyph unicode="@" horiz-adv-x="1591" d="M96 557q0 162 69.5 315t184 265t270.5 179.5t322 67.5q245 0 399 -139t154 -360q0 -120 -50 -236.5t-138 -199.5q-62 -57 -126 -82t-153 -25h-51q-13 0 -22 7t-7 16l2 10l11 53v4q0 6 -9 6q-2 0 -43 -41q-32 -34 -93 -54.5t-126 -20.5q-126 0 -194 69t-68 195 q0 201 110.5 329.5t282.5 128.5q75 0 123 -24t88 -82q3 -6 8 -6q8 0 11 12l10 55q3 25 29 25h120q25 0 25 -20q0 -21 -25 -21h-80q-25 0 -28 -25l-96 -542v-10q0 -9 6.5 -16t15.5 -7h6q88 0 147.5 27t118.5 92q66 74 105 177t39 204q0 201 -139 325.5t-363 124.5 q-156 0 -302.5 -63.5t-254.5 -168.5t-173 -248.5t-65 -295.5q0 -239 154.5 -381.5t413.5 -142.5q101 0 212.5 20t182.5 51q42 19 51 19t17 -8t8 -17q0 -16 -19 -26q-92 -41 -212 -65.5t-232 -24.5q-287 0 -457 156t-170 419zM477 598q0 -114 57 -173.5t164 -59.5 q178 0 256 151q29 57 46.5 133.5t17.5 147.5q0 204 -201 204q-149 0 -244.5 -113t-95.5 -290z" />
<glyph unicode="A" horiz-adv-x="1398" d="M14 23q0 20 27 20h63q21 0 29 20l512 1270q17 45 55 45q37 0 54 -45l508 -1270q4 -12 10 -16t18 -4h70q26 0 26 -20q0 -23 -26 -23h-334q-11 0 -18 6.5t-7 16.5q0 20 25 20h145q31 0 31 23q0 2 -4 14l-170 428q-4 12 -10.5 16t-20.5 4h-602q-21 0 -28 -20l-172 -428 q-2 -4 -2 -14q0 -23 28 -23h146q26 0 26 -20q0 -23 -26 -23h-326q-27 0 -27 23zM403 592q0 -23 29 -23h529q28 0 28 23q0 10 -2 14l-266 672q-9 24 -12.5 28.5t-12.5 4.5q-8 0 -10.5 -4t-11.5 -29l-266 -672q-1 -2 -2 -5t-2 -5t-1 -4z" />
<glyph unicode="B" horiz-adv-x="1239" d="M74 23q0 20 26 20h146q28 0 28 29v1224q0 29 -28 29h-146q-26 0 -26 21q0 20 26 20h598q173 0 263 -57q70 -44 107.5 -114.5t37.5 -158.5t-36 -158t-101 -108q-57 -36 -115 -55q83 -27 139 -53q71 -35 111.5 -112t40.5 -177q0 -208 -172 -312q-45 -25 -127.5 -43 t-153.5 -18h-592q-26 0 -26 23zM328 72q0 -29 28 -29h281q140 0 229.5 28.5t147.5 92.5q76 82 76 211q0 90 -38.5 157.5t-109.5 102.5q-58 29 -122.5 40t-178.5 11h-285q-28 0 -28 -29v-585zM328 758q0 -29 28 -29h285q197 0 303.5 78.5t106.5 224.5q0 66 -28.5 127 t-76.5 98q-47 37 -117.5 52.5t-187.5 15.5h-285q-28 0 -28 -29v-538z" />
<glyph unicode="C" horiz-adv-x="1290" d="M98 692q0 342 185 533q78 80 183 123t220 43q110 0 211 -41.5t166 -112.5q26 -29 41.5 -57.5t36.5 -83.5v241q0 29 22 29q25 0 25 -29v-424q0 -28 -25 -28q-14 0 -18.5 9t-5.5 40q-6 178 -134.5 293.5t-320.5 115.5q-243 0 -386.5 -177t-143.5 -476q0 -307 144 -487 t390 -180q186 0 310.5 109t138.5 282q3 37 28 37q13 0 21 -8.5t8 -22.5q0 -62 -29 -138t-73 -130q-69 -85 -174.5 -131t-229.5 -46q-270 0 -430 194.5t-160 522.5z" />
<glyph unicode="D" horiz-adv-x="1431" d="M72 23q0 20 24 20h148q28 0 28 29v1224q0 29 -28 29h-148q-10 0 -17 6t-7 15q0 20 24 20h498q179 0 282.5 -25.5t200.5 -93.5q258 -181 258 -559q0 -184 -67 -332t-187 -235q-93 -63 -207.5 -92t-279.5 -29h-498q-24 0 -24 23zM326 72q0 -29 28 -29h234q297 0 469 129 q107 82 165 216.5t58 301.5q0 344 -227 512q-91 66 -197 94.5t-262 28.5h-240q-28 0 -28 -29v-1224z" />
<glyph unicode="E" horiz-adv-x="1226" d="M70 23q0 20 26 20h148q28 0 28 29v1224q0 29 -28 29h-148q-26 0 -26 21q0 20 26 20h963q28 0 28 -29v-350q0 -29 -22 -29q-10 0 -17.5 8.5t-7.5 20.5v309q0 29 -28 29h-658q-28 0 -28 -29v-548q0 -29 28 -29h367q29 0 29 29v182q0 28 24 28q23 0 23 -28v-479 q0 -29 -23 -29q-24 0 -24 29v198q0 29 -29 29h-367q-28 0 -28 -29v-577q0 -29 28 -29h666q31 0 31 29v319q0 31 22 31q11 0 18 -9t7 -22v-362q0 -29 -29 -29h-973q-26 0 -26 23z" />
<glyph unicode="F" horiz-adv-x="1118" d="M70 23q0 20 26 20h148q28 0 28 29v1224q0 29 -28 29h-148q-26 0 -26 21q0 20 26 20h926q29 0 29 -29v-346q0 -28 -23 -28q-24 0 -24 28v305q0 29 -29 29h-621q-28 0 -28 -29v-569q0 -29 28 -29h355q28 0 28 29v174q0 29 25 29q22 0 22 -29v-452q0 -29 -22 -29 q-25 0 -25 29v180q0 28 -28 28h-355q-28 0 -28 -28v-557q0 -29 28 -29h207q27 0 27 -20q0 -23 -27 -23h-465q-26 0 -26 23z" />
<glyph unicode="G" horiz-adv-x="1456" d="M96 678q0 329 168.5 521t458.5 192q221 0 360 -115q40 -34 63.5 -66t49.5 -88v215q0 29 25 29q22 0 22 -29v-422q0 -28 -22 -28q-25 0 -25 28v11q0 192 -126 304.5t-341 112.5q-270 0 -423.5 -175.5t-153.5 -485.5q0 -296 153 -469q78 -88 194 -139t236 -51 q154 0 274.5 79t161.5 207q21 73 21 226q0 65 -5 79.5t-28 14.5h-205q-26 0 -26 20q0 21 26 21h432q12 0 19.5 -6t7.5 -15q0 -20 -27 -20h-112q-29 0 -29 -29v-569q0 -14 -7 -22.5t-17 -8.5q-25 0 -25 31v229q-29 -68 -62 -109t-90 -81q-133 -95 -309 -95q-287 0 -463 194 t-176 509z" />
<glyph unicode="H" horiz-adv-x="1490" d="M72 23q0 20 26 20h148q28 0 28 29v1224q0 29 -28 29h-148q-26 0 -26 21q0 20 26 20h414q27 0 27 -20q0 -9 -7.5 -15t-19.5 -6h-156q-28 0 -28 -29v-553q0 -28 28 -28h781q28 0 28 28v553q0 29 -28 29h-148q-26 0 -26 21q0 20 26 20h404q26 0 26 -20q0 -21 -26 -21h-146 q-28 0 -28 -29v-1224q0 -29 28 -29h146q26 0 26 -20q0 -23 -26 -23h-404q-26 0 -26 23q0 20 26 20h148q28 0 28 29v573q0 29 -28 29h-781q-28 0 -28 -29v-573q0 -29 28 -29h156q27 0 27 -20q0 -23 -27 -23h-414q-26 0 -26 23z" />
<glyph unicode="I" horiz-adv-x="626" d="M70 23q0 20 26 20h162q29 0 29 29v1224q0 29 -29 29h-162q-26 0 -26 21q0 20 26 20h432q27 0 27 -20q0 -9 -7.5 -15t-19.5 -6h-159q-29 0 -29 -29v-1224q0 -29 29 -29h159q27 0 27 -20q0 -23 -27 -23h-432q-26 0 -26 23z" />
<glyph unicode="J" horiz-adv-x="970" d="M41 391q0 39 29 39q18 0 22 -11t6 -59q1 -66 18 -132.5t40 -100.5q70 -104 217 -104q154 0 231 96q40 47 54 105.5t14 174.5v897q0 29 -29 29h-182q-11 0 -18 6t-7 15q0 20 25 20h422q26 0 26 -20q0 -21 -26 -21h-129q-29 0 -29 -29v-895q0 -127 -18.5 -196t-65.5 -123 q-44 -51 -115 -79t-155 -28q-330 0 -330 416z" />
<glyph unicode="K" horiz-adv-x="1220" d="M74 23q0 20 24 20h146q28 0 28 29v1224q0 29 -28 29h-146q-10 0 -17 6t-7 15q0 20 24 20h396q26 0 26 -20q0 -21 -26 -21h-140q-28 0 -28 -29v-559l622 543q25 22 25 29q0 16 -41 16h-82q-12 0 -19.5 6t-7.5 15q0 20 27 20h293q26 0 26 -20q0 -21 -26 -21h-62 q-16 0 -24 -10l-651 -570q-13 -10 -13 -22q0 -8 13 -21l675 -649q10 -10 27 -10h47q25 0 25 -20q0 -10 -7 -16.5t-18 -6.5h-285q-26 0 -26 23q0 20 26 20h84q41 0 41 14q0 9 -22 31l-647 621v-637q0 -29 28 -29h140q26 0 26 -20q0 -23 -26 -23h-396q-24 0 -24 23z" />
<glyph unicode="L" horiz-adv-x="1118" d="M70 23q0 20 24 20h150q28 0 28 29v1224q0 29 -28 29h-150q-10 0 -17 6t-7 15q0 20 24 20h469q25 0 25 -20q0 -9 -7 -15t-18 -6h-209q-28 0 -28 -29v-1224q0 -29 28 -29h621q29 0 29 29v321q0 29 24 29q23 0 23 -29v-364q0 -29 -29 -29h-928q-24 0 -24 23z" />
<glyph unicode="M" horiz-adv-x="1828" d="M68 23q0 20 24 20h166q29 0 29 29v1224q0 29 -29 29h-166q-10 0 -17 6t-7 15q0 20 24 20h283q20 0 28 -18l299 -758q137 -348 216 -541q4 12 215 543l299 756q8 18 28 18h273q26 0 26 -20q0 -21 -26 -21h-162q-29 0 -29 -29v-1224q0 -29 29 -29h162q26 0 26 -20 q0 -23 -26 -23h-420q-27 0 -27 23q0 20 27 20h147q21 0 25 9t4 57v1220h-12l-523 -1296q-14 -33 -41 -33q-25 0 -39 33l-520 1292h-14v-1255q0 -27 29 -27h143q25 0 25 -20q0 -10 -7 -16.5t-18 -6.5h-420q-24 0 -24 23z" />
<glyph unicode="N" horiz-adv-x="1497" d="M66 23q0 20 24 20h154q28 0 28 29v1224q0 29 -28 29h-154q-10 0 -17 6t-7 15q0 20 24 20h246q30 0 49 -25l780 -1235q9 -16 13.5 -23t6 -8t3.5 -1q10 3 10 43v1179q0 29 -29 29h-165q-11 0 -18 6t-7 15q0 20 25 20h407q27 0 27 -20q0 -9 -7.5 -15t-19.5 -6h-131 q-29 0 -29 -29v-1239q0 -38 -9 -52.5t-32 -14.5q-33 0 -65 49l-772 1216q-19 29 -29 29q-8 0 -13 -12t-5 -31v-1169q0 -29 28 -29h160q27 0 27 -20q0 -23 -27 -23h-424q-24 0 -24 23z" />
<glyph unicode="O" horiz-adv-x="1413" d="M96 684q0 309 148 496q79 100 201 155.5t260 55.5q140 0 262.5 -55t203.5 -156q146 -178 146 -478q0 -154 -35 -285.5t-100 -219.5q-73 -102 -201.5 -162t-273.5 -60q-146 0 -268.5 57t-205.5 163q-137 179 -137 489zM152 686q0 -300 122 -461q73 -97 187 -149.5 t248 -52.5t252 57t182 153q56 85 87.5 209.5t31.5 259.5q0 295 -149 468t-404 173q-131 0 -242.5 -49.5t-181.5 -138.5q-133 -169 -133 -469z" />
<glyph unicode="P" horiz-adv-x="1126" d="M76 23q0 20 24 20h144q28 0 28 29v1224q0 29 -28 29h-144q-10 0 -17 6t-7 15q0 20 24 20h480q156 0 241 -24.5t144 -86.5q45 -50 70.5 -121.5t25.5 -148.5q0 -87 -33 -163t-90 -124q-63 -51 -152 -70.5t-254 -19.5h-178q-28 0 -28 -28v-508q0 -29 28 -29h187q26 0 26 -20 q0 -23 -26 -23h-441q-24 0 -24 23zM326 678q0 -29 28 -29h178q144 0 229 20.5t142 67.5q49 41 76 106.5t27 141.5q0 140 -78 234q-51 58 -129 82t-219 24h-226q-28 0 -28 -29v-618z" />
<glyph unicode="Q" horiz-adv-x="1374" d="M96 713q0 310 167 494t448 184q269 0 428 -185t159 -497q0 -267 -112 -447q-43 -70 -119.5 -135t-138.5 -82q-6 -3 -6 -6q0 -4 10 -4q4 0 72 6q12 2 94 2h258q24 0 24 -20q0 -23 -24 -23h-449q-9 0 -45 -4q-140 -14 -213 -14q-134 0 -255.5 73.5t-188.5 196.5 q-109 198 -109 461zM152 717q0 -318 142.5 -502t389.5 -184q253 0 406 186.5t153 495.5q0 287 -146 458.5t-390 171.5q-118 0 -224 -43t-178 -120q-72 -78 -112.5 -201.5t-40.5 -261.5z" />
<glyph unicode="R" horiz-adv-x="1294" d="M61 23q0 20 25 20h158q28 0 28 29v1224q0 29 -28 29h-158q-11 0 -18 6t-7 15q0 20 25 20h522q135 0 220.5 -20.5t146.5 -67.5q57 -44 88 -113t31 -151q0 -98 -43.5 -179t-118.5 -122q-50 -24 -144 -47q89 -17 136 -72t90 -191l112 -340q8 -20 29 -20h100q25 0 25 -20 q0 -23 -25 -23h-131q-23 0 -31 6.5t-16 28.5l-114 354q-37 113 -66.5 158.5t-81.5 70.5q-71 33 -205 33h-256q-28 0 -28 -28v-551q0 -29 28 -29h162q25 0 25 -20q0 -10 -7 -16.5t-18 -6.5h-430q-11 0 -18 6.5t-7 16.5zM326 721q0 -29 28 -29h256q117 0 190 15.5t122 50.5 q52 36 84 106.5t32 143.5q0 76 -29 139.5t-83 101.5q-55 41 -129 58.5t-193 17.5h-250q-28 0 -28 -29v-575z" />
<glyph unicode="S" horiz-adv-x="1069" d="M109 29v391q0 31 24 31q25 0 25 -35q7 -173 118 -283t277 -110q161 0 263 91.5t102 237.5q0 106 -60.5 168.5t-214.5 116.5l-174 61q-114 40 -168.5 67.5t-95.5 65.5q-90 81 -90 209q0 151 112 251t279 100q176 0 295 -103q32 -28 54 -59t48 -88v196q0 29 25 29 q22 0 22 -29v-387q0 -28 -24 -28q-15 0 -19.5 9.5t-5.5 47.5q-5 157 -115 260.5t-274 103.5q-146 0 -244 -87t-98 -216q0 -103 71 -168t244 -122l177 -60q161 -52 236 -134t75 -204q0 -166 -115 -271.5t-295 -105.5q-144 0 -244 66t-163 201v-213q0 -29 -23 -29 q-24 0 -24 29z" />
<glyph unicode="T" horiz-adv-x="1222" d="M68 989v348q0 29 28 29h1028q29 0 29 -29v-348q0 -28 -23 -28q-24 0 -24 28v307q0 29 -29 29h-409q-29 0 -29 -29v-1224q0 -29 29 -29h204q25 0 25 -20q0 -10 -7 -16.5t-18 -6.5h-522q-24 0 -24 23q0 20 24 20h207q29 0 29 29v1224q0 29 -29 29h-414q-28 0 -28 -29v-307 q0 -28 -23 -28q-24 0 -24 28z" />
<glyph unicode="U" horiz-adv-x="1454" d="M55 1346q0 20 27 20h410q26 0 26 -20q0 -21 -26 -21h-164q-29 0 -29 -29v-766q0 -113 19.5 -191.5t62.5 -143.5q116 -172 354 -172q212 0 324 129t112 374v770q0 29 -28 29h-164q-12 0 -19.5 6t-7.5 15q0 20 27 20h399q27 0 27 -20q0 -9 -7.5 -15t-19.5 -6h-131 q-28 0 -28 -29v-772q0 -119 -19.5 -198.5t-64.5 -149.5q-133 -201 -402 -201q-261 0 -393 189q-51 72 -72.5 156t-21.5 208v768q0 29 -29 29h-135q-12 0 -19.5 6t-7.5 15z" />
<glyph unicode="V" horiz-adv-x="1390" d="M14 1346q0 20 27 20h379q24 0 24 -20q0 -9 -7 -15t-17 -6h-174q-29 0 -29 -22q0 -9 2 -15l324 -856q65 -168 75 -209q32 -100 46.5 -131t27.5 -31q12 0 24.5 28t47.5 134q5 16 78 207l321 858q2 4 2 15q-3 22 -28 22h-168q-11 0 -18 6t-7 15q0 20 25 20h385q24 0 24 -20 q0 -9 -7 -15t-17 -6h-103q-23 0 -30 -20l-465 -1233q-30 -80 -68 -80q-35 0 -65 80l-465 1233q-8 20 -29 20h-88q-12 0 -19.5 6t-7.5 15z" />
<glyph unicode="W" horiz-adv-x="1828" d="M14 1346q0 20 27 20h375q24 0 24 -20q0 -9 -7 -15t-17 -6h-176q-26 0 -29 -22v-13l281 -1149q15 -49 24 -49q13 0 25 49l323 1151q20 74 56 74q20 0 33 -17t24 -57l321 -1151q15 -54 25 -51q13 3 25 51l284 1149q2 6 2 13q0 22 -28 22h-179q-10 0 -17 6t-7 15q0 20 24 20 h363q27 0 27 -20q0 -9 -7.5 -15t-19.5 -6h-80q-23 0 -31 -22l-301 -1227q-7 -32 -23.5 -54t-31.5 -22t-30.5 21t-24.5 55l-326 1165q-16 49 -24 49q-10 0 -25 -49l-328 -1165q-22 -76 -55 -76q-37 0 -55 76l-299 1227q-3 13 -9 17.5t-20 4.5h-86q-12 0 -19.5 6t-7.5 15z" />
<glyph unicode="X" horiz-adv-x="1454" d="M14 23q0 20 27 20h100q15 0 27 12l508 635q8 8 8 19q0 12 -8 20l-469 586q-12 12 -29 12h-100q-25 0 -25 19q0 20 25 20h379q26 0 26 -20q0 -21 -26 -21h-140q-28 0 -28 -22q0 -5 8 -21l412 -508q9 -12 20 -12q12 0 23 14l405 506q10 13 10 21q0 9 -8 15.5t-20 6.5h-135 q-12 0 -19.5 6t-7.5 15q0 20 27 20h366q25 0 25 -20q0 -9 -7 -15t-18 -6h-100q-17 0 -27 -12l-469 -584q-8 -13 -8 -20q0 -6 8 -19l510 -635q12 -12 27 -12h104q27 0 27 -20q0 -23 -27 -23h-397q-25 0 -25 23q0 20 25 20h156q12 0 20 6.5t8 16.5q0 12 -8 20l-451 557 q-11 14 -20 14q-12 0 -23 -14l-448 -557q-8 -16 -8 -20q0 -9 8 -16t20 -7h158q25 0 25 -20q0 -23 -25 -23h-389q-27 0 -27 23z" />
<glyph unicode="Y" horiz-adv-x="1249" d="M14 1346q0 20 27 20h360q25 0 25 -20q0 -9 -7 -15t-18 -6h-145q-12 0 -20.5 -6.5t-8.5 -15.5q0 -7 6 -19l396 -661l397 661q6 9 6 19q0 9 -8 15.5t-20 6.5h-146q-10 0 -17 6t-7 15q0 20 24 20h352q27 0 27 -20q0 -9 -7.5 -15t-19.5 -6h-88q-12 0 -17 -3t-11 -13 l-437 -727q-6 -10 -6 -23v-487q0 -29 29 -29h205q24 0 24 -20q0 -23 -24 -23h-520q-27 0 -27 23q0 20 27 20h204q29 0 29 29v487q0 13 -6 23l-434 727q-9 16 -29 16h-88q-12 0 -19.5 6t-7.5 15z" />
<glyph unicode="Z" horiz-adv-x="1236" d="M94 41q0 13 5.5 23t27.5 38l901 1180q12 15 12 23q0 20 -32 20h-803q-29 0 -29 -29v-305q0 -28 -22 -28q-25 0 -25 28v346q0 29 29 29h919q37 0 37 -37q0 -27 -16 -43l-920 -1200q-10 -17 -10 -25q0 -18 33 -18h852q28 0 28 29v323q0 31 25 31q22 0 22 -31v-366 q0 -29 -28 -29h-961q-45 0 -45 41z" />
<glyph unicode="[" horiz-adv-x="526" d="M188 -317v1654q0 29 29 29h156q24 0 24 -20q0 -9 -7 -15t-17 -6h-111q-29 0 -29 -29v-1572q0 -29 29 -29h111q10 0 17 -6t7 -15q0 -20 -24 -20h-156q-29 0 -29 29z" />
<glyph unicode="\" horiz-adv-x="1083" d="M127 1346q0 8 7 14t16 6q11 0 22 -14l985 -1659q6 -9 6 -19q0 -8 -6.5 -14t-15.5 -6q-15 0 -23 14l-985 1659q-6 9 -6 19z" />
<glyph unicode="]" horiz-adv-x="526" d="M127 -326q0 9 7 15t18 6h110q29 0 29 29v1572q0 29 -29 29h-110q-11 0 -18 6t-7 15q0 20 25 20h155q29 0 29 -29v-1654q0 -29 -29 -29h-155q-25 0 -25 20z" />
<glyph unicode="^" d="M88 803l391 563h64l391 -563h-62l-364 526l-361 -526h-59z" />
<glyph unicode="_" d="M0 -168h1024v-47h-1024v47z" />
<glyph unicode="`" d="M362 1333q0 10 9 18.5t20 8.5q16 0 27 -19l137 -200q8 -16 8 -19q0 -8 -7.5 -15t-16.5 -7q-13 0 -21 14l-145 195q-11 15 -11 24z" />
<glyph unicode="a" horiz-adv-x="1062" d="M88 254q0 82 39.5 148.5t108.5 103.5q59 31 149 44t248 13q69 0 135 -4h16q27 0 27 33q0 162 -37 223q-72 119 -262 119q-143 0 -228.5 -59t-97.5 -166q-3 -31 -26 -31q-12 0 -19.5 7.5t-7.5 19.5q0 47 30.5 103t74.5 91q96 78 274 78q192 0 285 -107q37 -43 52 -102 t15 -162v-540q0 -29 29 -29h111q22 0 22 -19q0 -18 -22 -18h-160q-29 0 -29 29v186q-63 -135 -148.5 -189.5t-234.5 -54.5q-159 0 -251.5 76t-92.5 207zM139 258q0 -119 78.5 -182.5t224.5 -63.5q104 0 176 32t121 101q44 63 57.5 120.5t14.5 195.5v12q0 31 -10 39 q-13 10 -226 10q-234 0 -325 -61q-111 -72 -111 -203z" />
<glyph unicode="b" horiz-adv-x="1144" d="M20 18q0 19 25 19h139q29 0 29 29v1234q0 29 -29 29h-139q-25 0 -25 19q0 18 25 18h188q29 0 29 -29v-602q63 126 152 184t221 58q202 0 316 -132.5t114 -367.5q0 -243 -113.5 -374.5t-322.5 -131.5q-135 0 -224 60t-143 186v-188q0 -29 -29 -29h-188q-25 0 -25 18z M262 494q0 -160 22.5 -238t88.5 -145q96 -99 248 -99q100 0 178.5 36t124.5 102q90 133 90 321q0 214 -103.5 338.5t-281.5 124.5q-189 0 -295 -148q-42 -61 -57 -121t-15 -171z" />
<glyph unicode="c" horiz-adv-x="1009" d="M80 465q0 235 116 373.5t314 138.5q121 0 209.5 -54.5t132.5 -156.5v149q0 29 22 29q25 0 25 -29v-299q0 -28 -25 -28q-13 0 -19 10.5t-9 38.5q-10 138 -99.5 217.5t-232.5 79.5q-173 0 -278 -127t-105 -334q0 -198 98 -332q97 -129 281 -129q132 0 221.5 67t106.5 181 q6 34 11.5 43.5t20.5 9.5q29 0 29 -32q0 -40 -23 -90.5t-61 -96.5q-103 -123 -299 -123q-204 0 -320 131t-116 363z" />
<glyph unicode="d" horiz-adv-x="1146" d="M82 479q0 228 123 363t330 135q127 0 219 -55.5t139 -161.5v540q0 29 -29 29h-125q-24 0 -24 19q0 18 24 18h174q29 0 29 -29v-1271q0 -29 29 -29h125q24 0 24 -19q0 -18 -24 -18h-174q-29 0 -29 29v180q-50 -122 -140.5 -180t-232.5 -58q-205 0 -321.5 135t-116.5 373z M133 479q0 -224 101.5 -345.5t287.5 -121.5q230 0 318 166q31 57 43 128t12 190q0 125 -18 193.5t-66 125.5q-98 119 -279 119q-162 0 -274 -100q-125 -119 -125 -355z" />
<glyph unicode="e" horiz-adv-x="1034" d="M82 475q0 235 117.5 368.5t324.5 133.5q194 0 311 -129t117 -344q0 -29 -28 -29h-760q-19 0 -24 -8.5t-5 -38.5q0 -108 44.5 -202.5t119.5 -147.5q94 -66 240 -66q137 0 220 61.5t120 188.5q6 21 24 21q10 0 17.5 -8t7.5 -17q0 -28 -26 -78.5t-58 -87.5 q-106 -121 -307 -121q-218 0 -336.5 131t-118.5 373zM137 537q0 -25 29 -25h702q29 0 29 27q0 56 -21 127t-51 116q-108 154 -307 154q-129 0 -220.5 -63.5t-129.5 -180.5q-31 -91 -31 -155z" />
<glyph unicode="f" horiz-adv-x="585" d="M27 930q0 18 22 18h141q29 0 29 29v72q0 99 18 160.5t58 103.5q76 73 186 73q60 0 96.5 -10.5t36.5 -27.5q0 -8 -6.5 -14.5t-13.5 -6.5q-6 0 -12 2q-58 14 -99 14q-51 0 -96.5 -21t-71.5 -56q-47 -64 -47 -219v-70q0 -29 29 -29h188q23 0 23 -18q0 -19 -23 -19h-188 q-29 0 -29 -28v-817q0 -29 29 -29h149q23 0 23 -19q0 -18 -23 -18h-378q-25 0 -25 18q0 19 25 19h122q29 0 29 29v817q0 28 -29 28h-141q-22 0 -22 19z" />
<glyph unicode="g" horiz-adv-x="1138" d="M82 492q0 224 116 354.5t316 130.5q279 0 371 -242v185q0 28 28 28h189q24 0 24 -18q0 -19 -24 -19h-139q-29 0 -29 -28v-832q0 -115 -13.5 -176.5t-50.5 -112.5q-53 -71 -129 -103t-194 -32q-224 0 -326 99q-31 31 -52.5 74.5t-21.5 76.5q0 11 7.5 19t19.5 8 q19 0 25 -23q19 -71 40 -101.5t72 -60.5q88 -49 234 -49q177 0 258.5 82.5t81.5 259.5v86v142q-40 -106 -137.5 -166t-229.5 -60q-195 0 -315.5 132t-120.5 346zM133 492q0 -196 107 -316.5t280 -120.5q192 0 299 138q38 51 52 119t14 204q0 119 -17 180t-65 117 q-105 123 -279 123q-184 0 -287.5 -117.5t-103.5 -326.5z" />
<glyph unicode="h" horiz-adv-x="1132" d="M29 18q0 19 22 19h131q29 0 29 29v1234q0 29 -29 29h-131q-22 0 -22 19q0 18 22 18h180q29 0 29 -29v-579q103 219 344 219q76 0 144 -26t112 -72q40 -43 57 -103.5t17 -157.5v-552q0 -29 29 -29h127q22 0 22 -19q0 -18 -22 -18h-361q-22 0 -22 18q0 19 22 19h127 q29 0 29 29v557q0 311 -285 311q-152 0 -246 -100t-94 -263v-505q0 -29 29 -29h125q22 0 22 -19q0 -18 -22 -18h-363q-22 0 -22 18z" />
<glyph unicode="i" horiz-adv-x="473" d="M45 18q0 19 23 19h122q29 0 29 29v817q0 28 -29 28h-122q-23 0 -23 19q0 18 23 18h172q28 0 28 -28v-854q0 -29 29 -29h113q22 0 22 -19q0 -18 -22 -18h-342q-23 0 -23 18zM178 1235q0 25 17.5 42t42.5 17q26 0 43.5 -17.5t17.5 -43.5q0 -25 -17 -42t-42 -17t-43.5 18 t-18.5 43z" />
<glyph unicode="j" horiz-adv-x="444" d="M-35 -334q0 9 7 16t16 7q2 0 5 -0.5t8.5 -1.5t12.5 -2q30 -9 62 -9q37 0 69.5 16t49.5 42q24 39 24 162v987q0 28 -29 28h-131q-22 0 -22 19q0 18 22 18h181q28 0 28 -28v-1031q0 -133 -37 -186q-50 -68 -161 -68q-56 0 -80.5 7t-24.5 24zM176 1235q0 25 17.5 42t42.5 17 q26 0 43.5 -17.5t17.5 -43.5q0 -25 -17 -42t-42 -17t-43.5 18t-18.5 43z" />
<glyph unicode="k" horiz-adv-x="1056" d="M31 18q0 19 22 19h129q29 0 29 29v1234q0 29 -29 29h-129q-22 0 -22 19q0 18 22 18h178q29 0 29 -29v-917l494 442q20 18 20 29q0 16 -37 16h-69q-25 0 -25 19q0 18 25 18h293q22 0 22 -18q0 -19 -22 -19h-76q-15 0 -25 -10l-321 -287q-13 -13 -13 -22q0 -5 9 -17 l352 -520q12 -14 28 -14h76q25 0 25 -19q0 -18 -25 -18h-297q-22 0 -22 18q0 19 22 19h90q35 0 35 16q0 6 -12 25l-309 452q-12 15 -23 15q-9 0 -20 -8l-195 -177v-294q0 -29 29 -29h119q24 0 24 -19q0 -18 -24 -18h-355q-22 0 -22 18z" />
<glyph unicode="l" horiz-adv-x="464" d="M29 18q0 19 22 19h131q29 0 29 29v1234q0 29 -29 29h-131q-22 0 -22 19q0 18 22 18h180q29 0 29 -29v-1271q0 -29 29 -29h117q22 0 22 -19q0 -18 -22 -18h-355q-22 0 -22 18z" />
<glyph unicode="m" horiz-adv-x="1740" d="M31 18q0 19 22 19h137q29 0 29 29v817q0 28 -29 28h-137q-22 0 -22 19q0 18 22 18h187q28 0 28 -28v-152q43 101 127 155t201 54q143 0 229 -80q26 -25 41.5 -52.5t30.5 -76.5q72 209 324 209q163 0 252 -98q40 -45 54.5 -103t14.5 -164v-546q0 -29 29 -29h125 q22 0 22 -19q0 -18 -22 -18h-355q-22 0 -22 18q0 19 22 19h123q29 0 29 29v544q0 91 -13.5 144t-47.5 94q-73 88 -220 88q-138 0 -221 -80q-48 -46 -65 -105.5t-17 -181.5v-503q0 -29 29 -29h115q22 0 22 -19q0 -18 -22 -18h-342q-25 0 -25 18q0 19 25 19h120q29 0 29 29 v503q0 120 -10 174.5t-41 98.5q-69 94 -221 94q-157 0 -248 -113q-40 -50 -56 -107t-16 -151v-499q0 -29 29 -29h121q22 0 22 -19q0 -18 -22 -18h-365q-22 0 -22 18z" />
<glyph unicode="n" horiz-adv-x="1142" d="M37 18q0 19 22 19h129q29 0 29 29v817q0 28 -29 28h-129q-22 0 -22 19q0 18 22 18h179q28 0 28 -28v-154q99 211 338 211q76 0 143.5 -22t110.5 -60q86 -77 86 -244v-585q0 -29 29 -29h125q22 0 22 -19q0 -18 -22 -18h-365q-22 0 -22 18q0 19 22 19h133q29 0 29 29v583 q0 138 -77.5 212.5t-223.5 74.5q-152 0 -240 -95t-88 -261v-514q0 -29 29 -29h131q25 0 25 -19q0 -18 -25 -18h-367q-22 0 -22 18z" />
<glyph unicode="o" horiz-adv-x="1058" d="M82 496q0 213 126.5 347t326.5 134q206 0 324 -134.5t118 -369.5q0 -230 -120.5 -366t-324.5 -136q-207 0 -328.5 141.5t-121.5 383.5zM133 496q0 -229 103 -356.5t288 -127.5q187 0 294.5 121t107.5 332q0 223 -102 346t-287 123q-182 0 -293 -120t-111 -318z" />
<glyph unicode="p" horiz-adv-x="1134" d="M20 -328q0 19 23 19h127q29 0 29 28v1164q0 28 -29 28h-127q-23 0 -23 19q0 18 23 18h176q29 0 29 -28v-189q47 126 135 186t225 60q209 0 327 -132.5t118 -367.5q0 -230 -119 -368t-318 -138q-263 0 -368 267v-519q0 -28 28 -28h127q23 0 23 -19q0 -18 -23 -18h-360 q-23 0 -23 18zM248 485q0 -132 28 -220t91 -152q95 -99 241 -99q178 0 285.5 127t107.5 338q0 216 -105 336.5t-294 120.5q-175 0 -264.5 -114t-89.5 -337z" />
<glyph unicode="q" horiz-adv-x="1140" d="M82 483q0 230 118.5 362t325.5 132q135 0 229 -60t132 -172v175q0 28 28 28h177q22 0 22 -18q0 -19 -22 -19h-127q-29 0 -29 -28v-1164q0 -28 29 -28h127q22 0 22 -19q0 -18 -22 -18h-373q-23 0 -23 18q0 19 23 19h139q29 0 29 28v484q-24 -52 -40 -77.5t-40 -49.5 q-105 -105 -285 -105q-211 0 -325.5 133.5t-114.5 378.5zM133 479q0 -223 101.5 -344t287.5 -121q187 0 277 112.5t90 346.5q0 239 -86.5 351t-270.5 112q-189 0 -294 -120t-105 -337z" />
<glyph unicode="r" horiz-adv-x="702" d="M45 18q0 19 23 19h122q29 0 29 29v817q0 28 -29 28h-122q-23 0 -23 19q0 18 23 18h172q28 0 28 -28v-150q37 100 118.5 153.5t195.5 53.5q82 0 82 -35q0 -7 -4.5 -12.5t-10.5 -5.5l-14 2q-21 8 -68 8q-63 0 -124.5 -27t-104.5 -73q-70 -79 -70 -254v-514q0 -29 29 -29 h158q24 0 24 -19q0 -18 -24 -18h-387q-23 0 -23 18z" />
<glyph unicode="s" horiz-adv-x="915" d="M86 29v268q0 29 25 29q15 0 19 -9.5t7 -50.5q9 -112 100 -183t226 -71q142 0 227.5 64t85.5 170q0 80 -53 127q-30 28 -68 42.5t-114 24.5l-133 21q-158 23 -231 82.5t-73 165.5q0 118 96.5 193t248.5 75q214 0 309 -154v97q0 28 22 28q25 0 25 -28v-250q0 -29 -25 -29 q-9 0 -15.5 7.5t-6.5 17.5v6q0 123 -82.5 192.5t-229.5 69.5q-129 0 -208.5 -61.5t-79.5 -159.5q0 -80 59.5 -131t169.5 -66l121 -16q121 -19 175.5 -40t90.5 -63q55 -64 55 -149q0 -125 -99.5 -201t-262.5 -76q-125 0 -204 44t-130 141v-127q0 -29 -22 -29q-25 0 -25 29z " />
<glyph unicode="t" horiz-adv-x="632" d="M0 930q0 18 23 18h147q29 0 29 29v180q0 29 24 29q25 0 25 -29v-180q0 -29 28 -29h275q22 0 22 -18q0 -19 -22 -19h-275q-28 0 -28 -28v-602q0 -103 5 -142t23 -67q15 -26 47.5 -43t67.5 -17q99 0 135 109q11 33 17 100q0 12 6.5 19.5t17.5 7.5q25 0 25 -41 q0 -53 -27 -119q-53 -117 -178 -117q-47 0 -87 19t-62 53q-24 38 -31.5 83t-7.5 153v604q0 28 -29 28h-147q-23 0 -23 19z" />
<glyph unicode="u" horiz-adv-x="1126" d="M12 930q0 18 23 18h182q29 0 29 -28v-578q0 -170 70 -250t221 -80q190 0 276 125q59 85 59 291v455q0 28 -28 28h-135q-25 0 -25 19q0 18 25 18h184q29 0 29 -28v-854q0 -29 28 -29h137q23 0 23 -19q0 -18 -23 -18h-186q-29 0 -29 29v166q-69 -224 -335 -224 q-159 0 -248 80q-92 86 -92 291v541q0 28 -29 28h-133q-23 0 -23 19z" />
<glyph unicode="v" horiz-adv-x="1093" d="M6 930q0 18 23 18h309q22 0 22 -18q0 -19 -22 -19h-113q-28 0 -28 -22q0 -3 4 -15l319 -759q19 -49 35 -49q15 0 33 49l323 759q4 4 4 15q0 22 -28 22h-113q-24 0 -24 19q0 18 24 18h289q22 0 22 -18q0 -19 -22 -19h-66q-20 0 -28 -18l-334 -787q-28 -64 -44.5 -85 t-39.5 -21q-20 0 -37 22t-43 84l-330 787q-8 18 -28 18h-84q-23 0 -23 19z" />
<glyph unicode="w" horiz-adv-x="1685" d="M6 930q0 18 23 18h321q23 0 23 -18q0 -19 -23 -19h-123q-28 0 -28 -22q0 -9 2 -15l252 -757q6 -15 15 -28t13 -13q6 0 15.5 12t13.5 27l266 741q19 52 33.5 72t34.5 20t34 -19.5t33 -72.5l269 -754q9 -20 24 -20q16 0 25 20l260 772q4 12 4 15q0 22 -29 22h-121 q-22 0 -22 19q0 18 22 18h312q22 0 22 -18q0 -19 -22 -19h-82q-24 0 -29 -20l-272 -805q-14 -39 -32.5 -62.5t-35.5 -23.5q-15 0 -34 24t-31 60l-275 762q-7 28 -22 28q-14 0 -25 -28l-276 -774q-25 -72 -62 -72t-61 74l-275 817q-3 12 -8.5 16t-19.5 4h-86q-23 0 -23 19z " />
<glyph unicode="x" horiz-adv-x="1155" d="M27 18q0 19 22 19h76q15 0 27 12l372 424q11 14 11 21t-11 18l-340 387q-12 12 -26 12h-74q-23 0 -23 19q0 18 23 18h291q22 0 22 -18q0 -19 -22 -19h-78q-29 0 -29 -22q0 -10 11 -21l278 -321q12 -12 23 -12q10 0 20 12l285 321q8 12 8 21t-8 15.5t-21 6.5h-78 q-22 0 -22 19q0 18 22 18h285q25 0 25 -18q0 -19 -25 -19h-80q-16 0 -26 -12l-340 -387q-9 -12 -9 -20q0 -10 9 -19l366 -424q12 -12 27 -12h74q22 0 22 -19q0 -18 -22 -18h-306q-22 0 -22 18q0 19 22 19h95q28 0 28 22q0 9 -8 21l-311 356q-13 13 -21 13q-12 0 -22 -13 l-314 -356q-10 -13 -10 -21q0 -22 29 -22h94q25 0 25 -19q0 -18 -25 -18h-297q-22 0 -22 18z" />
<glyph unicode="y" horiz-adv-x="1099" d="M6 930q0 18 23 18h309q22 0 22 -18q0 -19 -22 -19h-113q-28 0 -28 -22q0 -11 4 -17l360 -815l352 817l5 15q0 22 -31 22h-115q-22 0 -22 19q0 18 22 18h297q23 0 23 -18q0 -19 -23 -19h-70q-20 0 -28 -18l-459 -1059q-50 -116 -101 -159.5t-137 -43.5q-51 0 -104 17 q-16 3 -16 20q0 9 6 16t14 7q10 0 35 -10q41 -9 65 -9q66 0 111 39t82 129l61 144q4 10 4 14q0 2 -4 14l-391 881q-10 18 -28 18h-80q-23 0 -23 19z" />
<glyph unicode="z" horiz-adv-x="894" d="M76 27v12q0 36 16 55l629 774q10 13 10 25q0 18 -29 18h-544q-29 0 -29 -28v-138q0 -28 -23 -28q-24 0 -24 28v175q0 28 29 28h655q29 0 29 -26v-13q0 -31 -23 -57l-629 -772q-10 -13 -10 -21q0 -9 8.5 -15.5t20.5 -6.5h571q29 0 29 29v155q0 29 24 29q23 0 23 -29v-186 q0 -19 -8.5 -27t-28.5 -8h-668q-28 0 -28 27z" />
<glyph unicode="{" horiz-adv-x="681" d="M145 510q0 13 6.5 19.5t34.5 17.5q82 36 82 184v324q0 161 35 221q25 41 75.5 65.5t113.5 24.5q26 0 26 -20q0 -14 -7.5 -18t-39.5 -5q-38 -1 -72 -20t-53 -48q-33 -50 -33 -153v-363q0 -97 -25 -150t-83 -79q58 -26 83 -79t25 -150v-363q0 -118 42 -168t143 -55 q20 0 20 -21q0 -20 -26 -20q-63 0 -113.5 24.5t-75.5 65.5q-35 60 -35 221v324q0 86 -21.5 126t-82.5 68q-19 9 -19 27z" />
<glyph unicode="|" d="M487 -342v1708h50v-1708h-50z" />
<glyph unicode="}" horiz-adv-x="681" d="M166 -326q0 14 7.5 18t39.5 5q38 2 72 20t53 47q33 50 33 154v363q0 97 25 150t83 79q-58 26 -83 79t-25 150v363q0 118 -42 168t-143 55q-20 0 -20 21q0 20 27 20q63 0 113 -24t75 -66q35 -60 35 -221v-324q0 -86 21.5 -126t82.5 -68q19 -9 19 -27q0 -13 -6.5 -19.5 t-34.5 -17.5q-82 -36 -82 -184v-324q0 -161 -35 -221q-25 -42 -75 -66t-113 -24q-27 0 -27 20z" />
<glyph unicode="~" d="M217 604q3 79 49.5 130.5t114.5 51.5q37 0 70.5 -17t80.5 -60q55 -50 77.5 -64t49.5 -14q41 0 71 40t30 97v4q0 11 7 18t17 7q25 0 25 -31q0 -77 -45 -129.5t-111 -52.5q-36 0 -63.5 15t-81.5 65q-45 41 -73 56t-58 15q-50 0 -80 -41q-17 -22 -21 -34t-10 -66 q-3 -25 -24 -25q-12 0 -19 10t-6 25z" />
<glyph unicode="&#xa1;" horiz-adv-x="421" d="M143 891q0 28 19 46.5t47 18.5q29 0 48 -19t19 -48q0 -26 -19.5 -46t-45.5 -20q-28 0 -48 20t-20 48zM172 -387l18 1036q0 25 21 25q18 0 18 -25l25 -1036q3 -29 -29 -29h-24q-32 0 -29 29z" />
<glyph unicode="&#xa2;" d="M96 694q0 215 111.5 352t292.5 144v149q0 27 22 27q23 0 23 -27v-147q222 -15 309 -176l4 -4q8 0 8 8v119q0 28 23 28q24 0 24 -28v-301q0 -29 -22 -29t-25 22q-17 122 -46 173t-109 102q-72 41 -166 41v-901q6 -2 16 -2q50 0 107.5 22.5t97.5 57.5q42 35 63.5 75 t34.5 107q6 24 25 24q22 0 22 -24q0 -51 -37.5 -119.5t-85.5 -105.5q-80 -66 -243 -80v-174q0 -27 -23 -27q-22 0 -22 27v174q-81 9 -130 26t-96 52q-84 61 -131 171t-47 244zM152 692q0 -134 44.5 -235t127.5 -156q35 -25 73.5 -37t102.5 -20v907q-158 -9 -253 -134 t-95 -325z" />
<glyph unicode="&#xa3;" d="M90 23q0 20 25 20h118q29 0 29 29v692h-147q-25 0 -25 22q0 21 25 21h147v164q0 105 15.5 171.5t52.5 119.5q43 60 117 94.5t163 34.5q141 0 236.5 -84.5t95.5 -208.5q0 -12 -7 -20.5t-17 -8.5q-22 0 -25 25q-10 64 -20.5 93t-34.5 60q-37 46 -97.5 71t-134.5 25 q-164 0 -237 -112q-29 -46 -40.5 -103t-11.5 -159v-162h238q12 0 19.5 -6t7.5 -15q0 -22 -27 -22h-238v-692q0 -29 29 -29h516q29 0 29 29v143q0 31 27 31q10 0 17 -8.5t7 -22.5v-186q0 -29 -29 -29h-798q-25 0 -25 23z" />
<glyph unicode="&#xa4;" d="M111 326q0 8 10 18l110 111q-96 107 -96 250q0 140 96 247l-110 111q-10 10 -10 20q0 9 6.5 16t15.5 7q6 0 19 -10l110 -113q107 96 250 96q141 0 248 -96l110 113q13 10 21 10q9 0 15.5 -7.5t6.5 -17.5q0 -8 -10 -18l-110 -111q51 -63 72.5 -120t21.5 -127 q0 -145 -94 -250l110 -111q10 -13 10 -20q0 -9 -6.5 -16t-15.5 -7q-8 0 -21 10l-110 111q-105 -94 -248 -94q-142 0 -250 94l-110 -111q-10 -10 -19 -10t-15.5 7.5t-6.5 17.5zM186 709q0 -138 95 -234t231 -96q134 0 229 95.5t95 230.5q0 133 -95 228t-229 95 q-133 0 -229.5 -94t-96.5 -225z" />
<glyph unicode="&#xa5;" d="M16 1346q0 20 25 20h299q27 0 27 -20q0 -9 -7.5 -15t-19.5 -6h-96q-29 0 -29 -22q0 -1 4 -17l295 -663l295 663q4 12 4 17q0 22 -29 22h-94q-26 0 -26 21q0 20 26 20h291q25 0 25 -20q0 -9 -7 -15t-18 -6h-88q-19 0 -29 -18l-227 -512h266q12 0 19.5 -6t7.5 -15 q0 -22 -27 -22h-285l-67 -150h332q26 0 26 -20q0 -23 -26 -23h-346v-487q0 -29 28 -29h205q25 0 25 -20q0 -23 -25 -23h-520q-27 0 -27 23q0 20 27 20h205q28 0 28 29v487h-348q-26 0 -26 23q0 20 26 20h332l-64 150h-288q-27 0 -27 22q0 9 7.5 15t19.5 6h268l-225 512 q-8 18 -29 18h-88q-11 0 -18 6t-7 15z" />
<glyph unicode="&#xa6;" d="M487 313h50v-655h-50v655zM487 709v657h50v-657h-50z" />
<glyph unicode="&#xa7;" d="M145 612q0 59 32 116t87 95q22 15 94 47q-66 31 -98 54q-100 74 -100 190q0 119 98 198t246 79q153 0 249.5 -85.5t96.5 -220.5q0 -12 -7.5 -20t-19.5 -8q-15 0 -20.5 9t-5.5 34q-4 77 -45 135q-79 117 -248 117q-125 0 -208 -67.5t-83 -170.5q0 -83 59.5 -134 t237.5 -118l115 -43q136 -51 194 -107.5t58 -138.5q0 -159 -203 -251q194 -77 194 -250q0 -129 -102 -216t-254 -87q-155 0 -256.5 90t-101.5 225q0 33 26 33q15 0 21.5 -9t7.5 -36q6 -118 89.5 -188t217.5 -70q128 0 213.5 72.5t85.5 181.5q0 85 -53.5 140t-173.5 95 l-191 66q-106 37 -141 61q-111 72 -111 182zM201 618q0 -67 55 -117.5t172 -90.5l197 -66q198 81 198 219q0 70 -50.5 117t-176.5 94l-190 74q-95 -34 -150 -96t-55 -134z" />
<glyph unicode="&#xa8;" d="M254 1235q0 25 17 42t42 17q26 0 44 -17.5t18 -43.5q0 -25 -17.5 -42t-42.5 -17t-43 18t-18 43zM649 1235q0 25 17.5 42t42.5 17q26 0 43.5 -17.5t17.5 -43.5q0 -25 -17 -42t-42 -17t-43.5 18t-18.5 43z" />
<glyph unicode="&#xa9;" horiz-adv-x="1603" d="M96 684q0 191 95 354t258 258t354 95q143 0 274 -56t225.5 -150.5t150.5 -225t56 -273.5q0 -195 -94.5 -358.5t-259 -258t-360.5 -94.5q-187 0 -348.5 96t-256 259.5t-94.5 353.5zM143 684q0 -133 52 -255.5t140 -211t208.5 -141.5t251.5 -53q185 0 338 88t241 240 t88 335q0 133 -52.5 255t-141 210t-210.5 140t-255 52q-134 0 -256.5 -52t-211 -140t-140.5 -210.5t-52 -256.5zM430 688q0 182 97 293t257 111q181 0 263 -140v101q0 26 20 26t20 -26v-238q0 -27 -20 -27q-14 0 -18 8.5t-5 41.5q-4 89 -80 151t-180 62q-141 0 -224 -99 t-83 -266q0 -172 83 -272.5t224 -100.5q114 0 182.5 61t80.5 173q0 9 6.5 14.5t15.5 5.5t16 -7t7 -17q0 -38 -18.5 -88.5t-43.5 -79.5q-89 -103 -246 -103q-163 0 -258.5 112.5t-95.5 303.5z" />
<glyph unicode="&#xaa;" horiz-adv-x="698" d="M68 958q0 189 307 189l121 -2q12 0 16 8t4 33q0 166 -178 166q-174 0 -195 -125q-2 -9 -8.5 -15t-15.5 -6q-23 0 -23 21q0 38 29.5 77t71.5 60q56 27 139 27q122 0 182 -66q43 -49 43 -160v-301q0 -28 29 -28h49q23 0 23 -19q0 -18 -23 -18h-92q-29 0 -29 28v76 q-69 -121 -231 -121q-101 0 -160 47t-59 129zM113 961q0 -66 47 -103t133 -37q139 0 192 99q29 57 29 163q0 17 -15.5 21t-80.5 4q-104 0 -156 -7.5t-84 -27.5q-65 -42 -65 -112z" />
<glyph unicode="&#xab;" horiz-adv-x="628" d="M84 496q0 6 4 14l164 389q10 19 22 19q8 0 14.5 -6t6.5 -15q0 -10 -2 -14l-160 -387l160 -387q2 -4 2 -15q0 -9 -6.5 -14.5t-14.5 -5.5q-13 0 -22 18l-164 389q-4 8 -4 15zM297 496q0 8 4 14l164 389q9 19 22 19q7 0 14 -7t7 -14q0 -8 -2 -14l-160 -387l160 -387 q2 -4 2 -15q0 -9 -6.5 -14.5t-14.5 -5.5q-13 0 -22 18l-164 389q-4 6 -4 15z" />
<glyph unicode="&#xac;" d="M68 502v45h886v-547h-49v502h-837z" />
<glyph unicode="&#xad;" horiz-adv-x="442" d="M0 496q0 22 27 22h389q26 0 26 -20q0 -23 -26 -23h-389q-12 0 -19.5 6t-7.5 15z" />
<glyph unicode="&#xae;" horiz-adv-x="1603" d="M96 684q0 191 95 354t258 258t354 95q143 0 274 -56t225.5 -150.5t150.5 -225t56 -273.5q0 -195 -94.5 -358.5t-259 -258t-360.5 -94.5q-187 0 -348.5 96t-256 259.5t-94.5 353.5zM143 684q0 -133 52 -255.5t140 -211t208.5 -141.5t251.5 -53q185 0 338 88t241 240 t88 335q0 133 -52.5 255t-141 210t-210.5 140t-255 52q-134 0 -256.5 -52t-211 -140t-140.5 -210.5t-52 -256.5zM451 305q0 19 22 19h74q28 0 28 28v662q0 28 -28 28h-74q-22 0 -22 19q0 18 22 18h307q125 0 185 -28q52 -25 80 -72t28 -109q0 -75 -40.5 -126.5t-114.5 -71.5 q41 -15 63 -45t45 -103l70 -200h65q23 0 23 -19q0 -18 -23 -18h-84q-18 0 -24 18l-70 207q-31 92 -67.5 118.5t-133.5 26.5h-133q-28 0 -28 -28v-277q0 -28 28 -28h76q23 0 23 -19q0 -18 -23 -18h-252q-22 0 -22 18zM621 723q0 -29 28 -29h131q91 0 146 19q45 17 72.5 59.5 t27.5 95.5q0 174 -248 174h-129q-28 0 -28 -28v-291z" />
<glyph unicode="&#xaf;" d="M211 1247q0 29 35 29h532q35 0 35 -27q0 -28 -35 -28h-532q-35 0 -35 26z" />
<glyph unicode="&#xb0;" horiz-adv-x="819" d="M102 1094q0 131 91 221t223 90q127 0 214 -90.5t87 -222.5q0 -131 -89 -221.5t-218 -90.5t-218.5 91t-89.5 223zM217 1092q0 -80 57 -137.5t136 -57.5q80 0 135 57t55 140q0 80 -55 137t-131 57q-83 0 -140 -56.5t-57 -139.5z" />
<glyph unicode="&#xb1;" d="M90 119q0 22 27 22h790q27 0 27 -22q0 -23 -27 -23h-790q-27 0 -27 23zM90 702q0 23 27 23h370v371q0 28 25 28q23 0 23 -28v-371h370q27 0 27 -23q0 -22 -27 -22h-370v-371q0 -28 -23 -28q-25 0 -25 28v371h-370q-27 0 -27 22z" />
<glyph unicode="&#xb2;" horiz-adv-x="649" d="M68 588q0 15 11 30.5t54 61.5q6 6 21.5 23t39.5 44t42 46q82 94 137 149q84 90 112.5 140t28.5 106q0 78 -47.5 122t-132.5 44q-99 0 -152 -74q-19 -27 -26 -48.5t-13 -74.5q-3 -22 -22 -22q-11 0 -18 7t-7 19q0 32 14.5 75t34.5 71q63 88 191 88q103 0 164 -55.5 t61 -149.5q0 -78 -47.5 -143t-333.5 -377q-22 -27 -63 -72h395q29 0 29 29v75q0 25 22 25q9 0 15 -7t6 -18v-114q0 -29 -29 -29h-459q-28 0 -28 29z" />
<glyph unicode="&#xb3;" horiz-adv-x="649" d="M78 780q0 27 22 27q16 0 20 -8.5t7 -50.5q8 -69 63.5 -116.5t128.5 -47.5q86 0 139.5 54t53.5 140q0 78 -49 126.5t-131 49.5q-33 0 -43 5t-10 20q0 14 9 17.5t50 4.5q77 3 122.5 49t45.5 121q0 83 -51 135t-133 52q-167 0 -191 -180q-1 -10 -8.5 -16.5t-16.5 -6.5 t-15.5 7.5t-6.5 17.5q0 26 12 62t29 61q67 92 194 92q104 0 168 -60.5t64 -160.5q0 -75 -32 -120.5t-105 -74.5q76 -31 111.5 -79t35.5 -122q0 -103 -68.5 -168t-175.5 -65q-103 0 -171 67t-68 168z" />
<glyph unicode="&#xb4;" d="M461 1122q0 10 6 19l141 205q10 18 27 18q11 0 20 -9t9 -20q0 -6 -9 -24l-151 -197q-9 -12 -21 -12q-8 0 -15 6.5t-7 13.5z" />
<glyph unicode="&#xb5;" horiz-adv-x="1179" d="M68 -301q0 38 5 65.5t29 120.5q25 95 25 156v983h180v-678q0 -107 50 -167t139 -60q65 0 119 35.5t108 113.5v756h182v-756q0 -84 28.5 -134t74.5 -50q36 0 65 40.5t33 98.5l55 -2q-22 -119 -84.5 -183.5t-156.5 -64.5q-100 0 -148 70q-29 39 -47 121 q-164 -191 -315 -191q-54 0 -96.5 20t-106.5 75v-25q0 -47 4 -73t20 -79q39 -138 39 -188q0 -67 -28 -109.5t-72 -42.5q-45 0 -73.5 41t-28.5 107z" />
<glyph unicode="&#xb6;" d="M63 985q0 165 84 270q50 62 122.5 86.5t207.5 24.5h445q24 0 24 -20q0 -21 -24 -21h-103q-28 0 -28 -29v-1431q0 -29 28 -29h103q24 0 24 -22q0 -9 -7 -15t-17 -6h-521q-26 0 -26 21q0 22 26 22h109q29 0 29 29v727q0 12 -9 15.5t-34 0.5q-67 -5 -148.5 11t-124.5 43 q-75 43 -117.5 128.5t-42.5 194.5zM590 -164h149v1489h-149v-1489z" />
<glyph unicode="&#xb7;" horiz-adv-x="393" d="M129 498q0 28 19 46.5t47 18.5q29 0 48 -19t19 -48q0 -26 -19.5 -46t-45.5 -20q-28 0 -48 20t-20 48z" />
<glyph unicode="&#xb8;" d="M336 -352q0 9 6.5 15.5t15.5 6.5q7 0 17 -4q68 -24 117 -24q61 0 101 30t40 76q0 37 -34 62.5t-83 25.5q-48 0 -80 -16q-10 -4 -14 -4q-6 0 -11 5t-5 11q0 4 4 12l110 156h49l-73 -106q-2 -4 -2 -9q0 -1 2 -3.5t4 -2.5l57 2q14 0 43.5 -13t44.5 -26q45 -31 45 -96 q0 -63 -52 -107.5t-124 -44.5t-125 16t-53 38z" />
<glyph unicode="&#xb9;" horiz-adv-x="649" d="M135 1200q0 11 19 27q74 51 161 127q19 17 27 21.5t20 4.5q25 0 25 -28v-725q0 -29 29 -29h73q25 0 25 -18q0 -21 -25 -21h-256q-22 0 -22 21q0 18 22 18h84q29 0 29 29v698q-164 -147 -192 -147q-7 0 -13 7t-6 15z" />
<glyph unicode="&#xba;" horiz-adv-x="692" d="M61 1100q0 129 80.5 210t208.5 81q131 0 206 -82t75 -224q0 -137 -77 -219t-206 -82q-132 0 -209.5 85.5t-77.5 230.5zM106 1100q0 -131 63 -204t175 -73q114 0 178 69t64 191q0 128 -62 198.5t-174 70.5q-110 0 -177 -69t-67 -183z" />
<glyph unicode="&#xbb;" horiz-adv-x="628" d="M121 94q0 7 4 15l158 387l-158 387q-4 12 -4 14q0 8 6.5 14.5t15.5 6.5q15 0 21 -19l166 -389q2 -4 2 -14q0 -9 -2 -15l-166 -389q-6 -18 -21 -18q-9 0 -15.5 6t-6.5 14zM334 94q0 11 2 15l160 387l-160 387q-2 6 -2 14t6.5 14.5t15.5 6.5q15 0 21 -19l164 -389 q4 -8 4 -14q0 -3 -4 -15l-164 -389q-9 -18 -21 -18q-9 0 -15.5 6t-6.5 14z" />
<glyph unicode="&#xbc;" horiz-adv-x="1474" d="M139 1200q0 11 19 27q74 51 161 127q28 26 48 26q24 0 24 -28v-725q0 -29 29 -29h74q24 0 24 -18q0 -21 -24 -21h-256q-23 0 -23 21q0 18 23 18h84q28 0 28 29v698q-164 -147 -192 -147q-7 0 -13 7t-6 15zM375 18q0 11 4 15l682 1319q8 14 20 14q8 0 13.5 -5.5t5.5 -12.5 q0 -3 -4 -15l-682 -1319q-8 -14 -21 -14q-7 0 -12.5 5t-5.5 13zM856 285v20l395 504q10 10 35 10q29 0 29 -28v-467q0 -29 28 -29h76q25 0 25 -19q0 -20 -25 -20h-76q-28 0 -28 -29v-159q0 -29 28 -29h64q25 0 25 -19q0 -20 -25 -20h-244q-24 0 -24 20q0 19 24 19h80 q29 0 29 29v159q0 29 -29 29h-358q-29 0 -29 29zM903 295h340q29 0 29 29v442z" />
<glyph unicode="&#xbd;" horiz-adv-x="1474" d="M139 1200q0 11 19 27q74 51 161 127q28 26 48 26q24 0 24 -28v-725q0 -29 29 -29h74q24 0 24 -18q0 -21 -24 -21h-256q-23 0 -23 21q0 18 23 18h84q28 0 28 29v698q-164 -147 -192 -147q-7 0 -13 7t-6 15zM371 18q0 3 4 15l684 1319q6 14 18 14q8 0 13.5 -5.5t5.5 -12.5 q0 -11 -4 -15l-682 -1319q-8 -14 -19 -14q-8 0 -14 5.5t-6 12.5zM893 29q0 15 11 30.5t54 61.5q36 35 103 112q82 95 137 150q84 90 112.5 140t28.5 106q0 78 -47.5 122t-132.5 44q-98 0 -151 -74q-19 -27 -26 -48.5t-13 -74.5q-3 -23 -23 -23q-11 0 -17.5 7.5t-6.5 19.5 q0 33 14 76t35 70q63 88 190 88q104 0 164.5 -55.5t60.5 -149.5q0 -58 -14 -88q-23 -52 -151 -196q-55 -62 -215 -236q-39 -44 -64 -72h395q29 0 29 29v73q0 27 23 27q20 0 20 -27v-112q0 -29 -29 -29h-458q-29 0 -29 29z" />
<glyph unicode="&#xbe;" horiz-adv-x="1474" d="M78 780v2q0 10 6.5 17.5t15.5 7.5q16 0 20 -8.5t7 -50.5q8 -69 63.5 -116.5t128.5 -47.5q86 0 139.5 54t53.5 140q0 78 -49 126.5t-131 49.5q-33 0 -43 5t-10 20q0 14 9 17.5t50 4.5q77 3 122.5 49t45.5 121q0 83 -51 135t-133 52q-80 0 -133.5 -49t-57.5 -127 q-3 -27 -25 -27q-9 0 -15.5 7.5t-6.5 17.5q0 26 12 61.5t29 61.5q67 92 194 92q104 0 168 -60.5t64 -160.5q0 -75 -32 -120.5t-105 -74.5q76 -31 111.5 -79t35.5 -122q0 -103 -68.5 -168t-175.5 -65q-103 0 -171 67t-68 168zM371 18q0 3 4 15l682 1319q8 14 20 14 q8 0 13.5 -5.5t5.5 -12.5q0 -9 -4 -15l-682 -1319q-8 -14 -21 -14q-6 0 -12 5.5t-6 12.5zM856 285v20l395 504q10 10 35 10q29 0 29 -28v-467q0 -29 28 -29h76q25 0 25 -19q0 -20 -25 -20h-76q-28 0 -28 -29v-159q0 -29 28 -29h64q25 0 25 -19q0 -20 -25 -20h-244 q-24 0 -24 20q0 19 24 19h80q29 0 29 29v159q0 29 -29 29h-358q-29 0 -29 29zM903 295h340q29 0 29 29v442z" />
<glyph unicode="&#xbf;" horiz-adv-x="903" d="M68 -90q0 92 39.5 164.5t134.5 154.5l53 47q102 87 133.5 160t30.5 219q0 12 7 20.5t19 8.5q27 0 27 -35v-6v-37q-2 -94 -18 -150.5t-55 -105t-122 -117.5l-47 -43q-77 -71 -110 -135t-33 -145q0 -114 61 -197q79 -110 252 -110q141 0 218 74.5t92 226.5q3 30 28 30 q29 0 29 -38t-15 -88.5t-38 -90.5q-44 -75 -126 -116t-188 -41q-169 0 -270.5 96t-101.5 254zM418 891q0 26 19.5 45.5t45.5 19.5q28 0 48 -19.5t20 -47.5t-19 -47t-47 -19q-29 0 -48 19.5t-19 48.5z" />
<glyph unicode="&#xc0;" horiz-adv-x="1398" d="M14 23q0 20 27 20h63q21 0 29 20l512 1270q17 45 55 45q37 0 54 -45l508 -1270q4 -12 10 -16t18 -4h70q26 0 26 -20q0 -23 -26 -23h-334q-11 0 -18 6.5t-7 16.5q0 20 25 20h145q31 0 31 23q0 2 -4 14l-170 428q-4 12 -10.5 16t-20.5 4h-602q-21 0 -28 -20l-172 -428 q-2 -4 -2 -14q0 -23 28 -23h146q26 0 26 -20q0 -23 -26 -23h-326q-27 0 -27 23zM403 592q0 -23 29 -23h529q28 0 28 23q0 10 -2 14l-266 672q-9 24 -12.5 28.5t-12.5 4.5q-8 0 -10.5 -4t-11.5 -29l-266 -672q-1 -2 -2 -5t-2 -5t-1 -4zM537 1704q0 9 9 18t19 9q16 0 29 -19 l137 -201q6 -9 6 -18t-6.5 -16t-15.5 -7q-11 0 -23 15l-145 194q-10 13 -10 25z" />
<glyph unicode="&#xc1;" horiz-adv-x="1398" d="M14 23q0 20 27 20h63q21 0 29 20l512 1270q17 45 55 45q37 0 54 -45l508 -1270q4 -12 10 -16t18 -4h70q26 0 26 -20q0 -23 -26 -23h-334q-11 0 -18 6.5t-7 16.5q0 20 25 20h145q31 0 31 23q0 2 -4 14l-170 428q-4 12 -10.5 16t-20.5 4h-602q-21 0 -28 -20l-172 -428 q-2 -4 -2 -14q0 -23 28 -23h146q26 0 26 -20q0 -23 -26 -23h-326q-27 0 -27 23zM403 592q0 -23 29 -23h529q28 0 28 23q0 10 -2 14l-266 672q-9 24 -12.5 28.5t-12.5 4.5q-8 0 -10.5 -4t-11.5 -29l-266 -672q-1 -2 -2 -5t-2 -5t-1 -4zM662 1493q0 9 6 18l139 203 q11 19 27 19q12 0 21 -8.5t9 -20.5q0 -8 -10 -25l-149 -194q-9 -12 -21 -12q-9 0 -15.5 6t-6.5 14z" />
<glyph unicode="&#xc2;" horiz-adv-x="1398" d="M14 23q0 20 27 20h63q21 0 29 20l512 1270q17 45 55 45q37 0 54 -45l508 -1270q4 -12 10 -16t18 -4h70q26 0 26 -20q0 -23 -26 -23h-334q-11 0 -18 6.5t-7 16.5q0 20 25 20h145q31 0 31 23q0 2 -4 14l-170 428q-4 12 -10.5 16t-20.5 4h-602q-21 0 -28 -20l-172 -428 q-2 -4 -2 -14q0 -23 28 -23h146q26 0 26 -20q0 -23 -26 -23h-326q-27 0 -27 23zM403 592q0 -23 29 -23h529q28 0 28 23q0 10 -2 14l-266 672q-9 24 -12.5 28.5t-12.5 4.5q-8 0 -10.5 -4t-11.5 -29l-266 -672q-1 -2 -2 -5t-2 -5t-1 -4zM463 1493q0 6 8 18l195 230 q18 20 36 20q20 0 35 -20l193 -230q10 -13 10 -20q0 -9 -8.5 -17t-18.5 -8q-9 0 -22 13l-170 200q-10 13 -21 13q-12 0 -22 -13l-170 -198q-13 -13 -21 -13q-10 0 -17 7t-7 18z" />
<glyph unicode="&#xc3;" horiz-adv-x="1398" d="M14 23q0 20 27 20h63q21 0 29 20l512 1270q17 45 55 45q37 0 54 -45l508 -1270q4 -12 10 -16t18 -4h70q26 0 26 -20q0 -23 -26 -23h-334q-11 0 -18 6.5t-7 16.5q0 20 25 20h145q31 0 31 23q0 2 -4 14l-170 428q-4 12 -10.5 16t-20.5 4h-602q-21 0 -28 -20l-172 -428 q-2 -4 -2 -14q0 -23 28 -23h146q26 0 26 -20q0 -23 -26 -23h-326q-27 0 -27 23zM403 592q0 -23 29 -23h529q28 0 28 23q0 10 -2 14l-266 672q-9 24 -12.5 28.5t-12.5 4.5q-8 0 -10.5 -4t-11.5 -29l-266 -672q-1 -2 -2 -5t-2 -5t-1 -4zM403 1524q3 79 49.5 130.5t114.5 51.5 q37 0 71 -17.5t81 -60.5q54 -49 77.5 -63.5t51.5 -14.5q41 0 70.5 40.5t29.5 97.5v4q0 10 7 17t16 7q24 0 24 -30q0 -77 -44.5 -130t-110.5 -53q-37 0 -64.5 15t-81.5 65q-46 41 -74 56.5t-57 15.5q-50 0 -80 -41q-17 -21 -20.5 -33.5t-9.5 -67.5q-3 -24 -25 -24 q-25 0 -25 35z" />
<glyph unicode="&#xc4;" horiz-adv-x="1398" d="M14 23q0 20 27 20h63q21 0 29 20l512 1270q17 45 55 45q37 0 54 -45l508 -1270q4 -12 10 -16t18 -4h70q26 0 26 -20q0 -23 -26 -23h-334q-11 0 -18 6.5t-7 16.5q0 20 25 20h145q31 0 31 23q0 2 -4 14l-170 428q-4 12 -10.5 16t-20.5 4h-602q-21 0 -28 -20l-172 -428 q-2 -4 -2 -14q0 -23 28 -23h146q26 0 26 -20q0 -23 -26 -23h-326q-27 0 -27 23zM403 592q0 -23 29 -23h529q28 0 28 23q0 10 -2 14l-266 672q-9 24 -12.5 28.5t-12.5 4.5q-8 0 -10.5 -4t-11.5 -29l-266 -672q-1 -2 -2 -5t-2 -5t-1 -4zM442 1604q0 25 17.5 42t42.5 17 q26 0 43.5 -17.5t17.5 -43.5q0 -25 -17 -42.5t-42 -17.5t-43.5 18.5t-18.5 43.5zM838 1604q0 25 17 42t42 17q26 0 43.5 -17.5t17.5 -43.5q0 -25 -17 -42.5t-42 -17.5t-43 18.5t-18 43.5z" />
<glyph unicode="&#xc5;" horiz-adv-x="1398" d="M14 23q0 20 27 20h63q21 0 29 20l512 1270q17 45 55 45q37 0 54 -45l508 -1270q4 -12 10 -16t18 -4h70q26 0 26 -20q0 -23 -26 -23h-334q-11 0 -18 6.5t-7 16.5q0 20 25 20h145q31 0 31 23q0 2 -4 14l-170 428q-4 12 -10.5 16t-20.5 4h-602q-21 0 -28 -20l-172 -428 q-2 -4 -2 -14q0 -23 28 -23h146q26 0 26 -20q0 -23 -26 -23h-326q-27 0 -27 23zM403 592q0 -23 29 -23h529q28 0 28 23q0 10 -2 14l-266 672q-9 24 -12.5 28.5t-12.5 4.5q-8 0 -10.5 -4t-11.5 -29l-266 -672q-1 -2 -2 -5t-2 -5t-1 -4zM518 1618q0 75 53.5 128.5t128.5 53.5 t129 -53.5t54 -128.5q0 -76 -54 -129t-131 -53q-74 0 -127 53.5t-53 128.5zM561 1618q0 -57 40.5 -98t96.5 -41q60 0 101 40t41 99q0 58 -40.5 98.5t-99.5 40.5q-58 0 -98.5 -40.5t-40.5 -98.5z" />
<glyph unicode="&#xc6;" horiz-adv-x="1888" d="M14 20q0 23 27 23h39q22 0 29 16l673 1260q13 26 28 36.5t38 10.5h866q29 0 29 -29v-350q0 -29 -23 -29q-24 0 -24 29v309q0 29 -29 29h-715q-28 0 -28 -22v-11l92 -542q3 -14 9.5 -19.5t21.5 -5.5h307q28 0 28 29v176q0 28 25 28q23 0 23 -28v-479q0 -29 -23 -29 q-25 0 -25 29v202q0 29 -28 29h-293q-29 0 -29 -23v-10l96 -581q3 -14 9.5 -19.5t19.5 -5.5h526q29 0 29 29v321q0 29 23 29q24 0 24 -29v-364q0 -29 -28 -29h-875q-27 0 -27 20q0 23 27 23h193q28 0 28 23v10l-65 387q-5 24 -29 24h-571q-22 0 -29 -16l-211 -389 q-4 -12 -4 -16q0 -23 29 -23h145q27 0 27 -23q0 -20 -27 -20h-301q-27 0 -27 20zM430 553q0 -23 29 -23h510q28 0 28 23v10l-123 742q-6 20 -22 20q-14 0 -25 -16l-393 -740q-4 -12 -4 -16z" />
<glyph unicode="&#xc7;" horiz-adv-x="1290" d="M98 692q0 342 185 533q78 80 183 123t220 43q110 0 211 -41.5t166 -112.5q26 -29 41.5 -57.5t36.5 -83.5v241q0 29 22 29q25 0 25 -29v-424q0 -28 -25 -28q-14 0 -18.5 9t-5.5 40q-6 178 -134.5 293.5t-320.5 115.5q-243 0 -386.5 -177t-143.5 -476q0 -306 144 -485.5 t390 -179.5q186 0 310 108t139 281q3 37 28 37q13 0 21 -8.5t8 -22.5q0 -82 -44 -172.5t-112 -149.5q-135 -117 -340 -123l-53 -79q-2 -2 -2 -9q0 -6 8 -6l54 2q17 0 46.5 -12.5t47.5 -26.5q45 -38 45 -98q0 -64 -53.5 -110t-128.5 -46q-74 0 -128.5 16.5t-54.5 39.5 q0 9 7 15.5t16 6.5q8 0 16 -4q62 -26 121 -26q63 0 104 30.5t41 77.5q0 40 -34 66t-86 26q-48 0 -80 -16q-10 -6 -17 -6q-6 0 -11 5t-5 11q0 4 4 12l94 133q-258 17 -404.5 207.5t-146.5 507.5z" />
<glyph unicode="&#xc8;" horiz-adv-x="1226" d="M70 23q0 20 26 20h148q28 0 28 29v1224q0 29 -28 29h-148q-26 0 -26 21q0 20 26 20h963q28 0 28 -29v-350q0 -29 -22 -29q-10 0 -17.5 8.5t-7.5 20.5v309q0 29 -28 29h-658q-28 0 -28 -29v-548q0 -29 28 -29h367q29 0 29 29v182q0 28 24 28q23 0 23 -28v-479 q0 -29 -23 -29q-24 0 -24 29v198q0 29 -29 29h-367q-28 0 -28 -29v-577q0 -29 28 -29h666q31 0 31 29v319q0 31 22 31q11 0 18 -9t7 -22v-362q0 -29 -29 -29h-973q-26 0 -26 23zM535 1704q0 10 8.5 18.5t19.5 8.5q16 0 27 -19l137 -201q8 -11 8 -18q0 -9 -7.5 -16t-16.5 -7 q-12 0 -21 15l-147 194q-8 16 -8 25z" />
<glyph unicode="&#xc9;" horiz-adv-x="1226" d="M70 23q0 20 26 20h148q28 0 28 29v1224q0 29 -28 29h-148q-26 0 -26 21q0 20 26 20h963q28 0 28 -29v-350q0 -29 -22 -29q-10 0 -17.5 8.5t-7.5 20.5v309q0 29 -28 29h-658q-28 0 -28 -29v-548q0 -29 28 -29h367q29 0 29 29v182q0 28 24 28q23 0 23 -28v-479 q0 -29 -23 -29q-24 0 -24 29v198q0 29 -29 29h-367q-28 0 -28 -29v-577q0 -29 28 -29h666q31 0 31 29v319q0 31 22 31q11 0 18 -9t7 -22v-362q0 -29 -29 -29h-973q-26 0 -26 23zM614 1493q0 9 9 18l137 203q14 19 28 19q10 0 19.5 -9.5t9.5 -19.5q0 -12 -10 -25l-148 -194 q-9 -12 -22 -12q-9 0 -16 6t-7 14z" />
<glyph unicode="&#xca;" horiz-adv-x="1226" d="M70 23q0 20 26 20h148q28 0 28 29v1224q0 29 -28 29h-148q-26 0 -26 21q0 20 26 20h963q28 0 28 -29v-350q0 -29 -22 -29q-10 0 -17.5 8.5t-7.5 20.5v309q0 29 -28 29h-658q-28 0 -28 -29v-548q0 -29 28 -29h367q29 0 29 29v182q0 28 24 28q23 0 23 -28v-479 q0 -29 -23 -29q-24 0 -24 29v198q0 29 -29 29h-367q-28 0 -28 -29v-577q0 -29 28 -29h666q31 0 31 29v319q0 31 22 31q11 0 18 -9t7 -22v-362q0 -29 -29 -29h-973q-26 0 -26 23zM424 1493q0 8 10 18l193 230q17 20 37 20q18 0 36 -20l191 -230q10 -10 10 -20q0 -9 -8.5 -17 t-18.5 -8q-9 0 -22 13l-168 200q-13 13 -22 13q-11 0 -21 -13l-170 -198q-13 -13 -22 -13q-11 0 -18 7t-7 18z" />
<glyph unicode="&#xcb;" horiz-adv-x="1226" d="M70 23q0 20 26 20h148q28 0 28 29v1224q0 29 -28 29h-148q-26 0 -26 21q0 20 26 20h963q28 0 28 -29v-350q0 -29 -22 -29q-10 0 -17.5 8.5t-7.5 20.5v309q0 29 -28 29h-658q-28 0 -28 -29v-548q0 -29 28 -29h367q29 0 29 29v182q0 28 24 28q23 0 23 -28v-479 q0 -29 -23 -29q-24 0 -24 29v198q0 29 -29 29h-367q-28 0 -28 -29v-577q0 -29 28 -29h666q31 0 31 29v319q0 31 22 31q11 0 18 -9t7 -22v-362q0 -29 -29 -29h-973q-26 0 -26 23zM395 1604q0 25 17.5 42t42.5 17q26 0 43.5 -17.5t17.5 -43.5q0 -25 -17 -42.5t-42 -17.5 t-43.5 18.5t-18.5 43.5zM791 1604q0 25 17 42t42 17q26 0 43.5 -17.5t17.5 -43.5q0 -25 -17 -42.5t-42 -17.5t-43 18.5t-18 43.5z" />
<glyph unicode="&#xcc;" horiz-adv-x="626" d="M70 23q0 20 26 20h162q29 0 29 29v1224q0 29 -29 29h-162q-26 0 -26 21q0 20 26 20h432q27 0 27 -20q0 -9 -7.5 -15t-19.5 -6h-159q-29 0 -29 -29v-1224q0 -29 29 -29h159q27 0 27 -20q0 -23 -27 -23h-432q-26 0 -26 23zM180 1704q0 10 9 18.5t20 8.5q16 0 27 -19 l137 -201q8 -11 8 -18q0 -9 -8 -16t-17 -7q-8 0 -20 15l-146 194q-10 13 -10 25z" />
<glyph unicode="&#xcd;" horiz-adv-x="626" d="M70 23q0 20 26 20h162q29 0 29 29v1224q0 29 -29 29h-162q-26 0 -26 21q0 20 26 20h432q27 0 27 -20q0 -9 -7.5 -15t-19.5 -6h-159q-29 0 -29 -29v-1224q0 -29 29 -29h159q27 0 27 -20q0 -23 -27 -23h-432q-26 0 -26 23zM274 1493q0 7 7 18l139 203q11 19 26 19 q12 0 21.5 -9t9.5 -20q0 -8 -10 -25l-150 -194q-9 -12 -20 -12q-9 0 -16 6t-7 14z" />
<glyph unicode="&#xce;" horiz-adv-x="626" d="M70 23q0 20 26 20h162q29 0 29 29v1224q0 29 -29 29h-162q-26 0 -26 21q0 20 26 20h432q27 0 27 -20q0 -9 -7.5 -15t-19.5 -6h-159q-29 0 -29 -29v-1224q0 -29 29 -29h159q27 0 27 -20q0 -23 -27 -23h-432q-26 0 -26 23zM74 1493q0 8 10 18l195 230q15 20 34 20t37 -20 l193 -230q8 -12 8 -20q0 -9 -8.5 -17t-18.5 -8q-7 0 -20 13l-170 200q-13 13 -23 13t-20 -13l-170 -198q-13 -13 -23 -13t-17 7t-7 18z" />
<glyph unicode="&#xcf;" horiz-adv-x="626" d="M70 23q0 20 26 20h162q29 0 29 29v1224q0 29 -29 29h-162q-26 0 -26 21q0 20 26 20h432q27 0 27 -20q0 -9 -7.5 -15t-19.5 -6h-159q-29 0 -29 -29v-1224q0 -29 29 -29h159q27 0 27 -20q0 -23 -27 -23h-432q-26 0 -26 23zM115 1604q0 25 17 42t42 17q26 0 44 -17.5 t18 -43.5q0 -25 -17.5 -42.5t-42.5 -17.5t-43 18.5t-18 43.5zM389 1604q0 25 17.5 42t42.5 17q26 0 43.5 -17.5t17.5 -43.5q0 -25 -17 -42.5t-42 -17.5t-43.5 18.5t-18.5 43.5z" />
<glyph unicode="&#xd0;" horiz-adv-x="1445" d="M84 23q0 20 27 20h147q29 0 29 29v614h-176q-12 0 -19.5 6t-7.5 15q0 20 27 20h176v569q0 29 -29 29h-147q-12 0 -19.5 6t-7.5 15q0 20 27 20h497q179 0 283 -25.5t201 -93.5q258 -181 258 -559q0 -184 -67 -332t-187 -235q-93 -63 -208 -92t-280 -29h-497q-27 0 -27 23z M340 72q0 -29 29 -29h233q156 0 269 31t200 98q106 82 163.5 215.5t57.5 300.5q0 345 -225 512q-91 67 -196.5 96t-262.5 29h-239q-29 0 -29 -29v-569h502q26 0 26 -20q0 -21 -26 -21h-502v-614z" />
<glyph unicode="&#xd1;" horiz-adv-x="1497" d="M66 23q0 20 24 20h154q28 0 28 29v1224q0 29 -28 29h-154q-10 0 -17 6t-7 15q0 20 24 20h260q20 0 27 -14l774 -1221q19 -29 29 -29q8 0 13 12t5 29v1153q0 29 -29 29h-165q-11 0 -18 6t-7 15q0 20 25 20h407q27 0 27 -20q0 -9 -7.5 -15t-19.5 -6h-131q-29 0 -29 -29 v-1239q0 -38 -9 -52.5t-32 -14.5q-33 0 -65 49l-772 1216q-19 29 -29 29q-8 0 -13 -12t-5 -31v-1169q0 -29 28 -29h160q27 0 27 -20q0 -23 -27 -23h-424q-24 0 -24 23zM453 1524q3 79 49 130.5t114 51.5q37 0 71 -17.5t81 -60.5q52 -49 75.5 -63.5t51.5 -14.5 q41 0 70.5 40.5t29.5 97.5v4q0 10 7 17t18 7q24 0 24 -30q0 -77 -44.5 -130t-110.5 -53q-37 0 -64.5 15t-81.5 65q-46 41 -74 56.5t-57 15.5q-50 0 -80 -41q-17 -21 -20.5 -33.5t-9.5 -67.5q-3 -24 -25 -24q-12 0 -19 10t-5 25z" />
<glyph unicode="&#xd2;" horiz-adv-x="1413" d="M96 684q0 309 148 496q79 100 201 155.5t260 55.5q140 0 262.5 -55t203.5 -156q146 -178 146 -478q0 -154 -35 -285.5t-100 -219.5q-73 -102 -201.5 -162t-273.5 -60q-146 0 -268.5 57t-205.5 163q-137 179 -137 489zM152 686q0 -300 122 -461q73 -97 187 -149.5 t248 -52.5t252 57t182 153q56 85 87.5 209.5t31.5 259.5q0 295 -149 468t-404 173q-131 0 -242.5 -49.5t-181.5 -138.5q-133 -169 -133 -469zM545 1704q0 10 8.5 18.5t19.5 8.5q16 0 27 -19l137 -201q8 -16 8 -18q0 -8 -7.5 -15.5t-16.5 -7.5q-12 0 -21 15l-147 194 q-8 11 -8 25z" />
<glyph unicode="&#xd3;" horiz-adv-x="1413" d="M96 684q0 309 148 496q79 100 201 155.5t260 55.5q140 0 262.5 -55t203.5 -156q146 -178 146 -478q0 -154 -35 -285.5t-100 -219.5q-73 -102 -201.5 -162t-273.5 -60q-146 0 -268.5 57t-205.5 163q-137 179 -137 489zM152 686q0 -300 122 -461q73 -97 187 -149.5 t248 -52.5t252 57t182 153q56 85 87.5 209.5t31.5 259.5q0 295 -149 468t-404 173q-131 0 -242.5 -49.5t-181.5 -138.5q-133 -169 -133 -469zM668 1493q0 9 6 18l139 203q14 19 29 19q11 0 19.5 -8.5t8.5 -20.5q0 -8 -10 -25l-147 -194q-12 -12 -23 -12q-9 0 -15.5 6 t-6.5 14z" />
<glyph unicode="&#xd4;" horiz-adv-x="1413" d="M96 684q0 309 148 496q79 100 201 155.5t260 55.5q140 0 262.5 -55t203.5 -156q146 -178 146 -478q0 -154 -35 -285.5t-100 -219.5q-73 -102 -201.5 -162t-273.5 -60q-146 0 -268.5 57t-205.5 163q-137 179 -137 489zM152 686q0 -300 122 -461q73 -97 187 -149.5 t248 -52.5t252 57t182 153q56 85 87.5 209.5t31.5 259.5q0 295 -149 468t-404 173q-131 0 -242.5 -49.5t-181.5 -138.5q-133 -169 -133 -469zM469 1493q0 6 8 18l195 230q18 20 37 20t36 -20l191 -230q10 -10 10 -20q0 -9 -8 -17t-18 -8t-23 13l-170 200q-10 13 -20 13 q-13 0 -23 -13l-170 -198q-13 -13 -20 -13q-10 0 -17.5 7t-7.5 18z" />
<glyph unicode="&#xd5;" horiz-adv-x="1413" d="M96 684q0 309 148 496q79 100 201 155.5t260 55.5q140 0 262.5 -55t203.5 -156q146 -178 146 -478q0 -154 -35 -285.5t-100 -219.5q-73 -102 -201.5 -162t-273.5 -60q-146 0 -268.5 57t-205.5 163q-137 179 -137 489zM152 686q0 -300 122 -461q73 -97 187 -149.5 t248 -52.5t252 57t182 153q56 85 87.5 209.5t31.5 259.5q0 295 -149 468t-404 173q-131 0 -242.5 -49.5t-181.5 -138.5q-133 -169 -133 -469zM410 1524q3 79 49 130.5t114 51.5q37 0 71 -17.5t81 -60.5q54 -49 77.5 -63.5t51.5 -14.5q41 0 70.5 40.5t29.5 97.5v4q0 10 7 17 t18 7q25 0 25 -30q0 -77 -45 -130t-111 -53q-37 0 -65.5 15.5t-82.5 64.5q-46 41 -74 56.5t-57 15.5q-50 0 -80 -41q-17 -21 -20.5 -33.5t-9.5 -67.5q-3 -24 -25 -24q-24 0 -24 35z" />
<glyph unicode="&#xd6;" horiz-adv-x="1413" d="M96 684q0 309 148 496q79 100 201 155.5t260 55.5q140 0 262.5 -55t203.5 -156q146 -178 146 -478q0 -154 -35 -285.5t-100 -219.5q-73 -102 -201.5 -162t-273.5 -60q-146 0 -268.5 57t-205.5 163q-137 179 -137 489zM152 686q0 -300 122 -461q73 -97 187 -149.5 t248 -52.5t252 57t182 153q56 85 87.5 209.5t31.5 259.5q0 295 -149 468t-404 173q-131 0 -242.5 -49.5t-181.5 -138.5q-133 -169 -133 -469zM449 1604q0 25 17 42t42 17q26 0 43.5 -17.5t17.5 -43.5q0 -25 -17 -42.5t-42 -17.5t-43 18.5t-18 43.5zM844 1604q0 25 17 42 t42 17q26 0 44 -17.5t18 -43.5q0 -25 -17.5 -42.5t-42.5 -17.5t-43 18.5t-18 43.5z" />
<glyph unicode="&#xd7;" d="M170 383q0 8 10 18l301 301l-301 304q-10 10 -10 18q0 9 7 16t16 7q7 0 18 -11l301 -301l303 301q11 11 19 11q9 0 15.5 -7t6.5 -16q0 -8 -10 -18l-301 -304l301 -301q10 -10 10 -18q0 -9 -6.5 -16t-15.5 -7q-8 0 -19 11l-303 301l-301 -301q-11 -11 -18 -11q-9 0 -16 7 t-7 16z" />
<glyph unicode="&#xd8;" horiz-adv-x="1429" d="M104 -20q0 7 11 18l145 176q-80 97 -118 218.5t-38 283.5q0 321 148 504q82 101 202.5 156t258.5 55q249 0 424 -164l147 178q12 12 19 12q9 0 15.5 -6.5t6.5 -15.5t-8 -17l-150 -182q158 -183 158 -496q0 -152 -35.5 -283.5t-99.5 -219.5q-75 -103 -202.5 -162.5 t-272.5 -59.5q-255 0 -424 166l-144 -172q-9 -12 -20 -12q-9 0 -16 7t-7 16zM160 678q0 -296 133 -463l811 973q-149 155 -389 155q-129 0 -241 -50t-181 -138q-133 -171 -133 -477zM324 180q157 -157 393 -157q134 0 251 56.5t183 153.5q55 83 87 208.5t32 260.5 q0 281 -137 455z" />
<glyph unicode="&#xd9;" horiz-adv-x="1454" d="M55 1346q0 20 27 20h410q26 0 26 -20q0 -21 -26 -21h-164q-29 0 -29 -29v-766q0 -113 19.5 -191.5t62.5 -143.5q116 -172 354 -172q212 0 324 129t112 374v770q0 29 -28 29h-164q-12 0 -19.5 6t-7.5 15q0 20 27 20h399q27 0 27 -20q0 -9 -7.5 -15t-19.5 -6h-131 q-28 0 -28 -29v-772q0 -119 -19.5 -198.5t-64.5 -149.5q-133 -201 -402 -201q-261 0 -393 189q-51 72 -72.5 156t-21.5 208v768q0 29 -29 29h-135q-12 0 -19.5 6t-7.5 15zM602 1704q0 10 9 18.5t20 8.5q14 0 28 -19l138 -201q6 -9 6 -18t-7 -16t-16 -7q-10 0 -22 15 l-146 194q-10 13 -10 25z" />
<glyph unicode="&#xda;" horiz-adv-x="1454" d="M55 1346q0 20 27 20h410q26 0 26 -20q0 -21 -26 -21h-164q-29 0 -29 -29v-766q0 -113 19.5 -191.5t62.5 -143.5q116 -172 354 -172q212 0 324 129t112 374v770q0 29 -28 29h-164q-12 0 -19.5 6t-7.5 15q0 20 27 20h399q27 0 27 -20q0 -9 -7.5 -15t-19.5 -6h-131 q-28 0 -28 -29v-772q0 -119 -19.5 -198.5t-64.5 -149.5q-133 -201 -402 -201q-261 0 -393 189q-51 72 -72.5 156t-21.5 208v768q0 29 -29 29h-135q-12 0 -19.5 6t-7.5 15zM723 1493q0 9 6 18l139 203q11 19 27 19q11 0 20 -9.5t9 -19.5q0 -13 -9 -25l-149 -194 q-9 -12 -21 -12q-9 0 -15.5 6t-6.5 14z" />
<glyph unicode="&#xdb;" horiz-adv-x="1454" d="M55 1346q0 20 27 20h410q26 0 26 -20q0 -21 -26 -21h-164q-29 0 -29 -29v-766q0 -113 19.5 -191.5t62.5 -143.5q116 -172 354 -172q212 0 324 129t112 374v770q0 29 -28 29h-164q-12 0 -19.5 6t-7.5 15q0 20 27 20h399q27 0 27 -20q0 -9 -7.5 -15t-19.5 -6h-131 q-28 0 -28 -29v-772q0 -119 -19.5 -198.5t-64.5 -149.5q-133 -201 -402 -201q-261 0 -393 189q-51 72 -72.5 156t-21.5 208v768q0 29 -29 29h-135q-12 0 -19.5 6t-7.5 15zM506 1493q0 6 8 18l195 230q17 20 36 20t37 -20l191 -230q10 -10 10 -20q0 -9 -8.5 -17t-18.5 -8 q-9 0 -22 13l-170 200q-10 13 -21 13q-12 0 -20 -13l-172 -198q-10 -13 -21 -13q-10 0 -17 7t-7 18z" />
<glyph unicode="&#xdc;" horiz-adv-x="1454" d="M55 1346q0 20 27 20h410q26 0 26 -20q0 -21 -26 -21h-164q-29 0 -29 -29v-766q0 -113 19.5 -191.5t62.5 -143.5q116 -172 354 -172q212 0 324 129t112 374v770q0 29 -28 29h-164q-12 0 -19.5 6t-7.5 15q0 20 27 20h399q27 0 27 -20q0 -9 -7.5 -15t-19.5 -6h-131 q-28 0 -28 -29v-772q0 -119 -19.5 -198.5t-64.5 -149.5q-133 -201 -402 -201q-261 0 -393 189q-51 72 -72.5 156t-21.5 208v768q0 29 -29 29h-135q-12 0 -19.5 6t-7.5 15zM467 1604q0 25 17 42t42 17q26 0 44 -17.5t18 -43.5q0 -25 -17.5 -42.5t-42.5 -17.5t-43 18.5 t-18 43.5zM864 1604q0 25 17.5 42t42.5 17q26 0 43.5 -17.5t17.5 -43.5q0 -25 -17 -42.5t-42 -17.5t-43.5 18.5t-18.5 43.5z" />
<glyph unicode="&#xdd;" horiz-adv-x="1249" d="M14 1346q0 20 27 20h360q25 0 25 -20q0 -9 -7 -15t-18 -6h-145q-12 0 -20.5 -6.5t-8.5 -15.5q0 -7 6 -19l396 -661l397 661q6 9 6 19q0 9 -8 15.5t-20 6.5h-146q-10 0 -17 6t-7 15q0 20 24 20h352q27 0 27 -20q0 -9 -7.5 -15t-19.5 -6h-88q-12 0 -17 -3t-11 -13 l-437 -727q-6 -10 -6 -23v-487q0 -29 29 -29h205q24 0 24 -20q0 -23 -24 -23h-520q-27 0 -27 23q0 20 27 20h204q29 0 29 29v487q0 13 -6 23l-434 727q-9 16 -29 16h-88q-12 0 -19.5 6t-7.5 15zM616 1493q0 7 7 18l139 203q11 19 26 19q12 0 21.5 -8.5t9.5 -20.5 q0 -8 -10 -25l-150 -194q-9 -12 -20 -12q-9 0 -16 6t-7 14z" />
<glyph unicode="&#xde;" horiz-adv-x="1126" d="M76 23q0 20 24 20h144q28 0 28 29v1224q0 29 -28 29h-144q-10 0 -17 6t-7 15q0 20 24 20h398q24 0 24 -20q0 -21 -24 -21h-144q-28 0 -28 -29v-186q0 -29 28 -29h226q157 0 242 -24.5t143 -85.5q45 -50 70.5 -122t25.5 -149q0 -88 -32.5 -163.5t-90.5 -122.5 q-63 -51 -154 -71.5t-252 -20.5h-178q-28 0 -28 -29v-221q0 -29 28 -29h187q26 0 26 -20q0 -23 -26 -23h-441q-24 0 -24 23zM326 393q0 -28 28 -28h178q145 0 229.5 20t141.5 68q49 41 76 106t27 141q0 140 -78 234q-51 58 -129 82t-219 24h-226q-28 0 -28 -28v-619z" />
<glyph unicode="&#xdf;" horiz-adv-x="1060" d="M37 18q0 19 22 19h123q29 0 29 29v874q0 221 80 326q46 59 122.5 91t170.5 32q163 0 253.5 -89.5t90.5 -250.5q0 -116 -63.5 -200t-166.5 -104q-16 -3 -16 -6q0 -1 6 -4q135 -20 213 -120.5t78 -254.5q0 -131 -58 -223t-159 -123q-58 -18 -164 -18q-31 0 -42 4.5 t-11 17.5q0 19 22 19h21q12 -2 26 -2q148 0 231 87.5t83 244.5t-85 246.5t-245 101.5q-24 2 -31.5 6.5t-7.5 17.5q0 15 9.5 21.5t39.5 7.5q125 8 197 83.5t72 201.5q0 141 -78 218t-221 77q-103 0 -178.5 -49t-110.5 -138q-29 -77 -29 -221v-874q0 -29 29 -29h78 q24 0 24 -19q0 -18 -24 -18h-308q-22 0 -22 18z" />
<glyph unicode="&#xe0;" horiz-adv-x="1062" d="M88 254q0 82 39.5 148.5t108.5 103.5q59 31 149 44t248 13q69 0 135 -4h16q27 0 27 33q0 162 -37 223q-72 119 -262 119q-143 0 -228.5 -59t-97.5 -166q-3 -31 -26 -31q-12 0 -19.5 7.5t-7.5 19.5q0 47 30.5 103t74.5 91q96 78 274 78q192 0 285 -107q37 -43 52 -102 t15 -162v-540q0 -29 29 -29h111q22 0 22 -19q0 -18 -22 -18h-160q-29 0 -29 29v186q-63 -135 -148.5 -189.5t-234.5 -54.5q-159 0 -251.5 76t-92.5 207zM139 258q0 -119 78.5 -182.5t224.5 -63.5q104 0 176 32t121 101q44 63 57.5 120.5t14.5 195.5v12q0 31 -10 39 q-13 10 -226 10q-234 0 -325 -61q-111 -72 -111 -203zM383 1333q0 9 9.5 18t19.5 9q14 0 28 -19l138 -200q6 -9 6 -19q0 -9 -7.5 -15.5t-15.5 -6.5q-11 0 -22 14l-146 195q-10 13 -10 24z" />
<glyph unicode="&#xe1;" horiz-adv-x="1062" d="M88 254q0 82 39.5 148.5t108.5 103.5q59 31 149 44t248 13q69 0 135 -4h16q27 0 27 33q0 162 -37 223q-72 119 -262 119q-143 0 -228.5 -59t-97.5 -166q-3 -31 -26 -31q-12 0 -19.5 7.5t-7.5 19.5q0 47 30.5 103t74.5 91q96 78 274 78q192 0 285 -107q37 -43 52 -102 t15 -162v-540q0 -29 29 -29h111q22 0 22 -19q0 -18 -22 -18h-160q-29 0 -29 29v186q-63 -135 -148.5 -189.5t-234.5 -54.5q-159 0 -251.5 76t-92.5 207zM139 258q0 -119 78.5 -182.5t224.5 -63.5q104 0 176 32t121 101q44 63 57.5 120.5t14.5 195.5v12q0 31 -10 39 q-13 10 -226 10q-234 0 -325 -61q-111 -72 -111 -203zM477 1122q0 10 6 19l142 205q10 18 26 18q11 0 20 -9t9 -20t-10 -24l-150 -197q-9 -12 -20 -12q-8 0 -15.5 6.5t-7.5 13.5z" />
<glyph unicode="&#xe2;" horiz-adv-x="1062" d="M88 254q0 82 39.5 148.5t108.5 103.5q59 31 149 44t248 13q69 0 135 -4h16q27 0 27 33q0 162 -37 223q-72 119 -262 119q-143 0 -228.5 -59t-97.5 -166q-3 -31 -26 -31q-12 0 -19.5 7.5t-7.5 19.5q0 47 30.5 103t74.5 91q96 78 274 78q192 0 285 -107q37 -43 52 -102 t15 -162v-540q0 -29 29 -29h111q22 0 22 -19q0 -18 -22 -18h-160q-29 0 -29 29v186q-63 -135 -148.5 -189.5t-234.5 -54.5q-159 0 -251.5 76t-92.5 207zM139 258q0 -119 78.5 -182.5t224.5 -63.5q104 0 176 32t121 101q44 63 57.5 120.5t14.5 195.5v12q0 31 -10 39 q-13 10 -226 10q-234 0 -325 -61q-111 -72 -111 -203zM272 1122q0 8 11 19l194 227q18 23 37 23q17 0 37 -23l188 -225q11 -15 11 -21q0 -10 -8 -17t-19 -7t-23 12l-168 199q-10 12 -20 12q-13 0 -23 -12l-170 -199q-9 -12 -22 -12q-11 0 -18 7t-7 17z" />
<glyph unicode="&#xe3;" horiz-adv-x="1062" d="M88 254q0 82 39.5 148.5t108.5 103.5q59 31 149 44t248 13q69 0 135 -4h16q27 0 27 33q0 162 -37 223q-72 119 -262 119q-143 0 -228.5 -59t-97.5 -166q-3 -31 -26 -31q-12 0 -19.5 7.5t-7.5 19.5q0 47 30.5 103t74.5 91q96 78 274 78q192 0 285 -107q37 -43 52 -102 t15 -162v-540q0 -29 29 -29h111q22 0 22 -19q0 -18 -22 -18h-160q-29 0 -29 29v186q-63 -135 -148.5 -189.5t-234.5 -54.5q-159 0 -251.5 76t-92.5 207zM139 258q0 -119 78.5 -182.5t224.5 -63.5q104 0 176 32t121 101q44 63 57.5 120.5t14.5 195.5v12q0 31 -10 39 q-13 10 -226 10q-234 0 -325 -61q-111 -72 -111 -203zM215 1153q5 80 51 131t113 51q37 0 70.5 -18t80.5 -62q53 -48 77 -62.5t50 -14.5q92 0 101 143q4 25 24 25q25 0 25 -35q0 -48 -31 -105q-42 -76 -125 -76q-37 0 -65 15.5t-80 64.5q-45 42 -73.5 58t-57.5 16 q-102 0 -111 -141q-4 -25 -24 -25q-12 0 -19 10t-6 25z" />
<glyph unicode="&#xe4;" horiz-adv-x="1062" d="M88 254q0 82 39.5 148.5t108.5 103.5q59 31 149 44t248 13q69 0 135 -4h16q27 0 27 33q0 162 -37 223q-72 119 -262 119q-143 0 -228.5 -59t-97.5 -166q-3 -31 -26 -31q-12 0 -19.5 7.5t-7.5 19.5q0 47 30.5 103t74.5 91q96 78 274 78q192 0 285 -107q37 -43 52 -102 t15 -162v-540q0 -29 29 -29h111q22 0 22 -19q0 -18 -22 -18h-160q-29 0 -29 29v186q-63 -135 -148.5 -189.5t-234.5 -54.5q-159 0 -251.5 76t-92.5 207zM139 258q0 -119 78.5 -182.5t224.5 -63.5q104 0 176 32t121 101q44 63 57.5 120.5t14.5 195.5v12q0 31 -10 39 q-13 10 -226 10q-234 0 -325 -61q-111 -72 -111 -203zM254 1235q0 25 17 42t42 17q26 0 44 -17.5t18 -43.5q0 -25 -17.5 -42t-42.5 -17t-43 18t-18 43zM651 1235q0 25 17.5 42t42.5 17q26 0 43.5 -17.5t17.5 -43.5q0 -25 -17 -42t-42 -17t-43.5 18t-18.5 43z" />
<glyph unicode="&#xe5;" horiz-adv-x="1062" d="M88 254q0 82 39.5 148.5t108.5 103.5q59 31 149 44t248 13q69 0 135 -4h16q27 0 27 33q0 162 -37 223q-72 119 -262 119q-143 0 -228.5 -59t-97.5 -166q-3 -31 -26 -31q-12 0 -19.5 7.5t-7.5 19.5q0 47 30.5 103t74.5 91q96 78 274 78q192 0 285 -107q37 -43 52 -102 t15 -162v-540q0 -29 29 -29h111q22 0 22 -19q0 -18 -22 -18h-160q-29 0 -29 29v186q-63 -135 -148.5 -189.5t-234.5 -54.5q-159 0 -251.5 76t-92.5 207zM139 258q0 -119 78.5 -182.5t224.5 -63.5q104 0 176 32t121 101q44 63 57.5 120.5t14.5 195.5v12q0 31 -10 39 q-13 10 -226 10q-234 0 -325 -61q-111 -72 -111 -203zM338 1247q0 75 53.5 129t128.5 54t128.5 -54t53.5 -129q0 -76 -53.5 -129t-130.5 -53q-74 0 -127 53.5t-53 128.5zM381 1247q0 -57 40.5 -98t96.5 -41q60 0 100.5 40t40.5 99t-40.5 99t-98.5 40t-98.5 -40t-40.5 -99z " />
<glyph unicode="&#xe6;" horiz-adv-x="1523" d="M88 254q0 72 35.5 132t95.5 89q51 25 108 33t175 8h194q17 0 23 7t6 26q3 117 -1.5 172t-21.5 88q-28 57 -90 88t-149 31q-111 0 -184.5 -52.5t-88.5 -142.5q-6 -35 -10.5 -43t-19.5 -8q-11 0 -18 9t-7 22q0 35 18.5 78.5t47.5 78.5q38 46 109 72.5t157 26.5 q262 0 305 -219q35 106 116.5 162.5t198.5 56.5q169 0 261 -114t92 -323v-26q0 -27 -29 -27h-610q-19 0 -24 -7t-5 -32q0 -207 77.5 -309t235.5 -102q169 0 254 133q14 22 19.5 36.5t25.5 77.5q3 8 10.5 14.5t14.5 6.5q8 0 14.5 -7t6.5 -16q0 -31 -20.5 -78.5t-49.5 -82.5 q-98 -127 -283 -127q-137 0 -227 77t-113 213q-89 -294 -352 -294q-131 0 -214 76t-83 196zM137 246q0 -98 71 -160.5t183 -62.5q143 0 237.5 122t94.5 306q0 21 -10.5 24.5t-74.5 3.5h-9h-135q-105 0 -155 -8.5t-95 -34.5q-50 -28 -78.5 -78.5t-28.5 -111.5zM774 541 q0 -25 31 -25h557q15 0 22 7.5t7 25.5q0 173 -83 276t-223 103q-98 0 -174 -55t-104 -146q-12 -42 -22.5 -99.5t-10.5 -86.5z" />
<glyph unicode="&#xe7;" horiz-adv-x="1009" d="M80 465q0 236 116 374t314 138q121 0 209.5 -54.5t132.5 -156.5v149q0 29 22 29q25 0 25 -29v-299q0 -28 -25 -28q-13 0 -19 10.5t-9 38.5q-10 138 -99.5 217.5t-232.5 79.5q-173 0 -278 -127t-105 -334q0 -195 98 -332q97 -127 281 -127q132 0 221.5 67t106.5 179 q6 34 11.5 43.5t20.5 9.5q29 0 29 -32q0 -50 -34 -114t-85 -110q-89 -77 -252 -86l-53 -77q-4 -8 -4 -9t2.5 -3.5t3.5 -2.5l58 2q14 0 43.5 -13t44.5 -26q45 -31 45 -96q0 -63 -52 -107.5t-124 -44.5t-125.5 16t-53.5 38q0 9 7 15.5t16 6.5q6 0 16 -4q68 -24 117 -24 q61 0 101 30t40 76q0 37 -33.5 62.5t-82.5 25.5q-48 0 -80 -16q-10 -4 -15 -4q-6 0 -11 5t-5 11q0 4 4 12l92 129q-192 15 -295.5 143t-103.5 349z" />
<glyph unicode="&#xe8;" horiz-adv-x="1034" d="M82 475q0 235 117.5 368.5t324.5 133.5q194 0 311 -129t117 -344q0 -29 -28 -29h-760q-19 0 -24 -8.5t-5 -38.5q0 -108 44.5 -202.5t119.5 -147.5q94 -66 240 -66q137 0 220 61.5t120 188.5q6 21 24 21q10 0 17.5 -8t7.5 -17q0 -28 -26 -78.5t-58 -87.5 q-106 -121 -307 -121q-218 0 -336.5 131t-118.5 373zM137 537q0 -25 29 -25h702q29 0 29 27q0 56 -21 127t-51 116q-108 154 -307 154q-129 0 -220.5 -63.5t-129.5 -180.5q-31 -91 -31 -155zM410 1333q0 9 9 18t19 9q15 0 29 -19l137 -200q6 -9 6 -19q0 -9 -7 -15.5 t-15 -6.5q-12 0 -23 14l-145 195q-10 13 -10 24z" />
<glyph unicode="&#xe9;" horiz-adv-x="1034" d="M82 475q0 235 117.5 368.5t324.5 133.5q194 0 311 -129t117 -344q0 -29 -28 -29h-760q-19 0 -24 -8.5t-5 -38.5q0 -108 44.5 -202.5t119.5 -147.5q94 -66 240 -66q137 0 220 61.5t120 188.5q6 21 24 21q10 0 17.5 -8t7.5 -17q0 -28 -26 -78.5t-58 -87.5 q-106 -121 -307 -121q-218 0 -336.5 131t-118.5 373zM137 537q0 -25 29 -25h702q29 0 29 27q0 56 -21 127t-51 116q-108 154 -307 154q-129 0 -220.5 -63.5t-129.5 -180.5q-31 -91 -31 -155zM496 1122q0 10 6 19l139 205q13 18 29 18q10 0 19 -9t9 -20t-10 -24l-149 -197 q-9 -12 -21 -12q-8 0 -15 6.5t-7 13.5z" />
<glyph unicode="&#xea;" horiz-adv-x="1034" d="M82 475q0 235 117.5 368.5t324.5 133.5q194 0 311 -129t117 -344q0 -29 -28 -29h-760q-19 0 -24 -8.5t-5 -38.5q0 -108 44.5 -202.5t119.5 -147.5q94 -66 240 -66q137 0 220 61.5t120 188.5q6 21 24 21q10 0 17.5 -8t7.5 -17q0 -28 -26 -78.5t-58 -87.5 q-106 -121 -307 -121q-218 0 -336.5 131t-118.5 373zM137 537q0 -25 29 -25h702q29 0 29 27q0 56 -21 127t-51 116q-108 154 -307 154q-129 0 -220.5 -63.5t-129.5 -180.5q-31 -91 -31 -155zM301 1122q0 7 8 19l195 227q18 23 37 23q17 0 37 -23l188 -225q10 -13 10 -21 q0 -10 -7.5 -17t-18.5 -7t-23 12l-168 199q-10 12 -20 12q-13 0 -23 -12l-170 -199q-9 -12 -20 -12t-18 7t-7 17z" />
<glyph unicode="&#xeb;" horiz-adv-x="1034" d="M82 475q0 235 117.5 368.5t324.5 133.5q194 0 311 -129t117 -344q0 -29 -28 -29h-760q-19 0 -24 -8.5t-5 -38.5q0 -108 44.5 -202.5t119.5 -147.5q94 -66 240 -66q137 0 220 61.5t120 188.5q6 21 24 21q10 0 17.5 -8t7.5 -17q0 -28 -26 -78.5t-58 -87.5 q-106 -121 -307 -121q-218 0 -336.5 131t-118.5 373zM137 537q0 -25 29 -25h702q29 0 29 27q0 56 -21 127t-51 116q-108 154 -307 154q-129 0 -220.5 -63.5t-129.5 -180.5q-31 -91 -31 -155zM266 1235q0 25 17.5 42t42.5 17q26 0 43.5 -17.5t17.5 -43.5q0 -25 -17 -42 t-42 -17t-43.5 18t-18.5 43zM664 1235q0 25 17 42t42 17q26 0 43.5 -17.5t17.5 -43.5q0 -25 -17 -42t-42 -17t-43 18t-18 43z" />
<glyph unicode="&#xec;" horiz-adv-x="473" d="M45 18q0 19 23 19h122q29 0 29 29v817q0 28 -29 28h-122q-23 0 -23 19q0 18 23 18h172q28 0 28 -28v-854q0 -29 29 -29h113q22 0 22 -19q0 -18 -22 -18h-342q-23 0 -23 18zM86 1333q0 9 9.5 18t19.5 9q17 0 28 -19l138 -200q6 -9 6 -19q0 -9 -7 -15.5t-16 -6.5 q-11 0 -22 14l-146 195q-10 13 -10 24z" />
<glyph unicode="&#xed;" horiz-adv-x="473" d="M45 18q0 19 23 19h122q29 0 29 29v817q0 28 -29 28h-122q-23 0 -23 19q0 18 23 18h172q28 0 28 -28v-854q0 -29 29 -29h113q22 0 22 -19q0 -18 -22 -18h-342q-23 0 -23 18zM184 1122q0 10 6 19l142 205q12 18 26 18q12 0 21.5 -9t9.5 -20q0 -7 -10 -24l-150 -197 q-12 -12 -22 -12q-8 0 -15.5 6.5t-7.5 13.5z" />
<glyph unicode="&#xee;" horiz-adv-x="473" d="M-2 1122q0 7 8 19l195 227q18 23 37 23q18 0 36 -23l189 -225q10 -10 10 -21q0 -10 -8 -17t-19 -7t-20 12l-170 199q-10 12 -20 12q-11 0 -21 -12l-172 -199q-9 -12 -20 -12t-18 7t-7 17zM45 18q0 19 23 19h122q29 0 29 29v817q0 28 -29 28h-122q-23 0 -23 19q0 18 23 18 h172q28 0 28 -28v-854q0 -29 29 -29h113q22 0 22 -19q0 -18 -22 -18h-342q-23 0 -23 18z" />
<glyph unicode="&#xef;" horiz-adv-x="473" d="M45 18q0 19 23 19h122q29 0 29 29v817q0 28 -29 28h-122q-23 0 -23 19q0 18 23 18h172q28 0 28 -28v-854q0 -29 29 -29h113q22 0 22 -19q0 -18 -22 -18h-342q-23 0 -23 18zM53 1235q0 25 17.5 42t42.5 17q26 0 43.5 -17.5t17.5 -43.5q0 -25 -17 -42t-42 -17t-43.5 18 t-18.5 43zM299 1235q0 25 17 42t42 17q26 0 44 -17.5t18 -43.5q0 -25 -17.5 -42t-42.5 -17t-43 18t-18 43z" />
<glyph unicode="&#xf0;" horiz-adv-x="1058" d="M82 489q0 218 126 353t329 135q117 0 202.5 -44.5t151.5 -141.5q-43 184 -141 302t-271 195l-219 -143q-9 -6 -16 -6q-8 0 -14.5 6.5t-6.5 15.5t15 21l190 125q-131 42 -238 51q-25 2 -34 7.5t-9 18.5q0 11 7.5 16.5t19.5 4.5q64 -4 155 -24t148 -42l195 129q10 7 16 7 q8 0 14.5 -7t6.5 -16q0 -11 -15 -20l-170 -113q179 -84 267 -191q87 -104 136.5 -275t49.5 -368q0 -205 -86 -333q-125 -181 -356 -181q-114 0 -209.5 47t-151.5 129q-43 66 -67.5 157t-24.5 185zM133 496q0 -229 102.5 -356.5t288.5 -127.5q187 0 294.5 121t107.5 332 q0 223 -102 346t-287 123q-183 0 -293.5 -120t-110.5 -318z" />
<glyph unicode="&#xf1;" horiz-adv-x="1142" d="M37 18q0 19 22 19h129q29 0 29 29v817q0 28 -29 28h-129q-22 0 -22 19q0 18 22 18h179q28 0 28 -28v-154q99 211 338 211q76 0 143.5 -22t110.5 -60q86 -77 86 -244v-585q0 -29 29 -29h125q22 0 22 -19q0 -18 -22 -18h-365q-22 0 -22 18q0 19 22 19h133q29 0 29 29v583 q0 138 -77.5 212.5t-223.5 74.5q-152 0 -240 -95t-88 -261v-514q0 -29 29 -29h131q25 0 25 -19q0 -18 -25 -18h-367q-22 0 -22 18zM301 1153q5 80 51 131t113 51q37 0 70.5 -18t80.5 -62q53 -48 77 -62.5t50 -14.5q92 0 101 143q4 25 24 25q25 0 25 -35q0 -48 -31 -105 q-42 -76 -125 -76q-37 0 -65 15.5t-80 64.5q-45 42 -73.5 58t-57.5 16q-102 0 -111 -141q-4 -25 -24 -25q-12 0 -19 10t-6 25z" />
<glyph unicode="&#xf2;" horiz-adv-x="1058" d="M82 496q0 213 126.5 347t326.5 134q206 0 324 -134.5t118 -369.5q0 -230 -120.5 -366t-324.5 -136q-207 0 -328.5 141.5t-121.5 383.5zM133 496q0 -229 103 -356.5t288 -127.5q187 0 294.5 121t107.5 332q0 223 -102 346t-287 123q-182 0 -293 -120t-111 -318zM406 1333 q0 10 8.5 18.5t19.5 8.5q16 0 27 -19l137 -200q8 -8 8 -19q0 -9 -7.5 -15.5t-16.5 -6.5q-10 0 -21 14l-145 195q-10 13 -10 24z" />
<glyph unicode="&#xf3;" horiz-adv-x="1058" d="M82 496q0 213 126.5 347t326.5 134q206 0 324 -134.5t118 -369.5q0 -230 -120.5 -366t-324.5 -136q-207 0 -328.5 141.5t-121.5 383.5zM133 496q0 -229 103 -356.5t288 -127.5q187 0 294.5 121t107.5 332q0 223 -102 346t-287 123q-182 0 -293 -120t-111 -318zM489 1122 q0 10 9 19l139 205q13 18 29 18q10 0 19 -9t9 -20t-10 -24l-149 -197q-9 -12 -21 -12q-9 0 -17 6.5t-8 13.5z" />
<glyph unicode="&#xf4;" horiz-adv-x="1058" d="M82 496q0 213 126.5 347t326.5 134q206 0 324 -134.5t118 -369.5q0 -230 -120.5 -366t-324.5 -136q-207 0 -328.5 141.5t-121.5 383.5zM133 496q0 -229 103 -356.5t288 -127.5q187 0 294.5 121t107.5 332q0 223 -102 346t-287 123q-182 0 -293 -120t-111 -318zM303 1122 q0 9 10 19l195 227q18 23 37 23q17 0 35 -23l190 -225q10 -13 10 -21q0 -10 -7.5 -17t-18.5 -7t-23 12l-168 199q-10 12 -20 12q-13 0 -23 -12l-170 -199q-9 -12 -22 -12q-11 0 -18 7t-7 17z" />
<glyph unicode="&#xf5;" horiz-adv-x="1058" d="M82 496q0 213 126.5 347t326.5 134q206 0 324 -134.5t118 -369.5q0 -230 -120.5 -366t-324.5 -136q-207 0 -328.5 141.5t-121.5 383.5zM133 496q0 -229 103 -356.5t288 -127.5q187 0 294.5 121t107.5 332q0 223 -102 346t-287 123q-182 0 -293 -120t-111 -318zM242 1153 q5 80 51 131t113 51q37 0 70.5 -18t80.5 -62q53 -48 77 -62.5t50 -14.5q91 0 100 143q4 25 25 25q25 0 25 -35q0 -48 -31 -105q-42 -76 -125 -76q-37 0 -65.5 15.5t-80.5 64.5q-45 42 -73.5 58t-57.5 16q-101 0 -110 -141q-1 -11 -8.5 -18t-16.5 -7q-12 0 -19 10t-5 25z" />
<glyph unicode="&#xf6;" horiz-adv-x="1058" d="M82 496q0 213 126.5 347t326.5 134q206 0 324 -134.5t118 -369.5q0 -230 -120.5 -366t-324.5 -136q-207 0 -328.5 141.5t-121.5 383.5zM133 496q0 -229 103 -356.5t288 -127.5q187 0 294.5 121t107.5 332q0 223 -102 346t-287 123q-182 0 -293 -120t-111 -318zM270 1235 q0 25 17.5 42t42.5 17q26 0 43.5 -17.5t17.5 -43.5q0 -25 -17 -42t-42 -17t-43.5 18t-18.5 43zM666 1235q0 25 17 42t42 17q26 0 43.5 -17.5t17.5 -43.5q0 -25 -17 -42t-42 -17t-43 18t-18 43z" />
<glyph unicode="&#xf7;" d="M90 702q0 23 27 23h790q27 0 27 -23q0 -22 -27 -22h-790q-27 0 -27 22zM451 342q0 25 17 42t42 17q26 0 43.5 -17.5t17.5 -43.5q0 -25 -17 -42t-42 -17t-43 18t-18 43zM451 1065q0 25 17 42t42 17q26 0 43.5 -17.5t17.5 -43.5q0 -25 -17 -42t-42 -17t-43 18t-18 43z" />
<glyph unicode="&#xf8;" horiz-adv-x="1099" d="M90 -27q0 11 6 17l117 129q-111 142 -111 360q0 223 126 359.5t331 136.5q90 0 159 -27.5t144 -93.5l115 129q7 10 16 10q6 0 11.5 -5.5t5.5 -12.5q0 -8 -6 -14l-117 -136q58 -74 83 -155t25 -189q0 -238 -119 -375t-325 -137q-92 0 -166.5 29t-146.5 92l-113 -125 q-7 -10 -16 -10q-8 0 -13.5 5.5t-5.5 12.5zM154 483q0 -193 92 -327l583 661q-44 55 -117 85t-161 30q-181 0 -289 -122.5t-108 -326.5zM270 127q114 -117 281 -117q185 0 289 123.5t104 343.5q0 192 -88 311z" />
<glyph unicode="&#xf9;" horiz-adv-x="1126" d="M12 930q0 18 23 18h182q29 0 29 -28v-578q0 -170 70 -250t221 -80q190 0 276 125q59 85 59 291v455q0 28 -28 28h-135q-25 0 -25 19q0 18 25 18h184q29 0 29 -28v-854q0 -29 28 -29h137q23 0 23 -19q0 -18 -23 -18h-186q-29 0 -29 29v166q-69 -224 -335 -224 q-159 0 -248 80q-92 86 -92 291v541q0 28 -29 28h-133q-23 0 -23 19zM430 1333q0 10 9 18.5t20 8.5q15 0 26 -19l138 -200q8 -8 8 -19q0 -8 -8 -15t-17 -7t-20 14l-146 195q-10 13 -10 24z" />
<glyph unicode="&#xfa;" horiz-adv-x="1126" d="M12 930q0 18 23 18h182q29 0 29 -28v-578q0 -170 70 -250t221 -80q190 0 276 125q59 85 59 291v455q0 28 -28 28h-135q-25 0 -25 19q0 18 25 18h184q29 0 29 -28v-854q0 -29 28 -29h137q23 0 23 -19q0 -18 -23 -18h-186q-29 0 -29 29v166q-69 -224 -335 -224 q-159 0 -248 80q-92 86 -92 291v541q0 28 -29 28h-133q-23 0 -23 19zM510 1122q0 11 8 19l139 205q10 18 27 18q12 0 21.5 -9t9.5 -20q0 -7 -10 -24l-150 -197q-9 -12 -23 -12q-8 0 -15 6.5t-7 13.5z" />
<glyph unicode="&#xfb;" horiz-adv-x="1126" d="M12 930q0 18 23 18h182q29 0 29 -28v-578q0 -170 70 -250t221 -80q190 0 276 125q59 85 59 291v455q0 28 -28 28h-135q-25 0 -25 19q0 18 25 18h184q29 0 29 -28v-854q0 -29 28 -29h137q23 0 23 -19q0 -18 -23 -18h-186q-29 0 -29 29v166q-69 -224 -335 -224 q-159 0 -248 80q-92 86 -92 291v541q0 28 -29 28h-133q-23 0 -23 19zM324 1122q0 6 10 19l194 227q18 23 35 23q19 0 37 -23l191 -225q10 -10 10 -21q0 -10 -8 -17t-19 -7q-13 0 -22 12l-168 199q-10 12 -23 12q-10 0 -20 -12l-170 -199q-12 -12 -23 -12q-10 0 -17 7t-7 17z " />
<glyph unicode="&#xfc;" horiz-adv-x="1126" d="M12 930q0 18 23 18h182q29 0 29 -28v-578q0 -170 70 -250t221 -80q190 0 276 125q59 85 59 291v455q0 28 -28 28h-135q-25 0 -25 19q0 18 25 18h184q29 0 29 -28v-854q0 -29 28 -29h137q23 0 23 -19q0 -18 -23 -18h-186q-29 0 -29 29v166q-69 -224 -335 -224 q-159 0 -248 80q-92 86 -92 291v541q0 28 -29 28h-133q-23 0 -23 19zM303 1235q0 25 17 42t42 17q26 0 44 -17.5t18 -43.5q0 -25 -17 -42t-42 -17t-43.5 18t-18.5 43zM700 1235q0 25 17.5 42t42.5 17q26 0 43.5 -17.5t17.5 -43.5q0 -25 -17 -42t-42 -17t-43.5 18t-18.5 43z " />
<glyph unicode="&#xfd;" horiz-adv-x="1099" d="M6 930q0 18 23 18h309q22 0 22 -18q0 -19 -22 -19h-113q-28 0 -28 -22q0 -11 4 -17l360 -815l352 817l5 15q0 22 -31 22h-115q-22 0 -22 19q0 18 22 18h297q23 0 23 -18q0 -19 -23 -19h-70q-20 0 -28 -18l-459 -1059q-50 -116 -101 -159.5t-137 -43.5q-51 0 -104 17 q-16 3 -16 20q0 9 6 16t14 7q10 0 35 -10q41 -9 65 -9q66 0 111 39t82 129l61 144q4 10 4 14q0 2 -4 14l-391 881q-10 18 -28 18h-80q-23 0 -23 19zM535 1122q0 7 8 19l139 205q13 18 29 18q10 0 19 -9t9 -20t-10 -24l-149 -197q-9 -12 -21 -12q-9 0 -16.5 6t-7.5 14z" />
<glyph unicode="&#xfe;" horiz-adv-x="1134" d="M20 -328q0 19 23 19h127q29 0 29 28v1581q0 29 -29 29h-127q-23 0 -23 19q0 18 23 18h176q29 0 29 -29v-606q47 126 135 186t225 60q207 0 326 -133.5t119 -366.5q0 -230 -119 -368t-318 -138q-263 0 -368 267v-519q0 -28 28 -28h127q23 0 23 -19q0 -18 -23 -18h-360 q-23 0 -23 18zM248 483q0 -132 28 -218.5t91 -151.5q95 -99 241 -99q179 0 286 126t107 337q0 216 -105 336.5t-294 120.5q-173 0 -263.5 -115t-90.5 -336z" />
<glyph unicode="&#xff;" horiz-adv-x="1099" d="M6 930q0 18 23 18h309q22 0 22 -18q0 -19 -22 -19h-113q-28 0 -28 -22q0 -11 4 -17l360 -815l352 817l5 15q0 22 -31 22h-115q-22 0 -22 19q0 18 22 18h297q23 0 23 -18q0 -19 -23 -19h-70q-20 0 -28 -18l-459 -1059q-50 -116 -101 -159.5t-137 -43.5q-51 0 -104 17 q-16 3 -16 20q0 9 6 16t14 7q10 0 35 -10q41 -9 65 -9q66 0 111 39t82 129l61 144q4 10 4 14q0 2 -4 14l-391 881q-10 18 -28 18h-80q-23 0 -23 19zM291 1235q0 25 17 42t42 17q26 0 44 -17.5t18 -43.5q0 -25 -17.5 -42t-42.5 -17t-43 18t-18 43zM686 1235q0 25 17 42t42 17 q26 0 44 -17.5t18 -43.5q0 -25 -17 -42t-42 -17t-43.5 18t-18.5 43z" />
<glyph unicode="&#x152;" horiz-adv-x="1910" d="M96 692q0 324 165.5 506t459.5 182q36 0 270 -12q25 -2 56 -2h694q26 0 26 -29v-348q0 -31 -22 -31q-11 0 -18 9t-7 22v307q0 29 -28 29h-598q-29 0 -29 -29v-561q0 -28 29 -28h280q29 0 29 28v195q0 28 24 28q23 0 23 -28v-481q0 -29 -23 -29q-24 0 -24 29v186 q0 29 -29 29h-280q-29 0 -29 -29v-563q0 -29 29 -29h610q31 0 31 29v317q0 31 22 31q11 0 18 -9t7 -22v-360q0 -29 -29 -29h-694q-230 -14 -295 -14q-292 0 -449 133q-106 89 -162.5 236.5t-56.5 336.5zM152 688q0 -197 60.5 -343t174.5 -224q136 -92 377 -92q57 0 136.5 5 t94.5 9q17 3 17 27v1228q0 17 -8 23t-33 6q-4 0 -16 1t-34 3t-42 4q-71 6 -138 6q-286 0 -437.5 -168t-151.5 -485z" />
<glyph unicode="&#x153;" horiz-adv-x="1660" d="M82 475q0 219 118.5 357.5t305.5 138.5q173 0 276 -125q43 -50 86 -164q35 138 128 212.5t231 74.5q98 0 173.5 -39t119.5 -111q32 -54 45.5 -122t13.5 -181v-12q0 -29 -29 -29h-630q-17 0 -23 -7.5t-6 -27.5q0 -195 91 -307.5t251 -112.5q126 0 201 78q62 62 75 142 q6 32 12.5 42.5t18.5 10.5t19.5 -8.5t7.5 -22.5q0 -30 -19 -74.5t-49 -83.5q-43 -60 -116 -93.5t-158 -33.5q-135 0 -233 81.5t-130 220.5q-59 -154 -151 -226.5t-228 -72.5q-180 0 -290.5 136t-110.5 359zM133 479q0 -201 97 -328.5t251 -127.5q78 0 152.5 38.5 t120.5 102.5q86 118 86 317q0 217 -89 333t-255 116q-158 0 -260.5 -127t-102.5 -324zM893 541q0 -29 29 -29h577q15 0 22 7.5t7 25.5q0 88 -23 182q-23 91 -99.5 146t-180.5 55q-92 0 -169 -46t-112 -122q-20 -44 -35.5 -110t-15.5 -109z" />
<glyph unicode="&#x178;" horiz-adv-x="1249" d="M14 1346q0 20 27 20h360q25 0 25 -20q0 -9 -7 -15t-18 -6h-145q-12 0 -20.5 -6.5t-8.5 -15.5q0 -7 6 -19l396 -661l397 661q6 9 6 19q0 9 -8 15.5t-20 6.5h-146q-10 0 -17 6t-7 15q0 20 24 20h352q27 0 27 -20q0 -9 -7.5 -15t-19.5 -6h-88q-12 0 -17 -3t-11 -13 l-437 -727q-6 -10 -6 -23v-487q0 -29 29 -29h205q24 0 24 -20q0 -23 -24 -23h-520q-27 0 -27 23q0 20 27 20h204q29 0 29 29v487q0 13 -6 23l-434 727q-9 16 -29 16h-88q-12 0 -19.5 6t-7.5 15zM367 1604q0 25 17 42t42 17q26 0 43.5 -17.5t17.5 -43.5q0 -25 -17 -42.5 t-42 -17.5t-43 18.5t-18 43.5zM762 1604q0 25 17 42t42 17q26 0 44 -17.5t18 -43.5q0 -25 -17.5 -42.5t-42.5 -17.5t-43 18.5t-18 43.5z" />
<glyph unicode="&#x2c6;" d="M274 1122q0 6 9 19l194 227q18 23 37 23t37 -23l188 -225q11 -11 11 -21t-8 -17t-19 -7q-12 0 -21 12l-170 199q-10 12 -20 12t-20 -12l-173 -199q-9 -12 -20 -12t-18 7t-7 17z" />
<glyph unicode="&#x2dc;" d="M217 1153q5 80 51 131t113 51q37 0 70.5 -18t80.5 -62q53 -48 77 -62.5t50 -14.5q92 0 101 143q4 25 24 25q25 0 25 -35q0 -48 -31 -105q-42 -76 -125 -76q-37 0 -65 15.5t-80 64.5q-45 42 -73.5 58t-57.5 16q-102 0 -111 -141q-4 -25 -24 -25q-12 0 -19 10t-6 25z" />
<glyph unicode="&#x2000;" horiz-adv-x="900" />
<glyph unicode="&#x2001;" horiz-adv-x="1800" />
<glyph unicode="&#x2002;" horiz-adv-x="900" />
<glyph unicode="&#x2003;" horiz-adv-x="1800" />
<glyph unicode="&#x2004;" horiz-adv-x="600" />
<glyph unicode="&#x2005;" horiz-adv-x="450" />
<glyph unicode="&#x2006;" horiz-adv-x="300" />
<glyph unicode="&#x2007;" horiz-adv-x="300" />
<glyph unicode="&#x2008;" horiz-adv-x="225" />
<glyph unicode="&#x2009;" horiz-adv-x="360" />
<glyph unicode="&#x200a;" horiz-adv-x="100" />
<glyph unicode="&#x2010;" horiz-adv-x="442" d="M0 496q0 22 27 22h389q26 0 26 -20q0 -23 -26 -23h-389q-12 0 -19.5 6t-7.5 15z" />
<glyph unicode="&#x2011;" horiz-adv-x="442" d="M0 496q0 22 27 22h389q26 0 26 -20q0 -23 -26 -23h-389q-12 0 -19.5 6t-7.5 15z" />
<glyph unicode="&#x2012;" horiz-adv-x="442" d="M0 496q0 22 27 22h389q26 0 26 -20q0 -23 -26 -23h-389q-12 0 -19.5 6t-7.5 15z" />
<glyph unicode="&#x2013;" d="M90 496q0 22 27 22h790q27 0 27 -20q0 -23 -27 -23h-790q-12 0 -19.5 6t-7.5 15z" />
<glyph unicode="&#x2014;" horiz-adv-x="1318" d="M0 498q0 20 27 20h1265q27 0 27 -20q0 -23 -27 -23h-1265q-27 0 -27 23z" />
<glyph unicode="&#x2018;" horiz-adv-x="436" d="M141 1102q0 118 80 237q39 54 49 54q6 0 11.5 -5.5t5.5 -11.5t-8 -14q-97 -118 -97 -209q0 -35 21 -35q8 0 14 2t12 2q20 0 35 -17t15 -42q0 -29 -19 -49.5t-47 -20.5q-33 0 -52.5 29.5t-19.5 79.5z" />
<glyph unicode="&#x2019;" horiz-adv-x="774" d="M291 1001q0 4 8 15q41 47 65.5 101t24.5 97q0 19 -4 26t-14 7q-9 0 -15 -2t-12 -2q-20 0 -33.5 16t-13.5 39q0 29 17.5 48.5t43.5 19.5q33 0 51.5 -27.5t18.5 -76.5q0 -117 -76 -226q-34 -51 -45 -51q-6 0 -11 5t-5 11z" />
<glyph unicode="&#x201a;" horiz-adv-x="774" d="M289 -246q0 4 8 15q41 47 65.5 100t24.5 96q0 19 -4 26t-14 7q-9 0 -15 -2t-12 -2q-20 0 -33.5 16t-13.5 39q0 29 17.5 48.5t43.5 19.5q32 0 51 -28t19 -75q0 -116 -76 -225q-34 -51 -45 -51q-6 0 -11 5t-5 11z" />
<glyph unicode="&#x201c;" horiz-adv-x="653" d="M152 1102q0 119 79 237q39 54 50 54q6 0 11 -5.5t5 -11.5t-8 -14q-96 -116 -96 -209q0 -35 20 -35q8 0 14 2t13 2q20 0 34.5 -17t14.5 -42q0 -29 -19 -49.5t-47 -20.5q-32 0 -51.5 29t-19.5 80zM356 1102q0 118 80 237q39 54 49 54q6 0 11.5 -5.5t5.5 -11.5t-8 -14 q-97 -118 -97 -209q0 -35 21 -35q8 0 14 2t12 2q20 0 35 -17t15 -42q0 -29 -19 -49.5t-47 -20.5q-33 0 -52.5 29.5t-19.5 79.5z" />
<glyph unicode="&#x201d;" horiz-adv-x="653" d="M152 995q0 7 8 15q96 116 96 211q0 20 -4.5 27t-15.5 7q-9 0 -15 -2t-14 -2q-20 0 -34.5 17.5t-14.5 42.5q0 29 18.5 49t46.5 20q34 0 54 -28.5t20 -79.5q0 -121 -80 -240q-39 -53 -49 -53q-6 0 -11 5t-5 11zM356 995q0 6 9 15q96 116 96 211q0 34 -21 34q-8 0 -14 -2 t-14 -2q-20 0 -35 17.5t-15 42.5q0 29 19 49t47 20q34 0 54 -28.5t20 -79.5q0 -121 -80 -240q-39 -53 -49 -53q-6 0 -11.5 5t-5.5 11z" />
<glyph unicode="&#x201e;" horiz-adv-x="653" d="M152 -254q0 6 8 14q96 116 96 209q0 20 -4 27.5t-16 7.5h-15q-6 -2 -14 -2q-20 0 -34.5 17t-14.5 40q0 29 18.5 49.5t46.5 20.5q34 0 54 -29t20 -80q0 -118 -80 -237q-39 -53 -49 -53q-6 0 -11 5t-5 11zM356 -254q0 5 9 14q96 116 96 209q0 20 -4.5 27.5t-16.5 7.5h-14 q-6 -2 -14 -2q-20 0 -35 17t-15 40q0 29 19 49.5t47 20.5q34 0 54 -29t20 -80q0 -118 -80 -237q-39 -53 -49 -53q-6 0 -11.5 5t-5.5 11z" />
<glyph unicode="&#x2022;" horiz-adv-x="1366" d="M401 692q0 120 83.5 202.5t203.5 82.5q115 0 198 -83.5t83 -199.5q0 -118 -83 -201t-200 -83q-118 0 -201.5 82.5t-83.5 199.5z" />
<glyph unicode="&#x2026;" horiz-adv-x="1179" d="M129 61q0 28 19 47t47 19q29 0 48 -19.5t19 -48.5q0 -26 -19.5 -45.5t-45.5 -19.5q-28 0 -48 19.5t-20 47.5zM522 61q0 28 19 47t47 19q29 0 48 -19.5t19 -48.5q0 -26 -19.5 -45.5t-45.5 -19.5q-28 0 -48 19.5t-20 47.5zM915 61q0 28 19 47t47 19q29 0 48.5 -19.5 t19.5 -48.5q0 -26 -20 -45.5t-46 -19.5q-28 0 -48 19.5t-20 47.5z" />
<glyph unicode="&#x202f;" horiz-adv-x="360" />
<glyph unicode="&#x2039;" horiz-adv-x="415" d="M84 496q0 6 4 14l164 389q10 19 22 19q8 0 14.5 -6t6.5 -15q0 -10 -2 -14l-160 -387l160 -387q2 -4 2 -15q0 -9 -6.5 -14.5t-14.5 -5.5q-13 0 -22 18l-164 389q-4 8 -4 15z" />
<glyph unicode="&#x203a;" horiz-adv-x="415" d="M121 94q0 7 4 15l158 387l-158 387q-4 12 -4 14q0 8 6.5 14.5t15.5 6.5q15 0 21 -19l166 -389q2 -4 2 -14q0 -9 -2 -15l-166 -389q-6 -18 -21 -18q-9 0 -15.5 6t-6.5 14z" />
<glyph unicode="&#x205f;" horiz-adv-x="450" />
<glyph unicode="&#x20ac;" horiz-adv-x="1400" d="M92 639q0 23 27 23h94v43h-94q-27 0 -27 22q0 23 27 23h94q15 239 115 391q80 119 204 184.5t269 65.5q110 0 211 -41.5t166 -112.5q26 -31 41.5 -59t35.5 -82v241q0 29 23 29q25 0 25 -29v-424q0 -28 -25 -28q-14 0 -19 9.5t-6 39.5q-6 178 -134 293.5t-320 115.5 q-230 0 -371 -157.5t-158 -435.5h801q27 0 27 -23q0 -22 -27 -22h-803v-7v-36h766q27 0 27 -23t-27 -23h-764q17 -275 160 -434t373 -159q186 0 310 109t138 282q3 37 29 37q13 0 21 -8.5t8 -22.5q0 -61 -29.5 -137.5t-73.5 -130.5q-69 -85 -174 -131t-231 -46 q-187 0 -326 98.5t-207 278.5q-42 109 -53 264h-96q-27 0 -27 23z" />
<glyph unicode="&#x2122;" horiz-adv-x="1867" d="M68 1161v189q0 28 28 28h596q29 0 29 -28v-189q0 -26 -21 -26q-20 0 -20 26v152q0 28 -29 28h-205q-28 0 -28 -28v-660q0 -28 28 -28h101q22 0 22 -19q0 -18 -22 -18h-305q-23 0 -23 18q0 19 23 19h102q29 0 29 28v660q0 28 -29 28h-207q-28 0 -28 -28v-152 q0 -26 -21 -26q-20 0 -20 26zM788 606q0 19 23 19h78q29 0 29 28v660q0 28 -29 28h-78q-23 0 -23 19q0 18 23 18h182l303 -741l303 741h177q22 0 22 -18q0 -19 -22 -19h-76q-29 0 -29 -28v-660q0 -28 29 -28h76q22 0 22 -19q0 -18 -22 -18h-246q-23 0 -23 18q0 19 23 19h67 q29 0 29 28v682l-311 -747h-41l-311 745v-680q0 -28 28 -28h64q24 0 24 -19q0 -18 -24 -18h-244q-23 0 -23 18z" />
<glyph unicode="&#xe000;" horiz-adv-x="952" d="M0 0v952h952v-952h-952z" />
</font>
</defs>
</svg>
