<?xml version="1.0" standalone="no"?>
<!DOCTYPE svg PUBLIC "-//W3C//DTD SVG 1.1//EN" "http://www.w3.org/Graphics/SVG/1.1/DTD/svg11.dtd" >
<svg xmlns="http://www.w3.org/2000/svg">
<metadata></metadata>
<defs>
<font id="typewriter_urwXLtOb" horiz-adv-x="1024" >
<font-face units-per-em="2048" ascent="1366" descent="-682" />
<missing-glyph horiz-adv-x="512" />
<glyph unicode="&#xfb01;" horiz-adv-x="1026" d="M-98 14q0 9 8 16t18 7h125q26 0 35 29l172 817q2 4 2 10q0 18 -24 18h-144q-18 0 -18 15q0 9 7.5 15.5t18.5 6.5h144q29 0 35 29l4 16q25 116 49.5 176t68.5 111q46 54 118 83.5t157 29.5q114 0 178 -56.5t64 -156.5q0 -68 -33 -68q-9 0 -15 6t-6 15l2 47q0 54 -32 102 q-22 32 -66.5 51t-101.5 19q-72 0 -135.5 -28t-100.5 -75q-33 -40 -54 -93t-40 -140l-8 -39l-2 -10q0 -19 24 -19h498q24 0 24 -16q0 -6 -2 -12l-182 -854v-11q3 -18 25 -18h119q18 0 18 -14q0 -23 -27 -23h-327q-19 0 -19 14q0 9 7.5 16t19.5 7h100q29 0 35 29l174 817 q2 6 2 10q0 18 -24 18h-449q-29 0 -35 -28l-172 -817q-2 -4 -2 -11q0 -18 25 -18h119q20 0 20 -14q0 -10 -8.5 -16.5t-20.5 -6.5h-348q-20 0 -20 14z" />
<glyph unicode="&#xfb02;" horiz-adv-x="1032" d="M-100 14q0 9 8 16t18 7h127q26 0 35 29l172 817q2 4 2 10q0 18 -24 18h-142q-20 0 -20 15q0 9 8 15.5t20 6.5h142q29 0 35 29l2 8q26 125 52 191.5t66 109.5q99 105 310 105q63 0 133.5 -8.5t107.5 -20.5q15 -3 15 -16q0 -7 -2 -13l-269 -1267q-2 -4 -2 -11q0 -18 25 -18 h119q20 0 20 -14q0 -23 -29 -23h-342q-20 0 -20 14q0 9 8.5 16t20.5 7h116q29 0 35 29l262 1234l2 13q1 11 -24.5 20t-71 14t-102.5 5q-179 0 -256 -68t-117 -260l-10 -47l-2 -10q0 -19 24 -19h185q20 0 20 -14q0 -10 -8.5 -16.5t-20.5 -6.5h-184q-29 0 -35 -28l-174 -817 v-11q0 -18 25 -18h119q20 0 20 -14q0 -10 -8.5 -16.5t-20.5 -6.5h-350q-20 0 -20 14z" />
<glyph horiz-adv-x="2048" />
<glyph horiz-adv-x="2048" />
<glyph unicode="&#xd;" horiz-adv-x="2048" />
<glyph unicode=" "  horiz-adv-x="512" />
<glyph unicode="&#x09;" horiz-adv-x="512" />
<glyph unicode="&#xa0;" horiz-adv-x="512" />
<glyph unicode="!" horiz-adv-x="421" d="M10 47q0 31 25 54.5t57 23.5q23 0 39 -14.5t16 -36.5q0 -31 -24.5 -55.5t-56.5 -24.5q-24 0 -40 15t-16 38zM111 291v10l196 1036q3 16 10.5 22.5t24.5 6.5h25q24 0 24 -18q0 -7 -2 -11l-239 -1036q-3 -25 -25 -25q-14 0 -14 15z" />
<glyph unicode="&#x22;" horiz-adv-x="581" d="M242 1018v8l49 309q5 31 35 31h18q25 0 25 -16q0 -9 -2 -15l-84 -309q-6 -25 -25 -25q-16 0 -16 17zM444 1026l50 309q1 17 9 24t25 7h19q24 0 24 -16l-2 -15l-84 -309q-6 -25 -24 -25q-9 0 -14 7t-3 18z" />
<glyph unicode="#" d="M35 549q0 12 9.5 19t23.5 7h223l98 256h-215q-22 0 -22 19q0 12 9 19.5t23 7.5h224l180 464q9 25 28 25q9 0 15 -5t6 -11q0 -5 -4 -17l-178 -456h256l180 464q9 25 29 25q9 0 14.5 -5t5.5 -11q0 -5 -4 -17l-178 -456h215q22 0 22 -19q0 -11 -9.5 -19t-22.5 -8h-222 l-100 -256h215q23 0 23 -18q0 -12 -9.5 -19.5t-23.5 -7.5h-221l-199 -505q-9 -25 -29 -25q-7 0 -12.5 5t-5.5 11q0 5 4 17l192 497h-253l-199 -505q-9 -25 -29 -25q-7 0 -12.5 5t-5.5 11q0 5 4 17l192 497h-215q-22 0 -22 19zM338 575h256l98 256h-254z" />
<glyph unicode="$" d="M-53 18q0 9 2 13l86 403q7 33 31 33q20 0 20 -21q0 -1 -8 -67q-2 -14 -2 -45q0 -91 39.5 -167.5t105.5 -113.5q57 -29 137 -39l142 666q-26 8 -58 22q-103 43 -145.5 67t-73.5 56q-57 60 -57 152q0 112 77.5 219t196.5 158q48 19 89.5 27t121.5 12l37 178q6 26 29 26 q18 0 18 -16v-10l-39 -178q248 -27 291 -256l43 198q6 31 31 31q7 0 12.5 -5t5.5 -13v-13l-84 -393q-6 -31 -30 -31q-9 0 -15 5.5t-6 13.5q0 11 6 41q11 43 11 76q0 252 -275 299l-131 -621q46 -15 131 -51q120 -51 165.5 -103.5t45.5 -138.5q0 -130 -77 -244t-202 -170 q-88 -42 -223 -45l-35 -163q-6 -29 -28 -29q-8 0 -13.5 5.5t-5.5 12.5v11l35 163q-120 2 -207 81.5t-96 197.5l-45 -221q-7 -31 -33 -31q-20 0 -20 18zM223 991q0 -100 96 -166q44 -32 193 -88l129 611q-149 0 -256 -76q-71 -51 -116.5 -129.5t-45.5 -151.5zM403 14 q171 9 287 99q68 54 110 137t42 164q0 85 -62.5 138t-236.5 116z" />
<glyph unicode="%" horiz-adv-x="1376" d="M135 858q0 95 27.5 204.5t68.5 180.5q89 146 236 146q86 0 133 -50.5t47 -144.5q0 -97 -30.5 -215t-73.5 -182q-87 -135 -230 -135q-85 0 -131.5 51t-46.5 145zM178 860q0 -77 38.5 -120.5t107.5 -43.5q124 0 200 142q31 57 56.5 167.5t25.5 188.5q0 72 -39.5 116 t-105.5 44q-132 0 -209 -158q-31 -65 -52.5 -162t-21.5 -174zM182 14q0 8 8 19l965 1319q8 14 21 14q16 0 16 -14q0 -11 -8 -19l-963 -1319q-11 -14 -22 -14q-17 0 -17 14zM727 174q0 99 31 213.5t76 183.5q86 134 227 134q85 0 132.5 -51t47.5 -142q0 -94 -28 -206.5 t-68 -180.5q-86 -148 -238 -148q-86 0 -133 51.5t-47 145.5zM770 182q0 -80 38 -125t105 -45q139 0 213 158q28 59 51 163t23 171q0 77 -38.5 121.5t-104.5 44.5q-128 0 -203 -140q-34 -61 -59 -165.5t-25 -182.5z" />
<glyph unicode="&#x26;" horiz-adv-x="1505" d="M12 281q0 103 54.5 198.5t154.5 165.5q93 66 238 123q-93 124 -122.5 183.5t-29.5 125.5q0 128 114 223t269 95q118 0 191 -60.5t73 -158.5q0 -125 -111.5 -239.5t-297.5 -178.5l356 -473q63 73 94.5 118.5t65.5 110.5q27 54 55.5 132t28.5 99q0 13 -17 13h-122 q-23 0 -23 16q0 11 9 18t22 7h360q21 0 21 -17q0 -10 -8.5 -17t-20.5 -7h-143q-15 0 -20.5 -10.5t-24.5 -73.5q-82 -246 -250 -424l147 -197q10 -10 25 -10h182q23 0 23 -16q0 -12 -8.5 -19.5t-22.5 -7.5h-217q-17 0 -25 10l-147 199q-252 -240 -527 -240 q-157 0 -251.5 85.5t-94.5 226.5zM72 281q0 -121 83 -195t218 -74q119 0 243.5 59.5t239.5 170.5l-373 491q-147 -58 -229 -119q-88 -66 -135 -152.5t-47 -180.5zM352 1087q0 -59 29 -111t137 -188q389 149 389 377q0 85 -62.5 137t-162.5 52q-135 0 -232.5 -79t-97.5 -188z " />
<glyph unicode="'" horiz-adv-x="378" d="M242 1018v8l49 309q5 31 35 31h18q25 0 25 -16q0 -9 -2 -15l-84 -309q-6 -25 -25 -25q-16 0 -16 17z" />
<glyph unicode="(" horiz-adv-x="526" d="M31 225q0 231 77 457.5t226 431.5q82 113 142 182.5t75 69.5q14 0 14 -14q0 -6 -4 -11.5t-26 -29.5q-80 -86 -166.5 -214t-139.5 -239q-149 -315 -149 -631q0 -289 121 -528q8 -16 8 -23q0 -9 -7.5 -15.5t-15.5 -6.5q-7 0 -12.5 7t-17.5 34q-125 265 -125 530z" />
<glyph unicode=")" horiz-adv-x="526" d="M-111 -332q0 6 4 11t27 30q81 87 167.5 215.5t137.5 237.5q150 317 150 631q0 286 -121 528q-8 16 -8 22q0 9 7 16t15 7t13.5 -7.5t17.5 -33.5q125 -265 125 -532q0 -462 -303 -887q-183 -252 -217 -252q-15 0 -15 14z" />
<glyph unicode="*" d="M254 1100q0 12 10.5 22.5t22.5 10.5q7 0 14 -5l203 -79q40 -15 43 -15q13 0 18 8.5t10 38.5l48 252q7 33 34 33q9 0 15 -5t6 -13q0 -11 -2 -15l-62 -252q-6 -27 -6 -30q0 -6 5.5 -11.5t11.5 -5.5q5 0 43 10l243 80q6 2 17 2q18 0 18 -20q0 -25 -31 -31l-249 -65 q-35 -9 -43.5 -14.5t-8.5 -18.5q0 -6 25 -51l96 -174q6 -9 6 -17q0 -12 -10 -21t-22 -9q-13 0 -23 16l-82 186q-19 37 -23.5 43t-11.5 6q-9 0 -16 -5.5t-35 -35.5l-172 -190q-13 -16 -29 -16q-9 0 -15.5 6.5t-6.5 15.5q0 13 14 27l183 178q30 28 35 35t5 16t-6.5 13 t-42.5 16l-209 63q-20 6 -20 21z" />
<glyph unicode="+" d="M94 698q0 12 9.5 19.5t23.5 7.5h371l77 371q6 28 31 28q19 0 19 -18v-10l-80 -371h370q25 0 25 -18q0 -12 -9.5 -19.5t-23.5 -7.5h-370l-80 -371q-6 -28 -31 -28q-8 0 -13 5.5t-5 12.5q0 6 2 10l77 371h-370q-23 0 -23 18z" />
<glyph unicode="," horiz-adv-x="393" d="M-35 -258q0 6 10 16q65 62 104.5 125t39.5 105q0 14 -17 14q-8 0 -14 -2q-4 -2 -12 -2q-17 0 -28 12t-11 31q0 34 25 60t57 26q26 0 40.5 -17.5t14.5 -48.5q0 -52 -31.5 -123t-81.5 -131q-66 -79 -84 -79q-12 0 -12 14z" />
<glyph unicode="-" horiz-adv-x="442" d="M-41 492q0 12 8.5 19t22.5 7h391q22 0 22 -16q0 -12 -9 -19.5t-23 -7.5h-389q-23 0 -23 17z" />
<glyph unicode="." horiz-adv-x="393" d="M-4 47q0 31 25 54.5t57 23.5q23 0 39 -14.5t16 -36.5q0 -31 -25 -55.5t-57 -24.5q-23 0 -39 15t-16 38z" />
<glyph unicode="/" horiz-adv-x="1083" d="M-295 -328q0 8 10 21l1338 1659q14 14 26 14q8 0 13.5 -5.5t5.5 -12.5t-11 -21l-1339 -1659q-11 -14 -24 -14q-8 0 -13.5 5.5t-5.5 12.5z" />
<glyph unicode="0" d="M49 344q0 176 62.5 414.5t142.5 369.5q79 129 185 196t229 67q151 0 230 -90.5t79 -260.5q0 -188 -56.5 -412t-140.5 -368q-165 -285 -415 -285q-149 0 -232.5 97.5t-83.5 271.5zM104 350q0 -153 71 -240t196 -87q240 0 389 299q65 128 113.5 341.5t48.5 370.5 q0 149 -69 229t-198 80q-114 0 -212.5 -72t-168.5 -208q-65 -125 -117.5 -345.5t-52.5 -367.5z" />
<glyph unicode="1" d="M190 16q0 12 8.5 19.5t22.5 7.5h170q29 0 35 29l250 1169q6 27 6 45q0 10 -6 10q-7 0 -166 -118q-69 -52 -128 -88.5t-71 -36.5q-7 0 -12.5 6t-5.5 14q0 11 8.5 18.5t46.5 30.5q166 100 250 166q62 48 87.5 63t41.5 15q21 0 21 -23q0 -2 -1 -5t-2 -8.5t-2 -10.5 l-264 -1247q-2 -4 -2 -11q0 -18 25 -18h160q22 0 22 -16q0 -12 -8.5 -19.5t-22.5 -7.5h-440q-23 0 -23 16z" />
<glyph unicode="2" d="M-51 16q0 7 2 11l4 26q3 12 10.5 20.5t34.5 30.5q165 145 305 271q203 179 285 254q137 120 198.5 185.5t94.5 129.5q47 83 47 182q0 104 -67.5 160.5t-192.5 56.5q-146 0 -257 -90t-149 -241q-9 -37 -37 -37q-22 0 -22 22q0 26 31.5 94t64.5 113q140 187 383 187 q145 0 225 -66t80 -186q0 -181 -141 -328q-61 -64 -197 -187.5t-497 -441.5q-17 -16 -71 -65t-83 -76h725q29 0 35 29l35 161q6 29 30 29q19 0 19 -18q0 -7 -2 -11l-43 -202q-6 -29 -35 -29h-791q-24 0 -24 16z" />
<glyph unicode="3" d="M31 268q0 68 10 96.5t33 28.5q22 0 22 -20v-8q-10 -102 -10 -105q0 -26 23.5 -79t46.5 -79q34 -37 89.5 -58t119.5 -21q170 0 292.5 123.5t122.5 293.5q0 102 -71.5 165t-188.5 63q-52 1 -64 5t-12 19q0 12 13 25q6 5 16.5 6t67.5 2q160 6 264 112t104 261 q0 114 -71 179.5t-193 65.5q-77 0 -149.5 -26.5t-124.5 -73.5q-42 -37 -78.5 -94.5t-50.5 -108.5q-10 -32 -35 -32q-9 0 -16 5.5t-7 14.5q0 23 24.5 75t55.5 95q66 92 166.5 142.5t220.5 50.5q147 0 230.5 -73t83.5 -202q0 -149 -93 -267.5t-227 -143.5q-22 -3 -22 -7 q0 -3 18 -8q92 -23 145.5 -90.5t53.5 -159.5q0 -124 -66.5 -231.5t-179.5 -170.5t-244 -63q-142 0 -230.5 81t-88.5 212z" />
<glyph unicode="4" d="M-20 475q0 26 26 49l830 830q12 12 28 12h29q25 0 25 -18q0 -5 -3 -11l-176 -831l-2 -10q0 -19 25 -19h164q22 0 22 -18q0 -11 -8.5 -18t-21.5 -7h-164q-29 0 -35 -28l-72 -334l-2 -11q0 -18 25 -18h143q21 0 21 -18q0 -11 -9 -18t-22 -7h-420q-21 0 -21 16 q0 12 8.5 19.5t22.5 7.5h170q29 0 35 29l72 334v10q-3 18 -23 18h-616q-51 0 -51 41zM23 477h661l180 842z" />
<glyph unicode="5" d="M53 262q0 56 8.5 78t30.5 22q21 0 21 -20v-6q-3 -20 -5.5 -40t-4 -29.5t-1.5 -10.5q0 -25 19 -71.5t39 -71.5q68 -90 217 -90q131 0 240 72t172 197t63 275q0 121 -77 192.5t-208 71.5q-117 0 -213.5 -59.5t-150.5 -163.5q-14 -28 -37 -28q-22 0 -25 22q0 12 2 16 l181 721q6 27 34 27h654q20 0 20 -16q0 -11 -9 -18t-22 -7h-604q-26 0 -35 -29l-155 -624q55 95 155 148.5t222 53.5q149 0 236 -79.5t87 -214.5q0 -167 -71.5 -306t-196 -219t-274.5 -80q-143 0 -227.5 77.5t-84.5 209.5z" />
<glyph unicode="6" d="M39 315q0 133 62 361.5t139 376.5q174 338 475 338q133 0 205.5 -68.5t72.5 -194.5q0 -41 -8.5 -58t-28.5 -17t-20 20l2 64q0 33 -13.5 71.5t-33.5 63.5q-58 71 -189 71t-245 -87.5t-187 -245.5q-74 -160 -131 -381q86 127 186 185t234 58q157 0 242.5 -83t85.5 -234 q0 -101 -33.5 -201t-93.5 -180q-74 -97 -176.5 -148t-223.5 -51q-155 0 -238 88.5t-83 251.5zM92 315q0 -142 72 -217t207 -75q116 0 211.5 55t160.5 158q88 144 88 307q0 136 -74.5 211t-209.5 75q-195 0 -325 -147t-130 -367z" />
<glyph unicode="7" d="M156 23q0 25 334 518t505 721q27 34 27 45q0 18 -25 18h-702q-26 0 -35 -29l-39 -184q-3 -27 -26 -27q-19 0 -19 17v10l47 225q9 29 37 29h807q25 0 25 -18q0 -5 -2 -9l-5 -24l-6 -21q-37 -54 -227 -321q-142 -199 -218 -310t-216 -325q-28 -44 -60 -94t-71 -110t-60 -93 q-18 -25 -26.5 -33t-20.5 -8q-10 0 -17 7t-7 16z" />
<glyph unicode="8" d="M31 274q0 171 114 297q53 59 109.5 91.5t142.5 54.5q-100 25 -151 88t-51 160q0 183 135.5 304.5t339.5 121.5q147 0 234 -68t87 -182q0 -80 -32 -160t-89 -141q-49 -51 -97.5 -77.5t-125.5 -45.5q80 -20 123 -58q40 -37 63 -91.5t23 -112.5q0 -129 -66.5 -239.5 t-181 -175.5t-248.5 -65q-155 0 -242 79t-87 220zM86 293q0 -127 75.5 -198.5t209.5 -71.5q182 0 307 125.5t125 308.5q0 114 -76.5 177.5t-210.5 63.5q-183 0 -306.5 -116.5t-123.5 -288.5zM248 965q0 -109 73.5 -169.5t206.5 -60.5q175 0 291.5 112t116.5 279 q0 100 -75 158.5t-204 58.5q-178 0 -293.5 -107t-115.5 -271z" />
<glyph unicode="9" d="M31 242q0 75 39 75q20 0 20 -22v-8q-2 -23 -2 -49q0 -100 63.5 -157.5t172.5 -57.5q131 0 243 86.5t187 246.5q37 78 75.5 190.5t55.5 192.5q-51 -75 -90.5 -114t-94.5 -70q-107 -61 -235 -61q-155 0 -241.5 83t-86.5 234q0 101 33.5 201t93.5 180q74 97 176.5 148 t223.5 51q155 0 238 -88t83 -252q0 -134 -62.5 -363t-138.5 -375q-177 -338 -475 -338q-72 0 -130 22t-89 62q-59 72 -59 183zM193 823q0 -135 74.5 -210.5t207.5 -75.5q196 0 326.5 147t130.5 367q0 142 -72 217t-207 75q-117 0 -212.5 -54.5t-159.5 -158.5 q-88 -144 -88 -307z" />
<glyph unicode=":" horiz-adv-x="393" d="M-4 47q0 31 25 54.5t57 23.5q23 0 39 -14.5t16 -36.5q0 -31 -25 -55.5t-57 -24.5q-23 0 -39 15t-16 38zM172 877q0 30 25.5 53.5t56.5 23.5q25 0 41 -14.5t16 -36.5q0 -31 -26 -55.5t-58 -24.5q-23 0 -39 15.5t-16 38.5z" />
<glyph unicode=";" horiz-adv-x="393" d="M-72 -258q0 5 11 16q65 62 104 124.5t39 105.5q0 14 -16 14q-9 0 -15 -2q-4 -2 -12 -2q-17 0 -28 12t-11 31q0 34 25 60t57 26q26 0 40.5 -17.5t14.5 -48.5q0 -52 -31 -123t-81 -131q-66 -79 -84 -79q-5 0 -9 4t-4 10zM176 877q0 31 25 54t57 23q23 0 39 -14.5t16 -36.5 q0 -31 -25 -55.5t-57 -24.5q-23 0 -39 15.5t-16 38.5z" />
<glyph unicode="&#x3c;" d="M63 657l11 50l968 385l-10 -52l-907 -358l756 -356l-11 -52z" />
<glyph unicode="=" d="M61 549q0 12 9.5 19t23.5 7h789q24 0 24 -18q0 -12 -9.5 -19.5t-23.5 -7.5h-790q-23 0 -23 19zM125 850q0 12 9.5 19.5t23.5 7.5h788q25 0 25 -19q0 -11 -10 -19t-23 -8h-788q-25 0 -25 19z" />
<glyph unicode="&#x3e;" d="M-16 274l10 52l907 356l-754 358l11 52l805 -385l-11 -50z" />
<glyph unicode="?" horiz-adv-x="903" d="M172 1036q0 42 49 131q63 109 163.5 166.5t227.5 57.5q145 0 226.5 -71.5t81.5 -197.5q0 -116 -59 -211t-191 -192l-64 -47q-120 -85 -167.5 -158t-76.5 -219q-6 -29 -34 -29q-9 0 -15 6t-6 15q0 10 23 104q33 116 96 189q23 26 44 43.5t122 93.5l57 43q111 83 161 167.5 t50 186.5q0 114 -64.5 174t-187.5 60q-286 0 -379 -304q-9 -30 -34 -30q-23 0 -23 22zM217 47q0 31 25 54.5t57 23.5q23 0 39 -14.5t16 -36.5q0 -31 -25.5 -55.5t-58.5 -24.5q-22 0 -37.5 15t-15.5 38z" />
<glyph unicode="@" horiz-adv-x="1591" d="M55 424q0 139 58.5 281.5t161.5 262.5t234 214.5t286 148t307 53.5q203 0 325.5 -106t122.5 -283q0 -236 -196 -454q-94 -104 -189 -151.5t-211 -47.5h-49q-24 0 -24 16q0 5 4 17l20 53l2 6q0 4 -6 4q-2 0 -53 -41q-40 -34 -105 -54.5t-131 -20.5q-104 0 -158.5 47.5 t-54.5 138.5q0 74 32.5 164.5t84.5 163.5q70 98 172 153t213 55q73 0 116 -24.5t68 -81.5q3 -6 9 -6q9 0 12 12l22 55q8 25 35 25h119q21 0 21 -16q0 -10 -8.5 -17.5t-20.5 -7.5h-80q-25 0 -33 -25l-211 -542q-4 -4 -4 -15q0 -7 5.5 -12.5t13.5 -5.5h6q101 0 179.5 39 t160.5 129q87 97 136.5 213t49.5 221q0 158 -111 253t-296 95q-119 0 -241 -36t-229 -98t-202 -149t-163 -185.5t-107 -210t-39 -220.5q0 -190 122.5 -295.5t343.5 -105.5q103 0 219 20t193 51q47 19 55 19q9 0 15 -5.5t6 -13.5q0 -20 -25 -32q-100 -41 -226.5 -65.5 t-240.5 -24.5q-246 0 -381 115.5t-135 326.5zM453 524q0 -78 45 -118.5t133 -40.5q203 0 317 198q46 78 73.5 160.5t27.5 142.5q0 135 -162 135q-97 0 -182 -46.5t-146 -133.5q-49 -68 -77.5 -148.5t-28.5 -148.5z" />
<glyph unicode="A" horiz-adv-x="1398" d="M-127 16q0 12 8.5 19.5t22.5 7.5h65q21 0 33 20l780 1270q26 45 66 45q36 0 45 -45l237 -1270q2 -12 7 -16t18 -4h70q20 0 20 -16q0 -12 -8.5 -19.5t-22.5 -7.5h-333q-21 0 -21 16q0 12 8.5 19.5t22.5 7.5h145q19 0 26 8.5t7 28.5l-80 428q-1 12 -6.5 16t-17.5 4h-603 q-22 0 -34 -20l-260 -428q-9 -12 -9 -21q0 -16 25 -16h145q23 0 23 -16q0 -12 -8.5 -19.5t-22.5 -7.5h-325q-23 0 -23 16zM383 588q0 -19 25 -19h528q15 0 25 8t10 21v8l-123 672q-4 24 -7 28.5t-12 4.5q-7 0 -11 -4t-19 -29l-408 -672q-8 -11 -8 -18z" />
<glyph unicode="B" horiz-adv-x="1239" d="M-68 16q0 12 8.5 19.5t22.5 7.5h146q28 0 34 29l260 1224l3 11q0 18 -25 18h-145q-23 0 -23 16q0 11 9 18t22 7h600q168 0 248 -57q96 -69 96 -199q0 -92 -48 -183.5t-122 -138.5q-62 -43 -158 -73q104 -37 146 -66q81 -57 81 -186q0 -205 -155 -338q-59 -51 -121 -77 t-156 -38q-68 -10 -110 -10h-590q-23 0 -23 16zM195 61q0 -18 24 -18h281q166 0 275 42.5t175 131.5q80 110 80 234q0 109 -76 167q-46 37 -117.5 52.5t-195.5 15.5h-285q-28 0 -34 -29l-125 -585zM342 748q3 -19 23 -19h284q277 0 395 145q86 103 86 222q0 104 -63 161 q-41 37 -108 52.5t-183 15.5h-284q-29 0 -35 -29l-115 -538v-10z" />
<glyph unicode="C" horiz-adv-x="1290" d="M72 459q0 190 64 374.5t173 307.5q104 119 242.5 184.5t284.5 65.5q103 0 191.5 -38t139.5 -104q26 -33 38.5 -65.5t19.5 -87.5l53 241q1 13 9.5 21t19.5 8q7 0 12.5 -5t5.5 -13v-11l-90 -424q-6 -28 -31 -28q-18 0 -18 18q0 15 4 31q6 50 6 74q0 151 -103 243t-272 92 q-148 0 -282 -72t-228 -202q-84 -115 -134 -279.5t-50 -326.5q0 -203 112.5 -321.5t305.5 -118.5q186 0 332.5 108t199.5 283q11 37 37 37q9 0 16 -6t7 -15q0 -23 -25 -80t-55 -102q-86 -128 -225.5 -200.5t-299.5 -72.5q-214 0 -337 130t-123 354z" />
<glyph unicode="D" horiz-adv-x="1431" d="M-70 16q0 12 8.5 19.5t22.5 7.5h148q28 0 34 29l260 1224v11q-3 18 -22 18h-148q-22 0 -22 16q0 11 9 18t22 7h497q179 0 277 -25.5t182 -93.5q160 -130 160 -368q0 -184 -74.5 -363t-200.5 -301q-119 -113 -269 -164t-365 -51h-496q-23 0 -23 16zM195 61q0 -18 24 -18 h232q218 0 376.5 64.5t272.5 199.5q94 113 147 262t53 301q0 210 -137 332q-75 66 -175 94.5t-257 28.5h-239q-29 0 -35 -29l-260 -1224q-2 -4 -2 -11z" />
<glyph unicode="E" horiz-adv-x="1226" d="M-70 16q0 12 8.5 19.5t22.5 7.5h148q28 0 34 29l260 1224q3 6 3 11q0 18 -25 18h-148q-22 0 -22 16q0 11 9 18t22 7h964q20 0 23 -16v-13l-74 -350q-6 -29 -31 -29q-7 0 -12.5 5.5t-5.5 13.5v10l65 309q3 6 3 11q0 18 -25 18h-657q-29 0 -35 -29l-117 -548v-11 q0 -18 25 -18h364q29 0 35 29l39 182q6 28 31 28q8 0 13 -5t5 -13q0 -6 -2 -10l-102 -479q-6 -29 -31 -29q-7 0 -13 5t-6 11q0 7 2 13l43 198v10q-3 19 -22 19h-367q-29 0 -35 -29l-122 -577l-2 -11q-1 -9 5.5 -13.5t18.5 -4.5h668q29 0 35 29l67 319q6 31 31 31 q7 0 12.5 -5.5t5.5 -13.5t-2 -12l-75 -362q-9 -29 -35 -29h-973q-23 0 -23 16z" />
<glyph unicode="F" horiz-adv-x="1118" d="M-70 16q0 12 8.5 19.5t22.5 7.5h148q28 0 34 29l260 1224q3 6 3 11q0 18 -25 18h-148q-22 0 -22 16q0 11 9 18t22 7h925q25 0 25 -16q0 -9 -2 -13l-74 -346q-1 -13 -9.5 -20.5t-19.5 -7.5q-18 0 -18 18v10l66 305v11q-3 18 -23 18h-620q-29 0 -35 -29l-121 -569v-10 q0 -19 24 -19h353q29 0 35 29l36 174q6 29 31 29q7 0 13 -6t6 -13q0 -4 -3 -10l-96 -452q-6 -29 -30 -29q-8 0 -13.5 5.5t-5.5 12.5t2 11l39 180v10q0 18 -25 18h-352q-29 0 -35 -28l-118 -557v-11q3 -18 22 -18h207q23 0 23 -16q0 -12 -8.5 -19.5t-22.5 -7.5h-465 q-23 0 -23 16z" />
<glyph unicode="G" horiz-adv-x="1456" d="M72 477q0 178 69 362t183 310q103 117 244.5 179.5t301.5 62.5q220 0 338 -115q33 -35 50 -66.5t30 -87.5l45 215q6 29 31 29q8 0 13 -5t5 -13q0 -7 -2 -11l-90 -422q-3 -28 -28 -28q-7 0 -13 5t-6 11q0 9 4 25q8 62 8 98q0 151 -101.5 234t-285.5 83q-166 0 -305 -67.5 t-237 -196.5q-89 -117 -143 -278.5t-54 -313.5q0 -250 172 -372q131 -92 293 -92q170 0 317 97.5t203 246.5q14 44 34.5 132.5t20.5 110.5q0 19 -24 19h-205q-22 0 -22 16q0 11 8.5 18t21.5 7h434q23 0 23 -17q0 -10 -8.5 -17t-22.5 -7h-114q-29 0 -35 -29l-121 -569 q-6 -31 -31 -31q-7 0 -12.5 5t-5.5 13v13l49 229q-44 -69 -85.5 -109.5t-107.5 -80.5q-151 -95 -329 -95q-232 0 -371 136.5t-139 365.5z" />
<glyph unicode="H" horiz-adv-x="1490" d="M-70 16q0 12 8.5 19.5t22.5 7.5h148q28 0 34 29l260 1224l3 11q0 18 -25 18h-148q-22 0 -22 16q0 11 9 18t22 7h415q21 0 21 -16q0 -11 -9 -18t-22 -7h-155q-29 0 -35 -29l-117 -553l-2 -10q0 -18 24 -18h783q29 0 35 28l116 553l2 11q0 18 -24 18h-148q-22 0 -22 16 q0 11 9 18t22 7h403q23 0 23 -16q0 -11 -9 -18t-22 -7h-146q-28 0 -34 -29l-260 -1224l-3 -11q0 -18 25 -18h145q21 0 21 -16q0 -12 -8.5 -19.5t-22.5 -7.5h-403q-21 0 -21 16q0 12 8.5 19.5t22.5 7.5h147q29 0 35 29l121 573q2 4 2 10q0 19 -24 19h-781q-29 0 -35 -29 l-122 -573l-2 -11q0 -18 24 -18h156q22 0 22 -16q0 -12 -8.5 -19.5t-21.5 -7.5h-414q-23 0 -23 16z" />
<glyph unicode="I" horiz-adv-x="626" d="M-72 16q0 12 8.5 19.5t22.5 7.5h162q29 0 35 29l260 1224q2 4 2 11q0 18 -25 18h-162q-22 0 -22 16q0 11 9 18t22 7h434q20 0 20 -16q0 -11 -8.5 -18t-21.5 -7h-160q-29 0 -35 -29l-260 -1224l-2 -11q0 -18 24 -18h160q23 0 23 -16q0 -12 -8.5 -19.5t-22.5 -7.5h-432 q-23 0 -23 16z" />
<glyph unicode="J" horiz-adv-x="970" d="M-41 225q0 83 21 172q10 33 34 33q23 0 23 -20q0 -7 -8 -50q-11 -57 -11 -133q0 -99 55 -151.5t158 -52.5q156 0 252 96q50 47 76 105t51 175l191 897l2 11q0 18 -25 18h-182q-21 0 -21 16q0 11 9 18t22 7h420q23 0 23 -16q0 -11 -9 -18t-22 -7h-129q-29 0 -35 -29 l-190 -895q-28 -130 -60 -197.5t-92 -121.5q-55 -51 -132.5 -79t-162.5 -28q-126 0 -192 64t-66 186z" />
<glyph unicode="K" horiz-adv-x="1220" d="M-68 16q0 12 8.5 19.5t22.5 7.5h143q28 0 37 29l260 1224v11q0 18 -24 18h-143q-23 0 -23 16q0 11 9 18t22 7h395q23 0 23 -16q0 -11 -9 -18t-22 -7h-139q-29 0 -35 -29l-121 -559l739 543q31 22 31 31q0 14 -37 14h-84q-20 0 -20 16q0 11 8.5 18t21.5 7h293q21 0 21 -16 q0 -10 -8.5 -17.5t-20.5 -7.5h-63q-15 0 -27 -10l-772 -570q-17 -14 -17 -26q0 -8 9 -17l538 -649q8 -10 23 -10h47q22 0 22 -16q0 -12 -8.5 -19.5t-21.5 -7.5h-285q-23 0 -23 16q0 12 8.5 19.5t22.5 7.5h86q43 0 43 14q0 12 -16 31l-514 621l-135 -637q-2 -4 -2 -11 q0 -18 24 -18h139q21 0 21 -16q0 -12 -8.5 -19.5t-20.5 -7.5h-395q-23 0 -23 16z" />
<glyph unicode="L" horiz-adv-x="1118" d="M-72 16q0 12 8.5 19.5t22.5 7.5h147q28 0 37 29l260 1224v11q0 18 -24 18h-148q-22 0 -22 16q0 11 9 18t22 7h467q22 0 22 -16q0 -11 -9 -18t-22 -7h-206q-29 0 -35 -29l-260 -1224q-2 -4 -2 -11q0 -18 24 -18h619q28 0 34 29l68 321q6 29 31 29q18 0 18 -19q0 -6 -2 -10 l-76 -364q-6 -29 -34 -29h-926q-23 0 -23 16z" />
<glyph unicode="M" horiz-adv-x="1828" d="M-74 16q0 12 8.5 19.5t22.5 7.5h164q28 0 37 29l260 1224v11q0 18 -25 18h-164q-22 0 -22 16q0 11 9 18t22 7h280q13 0 18.5 -3.5t8.5 -14.5l137 -758q4 -23 98 -541q44 70 84 137q42 67 248 406l459 756q13 18 35 18h272q20 0 20 -16q0 -11 -8.5 -18t-21.5 -7h-162 q-29 0 -35 -29l-260 -1224l-2 -11q0 -18 25 -18h161q23 0 23 -16q0 -12 -8.5 -19.5t-22.5 -7.5h-422q-20 0 -20 16q0 12 8.5 19.5t22.5 7.5h147q21 0 26.5 9t16.5 57l260 1220h-12l-799 -1296q-20 -33 -47 -33t-33 33l-246 1292h-12l-268 -1255v-9q1 -10 6.5 -14t17.5 -4 h142q20 0 20 -16q0 -12 -8 -19.5t-20 -7.5h-418q-23 0 -23 16z" />
<glyph unicode="N" horiz-adv-x="1497" d="M-76 16q0 12 8.5 19.5t22.5 7.5h154q25 0 34 29l260 1224v11q0 18 -22 18h-154q-22 0 -22 16q0 11 9 18t22 7h245q31 0 43 -25l516 -1235q6 -16 9 -23t4.5 -8t3.5 -1q12 0 20 43l250 1179l2 11q0 18 -24 18h-164q-23 0 -23 16q0 11 9 18t22 7h405q23 0 23 -16 q0 -11 -9 -18t-22 -7h-131q-29 0 -35 -29l-264 -1239q-8 -38 -18.5 -52.5t-32.5 -14.5q-37 0 -57 49l-514 1216q-13 29 -23 29q-8 0 -16 -12.5t-11 -30.5l-247 -1169q-2 -4 -2 -11q0 -18 24 -18h160q20 0 20 -16q0 -12 -8.5 -19.5t-21.5 -7.5h-422q-23 0 -23 16z" />
<glyph unicode="O" horiz-adv-x="1411" d="M70 444q0 171 53.5 345.5t144.5 297.5q106 143 261.5 223.5t328.5 80.5q221 0 354.5 -128.5t133.5 -342.5q0 -159 -54.5 -335t-142.5 -304q-98 -141 -257.5 -223.5t-336.5 -82.5q-221 0 -353 127.5t-132 341.5zM127 449q0 -194 119.5 -310t320.5 -116q177 0 325.5 86 t240.5 243q73 126 114 272.5t41 282.5q0 203 -117 319.5t-321 116.5q-178 0 -327.5 -85t-241.5 -240q-70 -115 -112 -269.5t-42 -299.5z" />
<glyph unicode="P" horiz-adv-x="1126" d="M-66 16q0 12 8.5 19.5t22.5 7.5h144q28 0 34 29l260 1224v11q-3 18 -22 18h-143q-23 0 -23 16q0 11 9 18t22 7h479q141 0 218 -19t120 -65q72 -75 72 -203q0 -90 -35 -175t-99 -152q-76 -81 -182 -112.5t-303 -31.5h-178q-29 0 -35 -28l-106 -508q-2 -4 -2 -11 q0 -18 24 -18h187q20 0 20 -16q0 -12 -8.5 -19.5t-22.5 -7.5h-438q-23 0 -23 16zM324 668q0 -19 24 -19h178q183 0 287.5 36t173.5 124q90 117 90 262q0 117 -65 182q-40 38 -108.5 55t-186.5 17h-225q-29 0 -35 -29l-131 -618q-2 -4 -2 -10z" />
<glyph unicode="Q" horiz-adv-x="1374" d="M78 485q0 181 58.5 351.5t164.5 296.5q101 122 250 190t313 68q218 0 339.5 -126t121.5 -352q0 -134 -39 -274t-110 -264q-94 -157 -240 -256q-87 -59 -143 -74q-9 -3 -9 -6q0 -4 11 -4h8q63 8 160 8h256q22 0 22 -16q0 -12 -8.5 -19.5t-22.5 -7.5h-448q-7 0 -47 -4 q-143 -14 -217 -14q-91 0 -175 37.5t-139 103.5q-106 130 -106 362zM133 487q0 -219 106.5 -337.5t303.5 -118.5q165 0 308 80t241 227q83 122 129.5 271.5t46.5 289.5q0 211 -110.5 327.5t-309.5 116.5q-162 0 -305 -73.5t-236 -206.5q-83 -117 -128.5 -268t-45.5 -308z " />
<glyph unicode="R" horiz-adv-x="1294" d="M-80 16q0 12 8.5 19.5t22.5 7.5h158q28 0 34 29l260 1224v11q-3 18 -22 18h-158q-22 0 -22 16q0 11 8.5 18t21.5 7h523q135 0 216 -20.5t130 -67.5q71 -65 71 -182q0 -102 -50 -197.5t-134 -155.5q-36 -26 -78.5 -42t-122.5 -35q84 -17 119 -72t49 -191l41 -340 q1 -12 7 -16t18 -4h100q21 0 21 -16q0 -12 -8.5 -19.5t-22.5 -7.5h-131q-23 0 -30 6.5t-9 28.5l-39 354q-12 112 -32 158t-66 71q-64 33 -199 33h-256q-29 0 -35 -28l-116 -551q-2 -4 -2 -11q0 -18 24 -18h160q22 0 22 -16q0 -12 -8.5 -19.5t-21.5 -7.5h-428q-23 0 -23 16z M332 711q-1 -9 5.5 -14t18.5 -5h256q157 0 248 30t152 103q100 115 100 254q0 129 -88 187.5t-283 58.5h-249q-29 0 -35 -29l-123 -575z" />
<glyph unicode="S" horiz-adv-x="1069" d="M-31 18q0 7 2 11l82 391q6 31 33 31q8 0 13 -6t5 -15q0 -6 -2 -14q-6 -40 -6 -80q0 -141 87 -227t231 -86q118 0 219.5 53t161 143t59.5 195q0 78 -48.5 127.5t-170.5 95.5l-162 61q-165 63 -226 122.5t-61 156.5q0 108 65 203.5t174.5 153t233.5 57.5q82 0 154 -27 t117 -76q28 -28 42.5 -59t28.5 -88l43 196q1 13 9.5 21t19.5 8q8 0 13.5 -5.5t5.5 -12.5v-11l-82 -387q-6 -28 -31 -28q-7 0 -12.5 5t-5.5 13q0 6 6 39q6 30 6 68q0 135 -87 215.5t-233 80.5q-163 0 -286 -108t-123 -250q0 -78 59.5 -131.5t198.5 -103.5l164 -60 q126 -44 185.5 -109t59.5 -157q0 -76 -35.5 -156.5t-95.5 -142.5q-69 -72 -164.5 -111t-201.5 -39q-287 0 -351 267l-45 -213q-6 -29 -30 -29q-19 0 -19 18z" />
<glyph unicode="T" horiz-adv-x="1222" d="M133 979q0 6 2 10l74 348q6 29 35 29h1028q12 0 19 -5t5 -11l-2 -13l-73 -348q-6 -28 -31 -28q-19 0 -19 18q0 4 3 10l63 307q2 4 2 11q0 18 -25 18h-409q-29 0 -35 -29l-260 -1224q-2 -4 -2 -11q0 -18 24 -18h205q21 0 21 -16q0 -12 -8.5 -19.5t-22.5 -7.5h-520 q-23 0 -23 18q0 11 9 18t22 7h207q29 0 35 29l260 1224v11q-3 18 -23 18h-413q-26 0 -35 -29l-64 -307q-6 -28 -30 -28q-19 0 -19 18z" />
<glyph unicode="U" horiz-adv-x="1454" d="M190 332q0 78 23 196l164 768l2 11q1 9 -6 13.5t-19 4.5h-135q-22 0 -22 16q0 11 8.5 18t21.5 7h412q20 0 20 -16q0 -11 -8.5 -18t-21.5 -7h-164q-29 0 -35 -29l-164 -766q-20 -97 -20 -188q0 -66 23.5 -127t66.5 -102q90 -90 264 -90q207 0 347 130t192 373l164 770v11 q0 18 -23 18h-166q-20 0 -20 16q0 11 8.5 18t21.5 7h400q22 0 22 -16q0 -11 -8.5 -18t-21.5 -7h-132q-28 0 -34 -29l-164 -772q-26 -121 -62.5 -200.5t-97.5 -147.5q-174 -201 -440 -201q-208 0 -310 117q-86 99 -86 240z" />
<glyph unicode="V" horiz-adv-x="1390" d="M154 1341q0 11 8.5 18t21.5 7h379q23 0 23 -16q0 -11 -9 -18t-22 -7h-174q-15 0 -26 -9t-9 -20l2 -8l141 -856q25 -151 31 -209q7 -66 13 -101t12 -48t14 -13q12 0 30.5 28t76.5 134l120 207l504 858q6 9 6 21q0 16 -24 16h-168q-21 0 -21 16q0 11 9 18t22 7h383 q21 0 21 -16q0 -10 -8.5 -17.5t-20.5 -7.5h-103q-22 0 -34 -20l-727 -1233q-45 -80 -86 -80q-35 0 -47 80l-203 1233q-1 12 -7 16t-18 4h-88q-22 0 -22 16z" />
<glyph unicode="W" horiz-adv-x="1828" d="M154 1341q0 11 8.5 18t21.5 7h375q21 0 21 -16q0 -10 -8.5 -17.5t-20.5 -7.5h-176q-35 0 -35 -35l37 -1149q0 -49 12 -49q13 0 35 49l567 1151q21 40 38 57t38 17q33 0 39 -74l78 -1151q3 -51 14 -51q10 0 33 51l528 1149q6 12 6 19q0 16 -24 16h-178q-21 0 -21 16 q0 11 9 18t22 7h360q23 0 23 -16q0 -11 -9 -18t-22 -7h-80q-24 0 -35 -22l-561 -1227q-15 -32 -35.5 -54t-35.5 -22q-34 0 -41 76l-78 1165q-3 49 -15 49q-9 0 -34 -49l-576 -1165q-36 -76 -72 -76q-33 0 -36 76l-39 1227q0 13 -5.5 17.5t-19.5 4.5h-86q-22 0 -22 16z" />
<glyph unicode="X" horiz-adv-x="1454" d="M-127 16q0 12 8.5 19.5t22.5 7.5h100q17 0 31 12l643 635q12 12 12 25q0 2 -4 14l-346 586q-10 12 -25 12h-100q-20 0 -20 14q0 11 8 18t20 7h379q21 0 21 -16q0 -10 -8.5 -17.5t-20.5 -7.5h-139q-15 0 -25 -8t-10 -19q0 -4 4 -16l303 -508q9 -12 18 -12q11 0 25 14 l514 506q14 14 14 25q0 18 -24 18h-135q-21 0 -21 16q0 11 9 18t22 7h364q23 0 23 -16q0 -11 -9 -18t-22 -7h-100q-17 0 -29 -12l-592 -584q-14 -14 -14 -24q0 -7 6 -15l375 -635q7 -12 25 -12h104q20 0 20 -16q0 -12 -8.5 -19.5t-21.5 -7.5h-398q-20 0 -20 16 q0 12 8.5 19.5t22.5 7.5h155q13 0 23 8t10 19q0 4 -4 16l-332 557q-8 14 -18 14q-11 0 -25 -14l-567 -557q-12 -12 -12 -25q0 -18 24 -18h156q22 0 22 -16q0 -12 -8.5 -19.5t-21.5 -7.5h-389q-23 0 -23 16z" />
<glyph unicode="Y" horiz-adv-x="1249" d="M154 1341q0 11 8.5 18t21.5 7h361q20 0 20 -16q0 -11 -8.5 -18t-21.5 -7h-144q-15 0 -25 -8.5t-10 -20.5l4 -12l252 -661l541 661q10 17 10 23q0 18 -24 18h-146q-20 0 -20 16q0 11 9 18t22 7h350q22 0 22 -16q0 -11 -8.5 -18t-21.5 -7h-89q-12 0 -17.5 -2.5t-14.5 -13.5 l-590 -727q-7 -9 -12 -23l-103 -487q-2 -4 -2 -11q0 -18 25 -18h205q20 0 20 -16q0 -12 -8.5 -19.5t-22.5 -7.5h-520q-20 0 -20 16q0 12 8.5 19.5t21.5 7.5h205q29 0 35 29l102 487q2 2 2 10l-2 13l-280 727q-7 16 -25 16h-88q-22 0 -22 16z" />
<glyph unicode="Z" horiz-adv-x="1236" d="M-43 31q0 17 7.5 28t37.5 43l1153 1180q16 16 16 25q0 18 -28 18h-801q-29 0 -35 -29l-65 -305q-6 -28 -31 -28q-7 0 -12.5 5.5t-5.5 12.5q0 6 2 10l73 346q6 29 35 29h920q28 0 28 -27q0 -25 -24 -53l-1176 -1200q-16 -19 -16 -27q0 -16 28 -16h852q29 0 35 29l70 323 q6 31 31 31q7 0 12.5 -5t5.5 -13q0 -7 -2 -13l-78 -366q-6 -29 -35 -29h-960q-37 0 -37 31z" />
<glyph unicode="[" horiz-adv-x="526" d="M-25 -330q0 9 2 13l351 1654q6 29 34 29h156q23 0 23 -16q0 -11 -9 -18t-22 -7h-111q-28 0 -34 -29l-334 -1572v-11q3 -18 22 -18h111q22 0 22 -17q0 -11 -8.5 -17.5t-21.5 -6.5h-156q-25 0 -25 16z" />
<glyph unicode="\" horiz-adv-x="1083" d="M266 1339q0 10 9 18.5t20 8.5q10 0 16 -14l635 -1659q2 -4 2 -12q0 -10 -8.5 -18.5t-19.5 -8.5t-17 14l-635 1659q-2 6 -2 12z" />
<glyph unicode="]" horiz-adv-x="526" d="M-86 -330q0 11 9 18t22 7h110q29 0 35 29l334 1572v11q-3 18 -23 18h-110q-23 0 -23 16q0 11 9 18t22 7h156q24 0 24 -16q0 -7 -2 -13l-352 -1654q-6 -29 -35 -29h-153q-23 0 -23 16z" />
<glyph unicode="^" d="M115 803l510 563h63l273 -563h-62l-252 526l-473 -526h-59z" />
<glyph unicode="_" d="M-190 -215l10 47h1024l-10 -47h-1024z" />
<glyph unicode="`" d="M500 1327q0 12 12 22.5t25 10.5t22 -19l94 -200q2 -4 2 -15q0 -10 -8.5 -18t-19.5 -8t-19 14l-102 195q-6 9 -6 18z" />
<glyph unicode="a" horiz-adv-x="1062" d="M-8 193q0 77 38.5 151t104.5 123q72 54 175 75t292 21q104 0 139 -4h19q16 0 26 14q6 11 17.5 84t11.5 103q0 78 -68 126t-178 48q-144 0 -241.5 -58.5t-132.5 -166.5q-12 -31 -33 -31q-9 0 -16 5.5t-7 12.5q0 38 46 102t100 101q116 78 288 78q136 0 215.5 -57 t79.5 -154q0 -72 -18 -160l-117 -540v-11q0 -18 23 -18h110q21 0 21 -14q0 -9 -8.5 -16t-20.5 -7h-158q-24 0 -24 16q0 9 2 13l39 186q-93 -136 -189.5 -190t-248.5 -54q-137 0 -212 58t-75 164zM45 197q0 -89 66 -137t190 -48q275 0 408 254q12 23 36.5 116.5t24.5 115.5 q0 9 -10 16q-5 2 -93.5 5t-144.5 3q-236 0 -354 -86q-123 -91 -123 -239z" />
<glyph unicode="b" horiz-adv-x="1144" d="M-121 14q0 9 8 16t19 7h141q29 0 35 29l262 1234v11q-3 18 -22 18h-142q-18 0 -18 14q0 23 26 23h189q24 0 24 -16q0 -9 -2 -13l-127 -602q89 126 190.5 184t233.5 58q163 0 252.5 -88t89.5 -246q0 -120 -37.5 -243t-101.5 -214q-150 -215 -424 -215q-133 0 -209 60 t-104 186l-39 -188q-6 -29 -35 -29h-188q-21 0 -21 14zM190 276q0 -64 33 -126t86 -97q62 -41 166 -41q265 0 406 234q102 172 102 370q0 154 -78 236t-225 82q-119 0 -220.5 -61t-168.5 -173q-35 -59 -68 -195.5t-33 -228.5z" />
<glyph unicode="c" horiz-adv-x="1009" d="M18 309q0 133 50 269t133 231q71 80 168.5 124t205.5 44q121 0 197.5 -54.5t99.5 -156.5l31 149q6 29 29 29q18 0 18 -18v-11l-65 -299q-1 -13 -9.5 -20.5t-19.5 -7.5q-20 0 -20 22q0 17 2 27q4 36 4 51q0 117 -71.5 181.5t-199.5 64.5q-226 0 -376 -211 q-57 -82 -89 -184.5t-32 -206.5q0 -154 76 -236t217 -82q134 0 237 66t146 180q12 34 20 43.5t23 9.5q9 0 15.5 -5.5t6.5 -14.5q0 -22 -18.5 -60t-46.5 -73q-146 -189 -381 -189q-167 0 -259 88.5t-92 249.5z" />
<glyph unicode="d" horiz-adv-x="1146" d="M23 322q0 184 75 334t206 235.5t292 85.5q129 0 209.5 -55.5t105.5 -161.5l115 540v11q0 18 -22 18h-127q-19 0 -19 14q0 23 27 23h174q24 0 24 -16q0 -9 -2 -13l-268 -1271q-2 -4 -2 -11q0 -18 25 -18h125q20 0 20 -14q0 -10 -8.5 -16.5t-20.5 -6.5h-174q-24 0 -24 16 q0 7 2 13l39 180q-144 -238 -424 -238q-169 0 -258.5 90.5t-89.5 260.5zM74 319q0 -149 79 -228t228 -79q280 0 403 250q34 68 65.5 203t31.5 213q0 115 -80.5 185.5t-212.5 70.5q-109 0 -206.5 -46t-166.5 -130q-63 -77 -102 -198t-39 -241z" />
<glyph unicode="e" horiz-adv-x="1034" d="M20 317q0 133 48.5 266.5t130.5 225.5q148 168 389 168q161 0 251.5 -90.5t90.5 -251.5q0 -40 -7 -88t-14 -58q-8 -14 -30 -14h-758q-25 0 -31 -14q-7 -13 -13.5 -56.5t-6.5 -80.5q0 -151 84 -231.5t241 -80.5q137 0 233.5 61.5t159.5 188.5q12 21 29 21q8 0 14.5 -6 t6.5 -13q0 -23 -37.5 -77t-81.5 -95q-130 -121 -334 -121q-180 0 -272.5 88t-92.5 258zM106 530q0 -18 25 -18h703q25 0 32.5 23.5t7.5 97.5q0 144 -79 223.5t-222 79.5q-140 0 -248 -72t-171 -207q-17 -35 -32.5 -76t-15.5 -51z" />
<glyph unicode="f" horiz-adv-x="585" d="M-98 14q0 9 8 16t18 7h125q29 0 35 29l172 817q2 4 2 10q0 18 -24 18h-140q-20 0 -20 15q0 9 8 15.5t20 6.5h140q29 0 35 29l16 72q20 100 50.5 161.5t80.5 102.5q89 73 203 73q53 0 89 -9.5t36 -22.5q0 -10 -8 -18.5t-19 -8.5q-4 0 -10 2q-54 14 -96 14 q-50 0 -100.5 -21t-84.5 -56q-58 -61 -94 -219l-14 -70v-10q3 -19 22 -19h189q18 0 18 -14q0 -23 -27 -23h-188q-29 0 -35 -28l-172 -817q-2 -4 -2 -11q0 -18 25 -18h149q19 0 19 -14q0 -23 -27 -23h-379q-20 0 -20 14z" />
<glyph unicode="g" horiz-adv-x="1138" d="M-27 -147q0 51 35 51q19 0 19 -23q3 -67 19.5 -99t62.5 -63q73 -49 221 -49q177 0 276 82.5t137 259.5l19 86q12 63 18 88l4 15q5 21 7 39q-63 -106 -172.5 -166t-239.5 -60q-163 0 -256.5 92.5t-93.5 253.5q0 108 38 219.5t105 200.5q71 94 175.5 145.5t227.5 51.5 q278 0 322 -242l39 185q6 28 35 28h188q21 0 21 -14q0 -10 -8.5 -16.5t-20.5 -6.5h-139q-29 0 -35 -28l-176 -832q-25 -115 -52 -177t-75 -112q-67 -72 -150 -103.5t-202 -31.5q-169 0 -259 58.5t-90 167.5zM80 365q0 -143 83.5 -226.5t225.5 -83.5q107 0 205 48t156 130 q29 40 45.5 83.5t40.5 136.5q36 147 36 223q0 96 -67 170q-42 49 -94 69.5t-131 20.5q-247 0 -385 -201q-54 -80 -84.5 -177.5t-30.5 -192.5z" />
<glyph unicode="h" horiz-adv-x="1132" d="M-113 14q0 9 8 16t19 7h131q29 0 35 29l262 1234q2 4 2 11q0 18 -25 18h-131q-18 0 -18 14q0 23 27 23h180q12 0 19 -5t5 -11l-2 -13l-123 -579q151 219 390 219q122 0 196 -59t74 -156q0 -76 -16 -144l-117 -552q-2 -4 -2 -11q0 -18 24 -18h125q21 0 21 -14 q0 -23 -29 -23h-358q-21 0 -21 14q0 9 8.5 16t20.5 7h127q29 0 35 29l118 557q13 67 13 118q0 91 -61.5 142t-170.5 51q-152 0 -266.5 -100t-148.5 -263l-109 -505l-2 -11q0 -18 25 -18h124q19 0 19 -14q0 -9 -7.5 -16t-19.5 -7h-360q-21 0 -21 14z" />
<glyph unicode="i" horiz-adv-x="473" d="M-96 14q0 9 8 16t18 7h123q29 0 35 29l174 817v10q-3 18 -22 18h-123q-19 0 -19 15q0 9 8 15.5t19 6.5h170q24 0 24 -16v-12l-182 -854q-2 -6 -2 -11q0 -18 25 -18h112q19 0 19 -14q0 -23 -27 -23h-340q-20 0 -20 14zM293 1223q0 28 22.5 49.5t51.5 21.5q23 0 37 -13 t14 -34q0 -29 -23 -51t-53 -22q-22 0 -35.5 13.5t-13.5 35.5z" />
<glyph unicode="j" horiz-adv-x="444" d="M-252 -338q0 10 8 18.5t19 8.5q10 0 26 -4q30 -9 62 -9q81 0 133 62q31 33 55 158l211 987v10q0 18 -24 18h-129q-21 0 -21 15q0 9 8.5 15.5t20.5 6.5h178q24 0 24 -16q0 -8 -2 -12l-219 -1031q-15 -77 -31 -117t-44 -69q-62 -68 -177 -68q-98 0 -98 27zM291 1223 q0 28 22.5 49.5t51.5 21.5q23 0 37 -13t14 -34q0 -29 -23 -51t-53 -22q-22 0 -35.5 13.5t-13.5 35.5z" />
<glyph unicode="k" horiz-adv-x="1056" d="M-111 14q0 9 8 16t19 7h129q29 0 35 29l262 1234l2 11q0 18 -25 18h-129q-18 0 -18 14q0 23 27 23h178q12 0 19 -5t5 -11l-2 -13l-194 -917l588 442q24 19 24 31q0 14 -33 14h-69q-21 0 -21 15q0 9 8.5 15.5t20.5 6.5h293q18 0 18 -14q0 -9 -7 -16t-19 -7h-76 q-15 0 -27 -10l-383 -287q-16 -16 -16 -24q0 -7 4 -15l244 -520q7 -14 24 -14h78q18 0 18 -14q0 -9 -7 -16t-19 -7h-297q-21 0 -21 14q0 9 8.5 16t20.5 7h88q39 0 39 18q0 7 -8 23l-213 452q-6 15 -21 15q-4 0 -20 -8l-231 -177l-64 -294l-2 -11q0 -18 25 -18h120 q19 0 19 -14q0 -23 -27 -23h-354q-21 0 -21 14z" />
<glyph unicode="l" horiz-adv-x="464" d="M-113 14q0 9 8 16t19 7h131q29 0 35 29l262 1234q2 4 2 11q0 18 -25 18h-131q-18 0 -18 14q0 23 27 23h180q24 0 24 -16q0 -7 -2 -13l-270 -1271v-11q3 -18 25 -18h114q19 0 19 -14q0 -23 -27 -23h-352q-21 0 -21 14z" />
<glyph unicode="m" horiz-adv-x="1740" d="M-113 14q0 9 8 16t19 7h137q29 0 35 29l174 817l2 10q0 18 -24 18h-138q-18 0 -18 15q0 9 8 15.5t19 6.5h186q19 0 22 -16v-12l-32 -152q65 102 159.5 155.5t210.5 53.5q146 0 213 -80q22 -25 31 -52t14 -77q117 209 369 209q118 0 191 -57.5t73 -149.5q0 -71 -20 -158 l-115 -546q-2 -4 -2 -11q0 -18 25 -18h122q21 0 21 -14q0 -23 -27 -23h-354q-20 0 -20 14q0 9 8 16t20 7h123q26 0 35 29l115 544q16 71 16 142q0 84 -62 134t-165 50q-140 0 -240 -80q-58 -46 -87.5 -104.5t-55.5 -182.5l-107 -503l-2 -11q0 -18 25 -18h114q21 0 21 -14 q0 -10 -8.5 -16.5t-20.5 -6.5h-342q-20 0 -20 14q0 9 8 16t20 7h121q29 0 35 29l107 503q28 128 28 193q0 78 -61 126t-162 48q-157 0 -270 -113q-51 -49 -79 -106.5t-48 -151.5l-107 -499v-11q3 -18 23 -18h121q20 0 20 -14q0 -10 -8.5 -16.5t-20.5 -6.5h-362q-21 0 -21 14 z" />
<glyph unicode="n" horiz-adv-x="1142" d="M-104 14q0 9 8 16t18 7h131q26 0 35 29l172 817q2 4 2 10q0 18 -24 18h-129q-19 0 -19 15q0 9 8 15.5t19 6.5h178q24 0 24 -16q0 -6 -2 -12l-32 -154q144 211 383 211q130 0 206 -57t76 -154q0 -54 -12 -115l-125 -585q-2 -6 -2 -11q0 -18 25 -18h125q18 0 18 -14 q0 -23 -27 -23h-362q-21 0 -21 14q0 9 8 16t19 7h133q29 0 35 29l123 583q10 48 10 84q0 98 -64 150.5t-184 52.5q-153 0 -260.5 -95t-142.5 -261l-111 -514v-11q0 -18 25 -18h131q18 0 18 -14q0 -23 -26 -23h-367q-20 0 -20 14z" />
<glyph unicode="o" horiz-adv-x="1058" d="M25 336q0 134 44.5 252.5t120 204t181.5 135t225 49.5q166 0 259 -90.5t93 -253.5q0 -184 -74 -336t-204.5 -239t-288.5 -87q-170 0 -263 95.5t-93 269.5zM76 332q0 -155 79 -237.5t230 -82.5q145 0 262 79.5t182.5 220t65.5 315.5q0 146 -80 226.5t-225 80.5 q-221 0 -367.5 -171.5t-146.5 -430.5z" />
<glyph unicode="p" horiz-adv-x="1134" d="M-195 -332q0 9 8 16t19 7h127q29 0 35 28l248 1164v10q0 18 -23 18h-127q-18 0 -18 15q0 9 7.5 15.5t18.5 6.5h174q25 0 25 -16q0 -8 -2 -12l-39 -189q73 126 174 186t238 60q170 0 263 -89t93 -253q0 -183 -74 -335.5t-203 -240.5t-284 -88q-262 0 -311 267l-111 -519 l-2 -10q0 -18 25 -18h127q18 0 18 -15q0 -22 -27 -22h-358q-21 0 -21 14zM184 307q0 -134 76 -213.5t205 -79.5q139 0 256 81.5t184.5 222t67.5 307.5q0 152 -81.5 231.5t-236.5 79.5q-227 0 -350 -188q-52 -82 -86.5 -207t-34.5 -234z" />
<glyph unicode="q" horiz-adv-x="1140" d="M20 313q0 142 43 265t118 211t181 138t228 50q133 0 214.5 -61t96.5 -171l37 175q6 28 35 28h174q20 0 20 -14q0 -10 -8 -16.5t-20 -6.5h-125q-29 0 -35 -28l-248 -1164q-2 -6 -2 -10q0 -18 25 -18h125q20 0 20 -15q0 -10 -8 -16t-19 -6h-370q-21 0 -21 14q0 10 8.5 16.5 t20.5 6.5h137q29 0 35 28l102 484q-83 -125 -179.5 -178.5t-235.5 -53.5q-168 0 -258.5 88.5t-90.5 253.5zM72 319q0 -148 79 -226.5t228 -78.5q260 0 381 222q46 82 76 208.5t30 235.5q0 125 -72 190.5t-208 65.5q-123 0 -224 -52.5t-169 -150.5q-55 -79 -88 -192t-33 -222 z" />
<glyph unicode="r" horiz-adv-x="702" d="M-98 14q0 9 8 16t18 7h123q29 0 35 29l174 817l2 10q0 18 -24 18h-123q-19 0 -19 15q0 9 8 15.5t19 6.5h172q19 0 22 -16v-12l-32 -150q59 100 151 153.5t207 53.5q74 0 74 -29q0 -9 -6 -16.5t-13 -7.5l-14 2q-19 8 -66 8q-63 0 -130.5 -27t-118.5 -73q-87 -78 -125 -254 l-109 -514v-11q3 -18 23 -18h159q19 0 19 -14q0 -9 -7.5 -16t-19.5 -7h-387q-20 0 -20 14z" />
<glyph unicode="s" horiz-adv-x="915" d="M-53 18q0 7 2 11l55 268q6 29 33 29q7 0 12.5 -5.5t5.5 -13.5v-8q-8 -60 -8 -78q0 -36 20.5 -76.5t53.5 -70.5q74 -62 201 -62q158 0 263 78.5t105 196.5q0 67 -44.5 101.5t-153.5 51.5l-132 21q-135 20 -195.5 66.5t-60.5 129.5q0 135 118 227.5t290 92.5 q217 0 279 -154l20 97q6 28 29 28q18 0 18 -18v-10l-53 -250q-3 -13 -11.5 -21t-19.5 -8q-18 0 -18 18q0 5 2 9q6 40 6 75q0 90 -69 140.5t-193 50.5q-145 0 -244.5 -75.5t-99.5 -184.5q0 -63 50 -103.5t144 -54.5l119 -16q97 -15 141.5 -29.5t75.5 -42.5q55 -49 55 -131 q0 -138 -123.5 -232t-304.5 -94q-124 0 -194 44t-101 141l-26 -127q-6 -29 -29 -29q-18 0 -18 18z" />
<glyph unicode="t" horiz-adv-x="630" d="M51 926q0 9 8 15.5t19 6.5h147q29 0 35 29l39 180q6 29 31 29q7 0 12.5 -5.5t5.5 -13.5v-10l-39 -180l-2 -10q0 -19 25 -19h274q19 0 19 -14q0 -23 -27 -23h-274q-29 0 -35 -28l-127 -602q-27 -127 -27 -158q0 -51 30.5 -81t82.5 -30q102 0 160 109q11 20 36 100 q7 27 31 27q7 0 13 -6t6 -13q0 -29 -27 -88q-78 -170 -231 -170q-72 0 -111 38t-39 110q0 38 27 160l127 604q2 4 2 10q0 18 -25 18h-145q-21 0 -21 15z" />
<glyph unicode="u" horiz-adv-x="1126" d="M66 926q0 9 7.5 15.5t18.5 6.5h182q25 0 25 -16q0 -8 -2 -12l-123 -578q-16 -82 -16 -137q0 -92 61.5 -142.5t173.5 -50.5q193 0 303 125q80 86 123 291l96 455l3 10q0 18 -25 18h-135q-21 0 -21 15q0 9 8.5 15.5t20.5 6.5h184q25 0 25 -16q0 -6 -2 -12l-182 -854v-11 q3 -18 22 -18h137q21 0 21 -14q0 -10 -8.5 -16.5t-20.5 -6.5h-184q-25 0 -25 16q0 9 2 13l35 166q-60 -114 -154.5 -169t-230.5 -55q-133 0 -204.5 58t-71.5 164q0 64 16 149l117 541v10q0 18 -25 18h-131q-20 0 -20 15z" />
<glyph unicode="v" horiz-adv-x="1093" d="M59 926q0 9 8 15.5t19 6.5h309q19 0 19 -14q0 -23 -27 -23h-113q-14 0 -23 -7t-9 -19v-11l157 -759q13 -49 25 -49q15 0 45 49l485 759q7 10 7 21q0 16 -25 16h-113q-20 0 -20 15q0 9 8 15.5t20 6.5h289q21 0 21 -14q0 -10 -8.5 -16.5t-20.5 -6.5h-65q-20 0 -33 -18 l-500 -787q-41 -64 -62.5 -85t-45.5 -21q-19 0 -31.5 23.5t-24.5 82.5l-164 787q-1 10 -6.5 14t-17.5 4h-82q-21 0 -21 15z" />
<glyph unicode="w" horiz-adv-x="1685" d="M59 926q0 9 8 15.5t19 6.5h322q18 0 18 -14q0 -23 -27 -23h-123q-15 0 -25.5 -8.5t-8.5 -19.5l2 -9l90 -757q2 -15 8 -28t12 -13q14 0 37 39l422 741q30 52 49.5 72t38.5 20q20 0 30.5 -20.5t16.5 -71.5l111 -754q3 -20 18 -20q18 0 29 20l426 772q6 12 6 21q0 16 -25 16 h-120q-19 0 -19 15q0 9 8 15.5t19 6.5h311q19 0 19 -14q0 -23 -27 -23h-82q-23 0 -33 -20l-444 -805q-20 -38 -43.5 -62t-40.5 -24q-15 0 -29 24.5t-20 59.5l-111 762q-1 12 -6.5 20t-11.5 8q-15 0 -29 -28l-442 -774q-41 -72 -78 -72q-36 0 -45 74l-101 817q-2 12 -6.5 16 t-17.5 4h-84q-21 0 -21 15z" />
<glyph unicode="x" horiz-adv-x="1155" d="M-115 14q0 9 8 16t19 7h76q14 0 28 12l463 424q15 12 15 25q0 4 -7 14l-258 387q-7 12 -22 12h-74q-20 0 -20 15q0 9 8 15.5t20 6.5h291q19 0 19 -14q0 -9 -7.5 -16t-19.5 -7h-78q-15 0 -25 -7.5t-10 -18.5q0 -8 6 -17l211 -321q9 -12 21 -12q10 0 22 12l353 321 q14 14 14 25q0 18 -25 18h-77q-21 0 -21 15q0 9 8.5 15.5t20.5 6.5h284q21 0 21 -14q0 -9 -8.5 -16t-20.5 -7h-82q-14 0 -28 -12l-420 -387q-15 -12 -15 -25q0 -7 7 -14l276 -424q7 -12 23 -12h73q19 0 19 -14q0 -9 -7.5 -16t-19.5 -7h-305q-18 0 -18 14q0 9 7 16t19 7h96 q13 0 23 7.5t10 18.5q0 5 -4 17l-235 356q-10 13 -21 13q-9 0 -22 -13l-392 -356q-12 -12 -12 -25q0 -18 23 -18h96q18 0 18 -14q0 -9 -7 -16t-19 -7h-297q-21 0 -21 14z" />
<glyph unicode="y" horiz-adv-x="1099" d="M-61 -336q0 9 7.5 18t16.5 9q8 0 35 -10q32 -9 63 -9q66 0 118.5 38.5t111.5 129.5l90 144q6 9 6 18v10l-205 881q-3 11 -7.5 14.5t-16.5 3.5h-78q-21 0 -21 15q0 9 8.5 15.5t20.5 6.5h307q19 0 19 -14q0 -23 -27 -23h-113q-13 0 -22.5 -7.5t-9.5 -18.5v-13l188 -815 l524 817q9 9 9 21q0 16 -25 16h-115q-20 0 -20 15q0 9 7.5 15.5t18.5 6.5h297q21 0 21 -14q0 -10 -8.5 -16.5t-20.5 -6.5h-69q-20 0 -33 -18l-684 -1059q-73 -115 -134 -159t-147 -44q-46 0 -79 10t-33 23z" />
<glyph unicode="z" horiz-adv-x="894" d="M-63 16q0 9 2 11l2 12q6 30 28 55l793 774q16 16 16 29q0 14 -26 14h-543q-29 0 -35 -28l-31 -138q-6 -28 -28 -28q-8 0 -13.5 5.5t-5.5 12.5v10l37 175q6 28 35 28h655q25 0 25 -18q0 -4 -2 -8l-2 -13q-5 -30 -35 -57l-793 -772q-14 -14 -14 -25q0 -18 25 -18h571 q29 0 35 29l33 155q6 29 28 29q8 0 13.5 -6t5.5 -13q0 -6 -2 -10l-39 -186q-8 -35 -43 -35h-668q-24 0 -24 16z" />
<glyph unicode="{" horiz-adv-x="681" d="M92 -199q0 52 23 164l69 324q11 54 11 80q0 45 -15 68.5t-57 45.5q-14 6 -14 21t8.5 22t40.5 21q92 41 118 184l70 324q34 162 82 221q34 43 89 66.5t120 23.5q20 0 20 -16q0 -15 -9.5 -20.5t-41.5 -6.5q-87 -9 -134.5 -60.5t-70.5 -160.5l-77 -363q-22 -98 -57.5 -150.5 t-98.5 -78.5q72 -37 72 -125q0 -34 -13 -104l-77 -363q-11 -57 -11 -94q0 -64 35.5 -95t112.5 -34q16 0 16 -17q0 -10 -8.5 -17t-22.5 -7q-85 0 -132.5 39t-47.5 108z" />
<glyph unicode="|" d="M270 -342l363 1708h49l-363 -1708h-49z" />
<glyph unicode="}" horiz-adv-x="681" d="M-49 -330q0 15 9.5 20.5t41.5 6.5q87 9 134.5 60.5t70.5 160.5l78 363q22 99 57 151t98 78q-71 36 -71 127q0 40 12 102l78 363q10 48 10 96q0 63 -35.5 93.5t-111.5 33.5q-17 0 -17 16q0 11 9 18t22 7q85 0 132.5 -39.5t47.5 -109.5q0 -49 -22 -162l-70 -324 q-10 -62 -10 -80q0 -45 14.5 -68.5t56.5 -45.5q15 -6 15 -21t-8.5 -22t-40.5 -21q-93 -41 -119 -184l-70 -324q-35 -163 -82 -221q-34 -43 -89 -66.5t-120 -23.5q-20 0 -20 16z" />
<glyph unicode="~" d="M197 588q0 23 17 60.5t42 66.5q58 71 145 71q35 0 66 -18t68 -59q43 -49 63.5 -63.5t48.5 -14.5q41 0 78.5 39.5t50.5 99.5q7 27 31 27q7 0 12.5 -5.5t5.5 -13.5q0 -21 -16 -56.5t-39 -64.5q-58 -73 -139 -73q-38 0 -62 15t-69 65q-36 41 -61 56t-54 15q-50 0 -88 -41 q-21 -22 -27.5 -33.5t-25.5 -66.5q-6 -25 -29 -25q-7 0 -12.5 5.5t-5.5 13.5z" />
<glyph unicode="&#xa1;" horiz-adv-x="421" d="M-57 -397q0 6 2 10l239 1036q6 25 25 25q14 0 14 -15v-10l-194 -1036q-6 -29 -35 -29h-27q-24 0 -24 19zM186 877q0 31 25 54t57 23q25 0 40.5 -14.5t15.5 -36.5q0 -31 -25 -55.5t-57 -24.5q-23 0 -39.5 15.5t-16.5 38.5z" />
<glyph unicode="&#xa2;" d="M84 553q0 100 26.5 194.5t75 172.5t113 137.5t144.5 94t165 38.5l31 149q7 27 29 27q7 0 12.5 -5t5.5 -11q0 -7 -2 -11l-31 -147q219 -15 271 -176q4 -4 6 -4q5 0 8 8l25 119q6 28 30 28q8 0 13.5 -5.5t5.5 -12.5q0 -6 -2 -10l-64 -301q-6 -29 -31 -29q-18 0 -18 20 l2 127q0 38 -28 80t-72 70q-34 22 -68 30.5t-88 10.5l-190 -901q6 -2 14 -2q50 0 113 22.5t110 57.5q49 35 77.5 73t59.5 109q9 24 29 24q7 0 12.5 -5t5.5 -11q0 -29 -36 -86.5t-84 -105.5q-54 -54 -128 -83t-184 -38l-36 -174q-7 -27 -29 -27q-7 0 -13 5t-6 11q0 7 2 11 l37 174q-79 9 -124.5 25t-84.5 50q-104 93 -104 277zM139 551q0 -98 39 -172t107 -105q49 -19 121 -30l192 907q-189 -11 -324 -187t-135 -413z" />
<glyph unicode="&#xa3;" d="M-51 16q0 12 8.5 19.5t22.5 7.5h118q29 0 35 29l148 692h-148q-22 0 -22 18q0 11 8.5 18t21.5 7h148l35 164q24 107 53 174t76 117q57 61 137.5 95t169.5 34q124 0 199 -65t75 -171q0 -47 -8.5 -66.5t-28.5 -19.5q-18 0 -18 21l2 63q0 86 -65 138t-171 52 q-165 0 -260 -112q-39 -45 -61.5 -101t-44.5 -161l-35 -162h238q22 0 22 -16q0 -12 -8.5 -19.5t-22.5 -7.5h-239l-148 -692v-13q0 -16 25 -16h516q29 0 35 29l29 143q9 31 32 31q9 0 15 -5.5t6 -13.5t-2 -12l-39 -186q-6 -29 -35 -29h-797q-22 0 -22 16z" />
<glyph unicode="&#xa4;" d="M33 319q0 11 14 25l135 111q-51 74 -51 170q0 89 41.5 174t116.5 153l-88 111q-6 9 -6 16q0 9 9 18t19 9q7 0 17 -10l86 -113q128 96 272 96q141 0 225 -96l135 113q17 10 21 10q7 0 12.5 -5.5t5.5 -13.5q0 -13 -14 -24l-133 -111q49 -85 49 -170q0 -88 -41.5 -174.5 t-114.5 -152.5l88 -111q7 -11 7 -16q0 -10 -9 -18.5t-20 -8.5q-9 0 -16 10l-88 111q-126 -94 -271 -94q-139 0 -227 94l-135 -111q-10 -10 -21 -10q-7 0 -12.5 5.5t-5.5 12.5zM184 635q0 -111 73 -183.5t187 -72.5q102 0 195.5 55t150 146.5t56.5 191.5q0 110 -74 183 t-186 73q-102 0 -195.5 -55t-150 -146.5t-56.5 -191.5z" />
<glyph unicode="&#xa5;" d="M84 16q0 12 8.5 19.5t22.5 7.5h204q29 0 35 29l105 487h-348q-23 0 -23 19q0 10 8.5 17t22.5 7h334l-33 150h-289q-22 0 -22 16q0 12 8.5 19.5t21.5 7.5h269l-117 512q-5 18 -25 18h-88q-20 0 -20 16q0 11 8.5 18t21.5 7h299q21 0 21 -16q0 -11 -9 -18t-22 -7h-96 q-14 0 -23.5 -7.5t-9.5 -19.5v-12l154 -663l436 663q8 11 8 23q0 16 -24 16h-95q-22 0 -22 16q0 11 9 18t22 7h290q23 0 23 -16q0 -11 -9 -18t-22 -7h-88q-20 0 -33 -18l-335 -512h268q20 0 20 -17q0 -26 -30 -26h-285l-100 -150h333q21 0 21 -16q0 -12 -8.5 -19.5 t-22.5 -7.5h-346l-104 -487q-2 -6 -2 -13q0 -16 24 -16h205q20 0 20 -16q0 -12 -8 -19.5t-20 -7.5h-521q-22 0 -22 16z" />
<glyph unicode="&#xa6;" d="M270 -342l140 655h49l-140 -655h-49zM494 709l139 657h49l-139 -657h-49z" />
<glyph unicode="&#xa7;" d="M20 18q0 55 9 77t32 22q9 0 15 -6t6 -15q0 -4 -4 -24q-2 -12 -2 -41q0 -104 66 -160.5t188 -56.5q145 0 251.5 89.5t106.5 211.5q0 65 -42.5 109.5t-137.5 78.5l-178 66q-88 33 -127 59q-78 60 -78 143q0 60 38.5 124t102.5 110q38 27 131 65q-81 38 -116 84t-35 113 q0 129 122.5 226.5t286.5 97.5q126 0 206.5 -63t80.5 -163q0 -60 -9 -84t-32 -24q-20 0 -20 20q0 5 4 23q2 8 2 39q0 100 -63.5 156.5t-178.5 56.5q-138 0 -242 -83.5t-104 -193.5q0 -66 50.5 -108.5t199.5 -104.5l104 -43q109 -44 156 -91.5t47 -111.5q0 -91 -67 -166 t-193 -128q147 -63 147 -199q0 -139 -129.5 -246.5t-296.5 -107.5q-135 0 -216 67.5t-81 181.5zM182 588q0 -57 45.5 -99.5t141.5 -78.5l184 -66q121 46 183.5 111t62.5 143q0 55 -42 95t-143 81l-176 74q-113 -37 -184.5 -109.5t-71.5 -150.5z" />
<glyph unicode="&#xa8;" d="M369 1223q0 28 22 49.5t51 21.5q23 0 37.5 -13.5t14.5 -33.5q0 -29 -23 -51t-53 -22q-22 0 -35.5 13.5t-13.5 35.5zM764 1223q0 28 22.5 49.5t51.5 21.5q23 0 37 -13t14 -34q0 -29 -23 -51t-53 -22q-22 0 -35.5 13.5t-13.5 35.5z" />
<glyph unicode="&#xa9;" horiz-adv-x="1603" d="M80 537q0 162 73.5 319t193.5 274t281.5 189t329.5 72q245 0 405.5 -158t160.5 -399q0 -164 -73.5 -322t-194 -275.5t-282 -189.5t-329.5 -72q-244 0 -404.5 159.5t-160.5 402.5zM129 545q0 -226 149.5 -374t376.5 -148q156 0 307 67t263 176t181 256t69 299 q0 226 -150 374t-377 148q-156 0 -307 -67t-263 -175.5t-180.5 -255.5t-68.5 -300zM418 557q0 147 60 270t164 194t228 71q180 0 232 -140l22 101q6 26 27 26q16 0 16 -16q0 -6 -2 -10l-51 -238q-3 -27 -27 -27q-6 0 -11 5t-5 12q0 2 4 33q2 6 2 22q0 88 -58.5 139.5 t-156.5 51.5q-167 0 -282 -141.5t-115 -348.5q0 -114 65 -181t177 -67q114 0 194 60.5t115 173.5q7 20 28 20q8 0 13.5 -5.5t5.5 -12.5q0 -12 -17 -51.5t-34 -65.5q-50 -74 -134.5 -117t-179.5 -43q-130 0 -205 76.5t-75 208.5z" />
<glyph unicode="&#xaa;" horiz-adv-x="698" d="M123 922q0 46 24.5 90t65.5 75q86 60 250 60l133 -2q35 0 35 92q0 115 -150 115q-174 0 -223 -125q-7 -21 -29 -21q-18 0 -18 15q0 24 29 61.5t65 60.5q73 48 182 48q89 0 140 -36.5t51 -99.5q0 -37 -12 -90l-64 -301q-2 -4 -2 -10q0 -18 25 -18h49q18 0 18 -15 q0 -9 -7 -15.5t-19 -6.5h-93q-24 0 -24 18q0 6 2 10l14 76q-93 -121 -256 -121q-88 0 -137 37t-49 103zM170 926q0 -51 40 -78t114 -27q172 0 243 146q6 14 20.5 64t14.5 59q0 12 -14.5 15t-73.5 3q-121 0 -176.5 -10t-95.5 -39q-72 -47 -72 -133z" />
<glyph unicode="&#xab;" horiz-adv-x="628" d="M43 492q0 7 8 18l246 389q13 19 27 19q7 0 12.5 -5.5t5.5 -11.5q0 -7 -8 -18l-242 -387l78 -387q3 -12 -6 -23.5t-21 -11.5q-13 0 -16 18l-82 389q-2 4 -2 11zM256 492q0 6 6 18l248 389q13 19 27 19q7 0 12.5 -5.5t5.5 -11.5q0 -7 -8 -18l-242 -387l78 -387v-9 q0 -12 -8 -19t-19 -7q-12 0 -18 18l-80 389q-2 4 -2 11z" />
<glyph unicode="&#xac;" d="M31 502l10 45h887l-117 -547h-47l106 502h-839z" />
<glyph unicode="&#xad;" horiz-adv-x="442" d="M-41 492q0 12 8.5 19t22.5 7h391q22 0 22 -16q0 -12 -9 -19.5t-23 -7.5h-389q-23 0 -23 17z" />
<glyph unicode="&#xae;" horiz-adv-x="1603" d="M80 537q0 162 73.5 319t193.5 274t281.5 189t329.5 72q245 0 405.5 -158t160.5 -399q0 -164 -73.5 -322t-194 -275.5t-282 -189.5t-329.5 -72q-244 0 -404.5 159.5t-160.5 402.5zM129 545q0 -226 149.5 -374t376.5 -148q156 0 307 67t263 176t181 256t69 299 q0 226 -150 374t-377 148q-156 0 -307 -67t-263 -175.5t-180.5 -255.5t-68.5 -300zM369 301q0 10 8 16.5t20 6.5h72q29 0 35 28l141 662v10q0 18 -22 18h-74q-21 0 -21 15q0 9 8.5 15.5t20.5 6.5h307q131 0 191.5 -38.5t60.5 -122.5q0 -88 -55.5 -155.5t-147.5 -90.5 q38 -15 54.5 -45.5t23.5 -102.5l27 -200h65q21 0 21 -15q0 -22 -29 -22h-82q-19 0 -22 18l-25 207q-12 92 -42.5 118.5t-127.5 26.5h-133q-29 0 -35 -28l-59 -277v-10q3 -18 22 -18h76q21 0 21 -15q0 -22 -29 -22h-250q-20 0 -20 14zM627 713q0 -19 24 -19h131q131 0 187 37 q43 28 70.5 76.5t27.5 97.5q0 72 -50.5 104.5t-162.5 32.5h-129q-29 0 -35 -28l-61 -291q-2 -4 -2 -10z" />
<glyph unicode="&#xaf;" d="M332 1243q0 14 11.5 23.5t29.5 9.5h532q29 0 29 -23q0 -14 -11.5 -23t-29.5 -9h-533q-28 0 -28 22z" />
<glyph unicode="&#xb0;" horiz-adv-x="819" d="M102 1094q0 131 91.5 221t224.5 90q126 0 212.5 -90.5t86.5 -222.5q0 -131 -89 -221.5t-218 -90.5t-218.5 91t-89.5 223zM217 1092q0 -80 57 -137.5t136 -57.5q80 0 135 57t55 140q0 80 -55 137t-131 57q-83 0 -140 -56.5t-57 -139.5z" />
<glyph unicode="&#xb1;" d="M-31 104q0 12 9.5 19.5t23.5 7.5h789q24 0 24 -18q0 -12 -9.5 -19.5t-23.5 -7.5h-790q-23 0 -23 18zM94 698q0 12 9.5 19.5t23.5 7.5h371l77 371q6 28 31 28q19 0 19 -18v-10l-80 -371h370q23 0 23 -18q0 -11 -9 -19t-24 -8h-368l-80 -371q-6 -28 -31 -28q-8 0 -13 5.5 t-5 12.5q0 6 2 10l77 371h-370q-23 0 -23 18z" />
<glyph unicode="&#xb2;" horiz-adv-x="649" d="M45 580q0 17 14.5 33.5t71.5 66.5q22 18 127 113q133 119 168 149q118 102 158.5 161.5t40.5 127.5q0 60 -38.5 91.5t-109.5 31.5q-102 0 -170 -74q-24 -25 -35 -46t-30 -77q-6 -22 -29 -22q-7 0 -12.5 5.5t-5.5 12.5q0 17 19 58.5t40 70.5q84 113 233 113 q88 0 137.5 -41t49.5 -113q0 -110 -86 -199q-47 -49 -410 -372q-32 -28 -80 -72h396q28 0 34 29l15 75q6 25 28 25q8 0 13 -5t4 -11q0 -5 -2 -9l-25 -114q-6 -29 -35 -29h-456q-25 0 -25 21z" />
<glyph unicode="&#xb3;" horiz-adv-x="649" d="M92 721q0 86 35 86q18 0 18 -19q0 -1 -6 -75q0 -8 15.5 -39t25.5 -43q37 -47 119 -47q97 0 167.5 71t70.5 170q0 57 -40.5 92.5t-107.5 36.5q-32 0 -40.5 3.5t-8.5 15.5q0 17 10.5 21.5t52.5 6.5q92 3 151.5 64.5t59.5 151.5q0 66 -40 103.5t-109 37.5q-165 0 -229 -180 q-10 -23 -29 -23q-7 0 -13 5.5t-6 13.5q0 14 15.5 47t34.5 57q82 117 233 117q89 0 140 -45t51 -123q0 -83 -48 -150q-25 -37 -53.5 -57.5t-85.5 -40.5q59 -26 85 -61t26 -89q0 -117 -88 -200.5t-211 -83.5q-85 0 -140 50t-55 126z" />
<glyph unicode="&#xb4;" d="M553 1120q0 8 10 21l185 205q18 18 30 18q10 0 17.5 -7t7.5 -16q0 -13 -17 -30l-190 -197q-12 -12 -25 -12q-7 0 -12.5 5t-5.5 13z" />
<glyph unicode="&#xb5;" horiz-adv-x="1179" d="M68 -301q0 37 5 64t29 122q25 95 25 156v983h180v-678q0 -107 50 -167t139 -60q65 0 119 35.5t108 113.5v756h182v-756q0 -84 28.5 -134t74.5 -50q36 0 65 40.5t33 98.5l55 -2q-22 -119 -84.5 -183.5t-156.5 -64.5q-100 0 -148 70q-29 39 -47 121q-164 -191 -315 -191 q-54 0 -96.5 20t-106.5 75l4 -86q25 -109 43 -175q16 -53 16 -106q0 -66 -28 -108t-72 -42q-45 0 -73.5 41t-28.5 107z" />
<glyph unicode="&#xb6;" d="M117 883q0 83 30 170.5t82 156.5q66 88 152.5 122t241.5 34h444q23 0 23 -16q0 -11 -9 -18t-22 -7h-103q-28 0 -34 -29l-306 -1431v-10q0 -19 23 -19h102q23 0 23 -16q0 -12 -8.5 -19.5t-22.5 -7.5h-522q-23 0 -23 19q0 10 8.5 17t22.5 7h111q26 0 35 29l153 727 q2 9 -5 14t-21 4q-29 -2 -41 -2q-170 0 -252 67.5t-82 207.5zM410 -164h149l318 1489h-152z" />
<glyph unicode="&#xb7;" horiz-adv-x="393" d="M88 483q0 31 25 55.5t57 24.5q24 0 39.5 -14.5t15.5 -36.5q0 -32 -25 -57t-57 -25q-23 0 -39 15t-16 38z" />
<glyph unicode="&#xb8;" d="M115 -358q0 10 8.5 19t17.5 9t17 -4q60 -24 110 -24q68 0 117 35.5t49 84.5q0 32 -27.5 53t-70.5 21q-47 0 -84 -16q-10 -4 -16 -4q-5 0 -9 4t-4 8q0 8 8 16l144 156h49l-96 -106q-4 -8 -4 -9q0 -4 3 -5t17 -1q71 2 110.5 -26t39.5 -80q0 -69 -65 -124t-148 -55 q-63 0 -114.5 14.5t-51.5 33.5z" />
<glyph unicode="&#xb9;" horiz-adv-x="649" d="M188 575q0 9 8.5 16t20.5 7h82q29 0 35 29l149 698q-86 -65 -149.5 -106t-75.5 -41q-14 0 -14 18q0 10 7.5 17t53.5 36q73 44 154 105q33 26 53 26t20 -18q0 -4 -2 -10l-153 -725q-2 -4 -2 -11q0 -18 24 -18h74q21 0 21 -16q0 -9 -8.5 -16t-20.5 -7h-256q-21 0 -21 16z " />
<glyph unicode="&#xba;" horiz-adv-x="692" d="M139 1010q0 161 103.5 271t255.5 110q107 0 167 -55.5t60 -155.5q0 -169 -102 -282.5t-254 -113.5q-109 0 -169.5 59.5t-60.5 166.5zM184 1010q0 -91 48.5 -139t140.5 -48q134 0 219.5 98.5t85.5 252.5q0 85 -48.5 131.5t-137.5 46.5q-134 0 -221 -96.5t-87 -245.5z" />
<glyph unicode="&#xbb;" horiz-adv-x="628" d="M-6 90q0 10 6 19l242 387l-76 387q-2 4 -2 10q0 9 8 17t18 8q16 0 19 -19l82 -389l2 -10q0 -3 -8 -19l-248 -389q-10 -18 -25 -18q-7 0 -12.5 5t-5.5 11zM207 90q0 10 6 19l242 387l-78 387v10q0 9 8 17t18 8q16 0 19 -19l82 -389v-10q0 -7 -6 -19l-248 -389 q-10 -18 -25 -18q-7 0 -12.5 5t-5.5 11z" />
<glyph unicode="&#xbc;" horiz-adv-x="1474" d="M193 575q0 9 8 16t20 7h82q29 0 35 29l149 698q-86 -65 -149.5 -106t-75.5 -41q-14 0 -14 18q0 10 7.5 17t53.5 36q73 44 154 105q33 26 53 26q9 0 15 -5t6 -13q0 -4 -2 -10l-154 -725q-2 -4 -2 -11q0 -18 24 -18h74q21 0 21 -16q0 -9 -8.5 -16t-20.5 -7h-256 q-20 0 -20 16zM233 16q0 6 7 17l964 1319q11 14 21 14q16 0 16 -14q0 -10 -6 -19l-965 -1319q-8 -14 -20 -14q-17 0 -17 16zM770 274q0 7 2 11l4 20l504 504q10 10 37 10q22 0 22 -16q0 -8 -2 -12l-98 -467q-2 -6 -2 -11q0 -18 25 -18h75q21 0 21 -16q0 -9 -8.5 -16 t-20.5 -7h-76q-28 0 -34 -29l-35 -159v-11q0 -18 22 -18h66q18 0 18 -16q0 -9 -8 -16t-20 -7h-244q-21 0 -21 14q0 10 8.5 17.5t20.5 7.5h80q29 0 35 29l35 159l2 11q0 18 -25 18h-358q-25 0 -25 18zM821 295h340q29 0 35 29l94 442z" />
<glyph unicode="&#xbd;" horiz-adv-x="1474" d="M193 575q0 9 8 16t20 7h82q29 0 35 29l149 698q-86 -65 -149.5 -106t-75.5 -41q-14 0 -14 18q0 10 7.5 17t53.5 36q73 44 154 105q33 26 53 26q9 0 15 -5t6 -13q0 -4 -2 -10l-154 -725q-2 -4 -2 -11q0 -18 24 -18h74q21 0 21 -16q0 -9 -8.5 -16t-20.5 -7h-256 q-20 0 -20 16zM229 16q0 8 9 17l962 1319q11 14 23 14q16 0 16 -14q0 -8 -8 -19l-963 -1319q-11 -14 -22 -14q-17 0 -17 16zM754 20q0 18 14.5 35.5t71.5 65.5q20 17 127 112q80 74 168 150q117 102 157.5 161.5t40.5 127.5q0 60 -38 91.5t-109 31.5q-100 0 -168 -74 q-24 -26 -35.5 -47t-30.5 -76q-7 -23 -28 -23q-8 0 -13.5 5.5t-5.5 13.5q0 17 19 58.5t41 70.5q84 113 233 113q86 0 135 -41t49 -113q0 -110 -86 -199q-71 -75 -409 -372q-15 -14 -41 -37t-39 -35h395q29 0 35 29l16 73q3 27 27 27q16 0 16 -16q0 -7 -2 -11l-22 -112 q-5 -16 -12.5 -22.5t-24.5 -6.5h-457q-24 0 -24 20z" />
<glyph unicode="&#xbe;" horiz-adv-x="1474" d="M94 727q0 80 35 80q18 0 18 -19q0 -1 -6 -75q0 -8 15.5 -39t25.5 -43q37 -47 119 -47q97 0 167.5 71t70.5 170q0 57 -40.5 92.5t-107.5 36.5q-32 0 -40.5 3.5t-8.5 15.5q0 17 11 21.5t53 6.5q92 3 151 64.5t59 151.5q0 66 -40 103.5t-109 37.5q-79 0 -143 -49.5 t-86 -126.5q-7 -27 -29 -27q-7 0 -13 5.5t-6 13.5q0 14 15.5 47t34.5 57q40 56 100.5 86.5t132.5 30.5q89 0 140 -45t51 -123q0 -83 -48 -150q-25 -37 -53.5 -57.5t-85.5 -40.5q59 -26 85 -61t26 -89q0 -117 -88 -200.5t-211 -83.5q-88 0 -141.5 49.5t-53.5 132.5zM229 16 q0 5 9 17l962 1319q11 14 23 14q16 0 16 -14q0 -11 -8 -19l-963 -1319q-11 -14 -22 -14q-17 0 -17 16zM770 274q0 5 2 11l4 20l504 504q10 10 37 10q22 0 22 -16v-12l-100 -467l-2 -11q0 -18 25 -18h77q19 0 19 -16q0 -9 -8.5 -16t-20.5 -7h-76q-28 0 -34 -29l-33 -159 q-2 -4 -2 -11q0 -18 24 -18h64q18 0 18 -16q0 -9 -8 -16t-18 -7h-246q-21 0 -21 16q0 9 8.5 16t20.5 7h82q26 0 35 29l33 159q2 4 2 11q0 18 -25 18h-358q-25 0 -25 18zM821 295h340q29 0 35 29l94 442z" />
<glyph unicode="&#xbf;" horiz-adv-x="903" d="M-104 -172q0 116 58.5 210t190.5 191l66 47q119 86 166 159.5t78 219.5q1 13 10.5 21t21.5 8q21 0 21 -20q0 -6 -23 -105q-33 -114 -96 -188q-24 -29 -45.5 -47t-120.5 -91l-57 -43q-111 -85 -161 -168.5t-50 -185.5q0 -114 64.5 -173.5t187.5 -59.5q286 0 379 301 q9 30 35 30q22 0 22 -22q0 -42 -49 -131q-63 -107 -163.5 -164t-227.5 -57q-145 0 -226 71t-81 197zM461 874q0 31 25 55.5t57 24.5q23 0 39 -15t16 -38q0 -31 -25 -54.5t-57 -23.5q-23 0 -39 14.5t-16 36.5z" />
<glyph unicode="&#xc0;" horiz-adv-x="1398" d="M-127 16q0 12 8.5 19.5t22.5 7.5h65q21 0 33 20l780 1270q26 45 66 45q36 0 45 -45l237 -1270q2 -12 7 -16t18 -4h70q20 0 20 -16q0 -12 -8.5 -19.5t-22.5 -7.5h-333q-21 0 -21 16q0 12 8.5 19.5t22.5 7.5h145q19 0 26 8.5t7 28.5l-80 428q-1 12 -6.5 16t-17.5 4h-603 q-22 0 -34 -20l-260 -428q-9 -12 -9 -21q0 -16 25 -16h145q23 0 23 -16q0 -12 -8.5 -19.5t-22.5 -7.5h-325q-23 0 -23 16zM383 588q0 -19 25 -19h528q15 0 25 8t10 21v8l-123 672q-4 24 -7 28.5t-12 4.5q-7 0 -11 -4t-19 -29l-408 -672q-8 -11 -8 -18zM754 1698 q0 12 12 22.5t25 10.5t22 -19l94 -201q4 -12 4 -14q0 -9 -9 -18t-19 -9q-13 0 -19 15l-104 194q-6 9 -6 19z" />
<glyph unicode="&#xc1;" horiz-adv-x="1398" d="M-127 16q0 12 8.5 19.5t22.5 7.5h65q21 0 33 20l780 1270q26 45 66 45q36 0 45 -45l237 -1270q2 -12 7 -16t18 -4h70q20 0 20 -16q0 -12 -8.5 -19.5t-22.5 -7.5h-333q-21 0 -21 16q0 12 8.5 19.5t22.5 7.5h145q19 0 26 8.5t7 28.5l-80 428q-1 12 -6.5 16t-17.5 4h-603 q-22 0 -34 -20l-260 -428q-9 -12 -9 -21q0 -16 25 -16h145q23 0 23 -16q0 -12 -8.5 -19.5t-22.5 -7.5h-325q-23 0 -23 16zM383 588q0 -19 25 -19h528q15 0 25 8t10 21v8l-123 672q-4 24 -7 28.5t-12 4.5q-7 0 -11 -4t-19 -29l-408 -672q-8 -11 -8 -18zM834 1491q0 7 10 20 l182 203q16 19 31 19q10 0 17 -7t7 -16q0 -15 -16 -31l-188 -194q-15 -12 -25 -12q-8 0 -13 5.5t-5 12.5z" />
<glyph unicode="&#xc2;" horiz-adv-x="1398" d="M-127 16q0 12 8.5 19.5t22.5 7.5h65q21 0 33 20l780 1270q26 45 66 45q36 0 45 -45l237 -1270q2 -12 7 -16t18 -4h70q20 0 20 -16q0 -12 -8.5 -19.5t-22.5 -7.5h-333q-21 0 -21 16q0 12 8.5 19.5t22.5 7.5h145q19 0 26 8.5t7 28.5l-80 428q-1 12 -6.5 16t-17.5 4h-603 q-22 0 -34 -20l-260 -428q-9 -12 -9 -21q0 -16 25 -16h145q23 0 23 -16q0 -12 -8.5 -19.5t-22.5 -7.5h-325q-23 0 -23 16zM383 588q0 -19 25 -19h528q15 0 25 8t10 21v8l-123 672q-4 24 -7 28.5t-12 4.5q-7 0 -11 -4t-19 -29l-408 -672q-8 -11 -8 -18zM633 1487q0 13 14 24 l244 230q20 20 39 20q21 0 33 -20l143 -230q6 -9 6 -16q0 -11 -10.5 -20t-22.5 -9q-11 0 -18 13l-127 200q-10 13 -21 13q-9 0 -22 -13l-213 -198q-13 -13 -25 -13q-9 0 -14.5 5.5t-5.5 13.5z" />
<glyph unicode="&#xc3;" horiz-adv-x="1398" d="M-127 16q0 12 8.5 19.5t22.5 7.5h65q21 0 33 20l780 1270q26 45 66 45q36 0 45 -45l237 -1270q2 -12 7 -16t18 -4h70q20 0 20 -16q0 -12 -8.5 -19.5t-22.5 -7.5h-333q-21 0 -21 16q0 12 8.5 19.5t22.5 7.5h145q19 0 26 8.5t7 28.5l-80 428q-1 12 -6.5 16t-17.5 4h-603 q-22 0 -34 -20l-260 -428q-9 -12 -9 -21q0 -16 25 -16h145q23 0 23 -16q0 -12 -8.5 -19.5t-22.5 -7.5h-325q-23 0 -23 16zM383 588q0 -19 25 -19h528q15 0 25 8t10 21v8l-123 672q-4 24 -7 28.5t-12 4.5q-7 0 -11 -4t-19 -29l-408 -672q-8 -11 -8 -18zM582 1507 q0 23 17 60.5t42 66.5q28 34 66.5 53t78.5 19q67 0 134 -78q43 -49 63.5 -63.5t48.5 -14.5q41 0 80.5 42.5t48.5 97.5q3 26 31 26q8 0 13 -5t5 -13q0 -20 -16.5 -56.5t-38.5 -64.5q-59 -74 -141 -74q-37 0 -61.5 15.5t-67.5 64.5q-37 41 -61.5 56.5t-53.5 15.5 q-50 0 -88 -41q-21 -21 -27.5 -33.5t-25.5 -67.5q-6 -24 -29 -24q-8 0 -13 5.5t-5 12.5z" />
<glyph unicode="&#xc4;" horiz-adv-x="1398" d="M-127 16q0 12 8.5 19.5t22.5 7.5h65q21 0 33 20l780 1270q26 45 66 45q36 0 45 -45l237 -1270q2 -12 7 -16t18 -4h70q20 0 20 -16q0 -12 -8.5 -19.5t-22.5 -7.5h-333q-21 0 -21 16q0 12 8.5 19.5t22.5 7.5h145q19 0 26 8.5t7 28.5l-80 428q-1 12 -6.5 16t-17.5 4h-603 q-22 0 -34 -20l-260 -428q-9 -12 -9 -21q0 -16 25 -16h145q23 0 23 -16q0 -12 -8.5 -19.5t-22.5 -7.5h-325q-23 0 -23 16zM383 588q0 -19 25 -19h528q15 0 25 8t10 21v8l-123 672q-4 24 -7 28.5t-12 4.5q-7 0 -11 -4t-19 -29l-408 -672q-8 -11 -8 -18zM623 1591q0 28 22 50 t51 22q23 0 37.5 -13.5t14.5 -33.5q0 -29 -23.5 -51.5t-52.5 -22.5q-22 0 -35.5 13.5t-13.5 35.5zM1018 1591q0 28 22.5 50t51.5 22q23 0 37 -13t14 -34q0 -29 -23.5 -51.5t-52.5 -22.5q-22 0 -35.5 13.5t-13.5 35.5z" />
<glyph unicode="&#xc5;" horiz-adv-x="1398" d="M-127 16q0 12 8.5 19.5t22.5 7.5h65q21 0 33 20l780 1270q26 45 66 45q36 0 45 -45l237 -1270q2 -12 7 -16t18 -4h70q20 0 20 -16q0 -12 -8.5 -19.5t-22.5 -7.5h-333q-21 0 -21 16q0 12 8.5 19.5t22.5 7.5h145q19 0 26 8.5t7 28.5l-80 428q-1 12 -6.5 16t-17.5 4h-603 q-22 0 -34 -20l-260 -428q-9 -12 -9 -21q0 -16 25 -16h145q23 0 23 -16q0 -12 -8.5 -19.5t-22.5 -7.5h-325q-23 0 -23 16zM383 588q0 -19 25 -19h528q15 0 25 8t10 21v8l-123 672q-4 24 -7 28.5t-12 4.5q-7 0 -11 -4t-19 -29l-408 -672q-8 -11 -8 -18zM713 1579 q0 86 69 153.5t158 67.5q63 0 104 -40.5t41 -102.5q0 -86 -69 -153.5t-158 -67.5q-63 0 -104 40.5t-41 102.5zM756 1589q0 -48 31.5 -79t80.5 -31q67 0 120.5 51.5t53.5 116.5q0 48 -31.5 79t-80.5 31q-68 0 -121 -51t-53 -117z" />
<glyph unicode="&#xc6;" horiz-adv-x="1888" d="M-127 16q0 12 8.5 19.5t22.5 7.5h39q19 0 32 16l940 1260q34 47 76 47h867q24 0 24 -16q0 -9 -2 -13l-74 -350q-6 -29 -30 -29q-8 0 -13.5 6t-5.5 13q0 6 2 10l66 309v11q-3 18 -23 18h-715q-31 0 -34 -33l-23 -542q1 -17 5 -21t18 -4h309q29 0 35 29l37 176q6 28 30 28 q19 0 19 -18v-10l-103 -479q-6 -29 -30 -29q-19 0 -19 16q0 9 2 13l43 202v11q0 18 -24 18h-293q-32 0 -35 -33l-27 -581q-3 -25 25 -25h524q29 0 35 29l68 321q6 29 30 29q7 0 13 -6t6 -13q0 -8 -2 -10l-76 -364q-9 -29 -35 -29h-874q-23 0 -23 16q0 12 8.5 19.5t22.5 7.5 h192q35 0 35 33l19 387v4q0 20 -25 20h-571q-19 0 -33 -16l-293 -389q-8 -16 -8 -21q0 -18 24 -18h146q22 0 22 -16q0 -12 -8.5 -19.5t-21.5 -7.5h-301q-23 0 -23 16zM401 549q0 -19 25 -19h510q35 0 35 33l35 742q0 20 -19 20q-13 0 -26 -16l-551 -740q-9 -13 -9 -20z" />
<glyph unicode="&#xc7;" horiz-adv-x="1290" d="M74 459q0 190 64 374.5t173 307.5q104 119 242.5 184.5t284.5 65.5q103 0 191.5 -38t139.5 -104q26 -33 38.5 -65.5t19.5 -87.5l53 241q1 13 9.5 21t19.5 8q7 0 12.5 -5t5.5 -13v-11l-90 -424q-6 -28 -31 -28q-18 0 -18 18q0 15 4 31q6 50 6 74q0 151 -103 243t-272 92 q-148 0 -282 -71.5t-228 -200.5q-85 -117 -134.5 -281t-49.5 -325q0 -203 112.5 -321.5t305.5 -118.5q186 0 332 107t200 282q11 37 37 37q9 0 16 -6t7 -15q0 -44 -51.5 -132.5t-110.5 -145.5q-174 -168 -430 -177l-70 -79q-4 -4 -4 -11q0 -6 8 -6q9 0 13 2l22 2 q57 0 93 -31t36 -79q0 -71 -66.5 -127t-150.5 -56q-64 0 -117 15.5t-53 34.5q0 10 9 19t20 9q8 0 14 -4q56 -26 115 -26q69 0 119.5 35.5t50.5 86.5q0 33 -29 54.5t-74 21.5q-44 0 -84 -16q-12 -4 -18 -4q-5 0 -8.5 4t-3.5 8q0 8 8 16l121 133q-201 14 -312.5 140.5 t-111.5 341.5z" />
<glyph unicode="&#xc8;" horiz-adv-x="1226" d="M-70 16q0 12 8.5 19.5t22.5 7.5h148q28 0 34 29l260 1224q3 6 3 11q0 18 -25 18h-148q-22 0 -22 16q0 11 9 18t22 7h964q20 0 23 -16v-13l-74 -350q-6 -29 -31 -29q-7 0 -12.5 5.5t-5.5 13.5v10l65 309q3 6 3 11q0 18 -25 18h-657q-29 0 -35 -29l-117 -548v-11 q0 -18 25 -18h364q29 0 35 29l39 182q6 28 31 28q8 0 13 -5t5 -13q0 -6 -2 -10l-102 -479q-6 -29 -31 -29q-7 0 -13 5t-6 11q0 7 2 13l43 198v10q-3 19 -22 19h-367q-29 0 -35 -29l-122 -577l-2 -11q-1 -9 5.5 -13.5t18.5 -4.5h668q29 0 35 29l67 319q6 31 31 31 q7 0 12.5 -5.5t5.5 -13.5t-2 -12l-75 -362q-9 -29 -35 -29h-973q-23 0 -23 16zM723 1698q0 12 11.5 22.5t23.5 10.5t22 -19l94 -201q1 -2 2 -5t2 -5t1 -4q0 -10 -9 -18.5t-20 -8.5q-10 0 -19 15l-104 194q-4 12 -4 19z" />
<glyph unicode="&#xc9;" horiz-adv-x="1226" d="M-70 16q0 12 8.5 19.5t22.5 7.5h148q28 0 34 29l260 1224q3 6 3 11q0 18 -25 18h-148q-22 0 -22 16q0 11 9 18t22 7h964q20 0 23 -16v-13l-74 -350q-6 -29 -31 -29q-7 0 -12.5 5.5t-5.5 13.5v10l65 309q3 6 3 11q0 18 -25 18h-657q-29 0 -35 -29l-117 -548v-11 q0 -18 25 -18h364q29 0 35 29l39 182q6 28 31 28q8 0 13 -5t5 -13q0 -6 -2 -10l-102 -479q-6 -29 -31 -29q-7 0 -13 5t-6 11q0 7 2 13l43 198v10q-3 19 -22 19h-367q-29 0 -35 -29l-122 -577l-2 -11q-1 -9 5.5 -13.5t18.5 -4.5h668q29 0 35 29l67 319q6 31 31 31 q7 0 12.5 -5.5t5.5 -13.5t-2 -12l-75 -362q-9 -29 -35 -29h-973q-23 0 -23 16zM754 1491q0 8 12 20l180 203q16 19 31 19q10 0 17 -7t7 -16q0 -17 -14 -31l-190 -194q-12 -12 -25 -12q-8 0 -13 5.5t-5 12.5z" />
<glyph unicode="&#xca;" horiz-adv-x="1226" d="M-70 16q0 12 8.5 19.5t22.5 7.5h148q28 0 34 29l260 1224q3 6 3 11q0 18 -25 18h-148q-22 0 -22 16q0 11 9 18t22 7h964q20 0 23 -16v-13l-74 -350q-6 -29 -31 -29q-7 0 -12.5 5.5t-5.5 13.5v10l65 309q3 6 3 11q0 18 -25 18h-657q-29 0 -35 -29l-117 -548v-11 q0 -18 25 -18h364q29 0 35 29l39 182q6 28 31 28q8 0 13 -5t5 -13q0 -6 -2 -10l-102 -479q-6 -29 -31 -29q-7 0 -13 5t-6 11q0 7 2 13l43 198v10q-3 19 -22 19h-367q-29 0 -35 -29l-122 -577l-2 -11q-1 -9 5.5 -13.5t18.5 -4.5h668q29 0 35 29l67 319q6 31 31 31 q7 0 12.5 -5.5t5.5 -13.5t-2 -12l-75 -362q-9 -29 -35 -29h-973q-23 0 -23 16zM567 1487q0 12 15 24l241 230q23 20 41 20q20 0 33 -20l143 -230q4 -8 4 -16q0 -10 -9.5 -19.5t-20.5 -9.5t-21 13l-127 200q-10 13 -18 13q-9 0 -25 -13l-211 -198q-16 -13 -24 -13 q-9 0 -15 5.5t-6 13.5z" />
<glyph unicode="&#xcb;" horiz-adv-x="1226" d="M-70 16q0 12 8.5 19.5t22.5 7.5h148q28 0 34 29l260 1224q3 6 3 11q0 18 -25 18h-148q-22 0 -22 16q0 11 9 18t22 7h964q20 0 23 -16v-13l-74 -350q-6 -29 -31 -29q-7 0 -12.5 5.5t-5.5 13.5v10l65 309q3 6 3 11q0 18 -25 18h-657q-29 0 -35 -29l-117 -548v-11 q0 -18 25 -18h364q29 0 35 29l39 182q6 28 31 28q8 0 13 -5t5 -13q0 -6 -2 -10l-102 -479q-6 -29 -31 -29q-7 0 -13 5t-6 11q0 7 2 13l43 198v10q-3 19 -22 19h-367q-29 0 -35 -29l-122 -577l-2 -11q-1 -9 5.5 -13.5t18.5 -4.5h668q29 0 35 29l67 319q6 31 31 31 q7 0 12.5 -5.5t5.5 -13.5t-2 -12l-75 -362q-9 -29 -35 -29h-973q-23 0 -23 16zM565 1591q0 28 22.5 50t51.5 22q23 0 37 -13t14 -34q0 -29 -23.5 -51.5t-52.5 -22.5q-22 0 -35.5 13.5t-13.5 35.5zM961 1591q0 28 22 50t51 22q23 0 37 -13t14 -34q0 -29 -23 -51.5t-52 -22.5 q-22 0 -35.5 13.5t-13.5 35.5z" />
<glyph unicode="&#xcc;" horiz-adv-x="626" d="M-72 16q0 12 8.5 19.5t22.5 7.5h162q29 0 35 29l260 1224q2 4 2 11q0 18 -25 18h-162q-22 0 -22 16q0 11 9 18t22 7h434q20 0 20 -16q0 -11 -8.5 -18t-21.5 -7h-160q-29 0 -35 -29l-260 -1224l-2 -11q0 -18 24 -18h160q23 0 23 -16q0 -12 -8.5 -19.5t-22.5 -7.5h-432 q-23 0 -23 16zM383 1698q0 12 12 22.5t25 10.5q14 0 22 -19l95 -201q4 -12 4 -14q0 -10 -9 -18.5t-20 -8.5q-12 0 -18 15l-105 194q-6 9 -6 19z" />
<glyph unicode="&#xcd;" horiz-adv-x="626" d="M-72 16q0 12 8.5 19.5t22.5 7.5h162q29 0 35 29l260 1224q2 4 2 11q0 18 -25 18h-162q-22 0 -22 16q0 11 9 18t22 7h434q20 0 20 -16q0 -11 -8.5 -18t-21.5 -7h-160q-29 0 -35 -29l-260 -1224l-2 -11q0 -18 24 -18h160q23 0 23 -16q0 -12 -8.5 -19.5t-22.5 -7.5h-432 q-23 0 -23 16zM446 1491q0 9 11 20l182 203q16 19 31 19q10 0 17 -7t7 -16q0 -15 -16 -31l-191 -194q-12 -12 -22 -12q-8 0 -13.5 5.5t-5.5 12.5z" />
<glyph unicode="&#xce;" horiz-adv-x="626" d="M-72 16q0 12 8.5 19.5t22.5 7.5h162q29 0 35 29l260 1224q2 4 2 11q0 18 -25 18h-162q-22 0 -22 16q0 11 9 18t22 7h434q20 0 20 -16q0 -11 -8.5 -18t-21.5 -7h-160q-29 0 -35 -29l-260 -1224l-2 -11q0 -18 24 -18h160q23 0 23 -16q0 -12 -8.5 -19.5t-22.5 -7.5h-432 q-23 0 -23 16zM242 1487q0 13 14 24l242 230q22 20 41 20t32 -20l144 -230q4 -8 4 -16q0 -10 -10 -19.5t-21 -9.5q-10 0 -20 13l-127 200q-10 13 -19 13q-8 0 -24 -13l-213 -198q-13 -13 -23 -13q-9 0 -14.5 5.5t-5.5 13.5z" />
<glyph unicode="&#xcf;" horiz-adv-x="626" d="M-72 16q0 12 8.5 19.5t22.5 7.5h162q29 0 35 29l260 1224q2 4 2 11q0 18 -25 18h-162q-22 0 -22 16q0 11 9 18t22 7h434q20 0 20 -16q0 -11 -8.5 -18t-21.5 -7h-160q-29 0 -35 -29l-260 -1224l-2 -11q0 -18 24 -18h160q23 0 23 -16q0 -12 -8.5 -19.5t-22.5 -7.5h-432 q-23 0 -23 16zM309 1591q0 28 22.5 50t51.5 22q23 0 37 -13t14 -34q0 -29 -23.5 -51.5t-52.5 -22.5q-22 0 -35.5 13.5t-13.5 35.5zM582 1591q0 28 22 50t51 22q23 0 37.5 -13.5t14.5 -33.5q0 -29 -23.5 -51.5t-52.5 -22.5q-22 0 -35.5 13.5t-13.5 35.5z" />
<glyph unicode="&#xd0;" horiz-adv-x="1445" d="M-57 16q0 12 8.5 19.5t21.5 7.5h148q29 0 35 29l131 614h-176q-23 0 -23 16q0 11 9 18t22 7h176l121 569q2 6 2 11q0 18 -25 18h-147q-23 0 -23 16q0 11 9 18t22 7h498q179 0 277.5 -25.5t180.5 -93.5q160 -135 160 -370q0 -184 -74 -362t-200 -300 q-119 -113 -269.5 -164t-363.5 -51h-498q-22 0 -22 16zM207 59q0 -16 24 -16h234q218 0 375.5 64.5t271.5 199.5q94 113 147.5 261t53.5 300q0 210 -137 332q-75 67 -175.5 96t-257.5 29h-239q-29 0 -35 -29l-121 -569h504q20 0 20 -16q0 -11 -8.5 -18t-21.5 -7h-502 l-131 -614q-2 -6 -2 -13z" />
<glyph unicode="&#xd1;" horiz-adv-x="1497" d="M-76 16q0 12 8.5 19.5t22.5 7.5h154q25 0 34 29l260 1224v11q0 18 -22 18h-154q-22 0 -22 16q0 11 9 18t22 7h260q17 0 24 -14l512 -1221q13 -29 23 -29q8 0 15.5 12t10.5 29l246 1153l2 11q0 18 -24 18h-164q-23 0 -23 16q0 11 9 18t22 7h405q23 0 23 -16q0 -11 -9 -18 t-22 -7h-131q-29 0 -35 -29l-264 -1239q-8 -38 -18.5 -52.5t-32.5 -14.5q-37 0 -57 49l-514 1216q-13 29 -23 29q-8 0 -16 -12.5t-11 -30.5l-247 -1169q-2 -4 -2 -11q0 -18 24 -18h160q20 0 20 -16q0 -12 -8.5 -19.5t-21.5 -7.5h-422q-23 0 -23 16zM629 1507q0 23 17 60.5 t42 66.5q28 34 67 53t79 19q35 0 65.5 -18t67.5 -60q43 -49 63.5 -63.5t48.5 -14.5q41 0 80.5 42.5t48.5 97.5q3 26 31 26q7 0 12.5 -5t5.5 -13q0 -20 -16.5 -56.5t-38.5 -64.5q-59 -74 -141 -74q-37 0 -61.5 15.5t-67.5 64.5q-37 41 -61.5 56.5t-53.5 15.5q-50 0 -88 -41 q-21 -21 -27.5 -33.5t-25.5 -67.5q-6 -24 -29 -24q-7 0 -12.5 5.5t-5.5 12.5z" />
<glyph unicode="&#xd2;" horiz-adv-x="1411" d="M70 444q0 171 53.5 345.5t144.5 297.5q106 143 261.5 223.5t328.5 80.5q221 0 354.5 -128.5t133.5 -342.5q0 -159 -54.5 -335t-142.5 -304q-98 -141 -257.5 -223.5t-336.5 -82.5q-221 0 -353 127.5t-132 341.5zM127 449q0 -194 119.5 -310t320.5 -116q177 0 325.5 86 t240.5 243q73 126 114 272.5t41 282.5q0 203 -117 319.5t-321 116.5q-178 0 -327.5 -85t-241.5 -240q-70 -115 -112 -269.5t-42 -299.5zM807 1698q0 12 12 22.5t25 10.5q12 0 22 -19l95 -201q4 -12 4 -14q0 -10 -9 -18.5t-20 -8.5q-12 0 -18 15l-105 194q-6 12 -6 19z" />
<glyph unicode="&#xd3;" horiz-adv-x="1411" d="M70 444q0 171 53.5 345.5t144.5 297.5q106 143 261.5 223.5t328.5 80.5q221 0 354.5 -128.5t133.5 -342.5q0 -159 -54.5 -335t-142.5 -304q-98 -141 -257.5 -223.5t-336.5 -82.5q-221 0 -353 127.5t-132 341.5zM127 449q0 -194 119.5 -310t320.5 -116q177 0 325.5 86 t240.5 243q73 126 114 272.5t41 282.5q0 203 -117 319.5t-321 116.5q-178 0 -327.5 -85t-241.5 -240q-70 -115 -112 -269.5t-42 -299.5zM840 1491q0 8 12 20l180 203q16 19 31 19q10 0 17 -7t7 -16q0 -14 -14 -31l-190 -194q-12 -12 -25 -12q-8 0 -13 5.5t-5 12.5z" />
<glyph unicode="&#xd4;" horiz-adv-x="1411" d="M70 444q0 171 53.5 345.5t144.5 297.5q106 143 261.5 223.5t328.5 80.5q221 0 354.5 -128.5t133.5 -342.5q0 -159 -54.5 -335t-142.5 -304q-98 -141 -257.5 -223.5t-336.5 -82.5q-221 0 -353 127.5t-132 341.5zM127 449q0 -194 119.5 -310t320.5 -116q177 0 325.5 86 t240.5 243q73 126 114 272.5t41 282.5q0 203 -117 319.5t-321 116.5q-178 0 -327.5 -85t-241.5 -240q-70 -115 -112 -269.5t-42 -299.5zM641 1487q0 12 12 24l244 230q20 20 41 20q18 0 31 -20l143 -230q6 -6 6 -16t-10 -19.5t-21 -9.5q-10 0 -20 13l-127 200q-10 13 -18 13 q-9 0 -25 -13l-213 -198q-13 -13 -22 -13t-15 5.5t-6 13.5z" />
<glyph unicode="&#xd5;" horiz-adv-x="1411" d="M70 444q0 171 53.5 345.5t144.5 297.5q106 143 261.5 223.5t328.5 80.5q221 0 354.5 -128.5t133.5 -342.5q0 -159 -54.5 -335t-142.5 -304q-98 -141 -257.5 -223.5t-336.5 -82.5q-221 0 -353 127.5t-132 341.5zM127 449q0 -194 119.5 -310t320.5 -116q177 0 325.5 86 t240.5 243q73 126 114 272.5t41 282.5q0 203 -117 319.5t-321 116.5q-178 0 -327.5 -85t-241.5 -240q-70 -115 -112 -269.5t-42 -299.5zM588 1507q0 23 17 60.5t42 66.5q28 34 67 53t79 19q35 0 65.5 -18t67.5 -60q43 -49 63.5 -63.5t48.5 -14.5q41 0 80.5 42.5t48.5 97.5 q3 26 31 26q8 0 13.5 -5.5t5.5 -12.5q0 -20 -17 -56.5t-39 -64.5q-59 -74 -141 -74q-37 0 -61.5 15.5t-67.5 64.5q-37 41 -61.5 56.5t-53.5 15.5q-50 0 -88 -41q-21 -21 -27.5 -33.5t-25.5 -67.5q-6 -24 -29 -24q-8 0 -13 5.5t-5 12.5z" />
<glyph unicode="&#xd6;" horiz-adv-x="1411" d="M70 444q0 171 53.5 345.5t144.5 297.5q106 143 261.5 223.5t328.5 80.5q221 0 354.5 -128.5t133.5 -342.5q0 -159 -54.5 -335t-142.5 -304q-98 -141 -257.5 -223.5t-336.5 -82.5q-221 0 -353 127.5t-132 341.5zM127 449q0 -194 119.5 -310t320.5 -116q177 0 325.5 86 t240.5 243q73 126 114 272.5t41 282.5q0 203 -117 319.5t-321 116.5q-178 0 -327.5 -85t-241.5 -240q-70 -115 -112 -269.5t-42 -299.5zM643 1591q0 28 22.5 50t51.5 22q22 0 35.5 -13.5t13.5 -33.5q0 -29 -22.5 -51.5t-51.5 -22.5q-22 0 -35.5 13.5t-13.5 35.5zM1038 1591 q0 28 22.5 50t51.5 22q23 0 37 -13t14 -34q0 -29 -23.5 -51.5t-52.5 -22.5q-22 0 -35.5 13.5t-13.5 35.5z" />
<glyph unicode="&#xd7;" d="M104 379q0 10 15 22l366 301l-237 304q-6 6 -6 14q0 10 8.5 18.5t19.5 8.5q6 0 17 -11l237 -301l365 301q15 11 22 11t13 -5.5t6 -13.5q0 -11 -17 -22l-364 -304l237 -301q7 -11 7 -16q0 -9 -9.5 -18t-19.5 -9q-6 0 -16 13l-238 301l-367 -301q-11 -11 -20 -11 q-7 0 -13 6t-6 13z" />
<glyph unicode="&#xd8;" horiz-adv-x="1429" d="M-45 -25q0 11 12 23l185 176q-74 121 -74 275q0 165 54.5 340t143.5 298q106 143 261.5 223.5t326.5 80.5q245 0 387 -164l187 178q12 12 20 12t13.5 -5.5t5.5 -12.5q0 -8 -13 -21l-188 -182q76 -124 76 -278q0 -157 -54.5 -332t-142.5 -305q-99 -142 -257.5 -224 t-336.5 -82q-250 0 -387 166l-178 -172q-15 -12 -23 -12q-7 0 -12.5 5.5t-5.5 12.5zM135 453q0 -135 58 -238l1017 973q-118 155 -354 155q-177 0 -326 -85.5t-243 -239.5q-69 -116 -110.5 -270t-41.5 -295zM215 180q129 -157 358 -157q177 0 326 87t240 242q73 125 114 272 t41 281q0 139 -61 252z" />
<glyph unicode="&#xd9;" horiz-adv-x="1454" d="M190 332q0 78 23 196l164 768l2 11q1 9 -6 13.5t-19 4.5h-135q-22 0 -22 16q0 11 8.5 18t21.5 7h412q20 0 20 -16q0 -11 -8.5 -18t-21.5 -7h-164q-29 0 -35 -29l-164 -766q-20 -97 -20 -188q0 -66 23.5 -127t66.5 -102q90 -90 264 -90q207 0 347 130t192 373l164 770v11 q0 18 -23 18h-166q-20 0 -20 16q0 11 8.5 18t21.5 7h400q22 0 22 -16q0 -11 -8.5 -18t-21.5 -7h-132q-28 0 -34 -29l-164 -772q-26 -121 -62.5 -200.5t-97.5 -147.5q-174 -201 -440 -201q-208 0 -310 117q-86 99 -86 240zM795 1698q0 12 11.5 22.5t24.5 10.5t23 -19l94 -201 q4 -12 4 -14q0 -9 -9 -18t-19 -9q-13 0 -19 15l-104 194q-6 9 -6 19z" />
<glyph unicode="&#xda;" horiz-adv-x="1454" d="M190 332q0 78 23 196l164 768l2 11q1 9 -6 13.5t-19 4.5h-135q-22 0 -22 16q0 11 8.5 18t21.5 7h412q20 0 20 -16q0 -11 -8.5 -18t-21.5 -7h-164q-29 0 -35 -29l-164 -766q-20 -97 -20 -188q0 -66 23.5 -127t66.5 -102q90 -90 264 -90q207 0 347 130t192 373l164 770v11 q0 18 -23 18h-166q-20 0 -20 16q0 11 8.5 18t21.5 7h400q22 0 22 -16q0 -11 -8.5 -18t-21.5 -7h-132q-28 0 -34 -29l-164 -772q-26 -121 -62.5 -200.5t-97.5 -147.5q-174 -201 -440 -201q-208 0 -310 117q-86 99 -86 240zM879 1491q0 7 10 20l182 203q16 19 31 19 q10 0 17 -7t7 -16q0 -15 -16 -31l-188 -194q-12 -12 -25 -12q-7 0 -12.5 5.5t-5.5 12.5z" />
<glyph unicode="&#xdb;" horiz-adv-x="1454" d="M190 332q0 78 23 196l164 768l2 11q1 9 -6 13.5t-19 4.5h-135q-22 0 -22 16q0 11 8.5 18t21.5 7h412q20 0 20 -16q0 -11 -8.5 -18t-21.5 -7h-164q-29 0 -35 -29l-164 -766q-20 -97 -20 -188q0 -66 23.5 -127t66.5 -102q90 -90 264 -90q207 0 347 130t192 373l164 770v11 q0 18 -23 18h-166q-20 0 -20 16q0 11 8.5 18t21.5 7h400q22 0 22 -16q0 -11 -8.5 -18t-21.5 -7h-132q-28 0 -34 -29l-164 -772q-26 -121 -62.5 -200.5t-97.5 -147.5q-174 -201 -440 -201q-208 0 -310 117q-86 99 -86 240zM662 1487q0 13 14 24l242 230q22 20 40 20 q20 0 33 -20l144 -230q4 -8 4 -16q0 -10 -10 -19.5t-21 -9.5t-21 13l-126 200q-10 13 -19 13q-8 0 -24 -13l-213 -198q-13 -13 -23 -13q-9 0 -14.5 5.5t-5.5 13.5z" />
<glyph unicode="&#xdc;" horiz-adv-x="1454" d="M190 332q0 78 23 196l164 768l2 11q1 9 -6 13.5t-19 4.5h-135q-22 0 -22 16q0 11 8.5 18t21.5 7h412q20 0 20 -16q0 -11 -8.5 -18t-21.5 -7h-164q-29 0 -35 -29l-164 -766q-20 -97 -20 -188q0 -66 23.5 -127t66.5 -102q90 -90 264 -90q207 0 347 130t192 373l164 770v11 q0 18 -23 18h-166q-20 0 -20 16q0 11 8.5 18t21.5 7h400q22 0 22 -16q0 -11 -8.5 -18t-21.5 -7h-132q-28 0 -34 -29l-164 -772q-26 -121 -62.5 -200.5t-97.5 -147.5q-174 -201 -440 -201q-208 0 -310 117q-86 99 -86 240zM664 1591q0 28 22 50t51 22q23 0 37 -13t14 -34 q0 -29 -23 -51.5t-52 -22.5q-22 0 -35.5 13.5t-13.5 35.5zM1059 1591q0 28 22.5 50t51.5 22q23 0 37 -13t14 -34q0 -29 -23.5 -51.5t-52.5 -22.5q-22 0 -35.5 13.5t-13.5 35.5z" />
<glyph unicode="&#xdd;" horiz-adv-x="1249" d="M154 1341q0 11 8.5 18t21.5 7h361q20 0 20 -16q0 -11 -8.5 -18t-21.5 -7h-144q-15 0 -25 -8.5t-10 -20.5l4 -12l252 -661l541 661q10 17 10 23q0 18 -24 18h-146q-20 0 -20 16q0 11 9 18t22 7h350q22 0 22 -16q0 -11 -8.5 -18t-21.5 -7h-89q-12 0 -17.5 -2.5t-14.5 -13.5 l-590 -727q-7 -9 -12 -23l-103 -487q-2 -4 -2 -11q0 -18 25 -18h205q20 0 20 -16q0 -12 -8.5 -19.5t-22.5 -7.5h-520q-20 0 -20 16q0 12 8.5 19.5t21.5 7.5h205q29 0 35 29l102 487q2 2 2 10l-2 13l-280 727q-7 16 -25 16h-88q-22 0 -22 16zM758 1491q0 7 10 20l182 203 q16 19 31 19q10 0 17.5 -7t7.5 -16q0 -14 -17 -31l-188 -194q-15 -12 -25 -12q-8 0 -13 5.5t-5 12.5z" />
<glyph unicode="&#xde;" horiz-adv-x="1126" d="M-66 16q0 12 8.5 19.5t22.5 7.5h144q28 0 34 29l260 1224v11q-3 18 -22 18h-143q-23 0 -23 16q0 11 9 18t22 7h397q21 0 21 -16q0 -10 -8.5 -17.5t-20.5 -7.5h-143q-29 0 -35 -29l-41 -186v-10q0 -19 24 -19h224q141 0 219 -19t121 -65q71 -74 71 -202q0 -90 -35 -176 t-98 -152q-78 -82 -184.5 -113.5t-300.5 -31.5h-178q-29 0 -35 -29l-47 -221q-2 -4 -2 -13q0 -16 24 -16h187q20 0 20 -16q0 -12 -8.5 -19.5t-22.5 -7.5h-438q-23 0 -23 16zM262 383q0 -18 25 -18h178q185 0 289.5 35.5t173.5 123.5q90 117 90 262q0 118 -68 183 q-38 38 -106.5 54.5t-188.5 16.5h-225q-29 0 -35 -28l-131 -619z" />
<glyph unicode="&#xdf;" horiz-adv-x="1060" d="M-104 14q0 9 8 16t18 7h123q29 0 35 29l186 874q50 229 164.5 339t304.5 110q133 0 207 -63t74 -177q0 -152 -85 -264t-220 -140q-17 -3 -17 -6l4 -4q103 -12 163.5 -85t60.5 -185q0 -135 -67 -254.5t-173 -171.5q-82 -43 -229 -43q-29 0 -39.5 3.5t-10.5 14.5 q0 9 8.5 16t20.5 7h19q12 -2 26 -2q171 0 282 121.5t111 308.5q0 78 -31 130t-100 87q-47 25 -133 33q-22 2 -28.5 5t-6.5 15q0 17 12 24.5t44 8.5q149 9 243.5 114t94.5 263q0 95 -65.5 149t-180.5 54q-102 0 -188 -48.5t-140 -136.5q-45 -74 -76 -223l-186 -874v-11 q3 -18 23 -18h79q19 0 19 -14q0 -9 -7.5 -16t-19.5 -7h-307q-20 0 -20 14z" />
<glyph unicode="&#xe0;" horiz-adv-x="1062" d="M-8 193q0 77 38.5 151t104.5 123q72 54 175 75t292 21q104 0 139 -4h19q16 0 26 14q6 11 17.5 84t11.5 103q0 78 -68 126t-178 48q-144 0 -241.5 -58.5t-132.5 -166.5q-12 -31 -33 -31q-9 0 -16 5.5t-7 12.5q0 38 46 102t100 101q116 78 288 78q136 0 215.5 -57 t79.5 -154q0 -72 -18 -160l-117 -540v-11q0 -18 23 -18h110q21 0 21 -14q0 -9 -8.5 -16t-20.5 -7h-158q-24 0 -24 16q0 9 2 13l39 186q-93 -136 -189.5 -190t-248.5 -54q-137 0 -212 58t-75 164zM45 197q0 -89 66 -137t190 -48q275 0 408 254q12 23 36.5 116.5t24.5 115.5 q0 9 -10 16q-5 2 -93.5 5t-144.5 3q-236 0 -354 -86q-123 -91 -123 -239zM530 1327q0 12 12 22.5t25 10.5t23 -19l94 -200q4 -12 4 -15q0 -9 -9.5 -17.5t-19.5 -8.5q-12 0 -18 14l-104 195q-7 10 -7 18z" />
<glyph unicode="&#xe1;" horiz-adv-x="1062" d="M-8 193q0 77 38.5 151t104.5 123q72 54 175 75t292 21q104 0 139 -4h19q16 0 26 14q6 11 17.5 84t11.5 103q0 78 -68 126t-178 48q-144 0 -241.5 -58.5t-132.5 -166.5q-12 -31 -33 -31q-9 0 -16 5.5t-7 12.5q0 38 46 102t100 101q116 78 288 78q136 0 215.5 -57 t79.5 -154q0 -72 -18 -160l-117 -540v-11q0 -18 23 -18h110q21 0 21 -14q0 -9 -8.5 -16t-20.5 -7h-158q-24 0 -24 16q0 9 2 13l39 186q-93 -136 -189.5 -190t-248.5 -54q-137 0 -212 58t-75 164zM45 197q0 -89 66 -137t190 -48q275 0 408 254q12 23 36.5 116.5t24.5 115.5 q0 9 -10 16q-5 2 -93.5 5t-144.5 3q-236 0 -354 -86q-123 -91 -123 -239zM571 1120q0 6 11 21l184 205q18 18 31 18q10 0 17 -7t7 -16q0 -14 -16 -30l-191 -197q-12 -12 -24 -12q-8 0 -13.5 5.5t-5.5 12.5z" />
<glyph unicode="&#xe2;" horiz-adv-x="1062" d="M-8 193q0 77 38.5 151t104.5 123q72 54 175 75t292 21q104 0 139 -4h19q16 0 26 14q6 11 17.5 84t11.5 103q0 78 -68 126t-178 48q-144 0 -241.5 -58.5t-132.5 -166.5q-12 -31 -33 -31q-9 0 -16 5.5t-7 12.5q0 38 46 102t100 101q116 78 288 78q136 0 215.5 -57 t79.5 -154q0 -72 -18 -160l-117 -540v-11q0 -18 23 -18h110q21 0 21 -14q0 -9 -8.5 -16t-20.5 -7h-158q-24 0 -24 16q0 9 2 13l39 186q-93 -136 -189.5 -190t-248.5 -54q-137 0 -212 58t-75 164zM45 197q0 -89 66 -137t190 -48q275 0 408 254q12 23 36.5 116.5t24.5 115.5 q0 9 -10 16q-5 2 -93.5 5t-144.5 3q-236 0 -354 -86q-123 -91 -123 -239zM358 1116q0 13 15 25l241 227q26 23 41 23q20 0 33 -23l141 -225q7 -11 7 -17q0 -10 -10 -19t-21 -9q-12 0 -21 12l-127 199q-9 12 -18 12q-11 0 -23 -12l-215 -199q-14 -14 -22 -14q-21 0 -21 20z " />
<glyph unicode="&#xe3;" horiz-adv-x="1062" d="M-8 193q0 77 38.5 151t104.5 123q72 54 175 75t292 21q104 0 139 -4h19q16 0 26 14q6 11 17.5 84t11.5 103q0 78 -68 126t-178 48q-144 0 -241.5 -58.5t-132.5 -166.5q-12 -31 -33 -31q-9 0 -16 5.5t-7 12.5q0 38 46 102t100 101q116 78 288 78q136 0 215.5 -57 t79.5 -154q0 -72 -18 -160l-117 -540v-11q0 -18 23 -18h110q21 0 21 -14q0 -9 -8.5 -16t-20.5 -7h-158q-24 0 -24 16q0 9 2 13l39 186q-93 -136 -189.5 -190t-248.5 -54q-137 0 -212 58t-75 164zM45 197q0 -89 66 -137t190 -48q275 0 408 254q12 23 36.5 116.5t24.5 115.5 q0 9 -10 16q-5 2 -93.5 5t-144.5 3q-236 0 -354 -86q-123 -91 -123 -239zM307 1137q0 23 17.5 60.5t42.5 66.5q58 71 147 71q34 0 64 -18.5t67 -61.5q42 -49 63.5 -63t49.5 -14q43 0 76.5 36.5t52.5 106.5q7 25 31 25q7 0 12.5 -5.5t5.5 -13.5q0 -24 -25 -72 q-64 -125 -172 -125q-37 0 -61.5 15.5t-67.5 64.5q-37 43 -61 58.5t-53 15.5q-101 0 -142 -141q-7 -25 -28 -25q-8 0 -13.5 6t-5.5 13z" />
<glyph unicode="&#xe4;" horiz-adv-x="1062" d="M-8 193q0 77 38.5 151t104.5 123q72 54 175 75t292 21q104 0 139 -4h19q16 0 26 14q6 11 17.5 84t11.5 103q0 78 -68 126t-178 48q-144 0 -241.5 -58.5t-132.5 -166.5q-12 -31 -33 -31q-9 0 -16 5.5t-7 12.5q0 38 46 102t100 101q116 78 288 78q136 0 215.5 -57 t79.5 -154q0 -72 -18 -160l-117 -540v-11q0 -18 23 -18h110q21 0 21 -14q0 -9 -8.5 -16t-20.5 -7h-158q-24 0 -24 16q0 9 2 13l39 186q-93 -136 -189.5 -190t-248.5 -54q-137 0 -212 58t-75 164zM45 197q0 -89 66 -137t190 -48q275 0 408 254q12 23 36.5 116.5t24.5 115.5 q0 9 -10 16q-5 2 -93.5 5t-144.5 3q-236 0 -354 -86q-123 -91 -123 -239zM354 1223q0 28 22.5 49.5t51.5 21.5q23 0 37 -13t14 -34q0 -29 -23 -51t-53 -22q-22 0 -35.5 13.5t-13.5 35.5zM750 1223q0 28 22 49.5t51 21.5q23 0 37 -13t14 -34q0 -29 -23 -51t-52 -22 q-22 0 -35.5 13.5t-13.5 35.5z" />
<glyph unicode="&#xe5;" horiz-adv-x="1062" d="M-8 193q0 77 38.5 151t104.5 123q72 54 175 75t292 21q104 0 139 -4h19q16 0 26 14q6 11 17.5 84t11.5 103q0 78 -68 126t-178 48q-144 0 -241.5 -58.5t-132.5 -166.5q-12 -31 -33 -31q-9 0 -16 5.5t-7 12.5q0 38 46 102t100 101q116 78 288 78q136 0 215.5 -57 t79.5 -154q0 -72 -18 -160l-117 -540v-11q0 -18 23 -18h110q21 0 21 -14q0 -9 -8.5 -16t-20.5 -7h-158q-24 0 -24 16q0 9 2 13l39 186q-93 -136 -189.5 -190t-248.5 -54q-137 0 -212 58t-75 164zM45 197q0 -89 66 -137t190 -48q275 0 408 254q12 23 36.5 116.5t24.5 115.5 q0 9 -10 16q-5 2 -93.5 5t-144.5 3q-236 0 -354 -86q-123 -91 -123 -239zM455 1208q0 86 69 154t158 68q63 0 104 -41t41 -103q0 -86 -69 -153.5t-158 -67.5q-63 0 -104 40.5t-41 102.5zM500 1219q0 -47 31.5 -79t78.5 -32q67 0 120.5 51.5t53.5 116.5q0 48 -31.5 79 t-80.5 31q-66 0 -119 -50.5t-53 -116.5z" />
<glyph unicode="&#xe6;" horiz-adv-x="1523" d="M-8 197q0 72 35.5 138.5t97.5 110.5q57 40 130 55t212 15h195q22 0 32 19q8 21 25.5 113.5t17.5 113.5q0 77 -59 121.5t-162 44.5q-111 0 -195 -52.5t-118 -142.5q-13 -34 -20 -42.5t-21 -8.5q-21 0 -21 20q0 42 47 105q113 162 340 162q252 0 258 -203v-16 q59 106 152.5 162.5t210.5 56.5q132 0 205 -75.5t73 -213.5q0 -74 -18 -148l-6 -26q-9 -27 -35 -27h-610q-23 0 -29 -14q-8 -14 -18.5 -87.5t-10.5 -115.5q0 -109 65.5 -171t180.5 -62q169 0 283 133q18 21 26.5 34.5t42.5 79.5q13 21 29 21q6 0 11 -5t5 -11 q0 -23 -33 -76.5t-71 -91.5q-127 -127 -309 -127q-137 0 -208.5 74.5t-70.5 215.5q-151 -294 -415 -294q-113 0 -178.5 57.5t-65.5 157.5zM39 197q0 -78 58.5 -126t152.5 -48q146 0 260 120q57 57 90 117t64 162q10 30 10 39q0 8 -4 11.5t-15 6.5h-69h-135 q-132 0 -199 -17.5t-121 -66.5q-92 -83 -92 -198zM745 535q0 -19 25 -19h557q26 0 35.5 33.5t9.5 128.5q0 121 -60 185.5t-173 64.5q-78 0 -149.5 -34.5t-125.5 -98.5q-32 -38 -75.5 -133t-43.5 -127z" />
<glyph unicode="&#xe7;" horiz-adv-x="1009" d="M18 309q0 133 50 269t133 231q71 80 168.5 124t205.5 44q121 0 197.5 -54.5t99.5 -156.5l31 149q6 29 29 29q18 0 18 -18v-11l-65 -299q-1 -13 -9.5 -20.5t-19.5 -7.5q-20 0 -20 22q0 17 2 27q4 36 4 51q0 117 -71.5 181.5t-199.5 64.5q-226 0 -376 -211 q-57 -82 -89 -184.5t-32 -206.5q0 -154 76 -236t217 -82q134 0 237 66t146 180q12 34 20 43.5t23 9.5q9 0 15.5 -5.5t6.5 -14.5q0 -33 -37 -92.5t-86 -104.5q-65 -62 -138.5 -91.5t-174.5 -33.5l-72 -77q-4 -6 -4 -9q0 -6 8 -6h11q6 2 18 2q60 0 96.5 -29.5t36.5 -78.5 q0 -69 -65 -124t-148 -55q-63 0 -114.5 14.5t-51.5 33.5q0 10 9 19t20 9q6 0 14 -4q60 -24 113 -24q68 0 117 35.5t49 84.5q0 32 -28.5 53t-72.5 21t-84 -16q-10 -4 -16 -4q-5 0 -8.5 4t-3.5 8q0 5 8 16l119 129q-153 12 -232.5 97.5t-79.5 238.5z" />
<glyph unicode="&#xe8;" horiz-adv-x="1034" d="M20 317q0 133 48.5 266.5t130.5 225.5q148 168 389 168q161 0 251.5 -90.5t90.5 -251.5q0 -40 -7 -88t-14 -58q-8 -14 -30 -14h-758q-25 0 -31 -14q-7 -13 -13.5 -56.5t-6.5 -80.5q0 -151 84 -231.5t241 -80.5q137 0 233.5 61.5t159.5 188.5q12 21 29 21q8 0 14.5 -6 t6.5 -13q0 -23 -37.5 -77t-81.5 -95q-130 -121 -334 -121q-180 0 -272.5 88t-92.5 258zM106 530q0 -18 25 -18h703q25 0 32.5 23.5t7.5 97.5q0 144 -79 223.5t-222 79.5q-140 0 -248 -72t-171 -207q-17 -35 -32.5 -76t-15.5 -51zM530 1327q0 12 12 22.5t25 10.5t23 -19 l94 -200q4 -12 4 -15q0 -10 -9 -18t-20 -8q-12 0 -18 14l-104 195q-7 10 -7 18z" />
<glyph unicode="&#xe9;" horiz-adv-x="1034" d="M20 317q0 133 48.5 266.5t130.5 225.5q148 168 389 168q161 0 251.5 -90.5t90.5 -251.5q0 -40 -7 -88t-14 -58q-8 -14 -30 -14h-758q-25 0 -31 -14q-7 -13 -13.5 -56.5t-6.5 -80.5q0 -151 84 -231.5t241 -80.5q137 0 233.5 61.5t159.5 188.5q12 21 29 21q8 0 14.5 -6 t6.5 -13q0 -23 -37.5 -77t-81.5 -95q-130 -121 -334 -121q-180 0 -272.5 88t-92.5 258zM106 530q0 -18 25 -18h703q25 0 32.5 23.5t7.5 97.5q0 144 -79 223.5t-222 79.5q-140 0 -248 -72t-171 -207q-17 -35 -32.5 -76t-15.5 -51zM590 1120q0 11 10 21l182 205q15 18 31 18 q10 0 17.5 -7t7.5 -16q0 -15 -15 -30l-192 -197q-12 -12 -23 -12q-8 0 -13 5t-5 13z" />
<glyph unicode="&#xea;" horiz-adv-x="1034" d="M20 317q0 133 48.5 266.5t130.5 225.5q148 168 389 168q161 0 251.5 -90.5t90.5 -251.5q0 -40 -7 -88t-14 -58q-8 -14 -30 -14h-758q-25 0 -31 -14q-7 -13 -13.5 -56.5t-6.5 -80.5q0 -151 84 -231.5t241 -80.5q137 0 233.5 61.5t159.5 188.5q12 21 29 21q8 0 14.5 -6 t6.5 -13q0 -23 -37.5 -77t-81.5 -95q-130 -121 -334 -121q-180 0 -272.5 88t-92.5 258zM106 530q0 -18 25 -18h703q25 0 32.5 23.5t7.5 97.5q0 144 -79 223.5t-222 79.5q-140 0 -248 -72t-171 -207q-17 -35 -32.5 -76t-15.5 -51zM371 1116q0 11 14 25l244 227q23 23 41 23 q17 0 30 -23l144 -225q6 -9 6 -17q0 -10 -10.5 -19t-22.5 -9q-11 0 -20 12l-125 199q-9 12 -19 12q-12 0 -24 -12l-213 -199q-14 -14 -25 -14q-20 0 -20 20z" />
<glyph unicode="&#xeb;" horiz-adv-x="1034" d="M20 317q0 133 48.5 266.5t130.5 225.5q148 168 389 168q161 0 251.5 -90.5t90.5 -251.5q0 -40 -7 -88t-14 -58q-8 -14 -30 -14h-758q-25 0 -31 -14q-7 -13 -13.5 -56.5t-6.5 -80.5q0 -151 84 -231.5t241 -80.5q137 0 233.5 61.5t159.5 188.5q12 21 29 21q8 0 14.5 -6 t6.5 -13q0 -23 -37.5 -77t-81.5 -95q-130 -121 -334 -121q-180 0 -272.5 88t-92.5 258zM106 530q0 -18 25 -18h703q25 0 32.5 23.5t7.5 97.5q0 144 -79 223.5t-222 79.5q-140 0 -248 -72t-171 -207q-17 -35 -32.5 -76t-15.5 -51zM375 1223q0 28 22.5 49.5t51.5 21.5 q23 0 37 -13t14 -34q0 -29 -23 -51t-53 -22q-22 0 -35.5 13.5t-13.5 35.5zM770 1223q0 28 22.5 49.5t51.5 21.5q23 0 37 -13t14 -34q0 -29 -23 -51t-53 -22q-22 0 -35.5 13.5t-13.5 35.5z" />
<glyph unicode="&#xec;" horiz-adv-x="473" d="M-96 14q0 9 8 16t18 7h123q29 0 35 29l174 817v10q-3 18 -22 18h-123q-19 0 -19 15q0 9 8 15.5t19 6.5h170q24 0 24 -16v-12l-182 -854q-2 -6 -2 -11q0 -18 25 -18h112q19 0 19 -14q0 -23 -27 -23h-340q-20 0 -20 14zM225 1327q0 12 11.5 22.5t23.5 10.5q15 0 23 -19 l94 -200q4 -8 4 -15q0 -10 -9 -18t-20 -8q-10 0 -18 14l-105 195q-4 12 -4 18z" />
<glyph unicode="&#xed;" horiz-adv-x="473" d="M-96 14q0 9 8 16t18 7h123q29 0 35 29l174 817v10q-3 18 -22 18h-123q-19 0 -19 15q0 9 8 15.5t19 6.5h170q24 0 24 -16v-12l-182 -854q-2 -6 -2 -11q0 -18 25 -18h112q19 0 19 -14q0 -23 -27 -23h-340q-20 0 -20 14zM279 1120q0 11 10 21l184 205q15 18 29 18 q10 0 17 -7t7 -16q0 -16 -14 -30l-193 -197q-12 -12 -22 -12q-7 0 -12.5 5t-5.5 13z" />
<glyph unicode="&#xee;" horiz-adv-x="473" d="M-96 14q0 9 8 16t18 7h123q29 0 35 29l174 817v10q-3 18 -22 18h-123q-19 0 -19 15q0 9 8 15.5t19 6.5h170q24 0 24 -16v-12l-182 -854q-2 -6 -2 -11q0 -18 25 -18h112q19 0 19 -14q0 -23 -27 -23h-340q-20 0 -20 14zM74 1116q0 14 14 25l242 227q23 23 41 23 q19 0 32 -23l142 -225q6 -9 6 -17q0 -12 -10.5 -21t-22.5 -9q-10 0 -18 14l-127 199q-9 12 -19 12q-12 0 -24 -12l-213 -199q-14 -14 -23 -14q-20 0 -20 20z" />
<glyph unicode="&#xef;" horiz-adv-x="473" d="M-96 14q0 9 8 16t18 7h123q29 0 35 29l174 817v10q-3 18 -22 18h-123q-19 0 -19 15q0 9 8 15.5t19 6.5h170q24 0 24 -16v-12l-182 -854q-2 -6 -2 -11q0 -18 25 -18h112q19 0 19 -14q0 -23 -27 -23h-340q-20 0 -20 14zM168 1223q0 28 22.5 49.5t51.5 21.5q23 0 37 -13 t14 -34q0 -29 -23 -51t-53 -22q-22 0 -35.5 13.5t-13.5 35.5zM414 1223q0 28 22 49.5t51 21.5q23 0 37.5 -13.5t14.5 -33.5q0 -29 -23 -51t-53 -22q-22 0 -35.5 13.5t-13.5 35.5z" />
<glyph unicode="&#xf0;" horiz-adv-x="1058" d="M25 338q0 176 75.5 323t207.5 231.5t290 84.5q117 0 193 -45t120 -141q-1 184 -73.5 302t-229.5 195l-250 -143q-12 -6 -18 -6q-16 0 -16 16q0 15 18 27l219 125q-123 44 -227 53q-23 2 -31 6t-8 16q0 10 8.5 17.5t20.5 7.5q14 0 49 -6q3 -1 7.5 -1.5t15 -2t24.5 -4.5 q42 -6 103 -23t93 -31l222 129q14 7 18 7q6 0 11 -6t5 -13q0 -15 -18 -24l-195 -113q169 -88 238.5 -210.5t69.5 -332.5q0 -167 -36.5 -314.5t-101.5 -244.5q-79 -118 -194.5 -182t-249.5 -64q-173 0 -266.5 95t-93.5 272zM76 330q0 -154 79.5 -236t229.5 -82 q146 0 263 79.5t183 220t66 315.5q0 146 -80.5 226.5t-226.5 80.5t-264 -78t-184 -216t-66 -310z" />
<glyph unicode="&#xf1;" horiz-adv-x="1142" d="M-104 14q0 9 8 16t18 7h131q26 0 35 29l172 817q2 4 2 10q0 18 -24 18h-129q-19 0 -19 15q0 9 8 15.5t19 6.5h178q24 0 24 -16q0 -6 -2 -12l-32 -154q144 211 383 211q130 0 206 -57t76 -154q0 -54 -12 -115l-125 -585q-2 -6 -2 -11q0 -18 25 -18h125q18 0 18 -14 q0 -23 -27 -23h-362q-21 0 -21 14q0 9 8 16t19 7h133q29 0 35 29l123 583q10 48 10 84q0 98 -64 150.5t-184 52.5q-153 0 -260.5 -95t-142.5 -261l-111 -514v-11q0 -18 25 -18h131q18 0 18 -14q0 -23 -26 -23h-367q-20 0 -20 14zM383 1137q0 23 17 60.5t42 66.5 q27 33 66.5 52t79.5 19q35 0 65.5 -18.5t67.5 -61.5q42 -49 63.5 -63t49.5 -14q43 0 76.5 37t52.5 106q7 25 30 25q7 0 13 -6t6 -13q0 -27 -25 -72q-63 -125 -172 -125q-36 0 -61.5 15.5t-67.5 64.5q-37 43 -61.5 58.5t-53.5 15.5q-100 0 -141 -141q-7 -25 -29 -25 q-7 0 -12.5 5.5t-5.5 13.5z" />
<glyph unicode="&#xf2;" horiz-adv-x="1058" d="M25 336q0 134 44.5 252.5t120 204t181.5 135t225 49.5q166 0 259 -90.5t93 -253.5q0 -184 -74 -336t-204.5 -239t-288.5 -87q-170 0 -263 95.5t-93 269.5zM76 332q0 -155 79 -237.5t230 -82.5q145 0 262 79.5t182.5 220t65.5 315.5q0 146 -80 226.5t-225 80.5 q-221 0 -367.5 -171.5t-146.5 -430.5zM578 1327q0 12 11 22.5t23 10.5q14 0 23 -19l94 -200q4 -8 4 -15q0 -9 -9 -17.5t-19 -8.5q-11 0 -19 14l-104 195q-4 12 -4 18z" />
<glyph unicode="&#xf3;" horiz-adv-x="1058" d="M25 336q0 134 44.5 252.5t120 204t181.5 135t225 49.5q166 0 259 -90.5t93 -253.5q0 -184 -74 -336t-204.5 -239t-288.5 -87q-170 0 -263 95.5t-93 269.5zM76 332q0 -155 79 -237.5t230 -82.5q145 0 262 79.5t182.5 220t65.5 315.5q0 146 -80 226.5t-225 80.5 q-221 0 -367.5 -171.5t-146.5 -430.5zM600 1120q0 9 12 21l183 205q18 18 30 18q10 0 17.5 -7t7.5 -16q0 -14 -16 -30l-191 -197q-12 -12 -25 -12q-8 0 -13 5t-5 13z" />
<glyph unicode="&#xf4;" horiz-adv-x="1058" d="M25 336q0 134 44.5 252.5t120 204t181.5 135t225 49.5q166 0 259 -90.5t93 -253.5q0 -184 -74 -336t-204.5 -239t-288.5 -87q-170 0 -263 95.5t-93 269.5zM76 332q0 -155 79 -237.5t230 -82.5q145 0 262 79.5t182.5 220t65.5 315.5q0 146 -80 226.5t-225 80.5 q-221 0 -367.5 -171.5t-146.5 -430.5zM414 1116q0 13 12 25l244 227q23 23 41 23q17 0 32 -23l142 -225q6 -9 6 -17q0 -10 -10.5 -19t-22.5 -9t-18 12l-127 199q-9 12 -19 12q-12 0 -24 -12l-213 -199q-14 -14 -23 -14q-20 0 -20 20z" />
<glyph unicode="&#xf5;" horiz-adv-x="1058" d="M25 336q0 134 44.5 252.5t120 204t181.5 135t225 49.5q166 0 259 -90.5t93 -253.5q0 -184 -74 -336t-204.5 -239t-288.5 -87q-170 0 -263 95.5t-93 269.5zM76 332q0 -155 79 -237.5t230 -82.5q145 0 262 79.5t182.5 220t65.5 315.5q0 146 -80 226.5t-225 80.5 q-221 0 -367.5 -171.5t-146.5 -430.5zM344 1137q0 23 17 60.5t42 66.5q58 71 148 71q65 0 131 -80q43 -48 64.5 -62.5t48.5 -14.5q88 0 129 143q7 25 30 25q8 0 13.5 -6t5.5 -13q0 -27 -25 -72q-62 -125 -170 -125q-37 0 -63 15.5t-68 64.5q-37 43 -61.5 58.5t-53.5 15.5 q-100 0 -141 -141q-7 -25 -29 -25q-7 0 -12.5 5.5t-5.5 13.5z" />
<glyph unicode="&#xf6;" horiz-adv-x="1058" d="M25 336q0 134 44.5 252.5t120 204t181.5 135t225 49.5q166 0 259 -90.5t93 -253.5q0 -184 -74 -336t-204.5 -239t-288.5 -87q-170 0 -263 95.5t-93 269.5zM76 332q0 -155 79 -237.5t230 -82.5q145 0 262 79.5t182.5 220t65.5 315.5q0 146 -80 226.5t-225 80.5 q-221 0 -367.5 -171.5t-146.5 -430.5zM385 1223q0 28 22.5 49.5t51.5 21.5q23 0 37 -13t14 -34q0 -29 -23 -51t-53 -22q-22 0 -35.5 13.5t-13.5 35.5zM782 1223q0 28 22.5 49.5t51.5 21.5q23 0 37 -13t14 -34q0 -29 -23 -51t-53 -22q-22 0 -35.5 13.5t-13.5 35.5z" />
<glyph unicode="&#xf7;" d="M94 698q0 12 9.5 19.5t23.5 7.5h788q25 0 25 -18q0 -12 -9.5 -19.5t-23.5 -7.5h-790q-23 0 -23 18zM375 330q0 31 25 55.5t57 24.5q24 0 39.5 -15t15.5 -37q0 -32 -25 -57t-57 -25q-23 0 -39 15.5t-16 38.5zM528 1053q0 31 25.5 55.5t56.5 24.5q25 0 41.5 -15.5 t16.5 -38.5q0 -31 -26 -55.5t-58 -24.5q-23 0 -39.5 15.5t-16.5 38.5z" />
<glyph unicode="&#xf8;" horiz-adv-x="1099" d="M-61 -31q0 12 12 21l141 129q-49 85 -49 211q0 178 76.5 326.5t209 233.5t292.5 85q89 0 152 -27.5t126 -93.5l141 129q10 10 19 10q14 0 14 -14q0 -11 -10 -18l-145 -136q51 -92 51 -194q0 -113 -40.5 -237t-103.5 -208q-79 -106 -188.5 -161.5t-235.5 -55.5 q-94 0 -162.5 29t-125.5 92l-140 -125q-10 -10 -18 -10q-16 0 -16 14zM96 334q0 -97 37 -178l725 661q-34 54 -100.5 84.5t-153.5 30.5q-142 0 -258.5 -78t-183 -215t-66.5 -305zM152 127q89 -117 256 -117q122 0 225.5 59t171.5 167q49 78 79.5 186.5t30.5 206.5 q0 88 -36 159z" />
<glyph unicode="&#xf9;" horiz-adv-x="1126" d="M66 926q0 9 7.5 15.5t18.5 6.5h182q25 0 25 -16q0 -8 -2 -12l-123 -578q-16 -82 -16 -137q0 -92 61.5 -142.5t173.5 -50.5q193 0 303 125q80 86 123 291l96 455l3 10q0 18 -25 18h-135q-21 0 -21 15q0 9 8.5 15.5t20.5 6.5h184q25 0 25 -16q0 -6 -2 -12l-182 -854v-11 q3 -18 22 -18h137q21 0 21 -14q0 -10 -8.5 -16.5t-20.5 -6.5h-184q-25 0 -25 16q0 9 2 13l35 166q-60 -114 -154.5 -169t-230.5 -55q-133 0 -204.5 58t-71.5 164q0 64 16 149l117 541v10q0 18 -25 18h-131q-20 0 -20 15zM551 1327q0 12 12 22.5t25 10.5q12 0 22 -19l95 -200 q4 -12 4 -15q0 -9 -9.5 -17.5t-19.5 -8.5q-12 0 -18 14l-105 195q-6 9 -6 18z" />
<glyph unicode="&#xfa;" horiz-adv-x="1126" d="M66 926q0 9 7.5 15.5t18.5 6.5h182q25 0 25 -16q0 -8 -2 -12l-123 -578q-16 -82 -16 -137q0 -92 61.5 -142.5t173.5 -50.5q193 0 303 125q80 86 123 291l96 455l3 10q0 18 -25 18h-135q-21 0 -21 15q0 9 8.5 15.5t20.5 6.5h184q25 0 25 -16q0 -6 -2 -12l-182 -854v-11 q3 -18 22 -18h137q21 0 21 -14q0 -10 -8.5 -16.5t-20.5 -6.5h-184q-25 0 -25 16q0 9 2 13l35 166q-60 -114 -154.5 -169t-230.5 -55q-133 0 -204.5 58t-71.5 164q0 64 16 149l117 541v10q0 18 -25 18h-131q-20 0 -20 15zM588 1120q0 8 10 21l184 205q15 18 31 18 q10 0 17.5 -7t7.5 -16q0 -13 -17 -30l-190 -197q-15 -12 -25 -12q-8 0 -13 5t-5 13z" />
<glyph unicode="&#xfb;" horiz-adv-x="1126" d="M66 926q0 9 7.5 15.5t18.5 6.5h182q25 0 25 -16q0 -8 -2 -12l-123 -578q-16 -82 -16 -137q0 -92 61.5 -142.5t173.5 -50.5q193 0 303 125q80 86 123 291l96 455l3 10q0 18 -25 18h-135q-21 0 -21 15q0 9 8.5 15.5t20.5 6.5h184q25 0 25 -16q0 -6 -2 -12l-182 -854v-11 q3 -18 22 -18h137q21 0 21 -14q0 -10 -8.5 -16.5t-20.5 -6.5h-184q-25 0 -25 16q0 9 2 13l35 166q-60 -114 -154.5 -169t-230.5 -55q-133 0 -204.5 58t-71.5 164q0 64 16 149l117 541v10q0 18 -25 18h-131q-20 0 -20 15zM391 1116q0 10 15 25l243 227q23 23 41 23t31 -23 l143 -225q4 -12 4 -17q0 -10 -9.5 -19t-20.5 -9q-12 0 -21 12l-125 199q-9 12 -20 12t-23 -12l-213 -199q-14 -14 -24 -14q-21 0 -21 20z" />
<glyph unicode="&#xfc;" horiz-adv-x="1126" d="M66 926q0 9 7.5 15.5t18.5 6.5h182q25 0 25 -16q0 -8 -2 -12l-123 -578q-16 -82 -16 -137q0 -92 61.5 -142.5t173.5 -50.5q193 0 303 125q80 86 123 291l96 455l3 10q0 18 -25 18h-135q-21 0 -21 15q0 9 8.5 15.5t20.5 6.5h184q25 0 25 -16q0 -6 -2 -12l-182 -854v-11 q3 -18 22 -18h137q21 0 21 -14q0 -10 -8.5 -16.5t-20.5 -6.5h-184q-25 0 -25 16q0 9 2 13l35 166q-60 -114 -154.5 -169t-230.5 -55q-133 0 -204.5 58t-71.5 164q0 64 16 149l117 541v10q0 18 -25 18h-131q-20 0 -20 15zM420 1223q0 28 22.5 49.5t51.5 21.5q23 0 37 -13 t14 -34q0 -29 -23 -51t-53 -22q-22 0 -35.5 13.5t-13.5 35.5zM817 1223q0 28 22.5 49.5t51.5 21.5q23 0 37 -13t14 -34q0 -29 -23 -51t-53 -22q-22 0 -35.5 13.5t-13.5 35.5z" />
<glyph unicode="&#xfd;" horiz-adv-x="1099" d="M-61 -336q0 9 7.5 18t16.5 9q8 0 35 -10q32 -9 63 -9q66 0 118.5 38.5t111.5 129.5l90 144q6 9 6 18v10l-205 881q-3 11 -7.5 14.5t-16.5 3.5h-78q-21 0 -21 15q0 9 8.5 15.5t20.5 6.5h307q19 0 19 -14q0 -23 -27 -23h-113q-13 0 -22.5 -7.5t-9.5 -18.5v-13l188 -815 l524 817q9 9 9 21q0 16 -25 16h-115q-20 0 -20 15q0 9 7.5 15.5t18.5 6.5h297q21 0 21 -14q0 -10 -8.5 -16.5t-20.5 -6.5h-69q-20 0 -33 -18l-684 -1059q-73 -115 -134 -159t-147 -44q-46 0 -79 10t-33 23zM635 1120q0 8 10 21l184 205q18 18 31 18q10 0 17.5 -7t7.5 -16 q0 -13 -17 -30l-190 -197q-15 -12 -25 -12q-7 0 -12.5 5t-5.5 13z" />
<glyph unicode="&#xfe;" horiz-adv-x="1134" d="M-195 -332q0 9 8 16t19 7h127q29 0 35 28l336 1581l2 11q1 9 -5.5 13.5t-19.5 4.5h-127q-18 0 -18 14q0 23 26 23h177q19 0 22 -16v-13l-129 -606q145 246 412 246q170 0 263 -89.5t93 -252.5q0 -184 -74 -336.5t-203 -240t-284 -87.5q-262 0 -311 267l-111 -519l-2 -10 q0 -18 25 -18h127q18 0 18 -15q0 -22 -27 -22h-358q-21 0 -21 14zM184 305q0 -132 77 -211.5t204 -79.5q139 0 256 81.5t184.5 222t67.5 307.5q0 150 -82 229.5t-236 79.5q-227 0 -350 -189q-52 -82 -86.5 -206.5t-34.5 -233.5z" />
<glyph unicode="&#xff;" horiz-adv-x="1099" d="M-61 -336q0 9 7.5 18t16.5 9q8 0 35 -10q32 -9 63 -9q66 0 118.5 38.5t111.5 129.5l90 144q6 9 6 18v10l-205 881q-3 11 -7.5 14.5t-16.5 3.5h-78q-21 0 -21 15q0 9 8.5 15.5t20.5 6.5h307q19 0 19 -14q0 -23 -27 -23h-113q-13 0 -22.5 -7.5t-9.5 -18.5v-13l188 -815 l524 817q9 9 9 21q0 16 -25 16h-115q-20 0 -20 15q0 9 7.5 15.5t18.5 6.5h297q21 0 21 -14q0 -10 -8.5 -16.5t-20.5 -6.5h-69q-20 0 -33 -18l-684 -1059q-73 -115 -134 -159t-147 -44q-46 0 -79 10t-33 23zM381 1223q0 28 22.5 49.5t51.5 21.5q23 0 37 -13t14 -34 q0 -29 -23 -51t-53 -22q-22 0 -35.5 13.5t-13.5 35.5zM778 1223q0 28 22.5 49.5t51.5 21.5q22 0 35.5 -13.5t13.5 -33.5q0 -29 -22.5 -51t-51.5 -22q-22 0 -35.5 13.5t-13.5 35.5z" />
<glyph unicode="&#x152;" horiz-adv-x="1910" d="M74 469q0 164 49.5 324.5t138.5 281.5q107 149 259.5 227t334.5 78q55 0 281 -12q25 -2 55 -2h692q25 0 25 -16q0 -7 -2 -13l-74 -348q-6 -31 -31 -31q-18 0 -18 19q0 8 2 12l63 307q2 4 2 11q0 18 -24 18h-598q-29 0 -35 -29l-119 -561v-10q3 -18 23 -18h280q29 0 35 28 l41 195q6 28 31 28q18 0 18 -18q0 -6 -2 -10l-102 -481q-1 -13 -9.5 -21t-19.5 -8q-18 0 -18 16v13l41 186v10q-3 19 -23 19h-280q-29 0 -35 -29l-121 -563v-11q3 -18 22 -18h613q29 0 35 29l67 317q6 31 31 31q18 0 18 -19q0 -8 -2 -12l-76 -360q-6 -29 -34 -29h-695 q-232 -14 -299 -14q-234 0 -358 82q-182 122 -182 401zM129 465q0 -131 45.5 -226.5t132.5 -146.5q109 -65 320 -65q55 0 136.5 5t94.5 9q17 6 23 29l260 1228q2 4 2 11q0 10 -7.5 14t-27.5 4q-5 0 -17 1t-34.5 3t-40.5 4q-71 6 -135 6q-200 0 -352.5 -83t-249.5 -244 q-69 -114 -109.5 -261.5t-40.5 -287.5z" />
<glyph unicode="&#x153;" horiz-adv-x="1660" d="M23 328q0 172 74 320.5t200 235.5t272 87q83 0 148 -32.5t102 -92.5q33 -54 49 -164q66 139 174 213t246 74q133 0 207 -70.5t74 -196.5q0 -70 -25 -186l-4 -12q-6 -29 -35 -29h-628q-23 0 -31 -14q-7 -12 -14 -69t-7 -107q0 -121 71.5 -193t193.5 -72q107 0 195.5 60 t129.5 160q13 32 22 42.5t21 10.5q9 0 15 -6t6 -15q0 -34 -47 -100q-135 -195 -357 -195q-135 0 -214.5 81t-82.5 221q-91 -153 -199 -226t-245 -73q-148 0 -229.5 91.5t-81.5 256.5zM76 336q0 -141 70.5 -227t187.5 -86q112 0 214 62.5t167 168.5q46 78 75 190t29 211 q0 128 -72 201.5t-198 73.5q-125 0 -234 -81.5t-174 -218.5t-65 -294zM862 530q0 -18 25 -18h575q23 0 31 14q8 12 15.5 74t7.5 111q0 100 -64.5 158.5t-173.5 58.5q-72 0 -142 -29t-126 -82q-37 -35 -78.5 -111t-65.5 -151q-4 -24 -4 -25z" />
<glyph unicode="&#x178;" horiz-adv-x="1249" d="M154 1341q0 11 8.5 18t21.5 7h361q20 0 20 -16q0 -11 -8.5 -18t-21.5 -7h-144q-15 0 -25 -8.5t-10 -20.5l4 -12l252 -661l541 661q10 17 10 23q0 18 -24 18h-146q-20 0 -20 16q0 11 9 18t22 7h350q22 0 22 -16q0 -11 -8.5 -18t-21.5 -7h-89q-12 0 -17.5 -2.5t-14.5 -13.5 l-590 -727q-7 -9 -12 -23l-103 -487q-2 -4 -2 -11q0 -18 25 -18h205q20 0 20 -16q0 -12 -8.5 -19.5t-22.5 -7.5h-520q-20 0 -20 16q0 12 8.5 19.5t21.5 7.5h205q29 0 35 29l102 487q2 2 2 10l-2 13l-280 727q-7 16 -25 16h-88q-22 0 -22 16zM539 1591q0 28 22 50t51 22 q23 0 37.5 -13.5t14.5 -33.5q0 -29 -23.5 -51.5t-52.5 -22.5q-22 0 -35.5 13.5t-13.5 35.5zM934 1591q0 28 22.5 50t51.5 22q23 0 37 -13t14 -34q0 -29 -23.5 -51.5t-52.5 -22.5q-22 0 -35.5 13.5t-13.5 35.5z" />
<glyph unicode="&#x2c6;" d="M367 1116q0 11 14 25l242 227q26 23 41 23q19 0 32 -23l142 -225q6 -9 6 -19t-10.5 -19t-22.5 -9q-10 0 -18 14l-127 199q-9 12 -19 12t-24 -12l-213 -199q-14 -14 -23 -14q-20 0 -20 20z" />
<glyph unicode="&#x2dc;" d="M313 1137q0 23 17.5 60.5t42.5 66.5q58 71 145 71q35 0 65.5 -18.5t67.5 -61.5q42 -49 63.5 -63t49.5 -14q43 0 76.5 37t52.5 106q7 25 31 25q7 0 12.5 -5.5t5.5 -13.5q0 -29 -24 -72q-62 -125 -170 -125q-38 0 -63.5 15.5t-68.5 64.5q-37 43 -61 58.5t-53 15.5 q-101 0 -142 -141q-7 -25 -28 -25q-8 0 -13.5 6t-5.5 13z" />
<glyph unicode="&#x2000;" horiz-adv-x="900" />
<glyph unicode="&#x2001;" horiz-adv-x="1800" />
<glyph unicode="&#x2002;" horiz-adv-x="900" />
<glyph unicode="&#x2003;" horiz-adv-x="1800" />
<glyph unicode="&#x2004;" horiz-adv-x="600" />
<glyph unicode="&#x2005;" horiz-adv-x="450" />
<glyph unicode="&#x2006;" horiz-adv-x="300" />
<glyph unicode="&#x2007;" horiz-adv-x="300" />
<glyph unicode="&#x2008;" horiz-adv-x="225" />
<glyph unicode="&#x2009;" horiz-adv-x="360" />
<glyph unicode="&#x200a;" horiz-adv-x="100" />
<glyph unicode="&#x2010;" horiz-adv-x="442" d="M-41 492q0 12 8.5 19t22.5 7h391q22 0 22 -16q0 -12 -9 -19.5t-23 -7.5h-389q-23 0 -23 17z" />
<glyph unicode="&#x2011;" horiz-adv-x="442" d="M-41 492q0 12 8.5 19t22.5 7h391q22 0 22 -16q0 -12 -9 -19.5t-23 -7.5h-389q-23 0 -23 17z" />
<glyph unicode="&#x2012;" horiz-adv-x="442" d="M-41 492q0 12 8.5 19t22.5 7h391q22 0 22 -16q0 -12 -9 -19.5t-23 -7.5h-389q-23 0 -23 17z" />
<glyph unicode="&#x2013;" d="M49 492q0 12 8.5 19t22.5 7h792q23 0 23 -16q0 -12 -9.5 -19.5t-23.5 -7.5h-790q-23 0 -23 17z" />
<glyph unicode="&#x2014;" horiz-adv-x="1318" d="M-39 492q0 12 8.5 19t22.5 7h1268q20 0 20 -16q0 -12 -8.5 -19.5t-22.5 -7.5h-1265q-23 0 -23 17z" />
<glyph unicode="&#x2018;" horiz-adv-x="436" d="M225 1061q0 51 31.5 121.5t81.5 130.5q67 80 84 80q5 0 8.5 -4.5t3.5 -10.5t-12 -16q-62 -59 -102.5 -123t-40.5 -104q0 -17 16 -17q8 0 14 2t15 2q17 0 27.5 -12t10.5 -31q0 -34 -24.5 -60t-56.5 -26q-26 0 -41 18t-15 50z" />
<glyph unicode="&#x2019;" horiz-adv-x="774" d="M358 997q0 8 11 19q60 54 98.5 115.5t38.5 101.5q0 14 -14 14q-9 0 -15 -2t-12 -2q-15 0 -26 12t-11 29q0 32 23.5 57t54.5 25q23 0 37 -17t14 -46q0 -49 -30 -116.5t-76 -125.5q-66 -76 -80 -76q-5 0 -9 4t-4 8z" />
<glyph unicode="&#x201a;" horiz-adv-x="774" d="M92 -250q0 9 10 19q60 54 99 114.5t39 100.5q0 14 -15 14q-8 0 -14 -2t-12 -2q-15 0 -26 12t-11 29q0 32 23.5 57t54.5 25q23 0 37 -17.5t14 -46.5q0 -48 -30 -114.5t-77 -124.5q-63 -76 -80 -76q-4 0 -8 4t-4 8z" />
<glyph unicode="&#x201c;" horiz-adv-x="653" d="M236 1061q0 51 31.5 121.5t80.5 130.5q67 80 84 80q5 0 8.5 -4.5t3.5 -10.5t-12 -16q-62 -59 -102.5 -123t-40.5 -104q0 -17 16 -17q8 0 14 2t15 2q17 0 28 -12t11 -31q0 -34 -25 -60t-57 -26q-26 0 -40.5 18t-14.5 50zM440 1061q0 51 31.5 121.5t81.5 130.5q67 80 84 80 q5 0 8.5 -4.5t3.5 -10.5t-12 -16q-62 -59 -102.5 -123t-40.5 -104q0 -17 16 -17q8 0 14 2t15 2q17 0 28 -12t11 -31q0 -34 -25 -60t-57 -26q-26 0 -41 18t-15 50z" />
<glyph unicode="&#x201d;" horiz-adv-x="653" d="M217 993q0 7 10 17q66 63 105 125.5t39 105.5q0 14 -17 14q-8 0 -14 -2q-4 -2 -12 -2q-17 0 -28 12t-11 31q0 34 25 60t57 26q26 0 40.5 -17t14.5 -48q0 -53 -31 -124t-82 -132q-67 -80 -84 -80q-12 0 -12 14zM422 993q0 7 10 17q66 63 104.5 125.5t38.5 105.5 q0 14 -16 14q-8 0 -14 -2q-4 -2 -13 -2q-17 0 -27.5 12t-10.5 31q0 34 24.5 60t56.5 26q26 0 41 -17t15 -48q0 -53 -31 -124t-82 -132q-67 -80 -84 -80q-12 0 -12 14z" />
<glyph unicode="&#x201e;" horiz-adv-x="653" d="M-47 -256q0 6 10 16q65 62 104 124.5t39 105.5q0 14 -16 14h-14q-4 -2 -13 -2q-17 0 -27.5 12t-10.5 31q0 33 24.5 58.5t56.5 25.5q26 0 41 -17.5t15 -48.5q0 -52 -31.5 -122.5t-81.5 -130.5q-67 -80 -84 -80q-12 0 -12 14zM158 -256q0 6 10 16q65 62 104 124.5t39 105.5 q0 14 -16 14h-14q-4 -2 -13 -2q-17 0 -28 12t-11 31q0 32 25 58t57 26q26 0 41 -17.5t15 -48.5q0 -52 -31.5 -122.5t-81.5 -130.5q-67 -80 -84 -80q-12 0 -12 14z" />
<glyph unicode="&#x2022;" horiz-adv-x="1366" d="M397 635q0 135 107.5 240.5t245.5 105.5q97 0 160 -63.5t63 -161.5q0 -135 -106.5 -240.5t-243.5 -105.5q-98 0 -162 63.5t-64 161.5z" />
<glyph unicode="&#x2026;" horiz-adv-x="1179" d="M-4 47q0 31 25 54.5t57 23.5q23 0 39 -14.5t16 -36.5q0 -31 -25 -55.5t-57 -24.5q-23 0 -39 15t-16 38zM389 47q0 31 25 54.5t57 23.5q23 0 39 -14.5t16 -36.5q0 -31 -25 -55.5t-57 -24.5q-23 0 -39 15t-16 38zM782 47q0 31 25 54.5t57 23.5q23 0 39.5 -14.5t16.5 -36.5 q0 -31 -25 -55.5t-57 -24.5q-24 0 -40 15t-16 38z" />
<glyph unicode="&#x202f;" horiz-adv-x="360" />
<glyph unicode="&#x2039;" horiz-adv-x="415" d="M43 492q0 7 8 18l246 389q13 19 27 19q7 0 12.5 -5.5t5.5 -11.5q0 -7 -8 -18l-242 -387l78 -387q3 -12 -6 -23.5t-21 -11.5q-13 0 -16 18l-82 389q-2 4 -2 11z" />
<glyph unicode="&#x203a;" horiz-adv-x="415" d="M-6 90q0 10 6 19l242 387l-76 387q-2 4 -2 10q0 9 8 17t18 8q16 0 19 -19l82 -389l2 -10q0 -3 -8 -19l-248 -389q-10 -18 -25 -18q-7 0 -12.5 5t-5.5 11z" />
<glyph unicode="&#x205f;" horiz-adv-x="450" />
<glyph unicode="&#x20ac;" horiz-adv-x="1460" d="M51 635q0 12 8.5 19.5t22.5 7.5h94q2 8 4 21.5t4 21.5h-92q-22 0 -22 18q0 11 9 19t21 8h97q63 239 198 391q103 118 242 184t285 66q103 0 191.5 -38t139.5 -104q26 -33 38.5 -65.5t19.5 -87.5l51 241q6 29 31 29q7 0 12.5 -5t5.5 -13v-11l-90 -424q-6 -28 -31 -28 q-18 0 -18 18q0 15 4 31q6 50 6 74q0 151 -103 243t-272 92q-146 0 -281 -72.5t-229 -201.5q-86 -118 -145 -319h801q24 0 24 -17q0 -12 -9 -20t-24 -8h-802q-4 -20 -11 -43h766q23 0 23 -19q0 -12 -8.5 -19.5t-22.5 -7.5h-764q-12 -82 -12 -149q0 -206 111.5 -325 t306.5 -119q186 0 332.5 108t199.5 283q11 37 37 37q9 0 16 -6t7 -15q0 -23 -25 -80t-55 -102q-86 -128 -225.5 -200.5t-299.5 -72.5q-215 0 -337.5 130t-122.5 356q0 60 10 155h-94q-23 0 -23 19z" />
<glyph unicode="&#x2122;" horiz-adv-x="1867" d="M168 1151q0 6 2 10l39 189q6 28 35 28h598q19 0 22 -16v-12l-41 -189q-6 -26 -26 -26q-17 0 -17 16q0 6 2 10l33 152v10q0 18 -24 18h-205q-29 0 -35 -28l-139 -660l-2 -10q0 -18 24 -18h101q20 0 20 -15q0 -22 -29 -22h-305q-18 0 -18 14q0 23 26 23h103q29 0 35 28 l139 660q2 4 2 10q0 18 -25 18h-204q-29 0 -35 -28l-33 -152q-6 -26 -27 -26q-16 0 -16 16zM772 602q0 23 27 23h78q28 0 34 28l140 660q2 4 2 10q0 18 -25 18h-78q-18 0 -18 15q0 22 26 22h183l145 -741l461 741h176q21 0 21 -14q0 -9 -8.5 -16t-20.5 -7h-76q-27 0 -35 -28 l-139 -660l-2 -10q0 -18 25 -18h75q21 0 21 -15q0 -22 -29 -22h-246q-18 0 -18 14q0 23 27 23h67q29 0 35 28l145 682l-471 -747h-41l-151 745l-146 -680l-2 -10q0 -18 25 -18h63q21 0 21 -15q0 -22 -29 -22h-243q-19 0 -19 14z" />
<glyph unicode="&#xe000;" horiz-adv-x="952" d="M0 0v952h952v-952h-952z" />
</font>
</defs>
</svg>
