<?xml version="1.0" standalone="no"?>
<!DOCTYPE svg PUBLIC "-//W3C//DTD SVG 1.1//EN" "http://www.w3.org/Graphics/SVG/1.1/DTD/svg11.dtd" >
<svg xmlns="http://www.w3.org/2000/svg">
<metadata></metadata>
<defs>
<font id="typewriter_urwlight" horiz-adv-x="1091" >
<font-face units-per-em="2048" ascent="1368" descent="-680" />
<missing-glyph horiz-adv-x="512" />
<glyph unicode="&#xfb01;" horiz-adv-x="1136" d="M27 909q0 41 51 41h98q43 0 43 41v37q0 190 88.5 279.5t276.5 89.5q172 0 254 -82q35 -33 57.5 -86t22.5 -99q0 -28 -18 -45.5t-44 -17.5q-31 0 -49 25q-8 10 -9.5 18t-6.5 45q-10 70 -69.5 112t-148.5 42q-245 0 -245 -279v-39q0 -22 10 -31.5t33 -9.5h512 q26 0 37.5 -11.5t11.5 -37.5v-776q0 -22 9.5 -31.5t31.5 -9.5h78q51 0 51 -41q0 -43 -51 -43h-334q-51 0 -51 41q0 43 51 43h63q22 0 31.5 9.5t9.5 31.5v700q0 22 -9.5 31.5t-31.5 9.5h-409q-23 0 -33 -9.5t-10 -31.5v-700q0 -22 10 -31.5t33 -9.5h78q53 0 53 -41 q0 -43 -53 -43h-357q-51 0 -51 41q0 43 51 43h84q22 0 31.5 9.5t9.5 31.5v700q0 22 -9.5 31.5t-31.5 9.5h-98q-51 0 -51 43z" />
<glyph unicode="&#xfb02;" horiz-adv-x="1136" d="M29 907q0 43 51 43h98q22 0 31.5 10t9.5 33v27q0 89 23 164t63 116q47 50 119 71.5t190 21.5q80 0 171 -10.5t122 -22.5q25 -8 25 -47v-1188q0 -22 9.5 -31.5t31.5 -9.5h80q53 0 53 -41q0 -43 -53 -43h-346q-25 0 -39.5 11t-14.5 30q0 20 14.5 31.5t39.5 11.5h73 q22 0 31.5 9.5t9.5 31.5v1128q0 20 -12 29q-17 9 -78.5 16t-126.5 7q-84 0 -135.5 -18.5t-85.5 -59.5q-24 -30 -38.5 -86.5t-14.5 -120.5v-27q0 -23 9.5 -33t31.5 -10h141q51 0 51 -41q0 -43 -51 -43h-141q-22 0 -31.5 -9.5t-9.5 -31.5v-700q0 -22 9.5 -31.5t31.5 -9.5h75 q25 0 39.5 -11t14.5 -30q0 -43 -54 -43h-352q-51 0 -51 41q0 43 51 43h84q22 0 31.5 9.5t9.5 31.5v700q0 22 -9.5 31.5t-31.5 9.5h-98q-51 0 -51 41z" />
<glyph horiz-adv-x="2048" />
<glyph horiz-adv-x="2048" />
<glyph unicode="&#xd;" horiz-adv-x="2048" />
<glyph unicode=" "  horiz-adv-x="512" />
<glyph unicode="&#x09;" horiz-adv-x="512" />
<glyph unicode="&#xa0;" horiz-adv-x="512" />
<glyph unicode="!" horiz-adv-x="479" d="M147 80q0 37 27 63.5t64 26.5q40 0 67 -27t27 -65t-27 -65t-65 -27q-37 0 -65 28t-28 66zM166 1315q-1 27 10.5 39t38.5 12h49q27 0 38.5 -12t10.5 -39l-24 -959q-3 -53 -45 -53q-44 0 -47 53z" />
<glyph unicode="&#x22;" horiz-adv-x="653" d="M139 1284q-3 37 14.5 59.5t49.5 22.5q30 0 47 -23t14 -59l-18 -283q-3 -49 -45 -49q-40 0 -43 49zM387 1284v10q0 34 17.5 53t46.5 19t46.5 -23.5t14.5 -58.5l-18 -283q-3 -49 -43 -49t-43 49z" />
<glyph unicode="#" d="M80 547q0 39 47 39h199l41 235h-185q-47 0 -47 39t47 39h199l76 424q6 43 41 43q36 0 39 -41v-16l-74 -410h235l74 424q9 43 43 43q17 0 28 -11t11 -30q0 -10 -2 -16l-72 -410h185q47 0 47 -39t-47 -39h-199l-41 -235h184q47 0 47 -39t-47 -39h-198l-82 -465 q-6 -43 -41 -43q-18 0 -30 12t-11 29l2 16l80 451h-234l-82 -465q-9 -43 -43 -43q-17 0 -28 11t-11 28q0 12 2 18l80 451h-186q-47 0 -47 39zM408 586h235l41 235h-233z" />
<glyph unicode="$" d="M92 1030q0 112 70 203.5t184 128.5q66 21 162 24v144q0 55 45 55q47 0 47 -55v-144q18 -6 29 -6l24 -4q136 -39 211 -153q3 -6 8 -6q11 0 11 12v76q0 61 51 61q49 0 49 -61v-318q0 -61 -49 -61q-31 0 -45 24q-5 13 -17 107q-23 97 -99.5 163t-172.5 72v-547l70 -24 q191 -67 265.5 -148t74.5 -219q0 -170 -113 -274.5t-297 -104.5v-139q0 -55 -45 -55q-47 0 -47 55v137q-21 7 -29 7l-35 6q-75 19 -138 67t-97 113q-4 4 -6 4q-8 0 -8 -10v-99q0 -29 -13.5 -45t-36.5 -16q-51 0 -51 61v314q0 61 51 61q30 0 43 -22q7 -12 17 -72 q26 -118 106.5 -191t196.5 -83v583l-78 27q-338 113 -338 352zM209 1040q0 -89 58 -146.5t198 -107.5l43 -16v530q-66 -3 -99.5 -11t-68.5 -29q-60 -35 -95.5 -95t-35.5 -125zM600 63q67 4 105 16t75 40q54 38 83.5 96.5t29.5 124.5q0 98 -55 155.5t-205 116.5l-33 13v-562z " />
<glyph unicode="%" horiz-adv-x="1460" d="M82 1034q0 170 69.5 262.5t198.5 92.5q268 0 268 -363q0 -178 -67.5 -270t-198.5 -92q-270 0 -270 370zM176 1034q0 -297 172 -297q176 0 176 291q0 289 -172 289q-86 0 -131 -73t-45 -210zM344 37q0 9 10 29l684 1271q14 29 39 29q15 0 27 -11t12 -26q0 -9 -8 -29 l-686 -1271q-14 -29 -39 -29q-15 0 -27 11.5t-12 25.5zM844 344q0 170 69.5 262t198.5 92q266 0 266 -360q0 -178 -67.5 -270.5t-198.5 -92.5q-132 0 -200 93t-68 276zM938 344q0 -295 172 -295q174 0 174 291q0 287 -172 287q-85 0 -129.5 -73t-44.5 -210z" />
<glyph unicode="&#x26;" horiz-adv-x="1527" d="M90 362q0 201 180 328q48 35 150 84q-46 37 -101 100q-58 72 -82 125.5t-24 112.5q0 126 96 205.5t248 79.5q171 0 258 -78q43 -38 66.5 -93.5t23.5 -115.5q0 -86 -51 -165.5t-145 -141.5q-49 -29 -111 -53l408 -418q46 66 79 170.5t33 181.5q0 31 -35 31h-75 q-25 0 -39.5 11.5t-14.5 31.5q0 21 14.5 33t39.5 12h356q53 0 53 -45q0 -43 -53 -43h-102q-21 0 -31 -13q-4 -12 -19 -116q-34 -187 -129 -322l152 -160q16 -16 37 -16h141q55 0 55 -43q0 -45 -55 -45h-215q-19 0 -26 3t-19 15l-152 158q-21 -21 -36 -39 q-168 -168 -430 -168q-200 0 -322.5 108t-122.5 285zM215 362q0 -130 93.5 -216.5t234.5 -86.5q107 0 208 49t179 138l-438 448q-277 -114 -277 -332zM334 1120q0 -72 57 -147q12 -18 113 -125q6 -9 26 -29q137 69 196.5 137t59.5 154q0 91 -60.5 146t-160.5 55 q-101 0 -166 -54t-65 -137z" />
<glyph unicode="'" horiz-adv-x="405" d="M139 1284q-3 37 14.5 59.5t49.5 22.5q30 0 47 -23t14 -59l-18 -283q-3 -49 -45 -49q-40 0 -43 49z" />
<glyph unicode="(" horiz-adv-x="587" d="M98 522q0 207 61 389t203 398q49 75 61.5 88.5t31.5 13.5q17 0 29 -12t12 -29q0 -8 -9 -23t-63 -100q-102 -163 -156.5 -352t-54.5 -379q0 -201 67.5 -420.5t176.5 -371.5q39 -54 39 -72q0 -15 -12 -27t-29 -12q-35 0 -117 137q-240 385 -240 772z" />
<glyph unicode=")" horiz-adv-x="587" d="M92 -348q0 17 37 72q112 156 179 374t67 426q0 255 -101 506q-33 81 -59.5 130t-112.5 186q-10 13 -10 24q0 17 12 29t29 12t34 -19.5t71 -101.5q132 -202 191.5 -386t59.5 -390q0 -191 -66.5 -396t-189.5 -392q-45 -71 -64 -92t-36 -21t-29 12t-12 27z" />
<glyph unicode="*" d="M213 1110q0 22 15.5 37.5t35.5 15.5q21 0 37 -8l170 -74q28 -12 31 -12q12 0 12 14l-2 19l-16 194l-2 11q-3 25 12.5 42t40.5 17t39 -15.5t14 -43.5v-13l-18 -190l-2 -25q0 -5 4 -8.5t8 -3.5t31 12l172 70q28 8 34 8q20 0 35 -15.5t15 -37.5q0 -43 -52 -55l-184 -41 q-27 -6 -32 -8.5t-5 -8.5q0 -3 6 -12l25 -25l111 -133q20 -23 20 -43q0 -22 -16 -37.5t-39 -15.5q-30 0 -51 37l-89 151q-15 28 -18 32.5t-8 4.5q-4 0 -6 -1t-7 -8t-14 -23l-96 -154q-20 -35 -51 -35q-23 0 -39.5 15.5t-16.5 37.5q0 19 23 45l121 134q22 26 22 30 q0 8 -5.5 11.5t-28.5 7.5l-181 43q-29 8 -42 21t-13 36z" />
<glyph unicode="+" d="M106 702q0 41 48 41h350v347q0 49 41 49t41 -49v-347h350q47 0 47 -38q0 -41 -47 -41h-350v-347q0 -49 -41 -49t-41 49v347h-350q-48 0 -48 38z" />
<glyph unicode="," horiz-adv-x="456" d="M133 76q0 44 28.5 74t69.5 30q51 0 82 -43t31 -112q0 -87 -52 -194t-93 -107q-10 0 -19.5 9.5t-9.5 20.5t35 64q23 33 39 74.5t16 64.5q0 17 -8 21t-43 4q-34 0 -55 26.5t-21 67.5z" />
<glyph unicode="-" horiz-adv-x="458" d="M0 502q0 51 61 51h336q29 0 45.5 -13t16.5 -36q0 -51 -62 -51h-336q-61 0 -61 49z" />
<glyph unicode="." horiz-adv-x="456" d="M135 80q0 37 26.5 63.5t63.5 26.5q40 0 67 -27t27 -65t-27 -65t-65 -27q-37 0 -64.5 28t-27.5 66z" />
<glyph unicode="/" horiz-adv-x="1114" d="M-59 -305q0 13 10 33l938 1609q17 29 43 29q17 0 30 -13t13 -28t-12 -33l-936 -1607q-16 -31 -43 -31q-17 0 -30 13t-13 28z" />
<glyph unicode="0" d="M96 680q0 342 107 516q119 190 348 190q221 0 333.5 -173.5t112.5 -514.5q0 -353 -114.5 -534.5t-335.5 -181.5q-118 0 -210.5 54t-146.5 154q-52 96 -73 206.5t-21 283.5zM219 674q0 -154 16 -251.5t56 -178.5q37 -79 104 -123.5t150 -44.5q329 0 329 608 q0 307 -80 457.5t-243 150.5q-83 0 -150.5 -43.5t-105.5 -120.5q-76 -155 -76 -454z" />
<glyph unicode="1" d="M178 1047q0 19 11.5 31t64.5 48q131 92 260 205q38 35 72 35q41 0 63.5 -27.5t22.5 -78.5v-1127q0 -22 9.5 -31.5t31.5 -9.5h116q56 0 56 -45q0 -47 -56 -47h-444q-55 0 -55 47q0 45 55 45h127q22 0 31.5 9.5t9.5 31.5v1057q0 29 -23 29q-11 0 -65 -52q-14 -14 -111 -92 q-100 -80 -127 -80q-20 0 -34.5 15.5t-14.5 36.5z" />
<glyph unicode="2" d="M94 51v68q0 22 6 31q35 50 400 401q196 187 261.5 283t65.5 196q0 121 -74 191.5t-202 70.5q-130 0 -214.5 -81t-90.5 -212q-2 -31 -18 -49t-44 -18q-26 0 -43.5 18.5t-17.5 44.5q0 67 35 150t82 129q115 112 311 112q184 0 291.5 -94.5t107.5 -255.5q0 -155 -121 -297 q-60 -69 -110 -120.5t-293 -294.5l-238 -232h648q22 0 31.5 9.5t9.5 31.5v113q0 31 14 48t39 17t39 -17t14 -48v-195q0 -28 -11.5 -39.5t-37.5 -11.5h-791q-26 0 -37.5 11.5t-11.5 39.5z" />
<glyph unicode="3" d="M111 352q0 32 16.5 51t44.5 19q31 0 45 -17.5t19 -60.5q12 -120 96 -194t209 -74q129 0 215 82.5t86 206.5q0 129 -83.5 201.5t-238.5 80.5q-22 1 -35.5 15t-13.5 34q0 29 25 43q12 7 67 11q121 9 193.5 82t72.5 186q0 123 -80.5 198.5t-211.5 75.5q-124 0 -209 -73.5 t-92 -188.5q-3 -29 -19.5 -46t-42.5 -17t-43.5 17.5t-17.5 45.5q0 61 32.5 133.5t79.5 116.5q112 106 310 106q190 0 300.5 -97.5t110.5 -264.5q0 -138 -71 -219.5t-218 -110.5q83 -17 128 -37t85 -57q95 -92 95 -240q0 -170 -117 -274t-309 -104q-189 0 -308.5 103.5 t-119.5 266.5z" />
<glyph unicode="4" d="M43 496q0 31 33 75l581 772q12 15 20.5 19t27.5 4h71q26 0 37.5 -11.5t11.5 -37.5v-793q0 -22 9.5 -31.5t31.5 -9.5h121q25 0 39 -11.5t14 -31.5q0 -45 -53 -45h-121q-22 0 -31.5 -9.5t-9.5 -31.5v-221q0 -22 9.5 -31.5t31.5 -9.5h97q57 0 57 -45q0 -47 -57 -47h-418 q-58 0 -58 47q0 45 58 45h127q23 0 33 9.5t10 31.5v221q0 22 -10 31.5t-33 9.5h-508q-58 0 -89.5 26.5t-31.5 74.5zM131 483h584v777z" />
<glyph unicode="5" d="M139 334q0 34 18.5 54t47.5 20q32 0 47.5 -20t19.5 -69q9 -106 90 -174.5t197 -68.5q149 0 236.5 98t87.5 264q0 160 -84 251t-232 91q-145 0 -233 -94q-22 -22 -32 -37.5t-28 -58.5q-17 -45 -57 -45q-28 0 -49 24q-3 3 -7 23t-3 29l24 696q2 26 13.5 37.5t37.5 11.5h654 q57 0 57 -45q0 -47 -57 -47h-555q-23 0 -32 -9t-11 -32l-21 -541q40 89 122.5 135.5t201.5 46.5q189 0 299 -116.5t110 -317.5q0 -214 -119.5 -336t-330.5 -122q-198 0 -313 118q-44 44 -71.5 108.5t-27.5 125.5z" />
<glyph unicode="6" d="M113 580q0 404 145 628q116 178 348 178q224 0 316 -165q47 -86 47 -160q0 -28 -17 -46t-43 -18q-53 0 -59 66q-4 104 -73 166.5t-175 62.5q-195 0 -289 -205q-38 -82 -62 -208.5t-24 -251.5q37 86 80 129q105 108 260 108q103 0 196 -42.5t142 -112.5q82 -114 82 -293 q0 -197 -124 -321t-320 -124q-88 0 -170 40t-142 112q-118 139 -118 457zM244 432q0 -163 85.5 -260.5t229.5 -97.5q143 0 229 95.5t86 254.5q0 157 -83 250.5t-222 93.5q-145 0 -235 -93.5t-90 -242.5z" />
<glyph unicode="7" d="M98 1096v219q0 28 12 39.5t40 11.5h749q54 0 83.5 -24t29.5 -68q0 -18 -27 -76q-195 -389 -278.5 -574.5t-243.5 -582.5q-19 -50 -33 -66t-41 -16q-25 0 -43 17t-18 42q0 23 24 72q2 5 7 17t13.5 32.5t16.5 40.5q138 326 218.5 498t295.5 596h-657q-22 0 -31.5 -9.5 t-9.5 -31.5v-137q0 -31 -14 -48.5t-39 -17.5t-39.5 17.5t-14.5 48.5z" />
<glyph unicode="8" d="M113 367q0 102 45 180.5t129 122.5q51 28 127 43q-138 28 -210.5 110t-72.5 211q0 163 112.5 257.5t305.5 94.5q191 0 303.5 -92.5t112.5 -249.5q0 -90 -37.5 -163.5t-104.5 -116.5q-47 -29 -139 -51q295 -59 295 -344q0 -175 -118.5 -281t-313.5 -106q-198 0 -316 105 t-118 280zM229 383q0 -138 87.5 -222.5t230.5 -84.5t228 82.5t85 220.5q0 137 -83.5 215t-229.5 78q-143 0 -230.5 -79.5t-87.5 -209.5zM248 1032q0 -129 80.5 -203.5t220.5 -74.5q137 0 218 74.5t81 201.5q0 123 -80 192.5t-221 69.5q-134 0 -216.5 -71.5t-82.5 -188.5z " />
<glyph unicode="9" d="M104 950q0 196 124 320.5t321 124.5q87 0 169 -40t142 -112q119 -137 119 -457q0 -194 -37.5 -356.5t-107.5 -269.5q-116 -178 -351 -178q-108 0 -189.5 42t-125.5 121q-17 32 -31 81.5t-14 80.5q0 25 16.5 42.5t42.5 17.5q51 0 60 -64q8 -53 16.5 -79.5t28.5 -53.5 q66 -94 202 -94q194 0 289 203q38 82 62 208.5t24 251.5q-28 -60 -47.5 -89.5t-50.5 -57.5q-107 -90 -242 -90q-103 0 -195 42t-143 113q-82 114 -82 293zM217 944q0 -158 83 -252t224 -94q142 0 233 94t91 242q0 163 -86 260.5t-230 97.5t-229.5 -94.5t-85.5 -253.5z" />
<glyph unicode=":" horiz-adv-x="456" d="M135 80q0 37 26.5 63.5t63.5 26.5q40 0 67 -27t27 -65t-27 -65t-65 -27q-37 0 -64.5 28t-27.5 66zM135 866q0 37 26.5 63.5t63.5 26.5q40 0 67 -27t27 -65t-27 -65t-65 -27q-37 0 -64.5 28t-27.5 66z" />
<glyph unicode=";" horiz-adv-x="456" d="M133 76q0 44 28.5 74t69.5 30q51 0 82 -43t31 -112q0 -87 -52 -194t-93 -107q-10 0 -19.5 9.5t-9.5 20.5t35 64q23 33 39 74.5t16 64.5q0 17 -8 21t-43 4q-34 0 -55 26.5t-21 67.5zM145 866q0 37 27 63.5t64 26.5q40 0 67 -27t27 -65t-27 -65t-65 -27q-37 0 -65 28 t-28 66z" />
<glyph unicode="&#x3c;" horiz-adv-x="1024" d="M68 629v108l886 406v-121l-755 -340l755 -338v-121z" />
<glyph unicode="=" d="M106 547q0 39 48 39h784q47 0 47 -39t-47 -39h-784q-48 0 -48 39zM106 860q0 39 48 39h784q47 0 47 -39t-47 -39h-784q-48 0 -48 39z" />
<glyph unicode="&#x3e;" horiz-adv-x="1024" d="M70 223v121l755 338l-755 340v121l886 -406v-108z" />
<glyph unicode="?" horiz-adv-x="964" d="M96 1034q0 42 17 97.5t41 93.5q100 161 338 161q184 0 294.5 -97.5t110.5 -260.5q0 -95 -42.5 -174t-137.5 -158l-68 -57q-89 -78 -114 -137.5t-27 -190.5q-2 -26 -18 -42.5t-41 -16.5q-33 0 -47.5 22t-14.5 72q0 103 35 189q17 45 43 76t100 96l68 57q72 63 104.5 125.5 t32.5 138.5q0 122 -74 194t-200 72q-123 0 -190 -62.5t-87 -197.5q-9 -65 -61 -65q-26 0 -44 18.5t-18 46.5zM352 80q0 37 26.5 63.5t63.5 26.5q40 0 67.5 -27t27.5 -65t-27.5 -65t-65.5 -27q-37 0 -64.5 28t-27.5 66z" />
<glyph unicode="@" horiz-adv-x="1589" d="M90 573q0 160 68.5 310.5t182 261.5t268.5 177.5t321 66.5q252 0 411.5 -141.5t159.5 -364.5q0 -123 -54.5 -241.5t-148.5 -197.5q-60 -52 -121 -74t-145 -22h-55q-25 0 -38.5 11t-12.5 30q0 6 2 10l4 31q-3 10 -6 10q-4 0 -45 -43q-31 -31 -89 -50t-120 -19 q-121 0 -187.5 67.5t-66.5 190.5q0 198 108 325t275 127q100 0 160 -47q12 -9 19 -17.5t28 -41.5q3 -6 8 -6q7 0 10 10l6 41q5 23 15.5 32t35.5 9h111q37 0 37 -29q0 -31 -37 -31h-47q-36 0 -41 -36l-84 -476l-2 -10q-1 -13 9.5 -19.5t35.5 -6.5q92 0 175.5 66t134 174.5 t50.5 228.5q0 195 -137 315.5t-358 120.5q-151 0 -292 -61t-244.5 -162t-165.5 -239.5t-62 -285.5q0 -121 47.5 -227t132.5 -174q145 -117 381 -117q104 0 217.5 21t188.5 55q29 14 41 14q15 0 25.5 -11t10.5 -26q0 -21 -22 -34q-83 -40 -216.5 -66.5t-260.5 -26.5 q-275 0 -448 166.5t-173 431.5zM506 600q0 -101 50 -155t144 -54q159 0 232 137q26 50 41.5 121.5t15.5 136.5q0 93 -45.5 141t-134.5 48q-132 0 -217.5 -106t-85.5 -269z" />
<glyph unicode="A" horiz-adv-x="1497" d="M14 47q0 45 56 45h47q19 0 27 6t16 23l499 1210q9 21 19.5 28t32.5 7h80q22 0 32 -7t17 -28l499 -1210q6 -17 14 -23t27 -6h47q58 0 58 -45q0 -47 -58 -47h-358q-55 0 -55 47q0 45 55 45h94q19 0 30 8.5t11 22.5q0 10 -6 22l-127 314q-6 17 -14 22.5t-27 5.5h-571 q-19 0 -27 -5.5t-14 -22.5l-129 -314q-4 -16 -4 -22q0 -14 11 -22.5t30 -8.5h94q57 0 57 -45q0 -47 -57 -47h-350q-56 0 -56 47zM492 608q0 -33 43 -33h421q19 0 30 8.5t11 22.5q0 7 -4 23l-215 553q-8 28 -33 28q-26 0 -34 -28l-213 -553q-6 -12 -6 -21z" />
<glyph unicode="B" horiz-adv-x="1288" d="M66 47q0 45 55 45h110q22 0 31.5 9.5t9.5 31.5v1100q0 22 -9.5 31.5t-31.5 9.5h-110q-55 0 -55 47q0 45 55 45h620q197 0 305.5 -88.5t108.5 -249.5q0 -95 -43.5 -168.5t-122.5 -111.5q-54 -23 -125 -33q79 -9 129 -27q95 -38 147 -119.5t52 -193.5q0 -175 -121 -275 t-330 -100h-620q-55 0 -55 47zM391 133q0 -22 9.5 -31.5t31.5 -9.5h252q109 0 173 18t118 64q92 80 92 209q0 140 -92 208t-281 68h-262q-22 0 -31.5 -9.5t-9.5 -31.5v-485zM391 788q0 -22 9.5 -31t31.5 -9h238q178 0 266 67q43 34 68.5 89.5t25.5 115.5q0 57 -22.5 108 t-61.5 84q-44 35 -101 48.5t-167 13.5h-246q-22 0 -31.5 -9.5t-9.5 -31.5v-445z" />
<glyph unicode="C" horiz-adv-x="1372" d="M96 692q0 336 178 520q82 85 195 129.5t244 44.5q226 0 364 -122q30 -28 48 -55t36 -72v163q0 31 14 48.5t39 17.5q26 0 41 -17.5t15 -48.5v-372q0 -32 -15 -50t-41 -18q-51 0 -57 66q-12 162 -130.5 264t-295.5 102q-236 0 -373 -162.5t-137 -443.5q0 -284 136 -447 t372 -163q170 0 285.5 89t138.5 238q8 51 20.5 68.5t43.5 17.5q26 0 42.5 -17.5t16.5 -43.5q0 -28 -15 -81t-34 -93q-63 -133 -189.5 -202.5t-306.5 -69.5q-296 0 -465.5 189.5t-169.5 520.5z" />
<glyph unicode="D" horiz-adv-x="1470" d="M66 47q0 45 55 45h110q22 0 31.5 9.5t9.5 31.5v1100q0 22 -9.5 31.5t-31.5 9.5h-110q-55 0 -55 47q0 45 55 45h510q183 0 295.5 -30t212.5 -105q116 -88 176.5 -227t60.5 -316q0 -190 -69 -339t-195 -234q-94 -63 -207 -89t-297 -26h-487q-55 0 -55 47zM391 133 q0 -22 9.5 -31.5t31.5 -9.5h184q150 0 256 30.5t189 98.5q91 75 140.5 195.5t49.5 267.5q0 157 -53 278.5t-154 196.5q-80 60 -175.5 87.5t-227.5 27.5h-209q-22 0 -31.5 -9.5t-9.5 -31.5v-1100z" />
<glyph unicode="E" horiz-adv-x="1306" d="M66 47q0 45 55 45h110q22 0 31.5 9.5t9.5 31.5v1100q0 22 -9.5 31.5t-31.5 9.5h-110q-55 0 -55 47q0 45 55 45h1007q26 0 38 -12t12 -39v-291q0 -32 -14.5 -50t-39.5 -18q-26 0 -40.5 18t-14.5 50v209q0 22 -9.5 31.5t-31.5 9.5h-596q-22 0 -31.5 -9.5t-9.5 -31.5v-453 q0 -22 9.5 -31.5t31.5 -9.5h285q22 0 31.5 9.5t9.5 31.5v115q0 61 51 61q49 0 49 -61v-412q0 -28 -13 -43.5t-36 -15.5q-51 0 -51 59v127q0 22 -9.5 31.5t-31.5 9.5h-285q-22 0 -31.5 -9.5t-9.5 -31.5v-477q0 -22 9.5 -31.5t31.5 -9.5h596q22 0 31.5 9.5t9.5 31.5v223 q0 32 14.5 50t40.5 18q25 0 39.5 -18t14.5 -50v-305q0 -27 -12 -39t-38 -12h-1007q-55 0 -55 47z" />
<glyph unicode="F" horiz-adv-x="1200" d="M66 47q0 45 55 45h110q22 0 31.5 9.5t9.5 31.5v1100q0 22 -9.5 31.5t-31.5 9.5h-110q-55 0 -55 47q0 45 55 45h962q27 0 38.5 -12t11.5 -39v-299q0 -31 -14.5 -48.5t-39.5 -17.5q-26 0 -40.5 17.5t-14.5 48.5v217q0 22 -9.5 31.5t-31.5 9.5h-551q-22 0 -31.5 -9.5 t-9.5 -31.5v-473q0 -22 9.5 -31.5t31.5 -9.5h273q22 0 31 9.5t9 31.5v112q0 29 13.5 45.5t38.5 16.5q23 0 36 -16.5t13 -45.5v-401q0 -61 -49 -61q-52 0 -52 61v119q0 22 -9 31.5t-31 9.5h-273q-22 0 -31.5 -9.5t-9.5 -31.5v-457q0 -22 9.5 -31.5t31.5 -9.5h158q55 0 55 -45 q0 -47 -55 -47h-469q-55 0 -55 47z" />
<glyph unicode="G" horiz-adv-x="1519" d="M96 682q0 322 174 513t467 191q111 0 209.5 -31.5t159.5 -88.5q28 -25 44 -48t36 -67v149q0 31 14 48.5t39 17.5q26 0 40.5 -17.5t14.5 -48.5v-378q0 -31 -14.5 -48.5t-40.5 -17.5q-27 0 -40.5 19.5t-16.5 62.5q-9 161 -148 262q-131 92 -291 92q-108 0 -208 -46 t-173 -130q-143 -161 -143 -448q0 -161 51.5 -285t149.5 -199q66 -51 149 -79.5t166 -28.5q70 0 148 19.5t131 51.5q85 49 129.5 144.5t44.5 224.5q0 41 -8.5 54.5t-34.5 13.5h-152q-55 0 -55 43q0 45 55 45h430q54 0 54 -43q0 -45 -54 -45h-88q-22 0 -31.5 -9.5t-9.5 -31.5 v-477q0 -31 -14 -48.5t-39 -17.5q-26 0 -40.5 17.5t-14.5 48.5v165q-37 -107 -165 -178t-286 -71q-141 0 -268.5 55t-212.5 153q-75 90 -116.5 218t-41.5 274z" />
<glyph unicode="H" horiz-adv-x="1560" d="M66 47q0 45 55 45h110q22 0 31.5 9.5t9.5 31.5v1100q0 22 -9.5 31.5t-31.5 9.5h-110q-55 0 -55 47q0 45 55 45h422q55 0 55 -45q0 -47 -55 -47h-111q-22 0 -31.5 -9.5t-9.5 -31.5v-455q0 -22 9.5 -31.5t31.5 -9.5h696q22 0 31.5 9.5t9.5 31.5v455q0 22 -9.5 31.5 t-31.5 9.5h-110q-55 0 -55 47q0 45 55 45h422q55 0 55 -45q0 -47 -55 -47h-111q-22 0 -31.5 -9.5t-9.5 -31.5v-1100q0 -22 9.5 -31.5t31.5 -9.5h111q55 0 55 -45q0 -47 -55 -47h-422q-55 0 -55 47q0 45 55 45h110q22 0 31.5 9.5t9.5 31.5v471q0 22 -9.5 31.5t-31.5 9.5h-696 q-22 0 -31.5 -9.5t-9.5 -31.5v-471q0 -22 9.5 -31.5t31.5 -9.5h111q55 0 55 -45q0 -47 -55 -47h-422q-55 0 -55 47z" />
<glyph unicode="I" horiz-adv-x="663" d="M66 47q0 45 55 45h110q22 0 31.5 9.5t9.5 31.5v1100q0 22 -9.5 31.5t-31.5 9.5h-110q-55 0 -55 47q0 45 55 45h422q55 0 55 -45q0 -47 -55 -47h-111q-22 0 -31.5 -9.5t-9.5 -31.5v-1100q0 -22 9.5 -31.5t31.5 -9.5h111q55 0 55 -45q0 -47 -55 -47h-422q-55 0 -55 47z" />
<glyph unicode="J" horiz-adv-x="1032" d="M39 383q0 35 17 56.5t46 21.5q17 0 32.5 -9t21.5 -22q8 -16 12 -84q5 -131 67.5 -200.5t176.5 -69.5q134 0 198 86q34 44 46 99t12 163v809q0 22 -9.5 31.5t-31.5 9.5h-131q-56 0 -56 47q0 45 56 45h415q56 0 56 -45q0 -47 -56 -47h-84q-22 0 -31.5 -9.5t-9.5 -31.5v-809 q0 -132 -15 -199t-58 -119q-100 -124 -312 -124q-114 0 -195.5 42t-121.5 121q-19 36 -32 106.5t-13 131.5z" />
<glyph unicode="K" horiz-adv-x="1318" d="M66 47q0 45 55 45h110q22 0 31.5 9.5t9.5 31.5v1100q0 22 -9.5 31.5t-31.5 9.5h-110q-55 0 -55 47q0 45 55 45h416q55 0 55 -45q0 -47 -55 -47h-105q-22 0 -31.5 -9.5t-9.5 -31.5v-500l535 475q28 28 28 41q0 11 -13 18t-34 7h-35q-55 0 -55 47q0 45 55 45h322 q55 0 55 -45q0 -47 -55 -47h-27q-14 0 -19.5 -2t-17.5 -12l-569 -504q-18 -15 -18 -31q0 -15 16 -31l592 -588q16 -14 37 -14h35q55 0 55 -45q0 -47 -55 -47h-334q-55 0 -55 47q0 45 55 45h39q21 0 35 7t14 16q0 14 -27 41l-559 561v-584q0 -22 9.5 -31.5t31.5 -9.5h105 q55 0 55 -45q0 -47 -55 -47h-416q-55 0 -55 47z" />
<glyph unicode="L" horiz-adv-x="1193" d="M66 47q0 45 55 45h110q22 0 31.5 9.5t9.5 31.5v1100q0 22 -9.5 31.5t-31.5 9.5h-110q-55 0 -55 47q0 45 55 45h473q55 0 55 -45q0 -47 -55 -47h-162q-22 0 -31.5 -9.5t-9.5 -31.5v-1100q0 -22 9.5 -31.5t31.5 -9.5h543q22 0 31.5 9.5t9.5 31.5v242q0 31 14.5 48t40.5 17 q25 0 39 -17t14 -48v-324q0 -28 -11.5 -39.5t-37.5 -11.5h-954q-55 0 -55 47z" />
<glyph unicode="M" horiz-adv-x="1882" d="M55 47q0 45 56 45h120q22 0 31.5 9.5t9.5 31.5v1100q0 22 -9.5 31.5t-31.5 9.5h-120q-56 0 -56 47q0 45 56 45h333q23 0 33.5 -7.5t18.5 -27.5l292 -792q4 -11 32.5 -89.5t45.5 -123.5q4 -13 29.5 -88.5t42.5 -126.5q20 59 45 129.5t29 83.5q76 201 80 213l294 794 q8 20 18 27.5t32 7.5h331q56 0 56 -45q0 -47 -56 -47h-118q-22 0 -31.5 -9.5t-9.5 -31.5v-1100q0 -22 9.5 -31.5t31.5 -9.5h118q56 0 56 -45q0 -47 -56 -47h-415q-58 0 -58 47q0 45 58 45h100q22 0 31.5 9.5t9.5 31.5v1141h-14l-465 -1206q-26 -68 -80 -68q-56 0 -82 68 l-459 1206h-14v-1141q0 -22 9.5 -31.5t31.5 -9.5h94q57 0 57 -45q0 -47 -57 -47h-403q-56 0 -56 47z" />
<glyph unicode="N" horiz-adv-x="1556" d="M66 47q0 45 55 45h110q22 0 31.5 9.5t9.5 31.5v1100q0 22 -9.5 31.5t-31.5 9.5h-110q-55 0 -55 47q0 45 55 45h305q22 0 30 -5t19 -24l483 -798q73 -129 234 -430h14v1124q0 22 -9.5 31.5t-31.5 9.5h-118q-58 0 -58 47q0 45 58 45h403q55 0 55 -45q0 -47 -55 -47h-98 q-22 0 -31.5 -9.5t-9.5 -31.5v-1182q0 -28 -11.5 -39.5t-37.5 -11.5h-76q-21 0 -30 5t-19 24l-504 833q-75 128 -238 412h-14v-1141q0 -22 9.5 -31.5t31.5 -9.5h121q57 0 57 -45q0 -47 -57 -47h-422q-55 0 -55 47z" />
<glyph unicode="O" horiz-adv-x="1495" d="M96 688q0 326 178 510q179 188 471 188q316 0 498 -206q158 -180 158 -484q0 -294 -129 -477q-81 -112 -219 -174.5t-301 -62.5q-155 0 -282.5 53.5t-215.5 154.5q-82 94 -120 214t-38 284zM221 688q0 -268 113 -420q67 -91 178 -141.5t240 -50.5q128 0 237.5 52 t175.5 144q53 75 82 186t29 238q0 279 -140.5 437.5t-387.5 158.5q-248 0 -387.5 -160t-139.5 -444z" />
<glyph unicode="P" horiz-adv-x="1202" d="M66 47q0 45 55 45h110q22 0 31.5 9.5t9.5 31.5v1100q0 22 -9.5 31.5t-31.5 9.5h-110q-55 0 -55 47q0 45 55 45h545q121 0 198.5 -20.5t139.5 -67.5q63 -51 98 -130.5t35 -174.5q0 -100 -40 -184.5t-110 -133.5q-60 -42 -139.5 -59.5t-212.5 -17.5h-203q-22 0 -31.5 -9.5 t-9.5 -31.5v-404q0 -22 9.5 -31.5t31.5 -9.5h148q55 0 55 -45q0 -47 -55 -47h-459q-55 0 -55 47zM391 711q0 -22 9.5 -31.5t31.5 -9.5h203q108 0 173.5 16.5t111.5 56.5q43 38 67.5 98.5t24.5 129.5q0 137 -82 219q-46 45 -114.5 64.5t-180.5 19.5h-203q-22 0 -31.5 -9.5 t-9.5 -31.5v-522z" />
<glyph unicode="Q" horiz-adv-x="1474" d="M96 700q0 310 178.5 498t473.5 188q287 0 458.5 -186t171.5 -498q0 -135 -43 -269.5t-112 -217.5q-35 -42 -78.5 -72.5t-120.5 -68.5q87 18 225 18h172q58 0 58 -45q0 -47 -58 -47h-233q-216 0 -322 -8l-174 -6q-173 0 -309 90.5t-211.5 253.5t-75.5 370zM221 698 q0 -281 138 -448.5t370 -167.5q235 0 369 162q73 86 114 207.5t41 250.5q0 263 -141.5 426.5t-368.5 163.5q-118 0 -221 -47t-172 -133q-58 -72 -93.5 -185t-35.5 -229z" />
<glyph unicode="R" horiz-adv-x="1341" d="M66 47q0 45 55 45h110q22 0 31.5 9.5t9.5 31.5v1100q0 22 -9.5 31.5t-31.5 9.5h-110q-55 0 -55 47q0 45 55 45h551q155 0 250.5 -30.5t152.5 -98.5q78 -90 78 -236q0 -147 -80 -236t-229 -106q92 -17 139.5 -67t81.5 -164l100 -305q6 -18 15 -24.5t28 -6.5h66 q55 0 55 -45q0 -47 -55 -47h-156q-23 0 -33 7.5t-18 29.5l-119 369q-40 127 -101.5 171t-199.5 44h-215q-22 0 -31.5 -9.5t-9.5 -31.5v-447q0 -22 9.5 -31.5t31.5 -9.5h111q55 0 55 -45q0 -47 -55 -47h-422q-55 0 -55 47zM391 754q0 -22 9.5 -31.5t31.5 -9.5h213 q99 0 161 12t107 41q52 32 82.5 93.5t30.5 133.5q0 69 -25 126.5t-71 92.5q-82 62 -256 62h-242q-22 0 -31.5 -9.5t-9.5 -31.5v-479z" />
<glyph unicode="S" horiz-adv-x="1132" d="M109 66v348q0 67 55 67q30 0 47 -24q6 -14 10 -56q1 -45 28 -110t60 -105q96 -110 275 -110q148 0 237.5 75.5t89.5 200.5q0 119 -94 185q-23 17 -54.5 30.5t-105.5 40.5l-178 62q-105 37 -160 61.5t-92 52.5q-114 86 -114 242q0 161 116.5 260.5t305.5 99.5 q265 0 366 -200v114q0 31 14 48.5t39 17.5q26 0 41 -17.5t15 -48.5v-329q0 -32 -15 -50t-41 -18q-14 0 -27.5 7.5t-19.5 19.5q-4 10 -18 104q-19 116 -113 187t-229 71q-137 0 -223 -72t-86 -186q0 -89 58 -143t210 -105l209 -71q174 -58 247.5 -139.5t73.5 -215.5 q0 -170 -117.5 -274t-310.5 -104q-296 0 -391 219v-135q0 -31 -14 -48.5t-39 -17.5q-26 0 -40.5 17.5t-14.5 48.5z" />
<glyph unicode="T" horiz-adv-x="1290" d="M68 1006v309q0 28 11.5 39.5t37.5 11.5h1057q26 0 37.5 -11.5t11.5 -39.5v-309q0 -32 -14.5 -50t-39.5 -18q-26 0 -40.5 18t-14.5 50v227q0 22 -9.5 31.5t-31.5 9.5h-328q-22 0 -31 -9.5t-9 -31.5v-1100q0 -22 9 -31.5t31 -9.5h150q55 0 55 -45q0 -47 -55 -47h-498 q-57 0 -57 47q0 45 57 45h148q22 0 31.5 9.5t9.5 31.5v1100q0 22 -9.5 31.5t-31.5 9.5h-328q-22 0 -31.5 -9.5t-9.5 -31.5v-227q0 -32 -14 -50t-39 -18q-26 0 -40.5 18t-14.5 50z" />
<glyph unicode="U" horiz-adv-x="1488" d="M47 1321q0 45 57 45h414q55 0 55 -45q0 -47 -55 -47h-125q-22 0 -31.5 -9.5t-9.5 -31.5v-723q0 -177 72 -279q112 -155 326 -155q192 0 295.5 118t103.5 336v703q0 22 -9.5 31.5t-31.5 9.5h-125q-55 0 -55 47q0 45 55 45h403q58 0 58 -45q0 -47 -58 -47h-88 q-22 0 -31.5 -9.5t-9.5 -31.5v-692q0 -129 -19.5 -208.5t-70.5 -150.5q-137 -200 -422 -200q-132 0 -238 47.5t-175 136.5q-52 67 -75.5 150t-23.5 202v715q0 22 -9 31.5t-31 9.5h-89q-57 0 -57 47z" />
<glyph unicode="V" horiz-adv-x="1435" d="M14 1321q0 45 56 45h372q58 0 58 -45q0 -47 -58 -47h-114q-19 0 -30 -9t-11 -24q0 -8 4 -20l344 -867q2 -7 8 -25.5t15.5 -49.5t19.5 -62q2 -7 35 -113h12q8 25 22 65t17 50q40 112 47 133l338 869q4 16 4 20q0 15 -11 24t-30 9h-115q-55 0 -55 47q0 45 55 45h369 q57 0 57 -45q0 -47 -57 -47h-47q-20 0 -28.5 -6t-14.5 -23l-473 -1210q-9 -22 -19 -28.5t-32 -6.5h-80q-24 0 -34 6.5t-17 28.5l-467 1210q-6 17 -14.5 23t-28.5 6h-41q-56 0 -56 47z" />
<glyph unicode="W" horiz-adv-x="1947" d="M14 1321q0 45 56 45h358q55 0 55 -45q0 -47 -55 -47h-115q-19 0 -30 -9t-11 -24q0 -10 2 -16l209 -828q5 -9 29 -143q13 -53 29 -148h12q43 200 70 291l268 930q6 23 16 31t33 8h84q25 0 35 -8t16 -31l258 -932q19 -65 39 -143q3 -14 37 -146h12q4 24 11 60.5t11 57.5 t5 30q24 125 29 141l211 830q2 4 2 16q-3 33 -41 33h-117q-55 0 -55 47q0 45 55 45h346q55 0 55 -45q0 -47 -55 -47h-35q-20 0 -28.5 -7t-14.5 -26l-299 -1202q-6 -23 -16.5 -31t-34.5 -8h-76q-25 0 -35 8t-16 31l-279 983q-23 84 -63 252h-12q-21 -90 -31 -121l-37 -133 l-268 -981q-6 -23 -16.5 -31t-34.5 -8h-82q-25 0 -35 8t-16 31l-297 1202q-6 19 -14.5 26t-28.5 7h-39q-56 0 -56 47z" />
<glyph unicode="X" horiz-adv-x="1458" d="M14 47q0 45 56 45h63q15 0 21.5 3.5t17.5 15.5l481 604l-432 540q-11 12 -17.5 15.5t-21.5 3.5h-67q-58 0 -58 47q0 45 58 45h385q57 0 57 -45q0 -47 -57 -47h-72q-19 0 -31 -8.5t-12 -22.5q0 -16 12 -31l332 -419l342 419q12 15 12 29q0 15 -11.5 24t-29.5 9h-61 q-55 0 -55 47q0 45 55 45h367q55 0 55 -45q0 -47 -55 -47h-70q-15 0 -21.5 -3.5t-17.5 -15.5l-432 -540l481 -604q9 -12 15.5 -15.5t23.5 -3.5h64q55 0 55 -45q0 -47 -55 -47h-410q-55 0 -55 47q0 45 55 45h98q19 0 30 8.5t11 22.5q0 16 -12 31l-379 481l-391 -481 q-12 -15 -12 -29q0 -15 12 -24t31 -9h94q55 0 55 -45q0 -47 -55 -47h-393q-56 0 -56 47z" />
<glyph unicode="Y" horiz-adv-x="1308" d="M14 1321q0 45 56 45h356q57 0 57 -45q0 -47 -57 -47h-84q-19 0 -30 -9t-11 -24q0 -14 8 -27l340 -536q3 -6 10 -6q6 0 9 6l340 536q10 17 10 27q0 33 -43 33h-82q-55 0 -55 47q0 45 55 45h346q55 0 55 -45q0 -47 -55 -47h-41q-17 0 -24.5 -4.5t-16.5 -18.5l-436 -671 q-10 -14 -10 -33v-414q0 -22 9.5 -31.5t31.5 -9.5h149q55 0 55 -45q0 -47 -55 -47h-500q-55 0 -55 47q0 45 55 45h150q22 0 31.5 9.5t9.5 31.5v414q0 19 -10 33l-432 671q-9 14 -16.5 18.5t-24.5 4.5h-39q-56 0 -56 47z" />
<glyph unicode="Z" horiz-adv-x="1288" d="M109 100q0 39 36 80l881 1094h-752q-22 0 -31.5 -9.5t-9.5 -31.5v-211q0 -32 -14 -50t-39 -18q-26 0 -40.5 18t-14.5 50v293q0 28 11.5 39.5t37.5 11.5h868q54 0 83.5 -24t29.5 -70q0 -30 -33 -74l-891 -1106h797q22 0 31.5 9.5t9.5 31.5v227q0 31 14.5 48.5t40.5 17.5 q25 0 39.5 -17.5t14.5 -48.5v-309q0 -27 -12 -39t-38 -12h-897q-59 0 -90.5 26t-31.5 74z" />
<glyph unicode="[" horiz-adv-x="587" d="M193 -295v1610q0 28 11.5 39.5t39.5 11.5h168q47 0 47 -39t-47 -39h-74q-22 0 -31.5 -9.5t-9.5 -31.5v-1474q0 -22 9.5 -31.5t31.5 -9.5h74q47 0 47 -39t-47 -39h-168q-28 0 -39.5 11.5t-11.5 39.5z" />
<glyph unicode="\" horiz-adv-x="1114" d="M141 1325q0 17 13 29t30 12q23 0 43 -29l936 -1609q13 -19 13 -33q0 -15 -13 -28t-30 -13q-27 0 -43 31l-938 1607q-11 22 -11 33z" />
<glyph unicode="]" horiz-adv-x="587" d="M129 -307q0 39 47 39h74q22 0 31.5 9.5t9.5 31.5v1474q0 22 -9.5 31.5t-31.5 9.5h-74q-47 0 -47 39t47 39h168q28 0 39.5 -11.5t11.5 -39.5v-1610q0 -28 -11.5 -39.5t-39.5 -11.5h-168q-47 0 -47 39z" />
<glyph unicode="^" horiz-adv-x="1024" d="M74 778l368 590h142l368 -590h-121l-321 506l-317 -506h-119z" />
<glyph unicode="_" horiz-adv-x="1024" d="M0 -156h1024v-84h-1024v84z" />
<glyph unicode="`" horiz-adv-x="1024" d="M354 1331q0 20 18 36.5t40 16.5q32 0 53 -36l104 -166q13 -20 13 -33q0 -15 -14 -28t-31 -13q-22 0 -41 22l-121 152q-21 28 -21 49z" />
<glyph unicode="a" horiz-adv-x="1107" d="M88 260q0 87 41.5 154t118.5 104q108 51 362 51l111 -2q14 -2 37 -2q41 0 41 35v6q0 98 -13 142t-51 79q-72 66 -211 66q-123 0 -194.5 -49.5t-85.5 -143.5q-3 -25 -19 -39t-39 -14q-25 0 -41 17t-16 43q0 60 45.5 125.5t110.5 99.5q90 47 243 47q210 0 306 -102 q43 -47 59 -105t16 -164v-483q0 -22 9.5 -31.5t31.5 -9.5h70q51 0 51 -41q0 -43 -51 -43h-172q-26 0 -37.5 11.5t-11.5 37.5v152q-54 -122 -140 -176t-225 -54q-162 0 -254 77t-92 212zM205 264q0 -98 65.5 -152.5t184.5 -54.5q197 0 282 142q22 34 40 113t18 139 q0 21 -19 30q-16 8 -182 8q-198 0 -293.5 -55.5t-95.5 -169.5z" />
<glyph unicode="b" horiz-adv-x="1214" d="M35 41q0 20 14 31.5t39 11.5h84q22 0 31.5 9.5t9.5 31.5v1114q0 23 -9.5 33t-31.5 10h-84q-25 0 -39 11.5t-14 31.5q0 19 14 30t39 11h186q26 0 38 -11.5t12 -37.5v-565q59 119 145.5 173t218.5 54q209 0 327 -133t118 -369q0 -239 -117.5 -372.5t-329.5 -133.5 q-270 0 -362 236v-158q0 -26 -12 -37.5t-38 -11.5h-186q-25 0 -39 11t-14 30zM322 483q0 -116 21.5 -190t72.5 -131q92 -105 248 -105q163 0 258.5 112t95.5 304t-95 306t-255 114q-178 0 -275 -135q-71 -101 -71 -275z" />
<glyph unicode="c" horiz-adv-x="1060" d="M82 475q0 229 123 366.5t327 137.5q114 0 199.5 -51.5t116.5 -139.5v107q0 55 45 55t45 -55v-246q0 -26 -12.5 -41.5t-34.5 -15.5q-43 0 -49 51q-13 114 -95 182t-204 68q-157 0 -251.5 -114t-94.5 -302q0 -190 96 -305t254 -115q112 0 191.5 56t99.5 149q11 50 20 63 t35 13q22 0 35.5 -15t13.5 -38q0 -26 -17 -70t-44 -86q-47 -76 -134.5 -117t-203.5 -41q-210 0 -335.5 137.5t-125.5 366.5z" />
<glyph unicode="d" horiz-adv-x="1208" d="M82 471q0 232 124 370t331 138q94 0 173.5 -32.5t133.5 -92.5q27 -34 49 -84v469q0 23 -9.5 33t-31.5 10h-86q-53 0 -53 43q0 41 53 41h188q26 0 38 -11.5t12 -37.5v-1192q0 -22 9 -31.5t31 -9.5h84q54 0 54 -41q0 -43 -54 -43h-186q-26 0 -37.5 11.5t-11.5 37.5v150 q-41 -109 -135.5 -168.5t-227.5 -59.5q-210 0 -329 133t-119 367zM197 477q0 -197 94 -308.5t260 -111.5t255 109.5t89 314.5q0 103 -17.5 169t-58.5 118q-94 125 -262 125q-166 0 -263 -112t-97 -304z" />
<glyph unicode="e" horiz-adv-x="1085" d="M82 475q0 235 125 369.5t346 134.5q154 0 260.5 -69.5t149.5 -198.5q17 -44 27.5 -105.5t10.5 -103.5q0 -47 -49 -47h-714q-41 0 -41 -39q0 -72 34 -152q94 -207 338 -207q123 0 205.5 56t110.5 159q8 31 19 43.5t32 12.5q22 0 34.5 -15.5t12.5 -40.5q0 -55 -70 -149 q-110 -152 -356 -152q-223 0 -349 134t-126 370zM203 569q0 -30 37 -30h608q39 0 39 32q0 60 -29 124.5t-76 111.5q-86 86 -233 86q-159 0 -246 -96q-42 -45 -71 -111.5t-29 -116.5z" />
<glyph unicode="f" horiz-adv-x="657" d="M29 909q0 41 51 41h96q22 0 31.5 9.5t9.5 31.5v64q0 164 76.5 250t224.5 86q91 0 135 -23q23 -13 23 -39q0 -15 -10.5 -28t-22.5 -13q-11 0 -27 4q-53 11 -88 11q-100 0 -157 -76q-24 -29 -33.5 -69.5t-9.5 -113.5v-53q0 -22 9.5 -31.5t31.5 -9.5h141q53 0 53 -41 q0 -43 -53 -43h-141q-22 0 -31.5 -9.5t-9.5 -31.5v-700q0 -22 9.5 -31.5t31.5 -9.5h112q51 0 51 -41q0 -43 -51 -43h-387q-25 0 -39 11t-14 30q0 20 14 31.5t39 11.5h82q22 0 31.5 9.5t9.5 31.5v700q0 22 -9.5 31.5t-31.5 9.5h-96q-51 0 -51 43z" />
<glyph unicode="g" horiz-adv-x="1206" d="M82 494q0 227 118.5 356t325.5 129q135 0 228.5 -54.5t134.5 -158.5v135q0 49 51 49h186q54 0 54 -41q0 -43 -54 -43h-84q-22 0 -31.5 -9.5t-9.5 -31.5v-770q0 -198 -83 -297q-60 -68 -145 -98.5t-214 -30.5q-212 0 -315 78q-44 34 -73.5 80.5t-29.5 81.5q0 26 18.5 43.5 t45.5 17.5q26 0 38.5 -11.5t18.5 -39.5q15 -77 93 -119.5t204 -42.5q207 0 283 119q19 30 34 76t15 76v241q-23 -66 -64 -104q-117 -117 -299 -117q-202 0 -324 133t-122 353zM197 496q0 -180 97 -291t255 -111q163 0 264 119q80 89 80 285q0 106 -22 174t-76 123 q-98 98 -242 98q-165 0 -260.5 -106.5t-95.5 -290.5z" />
<glyph unicode="h" horiz-adv-x="1189" d="M35 41q0 20 14 31.5t39 11.5h84q22 0 31.5 9.5t9.5 31.5v1114q0 23 -9.5 33t-31.5 10h-84q-25 0 -39 11.5t-14 31.5q0 19 14 30t39 11h186q26 0 38 -11.5t12 -37.5v-541q81 203 331 203q164 0 251 -82.5t87 -239.5v-532q0 -22 9.5 -31.5t31.5 -9.5h84q53 0 53 -41 q0 -43 -53 -43h-360q-53 0 -53 41q0 43 53 43h84q22 0 31.5 9.5t9.5 31.5v496q0 140 -60.5 206t-189.5 66q-141 0 -225 -91t-84 -245v-432q0 -22 9.5 -31.5t31.5 -9.5h84q53 0 53 -41q0 -43 -53 -43h-361q-25 0 -39 11t-14 30z" />
<glyph unicode="i" horiz-adv-x="534" d="M41 41q0 20 14 31.5t39 11.5h84q22 0 31.5 9.5t9.5 31.5v700q0 22 -9.5 31.5t-31.5 9.5h-84q-25 0 -39 11.5t-14 31.5q0 19 14 30t39 11h187q26 0 37.5 -11.5t11.5 -37.5v-776q0 -22 9.5 -31.5t31.5 -9.5h71q25 0 38.5 -11t13.5 -30q0 -43 -52 -43h-348q-25 0 -39 11 t-14 30zM182 1253q0 34 24 58t58 24q35 0 59.5 -24.5t24.5 -59.5q0 -34 -24 -58t-58 -24q-35 0 -59.5 25t-24.5 59z" />
<glyph unicode="j" horiz-adv-x="507" d="M-61 -311q0 19 12 31t31 12q8 0 22 -4q41 -9 64 -9q97 0 133 76q18 37 18 121v909q0 22 -9.5 31.5t-31.5 9.5h-86q-51 0 -51 43q0 41 51 41h189q26 0 37.5 -11.5t11.5 -37.5v-979q0 -158 -55 -223.5t-187 -65.5q-79 0 -114 13.5t-35 42.5zM172 1253q0 34 24 58t58 24 q35 0 59.5 -24.5t24.5 -59.5q0 -34 -24 -58t-58 -24q-35 0 -59.5 25t-24.5 59z" />
<glyph unicode="k" horiz-adv-x="1105" d="M35 41q0 20 14 31.5t39 11.5h84q22 0 31.5 9.5t9.5 31.5v1116q0 22 -9.5 31.5t-31.5 9.5h-84q-25 0 -39 11.5t-14 31.5q0 19 14 30t39 11h186q26 0 38 -11.5t12 -37.5v-856l401 348q27 24 27 37q0 20 -43 20h-29q-51 0 -51 43q0 41 51 41h311q51 0 51 -41q0 -43 -51 -43 h-55q-11 0 -15 -0.5t-9 -3.5t-11 -10l-264 -227q-16 -16 -16 -33q0 -8 10 -25l309 -463q9 -13 15.5 -16.5t23.5 -3.5h39q51 0 51 -41q0 -43 -51 -43h-289q-51 0 -51 41q0 43 51 43h29q47 0 47 20q0 8 -21 39l-231 346q-15 21 -33 21q-13 0 -28 -12l-168 -148v-225 q0 -22 9.5 -31.5t31.5 -9.5h69q51 0 51 -41q0 -43 -51 -43h-346q-25 0 -39 11t-14 30z" />
<glyph unicode="l" horiz-adv-x="528" d="M35 41q0 20 14 31.5t39 11.5h84q22 0 31.5 9.5t9.5 31.5v1116q0 22 -9.5 31.5t-31.5 9.5h-84q-25 0 -39 11.5t-14 31.5q0 19 14 30t39 11h186q26 0 38 -11.5t12 -37.5v-1192q0 -22 9.5 -31.5t31.5 -9.5h84q53 0 53 -41q0 -43 -53 -43h-361q-25 0 -39 11t-14 30z" />
<glyph unicode="m" horiz-adv-x="1798" d="M41 41q0 20 14 31.5t39 11.5h84q22 0 31.5 9.5t9.5 31.5v700q0 22 -9.5 31.5t-31.5 9.5h-84q-25 0 -39 11.5t-14 31.5q0 19 14 30t39 11h187q26 0 37.5 -11.5t11.5 -37.5v-135q87 213 334 213q79 0 145.5 -27.5t101.5 -74.5q24 -30 41 -91q20 53 40.5 80.5t56.5 51.5 q94 61 223 61q103 0 181.5 -42.5t115.5 -117.5q33 -67 33 -186v-508q0 -22 9 -31.5t31 -9.5h84q54 0 54 -41q0 -43 -54 -43h-354q-25 0 -39 11t-14 30q0 20 14 31.5t39 11.5h78q22 0 31.5 9.5t9.5 31.5v479q0 289 -244 289q-137 0 -215 -96q-37 -44 -51 -95.5t-14 -142.5 v-434q0 -22 9.5 -31.5t31.5 -9.5h77q25 0 39.5 -11t14.5 -30q0 -43 -54 -43h-348q-51 0 -51 41q0 43 51 43h78q22 0 31.5 9.5t9.5 31.5v469q0 93 -10 137.5t-39 81.5q-61 80 -182 80q-157 0 -242 -127q-29 -44 -41 -94.5t-12 -132.5v-414q0 -22 9.5 -31.5t31.5 -9.5h84 q53 0 53 -41q0 -43 -53 -43h-361q-25 0 -39 11t-14 30z" />
<glyph unicode="n" horiz-adv-x="1202" d="M41 41q0 20 14 31.5t39 11.5h84q22 0 31.5 9.5t9.5 31.5v700q0 22 -9.5 31.5t-31.5 9.5h-84q-25 0 -39 11.5t-14 31.5q0 19 14 30t39 11h187q26 0 37.5 -11.5t11.5 -37.5v-133q35 101 121.5 156t212.5 55q166 0 254 -80.5t88 -232.5v-541q0 -22 9.5 -31.5t31.5 -9.5h83 q54 0 54 -41q0 -43 -54 -43h-360q-53 0 -53 41q0 43 51 43h86q22 0 31.5 9.5t9.5 31.5v510q0 126 -67.5 192t-196.5 66q-139 0 -220 -89t-81 -243v-436q0 -22 9.5 -31.5t31.5 -9.5h86q51 0 51 -41q0 -43 -51 -43h-363q-25 0 -39 11t-14 30z" />
<glyph unicode="o" horiz-adv-x="1116" d="M82 494q0 218 132 351.5t347 133.5q218 0 345.5 -135t127.5 -367q0 -230 -129 -368t-344 -138q-221 0 -350 140.5t-129 382.5zM197 489q0 -200 96 -316t262 -116q169 0 267 111t98 301q0 196 -96 310t-261 114q-164 0 -265 -112t-101 -292z" />
<glyph unicode="p" horiz-adv-x="1206" d="M27 -305q0 20 14 31.5t39 11.5h84q22 0 31.5 10t9.5 33v1044q0 22 -9.5 31.5t-31.5 9.5h-84q-25 0 -39 11.5t-14 31.5q0 19 14 30t39 11h186q26 0 37.5 -11.5t11.5 -37.5v-168q35 118 127.5 182t229.5 64q212 0 332 -132.5t120 -365.5q0 -235 -120.5 -372.5 t-327.5 -137.5q-134 0 -227 63.5t-134 184.5v-438q0 -23 9.5 -33t31.5 -10h84q54 0 54 -41q0 -43 -54 -43h-360q-25 0 -39 11t-14 30zM317 483q0 -109 21.5 -181.5t71.5 -131.5q93 -113 245 -113q161 0 258 114t97 306t-95 304t-258 112q-162 0 -251 -107.5t-89 -302.5z" />
<glyph unicode="q" horiz-adv-x="1206" d="M84 477q0 235 120 368.5t331 133.5q134 0 226.5 -58.5t129.5 -166.5v147q0 26 11.5 37.5t37.5 11.5h186q54 0 54 -41q0 -43 -54 -43h-84q-22 0 -31.5 -9.5t-9.5 -31.5v-1044q0 -23 9.5 -33t31.5 -10h84q54 0 54 -41q0 -43 -54 -43h-360q-53 0 -53 41q0 43 53 43h84 q22 0 31.5 10t9.5 33v418q-10 -44 -23.5 -68t-44.5 -53q-110 -107 -282 -107q-212 0 -334.5 135.5t-122.5 370.5zM199 475q0 -194 95 -306t259 -112t252 108.5t88 309.5q0 206 -85.5 312t-252.5 106t-261.5 -111t-94.5 -307z" />
<glyph unicode="r" horiz-adv-x="753" d="M41 41q0 20 14 31.5t39 11.5h84q22 0 31.5 9.5t9.5 31.5v700q0 22 -9.5 31.5t-31.5 9.5h-84q-25 0 -39 11.5t-14 31.5q0 19 14 30t39 11h187q26 0 37.5 -11.5t11.5 -37.5v-145q15 52 32 81.5t48 57.5q42 39 102 61.5t123 22.5q40 0 62 -14t22 -39q0 -18 -8.5 -28.5 t-22.5 -10.5t-26 2q-14 4 -31 4q-60 0 -144 -35q-77 -35 -117 -117.5t-40 -205.5v-410q0 -22 9.5 -31.5t31.5 -9.5h118q25 0 38.5 -11t13.5 -30q0 -43 -52 -43h-395q-25 0 -39 11t-14 30z" />
<glyph unicode="s" horiz-adv-x="946" d="M82 55v221q0 58 47 58q25 0 39 -21q4 -8 14 -59q6 -28 28 -63t48 -58q82 -76 217 -76q122 0 198.5 53t76.5 138q0 49 -26 87.5t-71 57.5q-39 18 -131 31l-125 16q-124 17 -192 56q-53 31 -82 83.5t-29 116.5q0 126 100.5 204.5t262.5 78.5q109 0 178.5 -35t120.5 -117v68 q0 55 45 55t45 -55v-223q0 -56 -45 -56q-27 0 -39 23q-4 10 -10 61q-6 83 -86 137t-197 54q-118 0 -189 -50.5t-71 -133.5q0 -68 48.5 -106.5t152.5 -53.5l125 -19q106 -15 160.5 -34t95.5 -56q73 -67 73 -176q0 -132 -100.5 -211.5t-269.5 -79.5q-124 0 -199.5 40 t-122.5 132v-88q0 -55 -45 -55t-45 55z" />
<glyph unicode="t" horiz-adv-x="696" d="M2 909q0 19 14 30t39 11h103q22 0 31.5 9.5t9.5 31.5v129q0 32 14.5 50t40.5 18t40.5 -18t14.5 -50v-129q0 -22 9.5 -31.5t31.5 -9.5h225q25 0 38.5 -11t13.5 -30q0 -43 -52 -43h-225q-22 0 -31.5 -9.5t-9.5 -31.5v-563q0 -76 5 -105.5t22 -52.5q13 -21 40.5 -34 t57.5 -13q86 0 115 84q10 38 14 84q0 19 13 31t32 12q47 0 47 -61q0 -59 -34 -125q-55 -111 -195 -111q-117 0 -172 71t-55 220v563q0 22 -9.5 31.5t-31.5 9.5h-103q-25 0 -39 11.5t-14 31.5z" />
<glyph unicode="u" horiz-adv-x="1187" d="M20 909q0 19 14.5 30t39.5 11h186q26 0 37.5 -11.5t11.5 -37.5v-557q0 -146 63 -216.5t193 -70.5q152 0 229.5 95.5t77.5 283.5v389q0 22 -9.5 31.5t-31.5 9.5h-86q-51 0 -51 43q0 41 51 41h189q26 0 37.5 -11.5t11.5 -37.5v-776q0 -22 9.5 -31.5t31.5 -9.5h84 q53 0 53 -41q0 -43 -53 -43h-186q-26 0 -38 11.5t-12 37.5v123q-65 -201 -337 -201q-168 0 -254 92q-47 50 -64.5 109.5t-17.5 171.5v481q0 22 -9.5 31.5t-31.5 9.5h-84q-25 0 -39.5 11.5t-14.5 31.5z" />
<glyph unicode="v" horiz-adv-x="1105" d="M6 909q0 41 51 41h308q51 0 51 -41q0 -43 -51 -43h-64q-19 0 -30 -8t-11 -22q0 -11 4 -23l178 -430q85 -209 115 -317q36 110 121 317l176 430q6 12 6 23q0 30 -43 30h-63q-52 0 -52 43q0 19 13.5 30t38.5 11h293q51 0 51 -41q0 -43 -51 -43h-29q-19 0 -27.5 -5.5 t-15.5 -22.5l-334 -805q-7 -20 -17 -26.5t-32 -6.5h-72q-22 0 -32 6.5t-19 26.5l-332 805q-7 17 -15.5 22.5t-27.5 5.5h-37q-51 0 -51 43z" />
<glyph unicode="w" horiz-adv-x="1751" d="M6 909q0 41 51 41h324q51 0 51 -41q0 -43 -51 -43h-76q-41 0 -41 -32q0 -13 4 -21l240 -729l283 829q8 22 18 29.5t33 7.5h73q23 0 33.5 -7.5t18.5 -29.5l286 -829l240 731q4 12 4 19q0 32 -41 32h-78q-51 0 -51 43q0 41 51 41h314q51 0 51 -41q0 -43 -51 -43h-45 q-19 0 -27 -5.5t-14 -24.5l-267 -799q-8 -22 -18 -29.5t-33 -7.5h-67q-23 0 -33.5 7.5t-18.5 29.5l-215 612l-55 148q-9 28 -12.5 34.5t-9.5 6.5q-16 0 -33 -68q-7 -27 -41 -123l-217 -610q-8 -22 -17.5 -29.5t-31.5 -7.5h-66q-23 0 -33 7.5t-18 29.5l-277 799 q-6 19 -14 24.5t-27 5.5h-45q-51 0 -51 43z" />
<glyph unicode="x" horiz-adv-x="1163" d="M27 41q0 43 51 43h37q23 0 39 16l350 389l-328 361q-16 16 -39 16h-33q-51 0 -51 43q0 41 51 41h283q25 0 39 -11t14 -30q0 -43 -53 -43h-25q-13 0 -23.5 -10.5t-10.5 -24.5q0 -10 14 -28l233 -252l230 256q12 12 12 27q0 13 -9.5 22.5t-23.5 9.5h-20q-51 0 -51 43 q0 41 51 41h289q53 0 53 -41q0 -43 -53 -43h-39q-23 0 -39 -16l-332 -361l356 -389q16 -16 39 -16h31q51 0 51 -41q0 -43 -51 -43h-305q-51 0 -51 41q0 43 51 43h45q15 0 26 10t11 25q0 9 -15 28l-256 277l-249 -277q-15 -19 -15 -28q0 -15 11 -25t26 -10h39q25 0 39 -11 t14 -30q0 -43 -53 -43h-309q-51 0 -51 41z" />
<glyph unicode="y" horiz-adv-x="1105" d="M6 909q0 41 51 41h308q25 0 39 -11t14 -30q0 -43 -53 -43h-68q-19 0 -30 -8t-11 -22q0 -13 6 -25l244 -551q26 -67 59 -151q15 40 29 69l31 70l237 563q6 15 6 25q0 30 -43 30h-69q-51 0 -51 43q0 41 51 41h291q53 0 53 -41q0 -43 -53 -43h-23q-18 0 -25.5 -5t-15.5 -21 l-418 -969q-63 -145 -118 -193.5t-156 -48.5q-63 0 -99 16t-36 42q0 19 12 31t29 12q4 0 51 -11q6 -2 28 -2q62 0 101.5 33.5t73.5 114.5l45 110q6 15 6 21q0 5 -6 20l-365 824q-6 17 -14 21.5t-27 4.5h-33q-51 0 -51 43z" />
<glyph unicode="z" horiz-adv-x="929" d="M72 82q0 30 30 65l613 719h-512q-22 0 -31.5 -9.5t-9.5 -31.5v-94q0 -55 -45 -55t-45 55v170q0 26 11.5 37.5t37.5 11.5h624q46 0 71.5 -20.5t25.5 -57.5q0 -29 -31 -65l-625 -723h525q22 0 31.5 9.5t9.5 31.5v115q0 55 45 55t45 -55v-191q0 -26 -11.5 -37.5t-37.5 -11.5 h-623q-47 0 -72.5 21t-25.5 61z" />
<glyph unicode="{" horiz-adv-x="708" d="M111 510q0 33 36 45q54 20 77.5 63.5t23.5 124.5v316q0 173 59 240t213 67h8q20 0 31.5 -10.5t11.5 -28.5q0 -23 -13 -31t-54 -8q-36 -2 -70 -18.5t-51 -42.5q-31 -44 -31 -150v-334q0 -87 -18.5 -134t-67.5 -85q-8 -5 -8 -14t8 -14q49 -38 67.5 -85.5t18.5 -134.5v-333 q0 -115 39 -160.5t141 -50.5q17 0 28 -11t11 -28q0 -18 -11.5 -28.5t-31.5 -10.5h-8q-154 0 -213 67t-59 240v315q0 83 -22 123.5t-79 65.5q-36 13 -36 45z" />
<glyph unicode="|" horiz-adv-x="1024" d="M451 -342v1708h120v-1708h-120z" />
<glyph unicode="}" horiz-adv-x="708" d="M139 -307q0 23 13.5 31.5t54.5 9.5q35 0 69.5 17t51.5 42q30 46 30 150v333q0 87 18.5 134.5t67.5 85.5q9 6 9 14t-9 14q-49 38 -67.5 85t-18.5 134v334q0 116 -39.5 162t-140.5 49q-17 0 -28 11t-11 28q0 18 11.5 28.5t31.5 10.5h8q154 0 213.5 -67t59.5 -240v-316 q0 -83 21.5 -123t78.5 -65q37 -14 37 -45q0 -33 -37 -45q-54 -20 -77 -63.5t-23 -125.5v-315q0 -173 -59.5 -240t-213.5 -67h-8q-20 0 -31.5 10.5t-11.5 28.5z" />
<glyph unicode="~" horiz-adv-x="1024" d="M209 606q0 24 15 60t36 63q21 24 55.5 39.5t67.5 15.5q58 0 147 -59q55 -35 77.5 -45t45.5 -10q28 0 44.5 14.5t35.5 54.5q18 36 26 46t21 10q15 0 26 -10.5t11 -24.5q0 -24 -16 -62t-39 -67q-41 -51 -115 -51q-32 0 -60 11t-85 46q-86 53 -125 53q-65 0 -88 -69 q-10 -29 -20 -39.5t-25 -10.5t-25 10t-10 25z" />
<glyph unicode="&#xa1;" horiz-adv-x="479" d="M145 866q0 37 27 63.5t64 26.5q40 0 67 -27t27 -65t-27 -65t-65 -27q-37 0 -65 28t-28 66zM166 -362l24 958q3 53 46 53q44 0 47 -53l30 -958q3 -52 -49 -52h-49q-52 0 -49 52z" />
<glyph unicode="&#xa2;" d="M117 707q0 164 71 286t197 176q62 26 141 33v135q0 58 45 58q47 0 47 -58v-135q83 -6 153 -49.5t101 -108.5l5 -4q8 0 8 9v71q0 58 47 58q45 0 45 -58v-268q0 -55 -47 -55q-25 0 -33.5 12.5t-13.5 52.5q-15 110 -86.5 176.5t-178.5 71.5v-809q104 3 178.5 68.5 t88.5 165.5q6 38 45 38q20 0 32.5 -13.5t12.5 -33.5q0 -52 -35.5 -120.5t-81.5 -108.5q-48 -39 -91.5 -56t-135.5 -30l-13 -2v-125q0 -55 -45 -55q-47 0 -47 55v127q-84 11 -141 33q-126 51 -197 173.5t-71 289.5zM238 705q0 -175 75 -280t213 -122v807 q-135 -14 -211.5 -121t-76.5 -284z" />
<glyph unicode="&#xa3;" d="M76 47q0 45 55 45h78q22 0 31.5 9.5t9.5 31.5v586h-117q-57 0 -57 47t57 47h117v158q0 205 98 310t289 105q151 0 253.5 -84.5t102.5 -207.5q0 -26 -17 -44t-42 -18q-36 0 -51 29q-7 15 -17 72q-9 69 -76 114t-159 45q-91 0 -154.5 -42.5t-89.5 -119.5q-18 -62 -18 -159 v-158h206q56 0 56 -47t-56 -47h-206v-586q0 -22 9.5 -31.5t31.5 -9.5h424q22 0 31 9.5t9 31.5v98q0 31 14.5 48.5t39.5 17.5t39 -17.5t14 -48.5v-180q0 -28 -11.5 -39.5t-39.5 -11.5h-799q-55 0 -55 47z" />
<glyph unicode="&#xa4;" d="M133 332q0 14 19 33l94 94q-86 114 -86 243q0 130 86 244l-94 94q-19 19 -19 35q0 17 12 29t31 12q15 0 33 -18l94 -94q113 88 244 88t244 -88l94 94q21 18 35 18q15 0 26.5 -12t11.5 -29q0 -18 -18 -33l-94 -96q88 -110 88 -244q0 -128 -88 -241l94 -94q18 -18 18 -35 t-11.5 -29t-28.5 -12t-35 18l-95 94q-110 -88 -241 -88t-244 88l-96 -94q-18 -18 -33 -18q-17 0 -29 12t-12 29zM252 707q0 -126 86 -212.5t209 -86.5t209 87t86 210q0 121 -86.5 207.5t-208.5 86.5q-121 0 -208 -86t-87 -206z" />
<glyph unicode="&#xa5;" d="M14 1321q0 45 58 45h309q55 0 55 -45q0 -47 -55 -47h-62q-20 0 -31.5 -8.5t-11.5 -22.5q0 -12 9 -24l268 -547l268 547q8 11 8 22q0 33 -43 33h-59q-57 0 -57 47q0 45 57 45h297q55 0 55 -45q0 -47 -55 -47h-39q-18 0 -26 -5t-15 -22l-205 -413h224q55 0 55 -46 q0 -47 -55 -47h-271l-63 -127h313q55 0 55 -45q0 -47 -55 -47h-338v-389q0 -22 9.5 -31.5t31.5 -9.5h150q55 0 55 -45q0 -47 -55 -47h-500q-55 0 -55 47q0 45 55 45h149q22 0 31.5 9.5t9.5 31.5v389h-331q-58 0 -58 47q0 45 58 45h307l-64 127h-264q-57 0 -57 47q0 46 57 46 h219l-202 413q-7 17 -16 22t-28 5h-34q-58 0 -58 47z" />
<glyph unicode="&#xa6;" horiz-adv-x="1024" d="M451 313h120v-655h-120v655zM451 690v676h120v-676h-120z" />
<glyph unicode="&#xa7;" d="M152 606q0 88 52 153t150 99q-86 25 -137 90t-51 150q0 129 104 208.5t271 79.5q170 0 271 -84.5t101 -226.5q0 -29 -16.5 -47t-42.5 -18q-36 0 -53 28q-7 14 -21 105q-10 66 -80.5 110.5t-162.5 44.5q-110 0 -181 -53.5t-71 -136.5q0 -70 49 -114t186 -97l160 -61 q144 -54 203 -114.5t59 -154.5q0 -120 -106 -200q-27 -22 -84 -41q182 -69 182 -254q0 -140 -105.5 -222.5t-285.5 -82.5q-243 0 -336 163q-47 76 -47 156q0 29 17.5 48.5t43.5 19.5q36 0 53 -31q7 -15 15 -78q10 -82 83.5 -135t174.5 -53q119 0 192.5 59t73.5 154 q0 68 -43 114.5t-133 77.5l-231 80q-134 46 -194 108t-60 156zM274 616q0 -60 48 -103.5t155 -80.5l197 -67q149 67 149 184q0 63 -42.5 104t-149.5 82l-205 78q-152 -64 -152 -197z" />
<glyph unicode="&#xa8;" horiz-adv-x="1024" d="M229 1253q0 34 24 58t58 24q35 0 59.5 -24.5t24.5 -59.5q0 -34 -24 -58t-58 -24q-35 0 -59.5 25t-24.5 59zM629 1253q0 34 24 58t58 24q35 0 59.5 -24.5t24.5 -59.5q0 -34 -24 -58t-58 -24q-35 0 -59.5 25t-24.5 59z" />
<glyph unicode="&#xa9;" horiz-adv-x="1603" d="M96 684q0 191 95 354t258 258t354 95q143 0 274 -56t225.5 -150.5t150.5 -225t56 -273.5q0 -195 -94.5 -358.5t-259 -258t-360.5 -94.5q-187 0 -348.5 96t-256 259.5t-94.5 353.5zM178 684q0 -168 83.5 -312.5t226.5 -229.5t309 -85q130 0 246.5 49t200.5 133 t133.5 200.5t49.5 246.5q0 168 -83.5 311.5t-227.5 227.5t-313 84t-313 -84t-228 -228t-84 -313zM414 680q0 181 98 288t264 107q174 0 254 -114v57q0 47 37 47q39 0 39 -47v-209q0 -47 -39 -47q-32 0 -35 33q-30 213 -244 213q-134 0 -211 -88t-77 -242q0 -155 76.5 -244.5 t209.5 -89.5q98 0 163 48t77 130q4 32 13.5 44t29.5 12q17 0 29 -12t12 -29q0 -38 -23 -89.5t-55 -85.5q-38 -41 -102.5 -63.5t-141.5 -22.5q-174 0 -274 108t-100 296z" />
<glyph unicode="&#xaa;" horiz-adv-x="720" d="M66 956q0 111 104 158q66 31 236 31l57 -2q6 -2 18 -2q25 0 25 24q0 83 -38 119.5t-126 36.5q-153 0 -168 -109q-6 -47 -43 -47q-20 0 -31.5 12.5t-11.5 34.5q0 31 18.5 64.5t47.5 56.5q62 53 190 53q132 0 195 -63q28 -28 38.5 -63.5t10.5 -98.5v-262q0 -41 39 -41h22 q18 0 28.5 -8.5t10.5 -22.5q0 -32 -39 -32h-94q-26 0 -37.5 11.5t-11.5 37.5v47q-38 -61 -88.5 -87t-132.5 -26q-102 0 -160.5 47.5t-58.5 130.5zM152 958q0 -55 38 -84.5t109 -29.5q100 0 152.5 57t52.5 164q0 11 -13 14.5t-51 3.5q-161 0 -224.5 -28t-63.5 -97z" />
<glyph unicode="&#xab;" horiz-adv-x="727" d="M86 496q0 3 6 24l150 350q14 39 47 39q19 0 33 -13t14 -32q0 -15 -6 -30l-142 -334l140 -348q8 -16 8 -31q0 -19 -14 -32t-33 -13q-30 0 -47 39l-150 356q-6 18 -6 25zM344 496q0 9 6 24l148 350q17 39 49 39q19 0 33 -13t14 -32q0 -14 -8 -30l-140 -334l140 -348 q6 -18 6 -31q0 -19 -14 -32t-33 -13q-31 0 -45 39l-150 356q-6 15 -6 25z" />
<glyph unicode="&#xac;" horiz-adv-x="1024" d="M68 455v106h886v-561h-118v455h-768z" />
<glyph unicode="&#xad;" horiz-adv-x="458" d="M0 502q0 51 61 51h336q29 0 45.5 -13t16.5 -36q0 -51 -62 -51h-336q-61 0 -61 49z" />
<glyph unicode="&#xae;" horiz-adv-x="1603" d="M96 684q0 191 95 354t258 258t354 95q143 0 274 -56t225.5 -150.5t150.5 -225t56 -273.5q0 -195 -94.5 -358.5t-259 -258t-360.5 -94.5q-187 0 -348.5 96t-256 259.5t-94.5 353.5zM178 684q0 -168 83.5 -312.5t226.5 -229.5t309 -85q130 0 246.5 49t200.5 133 t133.5 200.5t49.5 246.5q0 168 -83.5 311.5t-227.5 227.5t-313 84t-313 -84t-228 -228t-84 -313zM444 319q0 33 41 33h39q22 0 31.5 9.5t9.5 31.5v565q0 22 -9.5 31.5t-31.5 9.5h-39q-41 0 -41 33t41 33h318q287 0 287 -209q0 -151 -152 -194q38 -13 59.5 -40.5t40.5 -84.5 l62 -185h51q41 0 41 -33q0 -32 -41 -32h-90q-26 0 -35 26l-70 207q-22 69 -56 92t-112 23h-100q-22 0 -31.5 -9.5t-9.5 -31.5v-201q0 -22 9.5 -31.5t31.5 -9.5h39q41 0 41 -33q0 -32 -41 -32h-242q-41 0 -41 32zM647 741q0 -22 9.5 -31.5t31.5 -9.5h98q112 0 163.5 36.5 t51.5 113.5q0 149 -198 149h-115q-22 0 -31.5 -9.5t-9.5 -31.5v-217z" />
<glyph unicode="&#xaf;" horiz-adv-x="1024" d="M190 1233q0 21 14.5 33t39.5 12h534q53 0 53 -43q0 -45 -53 -45h-534q-25 0 -39.5 11.5t-14.5 31.5z" />
<glyph unicode="&#xb0;" horiz-adv-x="819" d="M102 1094q0 131 91 221t223 90q127 0 214 -90.5t87 -222.5q0 -131 -89 -221.5t-218 -90.5t-218.5 91t-89.5 223zM217 1092q0 -80 57 -137.5t136 -57.5q80 0 135 57t55 140q0 80 -55 137t-131 57q-83 0 -140 -56.5t-57 -139.5z" />
<glyph unicode="&#xb1;" d="M106 117q0 41 50 41h780q49 0 49 -39q0 -41 -49 -41h-780q-50 0 -50 39zM106 702q0 41 48 41h350v347q0 49 41 49t41 -49v-347h350q47 0 47 -38q0 -41 -47 -41h-350v-347q0 -49 -41 -49t-41 49v347h-350q-48 0 -48 38z" />
<glyph unicode="&#xb2;" horiz-adv-x="669" d="M59 596v20q0 22 48.5 74.5t197.5 192.5q115 105 155 163t40 117q0 69 -43.5 109.5t-118.5 40.5t-124 -46.5t-52 -121.5q-3 -45 -43 -45q-17 0 -29 12t-12 31q0 41 21 89.5t51 78.5q70 67 188 67q114 0 180 -57t66 -154q0 -46 -11 -79.5t-59.5 -94t-123 -134.5 t-224.5 -214l-35 -35h356q22 0 31.5 9.5t9.5 31.5v45q0 45 37 45t37 -45v-100q0 -26 -11.5 -37.5t-39.5 -11.5h-442q-26 0 -38 11.5t-12 37.5z" />
<glyph unicode="&#xb3;" horiz-adv-x="669" d="M70 758q0 23 11 36t30 13q37 0 43 -41q8 -50 16 -70t31 -45q51 -51 131 -51q76 0 126 48t50 120q0 74 -49 116t-142 46q-14 2 -23 12t-9 23q0 20 11.5 26t51.5 8q65 5 108.5 49t43.5 107q0 71 -47 114.5t-123 43.5q-82 0 -135 -56q-19 -22 -25.5 -38t-15.5 -60 q-6 -39 -41 -39q-17 0 -29 12t-12 31q0 37 20 80.5t49 71.5q66 63 187 63q117 0 184.5 -59t67.5 -160q0 -155 -154 -194q77 -17 121.5 -70.5t44.5 -130.5q0 -103 -71.5 -166t-188.5 -63q-114 0 -188 62.5t-74 160.5z" />
<glyph unicode="&#xb4;" horiz-adv-x="1024" d="M444 1149q0 13 13 33l102 166q24 36 55 36q22 0 39 -16.5t17 -36.5q0 -25 -21 -49l-121 -152q-16 -22 -39 -22q-17 0 -31 13t-14 28z" />
<glyph unicode="&#xb5;" horiz-adv-x="1179" d="M68 -301q0 38 5 65.5t29 120.5q25 95 25 156v983h180v-678q0 -107 50 -167t139 -60q65 0 119 35.5t108 113.5v756h182v-756q0 -84 28.5 -134t74.5 -50q36 0 65 40.5t33 98.5l55 -2q-22 -119 -84.5 -183.5t-156.5 -64.5q-100 0 -148 70q-29 39 -47 121 q-164 -191 -315 -191q-54 0 -96.5 20t-106.5 75v-25q0 -47 4 -73t20 -79q39 -138 39 -188q0 -67 -28 -109.5t-72 -42.5q-45 0 -73.5 41t-28.5 107z" />
<glyph unicode="&#xb6;" d="M63 971q0 169 89 282q51 62 124 87.5t199 25.5h488q47 0 47 -39q0 -41 -47 -41h-64q-22 0 -31.5 -9.5t-9.5 -31.5v-1325q0 -22 9.5 -31.5t31.5 -9.5h64q47 0 47 -39q0 -41 -47 -41h-545q-49 0 -49 39q0 41 49 41h78q22 0 31.5 9.5t9.5 31.5v647q0 10 -7 17q-4 0 -211 18 q-58 4 -115 48.5t-93 111.5q-48 94 -48 209zM629 -121h137v1407h-137v-1407z" />
<glyph unicode="&#xb7;" horiz-adv-x="456" d="M135 498q0 37 26.5 63.5t63.5 26.5q40 0 67 -27t27 -65t-27 -65.5t-65 -27.5q-37 0 -64.5 28.5t-27.5 66.5z" />
<glyph unicode="&#xb8;" horiz-adv-x="1024" d="M317 -367q0 12 9.5 21.5t21.5 9.5q6 0 41 -12q40 -10 82 -10q58 0 94.5 26.5t36.5 67.5q0 35 -29 58.5t-73 23.5q-22 0 -72 -15q-4 -2 -12 -2t-15.5 8t-7.5 17q0 5 8 18l107 156h61l-71 -109q-2 -2 -2 -6q0 -6 8 -6q17 0 37 2h10q66 0 110 -40.5t44 -100.5 q0 -71 -58.5 -117.5t-148.5 -46.5q-78 0 -129.5 16t-51.5 41z" />
<glyph unicode="&#xb9;" horiz-adv-x="669" d="M121 1178q0 17 13.5 29.5t98.5 74.5q3 2 58 45q28 25 42 32t34 7q47 0 47 -49v-666q0 -22 9.5 -31.5t31.5 -9.5h47q41 0 41 -30q0 -33 -41 -33h-264q-18 0 -28.5 8.5t-10.5 22.5q0 32 39 32h53q22 0 31.5 9.5t9.5 31.5v629q-147 -137 -185 -137q-10 0 -18 10.5t-8 24.5z " />
<glyph unicode="&#xba;" horiz-adv-x="727" d="M61 1094q0 130 84.5 211t221.5 81t218 -82t81 -221q0 -138 -82 -221.5t-217 -83.5q-140 0 -223 85.5t-83 230.5zM147 1090q0 -114 57.5 -180t157.5 -66t159 63.5t59 171.5q0 112 -57.5 177t-155.5 65t-159 -63.5t-61 -167.5z" />
<glyph unicode="&#xbb;" horiz-adv-x="727" d="M133 121q0 17 8 33l142 333l-142 349q-6 15 -6 30q0 17 14 30t33 13q30 0 47 -39l148 -354q6 -15 6 -24q0 -10 -6 -25l-148 -350q-17 -41 -49 -41q-19 0 -33 13t-14 32zM391 121q0 15 6 33l142 333l-140 349q-8 16 -8 30q0 17 14 30t33 13q33 0 47 -39l150 -354 q6 -18 6 -24q0 -7 -6 -25l-150 -350q-17 -41 -47 -41q-19 0 -33 13t-14 32z" />
<glyph unicode="&#xbc;" horiz-adv-x="1574" d="M125 1178q0 17 13.5 29.5t99.5 74.5q5 4 14 10.5t21.5 17t21.5 17.5q28 25 42 32t34 7q47 0 47 -49v-666q0 -22 9.5 -31.5t31.5 -9.5h47q41 0 41 -30q0 -33 -41 -33h-264q-18 0 -28.5 8.5t-10.5 22.5q0 32 39 32h53q22 0 31.5 9.5t9.5 31.5v629q-147 -137 -184 -137 q-10 0 -18.5 10.5t-8.5 24.5zM401 37q0 7 9 29l686 1271q14 29 39 29q15 0 27 -11t12 -26q0 -7 -11 -29l-684 -1271q-17 -29 -39 -29q-15 0 -27 11t-12 26zM932 283q0 24 4 35t20 34l334 436q15 20 29.5 26.5t44.5 6.5q47 0 47 -51v-432q0 -22 9.5 -31.5t31.5 -9.5h49 q39 0 39 -31q0 -30 -39 -30h-49q-22 0 -31.5 -10t-9.5 -33v-87q0 -23 9.5 -33t31.5 -10h37q39 0 39 -30q0 -33 -39 -33h-250q-18 0 -28.5 8.5t-10.5 22.5q0 32 39 32h55q22 0 31.5 10t9.5 33v87q0 23 -9.5 33t-31.5 10h-311q-51 0 -51 47zM999 297h295q22 0 31.5 9.5 t9.5 31.5v399z" />
<glyph unicode="&#xbd;" horiz-adv-x="1574" d="M125 1178q0 17 13.5 29.5t99.5 74.5q5 4 14 10.5t21.5 17t21.5 17.5q28 25 42 32t34 7q47 0 47 -49v-666q0 -22 9.5 -31.5t31.5 -9.5h47q41 0 41 -30q0 -33 -41 -33h-264q-18 0 -28.5 8.5t-10.5 22.5q0 32 39 32h53q22 0 31.5 9.5t9.5 31.5v629q-147 -137 -184 -137 q-10 0 -18.5 10.5t-8.5 24.5zM406 37q0 9 8 29l686 1271q14 29 39 29q15 0 27 -11t12 -26q0 -7 -11 -29l-684 -1271q-17 -29 -39 -29q-15 0 -26.5 11t-11.5 26zM965 49v21q0 22 48 74t197 190q115 107 155 164t40 116q0 69 -43.5 109.5t-118.5 40.5t-124 -46.5t-52 -121.5 q-3 -43 -43 -43q-17 0 -29 12t-12 31q0 40 21.5 89t50.5 77q70 67 188 67q114 0 180 -57t66 -154q0 -61 -29.5 -113.5t-110 -136.5t-278.5 -270l-35 -35h357q22 0 31.5 9.5t9.5 31.5v46q0 45 36 45q37 0 37 -45v-101q0 -26 -11.5 -37.5t-39.5 -11.5h-442q-26 0 -37.5 11.5 t-11.5 37.5z" />
<glyph unicode="&#xbe;" horiz-adv-x="1574" d="M70 758q0 23 11 36t30 13q37 0 43 -41q8 -50 16 -70t31 -45q51 -51 131 -51q76 0 126 48t50 120q0 74 -49 116t-142 46q-14 2 -23 12t-9 23q0 20 11.5 26t51.5 8q65 5 108.5 49t43.5 107q0 71 -47 114.5t-123 43.5q-82 0 -135 -56q-19 -22 -25.5 -38t-15.5 -60 q-6 -39 -41 -39q-17 0 -29 12t-12 31q0 37 20 80.5t49 71.5q66 63 187 63q117 0 184.5 -59t67.5 -160q0 -155 -154 -194q77 -17 121.5 -70.5t44.5 -130.5q0 -103 -71.5 -166t-188.5 -63q-114 0 -188 62.5t-74 160.5zM406 37q0 9 10 29l684 1271q14 29 39 29q15 0 27 -11 t12 -26q0 -7 -9 -29l-686 -1271q-15 -29 -39 -29q-15 0 -26.5 11t-11.5 26zM934 283q0 36 20 65l346 451q10 13 23 17.5t41 4.5q26 0 37.5 -11.5t11.5 -39.5v-432q0 -22 9.5 -31.5t31.5 -9.5h49q39 0 39 -31q0 -30 -39 -30h-49q-22 0 -31.5 -10t-9.5 -33v-87q0 -23 9.5 -33 t31.5 -10h37q39 0 39 -30q0 -33 -39 -33h-250q-18 0 -28.5 8.5t-10.5 22.5q0 32 39 32h55q22 0 31.5 10t9.5 33v87q0 23 -9.5 33t-31.5 10h-311q-28 0 -39.5 11t-11.5 36zM1001 297h295q22 0 31.5 9.5t9.5 31.5v399z" />
<glyph unicode="&#xbf;" horiz-adv-x="964" d="M68 -76q0 94 42 171.5t138 158.5l67 57q89 78 115 137t27 191q1 26 17.5 42.5t41.5 16.5q32 0 47 -21.5t15 -68.5q0 -102 -33 -192q-19 -45 -44.5 -75t-101.5 -95l-67 -60q-72 -63 -104.5 -125t-32.5 -137q0 -123 74 -194.5t200 -71.5q123 0 189.5 62.5t86.5 197.5 q9 66 62 66q26 0 43.5 -18t17.5 -46q0 -43 -16 -99.5t-39 -92.5q-104 -162 -338 -162q-186 0 -296.5 97t-110.5 261zM424 866q0 37 26.5 63.5t63.5 26.5q40 0 67 -27t27 -65t-27 -65t-65 -27q-37 0 -64.5 28t-27.5 66z" />
<glyph unicode="&#xc0;" horiz-adv-x="1497" d="M14 47q0 45 56 45h47q19 0 27 6t16 23l499 1210q9 21 19.5 28t32.5 7h80q22 0 32 -7t17 -28l499 -1210q6 -17 14 -23t27 -6h47q58 0 58 -45q0 -47 -58 -47h-358q-55 0 -55 47q0 45 55 45h94q19 0 30 8.5t11 22.5q0 10 -6 22l-127 314q-6 17 -14 22.5t-27 5.5h-571 q-19 0 -27 -5.5t-14 -22.5l-129 -314q-4 -16 -4 -22q0 -14 11 -22.5t30 -8.5h94q57 0 57 -45q0 -47 -57 -47h-350q-56 0 -56 47zM492 608q0 -33 43 -33h421q19 0 30 8.5t11 22.5q0 7 -4 23l-215 553q-8 28 -33 28q-26 0 -34 -28l-213 -553q-6 -12 -6 -21zM594 1716 q0 23 17 39.5t40 16.5q32 0 54 -37l108 -172q12 -18 12 -33t-13 -28t-30 -13q-22 0 -41 22l-127 158q-20 26 -20 47z" />
<glyph unicode="&#xc1;" horiz-adv-x="1497" d="M14 47q0 45 56 45h47q19 0 27 6t16 23l499 1210q9 21 19.5 28t32.5 7h80q22 0 32 -7t17 -28l499 -1210q6 -17 14 -23t27 -6h47q58 0 58 -45q0 -47 -58 -47h-358q-55 0 -55 47q0 45 55 45h94q19 0 30 8.5t11 22.5q0 10 -6 22l-127 314q-6 17 -14 22.5t-27 5.5h-571 q-19 0 -27 -5.5t-14 -22.5l-129 -314q-4 -16 -4 -22q0 -14 11 -22.5t30 -8.5h94q57 0 57 -45q0 -47 -57 -47h-350q-56 0 -56 47zM492 608q0 -33 43 -33h421q19 0 30 8.5t11 22.5q0 7 -4 23l-215 553q-8 28 -33 28q-26 0 -34 -28l-213 -553q-6 -12 -6 -21zM733 1530 q0 15 12 33l113 178q22 37 53 37q23 0 40.5 -16.5t17.5 -39.5q0 -19 -21 -47l-131 -164q-17 -22 -41 -22q-17 0 -30 13t-13 28z" />
<glyph unicode="&#xc2;" horiz-adv-x="1497" d="M14 47q0 45 56 45h47q19 0 27 6t16 23l499 1210q9 21 19.5 28t32.5 7h80q22 0 32 -7t17 -28l499 -1210q6 -17 14 -23t27 -6h47q58 0 58 -45q0 -47 -58 -47h-358q-55 0 -55 47q0 45 55 45h94q19 0 30 8.5t11 22.5q0 10 -6 22l-127 314q-6 17 -14 22.5t-27 5.5h-571 q-19 0 -27 -5.5t-14 -22.5l-129 -314q-4 -16 -4 -22q0 -14 11 -22.5t30 -8.5h94q57 0 57 -45q0 -47 -57 -47h-350q-56 0 -56 47zM492 608q0 -33 43 -33h421q19 0 30 8.5t11 22.5q0 7 -4 23l-215 553q-8 28 -33 28q-26 0 -34 -28l-213 -553q-6 -12 -6 -21zM504 1526 q0 15 16 37l103 131q42 53 68 71.5t59 18.5q32 0 57.5 -18t66.5 -72l101 -125q16 -22 16 -41t-14.5 -33t-34.5 -14q-23 0 -43 28l-151 191l-158 -195q-21 -24 -41 -24q-19 0 -32 13t-13 32z" />
<glyph unicode="&#xc3;" horiz-adv-x="1497" d="M14 47q0 45 56 45h47q19 0 27 6t16 23l499 1210q9 21 19.5 28t32.5 7h80q22 0 32 -7t17 -28l499 -1210q6 -17 14 -23t27 -6h47q58 0 58 -45q0 -47 -58 -47h-358q-55 0 -55 47q0 45 55 45h94q19 0 30 8.5t11 22.5q0 10 -6 22l-127 314q-6 17 -14 22.5t-27 5.5h-571 q-19 0 -27 -5.5t-14 -22.5l-129 -314q-4 -16 -4 -22q0 -14 11 -22.5t30 -8.5h94q57 0 57 -45q0 -47 -57 -47h-350q-56 0 -56 47zM446 1554q0 23 15 58t37 63q19 23 54.5 39.5t68.5 16.5q55 0 147 -58q53 -35 76 -45t45 -10q27 0 44 15t36 55q18 36 26 45.5t21 9.5 q15 0 26 -10.5t11 -24.5q0 -23 -16.5 -61.5t-39.5 -67.5q-41 -51 -114 -51q-32 0 -59.5 11t-86.5 46q-81 51 -123 51q-64 0 -88 -67q-10 -29 -20 -39t-25 -10t-25 9.5t-10 24.5zM492 608q0 -33 43 -33h421q19 0 30 8.5t11 22.5q0 7 -4 23l-215 553q-8 28 -33 28 q-26 0 -34 -28l-213 -553q-6 -12 -6 -21z" />
<glyph unicode="&#xc4;" horiz-adv-x="1497" d="M14 47q0 45 56 45h47q19 0 27 6t16 23l499 1210q9 21 19.5 28t32.5 7h80q22 0 32 -7t17 -28l499 -1210q6 -17 14 -23t27 -6h47q58 0 58 -45q0 -47 -58 -47h-358q-55 0 -55 47q0 45 55 45h94q19 0 30 8.5t11 22.5q0 10 -6 22l-127 314q-6 17 -14 22.5t-27 5.5h-571 q-19 0 -27 -5.5t-14 -22.5l-129 -314q-4 -16 -4 -22q0 -14 11 -22.5t30 -8.5h94q57 0 57 -45q0 -47 -57 -47h-350q-56 0 -56 47zM451 1593q0 38 26.5 65.5t63.5 27.5q39 0 66.5 -27t27.5 -66q0 -38 -27 -65t-65 -27q-37 0 -64.5 27.5t-27.5 64.5zM492 606q0 -14 11.5 -22.5 t31.5 -8.5h421q19 0 30 8.5t11 22.5q0 7 -4 23l-215 553q-8 28 -33 28q-26 0 -34 -28l-213 -553q-6 -12 -6 -23zM860 1593q0 38 26.5 65.5t63.5 27.5q40 0 67 -27t27 -66q0 -38 -27 -65t-65 -27q-37 0 -64.5 27.5t-27.5 64.5z" />
<glyph unicode="&#xc5;" horiz-adv-x="1497" d="M14 47q0 45 56 45h47q19 0 27 6t16 23l499 1210q9 21 19.5 28t32.5 7h80q22 0 32 -7t17 -28l499 -1210q6 -17 14 -23t27 -6h47q58 0 58 -45q0 -47 -58 -47h-358q-55 0 -55 47q0 45 55 45h94q19 0 30 8.5t11 22.5q0 10 -6 22l-127 314q-6 17 -14 22.5t-27 5.5h-571 q-19 0 -27 -5.5t-14 -22.5l-129 -314q-4 -16 -4 -22q0 -14 11 -22.5t30 -8.5h94q57 0 57 -45q0 -47 -57 -47h-350q-56 0 -56 47zM492 608q0 -33 43 -33h421q19 0 30 8.5t11 22.5q0 7 -4 23l-215 553q-8 28 -33 28q-26 0 -34 -28l-213 -553q-6 -12 -6 -21zM553 1645 q0 82 57.5 139t139.5 57t139 -57t57 -139q0 -83 -57.5 -141t-140.5 -58q-80 0 -137.5 58.5t-57.5 140.5zM618 1645q0 -55 38.5 -94.5t91.5 -39.5q56 0 94.5 38.5t38.5 95.5q0 54 -38.5 92.5t-92.5 38.5t-93 -38.5t-39 -92.5z" />
<glyph unicode="&#xc6;" horiz-adv-x="1992" d="M14 47q0 20 13.5 32.5t35.5 12.5h7q17 0 24 5t15 20l694 1220q11 19 19 24t30 5h942q28 0 39.5 -11.5t11.5 -39.5v-291q0 -31 -14 -48.5t-39 -17.5q-26 0 -40.5 17.5t-14.5 48.5v209q0 22 -9.5 31.5t-31.5 9.5h-623q-41 0 -41 -33q0 -10 2 -14l72 -445q4 -20 13.5 -27 t29.5 -7h242q22 0 31.5 9t9.5 31v117q0 28 13.5 44t37.5 16q23 0 36 -16t13 -44v-413q0 -29 -13 -45.5t-36 -16.5q-51 0 -51 62v126q0 22 -9.5 31.5t-31.5 9.5h-217q-20 0 -33 -9t-11 -23q1 -7 3 -15l79 -483q3 -22 12 -29.5t29 -7.5h461q22 0 31.5 9.5t9.5 31.5v225 q0 31 14.5 48.5t40.5 17.5q25 0 39.5 -17.5t14.5 -48.5v-307q0 -28 -11.5 -39.5t-37.5 -11.5h-889q-58 0 -58 47q0 45 58 45h127q41 0 41 33v14l-47 293q-3 22 -12 29.5t-31 7.5h-547q-17 0 -24.5 -5t-16.5 -20l-168 -294q-8 -11 -8 -27q0 -14 11 -22.5t30 -8.5h94 q57 0 57 -45q0 -47 -57 -47h-305q-56 0 -56 47zM506 588q0 -14 11 -22.5t30 -8.5h434q19 0 30 9t11 24q0 8 -2 14l-107 672q-3 10 -12 10q-7 0 -14 -10l-373 -662q-8 -13 -8 -26z" />
<glyph unicode="&#xc7;" horiz-adv-x="1372" d="M96 690q0 336 178 520q170 176 439 176q110 0 208.5 -34.5t161.5 -94.5q45 -45 78 -120v163q0 31 14 48.5t39 17.5q26 0 41 -17.5t15 -48.5v-348q0 -69 -58 -69q-51 0 -57 65q-4 65 -40.5 131.5t-94.5 116.5q-116 96 -289 96q-236 0 -373 -163t-137 -445q0 -284 136 -447 t372 -163q171 0 287.5 90t136.5 239q6 50 19.5 68t44.5 18q27 0 43 -17.5t16 -47.5q0 -57 -40 -146.5t-91 -146.5q-125 -137 -383 -149l-76 -117q34 6 53 6q72 0 117 -39t45 -102q0 -72 -58 -118t-149 -46q-40 0 -87.5 8.5t-69.5 19.5q-21 12 -21 31q0 12 9.5 21.5t21.5 9.5 q6 0 41 -12q35 -13 80 -13q58 0 94.5 26t36.5 67q0 35 -29.5 58t-73.5 23q-27 0 -67 -12q-6 -2 -15 -2t-15.5 8t-6.5 17q0 7 8 18l100 148q-287 13 -445.5 199t-158.5 509z" />
<glyph unicode="&#xc8;" horiz-adv-x="1306" d="M66 47q0 45 55 45h110q22 0 31.5 9.5t9.5 31.5v1100q0 22 -9.5 31.5t-31.5 9.5h-110q-55 0 -55 47q0 45 55 45h1007q26 0 38 -12t12 -39v-291q0 -32 -14.5 -50t-39.5 -18q-26 0 -40.5 18t-14.5 50v209q0 22 -9.5 31.5t-31.5 9.5h-596q-22 0 -31.5 -9.5t-9.5 -31.5v-453 q0 -22 9.5 -31.5t31.5 -9.5h285q22 0 31.5 9.5t9.5 31.5v115q0 61 51 61q49 0 49 -61v-412q0 -28 -13 -43.5t-36 -15.5q-51 0 -51 59v127q0 22 -9.5 31.5t-31.5 9.5h-285q-22 0 -31.5 -9.5t-9.5 -31.5v-477q0 -22 9.5 -31.5t31.5 -9.5h596q22 0 31.5 9.5t9.5 31.5v223 q0 32 14.5 50t40.5 18q25 0 39.5 -18t14.5 -50v-305q0 -27 -12 -39t-38 -12h-1007q-55 0 -55 47zM543 1716q0 23 17 39.5t40 16.5q31 0 53 -37l107 -172q12 -18 12 -33t-13 -28t-30 -13q-22 0 -41 22l-125 158q-20 27 -20 47z" />
<glyph unicode="&#xc9;" horiz-adv-x="1306" d="M66 47q0 45 55 45h110q22 0 31.5 9.5t9.5 31.5v1100q0 22 -9.5 31.5t-31.5 9.5h-110q-55 0 -55 47q0 45 55 45h1007q26 0 38 -12t12 -39v-291q0 -32 -14.5 -50t-39.5 -18q-26 0 -40.5 18t-14.5 50v209q0 22 -9.5 31.5t-31.5 9.5h-596q-22 0 -31.5 -9.5t-9.5 -31.5v-453 q0 -22 9.5 -31.5t31.5 -9.5h285q22 0 31.5 9.5t9.5 31.5v115q0 61 51 61q49 0 49 -61v-412q0 -28 -13 -43.5t-36 -15.5q-51 0 -51 59v127q0 22 -9.5 31.5t-31.5 9.5h-285q-22 0 -31.5 -9.5t-9.5 -31.5v-477q0 -22 9.5 -31.5t31.5 -9.5h596q22 0 31.5 9.5t9.5 31.5v223 q0 32 14.5 50t40.5 18q25 0 39.5 -18t14.5 -50v-305q0 -27 -12 -39t-38 -12h-1007q-55 0 -55 47zM647 1530q0 15 12 33l111 178q22 37 55 37q23 0 40.5 -16.5t17.5 -39.5q0 -16 -21 -47l-133 -164q-17 -22 -39 -22q-17 0 -30 13t-13 28z" />
<glyph unicode="&#xca;" horiz-adv-x="1306" d="M66 47q0 45 55 45h110q22 0 31.5 9.5t9.5 31.5v1100q0 22 -9.5 31.5t-31.5 9.5h-110q-55 0 -55 47q0 45 55 45h1007q26 0 38 -12t12 -39v-291q0 -32 -14.5 -50t-39.5 -18q-26 0 -40.5 18t-14.5 50v209q0 22 -9.5 31.5t-31.5 9.5h-596q-22 0 -31.5 -9.5t-9.5 -31.5v-453 q0 -22 9.5 -31.5t31.5 -9.5h285q22 0 31.5 9.5t9.5 31.5v115q0 61 51 61q49 0 49 -61v-412q0 -28 -13 -43.5t-36 -15.5q-51 0 -51 59v127q0 22 -9.5 31.5t-31.5 9.5h-285q-22 0 -31.5 -9.5t-9.5 -31.5v-477q0 -22 9.5 -31.5t31.5 -9.5h596q22 0 31.5 9.5t9.5 31.5v223 q0 32 14.5 50t40.5 18q25 0 39.5 -18t14.5 -50v-305q0 -27 -12 -39t-38 -12h-1007q-55 0 -55 47zM438 1526q0 13 17 37l102 131q42 53 68 71.5t59 18.5t58.5 -18.5t66.5 -71.5l100 -125q17 -24 17 -41q0 -19 -14.5 -33t-34.5 -14q-23 0 -43 28l-152 191l-158 -195 q-21 -24 -41 -24q-19 0 -32 13t-13 32z" />
<glyph unicode="&#xcb;" horiz-adv-x="1306" d="M66 47q0 45 55 45h110q22 0 31.5 9.5t9.5 31.5v1100q0 22 -9.5 31.5t-31.5 9.5h-110q-55 0 -55 47q0 45 55 45h1007q26 0 38 -12t12 -39v-291q0 -32 -14.5 -50t-39.5 -18q-26 0 -40.5 18t-14.5 50v209q0 22 -9.5 31.5t-31.5 9.5h-596q-22 0 -31.5 -9.5t-9.5 -31.5v-453 q0 -22 9.5 -31.5t31.5 -9.5h285q22 0 31.5 9.5t9.5 31.5v115q0 61 51 61q49 0 49 -61v-412q0 -28 -13 -43.5t-36 -15.5q-51 0 -51 59v127q0 22 -9.5 31.5t-31.5 9.5h-285q-22 0 -31.5 -9.5t-9.5 -31.5v-477q0 -22 9.5 -31.5t31.5 -9.5h596q22 0 31.5 9.5t9.5 31.5v223 q0 32 14.5 50t40.5 18q25 0 39.5 -18t14.5 -50v-305q0 -27 -12 -39t-38 -12h-1007q-55 0 -55 47zM408 1595q0 37 26.5 64t63.5 27q40 0 67 -27t27 -66q0 -38 -27 -65t-65 -27q-37 0 -64.5 28t-27.5 66zM817 1595q0 37 26.5 64t63.5 27q39 0 66.5 -27t27.5 -66q0 -38 -27 -65 t-65 -27q-37 0 -64.5 28t-27.5 66z" />
<glyph unicode="&#xcc;" horiz-adv-x="663" d="M66 47q0 45 55 45h110q22 0 31.5 9.5t9.5 31.5v1100q0 22 -9.5 31.5t-31.5 9.5h-110q-55 0 -55 47q0 45 55 45h422q55 0 55 -45q0 -47 -55 -47h-111q-22 0 -31.5 -9.5t-9.5 -31.5v-1100q0 -22 9.5 -31.5t31.5 -9.5h111q55 0 55 -45q0 -47 -55 -47h-422q-55 0 -55 47z M178 1716q0 23 17.5 39.5t40.5 16.5q31 0 53 -37l106 -172q13 -19 13 -33q0 -15 -13 -28t-30 -13q-22 0 -41 22l-125 158q-21 28 -21 47z" />
<glyph unicode="&#xcd;" horiz-adv-x="663" d="M66 47q0 45 55 45h110q22 0 31.5 9.5t9.5 31.5v1100q0 22 -9.5 31.5t-31.5 9.5h-110q-55 0 -55 47q0 45 55 45h422q55 0 55 -45q0 -47 -55 -47h-111q-22 0 -31.5 -9.5t-9.5 -31.5v-1100q0 -22 9.5 -31.5t31.5 -9.5h111q55 0 55 -45q0 -47 -55 -47h-422q-55 0 -55 47z M307 1530q0 15 12 33l113 178q22 37 53 37q23 0 40.5 -16.5t17.5 -39.5q0 -19 -21 -47l-131 -164q-17 -22 -39 -22q-19 0 -32 12t-13 29z" />
<glyph unicode="&#xce;" horiz-adv-x="663" d="M66 47q0 45 55 45h110q22 0 31.5 9.5t9.5 31.5v1100q0 22 -9.5 31.5t-31.5 9.5h-110q-55 0 -55 47q0 45 55 45h422q55 0 55 -45q0 -47 -55 -47h-111q-22 0 -31.5 -9.5t-9.5 -31.5v-1100q0 -22 9.5 -31.5t31.5 -9.5h111q55 0 55 -45q0 -47 -55 -47h-422q-55 0 -55 47z M86 1526q0 15 16 37l105 131q41 53 66.5 71.5t58.5 18.5t59 -18.5t68 -71.5l98 -125q16 -22 16 -41t-14.5 -33t-34.5 -14q-21 0 -43 28l-151 191l-158 -195q-19 -24 -41 -24q-19 0 -32 13t-13 32z" />
<glyph unicode="&#xcf;" horiz-adv-x="663" d="M66 47q0 45 55 45h110q22 0 31.5 9.5t9.5 31.5v1100q0 22 -9.5 31.5t-31.5 9.5h-110q-55 0 -55 47q0 45 55 45h422q55 0 55 -45q0 -47 -55 -47h-111q-22 0 -31.5 -9.5t-9.5 -31.5v-1100q0 -22 9.5 -31.5t31.5 -9.5h111q55 0 55 -45q0 -47 -55 -47h-422q-55 0 -55 47z M76 1595q0 37 26.5 64t63.5 27q40 0 67 -27t27 -66q0 -38 -27 -65t-65 -27q-37 0 -64.5 28t-27.5 66zM403 1595q0 37 27 64t64 27q40 0 67 -27t27 -66q0 -38 -27 -65t-65 -27q-37 0 -65 28t-28 66z" />
<glyph unicode="&#xd0;" horiz-adv-x="1484" d="M80 47q0 45 55 45h111q22 0 31.5 9.5t9.5 31.5v520h-152q-55 0 -55 47q0 45 55 45h152v488q0 22 -9.5 31.5t-31.5 9.5h-111q-55 0 -55 47q0 45 55 45h510q183 0 295.5 -30t212.5 -105q238 -179 238 -545q0 -188 -69.5 -337t-195.5 -234q-94 -63 -207 -89t-296 -26h-488 q-55 0 -55 47zM406 133q0 -22 9 -31.5t31 -9.5h185q150 0 255 30.5t187 96.5q94 77 143.5 196.5t49.5 270.5q0 154 -53 276t-154 197q-80 60 -176 87.5t-228 27.5h-209q-22 0 -31 -9.5t-9 -31.5v-488h387q57 0 57 -45q0 -47 -57 -47h-387v-520z" />
<glyph unicode="&#xd1;" horiz-adv-x="1556" d="M66 47q0 45 55 45h110q22 0 31.5 9.5t9.5 31.5v1100q0 22 -9.5 31.5t-31.5 9.5h-110q-55 0 -55 47q0 45 55 45h305q22 0 30 -5t19 -24l483 -798q73 -129 234 -430h14v1124q0 22 -9.5 31.5t-31.5 9.5h-118q-58 0 -58 47q0 45 58 45h403q55 0 55 -45q0 -47 -55 -47h-98 q-22 0 -31.5 -9.5t-9.5 -31.5v-1182q0 -28 -11.5 -39.5t-37.5 -11.5h-76q-21 0 -30 5t-19 24l-504 833q-75 128 -238 412h-14v-1141q0 -22 9.5 -31.5t31.5 -9.5h121q57 0 57 -45q0 -47 -57 -47h-422q-55 0 -55 47zM483 1554q0 23 15 58t37 63q21 24 55 40t67 16 q59 0 148 -58q55 -35 77.5 -45t45.5 -10q27 0 44 15t36 55q18 36 26 45.5t21 9.5q15 0 26 -10.5t11 -24.5q0 -23 -16.5 -61.5t-39.5 -67.5q-41 -51 -114 -51q-33 0 -61 11t-85 46q-84 51 -125 51q-64 0 -88 -67q-11 -30 -19.5 -39.5t-25.5 -9.5q-15 0 -25 9.5t-10 24.5z" />
<glyph unicode="&#xd2;" horiz-adv-x="1495" d="M96 688q0 329 178 510q179 188 471 188q316 0 498 -206q158 -180 158 -484q0 -294 -129 -477q-83 -112 -220 -174.5t-300 -62.5q-155 0 -282.5 53.5t-215.5 154.5q-82 94 -120 214t-38 284zM221 688q0 -268 113 -420q67 -91 178 -141.5t240 -50.5q128 0 237.5 52 t175.5 144q53 75 82 186t29 238q0 279 -140.5 437.5t-387.5 158.5q-248 0 -387.5 -160t-139.5 -444zM598 1716q0 23 17 39.5t40 16.5q32 0 54 -37l108 -172q12 -18 12 -33t-13.5 -28t-31.5 -13q-22 0 -39 22l-127 158q-20 30 -20 47z" />
<glyph unicode="&#xd3;" horiz-adv-x="1495" d="M96 688q0 329 178 510q179 188 471 188q316 0 498 -206q158 -180 158 -484q0 -294 -129 -477q-83 -112 -220 -174.5t-300 -62.5q-155 0 -282.5 53.5t-215.5 154.5q-82 94 -120 214t-38 284zM221 688q0 -268 113 -420q67 -91 178 -141.5t240 -50.5q128 0 237.5 52 t175.5 144q53 75 82 186t29 238q0 279 -140.5 437.5t-387.5 158.5q-248 0 -387.5 -160t-139.5 -444zM707 1530q0 15 12 33l112 178q22 37 54 37q23 0 40 -16.5t17 -39.5q0 -20 -20 -47l-131 -164q-19 -22 -41 -22q-17 0 -30 13t-13 28z" />
<glyph unicode="&#xd4;" horiz-adv-x="1495" d="M96 688q0 329 178 510q179 188 471 188q316 0 498 -206q158 -180 158 -484q0 -294 -129 -477q-83 -112 -220 -174.5t-300 -62.5q-155 0 -282.5 53.5t-215.5 154.5q-82 94 -120 214t-38 284zM221 688q0 -268 113 -420q67 -91 178 -141.5t240 -50.5q128 0 237.5 52 t175.5 144q53 75 82 186t29 238q0 279 -140.5 437.5t-387.5 158.5q-248 0 -387.5 -160t-139.5 -444zM502 1526q0 15 16 37l105 131q41 53 66.5 71.5t58.5 18.5q34 0 58.5 -18t67.5 -72l99 -125q18 -24 18 -41q0 -19 -14.5 -33t-34.5 -14q-23 0 -45 28l-152 191l-157 -195 q-19 -24 -41 -24q-19 0 -32 13t-13 32z" />
<glyph unicode="&#xd5;" horiz-adv-x="1495" d="M96 688q0 329 178 510q179 188 471 188q316 0 498 -206q158 -180 158 -484q0 -294 -129 -477q-83 -112 -220 -174.5t-300 -62.5q-155 0 -282.5 53.5t-215.5 154.5q-82 94 -120 214t-38 284zM221 688q0 -268 113 -420q67 -91 178 -141.5t240 -50.5q128 0 237.5 52 t175.5 144q53 75 82 186t29 238q0 279 -140.5 437.5t-387.5 158.5q-248 0 -387.5 -160t-139.5 -444zM444 1554q0 23 15 58t37 63q21 24 55 40t67 16q59 0 148 -58q55 -35 77.5 -45t45.5 -10q27 0 44 15t36 55q18 36 26 45.5t21 9.5q15 0 26 -10.5t11 -24.5 q0 -23 -16.5 -61.5t-39.5 -67.5q-41 -51 -114 -51q-33 0 -61 11t-85 46q-84 51 -125 51q-64 0 -88 -67q-11 -30 -19.5 -39.5t-25.5 -9.5q-15 0 -25 9.5t-10 24.5z" />
<glyph unicode="&#xd6;" horiz-adv-x="1495" d="M96 688q0 329 178 510q179 188 471 188q316 0 498 -206q158 -180 158 -484q0 -294 -129 -477q-83 -112 -220 -174.5t-300 -62.5q-155 0 -282.5 53.5t-215.5 154.5q-82 94 -120 214t-38 284zM221 688q0 -268 113 -420q67 -91 178 -141.5t240 -50.5q128 0 237.5 52 t175.5 144q53 75 82 186t29 238q0 279 -140.5 437.5t-387.5 158.5q-248 0 -387.5 -160t-139.5 -444zM451 1595q0 37 26.5 64t63.5 27q39 0 66.5 -27t27.5 -66q0 -38 -27 -65t-65 -27q-37 0 -64.5 28t-27.5 66zM860 1595q0 37 26.5 64t63.5 27q40 0 67 -27t27 -66 q0 -38 -27 -65t-65 -27q-37 0 -64.5 28t-27.5 66z" />
<glyph unicode="&#xd7;" d="M186 385q0 14 19 33l284 284l-284 285q-19 22 -19 35q0 17 12 29t29 12q16 0 35 -19l285 -284l284 284q19 19 35 19q15 0 27 -12t12 -29q0 -18 -18 -33l-285 -284l285 -285q18 -18 18 -35t-12 -29t-29 -12t-35 18l-284 285l-285 -285q-18 -18 -33 -18q-17 0 -29 12 t-12 29z" />
<glyph unicode="&#xd8;" horiz-adv-x="1497" d="M96 684q0 370 199 557q179 170 450 170q256 0 435 -151l114 135q19 22 39 22q17 0 30 -13t13 -30q0 -16 -16 -35l-117 -137q160 -174 160 -487q0 -166 -42.5 -303t-121.5 -228q-178 -202 -485 -202q-262 0 -430 139l-117 -139q-20 -23 -39 -23q-17 0 -30 13t-13 30 q0 18 16 37l121 139q-86 98 -126 220t-40 286zM219 680q0 -272 119 -414l772 912q-50 60 -152.5 98.5t-214.5 38.5q-123 0 -229.5 -50t-175.5 -139q-119 -153 -119 -446zM395 205q159 -131 355 -131q129 0 236.5 52.5t178.5 149.5q54 73 83.5 189t29.5 254 q0 126 -26.5 219.5t-84.5 175.5z" />
<glyph unicode="&#xd9;" horiz-adv-x="1488" d="M47 1321q0 45 57 45h414q55 0 55 -45q0 -47 -55 -47h-125q-22 0 -31.5 -9.5t-9.5 -31.5v-723q0 -177 72 -279q112 -155 326 -155q192 0 295.5 118t103.5 336v703q0 22 -9.5 31.5t-31.5 9.5h-125q-55 0 -55 47q0 45 55 45h403q58 0 58 -45q0 -47 -58 -47h-88 q-22 0 -31.5 -9.5t-9.5 -31.5v-692q0 -129 -19.5 -208.5t-70.5 -150.5q-137 -200 -422 -200q-132 0 -238 47.5t-175 136.5q-52 67 -75.5 150t-23.5 202v715q0 22 -9 31.5t-31 9.5h-89q-57 0 -57 47zM596 1716q0 23 17 39.5t40 16.5q29 0 54 -37l106 -172q12 -18 12 -33 t-13 -28t-30 -13q-22 0 -41 22l-125 158q-20 27 -20 47z" />
<glyph unicode="&#xda;" horiz-adv-x="1488" d="M47 1321q0 45 57 45h414q55 0 55 -45q0 -47 -55 -47h-125q-22 0 -31.5 -9.5t-9.5 -31.5v-723q0 -177 72 -279q112 -155 326 -155q192 0 295.5 118t103.5 336v703q0 22 -9.5 31.5t-31.5 9.5h-125q-55 0 -55 47q0 45 55 45h403q58 0 58 -45q0 -47 -58 -47h-88 q-22 0 -31.5 -9.5t-9.5 -31.5v-692q0 -129 -19.5 -208.5t-70.5 -150.5q-137 -200 -422 -200q-132 0 -238 47.5t-175 136.5q-52 67 -75.5 150t-23.5 202v715q0 22 -9 31.5t-31 9.5h-89q-57 0 -57 47zM717 1530q0 15 12 33l111 178q25 37 55 37q23 0 40 -16.5t17 -39.5 q0 -20 -20 -47l-131 -164q-19 -22 -41 -22q-17 0 -30 13t-13 28z" />
<glyph unicode="&#xdb;" horiz-adv-x="1488" d="M47 1321q0 45 57 45h414q55 0 55 -45q0 -47 -55 -47h-125q-22 0 -31.5 -9.5t-9.5 -31.5v-723q0 -177 72 -279q112 -155 326 -155q192 0 295.5 118t103.5 336v703q0 22 -9.5 31.5t-31.5 9.5h-125q-55 0 -55 47q0 45 55 45h403q58 0 58 -45q0 -47 -58 -47h-88 q-22 0 -31.5 -9.5t-9.5 -31.5v-692q0 -129 -19.5 -208.5t-70.5 -150.5q-137 -200 -422 -200q-132 0 -238 47.5t-175 136.5q-52 67 -75.5 150t-23.5 202v715q0 22 -9 31.5t-31 9.5h-89q-57 0 -57 47zM512 1526q0 15 16 37l105 131q41 53 66.5 71.5t58.5 18.5q34 0 59 -18 t68 -72l98 -125q18 -24 18 -41q0 -19 -14.5 -33t-34.5 -14q-23 0 -45 28l-151 191l-158 -195q-19 -24 -41 -24q-19 0 -32 13t-13 32z" />
<glyph unicode="&#xdc;" horiz-adv-x="1488" d="M47 1321q0 45 57 45h414q55 0 55 -45q0 -47 -55 -47h-125q-22 0 -31.5 -9.5t-9.5 -31.5v-723q0 -177 72 -279q112 -155 326 -155q192 0 295.5 118t103.5 336v703q0 22 -9.5 31.5t-31.5 9.5h-125q-55 0 -55 47q0 45 55 45h403q58 0 58 -45q0 -47 -58 -47h-88 q-22 0 -31.5 -9.5t-9.5 -31.5v-692q0 -129 -19.5 -208.5t-70.5 -150.5q-137 -200 -422 -200q-132 0 -238 47.5t-175 136.5q-52 67 -75.5 150t-23.5 202v715q0 22 -9 31.5t-31 9.5h-89q-57 0 -57 47zM446 1595q0 37 27 64t64 27q39 0 66.5 -27t27.5 -66q0 -38 -27 -65 t-65 -27q-37 0 -65 28t-28 66zM856 1595q0 37 26.5 64t63.5 27q40 0 67 -27t27 -66q0 -38 -27 -65t-65 -27q-37 0 -64.5 28t-27.5 66z" />
<glyph unicode="&#xdd;" horiz-adv-x="1308" d="M14 1321q0 45 56 45h356q57 0 57 -45q0 -47 -57 -47h-84q-19 0 -30 -9t-11 -24q0 -7 8 -27l340 -536q3 -6 10 -6q6 0 9 6l340 536q10 17 10 27q0 14 -11.5 23.5t-31.5 9.5h-82q-55 0 -55 47q0 45 55 45h346q55 0 55 -45q0 -47 -55 -47h-41q-17 0 -24.5 -4.5t-16.5 -18.5 l-436 -671q-10 -14 -10 -33v-414q0 -22 9.5 -31.5t31.5 -9.5h149q55 0 55 -45q0 -47 -55 -47h-500q-55 0 -55 47q0 45 55 45h150q22 0 31.5 9.5t9.5 31.5v414q0 19 -10 33l-432 671q-9 14 -16.5 18.5t-24.5 4.5h-39q-56 0 -56 47zM627 1530q0 15 12 33l111 178q22 37 55 37 q23 0 40 -16.5t17 -39.5q0 -17 -20 -47l-131 -164q-19 -22 -41 -22q-17 0 -30 13t-13 28z" />
<glyph unicode="&#xde;" horiz-adv-x="1202" d="M66 47q0 45 55 45h110q22 0 31.5 9.5t9.5 31.5v1100q0 22 -9.5 31.5t-31.5 9.5h-110q-55 0 -55 47q0 45 55 45h420q57 0 57 -45q0 -47 -57 -47h-109q-22 0 -31.5 -9.5t-9.5 -31.5v-49q0 -22 9.5 -31.5t31.5 -9.5h234q120 0 197.5 -20.5t137.5 -67.5q65 -51 100.5 -129.5 t35.5 -173.5q0 -101 -39.5 -184.5t-110.5 -133.5q-60 -43 -140 -60.5t-212 -17.5h-203q-22 0 -31.5 -9.5t-9.5 -31.5v-182q0 -22 9.5 -31.5t31.5 -9.5h148q55 0 55 -45q0 -47 -55 -47h-459q-55 0 -55 47zM391 489q0 -22 9.5 -31t31.5 -9h203q108 0 174.5 17t110.5 56 q43 38 67.5 98.5t24.5 129.5q0 64 -22 122.5t-60 96.5q-46 43 -115 62.5t-180 19.5h-203q-22 0 -31.5 -9.5t-9.5 -31.5v-521z" />
<glyph unicode="&#xdf;" horiz-adv-x="1126" d="M45 41q0 43 51 43h82q22 0 31.5 9.5t9.5 31.5v827q0 117 19.5 188t66.5 126q107 125 316 125q179 0 275.5 -89t96.5 -255q0 -242 -237 -295q-8 0 -8 -9q0 -4 69 -22q29 -7 65.5 -30t63.5 -50q98 -98 98 -268q0 -114 -46.5 -203t-129.5 -133q-73 -39 -221 -39 q-57 0 -57 43q0 23 15 33t50 10q129 2 202 81t73 218q0 135 -74.5 214.5t-208.5 88.5q-26 2 -41.5 16t-15.5 37q0 50 61 56q104 8 166 75t62 174q0 123 -69 191t-194 68q-142 0 -223 -97q-35 -46 -49 -104t-14 -162v-815q0 -22 9.5 -31.5t31.5 -9.5h24q51 0 51 -41 q0 -43 -51 -43h-299q-51 0 -51 41z" />
<glyph unicode="&#xe0;" horiz-adv-x="1107" d="M88 260q0 87 41.5 154t118.5 104q108 51 362 51l111 -2q14 -2 37 -2q41 0 41 35v6q0 98 -13 142t-51 79q-72 66 -211 66q-123 0 -194.5 -49.5t-85.5 -143.5q-3 -25 -19 -39t-39 -14q-25 0 -41 17t-16 43q0 60 45.5 125.5t110.5 99.5q90 47 243 47q210 0 306 -102 q43 -47 59 -105t16 -164v-483q0 -22 9.5 -31.5t31.5 -9.5h70q51 0 51 -41q0 -43 -51 -43h-172q-26 0 -37.5 11.5t-11.5 37.5v152q-54 -122 -140 -176t-225 -54q-162 0 -254 77t-92 212zM205 264q0 -98 65.5 -152.5t184.5 -54.5q197 0 282 142q22 34 40 113t18 139 q0 21 -19 30q-16 8 -182 8q-198 0 -293.5 -55.5t-95.5 -169.5zM399 1329q0 22 17.5 38.5t40.5 16.5q29 0 53 -36l102 -166q13 -20 13 -33q0 -15 -13.5 -28t-31.5 -13q-22 0 -39 22l-121 152q-21 28 -21 47z" />
<glyph unicode="&#xe1;" horiz-adv-x="1107" d="M88 260q0 87 41.5 154t118.5 104q108 51 362 51l111 -2q14 -2 37 -2q41 0 41 35v6q0 98 -13 142t-51 79q-72 66 -211 66q-123 0 -194.5 -49.5t-85.5 -143.5q-3 -25 -19 -39t-39 -14q-25 0 -41 17t-16 43q0 60 45.5 125.5t110.5 99.5q90 47 243 47q210 0 306 -102 q43 -47 59 -105t16 -164v-483q0 -22 9.5 -31.5t31.5 -9.5h70q51 0 51 -41q0 -43 -51 -43h-172q-26 0 -37.5 11.5t-11.5 37.5v152q-54 -122 -140 -176t-225 -54q-162 0 -254 77t-92 212zM205 264q0 -98 65.5 -152.5t184.5 -54.5q197 0 282 142q22 34 40 113t18 139 q0 21 -19 30q-16 8 -182 8q-198 0 -293.5 -55.5t-95.5 -169.5zM479 1149q0 13 13 33l104 166q21 36 53 36q23 0 40.5 -16.5t17.5 -38.5q0 -15 -21 -47l-123 -152q-17 -22 -39 -22q-19 0 -32 12t-13 29z" />
<glyph unicode="&#xe2;" horiz-adv-x="1107" d="M88 260q0 87 41.5 154t118.5 104q108 51 362 51l111 -2q14 -2 37 -2q41 0 41 35v6q0 98 -13 142t-51 79q-72 66 -211 66q-123 0 -194.5 -49.5t-85.5 -143.5q-3 -25 -19 -39t-39 -14q-25 0 -41 17t-16 43q0 60 45.5 125.5t110.5 99.5q90 47 243 47q210 0 306 -102 q43 -47 59 -105t16 -164v-483q0 -22 9.5 -31.5t31.5 -9.5h70q51 0 51 -41q0 -43 -51 -43h-172q-26 0 -37.5 11.5t-11.5 37.5v152q-54 -122 -140 -176t-225 -54q-162 0 -254 77t-92 212zM205 264q0 -98 65.5 -152.5t184.5 -54.5q197 0 282 142q22 34 40 113t18 139 q0 21 -19 30q-16 8 -182 8q-198 0 -293.5 -55.5t-95.5 -169.5zM301 1139q0 13 16 35l105 133q34 43 61 59t64 16q38 0 65.5 -16t61.5 -59l98 -127q19 -22 19 -39q0 -19 -15 -33t-35 -14q-22 0 -45 26l-151 193l-158 -195q-19 -24 -41 -24q-19 0 -32 13t-13 32z" />
<glyph unicode="&#xe3;" horiz-adv-x="1107" d="M88 260q0 87 41.5 154t118.5 104q108 51 362 51l111 -2q14 -2 37 -2q41 0 41 35v6q0 98 -13 142t-51 79q-72 66 -211 66q-123 0 -194.5 -49.5t-85.5 -143.5q-3 -25 -19 -39t-39 -14q-25 0 -41 17t-16 43q0 60 45.5 125.5t110.5 99.5q90 47 243 47q210 0 306 -102 q43 -47 59 -105t16 -164v-483q0 -22 9.5 -31.5t31.5 -9.5h70q51 0 51 -41q0 -43 -51 -43h-172q-26 0 -37.5 11.5t-11.5 37.5v152q-54 -122 -140 -176t-225 -54q-162 0 -254 77t-92 212zM205 264q0 -98 65.5 -152.5t184.5 -54.5q197 0 282 142q22 34 40 113t18 139 q0 21 -19 30q-16 8 -182 8q-198 0 -293.5 -55.5t-95.5 -169.5zM236 1161q0 71 53.5 126.5t120.5 55.5q57 0 147 -57q53 -35 76 -45t45 -10q32 0 52 20t34 66q12 31 37 31q15 0 26 -11t11 -28q0 -66 -50 -117t-116 -51q-32 0 -58.5 10.5t-87.5 46.5q-84 51 -123 51 q-65 0 -88 -69q-10 -29 -20 -39.5t-25 -10.5t-24.5 9.5t-9.5 21.5z" />
<glyph unicode="&#xe4;" horiz-adv-x="1107" d="M88 260q0 87 41.5 154t118.5 104q108 51 362 51l111 -2q14 -2 37 -2q41 0 41 35v6q0 98 -13 142t-51 79q-72 66 -211 66q-123 0 -194.5 -49.5t-85.5 -143.5q-3 -25 -19 -39t-39 -14q-25 0 -41 17t-16 43q0 60 45.5 125.5t110.5 99.5q90 47 243 47q210 0 306 -102 q43 -47 59 -105t16 -164v-483q0 -22 9.5 -31.5t31.5 -9.5h70q51 0 51 -41q0 -43 -51 -43h-172q-26 0 -37.5 11.5t-11.5 37.5v152q-54 -122 -140 -176t-225 -54q-162 0 -254 77t-92 212zM205 264q0 -98 65.5 -152.5t184.5 -54.5q197 0 282 142q22 34 40 113t18 139 q0 21 -19 30q-16 8 -182 8q-198 0 -293.5 -55.5t-95.5 -169.5zM244 1253q0 34 24 58t58 24q35 0 59.5 -24.5t24.5 -59.5q0 -34 -24 -58t-58 -24q-35 0 -59.5 25t-24.5 59zM641 1253q0 34 24 58t58 24q35 0 59.5 -24.5t24.5 -59.5q0 -34 -24 -58t-58 -24q-35 0 -59.5 25 t-24.5 59z" />
<glyph unicode="&#xe5;" horiz-adv-x="1107" d="M88 260q0 87 41.5 154t118.5 104q108 51 362 51l111 -2q14 -2 37 -2q41 0 41 35v6q0 98 -13 142t-51 79q-72 66 -211 66q-123 0 -194.5 -49.5t-85.5 -143.5q-3 -25 -19 -39t-39 -14q-25 0 -41 17t-16 43q0 60 45.5 125.5t110.5 99.5q90 47 243 47q210 0 306 -102 q43 -47 59 -105t16 -164v-483q0 -22 9.5 -31.5t31.5 -9.5h70q51 0 51 -41q0 -43 -51 -43h-172q-26 0 -37.5 11.5t-11.5 37.5v152q-54 -122 -140 -176t-225 -54q-162 0 -254 77t-92 212zM205 264q0 -98 65.5 -152.5t184.5 -54.5q197 0 282 142q22 34 40 113t18 139 q0 21 -19 30q-16 8 -182 8q-198 0 -293.5 -55.5t-95.5 -169.5zM342 1255q0 82 58 139.5t141 57.5q82 0 139 -57.5t57 -139.5q0 -83 -57.5 -140.5t-142.5 -57.5q-80 0 -137.5 58t-57.5 140zM408 1255q0 -55 38.5 -94t92.5 -39q56 0 94.5 38t38.5 95q0 54 -38.5 92.5 t-92.5 38.5q-55 0 -94 -38.5t-39 -92.5z" />
<glyph unicode="&#xe6;" horiz-adv-x="1593" d="M88 262q0 66 29.5 123.5t81.5 91.5q98 62 336 62h165q25 0 32 15t7 67q0 139 -57.5 202.5t-183.5 63.5q-224 0 -254 -199q-3 -22 -18.5 -35.5t-37.5 -13.5q-25 0 -41 16t-16 41q0 41 24.5 95.5t57.5 87.5q94 94 289 94q267 0 311 -195q84 193 322 193q101 0 181 -40 t124 -112q72 -119 69 -274v-8v-33q0 -26 -11.5 -37.5t-39.5 -11.5h-579q-41 0 -41 -37q0 -64 32 -170q25 -82 93.5 -130t162.5 -48q100 0 175 55t100 147q7 32 19 44t34 12q20 0 32.5 -15t12.5 -39q0 -33 -24 -82t-58 -90q-105 -120 -299 -120q-134 0 -226.5 69.5 t-123.5 192.5q-43 -128 -133.5 -195t-222.5 -67q-145 0 -234.5 77.5t-89.5 202.5zM203 262q0 -85 62.5 -138.5t162.5 -53.5q68 0 127.5 29t95.5 81q37 51 58.5 116t21.5 124q0 20 -11 27.5t-42 7.5h-103h-86q-141 0 -213.5 -49t-72.5 -144zM840 575q0 -20 9 -28t30 -8h477 q43 0 43 34v5q0 139 -74 223t-197 84q-146 0 -225 -117q-63 -86 -63 -193z" />
<glyph unicode="&#xe7;" horiz-adv-x="1060" d="M84 475q0 229 123.5 366.5t327.5 137.5q114 0 199 -51.5t116 -139.5v107q0 55 45 55t45 -55v-246q0 -57 -47 -57q-43 0 -49 51q-13 114 -95 182t-204 68q-156 0 -251 -114t-95 -300q0 -190 96 -305t254 -115q112 0 191.5 55.5t99.5 147.5q11 50 20 63t35 13 q22 0 35.5 -15t13.5 -38q0 -35 -30.5 -99t-65.5 -104q-91 -99 -277 -111l-53 -80l-4 -6q0 -8 6 -8l74 4q12 0 42.5 -15t45.5 -28q41 -38 41 -98q0 -71 -58 -117.5t-147 -46.5q-79 0 -130.5 16t-51.5 41q0 12 9.5 21.5t21.5 9.5q6 0 41 -12q40 -10 81 -10q58 0 95 26t37 66 q0 35 -29.5 58.5t-73.5 23.5q-24 0 -67 -13q-6 -2 -15 -2q-8 0 -15 8t-7 17t6 18l88 129q-198 13 -311 147.5t-113 354.5z" />
<glyph unicode="&#xe8;" horiz-adv-x="1085" d="M82 475q0 235 125 369.5t346 134.5q154 0 260.5 -69.5t149.5 -198.5q17 -44 27.5 -105.5t10.5 -103.5q0 -47 -49 -47h-714q-41 0 -41 -39q0 -72 34 -152q94 -207 338 -207q123 0 205.5 56t110.5 159q8 31 19 43.5t32 12.5q22 0 34.5 -15.5t12.5 -40.5q0 -55 -70 -149 q-110 -152 -356 -152q-223 0 -349 134t-126 370zM203 569q0 -30 37 -30h608q39 0 39 32q0 60 -29 124.5t-76 111.5q-86 86 -233 86q-159 0 -246 -96q-42 -45 -71 -111.5t-29 -116.5zM428 1329q0 22 17 38.5t40 16.5q30 0 54 -36l102 -166q12 -15 12 -33q0 -15 -13.5 -28 t-31.5 -13q-22 0 -39 22l-120 152q-21 28 -21 47z" />
<glyph unicode="&#xe9;" horiz-adv-x="1085" d="M82 475q0 235 125 369.5t346 134.5q154 0 260.5 -69.5t149.5 -198.5q17 -44 27.5 -105.5t10.5 -103.5q0 -47 -49 -47h-714q-41 0 -41 -39q0 -72 34 -152q94 -207 338 -207q123 0 205.5 56t110.5 159q8 31 19 43.5t32 12.5q22 0 34.5 -15.5t12.5 -40.5q0 -55 -70 -149 q-110 -152 -356 -152q-223 0 -349 134t-126 370zM203 569q0 -30 37 -30h608q39 0 39 32q0 60 -29 124.5t-76 111.5q-86 86 -233 86q-159 0 -246 -96q-42 -45 -71 -111.5t-29 -116.5zM535 1149q0 15 12 33l102 166q24 36 53 36q23 0 40.5 -16.5t17.5 -38.5q0 -19 -21 -47 l-121 -152q-16 -22 -38 -22q-19 0 -32 12t-13 29z" />
<glyph unicode="&#xea;" horiz-adv-x="1085" d="M82 475q0 235 125 369.5t346 134.5q154 0 260.5 -69.5t149.5 -198.5q17 -44 27.5 -105.5t10.5 -103.5q0 -47 -49 -47h-714q-41 0 -41 -39q0 -72 34 -152q94 -207 338 -207q123 0 205.5 56t110.5 159q8 31 19 43.5t32 12.5q22 0 34.5 -15.5t12.5 -40.5q0 -55 -70 -149 q-110 -152 -356 -152q-223 0 -349 134t-126 370zM203 569q0 -30 37 -30h608q39 0 39 32q0 60 -29 124.5t-76 111.5q-86 86 -233 86q-159 0 -246 -96q-42 -45 -71 -111.5t-29 -116.5zM326 1139q0 13 16 35l104 133q34 43 61 59t64 16q38 0 65.5 -16t61.5 -59l99 -127 q18 -21 18 -39q0 -19 -14.5 -33t-34.5 -14q-22 0 -45 26l-152 193l-157 -195q-19 -24 -41 -24q-19 0 -32 13t-13 32z" />
<glyph unicode="&#xeb;" horiz-adv-x="1085" d="M82 475q0 235 125 369.5t346 134.5q154 0 260.5 -69.5t149.5 -198.5q17 -44 27.5 -105.5t10.5 -103.5q0 -47 -49 -47h-714q-41 0 -41 -39q0 -72 34 -152q94 -207 338 -207q123 0 205.5 56t110.5 159q8 31 19 43.5t32 12.5q22 0 34.5 -15.5t12.5 -40.5q0 -55 -70 -149 q-110 -152 -356 -152q-223 0 -349 134t-126 370zM203 569q0 -30 37 -30h608q39 0 39 32q0 60 -29 124.5t-76 111.5q-86 86 -233 86q-159 0 -246 -96q-42 -45 -71 -111.5t-29 -116.5zM281 1253q0 34 23.5 58t57.5 24q35 0 59.5 -24.5t24.5 -59.5q0 -34 -23.5 -58t-57.5 -24 q-35 0 -59.5 25t-24.5 59zM680 1253q0 34 24 58t58 24q35 0 59.5 -24.5t24.5 -59.5q0 -34 -24 -58t-58 -24q-35 0 -59.5 25t-24.5 59z" />
<glyph unicode="&#xec;" horiz-adv-x="534" d="M41 41q0 20 14 31.5t39 11.5h84q22 0 31.5 9.5t9.5 31.5v700q0 22 -9.5 31.5t-31.5 9.5h-84q-25 0 -39 11.5t-14 31.5q0 19 14 30t39 11h187q26 0 37.5 -11.5t11.5 -37.5v-776q0 -22 9.5 -31.5t31.5 -9.5h71q25 0 38.5 -11t13.5 -30q0 -43 -52 -43h-348q-25 0 -39 11 t-14 30zM123 1329q0 22 17 38.5t40 16.5q29 0 53 -36l103 -166q12 -15 12 -33q0 -15 -13.5 -28t-31.5 -13q-23 0 -39 22l-121 152q-20 27 -20 47z" />
<glyph unicode="&#xed;" horiz-adv-x="534" d="M41 41q0 20 14 31.5t39 11.5h84q22 0 31.5 9.5t9.5 31.5v700q0 22 -9.5 31.5t-31.5 9.5h-84q-25 0 -39 11.5t-14 31.5q0 19 14 30t39 11h187q26 0 37.5 -11.5t11.5 -37.5v-776q0 -22 9.5 -31.5t31.5 -9.5h71q25 0 38.5 -11t13.5 -30q0 -43 -52 -43h-348q-25 0 -39 11 t-14 30zM225 1149q0 17 13 33l102 166q24 36 53 36q23 0 40.5 -16.5t17.5 -38.5q0 -19 -21 -47l-121 -152q-17 -22 -39 -22q-19 0 -32 12t-13 29z" />
<glyph unicode="&#xee;" horiz-adv-x="534" d="M23 1139q0 17 14 35l104 133q34 43 61.5 59t65.5 16q37 0 64 -16t61 -59l101 -127q16 -19 16 -39q0 -19 -14.5 -33t-34.5 -14q-23 0 -43 26l-152 193l-157 -195q-21 -24 -41 -24q-19 0 -32 13t-13 32zM41 41q0 20 14 31.5t39 11.5h84q22 0 31.5 9.5t9.5 31.5v700 q0 22 -9.5 31.5t-31.5 9.5h-84q-25 0 -39 11.5t-14 31.5q0 19 14 30t39 11h187q26 0 37.5 -11.5t11.5 -37.5v-776q0 -22 9.5 -31.5t31.5 -9.5h71q25 0 38.5 -11t13.5 -30q0 -43 -52 -43h-348q-25 0 -39 11t-14 30z" />
<glyph unicode="&#xef;" horiz-adv-x="534" d="M23 1253q0 34 23.5 58t57.5 24q35 0 59.5 -24.5t24.5 -59.5q0 -34 -24 -58t-58 -24q-35 0 -59 25t-24 59zM39 41q0 20 14 31.5t39 11.5h84q22 0 31.5 9.5t9.5 31.5v700q0 22 -9.5 31.5t-31.5 9.5h-84q-25 0 -39 11.5t-14 31.5q0 19 14 30t39 11h187q26 0 37.5 -11.5 t11.5 -37.5v-776q0 -22 9.5 -31.5t31.5 -9.5h71q25 0 38.5 -11t13.5 -30q0 -43 -52 -43h-348q-25 0 -39 11t-14 30zM326 1253q0 34 24 58t58 24q35 0 59.5 -24.5t24.5 -59.5q0 -34 -24 -58t-58 -24q-35 0 -59.5 25t-24.5 59z" />
<glyph unicode="&#xf0;" horiz-adv-x="1116" d="M82 485q0 120 32.5 207t104.5 156q137 131 334 131q193 0 313 -117q-43 140 -130 233.5t-224 147.5l-221 -141q-17 -10 -29 -10q-15 0 -27 11.5t-12 26.5q0 22 27 37l168 111q-39 14 -120.5 31.5t-129.5 21.5q-25 2 -36 10t-11 27q0 15 11 26t28 11q145 0 344 -62 l207 134q17 10 28 10q15 0 26 -11.5t11 -25.5q0 -22 -24 -37l-162 -104q104 -47 173.5 -99t125.5 -125q68 -91 106.5 -245t38.5 -334q0 -229 -100 -361q-63 -84 -159.5 -129t-213.5 -45q-218 0 -348.5 139.5t-130.5 374.5zM201 487q0 -198 96 -314t260 -116t261 111.5 t97 300.5q0 196 -94.5 310t-257.5 114t-262.5 -112t-99.5 -294z" />
<glyph unicode="&#xf1;" horiz-adv-x="1202" d="M41 41q0 20 14 31.5t39 11.5h84q22 0 31.5 9.5t9.5 31.5v700q0 22 -9.5 31.5t-31.5 9.5h-84q-25 0 -39 11.5t-14 31.5q0 19 14 30t39 11h187q26 0 37.5 -11.5t11.5 -37.5v-133q35 101 121.5 156t212.5 55q166 0 254 -80.5t88 -232.5v-541q0 -22 9.5 -31.5t31.5 -9.5h83 q54 0 54 -41q0 -43 -54 -43h-360q-53 0 -53 41q0 43 51 43h86q22 0 31.5 9.5t9.5 31.5v510q0 126 -67.5 192t-196.5 66q-139 0 -220 -89t-81 -243v-436q0 -22 9.5 -31.5t31.5 -9.5h86q51 0 51 -41q0 -43 -51 -43h-363q-25 0 -39 11t-14 30zM299 1161q0 70 53 126t119 56 q60 0 147 -57q55 -35 77 -45t44 -10q32 0 52.5 20t35.5 66q9 31 35 31q15 0 26 -11t11 -28q0 -66 -50 -117t-116 -51q-33 0 -59 10.5t-84 46.5q-84 51 -125 51q-63 0 -86 -69q-10 -29 -20 -39.5t-25 -10.5t-25 9.5t-10 21.5z" />
<glyph unicode="&#xf2;" horiz-adv-x="1116" d="M82 494q0 218 132 351.5t347 133.5q218 0 345.5 -135t127.5 -367q0 -230 -129 -368t-344 -138q-221 0 -350 140.5t-129 382.5zM197 489q0 -200 96 -316t262 -116q169 0 267 111t98 301q0 196 -96 310t-261 114q-164 0 -265 -112t-101 -292zM426 1329q0 22 17 38.5 t40 16.5q33 0 54 -36l102 -166q12 -15 12 -33q0 -15 -13.5 -28t-31.5 -13q-20 0 -39 22l-121 152q-20 27 -20 47z" />
<glyph unicode="&#xf3;" horiz-adv-x="1116" d="M82 494q0 218 132 351.5t347 133.5q218 0 345.5 -135t127.5 -367q0 -230 -129 -368t-344 -138q-221 0 -350 140.5t-129 382.5zM197 489q0 -200 96 -316t262 -116q169 0 267 111t98 301q0 196 -96 310t-261 114q-164 0 -265 -112t-101 -292zM516 1149q0 18 12 33l103 166 q24 36 53 36q23 0 40 -16.5t17 -38.5q0 -20 -20 -47l-121 -152q-16 -22 -39 -22q-19 0 -32 12t-13 29z" />
<glyph unicode="&#xf4;" horiz-adv-x="1116" d="M82 494q0 218 132 351.5t347 133.5q218 0 345.5 -135t127.5 -367q0 -230 -129 -368t-344 -138q-221 0 -350 140.5t-129 382.5zM197 489q0 -200 96 -316t262 -116q169 0 267 111t98 301q0 196 -96 310t-261 114q-164 0 -265 -112t-101 -292zM326 1139q0 16 16 35l102 133 q34 43 61.5 59t65.5 16q37 0 64 -16t61 -59l101 -127q16 -19 16 -39q0 -19 -14.5 -33t-34.5 -14q-23 0 -43 26l-152 193l-157 -195q-21 -24 -41 -24q-19 0 -32 13t-13 32z" />
<glyph unicode="&#xf5;" horiz-adv-x="1116" d="M82 494q0 218 132 351.5t347 133.5q218 0 345.5 -135t127.5 -367q0 -230 -129 -368t-344 -138q-221 0 -350 140.5t-129 382.5zM197 489q0 -200 96 -316t262 -116q169 0 267 111t98 301q0 196 -96 310t-261 114q-164 0 -265 -112t-101 -292zM272 1161q0 71 53.5 126.5 t120.5 55.5q58 0 148 -57q53 -35 76 -45t45 -10q32 0 52.5 20t33.5 66q12 31 37 31q15 0 25.5 -11t10.5 -28q0 -66 -49.5 -117t-115.5 -51q-32 0 -58.5 10.5t-87.5 46.5q-84 51 -123 51q-65 0 -88 -69q-10 -29 -20 -39.5t-25 -10.5t-25 9.5t-10 21.5z" />
<glyph unicode="&#xf6;" horiz-adv-x="1116" d="M82 494q0 218 132 351.5t347 133.5q218 0 345.5 -135t127.5 -367q0 -230 -129 -368t-344 -138q-221 0 -350 140.5t-129 382.5zM197 489q0 -200 96 -316t262 -116q169 0 267 111t98 301q0 196 -96 310t-261 114q-164 0 -265 -112t-101 -292zM274 1253q0 34 24 58t58 24 q35 0 59.5 -24.5t24.5 -59.5q0 -34 -24 -58t-58 -24q-35 0 -59.5 25t-24.5 59zM674 1253q0 34 24 58t58 24q35 0 59.5 -24.5t24.5 -59.5q0 -34 -24 -58t-58 -24q-35 0 -59.5 25t-24.5 59z" />
<glyph unicode="&#xf7;" d="M106 702q0 41 50 41h780q49 0 49 -38q0 -41 -49 -41h-780q-50 0 -50 38zM455 362q0 37 26.5 64t63.5 27q39 0 66.5 -27.5t27.5 -65.5t-27 -65t-65 -27q-37 0 -64.5 28t-27.5 66zM455 1049q0 37 26.5 63.5t63.5 26.5q40 0 67 -27t27 -65t-27 -65.5t-65 -27.5 q-37 0 -64.5 28.5t-27.5 66.5z" />
<glyph unicode="&#xf8;" horiz-adv-x="1122" d="M80 481q0 226 132.5 364t350.5 138q186 0 301 -100l90 98q15 18 33 18q15 0 26 -10.5t11 -25.5q0 -13 -14 -31l-90 -101q116 -131 116 -344q0 -233 -129.5 -374.5t-343.5 -141.5q-88 0 -169.5 27.5t-137.5 75.5l-84 -97q-17 -20 -35 -20q-15 0 -27 12t-12 27q0 14 17 31 l84 98q-119 135 -119 356zM193 479q0 -166 77 -272l527 598q-37 41 -102 65.5t-138 24.5q-163 0 -263.5 -115t-100.5 -301zM322 150q56 -50 110.5 -71.5t124.5 -21.5q169 0 267 117.5t98 319.5q0 81 -17 139t-57 115z" />
<glyph unicode="&#xf9;" horiz-adv-x="1187" d="M20 909q0 19 14.5 30t39.5 11h186q26 0 37.5 -11.5t11.5 -37.5v-557q0 -146 63 -216.5t193 -70.5q152 0 229.5 95.5t77.5 283.5v389q0 22 -9.5 31.5t-31.5 9.5h-86q-51 0 -51 43q0 41 51 41h189q26 0 37.5 -11.5t11.5 -37.5v-776q0 -22 9.5 -31.5t31.5 -9.5h84 q53 0 53 -41q0 -43 -53 -43h-186q-26 0 -38 11.5t-12 37.5v123q-65 -201 -337 -201q-168 0 -254 92q-47 50 -64.5 109.5t-17.5 171.5v481q0 22 -9.5 31.5t-31.5 9.5h-84q-25 0 -39.5 11.5t-14.5 31.5zM444 1329q0 22 17.5 38.5t40.5 16.5q32 0 53 -36l102 -166 q13 -16 13 -33q0 -15 -13.5 -28t-31.5 -13q-20 0 -39 22l-121 152q-21 28 -21 47z" />
<glyph unicode="&#xfa;" horiz-adv-x="1187" d="M20 909q0 19 14.5 30t39.5 11h186q26 0 37.5 -11.5t11.5 -37.5v-557q0 -146 63 -216.5t193 -70.5q152 0 229.5 95.5t77.5 283.5v389q0 22 -9.5 31.5t-31.5 9.5h-86q-51 0 -51 43q0 41 51 41h189q26 0 37.5 -11.5t11.5 -37.5v-776q0 -22 9.5 -31.5t31.5 -9.5h84 q53 0 53 -41q0 -43 -53 -43h-186q-26 0 -38 11.5t-12 37.5v123q-65 -201 -337 -201q-168 0 -254 92q-47 50 -64.5 109.5t-17.5 171.5v481q0 22 -9.5 31.5t-31.5 9.5h-84q-25 0 -39.5 11.5t-14.5 31.5zM543 1149q0 15 12 33l102 166q24 36 54 36q23 0 40 -16.5t17 -38.5 q0 -20 -20 -47l-121 -152q-17 -22 -39 -22q-19 0 -32 12t-13 29z" />
<glyph unicode="&#xfb;" horiz-adv-x="1187" d="M20 909q0 19 14.5 30t39.5 11h186q26 0 37.5 -11.5t11.5 -37.5v-557q0 -146 63 -216.5t193 -70.5q152 0 229.5 95.5t77.5 283.5v389q0 22 -9.5 31.5t-31.5 9.5h-86q-51 0 -51 43q0 41 51 41h189q26 0 37.5 -11.5t11.5 -37.5v-776q0 -22 9.5 -31.5t31.5 -9.5h84 q53 0 53 -41q0 -43 -53 -43h-186q-26 0 -38 11.5t-12 37.5v123q-65 -201 -337 -201q-168 0 -254 92q-47 50 -64.5 109.5t-17.5 171.5v481q0 22 -9.5 31.5t-31.5 9.5h-84q-25 0 -39.5 11.5t-14.5 31.5zM348 1139q0 15 17 35l102 133q34 43 61.5 59t65.5 16q37 0 64 -16 t61 -59l100 -127q17 -20 17 -39t-15 -33t-35 -14q-23 0 -43 26l-151 193l-158 -195q-21 -24 -41 -24q-19 0 -32 13t-13 32z" />
<glyph unicode="&#xfc;" horiz-adv-x="1187" d="M20 909q0 19 14.5 30t39.5 11h186q26 0 37.5 -11.5t11.5 -37.5v-557q0 -146 63 -216.5t193 -70.5q152 0 229.5 95.5t77.5 283.5v389q0 22 -9.5 31.5t-31.5 9.5h-86q-51 0 -51 43q0 41 51 41h189q26 0 37.5 -11.5t11.5 -37.5v-776q0 -22 9.5 -31.5t31.5 -9.5h84 q53 0 53 -41q0 -43 -53 -43h-186q-26 0 -38 11.5t-12 37.5v123q-65 -201 -337 -201q-168 0 -254 92q-47 50 -64.5 109.5t-17.5 171.5v481q0 22 -9.5 31.5t-31.5 9.5h-84q-25 0 -39.5 11.5t-14.5 31.5zM309 1253q0 34 24 58t58 24q35 0 59.5 -24.5t24.5 -59.5q0 -34 -24 -58 t-58 -24q-35 0 -59.5 25t-24.5 59zM709 1253q0 34 24 58t58 24q35 0 59 -24.5t24 -59.5q0 -34 -23.5 -58t-57.5 -24q-35 0 -59.5 25t-24.5 59z" />
<glyph unicode="&#xfd;" horiz-adv-x="1105" d="M6 909q0 41 51 41h308q25 0 39 -11t14 -30q0 -43 -53 -43h-68q-19 0 -30 -8t-11 -22q0 -13 6 -25l244 -551q26 -67 59 -151q15 40 29 69l31 70l237 563q6 15 6 25q0 30 -43 30h-69q-51 0 -51 43q0 41 51 41h291q53 0 53 -41q0 -43 -53 -43h-23q-18 0 -25.5 -5t-15.5 -21 l-418 -969q-63 -145 -118 -193.5t-156 -48.5q-63 0 -99 16t-36 42q0 19 12 31t29 12q4 0 51 -11q6 -2 28 -2q62 0 101.5 33.5t73.5 114.5l45 110q6 15 6 21q0 5 -6 20l-365 824q-6 17 -14 21.5t-27 4.5h-33q-51 0 -51 43zM528 1149q0 17 13 33l102 166q21 36 53 36 q23 0 40.5 -16.5t17.5 -38.5q0 -19 -21 -47l-121 -152q-19 -22 -39 -22q-19 0 -32 12t-13 29z" />
<glyph unicode="&#xfe;" horiz-adv-x="1206" d="M27 -305q0 20 14 31.5t39 11.5h84q22 0 31.5 10t9.5 33v1458q0 23 -9.5 33t-31.5 10h-84q-25 0 -39 11.5t-14 31.5q0 19 14 30t39 11h186q26 0 37.5 -11.5t11.5 -37.5v-586q35 120 127.5 184t229.5 64q212 0 332 -133t120 -365q0 -235 -120.5 -372.5t-325.5 -137.5 q-134 0 -228 63.5t-135 184.5v-438q0 -23 9.5 -33t31.5 -10h84q54 0 54 -41q0 -43 -54 -43h-360q-25 0 -39 11t-14 30zM317 481q0 -108 22 -181t71 -130q93 -113 245 -113q161 0 258 114t97 306t-95 304t-258 112q-161 0 -250.5 -108t-89.5 -304z" />
<glyph unicode="&#xff;" horiz-adv-x="1105" d="M6 909q0 41 51 41h308q25 0 39 -11t14 -30q0 -43 -53 -43h-68q-19 0 -30 -8t-11 -22q0 -13 6 -25l244 -551q26 -67 59 -151q15 40 29 69l31 70l237 563q6 15 6 25q0 30 -43 30h-69q-51 0 -51 43q0 41 51 41h291q53 0 53 -41q0 -43 -53 -43h-23q-18 0 -25.5 -5t-15.5 -21 l-418 -969q-63 -145 -118 -193.5t-156 -48.5q-63 0 -99 16t-36 42q0 19 12 31t29 12q4 0 51 -11q6 -2 28 -2q62 0 101.5 33.5t73.5 114.5l45 110q6 15 6 21q0 5 -6 20l-365 824q-6 17 -14 21.5t-27 4.5h-33q-51 0 -51 43zM268 1253q0 34 24 58t58 24q35 0 59.5 -24.5 t24.5 -59.5q0 -34 -24 -58t-58 -24q-35 0 -59.5 25t-24.5 59zM668 1253q0 34 24 58t58 24q35 0 59.5 -24.5t24.5 -59.5q0 -34 -24 -58t-58 -24q-35 0 -59.5 25t-24.5 59z" />
<glyph unicode="&#x152;" horiz-adv-x="1986" d="M94 688q0 310 152 490q170 208 479 208q87 0 166 -8q135 -12 227 -12h676q28 0 39.5 -11.5t11.5 -39.5v-289q0 -31 -14 -48t-39 -17q-26 0 -40.5 17t-14.5 48v207q0 22 -9.5 31.5t-31.5 9.5h-522q-22 0 -31.5 -9.5t-9.5 -31.5v-461q0 -22 9.5 -31.5t31.5 -9.5h208 q22 0 31.5 9.5t9.5 31.5v125q0 61 52 61q49 0 49 -61v-416q0 -61 -49 -61q-52 0 -52 61v121q0 22 -9.5 31.5t-31.5 9.5h-208q-22 0 -31.5 -9.5t-9.5 -31.5v-469q0 -22 9.5 -31.5t31.5 -9.5h534q22 0 31.5 9.5t9.5 31.5v223q0 32 14 50t39 18q26 0 41 -18t15 -50v-305 q0 -27 -12 -39t-38 -12h-731q-67 0 -147 -8q-117 -12 -205 -12q-280 0 -455 184q-176 188 -176 524zM219 686q0 -286 131 -444q137 -168 438 -168q41 0 116.5 4.5t84.5 7.5q25 9 25 41v1110q0 26 -11 34.5t-45 10.5q-20 0 -81 6q-86 4 -113 4q-264 0 -404.5 -156.5 t-140.5 -449.5z" />
<glyph unicode="&#x153;" horiz-adv-x="1712" d="M82 475q0 223 122 359.5t320 136.5q141 0 238.5 -69t128.5 -189q31 127 122 192.5t238 65.5q190 0 291 -125q46 -57 67 -135t21 -193v-22q0 -26 -11.5 -38t-37.5 -12h-598q-23 0 -32 -9.5t-9 -33.5q0 -63 22 -125.5t60 -109.5q82 -102 231 -102q212 0 256 221 q3 20 18 32.5t34 12.5q22 0 37.5 -14.5t15.5 -36.5q0 -38 -27.5 -97.5t-64.5 -99.5q-43 -48 -116.5 -76t-156.5 -28q-137 0 -237 71.5t-125 188.5q-44 -126 -141.5 -192t-235.5 -66q-195 0 -312.5 134.5t-117.5 358.5zM197 473q0 -183 87 -294t232 -111q148 0 236 110.5 t88 296.5q0 196 -83 303t-235 107q-146 0 -235.5 -113t-89.5 -299zM946 565q0 -35 41 -35h490q23 0 33 10t10 35q0 146 -73 228t-204 82q-82 0 -148.5 -41.5t-103.5 -116.5q-20 -34 -32.5 -81t-12.5 -81z" />
<glyph unicode="&#x178;" horiz-adv-x="1308" d="M14 1321q0 45 56 45h356q57 0 57 -45q0 -47 -57 -47h-84q-19 0 -30 -9t-11 -24q0 -7 8 -27l340 -536q3 -6 10 -6q6 0 9 6l340 536q10 17 10 27q0 14 -11.5 23.5t-31.5 9.5h-82q-55 0 -55 47q0 45 55 45h346q55 0 55 -45q0 -47 -55 -47h-41q-17 0 -24.5 -4.5t-16.5 -18.5 l-436 -671q-10 -14 -10 -33v-414q0 -22 9.5 -31.5t31.5 -9.5h149q55 0 55 -45q0 -47 -55 -47h-500q-55 0 -55 47q0 45 55 45h150q22 0 31.5 9.5t9.5 31.5v414q0 19 -10 33l-432 671q-9 14 -16.5 18.5t-24.5 4.5h-39q-56 0 -56 47zM356 1595q0 37 26.5 64t63.5 27 q40 0 67.5 -27.5t27.5 -65.5t-27 -65t-65 -27q-37 0 -65 28t-28 66zM766 1595q0 37 26.5 64t63.5 27q40 0 67 -27t27 -66q0 -38 -27 -65t-65 -27q-37 0 -64.5 28t-27.5 66z" />
<glyph unicode="&#x2c6;" horiz-adv-x="1024" d="M266 1137q0 17 17 37l104 133q34 43 61 59t64 16q38 0 65.5 -16t61.5 -59l98 -127q17 -20 17 -41q0 -17 -15 -31t-34 -14q-20 0 -43 26l-152 193l-158 -195q-19 -24 -41 -24q-17 0 -31 13t-14 30z" />
<glyph unicode="&#x2dc;" horiz-adv-x="1024" d="M209 1161q0 71 53.5 126.5t120.5 55.5q57 0 147 -57q53 -35 76 -45t45 -10q32 0 52 20t34 66q12 31 37 31q15 0 26 -11t11 -28q0 -66 -50 -117t-116 -51q-32 0 -57.5 10.5t-87.5 46.5q-84 51 -123 51q-65 0 -88 -69q-10 -29 -20 -39.5t-25 -10.5t-25 9.5t-10 21.5z" />
<glyph unicode="&#x2000;" horiz-adv-x="920" />
<glyph unicode="&#x2001;" horiz-adv-x="1841" />
<glyph unicode="&#x2002;" horiz-adv-x="920" />
<glyph unicode="&#x2003;" horiz-adv-x="1841" />
<glyph unicode="&#x2004;" horiz-adv-x="613" />
<glyph unicode="&#x2005;" horiz-adv-x="460" />
<glyph unicode="&#x2006;" horiz-adv-x="306" />
<glyph unicode="&#x2007;" horiz-adv-x="306" />
<glyph unicode="&#x2008;" horiz-adv-x="230" />
<glyph unicode="&#x2009;" horiz-adv-x="368" />
<glyph unicode="&#x200a;" horiz-adv-x="102" />
<glyph unicode="&#x2010;" horiz-adv-x="458" d="M0 502q0 51 61 51h336q29 0 45.5 -13t16.5 -36q0 -51 -62 -51h-336q-61 0 -61 49z" />
<glyph unicode="&#x2011;" horiz-adv-x="458" d="M0 502q0 51 61 51h336q29 0 45.5 -13t16.5 -36q0 -51 -62 -51h-336q-61 0 -61 49z" />
<glyph unicode="&#x2012;" horiz-adv-x="458" d="M0 502q0 51 61 51h336q29 0 45.5 -13t16.5 -36q0 -51 -62 -51h-336q-61 0 -61 49z" />
<glyph unicode="&#x2013;" d="M96 502q0 51 62 51h778q61 0 61 -49q0 -51 -61 -51h-778q-29 0 -45.5 13t-16.5 36z" />
<glyph unicode="&#x2014;" horiz-adv-x="1382" d="M0 502q0 51 61 51h1260q61 0 61 -49q0 -51 -61 -51h-1260q-61 0 -61 49z" />
<glyph unicode="&#x2018;" horiz-adv-x="477" d="M125 1100q0 55 25 127.5t59.5 123.5t60.5 50q12 0 20.5 -10t8.5 -21q0 -13 -12 -31q-78 -118 -78 -174q0 -17 7.5 -20.5t43.5 -3.5q34 0 55 -26.5t21 -67.5q0 -44 -28.5 -74.5t-69.5 -30.5q-51 0 -82 43.5t-31 114.5z" />
<glyph unicode="&#x2019;" horiz-adv-x="477" d="M145 1288q0 44 29 74.5t70 30.5q51 0 81.5 -43.5t30.5 -114.5q0 -56 -24.5 -127.5t-59 -122.5t-61.5 -51q-10 0 -19.5 10t-9.5 21q0 10 13 30q77 116 77 174q0 17 -8 21t-43 4q-34 0 -55 26.5t-21 67.5z" />
<glyph unicode="&#x201a;" horiz-adv-x="477" d="M141 76q0 44 29 74t70 30q51 0 81.5 -43t30.5 -112q0 -87 -52 -194t-93 -107q-10 0 -19.5 9.5t-9.5 20.5t35 64q23 33 39 74.5t16 64.5q0 17 -8 21t-43 4q-34 0 -55 26.5t-21 67.5z" />
<glyph unicode="&#x201c;" horiz-adv-x="751" d="M143 1100q0 55 25.5 127.5t60 123.5t60.5 50q11 0 19.5 -10t8.5 -21q0 -13 -12 -31q-78 -118 -78 -174q0 -17 8 -20.5t44 -3.5q34 0 54.5 -26.5t20.5 -67.5q0 -44 -28.5 -74.5t-69.5 -30.5q-51 0 -82 43.5t-31 114.5zM424 1100q0 56 24.5 128.5t59 123.5t61.5 49 q10 0 18.5 -10t8.5 -21q0 -9 -4.5 -17t-30.5 -48q-22 -34 -37.5 -75.5t-15.5 -64.5q0 -17 7.5 -20.5t43.5 -3.5q34 0 55 -26.5t21 -67.5q0 -44 -28.5 -74.5t-69.5 -30.5q-51 0 -82 43.5t-31 114.5z" />
<glyph unicode="&#x201d;" horiz-adv-x="751" d="M143 1288q0 44 29 74.5t70 30.5q51 0 81.5 -43.5t30.5 -114.5q0 -56 -24.5 -127.5t-59 -122.5t-61.5 -51q-10 0 -19.5 10t-9.5 21q0 10 13 30q77 116 77 174q0 17 -8 21t-43 4q-34 0 -55 26.5t-21 67.5zM424 1288q0 44 28.5 74.5t69.5 30.5q51 0 82 -43.5t31 -114.5 q0 -56 -25 -127.5t-59.5 -122.5t-61.5 -51q-10 0 -19 10t-9 21q0 12 12 30q78 118 78 174q0 17 -8 21t-43 4q-34 0 -55 26.5t-21 67.5z" />
<glyph unicode="&#x201e;" horiz-adv-x="751" d="M143 94q0 44 29 74.5t70 30.5q51 0 81.5 -43.5t30.5 -112.5q0 -87 -52 -194t-93 -107q-10 0 -19.5 10t-9.5 21q0 7 4.5 15t30.5 48q23 33 39 74.5t16 64.5q0 17 -8 21t-43 4q-34 0 -55 26.5t-21 67.5zM424 94q0 44 28.5 74.5t69.5 30.5q51 0 82 -43.5t31 -112.5 q0 -56 -25 -128t-59.5 -122.5t-61.5 -50.5q-10 0 -19 10t-9 21q0 7 4.5 15t30.5 48q23 33 39 74.5t16 64.5q0 17 -8 21t-43 4q-34 0 -55 26.5t-21 67.5z" />
<glyph unicode="&#x2022;" horiz-adv-x="1366" d="M401 692q0 120 83.5 202.5t203.5 82.5q115 0 198 -83.5t83 -199.5q0 -118 -83 -201t-200 -83q-118 0 -201.5 82.5t-83.5 199.5z" />
<glyph unicode="&#x2026;" horiz-adv-x="1372" d="M135 80q0 37 26.5 63.5t63.5 26.5q40 0 67 -27t27 -65t-27 -65t-65 -27q-37 0 -64.5 28t-27.5 66zM592 80q0 37 26.5 63.5t63.5 26.5q40 0 67 -27t27 -65t-27 -65t-65 -27q-37 0 -64.5 28t-27.5 66zM1049 80q0 37 26.5 63.5t63.5 26.5q40 0 67 -27t27 -65t-27 -65 t-65 -27q-37 0 -64.5 28t-27.5 66z" />
<glyph unicode="&#x202f;" horiz-adv-x="368" />
<glyph unicode="&#x2039;" horiz-adv-x="468" d="M86 496q0 3 6 24l150 350q14 39 47 39q19 0 33 -13t14 -32q0 -15 -6 -30l-142 -334l140 -348q8 -16 8 -31q0 -19 -14 -32t-33 -13q-30 0 -47 39l-150 356q-6 18 -6 25z" />
<glyph unicode="&#x203a;" horiz-adv-x="468" d="M133 121q0 17 8 33l142 333l-142 349q-6 15 -6 30q0 17 14 30t33 13q30 0 47 -39l148 -354q6 -15 6 -24q0 -10 -6 -25l-148 -350q-17 -41 -49 -41q-19 0 -33 13t-14 32z" />
<glyph unicode="&#x205f;" horiz-adv-x="460" />
<glyph unicode="&#x20ac;" horiz-adv-x="1521" d="M96 608q0 39 47 39h107q-2 20 -2 41q0 15 2 35h-107q-47 0 -47 39t47 39h111q28 272 191 428.5t419 156.5q109 0 204 -32t161 -90q30 -28 48 -55t36 -72v163q0 31 14 48.5t39 17.5q26 0 40.5 -17.5t14.5 -48.5v-372q0 -32 -14.5 -50t-40.5 -18q-51 0 -57 66 q-12 163 -130.5 264.5t-295.5 101.5q-209 0 -341.5 -129.5t-160.5 -361.5h727q47 0 47 -39t-47 -39h-733q-2 -10 -2 -41q0 -23 2 -35h667q48 0 48 -39t-48 -39h-661q28 -235 158.5 -364t341.5 -129q171 0 286.5 89t137.5 238q8 51 20 68.5t43 17.5q26 0 42.5 -17.5 t16.5 -43.5q0 -28 -15 -82t-34 -92q-63 -134 -189 -203t-306 -69q-267 0 -432 153.5t-197 433.5h-111q-47 0 -47 39z" />
<glyph unicode="&#x2122;" horiz-adv-x="1890" d="M55 1159v156q0 28 11.5 39.5t37.5 11.5h584q26 0 37.5 -11.5t11.5 -39.5v-156q0 -22 -10 -34.5t-27 -12.5q-38 0 -38 47v101q0 22 -9.5 31t-31.5 9h-142q-22 0 -31.5 -9t-9.5 -31v-568q0 -22 9.5 -31.5t31.5 -9.5h62q39 0 39 -33q0 -32 -39 -32h-287q-41 0 -41 32 q0 33 41 33h61q22 0 31.5 9.5t9.5 31.5v568q0 22 -9.5 31t-31.5 9h-143q-22 0 -31.5 -9t-9.5 -31v-101q0 -22 -10 -34.5t-27 -12.5q-39 0 -39 47zM795 618q0 33 41 33h45q22 0 31.5 9.5t9.5 31.5v568q0 22 -9.5 31t-31.5 9h-45q-41 0 -41 33t41 33h204q15 0 25 -20l250 -662 l254 659q10 23 22 23h205q39 0 39 -33t-39 -33h-45q-22 0 -31.5 -9t-9.5 -31v-568q0 -22 9.5 -31.5t31.5 -9.5h45q39 0 39 -33q0 -32 -39 -32h-242q-38 0 -38 32q0 33 38 33h35q22 0 31.5 9.5t9.5 31.5v600l-268 -669q-9 -25 -19.5 -34t-29.5 -9q-36 0 -47 32l-269 662v-582 q0 -22 9.5 -31.5t31.5 -9.5h31q41 0 41 -33q0 -32 -41 -32h-233q-41 0 -41 32z" />
<glyph unicode="&#xe000;" horiz-adv-x="952" d="M0 0v952h952v-952h-952z" />
</font>
</defs>
</svg>
